<!-- Generated by IcoMoon.io -->
<svg version="1.1" xmlns="http://www.w3.org/2000/svg" width="824" height="1024" viewBox="0 0 824 1024">
<title></title>
<g id="icomoon-ignore">
</g>
<path d="M519.792 815.603c-4.504-75.362-41.626-126.319-111.335-152.931-89.757-35.591-100.443-102.386-32.088-200.327 175.304-137.653 116.869 433.212 179.69 117.458 13.1-76.834-31.793-148.839-100.973-162.557-69.651-11.481-137.093 40.507-152.284 116.987-37.092 219.491 102.769 108.509 158.701 202.034zM274.336 67.698c0.677-0.147-0.648 0.177 0 0 105.977-26.494 189.523 16.397 228.381 87.49 25.935 41.272 59.2 105.124 59.2 105.124 7.978 10.303-7.978-10.303 0 0 16.927-2.885-424.027 100.826-426.176 97.175 0.146 0.353-11.569-51.311-5.947-104.859 5.564-53.136 64.322-160.35 144.541-184.931v0zM60.115 403.528c-19.635 12.717-35.385 25.287-41.302 47.602-34.884 132.56 76.834 409.661 133.267 501.862 25.405 40.595-140.155-386.405-100.796-481.579 28.879-127.143 576.517-213.633 585.26-181.516 13.659 12.158 5.858 11.952 11.010 11.952 1.030 0.059 1.707 0.089 2.649 0.206 384.933 416.491-138.654 720.499-419.052 697.92 135.121 8.184 496.504-72.418 563.623-202.417 49.986-96.969-15.602-499.654-123.787-542.162-25.14-9.921-65.353-1.060-89.816 2.326 6.211-8.831 42.656 25.817 24.463-3.385-38.093-153.166-132.001-270.507-350.137-219.314l-1.649 0.442v-0.088c-140.862 36.739-197.589 194.233-151.989 336.007z"></path>
</svg>
