<svg 
xmlns="http://www.w3.org/2000/svg" 
width="28" 
height="28">
  <path d="m 13.973648,0.99999449 c -3.427627,0 -6.2159798,2.79037101 -6.2159798,6.21799821 0,3.4276273 2.7883528,6.2159793 6.2159798,6.2159793 3.427627,0 6.217998,-2.788352 6.217998,-6.2159793 0,-3.4276272 -2.790371,-6.21799821 -6.217998,-6.21799821 z m 0,1.03364121 c 2.869006,0 5.184356,2.315351 5.184356,5.184357 0,2.8690053 -2.31535,5.1823383 -5.184356,5.1823383 -2.869006,0 -5.1823386,-2.313333 -5.1823386,-5.1823383 0,-2.869006 2.3133326,-5.184357 5.1823386,-5.184357 z m 0.02624,13.2213223 c -5.8159587,0 -10.5248964,4.756954 -10.4656184,10.572615 a 0.51687231,0.51687231 0 1 0 1.0336413,-0.01009 c -0.044716,-4.386958 2.903053,-8.080891 6.9346831,-9.18366 l 0.878192,2.218694 a 0.51687231,0.51687231 0 0 0 -0.004,0.0424 l -0.581423,7.548407 a 0.5173113,0.5173113 0 1 0 1.031622,0.07874 l 0.55316,-7.201169 h 1.160828 l 0.553159,7.201169 a 0.5173118,0.5173118 0 1 0 1.031623,-0.07874 l -0.581423,-7.538312 0.904436,-2.283298 c 4.056758,1.086356 7.030046,4.791383 6.985153,9.195773 a 0.51687231,0.51687231 0 1 0 1.031622,0.01009 c 0.05925,-5.815665 -4.649692,-10.572619 -10.46565,-10.572619 z m 0,1.033641 c 0.485103,0 0.958132,0.04678 1.423275,0.117092 l -0.744948,1.88155 H 13.269071 L 12.52816,16.413766 c 0.480504,-0.0752 0.969718,-0.125167 1.471728,-0.125167 z"/>
</svg>