<svg xmlns="http://www.w3.org/2000/svg" viewBox="0 0 24 24" style="fill-rule:evenodd;clip-rule:evenodd;stroke-linejoin:round;stroke-miterlimit:1.41421;">
    <g transform="matrix(1.1,0,0,1.1,-1.2,-1.2)">
        <path d="M12,2C6.514,2 2,6.514 2,12C2,17.486 6.514,22 12,22C17.486,22 22,17.486 22,12C21.984,6.52 17.48,2.016 12,2ZM17,10L17,10.3C17,10.318 17,10.335 17,10.353C17,14.274 13.774,17.5 9.853,17.5C9.835,17.5 9.818,17.5 9.8,17.5C8.425,17.49 7.077,17.11 5.9,16.4L6.5,16.4C7.632,16.42 8.734,16.029 9.6,15.3C8.497,15.284 7.524,14.554 7.2,13.5L7.7,13.5C7.938,13.516 8.176,13.482 8.4,13.4C7.218,13.167 6.368,12.105 6.4,10.9C6.73,11.104 7.112,11.208 7.5,11.2C6.863,10.735 6.49,9.988 6.5,9.2C6.493,8.749 6.596,8.302 6.8,7.9C8.083,9.467 9.977,10.413 12,10.5C12,10.3 11.9,10.1 11.9,9.9C11.9,9.892 11.9,9.884 11.9,9.876C11.9,8.517 13.017,7.4 14.376,7.4C14.384,7.4 14.392,7.4 14.4,7.4C15.088,7.389 15.747,7.682 16.2,8.2C16.834,8.202 17.457,8.029 18,7.7C17.811,8.282 17.421,8.778 16.9,9.1C17.382,9.027 17.852,8.892 18.3,8.7C17.945,9.205 17.505,9.645 17,10Z" style="fill-rule:nonzero;"/>
    </g>
<rect x="0.0" y="0.0" width="24.0" height="24.0" style="fill:none;"/>
</svg>
