<svg xmlns="http://www.w3.org/2000/svg" width="1024" height="1024"><path d="M750.018 772.143c-23.617 0-43.175-3.321-58.672-9.963-15.499-6.642-28.414-15.498-38.746-26.569-16.237 8.856-35.795 16.605-58.672 23.248-22.879 5.904-45.758 8.856-68.636 8.856-35.425 0-67.898-5.535-97.418-16.605-28.783-11.07-53.876-27.307-75.278-48.709-21.403-22.141-38.008-49.078-49.816-80.813s-17.713-68.635-17.712-110.703c0-35.425 5.535-68.635 16.605-99.632 11.07-31.734 27.306-59.041 48.709-81.92 22.14-23.616 48.709-42.066 79.706-55.351 31.734-13.284 67.528-19.926 107.382-19.926 37.638.001 71.956 2.953 102.954 8.856 31.734 5.905 56.089 11.809 73.064 17.712v338.75c-.001 23.617 4.058 40.222 12.177 49.816 8.117 9.594 18.819 14.391 32.104 14.391 19.188 0 35.793-6.642 49.816-19.926 14.759-13.284 26.568-30.628 35.425-52.03 9.593-21.402 16.605-45.388 21.034-71.957 4.427-27.306 6.641-54.982 6.642-83.027-.001-46.495-8.119-90.038-24.355-130.629-16.237-41.329-39.485-77.491-69.743-108.489-30.259-30.996-67.161-55.351-110.703-73.064-42.806-17.712-91.146-26.568-145.021-26.569-53.876.001-103.323 9.226-148.342 27.676-45.019 17.713-83.765 43.544-116.238 77.492-32.473 33.211-57.935 74.171-76.385 122.88-17.713 48.709-26.569 104.061-26.569 166.054 0 64.946 9.594 122.142 28.783 171.589 19.188 48.709 45.757 89.669 79.706 122.88 34.686 32.473 75.277 56.827 121.773 73.064 47.233 16.974 98.894 25.462 154.984 25.462 43.542 0 79.336-2.582 107.382-7.749 28.782-5.166 47.232-9.225 55.351-12.177l11.07 81.92c-12.547 4.428-35.426 9.225-68.636 14.391-32.474 5.166-67.529 7.749-105.168 7.749-65.684 0-127.678-9.594-185.982-28.783-58.304-18.451-109.227-47.233-152.77-86.348-43.543-38.377-78.23-87.455-104.061-147.235-25.093-60.517-37.639-132.105-37.639-214.763 0-79.706 12.546-149.448 37.639-209.228s58.672-109.226 100.739-148.342c42.805-39.852 91.883-69.742 147.235-89.669 56.089-19.926 115.13-29.889 177.125-29.89 60.517.001 117.713 9.964 171.589 29.89 53.875 19.189 101.108 47.603 141.699 85.241 40.59 36.901 72.694 81.921 96.311 135.057 23.616 52.4 35.424 111.81 35.425 178.231-.001 50.185-5.905 94.466-17.712 132.843-11.071 38.377-26.201 70.85-45.388 97.418-19.189 25.831-42.068 45.388-68.636 58.672s-54.614 19.926-84.134 19.926zm-221.406-89.669c15.498 0 30.996-1.475 46.495-4.428 16.236-3.69 30.627-8.856 43.174-15.498-2.214-9.594-3.691-19.188-4.428-28.783-.739-9.594-1.107-18.819-1.107-27.676V345.938c-4.429-1.475-12.916-2.952-25.462-4.428s-26.569-2.214-42.067-2.214c-52.4.001-91.515 16.237-117.345 48.709s-38.746 73.433-38.746 122.88c-.001 52.399 12.546 94.098 37.639 125.094s59.041 46.495 101.846 46.495z"/></svg>