<svg xmlns="http://www.w3.org/2000/svg" width="1024" height="1024"><path d="M512.153 336.672c96.815 0 175.121 78.306 175.121 175.121 0 50.963-21.928 96.633-56.602 128.617-30.689-15.934-67.91-21.997-76.532-45.175-1.242-13.708-.797-23.349-.797-35.874 6.208-3.257 17.52-23.912 19.399-41.455 4.881-.4 12.362-5.381 14.616-24.182 1.216-10.094-3.435-15.753-6.378-17.539 7.942-23.887 24.39-97.596-30.56-105.232-5.655-9.932-20.245-15.147-39.063-15.147-75.291 1.386-84.268 56.857-67.763 120.379-2.934 1.786-7.851 7.445-6.643 17.539 2.262 18.801 10 23.782 14.881 24.182 1.871 17.534 13.44 38.198 19.665 41.455 0 12.526.444 22.167-.797 35.874-8.65 23.255-45.974 29.413-76.798 45.441-34.834-31.995-56.868-77.785-56.868-128.882 0-96.815 78.306-175.121 175.121-175.121zm0-17.007c-106.006 0-192.128 86.122-192.128 192.128s86.122 192.128 192.128 192.128c106.006 0 192.128-86.122 192.128-192.128s-86.122-192.128-192.128-192.128zm.174-247.956l13.759 15.135c97.642 105.136 222.105 176.334 359.802 205.011 8.086 269.161-158.498 475.23-230.466 551.054-25.455 26.845-55.658 55.399-83.243 76.363-27.342 20.779-54.128 32.727-59.164 33.022-.044.003-.647-.001-.688 0-1.358-.009-10.169-2.099-20.639-7.568s-23.456-13.868-37.149-24.079c-27.387-20.422-58.072-48.273-84.619-75.675-89.759-92.765-239.092-288.446-231.842-553.118l14.447-3.44c128.358-30.042 245.086-96.986 337.787-194.004l22.015-22.703zm0-44.029c-12.603-.188-24.936 5.975-32.333 13.759l-21.327 22.015c-86.939 90.987-196.495 154.231-316.461 182.309l-13.759 2.752c-19.5 4.431-33.961 21.907-34.398 41.965-7.718 281.73 149.941 488.01 244.225 585.452 28.051 28.955 60.161 57.461 90.122 79.803 14.981 11.171 29.773 21.12 43.341 28.206s25.409 12.283 39.902 12.383h1.376c29.663-.57 55.791-19.01 85.995-41.965s61.807-52.768 88.747-81.179c75.97-80.041 250.807-294.89 242.161-582.7-.443-20.378-14.886-37.628-34.398-41.965h-.688c-128.68-26.8-244.728-93.22-336.412-191.94L544.661 41.44h-.688c-7.913-8.327-18.764-13.566-30.958-13.759-.227-.004-.46 0-.688 0z"/></svg>