<svg xmlns="http://www.w3.org/2000/svg" height="50" width="50"><path d="M27.125 33.4l.78 6.68-6.027.22.425-6.79c-1.465-.84-2.412-2.48-2.412-4.45 0-2.82 2.518-4.98 5.036-4.98s4.985 2.1 4.985 4.9c0 2.08-1.195 3.62-2.785 4.42zM24.349 5.31h.128c5.55 0 7.566 2.22 8.682 4.49 1.123 2.27.98 4.65.98 4.65 0 .56.21 1.06.555 1.44-2.838-.23-6.164-.44-9.576-.47-2.869 0-5.731.16-8.298.3v-.32s-.1-2.62.851-5.2c.943-2.56 2.43-4.83 6.681-5.03zm-.043-4.27c-5.996.26-9.328 4.25-10.64 7.81-1.312 3.57-1.106 6.92-1.106 6.92 0 .19.038.36.09.52-.923.18-1.783.37-2.512.6-1.131.38-2.11.77-2.68 1.8-.76 1.36-1.078 3.2-1.278 5.46-.199 2.25-.218 4.9-.128 7.55.182 5.31.818 10.66 1.703 13.53.123.59.638 1.02 1.253 1.02a1.275 1.275 0 001.17-1.79c-.706-2.29-1.398-7.7-1.575-12.86-.089-2.57-.057-5.11.128-7.2.185-2.1.581-3.81.937-4.44h.043c-.016 0 .362-.34 1.234-.64.872-.28 2.15-.54 3.618-.73 2.937-.38 6.7-.54 10.512-.51 3.812 0 7.646.29 10.598.56 1.476.16 2.74.27 3.66.43.46 0 .81.16 1.063.2h.086c.06.16.222.37.298.69.152.65.318 1.61.425 2.73.214 2.23.273 5.15.213 8.15-.06 3-.24 6.05-.597 8.49-.177 1.22-.399 2.3-.638 3.11-.239.83-.573 1.43-.68 1.54-.09.16-.616.41-1.404.68-.813.29-1.837.56-3.106.78-2.538.44-5.79.71-9.023.89-3.233.17-6.461.22-9.065.17-1.302 0-2.474-.16-3.362-.17-.888 0-1.568-.18-1.703-.21-.15 0-.326-.16-.511-.16a1.28 1.28 0 00-1.279 1.29c0 .62.435 1.13 1.015 1.25h.016c.61.19 1.291.26 2.255.34.963.15 2.15.15 3.489.17 2.68 0 5.979 0 9.278-.17 3.3-.18 6.618-.51 9.32-.97 1.352-.24 2.525-.53 3.533-.86 1.008-.35 1.829-.65 2.468-1.36.594-.69.943-1.53 1.235-2.53.29-1 .492-2.15.68-3.46.378-2.6.578-5.71.638-8.79.06-3.08.016-6.11-.212-8.49-.114-1.19-.27-2.19-.469-3.03-.198-.84-.254-1.49-1.149-2.12a3 3 0 00-1.063-.53c-.377-.16-.807-.16-1.32-.25-.606-.16-1.343-.21-2.128-.3.444-.37.734-.91.766-1.53 0 0 .278-3.33-1.404-6.74s-5.716-6.87-12.64-6.87h-.044z"/></svg>