<svg xmlns="http://www.w3.org/2000/svg" height="50" width="50"><path d="M33.918 10.6c-.557-.1-.978-.65-.978-1.31V2.4c0-.72.51-1.3 1.138-1.3.629 0 1.138.58 1.138 1.3v6.89c0 .72-.51 1.32-1.138 1.32h-.157zm-22.278-.2c-.557-.1-.978-.64-.978-1.3V2.22c0-.71.51-1.3 1.138-1.3.629 0 1.138.59 1.138 1.3v6.89c0 .72-.509 1.31-1.138 1.31h-.157zm32-6.94c-2.352.37-4.45.61-7.21.81l-.047 5.37a2.304 2.304 0 01-2.468 2.34h-.047c-1.203-.12-2.154-1.13-2.13-2.34V4.56c-3.855.16-9.956.32-17.616.43v4.65c.035 1.41-1.254 2.53-2.66 2.34a2.289 2.289 0 01-1.985-2.34v-4.6c-2.388 0-3.999.1-6.823.1-.445 0-.853.38-.92.82-1.066 7.02 1.782 29.26 3.098 35.5.1.51.654.87 1.161.77.508-.1.876-.66.775-1.15-.77-3.65-2.818-20.87-3.194-25.64 15.552.6 29.504.41 41.04-.86.066.69.134 1.34.194 2.04.481 5.92 1.859 24.61 1.742 27.96-1.759.96-4.877 1.65-8.76 2.01-4.097.38-8.82.48-13.356.38-9.075-.2-17.181-1.05-17.181-1.05-.508-.1-1.026.33-1.09.84-.064.5.34 1.01.847 1.07 0 0 8.208.85 17.375 1.05 4.582.1 9.38 0 13.6-.38 4.22-.39 7.852-1.03 10.115-2.44.24-.18.387-.47.387-.77.168-3.44-1.236-22.55-1.743-28.76-.253-3.09-.584-6.02-.92-8.26a27.76 27.76 0 00-.533-2.79c-.093-.38-.176-.68-.29-.96s-.22-.58-.58-.87a1.016 1.016 0 00-.775-.19zm-7.684 31.58l4.884-.42.456 4.56-4.884.43-.456-4.57zm-8.286.73l4.886-.43.456 4.57-4.884.43-.456-4.57zm-8.28.71l4.88-.41.456 4.57-4.88.42-.455-4.58zm-8.286.74l4.879-.44.456 4.58-4.88.43-.455-4.57zm24.1-9.72l4.885-.44.456 4.57-4.885.44-.456-4.57zm-.752-7.55l4.885-.42.456 4.58-4.885.43-.456-4.59zm-7.534 8.27l4.874-.42.456 4.57-4.874.44-.456-4.59zm-8.286.73l4.886-.43.456 4.58-4.886.43-.456-4.58zm-8.282.72l4.879-.42.456 4.58-4.88.42-.455-4.58zm15.816-8.99l4.879-.43.456 4.58-4.88.43-.455-4.58zm-8.286.72l4.879-.42.456 4.58-4.879.42-.456-4.58z"/></svg>