<svg version="1.1" xmlns="http://www.w3.org/2000/svg" width="1024" height="1024" viewBox="0 0 1024 1024">
<path d="M226.587 875.847c-26.145 0-47.932-4.357-58.826-13.072-84.97-63.183-152.511-379.098-141.617-488.034 0-10.894 10.894-19.609 23.966-19.609 10.894 0 19.609 10.894 19.609 23.966-8.715 104.579 58.826 398.706 126.366 448.817 58.826 43.574 716.8-163.404 773.447-206.979 6.536-19.609-8.715-117.651-52.289-239.66-45.753-126.366-89.328-193.906-113.294-202.621-23.966-10.894-119.83-4.357-313.736 47.932-143.796 39.217-276.698 84.97-307.2 102.4-10.894 6.536-23.966 2.179-30.502-6.536s-2.179-23.966 8.715-30.502c63.183-34.86 559.932-198.264 660.153-154.689 78.434 34.86 161.226 281.055 185.191 400.885 15.251 78.434 4.357 100.221-6.536 111.115-30.502 32.681-577.362 226.587-773.447 226.587zM291.949 901.991c-119.83 0-213.515-10.894-239.66-39.217-69.719-80.613-65.362-403.064-30.502-507.643 4.357-10.894 15.251-17.43 26.145-13.072s17.43 15.251 13.072 26.145c-32.681 100.221-32.681 403.064 21.787 466.247 47.932 56.647 745.123 0 801.77-30.502 4.357-2.179 2.179-28.323-2.179-65.362-2.179-17.43-4.357-39.217-6.536-63.183 0-10.894 8.715-21.787 19.609-23.966 10.894 0 21.787 8.715 23.966 19.609 2.179 23.966 4.357 45.753 6.536 63.183 6.536 61.004 8.715 89.328-17.43 106.757-23.966 17.43-370.383 61.004-616.579 61.004zM738.587 540.323c-15.251 0-30.502-2.179-41.396-8.715-43.574-21.787-71.898-78.434-71.898-141.617 0-6.536 2.179-13.072 8.715-17.43 41.396-30.502 161.226-56.647 187.37-47.932 23.966 6.536 67.54 74.077 76.255 113.294 6.536 21.787 2.179 39.217-8.715 50.111-26.145 26.145-95.864 52.289-150.332 52.289zM668.868 403.064c2.179 43.574 21.787 78.434 47.932 91.506 28.323 13.072 117.651-13.072 141.617-37.038 4.357-15.251-34.86-78.434-50.111-91.506-17.43 0-102.4 15.251-139.438 37.038z"></path>
</svg>
