<?xml version="1.0" encoding="UTF-8" standalone="no"?>
<svg id="svg20522" xmlns:rdf="http://www.w3.org/1999/02/22-rdf-syntax-ns#" xmlns="http://www.w3.org/2000/svg" height="50" width="50" version="1.1" xmlns:cc="http://creativecommons.org/ns#" xmlns:dc="http://purl.org/dc/elements/1.1/" viewBox="0 0 50 50">
 <g id="layer1" transform="translate(0 -1002.4)">
  <g id="g21145" transform="matrix(1.5221 0 0 1.5089 1.166 1003.2)">
   <path id="path21131" d="m2.462 27.692c3.446 0.738 8.246 1.231 12.923 1.231 7.508 0 13.415-0.985 15.631-2.708 0.123-0.123 0.246-0.246 0.246-0.369 0.369-2.338 0-18.954 0-19.692 0-0.246-0.123-0.369-0.246-0.492s-0.369-0.123-0.615-0.123l-2.585 0.738v-0.123c-0.246-2.092-0.615-2.708-0.738-2.831-0.246-0.246-0.369-0.246-0.615-0.246-1.477 0.123-2.585 0.615-3.815 1.108-3.077 1.231-7.385 2.954-21.785 2.708-0.369 0-0.615 0.246-0.615 0.492-0.862 4.554 0 11.077 0.862 15.877 0.123 0.369 0.369 0.615 0.738 0.492s0.615-0.369 0.492-0.738c-0.615-3.569-1.6-10.215-0.985-14.769v-0.123h0.123c14.031 0.246 18.462-1.477 21.538-2.831 0.985-0.369 1.969-0.738 2.954-0.985h0.123v0.123c0.615 2.338 1.108 13.538 0.862 18.338-5.662 2.831-24.246 3.569-24.492 3.569-0.369 0-0.615 0.246-0.615 0.615 0.123 0.369 0.246 0.615 0.615 0.738zm25.6-3.938c0.123-0.123 0.246-0.246 0.369-0.492 0.123-2.215 0.123-10.585-0.369-15.754v-0.123l2.092-0.615v0.123c0 1.6 0.369 15.262 0 18.215-2.215 1.477-8.123 2.338-14.646 2.338-1.723 0-3.569-0.123-5.292-0.246v-0.246c6.277-0.246 14.523-1.231 17.846-3.2z"/>
   <path id="path21133" d="m17.723 23.631c-0.985 0-2.831-0.246-4.308-1.354-1.354-0.985-2.215-2.585-2.462-4.554-0.246-2.092 0.123-3.938 1.231-5.169 1.6-1.969 3.938-2.215 4.062-2.215 0.369 0 0.738 0.246 0.862 0.615 0 0.369-0.246 0.738-0.615 0.738 0 0-1.846 0.246-3.077 1.6-0.862 0.985-1.108 2.338-0.862 4.062 0.246 1.6 0.862 2.831 1.846 3.569 1.723 1.354 4.062 0.985 4.062 0.985 0.369-0.123 0.738 0.246 0.862 0.615 0 0.369-0.246 0.738-0.615 0.862-0.123 0.123-0.492 0.246-0.985 0.246z"/>
   <path id="path21135" d="m10.462 17.846c-0.369 0-0.615-0.246-0.738-0.615s0.246-0.738 0.615-0.862l4.8-0.738c0.369-0.123 0.738 0.246 0.862 0.615s-0.246 0.738-0.615 0.862l-4.923 0.738z"/>
   <path id="path21137" d="m10.831 20.554c-0.369 0-0.615-0.246-0.738-0.615s0.246-0.738 0.615-0.862l4.8-0.738c0.369 0 0.738 0.246 0.862 0.615s-0.246 0.738-0.615 0.862l-4.923 0.738z"/>
  </g>
 </g>
</svg>
