<svg xmlns="http://www.w3.org/2000/svg" width="1024" height="1024"><path d="M512 27.676C244.515 27.676 27.676 244.516 27.676 512S244.516 996.324 512 996.324c267.485 0 484.324-216.84 484.324-484.324S779.484 27.676 512 27.676zm0 42.378c244.225 0 441.946 197.721 441.946 441.946S756.225 953.946 512 953.946C267.775 953.946 70.054 756.225 70.054 512S267.775 70.054 512 70.054zm9.514 233.514c-84.203 0-128 46.598-128 136.649h49.297c0-26.898 3.361-43.047 10.378-57.081 11.11-21.635 33.874-33.73 64.865-33.73 45.025 0 75.243 26.832 75.243 66.595 0 26.898-13.117 49.49-44.108 76.973-34.5 30.991-34.168 30.659-44.108 44.108-12.28 16.373-16.432 29.976-16.432 51.027v32h52.757v-26.811c0-25.729 6.075-35.81 45.838-72.649C631.1 480.887 646.055 454.593 646.055 416c0-68.415-48.524-112.432-124.541-112.432zm-32.865 372.756v60.541h52.757v-60.541h-52.757z"/></svg>