<svg version="1.1" id="Layer_1" xmlns="http://www.w3.org/2000/svg" xmlns:xlink="http://www.w3.org/1999/xlink" x="0px" y="0px"
	 viewBox="0 0 170.6 40" style="enable-background:new 0 0 170.6 40;" xml:space="preserve">
<g id="svg-logo">
	<path fill="#FEFEFE" d="M34.9,31.6c0,1.9-1.5,3.4-3.4,3.4H3.7c-1.9,0-3.4-1.5-3.4-3.4V3.7c0-1.9,1.5-3.4,3.4-3.4h27.7
		c1.9,0,3.4,1.5,3.4,3.4V31.6z"/>
	<path fill="#CDCBCB" d="M34.9,16.3c-3.4-1.5-7.3-2.3-11.6-2.3c-2.3-3-3.2-8.9-3-13.6h-4.2c-0.2,4.2,0.4,11.1,3.5,15.6
		c-3,3.8-9,9.1-19.3,7.9v4.3c1,0.1,1.9,0.1,2.8,0.1c10.9,0,17.3-6.4,20.2-10.1c4.6,0,8.5,1,11.8,2.9V16.3z"/>
	<path fill="#E63135" d="M34.6,20.5c-5.5-5.7-12.6-6.9-16.8-7c-1.6-2.7-3-8.7-3-12.8h-4.2c-0.1,4.8,1.4,11.5,3.7,15.2
		c-2.6,3.4-7,7.3-13.7,8V28c9.2-0.7,14.8-6.5,17.6-10.3c5,0.2,12.1,2.1,16.4,9.8V20.5z"/>
	<path fill="#CDCBCB" d="M3.8,0.7c-1.7,0-3.1,1.4-3.1,3.1v27.7c0,1.7,1.4,3.1,3.1,3.1h27.7c1.7,0,3.1-1.4,3.1-3.1V3.8
		c0-1.7-1.4-3.1-3.1-3.1H3.8z M31.4,35.3H3.8c-2.1,0-3.8-1.7-3.8-3.8V3.8C0,1.7,1.7,0,3.8,0h27.7c2.1,0,3.8,1.7,3.8,3.8v27.7
		C35.2,33.6,33.5,35.3,31.4,35.3z"/>
</g>
<g id="svg-logo-text">
	<path d="M104.8,27.7h5.6v2.6h-5.6V27.7z"/>
	<path d="M48.8,19.5H52v15.3H49v-1.5c-1,1.2-2.1,1.7-3.5,1.7c-2.8,0-4.6-2.1-4.6-5.4c0-3.3,1.9-5.6,4.6-5.6
		c1.2,0,2.2,0.5,3.2,1.4V19.5z M44.3,29.5c0,1.8,0.9,2.9,2.2,2.9c1.4,0,2.2-1.1,2.2-2.9c0-1.8-0.9-3-2.3-3
		C45.2,26.5,44.3,27.7,44.3,29.5z"/>
	<path d="M64.1,30.4c0,2.9-1.9,4.6-5.1,4.6c-3.3,0-5.3-1.7-5.3-4.6l0-6.2H57v5.7c0,0.7,0.1,1.2,0.3,1.6
		c0.3,0.5,1,0.9,1.7,0.9c1.3,0,2-0.9,2-2.5l0-5.7h3.2V30.4z"/>
	<path d="M77.6,23.4c-1.1-0.3-1.9-0.5-2.8-0.5c-1.4,0-2.3,0.6-2.3,1.5c0,0.4,0.2,0.8,0.7,1c0.4,0.3,0.5,0.3,1.7,0.8
		c0.8,0.3,1.4,0.5,1.9,0.8c1.6,0.8,2.2,1.8,2.2,3.5c0,2.7-2.2,4.5-5.6,4.5c-0.7,0-1.4-0.1-2.2-0.2c-0.7-0.1-1.1-0.3-2.1-0.6
		l0.9-2.4c1.6,0.5,2.3,0.6,3.2,0.6c1.4,0,2.3-0.6,2.3-1.6c0-0.6-0.3-1-1-1.3c-0.2-0.1-0.3-0.2-0.5-0.2c-0.1,0-0.2-0.1-0.2-0.1
		c-0.1-0.1-0.4-0.2-0.9-0.4c-0.3-0.1-0.7-0.3-1-0.4c-2-0.9-2.9-2.1-2.9-3.8c0-2.6,2.1-4.2,5.5-4.2c0.7,0,1.4,0.1,2.2,0.2
		c0.6,0.1,0.9,0.2,1.6,0.4L77.6,23.4z"/>
	<path d="M90.9,30.4c0,2.9-1.9,4.6-5.1,4.6c-3.3,0-5.3-1.7-5.3-4.6l0-6.2h3.2v5.7c0,0.7,0.1,1.2,0.3,1.6
		c0.3,0.5,1,0.9,1.7,0.9c1.3,0,2-0.9,2-2.5l0-5.7h3.2V30.4z"/>
	<path d="M100,19.5h3.2v15.3h-2.9v-1.5c-1,1.2-2.1,1.7-3.5,1.7c-2.8,0-4.6-2.1-4.6-5.4c0-3.3,1.9-5.6,4.6-5.6
		c1.2,0,2.3,0.5,3.2,1.4V19.5z M95.6,29.5c0,1.8,0.9,2.9,2.2,2.9c1.4,0,2.3-1.1,2.3-2.9c0-1.8-0.9-3-2.3-3
		C96.4,26.5,95.6,27.7,95.6,29.5z"/>
	<path d="M118.5,20.5c4.3,0,6.9,2.7,6.9,7.3c0,4.6-2.6,7.3-6.8,7.3c-4.3,0-6.9-2.7-6.9-7.3
		C111.6,23.2,114.2,20.5,118.5,20.5z M115.1,27.8c0,3,1.2,4.7,3.4,4.7c2.2,0,3.4-1.7,3.4-4.7c0-3-1.2-4.7-3.4-4.7
		C116.3,23.1,115.1,24.8,115.1,27.8z"/>
	<path d="M137.1,30.4c0,2.9-1.9,4.6-5.1,4.6c-3.3,0-5.3-1.7-5.3-4.6l0-6.2h3.2v5.7c0,0.7,0.1,1.2,0.3,1.6
		c0.3,0.5,1,0.9,1.7,0.9c1.3,0,2-0.9,2-2.5l0-5.7h3.2V30.4z"/>
	<path d="M141.5,30.6c0.1,1.3,1.2,2.1,2.9,2.1c0.8,0,1.6-0.2,2.8-0.6l0.9,2c-0.3,0.2-0.6,0.3-0.8,0.3
		c-0.9,0.3-2,0.5-3.1,0.5c-3.5,0-5.9-2.2-5.9-5.5c0-3.3,2.1-5.5,5.3-5.5c3.2,0,5.1,2.2,5.1,6c0,0.1,0,0.3,0,0.6H141.5z M141.4,28.4
		h4.3c-0.2-1.4-0.9-2.2-2.1-2.2C142.4,26.3,141.6,27.1,141.4,28.4z"/>
	<path d="M150.3,32.1c1.1,0.4,2,0.6,2.8,0.6c1,0,1.7-0.4,1.7-1c0-0.4-0.3-0.7-1.2-0.9c-0.4-0.1-1-0.3-1.6-0.5
		c-1.6-0.6-2.3-1.5-2.3-2.9c0-2,1.7-3.3,4.3-3.3c1,0,2,0.2,3.2,0.7l-0.7,2.1c-0.9-0.3-1.6-0.4-2.3-0.4c-0.9,0-1.5,0.3-1.5,0.9
		c0,0.3,0.2,0.4,0.4,0.6c0.1,0,0.2,0.1,0.3,0.1c0.1,0.1,0.2,0.1,0.3,0.1c0,0,0.2,0.1,0.6,0.2c0.3,0.1,0.6,0.2,0.9,0.3
		c1.8,0.6,2.6,1.5,2.6,3c0,2.2-1.8,3.5-4.6,3.5c-0.7,0-1.5-0.1-2.2-0.3c-0.5-0.1-0.8-0.2-1.5-0.5L150.3,32.1z"/>
	<path d="M158.4,24.2h1.6v-2.6l3.2,0v2.6h2.4v2.5h-2.4v4c0,0.6,0,0.7,0,0.8c0.1,0.7,0.6,1.1,1.5,1.1
		c0.4,0,0.6-0.1,1.1-0.2l0.4,2.1c-1.1,0.3-1.6,0.4-2.4,0.4c-1.2,0-2.2-0.3-2.8-0.9c-0.7-0.6-1-1.4-1-3v-4.4h-1.6V24.2z"/>
	<path d="M52.2,4.8c-1.2-0.4-2.1-0.6-3.1-0.6c-2.8,0-4.7,1.8-4.7,4.6c0,2.7,1.9,4.6,4.8,4.6c0.8,0,1.8-0.2,3-0.5
		l0.8,2.5c-0.6,0.2-0.9,0.3-1.3,0.4c-0.8,0.2-1.8,0.3-2.7,0.3c-4.9,0-8-2.8-8-7.3c0-4.4,3-7.3,7.7-7.3c1.4,0,2.5,0.2,4.1,0.7
		L52.2,4.8z"/>
	<path d="M54.5,5.3h2.9v1.5c0.8-1.3,1.6-1.7,2.9-1.7c0.4,0,0.7,0.1,1.3,0.3l-0.7,2.7C60.5,8,60.4,8,60.1,8
		c-1,0-1.5,0.3-1.9,0.8c-0.4,0.5-0.5,1-0.5,2.3v4.7h-3.2V5.3z"/>
	<path d="M64.8,11.6c0.1,1.3,1.2,2.1,2.9,2.1c0.8,0,1.6-0.2,2.8-0.6l0.9,2c-0.3,0.2-0.6,0.3-0.8,0.3
		c-0.9,0.4-2,0.5-3.1,0.5c-3.5,0-5.9-2.2-5.9-5.5c0-3.3,2.1-5.5,5.3-5.5c3.2,0,5.1,2.2,5.1,6c0,0.1,0,0.3,0,0.6H64.8z M64.7,9.5H69
		c-0.2-1.4-1-2.2-2.1-2.2C65.7,7.3,64.9,8.1,64.7,9.5z M67.2,0l2.6,1.3l-2.5,3.1l-2-1L67.2,0z"/>
	<path d="M80.9,0.5h3.2v15.3h-2.9v-1.5c-1,1.2-2.1,1.7-3.5,1.7c-2.8,0-4.6-2.1-4.6-5.4c0-3.3,1.9-5.6,4.6-5.6
		C79,5,80,5.5,80.9,6.4V0.5z M76.5,10.6c0,1.8,0.9,2.9,2.2,2.9c1.4,0,2.3-1.1,2.3-2.9c0-1.8-0.9-3-2.3-3
		C77.3,7.6,76.5,8.7,76.5,10.6z"/>
	<path d="M86.3,0.8h3.3v3.1h-3.3V0.8z M86.3,5.3h3.2v10.6h-3.2V5.3z"/>
	<path d="M90.9,5.3h1.6V2.7l3.2,0v2.6h2.4v2.5h-2.4v4c0,0.6,0,0.7,0,0.8c0.1,0.7,0.6,1.1,1.5,1.1
		c0.4,0,0.6-0.1,1.1-0.2l0.4,2.1c-1.1,0.3-1.6,0.4-2.4,0.4c-1.2,0-2.2-0.3-2.8-0.9c-0.7-0.6-1-1.4-1-3V7.7h-1.6V5.3z"/>
	<path d="M103.6,1.8h4.9l3,8.5c0.2,0.5,0.3,1.7,0.4,3.2c0.1-1.3,0.3-2.7,0.4-3.2l3-8.5h4.9v14h-3.2l0-9.3
		c0-0.2,0.1-1.3,0.3-2.4c-0.2,0.6-0.2,0.9-0.3,1.3c-0.1,0.3-0.2,0.6-0.4,1l-3.3,9.4h-3.1l-3.3-9.4c-0.2-0.4-0.2-0.7-0.3-1
		c-0.1-0.4-0.2-0.7-0.4-1.3l0.1,0.5l0.1,0.8c0.1,0.6,0.1,0.9,0.1,1l0.1,9.3h-3.2V1.8z"/>
	<path d="M132.3,11.5c0,2.9-1.9,4.6-5.1,4.6c-3.3,0-5.3-1.7-5.3-4.6l0-6.2h3.2v5.7c0,0.7,0.1,1.2,0.3,1.6
		c0.3,0.5,1,0.9,1.7,0.9c1.3,0,2-0.9,2-2.5l0-5.7h3.2V11.5z"/>
	<path d="M133.7,5.3h1.6V2.7l3.2,0v2.6h2.4v2.5h-2.4v4c0,0.6,0,0.7,0,0.8c0.1,0.7,0.6,1.1,1.5,1.1
		c0.4,0,0.6-0.1,1.1-0.2l0.4,2.1c-1.1,0.3-1.6,0.4-2.4,0.4c-1.2,0-2.2-0.3-2.8-0.9c-0.7-0.6-1-1.4-1-3V7.7h-1.6V5.3z"/>
	<path d="M153,11.5c0,2.9-1.9,4.6-5.1,4.6c-3.3,0-5.3-1.7-5.3-4.6l0-6.2h3.2v5.7c0,0.7,0.1,1.2,0.3,1.6
		c0.3,0.5,1,0.9,1.7,0.9c1.3,0,2-0.9,2-2.5l0-5.7h3.2V11.5z"/>
	<path d="M157.5,11.6c0.1,1.3,1.2,2.1,2.9,2.1c0.8,0,1.6-0.2,2.8-0.6l0.9,2c-0.3,0.2-0.6,0.3-0.8,0.3
		c-0.9,0.4-2,0.5-3.1,0.5c-3.6,0-5.9-2.2-5.9-5.5c0-3.3,2.1-5.5,5.3-5.5c3.2,0,5.1,2.2,5.1,6c0,0.1,0,0.3,0,0.6H157.5z M157.4,9.5
		h4.3c-0.2-1.4-0.9-2.2-2.1-2.2C158.4,7.3,157.6,8.1,157.4,9.5z"/>
	<path d="M166.2,0.5h3.2v15.3h-3.2V0.5z"/>
</g>
</svg>
