<?xml version="1.0" encoding="UTF-8" standalone="no"?>
<svg
   xmlns:dc="http://purl.org/dc/elements/1.1/"
   xmlns:cc="http://creativecommons.org/ns#"
   xmlns:rdf="http://www.w3.org/1999/02/22-rdf-syntax-ns#"
   xmlns:svg="http://www.w3.org/2000/svg"
   xmlns="http://www.w3.org/2000/svg"
   id="svg4"
   version="1.1"
   height="512"
   width="512">
  <metadata
     id="metadata10">
    <rdf:RDF>
      <cc:Work
         rdf:about="">
        <dc:format>image/svg+xml</dc:format>
        <dc:type
           rdf:resource="http://purl.org/dc/dcmitype/StillImage" />
        <dc:title></dc:title>
      </cc:Work>
    </rdf:RDF>
  </metadata>
  <defs
     id="defs8" />
  <path
     id="path2"
     d="M354 32H158c-23.1 0-42 18.9-42 42v364c0 23.1 18.9 42 42 42h196c23.1 0 42-18.9 42-42V74c0-23.1-18.9-42-42-42zM200 52.999h112v14H200v-14zM256 452c-15.464 0-28-12.536-28-28s12.536-28 28-28 28 12.536 28 28-12.536 28-28 28zm112-84H144V88h224v280z" />
  <g
     transform="matrix(0.24070016,0,0,0.24070016,156.15456,104.02529)"
     id="g27">
    <g
       id="icomoon-ignore" />
    <path
       d="m 455.059,680.12 15.766,134.806 -121.897,4.303 8.606,-136.872 c -29.64,-17.04 -48.78,-49.847 -48.78,-89.745 0,-56.8 50.914,-100.416 101.828,-100.416 50.914,0 100.795,42.239 100.795,99.005 0,41.963 -24.166,72.877 -56.319,88.919 z M 398.937,113.737 c 0.81,-0.028 1.763,0.028 2.58,0 112.213,0.647 153.006,44.768 175.565,90.364 22.724,45.931 19.794,93.807 19.794,93.807 -0.01,0.339 -0.015,0.738 -0.015,1.138 0,11.177 4.256,21.36 11.236,29.017 l -0.031,-0.034 c -57.36,-4.683 -124.63,-8.894 -193.638,-9.467 -58.016,-0.482 -115.919,1.842 -167.82,6.024 0.034,-0.643 0.054,-1.395 0.054,-2.152 0,-0.757 -0.02,-1.509 -0.058,-2.256 l 0.004,0.105 c 0,0 -2.027,-52.934 17.212,-104.995 19.06,-51.574 49.116,-97.27 135.116,-101.552 z m -0.859,-86.061 c -121.255,4.89 -188.634,85.736 -215.153,157.492 -26.519,71.756 -22.376,139.419 -22.376,139.419 0.166,3.742 0.784,7.274 1.801,10.632 l -0.079,-0.305 c -18.668,3.328 -36.041,7.11 -50.776,12.049 -22.888,7.67 -42.663,15.425 -54.219,36.146 -15.373,27.439 -21.806,64.727 -25.818,110.158 -4.012,45.431 -4.422,98.778 -2.58,152.329 3.681,107.102 16.539,214.984 34.425,272.814 2.486,11.895 12.886,20.703 25.343,20.703 14.284,0 25.863,-11.579 25.863,-25.863 0,-3.736 -0.792,-7.288 -2.218,-10.495 l 0.065,0.165 C 98.089,856.788 84.087,747.865 80.513,643.875 c -1.787,-51.995 -1.157,-103.11 2.58,-145.444 3.739,-42.334 11.741,-76.666 18.933,-89.504 0.296,-0.283 0.576,-0.563 0.85,-0.849 l 0.009,-0.01 c -0.324,0.584 7.323,-6.999 24.958,-12.909 17.635,-5.91 43.464,-10.795 73.152,-14.63 59.377,-7.671 135.49,-10.967 212.571,-10.327 77.081,0.64 154.613,5.679 214.293,11.188 29.84,2.754 55.421,5.435 74.013,8.606 9.296,1.586 16.398,2.915 21.515,4.303 0.774,0.22 1.035,0.636 1.721,0.859 1.214,2.641 4.482,7.282 6.024,13.77 3.084,12.975 6.448,32.566 8.606,55.079 4.316,45.028 5.498,104.019 4.303,164.377 -1.195,60.358 -4.857,121.841 -12.049,171.262 -3.596,24.71 -8.06,46.289 -12.909,62.825 -4.849,16.536 -11.593,28.53 -13.77,30.982 -1.801,1.752 -12.459,8.359 -28.4,13.77 -16.435,5.578 -37.165,11.01 -62.825,15.491 -51.319,8.962 -117.079,14.572 -182.45,18.073 -65.371,3.501 -130.669,4.577 -183.311,3.442 -26.321,-0.567 -50.047,-1.953 -67.988,-3.442 -17.941,-1.489 -31.719,-3.438 -34.425,-4.303 -3.041,-1.359 -6.59,-2.15 -10.324,-2.15 -14.284,0 -25.863,11.579 -25.863,25.863 0,12.455 8.804,22.854 20.528,25.312 l 0.168,0.03 c 12.347,3.946 26.114,5.266 45.612,6.885 19.498,1.619 43.489,2.859 70.57,3.442 54.163,1.168 120.89,0.138 187.614,-3.442 66.724,-3.573 133.815,-10.249 188.474,-19.794 27.329,-4.773 51.046,-10.293 71.431,-17.212 20.385,-6.919 37.007,-13.022 49.916,-27.54 12.006,-13.529 19.071,-30.703 24.958,-50.776 5.887,-20.073 9.941,-43.401 13.77,-69.71 7.657,-52.617 11.681,-115.27 12.909,-177.286 1.228,-62.016 0.295,-123.314 -4.303,-171.262 -2.297,-23.974 -5.465,-44.267 -9.467,-61.104 -4.002,-16.837 -5.165,-29.976 -23.237,-43.031 -8.198,-5.907 -13.89,-8.259 -21.515,-10.327 -7.625,-2.068 -16.333,-3.399 -26.679,-5.164 -12.248,-2.088 -27.173,-4.14 -43.031,-6.024 8.989,-7.509 14.848,-18.503 15.487,-30.877 l 0.004,-0.105 c 0,0 5.641,-67.171 -28.4,-135.977 C 620.495,97.429 538.947,27.676 398.934,27.676 h -0.859 z"
       id="path15" />
  </g>
</svg>
