<svg xmlns="http://www.w3.org/2000/svg" width="1024" height="1024"><path d="M715.503 369.45L525.108 259.577l25.906-44.845 190.385 109.887-25.888 44.841zM501.59 300.26l38.223 22.021-161.479 279.66-38.205-22.026 161.46-279.655zm111.609 64.359l-161.46 279.656-32.698-18.848L580.5 345.773l16.298 9.457 16.401 9.39zM341.922 716.356l-9.884-86.864 159.623 92.159-80.178 34.835-69.561-40.129zm188.612-26.558l-38.107-22.033L653.886 388.11l38.13 22.046-161.483 279.641zm254.692-394.129l-231.073-133.38c-11.245-6.492-25.614-2.643-32.089 8.599L284.152 583.027a23.015 23.015 0 00-2.988 14.389l25.25 222.881c.83 7.371 5.15 13.923 11.585 17.701 5.481 3.087 11.881 3.936 17.825 2.344 1.16-.31 2.2-.689 3.293-1.179l205.768-89.488c4.582-2.037 8.517-5.458 10.957-9.819l237.99-412.155c6.465-11.198 2.618-25.55-8.606-32.046zM512 27.676C245.622 27.676 27.676 242.931 27.676 512c0 266.378 215.255 484.324 484.324 484.324 266.378 0 484.324-215.255 484.324-484.324C993.634 242.931 778.378 27.676 512 27.676zm0 922.907C269.838 950.583 73.417 754.162 73.417 512S269.838 73.417 512 73.417c242.162 0 438.583 196.421 438.583 438.583 0 239.472-196.421 438.583-438.583 438.583z"/></svg>