<svg xmlns="http://www.w3.org/2000/svg" width="1024" height="1024"><path d="M800.526 175.569c6.747-.397 7.597 0 8.675 1.229 1.083 1.071 3.283 4.913 3.716 12.392 1.245 21.1-5.219 92.273-6.196 101.616a19.284 19.284 0 00-.195 2.776c0 5.143 1.958 9.828 5.168 13.351l-.014-.016c26.354 27.945 47.488 58.717 60.723 92.939 2.657 7.906 9.952 13.521 18.575 13.633h32.233c19.347 0 33.459 14.807 33.459 34.698v86.745c0 19.891-14.113 34.698-33.459 34.698h-29.742l-.206-.001c-8.272 0-15.36 5.064-18.334 12.261l-.048.132c-14.552 39.897-38.804 76.593-70.636 107.81-3.823 3.622-6.202 8.736-6.202 14.404 0 .164.002.327.006.49v-.024 141.27c0 .634-1.832 2.459-2.478 2.459H685.279c-.646 0-1.237-.436-1.237-2.459v-50.806c.016-.298.025-.647.025-.999 0-10.951-8.878-19.829-19.83-19.829a19.79 19.79 0 00-6.359 1.042l.14-.041c-38.829 12.261-79.953 19.827-123.924 19.827-58.802 0-114.897-12.297-163.58-33.461-2.2-.915-4.755-1.446-7.434-1.446-10.952 0-19.83 8.878-19.83 19.829l.001.218v-.011 65.676c0 .634-1.832 2.459-2.478 2.459H230.481c-.646 0-1.237-.436-1.237-2.459V656.373a19.747 19.747 0 00-3.756-11.213l.04.058c-30.656-44.628-48.33-96.413-48.33-151.184 0-164.73 158.101-301.127 356.9-301.127a408.38 408.38 0 01156.144 30.978c2.079.809 4.486 1.278 7.003 1.278 4.35 0 8.373-1.401 11.643-3.776l-.057.04c8.436-5.706 51.82-33.6 71.876-40.892 8.475-3.093 16.602-4.794 19.827-4.961zm-2.478-39.655c-10.926.555-21.077 3.847-30.981 7.435-28.499 10.366-61.308 32.077-74.354 40.896-48.921-18.642-101.664-30.982-158.622-30.982-154.924 0-290.614 76.55-355.661 189.602-16.36-7.289-41.298-14.323-69.397-4.961-21.19 7.063-38.451 20.394-47.091 37.176-8.64 16.786-8.843 34.468-6.196 53.288 4.487 31.914 1.102 47.308-2.478 55.763-9.628 14.771-21.067 34.698-21.067 34.698-7.808 8.692-5.095 23.785 4.959 29.741 10.052 5.956 24.627 1.11 28.502-9.914 0 0 13.436-22.631 22.307-35.935.9-.753 1.729-1.586 2.478-2.459 7.293-17.226 10.017-40.848 4.954-76.831-1.971-14.026-.991-24.249 2.478-30.982 3.466-6.733 9.289-12.598 23.545-17.349 14.58-4.862 28.951-.714 39.656 3.728-15.017 35.935-23.545 74.654-23.545 115.249 0 60.553 20.15 117.065 52.048 166.055v185.882c0 21.985 17.542 42.133 40.894 42.133h110.292a42.028 42.028 0 0042.134-42.133v-42.133c47.342 17.044 96.881 30.978 151.187 30.978 38.833 0 74.917-8.391 110.292-17.349v28.504c0 21.985 17.542 42.133 40.895 42.133h110.292a42.028 42.028 0 0042.134-42.133V708.459c27.896-29.206 50.146-62.69 65.68-99.137h19.828c40.824 0 73.115-34.075 73.115-74.353v-86.745c0-40.277-32.291-74.353-73.115-74.353h-21.067c-13.865-31.244-32.712-59.669-55.766-85.504 1.638-15.735 7.959-71.64 6.196-101.616-.813-13.824-4.837-27.211-14.87-37.176-10.032-9.969-25.176-14.327-39.656-13.633zM534.09 303.21c-49.766 0-98.534 7.864-142.512 22.306-8.285 2.639-14.181 10.266-14.181 19.27 0 11.147 9.036 20.183 20.183 20.183 2.286 0 4.484-.38 6.533-1.081l-.142.042c39.971-13.126 84.544-21.065 130.12-21.065 34.594 0 67.567 4.644 99.139 12.392 1.488.4 3.197.63 4.959.63 10.956 0 19.838-8.882 19.838-19.838 0-9.196-6.257-16.93-14.745-19.178l-.138-.031c-34.666-8.502-71.278-13.629-109.053-13.629zm238.06 122.422c0 21.897-17.755 39.655-39.656 39.655s-39.656-17.757-39.656-39.655c0-21.901 17.755-39.655 39.656-39.655s39.656 17.753 39.656 39.655z"/></svg>