<svg xmlns="http://www.w3.org/2000/svg" width="1024" height="1024"><path d="M1004.246 480.463l-107.604 57.375L764.849 280.13l107.604-57.375zM186.82 202.668l100.778 68.666-167.061 236.374-100.778-68.666zm577.061 399.721L550.715 389.864l2.406-6.069c1.246-3.165 1.083-6.907-.739-10.05-1.828-3.137-4.883-4.959-8.072-5.133l-33.149-1.976-1.315 20.516c-.014.429-3.447 47.079-27.233 89.229-24.391 43.254-56.7 58.168-61.628 59.127-5.5 1.072-11.274 2.082-16.071 2.082-3.296 0-5.829-.464-8.004-1.459l-8.091-3.748c-3.394-1.575-5.985-4.458-7.35-8.145a15.69 15.69 0 010-10.978l81.078-177.929 13.785-9.079 107.436-40.979c6.408-2.44 13.118-3.721 19.924-3.781l.571-.008a57.308 57.308 0 0119.433 3.404l118.668 42.648L843.57 530.44l-79.686 71.949zM429.057 792.43c-15.071-.999-26.529-14.066-25.531-29.128.942-14.361 12.912-25.601 27.281-25.601.61 0 1.227.022 1.836.055 15.065.992 26.521 14.059 25.545 29.124-.992 14.953-13.969 26.543-29.128 25.551zm-60.216-35.067c-5.205 5.405-12.203 8.377-19.712 8.377-7.033 0-13.737-2.666-18.822-7.504-10.831-10.239-11.421-27.5-1.401-38.358.238-.254 6.512-6.899 13.621-14.404v-.008l5.282-5.579c9.249-9.791 12.28-12.969 13.299-14.081.119-.111.262-.223.357-.353l.021-.013c.894-.964 1.414-1.498 1.428-1.517 5.218-5.521 12.294-8.566 19.905-8.566a27.258 27.258 0 0118.821 7.497c5.317 5.036 8.348 11.829 8.553 19.133.204 7.329-2.462 14.278-7.505 19.609-.494.513-32.782 34.638-33.844 35.759zm-61.146-57.89c-7.029 0-13.715-2.65-18.821-7.483-10.837-10.239-11.421-27.503-1.364-38.414.52-.539 11.204-11.842 16.33-17.237l2.694-2.862c5.231-5.521 12.294-8.559 19.897-8.559a27.219 27.219 0 0118.821 7.511c5.317 5.021 8.362 11.816 8.559 19.137.204 7.298-2.462 14.257-7.483 19.557l-7.625 8.06c-1.633 1.712-3.375 3.568-5.17 5.45-.281.32-.597.639-.873.937-1.329 1.401-2.503 2.64-3.418 3.586a75.751 75.751 0 01-1.575 1.672c-.135.143-.238.254-.246.281-5.191 5.405-12.211 8.377-19.728 8.377zm-46.658-62.661c-7.298-.473-13.969-3.762-18.803-9.272-4.825-5.493-7.209-12.538-6.723-19.854.921-14.355 12.942-25.589 27.289-25.589.61 0 1.227.013 1.836.055 7.298.484 13.969 3.77 18.803 9.276 4.825 5.5 7.209 12.547 6.739 19.862-.998 14.958-14.003 26.537-29.138 25.531zM860.67 520.588L759.471 317.677c-1.147-2.246-2.658-4.333-4.593-6.08s-4.1-3.025-6.358-3.833l-118.664-42.648c-8.265-2.967-17.121-4.565-26.339-4.48-9.207.088-18.019 1.865-26.247 4.999l-90.037 34.348a192.944 192.944 0 00-18.835 8.381c-2.075 1.074-4.108 2.234-6.138 3.373a166.601 166.601 0 00-21.297-9.684c-23.617-8.826-47.804-11.808-71.218-9.812l-60.576 5.197c-2.638.223-5.296 1.039-7.782 2.503s-4.536 3.439-6.155 5.725L158.838 499.835c-2.814 3.988-4.311 9.058-3.855 14.433.451 5.365 2.756 10.079 6.176 13.462l59.328 58.796c-3.257 5.957-5.317 12.646-5.79 19.806-.859 12.864 3.369 25.28 11.858 34.967 8.497 9.684 20.253 15.487 33.126 16.328.687.055 1.383.055 2.078.088-5.274 17.056-.958 36.424 12.787 49.429 8.228 7.785 18.771 12.327 29.978 13.054-7.221 17.894-3.315 39.238 11.436 53.199 9 8.531 20.769 13.215 33.168 13.215 12.912 0 24.96-5.042 34.058-14.15 3.383 21.858 21.543 39.279 44.505 40.786 1.053.088 2.136.111 3.199.111 5.869 0 11.493-1.111 16.717-3.06 8.536 5.695 18.723 8.826 29.553 8.39 13.313-.555 25.261-6.428 34.193-15.621l-32.627-32.556c.075-.754.219-1.476.246-2.252.421-6.392-.455-12.581-2.356-18.336l66.779 66.611c8.425 3.431 17.597 5.149 27.148 4.762 19.112-.782 36.136-9.804 48.191-23.772l6.681-7.75c.619-.73 1.093-1.556 1.505-2.445L524.105 684.794c-2.652-2.622-2.863-6.989-.513-9.741 2.356-2.735 6.443-2.828 9.073-.199l122.279 121.938a56.838 56.838 0 0021.204 3.172c16.802-.687 31.796-8.623 42.391-20.924l16.148-18.687c3.702-4.311 5.906-10.127 5.704-16.45l-107.303-106.98c-2.619-2.63-2.855-7.008-.507-9.736 2.368-2.737 6.449-2.832 9.073-.199l107.81 107.501c4.423 1.182 9.073 1.757 13.849 1.567 13.776-.555 26.03-7.054 34.701-17.125l4.34-5.021c8.679-10.05 13.795-23.666 13.273-38.471-.528-14.802-6.563-27.948-15.916-37.287l-21.51-21.452 77.821-70.271c3.305-2.967 5.704-7.131 6.583-12.019.873-4.883.084-9.706-1.944-13.785z"/></svg>