<svg viewBox="0 0 50 50"><path d="M24.86.971c-5.24.097-8.585 2.26-10.024 5.565-1.37 3.146-1.063 7.088-.07 11.199-.535.628-.957 1.51-.806 2.782.166 1.385.546 2.37 1.087 3.064.3.383.686.416 1.051.598.201 1.169.53 2.37 1.017 3.346a9.97 9.97 0 00.91 1.479c.14.188.345.3.491.458.009 1.39.015 2.548-.105 4.015-.364.883-1.214 1.597-2.593 2.289-1.424.714-3.28 1.374-5.152 2.183s-3.803 1.795-5.327 3.346-2.601 3.676-2.769 6.48l-.07 1.197h45l-.07-1.198c-.168-2.803-1.25-4.929-2.769-6.48s-3.426-2.536-5.292-3.345-3.699-1.434-5.117-2.148c-1.36-.685-2.222-1.416-2.593-2.29-.123-1.485-.113-2.646-.105-4.05.145-.159.354-.269.49-.457.308-.425.603-.949.876-1.514.472-.975.785-2.15.982-3.31.365-.183.752-.215 1.051-.6.541-.693.921-1.678 1.087-3.063.147-1.233-.262-2.082-.771-2.712.547-1.787 1.247-4.677 1.016-7.642-.126-1.619-.54-3.235-1.507-4.578-.886-1.232-2.323-2.132-4.136-2.5C29.465 1.548 27.342.97 24.895.97h-.035zm.035 2.254h.035c2.258.009 3.719.674 4.135 1.409l.28.458.526.105c1.56.218 2.454.815 3.084 1.69s.982 2.1 1.087 3.452c.21 2.704-.564 5.886-1.052 7.36l-.28.845.771.458c-.048-.03.428.297.315 1.233-.131 1.106-.394 1.678-.595 1.937s-.307.246-.316.246l-.946.07-.105.952c-.104.975-.494 2.13-.946 3.064-.226.466-.46.877-.666 1.162s-.423.444-.316.387l-.595.317v.67c0 1.63-.065 2.97.105 4.86v.14l.07.14c.64 1.73 2.121 2.808 3.75 3.628s3.5 1.457 5.257 2.219 3.366 1.637 4.556 2.852c.946.966 1.541 2.243 1.858 3.839H5.093c.317-1.596.908-2.873 1.858-3.839 1.195-1.215 2.827-2.09 4.59-2.852s3.624-1.4 5.258-2.219 3.144-1.896 3.785-3.627l.07-.282c.17-1.889.105-3.228.105-4.86v-.669l-.596-.317c.102.054-.139-.1-.35-.387s-.469-.696-.701-1.162c-.466-.934-.844-2.1-.947-3.064l-.105-.951-.946-.07c-.01-.001-.114.012-.315-.247-.202-.259-.464-.83-.596-1.937-.112-.936.364-1.262.315-1.233l.736-.422-.21-.81c-1.056-4.083-1.239-7.832-.14-10.354 1.095-2.515 3.327-4.096 7.99-4.19z"/></svg>