<svg xmlns="http://www.w3.org/2000/svg" height="50" width="50"><path d="M34.115 41.674c-9.782-.193-16.495-.385-21.098-.385-9.206 0-9.59.385-9.781.578-1.343 1.35-.96 4.626-.576 5.783 0 .385.576.77.96.77h.191c.575-.192.959-.577.767-1.156-.383-1.735-.192-3.277 0-3.855 2.685-.193 19.18 0 29.537.385.191 0 .575 0 .767-.192s.383-.386.383-.771c-.191-.579-.575-1.157-1.15-1.157zM3.044 10.253c-.384 0-.576 0-.767.193l-.576.578c-.191 1.35-.575 4.434.767 5.783.192.193.576.578 14.193.578 7.289 0 17.645-.192 30.88-.385.191 0 .575-.193.767-.386s.191-.385.191-.77-.383-.965-.959-.965c-15.151.579-40.277.771-43.729.386-.384-.578-.384-1.928 0-3.856 0-.578-.384-.963-.767-1.156z"/><path d="M43.32 43.602l1.919.192.575 4.241c0 .579.576.964 1.151.964s.959-.578.959-1.156l-.575-5.205c0-.386-.384-.771-.96-.964l-1.917-.193v-4.433c0-.579-.384-.964-.96-.964-36.057-.771-36.632 0-37.016.385-1.342 1.35-.959 4.627-.575 5.783 0 .193.192.579.383.579.192.192.576.192.768.192.575-.192.959-.578.767-1.156-.384-1.928-.192-3.277 0-3.856 1.15-.192 4.411-.192 8.822-.192 7.864 0 18.988.192 25.7.385h.193v4.241c-.192.578.191.964.767 1.157zM26.251 1C18.004 1 3.236 9.482 2.661 9.867c-.384.193-.576.579-.576.964s.575.771.959.771l18.988.193c23.59.193 23.59.193 25.317.193.191 0 .575-.193.767-.386s.383-.578.383-.77C48.308 8.517 30.471 1 26.251 1zm17.453 9.06c-2.301 0-6.712 0-14.96-.193L7.072 9.675l.575-.193c4.603-2.506 13.234-6.554 18.604-6.554 3.836 0 12.659 4.048 17.453 6.747l.576.192-.576.193z"/><path d="M8.606 16.421c-.575 0-1.15.386-1.15.964V36.47c0 .579.383.964.958.964s.96-.385.96-.964V17.385c.19-.578-.193-.964-.768-.964zm4.411 0c-.383 0-.959.386-.959.964V36.47c0 .579.384.964.96.964s.958-.385.958-.964V17.385c.192-.578-.383-.964-.959-.964zm23.591 0c-.575 0-.959.386-.959.964V36.47c0 .579.384.964.959.964s.959-.385.959-.964V17.385c0-.578-.384-.964-.959-.964zm4.603 0c-.575 0-.959.386-.959.964V36.47c0 .579.384.964.96.964s.958-.385.958-.964V17.385c0-.578-.383-.964-.959-.964zm-18.988 0c-.575 0-.959.386-.959.964V36.47c0 .579.384.964.96.964s.958-.385.958-.964V17.385c0-.578-.383-.964-.959-.964zm5.562.964c0-.578-.383-.964-.959-.964s-.958.386-.958.964V36.47c0 .579.383.964.958.964s.96-.385.96-.964V17.385z"/></svg>