<svg xmlns="http://www.w3.org/2000/svg" width="1024" height="1024"><path d="M511.165 90.731c54.358-.132 116.039 27.59 153.111 67.77 43.513 47.161 65.915 121.598 65.26 189.087-.355 36.633-.115 74.227 0 103.747H293.63c-.143-29.606-.442-67.176 0-102.91.84-67.965 22.044-142.128 65.26-189.087 37.075-40.286 98.011-68.476 152.274-68.607zm0-53.546c-71.447.173-143.545 33.962-191.598 86.177-55.795 60.628-78.517 145.991-79.484 224.228-.454 36.725-.147 74.257 0 103.747h-82.831c-25.937 0-46.853 20.707-46.853 46.017V940.79c0 25.518 20.917 46.017 46.853 46.017h709.497c25.728 0 46.853-20.498 46.853-46.017V497.354c0-25.519-20.917-46.017-46.853-46.017h-83.667c-.112-29.573-.347-67.074 0-102.91.767-79.151-23.553-165.282-79.484-225.902-48.245-52.289-120.977-85.513-192.435-85.34zm-39.324 601.567h80.32V852.94h-80.32z"/></svg>