<svg xmlns="http://www.w3.org/2000/svg" width="1024" height="1024"><path d="M781.756 52.954c-3.65-21.903-18.253-36.505-40.156-43.807C617.481-45.612 226.872 162.47 183.066 184.374c-10.951 7.301-14.602 18.253-7.301 25.554 3.65 10.951 14.602 14.602 25.554 7.301C318.137 155.17 639.385 1.847 726.999 42.002c10.951 3.65 14.602 10.951 18.253 21.903 18.253 76.662 120.468 624.244 120.468 741.062-131.42 76.662-511.078 131.42-598.69 109.516-14.602-10.951-51.107-76.662-69.361-598.69v-25.554c0-18.253-3.65-51.107-25.554-51.107-47.457 0-47.457 153.323-47.457 153.323v40.156c3.65 277.443 18.253 536.631 113.167 573.136 29.204 10.951 135.07 18.253 248.237 18.253 116.818 0 237.285-7.301 288.394-14.602 54.759-7.301 51.107-58.409 47.457-98.565 0-10.951-10.951-18.253-18.253-18.253-10.951 0-18.253 10.951-18.253 18.253 3.65 54.759-3.65 54.759-14.602 58.409-98.565 18.253-463.62 21.903-514.728 0-87.613-25.554-91.264-408.862-94.915-532.981v-58.409c18.253 481.873 54.759 558.534 91.264 569.486 102.216 29.204 503.777-29.204 638.847-116.818 3.65-3.65 7.301-7.301 7.301-14.602 10.951-102.216-98.565-689.954-116.818-762.965zM635.734 257.385L329.087 355.95c-10.951 3.65-14.602 14.602-10.951 21.903s10.951 14.602 18.253 14.602h7.301l306.647-98.565c10.951-3.65 14.602-14.602 10.951-21.903-3.65-10.951-14.602-14.602-25.554-14.602zM318.137 465.466c3.65 7.301 10.951 14.602 18.253 14.602h3.65l343.151-83.963c10.951-3.65 14.602-10.951 14.602-21.903-3.65-10.951-14.602-14.602-21.903-14.602l-343.151 83.963c-10.951 0-18.253 10.951-14.602 21.903z"/></svg>