<svg xmlns="http://www.w3.org/2000/svg" width="1349" height="1024"><path d="M827.689 791.521c8.126-14.298 23.264-55.131 15.02-73.239-7.645-16.831-68.779-33.719-77.965-22.06-13.327 16.987-20.003 59.181-11.624 72.689 17.092 10.629 52.526 27.271 74.569 22.61zm325.536-72.481c-7.706-2.595-13.564-5.988-17.608-10.132-4.062-4.155-6.77-9.934-8.196-17.383s-.951-14.715 2.362-24.473c4.412-13.014 10.439-20.604 19.059-25.469 8.637-4.852 18.619-5.36 30.029-1.494l74.963 25.44c6.83 2.336 11.432 5.957 13.838 10.968 2.391 4.998 2.621 10.231.733 15.797-1.56 4.662-4.223 8.22-7.961 10.641-2.5 1.615-5.636 2.497-9.413 2.661 4.604 3.087 7.574 6.657 8.85 10.801 1.257 4.132 1.072 8.696-.623 13.704-1.403 4.05-3.506 7.424-6.29 10.104-2.821 2.653-6.019 4.468-9.647 5.323-2.227.569-5.287.503-9.176-.219-5.19-.97-8.572-1.691-10.165-2.256l-70.755-24.006zM556.68 275.606c-2.985-.292-5.351.109-8.391 1.046-1.739.612-26.761 7.978-52.441 29.367-25.646 21.014-52.612 58.31-52.441 112.225 0 9.577 1.414 19.919 3.145 30.416l-12.586 5.244c-11.887 4.598-17.252 17.481-12.586 29.368 4.598 11.852 17.447 18.233 29.368 13.635l7.342-3.145c2.759 7.393 6.177 14.419 9.44 20.977l-8.391 3.145c-11.921 4.598-17.252 17.481-12.586 29.367 4.598 11.853 17.447 18.233 29.367 13.635l17.832-7.34c10.094 11.42 20.982 21.248 32.514 28.318 28.439 17.574 58.839 22.026 83.907 22.026 36.852-.073 63.427-9.909 65.027-10.488 11.921-4.495 18.165-17.412 13.635-29.367-4.495-11.955-18.496-18.062-30.416-13.635-1.225.51-21.987 7.376-48.246 7.342-19.175-.034-40.744-3.914-59.783-15.733-2.89-1.811-5.55-4.079-8.391-6.293l44.051-17.83c11.887-4.598 17.252-18.564 12.586-30.416-4.598-11.921-17.447-17.184-29.368-12.586l-58.734 23.074c-3.353-6.36-6.525-13.082-9.44-20.977l59.783-23.074c11.852-4.598 17.184-17.481 12.586-29.367s-17.481-18.233-29.367-13.635l-53.49 20.977c-.456-4.572-1.046-9.486-1.046-13.635.219-38.487 17.235-60.796 35.66-76.565 9.128-7.663 19.273-12.361 26.221-15.733 3.441-1.702 5.468-3.444 7.342-4.195l2.096-1.046h1.046c12.159-3.78 18.43-16.125 14.684-28.318-2.861-9.12-10.979-15.9-19.928-16.782zM949.992 36.473c-3.186-.219-6.374 1.006-9.44 2.096-59.058 20.878-158.859 68.049-305.21 122.713C489.231 215.912 297.326 277.456 55.339 324.9c-11.069 2.11-19.254 11.767-18.879 23.075 2.012 60.794 18.61 131.433 38.807 199.278 20.231 67.709 44.694 132.669 65.027 182.497 4.803 11.784 17.549 17.354 29.367 12.586 11.784-4.836 17.423-18.598 12.586-30.416-19.924-48.909-43.312-112.671-62.93-178.302-17.408-58.209-30.59-117.476-34.611-167.813 31.799-6.406 63.258-13.095 93.346-19.928 2.194 3.728 4.646 7.589 8.391 16.782 17.472 42.641 42.454 128.713 63.978 213.961 17.791 70.101 33.95 139.334 41.953 186.692-.835.219-2.318.842-3.145 1.046-58.036 14.475-94.293 23.041-94.395 23.075-12.398 2.93-19.676 15.887-16.782 28.318 2.93 12.363 14.872 19.677 27.27 16.781.001 0 1.039.003 1.046 0 .029 1.035-.182 2.099 0 3.145 1.975 12.602 13.619 20.923 26.221 18.879.182-.034 208.618-34.004 433.167-79.711 8.663-1.76 17.523-3.455 26.221-5.244-1.046 20.815.419 39.051 9.44 53.49 6.486 10.392 16.789 18.213 29.367 26.221s27.478 15.97 45.1 24.123c35.243 16.306 79.464 33.097 123.762 48.246s88.946 28.678 125.859 38.807c36.913 10.129 64.795 16.627 80.76 17.83.998.222 2.144.35 3.321.35 8.798 0 15.931-7.132 15.931-15.931s-7.132-15.931-15.931-15.931c-.43 0-.856.017-1.277.05-8.42-.641-38.202-6.849-74.411-16.785s-80.141-23.89-123.762-38.807c-43.621-14.917-87.027-31.656-120.615-47.197-16.795-7.77-31.242-15.206-41.953-22.026s-17.436-13.42-18.879-15.732c-3.204-5.133-6.343-28.787-3.145-58.735 3.196-29.947 10.292-66.827 19.928-101.737 2.395-8.676 4.721-16.755 7.342-25.172 84.444 32.319 418.229 144.265 509.732 168.862-3.069 10.289-5.73 21.001-9.44 31.465-20.828 58.754-50.98 118.21-69.223 140.543a15.954 15.954 0 00-3.467 9.964c0 8.866 7.187 16.053 16.053 16.053 5.086 0 9.62-2.365 12.561-6.056 24.266-29.71 52.818-88.876 74.492-150.015 10.837-30.569 19.124-61.678 24.123-89.151s6.839-50.532 0-70.271c-5.186-15.015-17.261-22.916-32.514-32.514s-34.759-19.365-57.685-29.368c-2.223-.97-5.062-2.172-7.342-3.145.707-3.029 1.418-6.393 1.046-9.44-7.22-57.73-32.4-169.88-59.783-271.647-13.657-50.815-28.234-98.618-40.904-135.299-6.369-18.358-12.142-33.921-17.83-46.149-2.861-6.096-5.291-10.93-8.391-15.733-3.371-4.768-6.51-9.813-14.684-14.684-5.143-2.825-33.119 6.858-38.807 8.391-7.513 1.983-15.75 4.173-26.221 7.342-1.524-4.692-3.762-10.307-5.244-14.684-6.199-18.221-12.415-33.043-17.83-45.1-2.759-6.028-5.427-11.032-8.391-15.733-3.302-4.666-5.12-9.54-13.635-14.684-2.861-1.549-6.255-2.898-9.44-3.145zm-11.538 52.441c1.724 3.492 2.143 4.255 4.195 9.44 16.859 41.279 42.215 127.016 63.979 212.913 19.989 78.801 37.735 157.307 45.1 204.522-9.004 6.71-22.342 14.042-37.758 22.026-45.16-13.614-89.563-25.58-125.859-34.611-23.564-5.863-43.861-10.659-59.783-13.635-7.962-1.487-15.233-2.519-20.977-3.145-2.872-.292-4.88-.984-7.342-1.046-2.464-.073-5.379.463-8.391 1.046-13.175 2.555-17.947 10.913-24.123 19.928s-12.876 20.172-18.879 33.563c-12.007 26.782-23.568 61.332-33.562 97.541-1.159 4.196-2.056 8.372-3.145 12.586-24.722 7.349-135.776 39.585-198.229 56.637-68.33 18.628-124.769 31.774-177.253 45.1-10.672-61.843-31.704-153.086-54.539-238.085-13.623-50.816-27.151-98.618-39.855-135.299-5.942-17.128-11.44-31.183-16.782-43.002 171.01-41.123 312.937-88.508 426.874-131.104 134.965-50.456 229.274-93.485 286.331-115.371zm108.03 68.175c2.136 3.503 5.543 8.102 9.44 17.83 17.54 42.641 42.419 128.713 63.979 213.961 19.557 76.94 35.932 152.631 43.002 199.278-28.253-10.741-57.963-21.267-89.151-31.465 6.492-4.53 12.604-8.89 17.83-13.635 5.552-5.143 8.364-12.401 7.342-19.928-7.766-57.832-32.604-171.065-59.783-272.696-7.488-27.963-14.657-54.868-22.026-79.711 10.339-3.138 18.809-6.449 26.221-8.391l3.145-5.244zM701.419 701.432c-1.272 6.915-3.196 13.236-4.195 19.928-41.749 8.663-83.617 17.377-123.762 25.172-38.435 7.474-64.777 11.404-99.639 17.83 40.768-10.872 83.74-22.085 127.958-34.611 33.057-9.363 82.494-23.226 99.639-28.319z"/></svg>