<svg xmlns="http://www.w3.org/2000/svg" height="50" width="50"><path d="M18.902 6c-7.1 0-12.846 5.7-13.069 12.74-2.821 1.74-4.832 4.72-4.832 8.3 0 4.83 2.542 7.59 5.03 8.82C8.519 37.08 10.98 37 10.98 37h1.98v4.47c0 1.39 1.144 2.53 2.534 2.53h10.97c1.39 0 2.495-1.17 2.495-2.53v-1.58h2.456c1.39 0 2.496-1.17 2.496-2.53V37h3.999c.233 0 2.69.27 5.346-.71C46.043 35.26 49 32.6 49 27.52c0-2.79-.897-5.25-2.416-7-1.27-1.46-3.066-2.23-4.99-2.3-.961-5.16-6.507-8.34-12.198-6.72C27.019 8.25 23.262 6 18.903 6zm0 2.54c3.752 0 6.975 2.02 8.871 4.99l.555.86.99-.39c5.034-1.99 9.904 1.09 10.1 5.4l.04 1.39 1.385-.19c1.457-.22 2.783.32 3.841 1.53 1.059 1.23 1.783 3.15 1.783 5.39 0 4.18-1.95 5.62-4.08 6.4-2.128.77-4.355.6-4.355.6h-4.12V21.44l-.277-.68-4.593-4.59-.674-.27h-8.436c-1.155.23-2.02 1.27-2.02 2.49v1.63h-2.931a2.536 2.536 0 00-2.02 2.48v12.02h-2.02s-1.892 0-3.761-.91c-1.87-.91-3.644-2.52-3.644-6.52 0-2.83 1.68-5.23 4.079-6.48l.673-.36v-1.06c0-5.86 4.749-10.59 10.614-10.59zm1.427 9.21h7.089v2.05c0 1.4 1.144 2.53 2.534 2.53h2.06v15.03c0 .38-.247.63-.595.63h-2.456V25.5l-.277-.68-4.593-4.58-.674-.27h-3.604v-1.63c0-.3.237-.54.514-.59zm8.99 1.35l1.345 1.34h-.713a.642.642 0 01-.634-.64v-.7zm-13.942 2.76h7.09v2.05c0 1.4 1.144 2.54 2.533 2.54h2.06v15.02c0 .37-.247.63-.594.63h-10.97a.633.633 0 01-.634-.63V22.45c0-.3.237-.54.514-.59zm8.99 1.35l1.347 1.34H25a.642.642 0 01-.634-.64v-.7z"/></svg>