<svg xmlns="http://www.w3.org/2000/svg" width="1024" height="1024"><path d="M453.77 545.126s46.386 26.506 46.386 39.76-16.567 33.134-16.567 46.386l6.626 125.907 99.401-3.313s-26.506-106.027-36.447-129.22c-9.939-23.193-23.193-29.819-23.193-46.386l26.506-39.76-59.641-53.015-43.073 59.641z"/><path d="M423.949 969.235c-33.134 0-66.267-3.313-99.401-6.626-3.313 0-6.626-3.313-6.626-3.313-172.294-145.788-142.474-387.663-132.533-417.482 0 0 0-3.313 3.313-6.626 6.626-26.506 26.506-92.773 162.355-132.533 6.626 0 9.939 0 16.567 3.313 3.313 3.313 6.626 9.939 6.626 13.254-3.313 49.7 46.386 89.46 72.894 106.027 13.254-19.88 33.134-49.7 39.76-66.267-3.313-3.313 3.313-3.313 6.626-6.626 6.626 0 9.939 0 13.254 6.626 3.313 3.313 56.328 59.641 76.208 86.147 6.626 6.626 6.626 16.567-3.313 23.193-6.626 6.626-16.567 6.626-23.193-3.313-13.254-16.567-43.073-46.386-59.641-66.267-13.254 19.88-29.819 49.7-39.76 62.954-6.626 6.626-13.254 6.626-19.88 3.313-3.313-3.313-89.46-49.7-99.401-122.594-99.401 36.447-112.653 79.521-119.281 102.714 0 3.313-3.313 6.626-3.313 6.626 0 3.313-43.073 235.247 119.281 374.409 125.907 19.88 248.502-6.626 308.142-39.76 6.626-3.313 19.88 0 23.193 6.626s0 19.88-6.626 23.193c-49.7 29.819-135.848 53.015-235.247 53.015z"/><path d="M400.756 767.122c-6.626 0-13.254-6.626-13.254-13.254s6.626-13.254 13.254-13.254c0 0 76.208-3.313 139.161 0 59.641 0 152.414-23.193 155.728-23.193 6.626 0 13.254 3.313 13.254 9.939s-3.313 13.254-9.939 13.254c-3.313 0-96.088 23.193-162.355 23.193-59.641 0-135.848 3.313-135.848 3.313zM258.281 999.056c-9.939 0-16.567-6.626-16.567-16.567 0-3.313 0-66.267 3.313-119.281 0-9.939 9.939-16.567 19.88-16.567s16.567 9.939 16.567 19.88c-9.939 49.7-6.626 115.968-6.626 115.968 0 9.939-6.626 16.567-16.567 16.567zm460.558-13.254c-9.939 0-16.567-9.939-16.567-19.88 3.313-23.193 3.313-53.015 3.313-53.015 0-9.939 6.626-16.567 16.567-16.567s16.567 6.626 16.567 16.567c0 0 0 29.819-3.313 56.328 0 9.939-9.939 16.567-16.567 16.567zM470.338 419.219c-106.027 0-195.487-89.46-195.487-198.802 0-106.027 89.46-195.487 195.487-195.487 53.015 0 102.714 19.88 139.161 56.328s56.328 86.147 56.328 139.161-19.88 102.714-56.328 139.161c-6.626 6.626-16.567 6.626-23.193 0s-6.626-16.567 0-23.193c29.819-29.819 46.386-72.894 46.386-115.968s-16.567-86.147-46.386-115.968-69.58-46.386-115.968-46.386c-89.46 0-162.355 72.894-162.355 162.355s72.894 162.355 162.355 162.355c9.939 0 16.567 6.626 16.567 16.567s-6.626 19.88-16.567 19.88z"/><path d="M738.719 922.848c-72.894 0-132.533-23.193-182.235-46.386-39.76-16.567-72.894-29.819-106.027-29.819-9.939 0-16.567-6.626-16.567-16.567s6.626-16.567 16.567-16.567c39.76-3.313 79.521 13.254 119.281 29.819 62.954 26.506 132.533 56.328 231.934 36.447 49.7-145.788-53.015-331.335-76.208-361.155-46.386-62.954-182.235-99.401-255.128-99.401-9.939 0-16.567-6.626-16.567-16.567s6.626-16.567 16.567-16.567c69.58 0 225.308 33.134 281.636 112.653 0 3.313 145.788 221.995 76.208 404.228-3.313 6.626-6.626 9.939-13.254 9.939-26.506 6.626-53.015 9.939-76.208 9.939zM473.651 343.011c-23.193 0-49.7-3.313-69.58-13.254-9.939-3.313-13.254-13.254-9.939-19.88s9.939-9.939 16.567-6.626c43.073 16.567 86.147 16.567 129.22 0 6.626-3.313 13.254 0 16.567 6.626s0 13.254-6.626 16.567c-26.506 9.939-49.7 16.567-76.208 16.567zm-23.194-109.34c0 12.809-10.384 23.193-23.193 23.193s-23.193-10.384-23.193-23.193c0-12.809 10.384-23.193 23.193-23.193s23.193 10.384 23.193 23.193zm106.028 0c0 12.809-10.384 23.193-23.193 23.193s-23.193-10.384-23.193-23.193c0-12.809 10.384-23.193 23.193-23.193s23.193 10.384 23.193 23.193zm29.819-39.76c-129.22 0-231.934-69.58-235.247-72.894-6.626-6.626-9.939-16.567-3.313-23.193 3.313-6.626 13.254-9.939 23.193-3.313 0 0 145.788 99.401 298.201 56.328 9.939-3.313 16.567 3.313 19.88 13.254s-3.313 16.567-13.254 19.88c-29.819 6.626-59.641 9.939-89.46 9.939z"/></svg>