<svg viewBox="0 0 50 50"><path d="M45.163 7.483c-7.36 1.169-11.827 1.377-42.63 1.77h-.201a.97.97 0 00-.127 0H2.18a1.027 1.027 0 00-.157.053.998.998 0 00-.447.3l-.001.026v.026a.966.966 0 00-.15.197c-.002.012-.002.02-.002.03v.026a.988.988 0 00-.1.507.394.394 0 000 .05c-1.019 7.468.605 19.8 1.97 26.344a1.008 1.008 0 001.766.356l10.961-14.97a62.96 62.96 0 002.223 1.466c2.3 1.422 4.172 2.478 5.859 2.478 1.638 0 3.408-.974 5.505-2.276 1.268-.786 2.598-1.74 3.94-2.73L46.78 31.45a.472.472 0 00.05.05c.092 2.578.158 4.877.101 6.474-1.853.991-5.147 1.698-9.142 2.073-4.276.4-9.256.458-13.991.354A258.309 258.309 0 015.867 39.34a1.016 1.016 0 00-.206 2.022c.004 0 8.521.852 18.086 1.063 4.783.105 9.841.058 14.244-.354s8.144-1.09 10.506-2.58c.266-.176.442-.47.454-.807.176-3.635-.127-10.853-.656-17.397-.265-3.271-.56-6.377-.91-8.748-.174-1.185-.36-2.201-.555-2.983a7.735 7.735 0 00-.303-1.012c-.119-.296-.23-.557-.606-.86a1.003 1.003 0 00-.763-.2zm-.455 2.022c.053.156.09.31.152.557.166.67.335 1.633.505 2.78.338 2.296.647 5.355.909 8.597.203 2.51.336 5.055.454 7.484l-11.516-9.051c.316-.244.648-.464.96-.708 4.344-3.41 8.132-6.827 8.132-6.827a1.02 1.02 0 10-1.365-1.516c0-.001-3.754 3.369-8.03 6.724-.539.423-1.071.848-1.617 1.264-.029.023-.071.029-.1.051a1.015 1.015 0 00-.554.401.912.912 0 00-.05.098 55.204 55.204 0 01-4.044 2.788c-1.99 1.235-3.805 1.972-4.444 1.972-.592 0-2.596-.813-4.799-2.174a61.96 61.96 0 01-2.778-1.82c-.052-.037-.099-.065-.151-.102s-.1-.064-.152-.101c-1.353-.95-2.737-2.001-4.091-3.034a200.085 200.085 0 01-7.071-5.664c27.039-.36 32.831-.667 39.65-1.72zm-41.47 2.832a194.006 194.006 0 007.678 6.17c1.128.86 2.292 1.71 3.435 2.528L4.906 33.98C3.78 27.766 2.72 18.605 3.239 12.337z"/></svg>