<svg version="1.1" xmlns="http://www.w3.org/2000/svg" width="50" height="50" viewBox="0 0 1024 1024">
<path d="M986.328 464.139v-17.811s0-2.227-2.227-4.453c0-2.227 0-2.227-2.227-4.453l-2.227-4.453s-2.227-2.227-2.227-4.453v-2.227l-162.53-180.341c-15.586-17.811-44.528-20.039-62.341-4.453s-20.039 44.528-4.453 62.341l53.434 60.114-578.873 53.434c11.133-73.472 40.075-133.586 84.605-180.341 93.511-95.736 229.323-95.736 231.549-95.736 24.491 0 44.528-20.039 44.528-44.528s-20.039-44.528-44.528-44.528c-6.68 2.227-173.662 0-293.889 124.68-62.341 64.566-100.189 146.944-111.322 249.36l-57.887 4.453c-24.491 2.227-42.303 24.491-40.075 48.981 2.227 22.264 22.264 40.075 44.528 40.075h4.453l44.528-4.453v8.906c0 22.264 2.227 44.528 4.453 64.566l-20.039 2.227c-24.491 2.227-42.303 24.491-40.075 48.981 2.227 22.264 22.264 40.075 44.528 40.075h4.453l28.944-4.453c22.264 69.019 57.887 129.133 109.095 175.888 122.455 111.322 284.984 120.227 333.965 120.227h13.358c24.491-2.227 42.303-22.264 42.303-46.755-2.227-24.491-22.264-46.755-46.755-42.303 0 0-169.209 6.68-282.757-97.963-35.622-33.397-62.341-73.472-77.925-120.227l598.911-55.661-22.264 62.341c-8.906 22.264 4.453 48.981 26.717 55.661 4.453 2.227 8.906 2.227 15.586 2.227 17.811 0 35.622-11.133 42.303-28.944l82.378-229.323v-2.227s0-4.453 2.227-4.453c-2.227 2.227-2.227 0-2.227 0zM863.875 519.8l-641.213 60.114c-2.227-20.039-4.453-37.85-4.453-60.114v-13.358l616.723-57.887c11.133 0 22.264-6.68 28.944-15.586l28.944 33.397-20.039 53.434h-8.906z"></path>
</svg>