<svg xmlns="http://www.w3.org/2000/svg" width="1024" height="1024"><path d="M411.51 94.116c-91.601 1.686-150.089 39.327-175.242 96.81-24.017 54.888-18.706 123.727-1.225 195.461-9.269 10.932-16.727 25.785-14.091 47.793 2.899 24.095 9.542 41.248 18.996 53.308 5.105 6.512 11.554 7.234 17.771 10.416 3.461 20.569 9.777 41.027 18.381 58.208 4.931 9.846 10.46 18.975 15.931 26.347 2.464 3.318 5.959 5.181 8.58 7.965.131 23.976.183 44.055-1.84 69.239-6.376 15.371-21.228 28.404-45.342 40.442-24.888 12.42-57.327 23.302-90.071 37.377s-66.485 31.235-93.135 58.208c-26.652 26.974-45.474 64.57-48.407 113.356l-1.225 20.831H807.34l-1.225-20.831c-2.034-33.909-11.659-62.488-26.347-85.784h223.647l-1.225-20.832c-2.494-41.735-18.856-73.636-41.667-96.81s-51.416-37.717-79.044-49.632c-27.624-11.915-54.772-21.555-75.365-31.862-19.882-9.951-31.158-19.988-36.152-31.862-1.573-20.281-1.959-36.945-1.84-56.372 1.921-2.206 4.923-3.627 6.74-6.126 4.669-6.425 9.38-14.248 13.48-22.671 6.972-14.321 11.7-31.266 14.706-48.407 5.102-2.866 10.552-3.292 14.706-8.58 8.439-10.739 14.043-25.884 16.546-46.567 2.136-17.946-3.643-30.58-11.03-40.442 8.078-26.586 18.09-68.112 14.706-111.516-1.877-24.077-7.971-48.299-22.671-68.626-13.942-19.28-36.796-33.471-65.563-38.602-18.722-20.727-48.203-30.637-82.719-30.637-47.784.874-85.055 12.47-112.131 33.702-12.178-7.243-26.432-12.719-42.278-15.931-20.582-26.706-57.704-37.377-100.49-37.377h-.614zm.616 39.214h.614c39.478.131 65.022 11.724 72.304 24.511l4.9 8.58 9.191 1.225c27.274 3.791 42.897 14.779 53.922 30.023s17.156 35.911 18.996 59.434c3.676 47.049-9.854 102.41-18.381 128.062l-4.901 14.705 13.481 7.966c-.848-.513 7.477 5.158 5.515 21.446-2.31 19.252-6.889 29.204-10.416 33.702s-5.366 4.276-5.515 4.29l-16.546 1.84-1.84 15.931c-1.816 16.965-8.637 37.676-16.545 53.922-3.954 8.123-8.046 15.266-11.641 20.221s-7.394 7.115-5.515 6.126l-10.416 5.515v12.256c0 28.384-1.137 51.074 1.84 83.944v3.065l1.225 2.449c11.192 30.093 37.089 48.237 65.563 62.498s61.208 25.35 91.91 38.602c26.279 11.341 50.319 24.346 69.853 41.052.104.078-.104.528 0 .614.911.893 1.914 1.7 2.991 2.404 1.313 1.458 2.724 2.676 4.286 3.674.183.151.584-.058.692.046.61.595 1.242 1.234 1.84 1.84 16.584 16.855 26.969 39.501 32.476 67.4H65.944c5.523-27.887 15.818-50.543 32.476-67.4 20.892-21.144 49.434-36.378 80.269-49.632s63.344-24.345 91.91-38.602c28.566-14.258 54.969-32.376 66.174-62.498l.614-2.449.614-3.065c2.977-32.865 1.84-55.55 1.84-83.944v-12.256l-10.416-5.515c1.789.934-2.429-1.759-6.126-6.74-3.697-4.983-8.188-12.099-12.256-20.221-8.136-16.243-14.752-36.519-16.545-53.308l-1.84-15.931-16.545-1.84c-.157-.013-1.988.209-5.515-4.29s-8.1-14.445-10.416-33.702c-1.947-16.288 6.36-21.96 5.515-21.446l12.866-7.352-3.675-14.091c-18.459-71.042-21.654-135.648-2.449-179.53 19.149-43.761 58.171-71.875 139.702-73.529zm254.898 19.608c.261 0 .366-.002.614 0 32.644.131 52.982 9.821 58.208 18.996l4.901 8.58 9.19 1.225c22.28 3.097 34.685 11.703 43.503 23.896s13.804 29.579 15.319 49.018c3.033 38.882-8.235 84.669-15.319 106.002l-4.9 15.319 13.481 7.965c-1.799-1.097 5.179 2.083 3.675 14.706-1.913 15.825-6.067 23.762-8.58 26.961s-3.176 2.513-2.449 2.449l-16.545 1.84-1.225 15.931c-1.476 13.771-7.568 30.717-14.091 44.117-3.262 6.699-6.303 12.569-9.191 16.545-1.736 2.386-2.997 4.163-3.675 4.9h-.614c-.078.104.002.578 0 .614l-10.416 4.9v11.641c0 23.836-.666 43.176 1.84 71.078v3.065l1.225 2.449c9.848 26.445 32.711 42.382 56.983 54.533s51.496 21.387 77.204 32.476c25.708 11.087 49.116 23.719 66.174 41.052 12.795 13 20.903 30.016 25.736 50.857H744.841c-24.095-20.425-52.039-34.647-79.655-46.567-32.621-14.077-64.665-24.957-89.46-37.377-23.786-11.915-38.847-24.64-45.342-39.827-2.101-25.735-1.965-45.969-1.84-70.464 2.547-2.775 6.2-4.688 8.58-7.965 5.372-7.402 10.529-15.893 15.319-25.736 8.354-17.17 14.375-37.759 17.771-58.208 6.218-3.181 12.662-3.905 17.771-10.416 9.459-12.061 16.105-29.208 18.996-53.308 2.598-21.556-4.505-36.225-13.481-47.182 9.571-31.103 21.796-81.417 17.771-132.962-2.185-27.986-9.663-55.751-26.347-79.044 18.528-12.589 44.356-21.274 82.105-22.057z"/></svg>