<svg xmlns="http://www.w3.org/2000/svg" height="50" width="50"><path d="M13.678 4.9c-3.716 0-6.832 2.74-7.456 6.25L1.67 37.86h.057c-.173.48-.227.94-.227 1.25 0 3.33 2.474 5.8 5.804 5.8h2.733L7.59 47.35a.906.906 0 00-.271.65c0 .51.414.92.925.92.255 0 .487-.16.653-.27l3.985-3.98a.866.866 0 00.277-.65.86.86 0 00-.277-.64l-4.042-3.8a.907.907 0 00-.67-.29h-.132c-.436 0-.77.45-.77.91a.9.9 0 00.32.68l2.39 2.21H7.305c-2.496 0-3.985-1.48-3.985-3.97 0-.37.04-.54.115-.68.032-.16.052-.18.057-.29l4.552-26.71a5.725 5.725 0 015.634-4.7c2.71 0 4.697 1.52 5.692 4.09l4.95 16.93a.91.91 0 001.706 0l5.123-16.03c.024 0 .036-.16.036-.26 0-.5-.411-.91-.919-.91a.922.922 0 00-.88.66L25.229 24.4l-4.097-14.08c-1.2-3.2-4.001-5.34-7.455-5.34zM33.995.92c-.138 0-.252.17-.34.28l-4.042 3.98a.974.974 0 00-.251.64c0 .26.119.5.306.68l3.984 3.8a.9.9 0 00.695.32.906.906 0 00.56-1.62l-2.335-2.28h3.87c3.076 0 5.209 1.84 5.691 4.72l4.552 26.76v1.07c0 2.51-1.544 4.04-4.041 4.04-2.328 0-3.733-1.46-4.211-3.69l-2.334-18.23a.903.903 0 00-.903-.79.904.904 0 00-.86.61L28.643 40.3h.057c-.431 1.3-.909 2.06-1.423 2.51-.514.44-1.131.68-2.277.68-1.02 0-1.826-.24-2.447-.75-.62-.49-1.096-1.3-1.423-2.44l-5.463-19.26a.91.91 0 00-.868-.63.9.9 0 00-.894.74l-2.563 17.28-.016.16c0 .51.413.92.922.92.458 0 .84-.33.91-.78l1.878-13.07 4.325 15.18c.403 1.39 1.077 2.52 2.048 3.3.971.77 2.24 1.18 3.586 1.18 1.404 0 2.574-.36 3.472-1.14.898-.77 1.456-1.85 1.936-3.29l4.44-14.99 1.82 14.15c.615 2.87 2.84 5.12 5.976 5.12 3.33 0 5.861-2.52 5.861-5.85v-1.08c-.016 0-.035-.16-.059-.17l-4.55-26.88c-.611-3.66-3.612-6.25-7.456-6.25h-3.927l2.39-2.44a.91.91 0 00-.65-1.55h-.264z"/></svg>