<svg xmlns="http://www.w3.org/2000/svg" width="1600" height="1600"><g stroke="#449FDB"><path opacity=".3" d="M16 0v1600"/><path d="M32 0v1600"/><path opacity=".3" d="M48 0v1600"/><path d="M64 0v1600"/><path opacity=".3" d="M80 0v1600"/><path d="M96 0v1600"/><path opacity=".3" d="M112 0v1600"/><path d="M128 0v1600"/><path opacity=".3" d="M144 0v1600"/><path d="M160 0v1600"/><path opacity=".3" d="M176 0v1600"/><path d="M192 0v1600"/><path opacity=".3" d="M208 0v1600"/><path d="M224 0v1600"/><path opacity=".3" d="M240 0v1600"/><path d="M256 0v1600"/><path opacity=".3" d="M272 0v1600"/><path d="M288 0v1600"/><path opacity=".3" d="M304 0v1600"/><path d="M320 0v1600"/><path opacity=".3" d="M336 0v1600"/><path d="M352 0v1600"/><path opacity=".3" d="M368 0v1600"/><path d="M384 0v1600"/><path opacity=".3" d="M400 0v1600"/><path d="M416 0v1600"/><path opacity=".3" d="M432 0v1600"/><path d="M448 0v1600"/><path opacity=".3" d="M464 0v1600"/><path d="M480 0v1600"/><path opacity=".3" d="M496 0v1600"/><path d="M512 0v1600"/><path opacity=".3" d="M528 0v1600"/><path d="M544 0v1600"/><path opacity=".3" d="M560 0v1600"/><path d="M576 0v1600"/><path opacity=".3" d="M592 0v1600"/><path d="M608 0v1600"/><path opacity=".3" d="M624 0v1600"/><path d="M640 0v1600"/><path opacity=".3" d="M656 0v1600"/><path d="M672 0v1600"/><path opacity=".3" d="M688 0v1600"/><path d="M704 0v1600"/><path opacity=".3" d="M720 0v1600"/><path d="M736 0v1600"/><path opacity=".3" d="M752 0v1600"/><path d="M768 0v1600"/><path opacity=".3" d="M784 0v1600"/><path d="M800 0v1600"/><path opacity=".3" d="M816 0v1600"/><path d="M832 0v1600"/><path opacity=".3" d="M848 0v1600"/><path d="M864 0v1600"/><path opacity=".3" d="M880 0v1600"/><path d="M896 0v1600"/><path opacity=".3" d="M912 0v1600"/><path d="M928 0v1600"/><path opacity=".3" d="M944 0v1600"/><path d="M960 0v1600"/><path opacity=".3" d="M976 0v1600"/><path d="M992 0v1600"/><path opacity=".3" d="M1008 0v1600"/><path d="M1024 0v1600"/><path opacity=".3" d="M1040 0v1600"/><path d="M1056 0v1600"/><path opacity=".3" d="M1072 0v1600"/><path d="M1088 0v1600"/><path opacity=".3" d="M1104 0v1600"/><path d="M1120 0v1600"/><path opacity=".3" d="M1136 0v1600"/><path d="M1152 0v1600"/><path opacity=".3" d="M1168 0v1600"/><path d="M1184 0v1600"/><path opacity=".3" d="M1200 0v1600"/><path d="M1216 0v1600"/><path opacity=".3" d="M1232 0v1600"/><path d="M1248 0v1600"/><path opacity=".3" d="M1264 0v1600"/><path d="M1280 0v1600"/><path opacity=".3" d="M1296 0v1600"/><path d="M1312 0v1600"/><path opacity=".3" d="M1328 0v1600"/><path d="M1344 0v1600"/><path opacity=".3" d="M1360 0v1600"/><path d="M1376 0v1600"/><path opacity=".3" d="M1392 0v1600"/><path d="M1408 0v1600"/><path opacity=".3" d="M1424 0v1600"/><path d="M1440 0v1600"/><path opacity=".3" d="M1456 0v1600"/><path d="M1472 0v1600"/><path opacity=".3" d="M1488 0v1600"/><path d="M1504 0v1600"/><path opacity=".3" d="M1520 0v1600"/><path d="M1536 0v1600"/><path opacity=".3" d="M1552 0v1600"/><path d="M1568 0v1600"/><path opacity=".3" d="M1584 0v1600M0 16h1600"/><path d="M0 32h1600"/><path opacity=".3" d="M0 48h1600"/><path d="M0 64h1600"/><path opacity=".3" d="M0 80h1600"/><path d="M0 96h1600"/><path opacity=".3" d="M0 112h1600"/><path d="M0 128h1600"/><path opacity=".3" d="M0 144h1600"/><path d="M0 160h1600"/><path opacity=".3" d="M0 176h1600"/><path d="M0 192h1600"/><path opacity=".3" d="M0 208h1600"/><path d="M0 224h1600"/><path opacity=".3" d="M0 240h1600"/><path d="M0 256h1600"/><path opacity=".3" d="M0 272h1600"/><path d="M0 288h1600"/><path opacity=".3" d="M0 304h1600"/><path d="M0 320h1600"/><path opacity=".3" d="M0 336h1600"/><path d="M0 352h1600"/><path opacity=".3" d="M0 368h1600"/><path d="M0 384h1600"/><path opacity=".3" d="M0 400h1600"/><path d="M0 416h1600"/><path opacity=".3" d="M0 432h1600"/><path d="M0 448h1600"/><path opacity=".3" d="M0 464h1600"/><path d="M0 480h1600"/><path opacity=".3" d="M0 496h1600"/><path d="M0 512h1600"/><path opacity=".3" d="M0 528h1600"/><path d="M0 544h1600"/><path opacity=".3" d="M0 560h1600"/><path d="M0 576h1600"/><path opacity=".3" d="M0 592h1600"/><path d="M0 608h1600"/><path opacity=".3" d="M0 624h1600"/><path d="M0 640h1600"/><path opacity=".3" d="M0 656h1600"/><path d="M0 672h1600"/><path opacity=".3" d="M0 688h1600"/><path d="M0 704h1600"/><path opacity=".3" d="M0 720h1600"/><path d="M0 736h1600"/><path opacity=".3" d="M0 752h1600"/><path d="M0 768h1600"/><path opacity=".3" d="M0 784h1600"/><path d="M0 800h1600"/><path opacity=".3" d="M0 816h1600"/><path d="M0 832h1600"/><path opacity=".3" d="M0 848h1600"/><path d="M0 864h1600"/><path opacity=".3" d="M0 880h1600"/><path d="M0 896h1600"/><path opacity=".3" d="M0 912h1600"/><path d="M0 928h1600"/><path opacity=".3" d="M0 944h1600"/><path d="M0 960h1600"/><path opacity=".3" d="M0 976h1600"/><path d="M0 992h1600"/><path opacity=".3" d="M0 1008h1600"/><path d="M0 1024h1600"/><path opacity=".3" d="M0 1040h1600"/><path d="M0 1056h1600"/><path opacity=".3" d="M0 1072h1600"/><path d="M0 1088h1600"/><path opacity=".3" d="M0 1104h1600"/><path d="M0 1120h1600"/><path opacity=".3" d="M0 1136h1600"/><path d="M0 1152h1600"/><path opacity=".3" d="M0 1168h1600"/><path d="M0 1184h1600"/><path opacity=".3" d="M0 1200h1600"/><path d="M0 1216h1600"/><path opacity=".3" d="M0 1232h1600"/><path d="M0 1248h1600"/><path opacity=".3" d="M0 1264h1600"/><path d="M0 1280h1600"/><path opacity=".3" d="M0 1296h1600"/><path d="M0 1312h1600"/><path opacity=".3" d="M0 1328h1600"/><path d="M0 1344h1600"/><path opacity=".3" d="M0 1360h1600"/><path d="M0 1376h1600"/><path opacity=".3" d="M0 1392h1600"/><path d="M0 1408h1600"/><path opacity=".3" d="M0 1424h1600"/><path d="M0 1440h1600"/><path opacity=".3" d="M0 1456h1600"/><path d="M0 1472h1600"/><path opacity=".3" d="M0 1488h1600"/><path d="M0 1504h1600"/><path opacity=".3" d="M0 1520h1600"/><path d="M0 1536h1600"/><path opacity=".3" d="M0 1552h1600"/><path d="M0 1568h1600"/><path opacity=".3" d="M0 1584h1600"/></g><path d="M944.466 32.002c-271.85 0-486.522 173.252-486.522 376.542 0 96.289 47.461 184.058 126.758 251.652l11.184 9.322v14.913c-2.35 51.677-16.962 112.662-42.872 167.766 68.978-17.736 137.673-54.342 182.678-89.473l13.048-11.186 14.913 5.591c55.65 17.288 117.013 26.098 180.814 26.098 271.848 0 484.656-171.394 484.656-374.677 0-203.289-212.808-376.542-484.656-376.542zM243.575 229.591c-40.372 0-72.7 32.325-72.7 72.698v1193.008c0 40.375 32.327 72.694 72.7 72.703h641.237c40.372 0 72.7-32.325 72.7-72.703V842.872h-13.048c-22.336 0-43.831-1.142-65.241-3.728v525.67H249.17V341.436h156.58c7.606-39.492 21.183-76.78 41.009-111.847H243.575zm421.281 27.962c17.388 0 33.228 1.581 46.603 5.595 13.642 3.728 23.934 8.497 31.688 13.047l-14.912 41.011c-9.094-5.086-18.859-8.509-29.823-11.186-10.7-2.675-22.05-3.728-33.553-3.728-13.644 0-23.934 1.842-31.688 7.456-7.489 5.616-11.184 14.059-11.184 24.236 0 6.158 1.314 10.361 3.725 14.913 2.675 4.302 6.637 9.564 11.184 13.047 4.822 3.467 8.761 6.377 14.913 9.322 6.419 2.939 14.88 4.778 22.37 7.456 13.105 4.82 23.386 9.828 33.553 14.913 10.431 4.82 19.145 11.675 26.097 18.642 7.225 6.694 13.031 14.859 16.775 24.231 3.748 9.108 5.592 20.434 5.592 33.555 0 25.167-8.175 43.863-26.097 57.787-17.656 13.653-44.052 20.503-78.289 20.503-11.503 0-22.059-.438-31.688-1.886-9.361-1.314-18.606-3.467-26.097-5.591-7.225-2.15-13.294-3.467-18.639-5.595-5.344-2.414-9.841-5.58-13.048-7.456l14.913-41.006c7.225 3.992 17.519 7.164 29.823 11.184 12.305 3.992 27.348 7.456 44.737 7.456 18.189 0 30.855-3.161 39.144-9.319 8.291-6.163 13.047-14.855 13.048-26.098-.002-6.694-.788-13.82-3.725-18.642-2.675-4.82-7.698-9.298-13.048-13.047-5.081-3.992-11.152-6.108-18.639-9.322-7.491-3.467-16.466-7.97-26.097-11.184a426.06 426.06 0 01-27.961-11.186c-8.825-4.302-17.28-8.752-24.234-14.913-6.686-6.158-10.631-13.797-14.913-22.369-4.012-8.567-7.456-19.637-7.456-31.689 0-25.167 8.709-43.592 26.097-57.786 17.388-14.458 40.875-22.369 70.836-22.369zm572.269 0c17.388 0 33.228 1.581 46.603 5.595 13.644 3.728 23.933 8.497 31.688 13.047l-14.913 41.011c-9.094-5.086-20.722-8.509-31.688-11.186-10.7-2.675-20.189-3.728-31.687-3.728-13.644 0-25.795 1.842-33.553 7.456-7.489 5.616-11.184 14.059-11.184 24.236 0 6.158 1.314 10.361 3.725 14.913 2.675 4.302 6.638 9.564 11.184 13.047 4.822 3.467 10.622 6.377 16.775 9.322 6.417 2.939 13.013 4.778 20.505 7.456 13.105 4.82 25.252 9.828 35.417 14.913 10.431 4.82 19.142 11.675 26.097 18.642 7.223 6.694 13.03 14.859 16.775 24.231 3.748 9.108 5.592 20.434 5.592 33.555-.002 25.167-10.037 43.863-27.961 57.787-17.656 13.653-44.053 20.503-78.289 20.503-11.503 0-22.059-.438-31.688-1.886-9.361-1.314-16.744-3.467-24.234-5.591-7.225-2.15-13.292-3.467-18.639-5.595-5.35-2.414-9.841-5.58-13.048-7.456l14.912-41.006c7.225 3.992 17.519 7.164 29.823 11.184 12.306 3.992 25.486 7.456 42.87 7.456 18.189 0 32.717-3.161 41.009-9.319 8.292-6.163 11.184-14.855 11.184-26.098 0-6.694-.788-13.82-3.725-18.642-2.675-4.82-5.834-9.298-11.184-13.047-5.087-3.992-13.012-6.108-20.505-9.322-7.489-3.467-14.605-7.97-24.234-11.184a426.06 426.06 0 01-27.961-11.186c-8.827-4.302-17.28-8.752-24.234-14.913-6.686-6.158-12.497-13.797-16.775-22.369-4.013-8.567-5.592-19.637-5.592-31.689 0-25.167 8.709-43.592 26.097-57.786 17.388-14.458 40.875-22.369 70.836-22.369zm-423.144 7.453h46.603c5.883 10.177 13.283 22.556 20.505 37.281 7.225 14.73 14.88 30.272 22.37 46.605 7.489 16.069 15.145 31.598 22.37 48.467 7.489 16.603 14.353 32.408 20.505 46.605 6.153-14.192 11.419-30 18.639-46.605 7.225-16.869 14.88-32.4 22.37-48.467 7.489-16.33 15.144-31.875 22.37-46.605 7.223-14.725 14.62-27.105 20.505-37.281h44.737c2.409 20.35 5.317 40.355 7.456 63.38 2.142 22.761 3.989 46.739 5.592 70.836 1.873 23.83 2.388 48.333 3.725 72.698 1.606 24.103 2.655 47.811 3.728 70.836h-48.466c-1.069-32.4-2.127-66.384-3.725-100.661-1.338-34.275-4.516-66.663-7.456-98.795-2.939 6.158-5.309 13.802-9.322 22.369-4.013 8.572-8.502 17.787-13.048 27.964-4.552 9.905-10.097 19.112-14.912 29.822-4.552 10.706-8.502 21.513-13.048 31.689-4.283 9.905-9.303 19.12-13.048 27.959-3.748 8.572-6.645 16.211-9.322 22.369h-37.283c-2.675-6.158-5.573-13.536-9.322-22.369-3.748-8.839-8.502-18.055-13.048-27.959-4.283-10.177-8.231-20.98-13.048-31.689-4.552-10.711-8.502-21.786-13.048-31.689-4.552-9.909-9.038-17.527-13.048-26.098-4.013-8.833-8.241-16.477-11.184-22.369-2.945 32.133-5.855 64.522-7.456 98.795-1.333 34.275-2.655 68.261-3.725 100.661h-48.466c1.069-23.025 2.388-46.198 3.725-70.836 1.606-24.633 2.122-50.462 3.728-74.561 1.873-24.366 3.448-48.072 5.591-70.836 2.142-22.761 5.048-42.236 7.456-61.514zM564.194 1394.638c34.762 0 63.378 28.612 63.378 63.38 0 34.763-28.612 63.38-63.378 63.38s-63.378-28.616-63.378-63.38c0-34.766 28.614-63.38 63.378-63.38z"/></svg>