<svg xmlns="http://www.w3.org/2000/svg" width="1024" height="1024"><path d="M555.181 71.012c-240.954 0-436.444 190.944-440.99 427.352H45.996c-9.092 0-13.639 4.546-18.185 9.092 0 9.092 0 13.639 4.546 22.731l90.926 145.482c4.546 4.546 9.092 9.092 13.639 9.092l13.639-4.546 113.657-136.39c4.546-9.092 4.546-18.185 0-27.277-4.546-4.546-9.092-9.092-13.639-4.546-4.546-9.092-9.092-13.639-18.185-13.639h-54.556C186.93 298.327 350.597 134.66 555.182 134.66c209.131 0 377.344 168.213 377.344 377.344S764.313 889.348 555.182 889.348c-109.111 0-209.131-45.464-281.87-127.297-13.639-13.639-31.823-13.639-45.464-4.546-13.639 13.639-13.639 31.823-4.546 45.464 81.833 95.472 204.583 150.028 331.88 150.028 245.5 0 440.99-200.036 440.99-440.99s-200.036-440.99-440.99-440.99zm0 127.296c-13.639 0-27.277 9.092-27.277 27.277v295.51c0 9.092 4.546 13.639 9.092 18.185l159.121 159.121c4.546 4.546 13.639 9.092 18.185 9.092s13.639-4.546 18.185-9.092c9.092-9.092 9.092-27.277 0-36.37L577.913 507.457v-281.87c0-18.185-9.092-27.277-22.731-27.277z"/></svg>