<!-- Generated by IcoMoon.io -->
<svg version="1.1" xmlns="http://www.w3.org/2000/svg" width="1024" height="1024" viewBox="0 0 1024 1024">
<title></title>
<g id="icomoon-ignore">
</g>
<path d="M885.331 229.472h-131.175v-121.080c0-44.594-36.12-80.717-80.719-80.717h-322.883c-44.596 0-80.721 36.125-80.721 80.717v121.082h-131.173c-27.844 0-50.449 22.605-50.449 50.454 0 27.844 22.605 50.449 50.449 50.449h30.272v585.23c0 44.597 36.12 80.717 80.719 80.717h524.691c44.596 0 80.719-36.12 80.719-80.717v-585.23h30.272c27.842 0 50.454-22.605 50.454-50.449-0.002-27.851-22.614-50.456-50.456-50.456zM653.258 229.472h-282.527v-56.495c0-24.617 19.788-44.403 44.403-44.403h193.72c24.619 0 44.401 19.788 44.401 44.403v56.495zM370.732 370.736v484.325c0 22.194-18.171 40.363-40.358 40.363s-40.358-18.169-40.358-40.363v-484.325c0-22.187 18.169-40.359 40.358-40.359s40.358 18.171 40.358 40.359zM552.36 370.736v484.325c0 22.194-18.171 40.363-40.363 40.363-22.189 0-40.358-18.169-40.358-40.363v-484.325c0-22.187 18.171-40.359 40.358-40.359 22.192 0 40.363 18.171 40.363 40.359zM733.975 370.736v484.325c0 22.194-18.171 40.363-40.356 40.363-22.189 0-40.363-18.169-40.363-40.363v-484.325c0-22.187 18.173-40.359 40.363-40.359 22.187 0 40.356 18.171 40.356 40.359z"></path>
</svg>
