<svg 
xmlns="http://www.w3.org/2000/svg" 
width="28" 
height="28">
  <path d="m 12.55529,6.6127074 h 2.888929 v 2.88158 H 12.55529 Z M 12.312708,5.6203282 c -0.406546,0 -0.749799,0.3432567 -0.749799,0.7497978 v 3.3740934 c 0,0.4065486 0.343253,0.7497976 0.749799,0.7497976 h 3.374094 c 0.406546,0 0.749798,-0.343256 0.749798,-0.7497976 V 6.370126 c 0,-0.4065487 -0.343253,-0.7497978 -0.749798,-0.7497978 z m 2.183253,12.2831728 h 1.190304 v 6.336624 h -1.190304 z m -2.184171,0 h 1.192249 v 6.336624 H 12.31179 Z m 7.132106,-5.212448 h 4.969329 c 0.890315,0 1.587074,0.706484 1.587074,1.596797 v 9.90754 c -0.04065,0.02003 -0.114293,0.04475 -0.213944,0.04475 h -6.342459 z m -15.8571216,0 H 8.556104 V 24.240125 H 2.2116995 c -0.099655,0 -0.1713486,-0.02494 -0.2119975,-0.04475 V 14.28785 c 0,-0.890313 0.6967597,-1.596797 1.5870724,-1.596797 z M 11.144823,3.754039 h 5.710354 c 0.890311,0 1.589018,0.7045418 1.589018,1.5948548 V 24.240125 h -1.758229 v -6.579742 c 0,-0.406549 -0.342255,-0.748804 -0.748803,-0.748804 h -3.874326 c -0.406547,0 -0.750749,0.342237 -0.750749,0.748804 v 6.579742 H 9.5558049 V 5.3488938 c 0,-0.890313 0.6987061,-1.5948548 1.5890181,-1.5948548 z m 0,-0.9938645 c -1.424767,0 -2.588719,1.1639508 -2.588719,2.5887193 V 11.699135 H 3.5867744 C 2.1620059,11.699135 1,12.863086 1,14.28785 v 10.010623 c 0,0.336907 0.2159962,0.594252 0.4415021,0.73519 0.2255055,0.140939 0.4896605,0.206162 0.7701974,0.206162 H 25.786356 c 0.280535,0 0.546638,-0.06524 0.772142,-0.206173 C 26.784003,24.892713 27,24.635388 27,24.298462 V 14.28785 c 0,-1.424764 -1.162007,-2.588715 -2.586775,-2.588715 H 19.443896 V 5.3488938 c 0,-1.4247685 -1.163953,-2.5887193 -2.588719,-2.5887193 z"/>
</svg>