<svg version="1.1" xmlns="http://www.w3.org/2000/svg" width="1024" height="1024" viewBox="0 0 1024 1024">
<path d="M565.054 82.525l282.949 252.632-282.949 252.632v-151.58c-151.58 30.317-262.739 121.263-262.739 293.053 0 80.842 25.263 156.632 65.685 222.317-111.158-80.842-186.949-202.107-186.949-348.634 0-217.263 171.79-389.053 384.002-399.159v-121.263zM565.054 31.998c-5.053 0-15.158 0-20.21 5.053-20.21 10.105-30.317 25.263-30.317 45.473v75.79c-217.263 35.368-384.002 222.317-384.002 444.634 0 156.632 80.842 298.107 212.212 378.949 5.053 10.105 15.158 10.105 25.263 10.105 15.158 0 25.263-5.053 35.368-15.158 15.158-15.158 20.21-45.473 5.053-65.685-40.422-55.578-60.632-126.317-60.632-192 0-111.158 55.578-192 161.685-227.369v85.895c0 20.21 10.105 35.368 30.317 45.473 5.053 5.053 15.158 5.053 20.21 5.053 10.105 0 25.263-5.053 35.368-10.105l282.949-252.632c10.105-10.105 15.158-25.263 15.158-40.422s-5.053-30.317-15.158-40.422l-141.474-126.317-136.422-116.212c-10.105-5.053-25.263-10.105-35.368-10.105z"></path>
</svg>