<svg xmlns="http://www.w3.org/2000/svg" width="1024" height="1024"><path d="M443.649 41.703c-42.086.196-84.535 11.028-120.39 31.846-57.361 33.303-99.78 94.165-114.177 158.45-16.715 74.641 4.851 153.354 40.389 216.703 7.284 12.985 11.622 20.298 20.972 36.505h-87.768c-24.078 0-43.496 19.224-43.496 42.719v411.657c0 23.689 19.417 42.719 43.496 42.719h658.651c23.883 0 43.496-19.03 43.496-42.719V527.926c0-23.69-19.417-42.719-43.496-42.719H327.92c-14.139-24.324-23.056-39.376-34.952-60.584-30.872-55.031-47.898-123.937-34.952-181.751 11.107-49.597 46.534-100.534 90.099-125.827 43.641-25.337 106.111-32.183 154.566-17.088 56.873 17.718 109.784 67.381 140.584 121.943 23.055 40.841 66.02 114.953 66.02 114.953l43.496-24.854s-43.416-74.133-66.02-114.177c-36.122-63.99-96.221-122.471-169.323-145.245-23.647-7.366-48.536-10.992-73.788-10.874zm31.069 617.352h74.564v198.838h-74.564z"/></svg>