<?xml version="1.0" encoding="UTF-8" standalone="no"?>
<svg id="svg18629" xmlns:rdf="http://www.w3.org/1999/02/22-rdf-syntax-ns#" xmlns="http://www.w3.org/2000/svg" height="50" width="50" version="1.1" xmlns:cc="http://creativecommons.org/ns#" xmlns:dc="http://purl.org/dc/elements/1.1/" viewBox="0 0 50 50">
 <g id="layer1" transform="translate(0 -1002.4)">
  <path id="path19232" d="m28.657 1026.8h-0.2718c-0.053 0-0.8331 0.27-1.6322 0.94-0.7933 0.64-1.6053 1.83-1.5982 3.51 0 0.31 0.012 0.61 0.068 0.95l-0.3737 0.13c-0.3703 0.15-0.5519 0.55-0.4078 0.93 0.143 0.36 0.5484 0.55 0.9186 0.41l0.2379-0.12c0.087 0.23 0.2039 0.43 0.3058 0.64l-0.2718 0.12c-0.3691 0.14-0.5507 0.55-0.4078 0.93 0.1441 0.37 0.5472 0.55 0.9186 0.41l0.5449-0.2c0.3163 0.35 0.6596 0.65 1.0205 0.87 0.8846 0.56 1.8068 0.68 2.5848 0.68 1.1459 0 1.9931-0.31 2.0411-0.34 0.3726-0.14 0.5483-0.55 0.4077-0.91-0.1417-0.37-0.546-0.55-0.9186-0.41-0.036 0-0.7112 0.24-1.5302 0.24-0.5941 0-1.2479-0.12-1.8372-0.47-0.1032-0.12-0.2063-0.18-0.3059-0.26l1.4283-0.54c0.3691-0.14 0.5507-0.55 0.4078-0.91-0.1441-0.38-0.5835-0.56-0.9526-0.41l-1.8372 0.71c-0.097-0.19-0.1863-0.42-0.2719-0.64l1.8373-0.72c0.3691-0.15 0.5846-0.55 0.4417-0.92-0.1441-0.37-0.5835-0.56-0.9526-0.41l-1.6322 0.65c-0.013-0.14-0.034-0.29-0.034-0.41 0-1.2 0.5144-1.9 1.0886-2.39 0.2847-0.24 0.601-0.44 0.8166-0.55 0.109 0 0.1793-0.11 0.2379-0.11h0.068c0.3797-0.12 0.5929-0.51 0.4758-0.88-0.088-0.28-0.334-0.49-0.6128-0.53zm-16.611 2.97c-0.066-0.85-0.5976-3.05-1.4717-3.58-0.81667-0.5-3.917 0.54-3.9732 1.33-0.0809 1.1 0.85417 3.1 1.6053 3.43 1.0358 0 3.0312-0.35 3.8397-1.18zm11.827-12.55c-0.4054 0.12-0.7522 0.14-1.0463 0.12-0.2906-0.12-0.5753-0.23-0.853-0.5-0.2765-0.28-0.464-0.61-0.6058-1.12-0.1863-0.7-0.1488-1.19 0.079-1.65 0.2297-0.45 0.641-0.77 1.242-0.93l3.9381-1.08c0.3621-0.12 0.6632-0.12 0.9116 0.11 0.2449 0.15 0.4066 0.37 0.4874 0.66 0.067 0.25 0.056 0.47-0.033 0.68-0.061 0.14-0.1675 0.27-0.3269 0.39 0.2871 0 0.5156 0.11 0.6913 0.21 0.1758 0.14 0.2976 0.34 0.3691 0.6 0.059 0.22 0.067 0.43 0.025 0.63-0.042 0.18-0.13 0.36-0.2601 0.5-0.081 0.12-0.2132 0.18-0.3984 0.26-0.2507 0.12-0.4148 0.17-0.5003 0.2l-3.719 1.02zm2.9469-7.19c-0.9468 0-2.0927 0.21-3.3675 0.45-2.5508 0.47-5.6945 1.31-8.7761 2.21-3.0815 0.91-6.0764 1.9-8.4362 2.78-1.1799 0.42-2.2204 0.82-2.9937 1.14-0.38666 0.18-0.71591 0.31-0.98657 0.45s-0.45579 0.25-0.71474 0.5c-0.56945 0.58-0.54015 1.13-0.54484 1.72-0.005 0.59 0.0727 1.26 0.20388 2.01 0.26363 1.51 0.73934 3.37 1.3603 5.21 0.621 1.86 1.3779 3.68 2.177 5.19s1.5267 2.73 2.7559 3.28c0.7815 0.35 1.6193 0.35 2.6528 0.27 0.9877-0.12 2.1477-0.26 3.4014-0.52 0.052 0.18 0.083 0.37 0.1359 0.55 0.6269 2.11 1.3768 4.15 2.0071 5.69 0.1489 0.37 0.5871 0.53 0.9526 0.38 0.3644-0.15 0.525-0.55 0.3738-0.92-0.6175-1.53-1.3615-3.51-1.9731-5.57-0.5437-1.82-0.9655-3.67-1.0885-5.25 7.3161-1.46 13.183-3.33 17.654-5 4.2076-1.59 7.1403-2.94 8.912-3.62 0.055 0.12 0.07 0.14 0.1359 0.31 0.5226 1.27 1.2947 3.93 1.9731 6.61 0.6269 2.49 1.1694 4.91 1.3943 6.38-0.3843 0.29-0.9561 0.62-1.7352 0.99-3.3593 1.59-9.6256 3.47-15.001 4.94-2.6914 0.74-5.1719 1.4-6.9728 1.84-1.8045 0.45-2.9246 0.72-2.9258 0.72-0.3878 0.11-0.5976 0.48-0.5097 0.86 0.093 0.39 0.464 0.64 0.8507 0.54h0.034v0.12c0.061 0.4 0.4241 0.68 0.8166 0.61 0 0 6.4901-1.03 13.47-2.46 3.4882-0.7 7.097-1.52 10.102-2.34 1.5022-0.41 2.8297-0.81 3.9463-1.24 1.1202-0.41 2.013-0.84 2.6188-1.29 0.2015-0.16 0.3035-0.4 0.2718-0.65-0.2226-1.79-1.0205-5.32-1.8712-8.49-0.423-1.59-0.8624-3.09-1.2584-4.23-0.1968-0.57-0.3703-1.05-0.5448-1.44-0.091-0.18-0.1758-0.36-0.2719-0.5-0.1031-0.15-0.1863-0.29-0.4417-0.45-0.08 0-0.1828 0-0.2718-0.11h-0.2719c-0.328 0.11-1.1225 0.31-1.5642 0.44-0.034-0.11-0.069-0.24-0.1019-0.34-0.1934-0.57-0.3738-1.05-0.5449-1.43-0.086-0.18-0.1804-0.36-0.2718-0.51-0.1031-0.14-0.1793-0.28-0.4417-0.44-0.089 0-0.1723-0.11-0.2719-0.11h-0.3058c-1.4494 0.5-3.7201 1.54-6.8369 2.79-0.3398-2.13-0.8952-4.47-1.5982-6.55-0.751-2.23-1.5501-4.1-2.8917-5.12-0.7382-0.55-1.4693-0.54-2.4149-0.51zm3.6065 7.13c0.5729 1.87 1.0557 3.96 1.3263 5.79-0.2296 0.13-0.4089 0.2-0.6468 0.28-4.5415 1.7-10.507 3.63-18.029 5.12-0.3433 0.12-0.5917 0.36-0.5789 0.71 0.036 1.14 0.2227 2.42 0.5097 3.68-1.14 0.22-2.1723 0.39-2.9937 0.45-0.89747 0-1.6087 0-1.7013-0.12-0.1828-0.12-1.0135-0.95-1.7353-2.32-0.72177-1.36-1.447-3.14-2.0411-4.91-0.14529-0.43-0.2777-0.83-0.40776-1.26 4.7056-1.1 21.487-5.8 26.294-7.43zm13.538 6.07c0.067 0.13 0.1125 0.22 0.2039 0.45 0.5448 1.32 1.3006 3.99 1.9731 6.64 0.6128 2.43 1.1448 4.83 1.3604 6.27-0.4312 0.27-1.0323 0.56-1.8712 0.86-3.6991 1.38-10.549 2.88-16.43 4.03-1.1917 0.22-2.0083 0.37-3.0957 0.57 1.2678-0.34 2.5836-0.7 3.9463-1.09 3.1917-0.9 6.5041-1.89 9.2529-2.9 1.3721-0.49 2.5883-1.02 3.6054-1.49 1.0205-0.49 1.829-0.94 2.3809-1.43 0.1722-0.16 0.2367-0.4 0.2038-0.63-0.2425-1.79-1.0264-5.32-1.8712-8.48-0.2366-0.89-0.4511-1.71-0.6807-2.48 0.2917-0.12 0.6011-0.19 1.0205-0.31z"/>
 </g>
</svg>
