<!-- Generated by IcoMoon.io -->
<svg version="1.1" xmlns="http://www.w3.org/2000/svg" width="859" height="1024" viewBox="0 0 859 1024">
<title></title>
<g id="icomoon-ignore">
</g>
<path d="M754.872 269.128h-647.658v-80.957h647.658v80.957zM714.393 916.786h-80.957v-566.701h80.957v566.701zM512 916.786v-566.701h80.957v566.701h-80.957zM390.564 916.786v-566.701h80.957v566.701h-80.957zM269.128 916.786v-566.701h80.957v566.701h-80.957zM147.692 916.786v-566.701h80.957v566.701h-80.957zM350.086 66.735h161.914v40.479h-161.914v-40.479zM795.351 107.214h-242.872v-40.479c0-24.287-16.192-40.479-40.479-40.479h-161.914c-24.287 0-40.479 16.192-40.479 40.479v40.479h-242.872c-24.287 0-40.479 16.191-40.479 40.478v161.915c0 24.287 16.192 40.479 40.479 40.479 0 40.478 0 607.179 0 607.179 0 24.287 20.239 40.478 40.479 40.478h647.658c24.287 0 36.431-16.191 36.431-40.478v-607.179c40.479 0 40.479-16.192 40.479-40.479v-161.915c4.048-24.287-12.144-40.478-36.431-40.478z"></path>
</svg>
