<svg xmlns="http://www.w3.org/2000/svg" width="50" height="50" viewBox="0 0 512 512"><path d="M472.971 7.029c-9.373-9.372-24.568-9.372-33.941 0L337.948 108.111C311.979 100.234 284.474 96 256 96 144.341 96 47.559 161.021 0 256c20.561 41.062 50.324 76.52 86.511 103.548L7.03 439.029c-9.373 9.373-9.373 24.568 0 33.941C11.716 477.657 17.858 480 24 480s12.284-2.343 16.971-7.029l432-432c9.372-9.373 9.372-24.569 0-33.942zM208 160c21.12 0 39.041 13.647 45.46 32.598l-60.862 60.862C173.647 247.041 160 229.12 160 208c0-26.51 21.49-48 48-48zM55.058 256c19.146-30.262 44.637-55.962 74.717-75.148a231.722 231.722 0 015.931-3.65C130.725 190.866 128 205.613 128 221c0 27.445 8.643 52.869 23.35 73.709l-30.462 30.462C94.665 306.75 72.287 283.23 55.058 256zM384 221c0-13.583-2.128-26.667-6.051-38.949L217.045 342.955A127.894 127.894 0 00256 349c70.691 0 128-57.309 128-128z"/><path d="M415.013 144.987l-34.681 34.681c.632.393 1.265.784 1.893 1.184 30.081 19.187 55.571 44.887 74.717 75.148-19.146 30.261-44.637 55.961-74.718 75.148C344.427 355.257 300.779 368 256 368c-19.332 0-38.451-2.38-56.981-7.02l-38.447 38.447C190.431 410.158 222.547 416 256 416c111.655 0 208.438-65.021 256-160-22.511-44.958-56.059-83.198-96.987-111.013z"/></svg>