<svg xmlns="http://www.w3.org/2000/svg" width="788" height="1024"><path d="M743.821 221.593L415.63 32.156c-15.971-9.221-36.38-3.752-45.576 12.212L32.152 629.747a32.698 32.698 0 00-4.244 20.437L63.77 966.739c1.18 10.468 7.315 19.775 16.454 25.14 7.784 4.384 16.875 5.591 25.316 3.329a30.397 30.397 0 004.678-1.674l292.249-127.1c6.508-2.893 12.096-7.752 15.563-13.946l338.014-585.38c9.182-15.905 3.72-36.288-12.223-45.515zM382.085 781.37l-54.123-31.293 229.319-397.19 54.156 31.312-229.352 397.172zm-267.884 37.72l-14.038-123.372L326.874 826.61l-113.876 49.475-98.796-56.995zm385.291-499.568l-229.32 397.192-46.441-26.769 229.319-397.19 23.149 13.431 23.293 13.336zm-158.516-91.408l54.288 31.276-229.346 397.198-54.262-31.283 229.321-397.191zm303.818 98.27l-83.045-47.968-.13.035-187.253-108.132 36.795-63.692 270.402 156.071-36.768 63.687z"/></svg>