<svg xmlns="http://www.w3.org/2000/svg" viewBox="0 0 1024 1024"><path d="M561.554 269.97c-3.186 0-79.41 5.97-130.381 69.651-26.626 31.455-40.912 71.964-41.783 120.421l-21.898 3.99c-12.743 3.186-23.072 16.13-19.92 28.874 0 9.557 10.161 18.913 22.904 18.913h5.97l15.928-2.985c1.375 14.588 4.762 27.767 7.948 40.811l-16.935 2.985c-12.743 3.186-23.072 16.13-19.92 28.873 0 9.557 10.162 18.913 22.904 18.913 0 0 2.985.335 2.985-2.985l25.888-3.99c12.844 26.29 30.65 48.188 53.756 64.687 47.752 35.043 102.312 41.784 137.322 41.784 19.114 0 28.671-3.186 31.857 0 12.743-3.186 22.1-16.13 18.913-28.873-3.185-12.743-16.13-22.1-28.872-18.913 0 0-76.224 9.557-130.381-31.858-13.38-8.518-23.943-20.288-32.83-33.836l80.616-10.932c12.743-3.186 22.099-16.13 18.913-28.873-3.186-12.743-16.13-22.099-28.873-18.913l-91.548 14.923c-3.387-11.67-5.332-24.715-6.975-37.827-.134-1.073.1-1.911 0-2.984l92.554-15.93c12.743-3.185 22.1-16.129 18.914-28.872-3.186-12.743-16.13-22.099-28.873-18.913l-83.6 13.917c2.85-32.428 12.91-59.456 29.844-80.617 38.23-47.752 98.524-53.755 98.524-53.755 12.743 0 21.897-13.145 21.897-25.888 0-12.743-12.139-21.898-24.882-21.898zM902.093 842.8zM223.765 967.012c79.61 6.371 423.535 3.186 585.941-3.186l-15.929-57.31C625 925.63 357.5 925.63 287.446 919.258c-6.372 0-15.929-6.371-19.115-12.743-63.68-108.281-95.538-375.783-111.467-576.418-19.114 261.13 6.371 544.561 66.867 636.914zm171.962 54.124c-89.167 0-165.591 0-191.077-6.371-6.371 0-12.743-3.186-15.929-9.558C86.811 874.624 77.254 368.293 140.97 84.862c3.186-9.557 15.929-19.114 28.671-15.928 12.743 0 22.3 9.557 22.3 22.3 0 6.371 19.115 601.87 111.468 783.39 152.849 9.558 512.703-6.371 589.127-28.671-6.371-31.858-15.928-60.496-31.857-92.353-41.415-101.91-95.539-242.016-89.167-691.038-146.477-22.3-359.855 6.372-477.694 28.672-12.743 0-25.486-6.372-25.486-19.115 0-12.742 6.372-25.485 19.115-28.671C440.295 17.962 653.673-10.676 800.15 17.962c12.743 3.186 19.114 12.743 19.114 25.486-9.557 458.579 47.753 595.499 85.982 694.223 15.929 41.415 31.857 76.424 35.043 121.025 0 6.371 0 12.743-6.371 19.114-9.558 9.557-44.567 19.115-92.353 25.486l22.3 79.61c3.185 6.371 0 15.929-3.186 19.115-3.186 3.185-12.743 9.557-19.114 9.557-15.93 3.186-261.13 9.557-445.837 9.557z"/></svg>