<svg version="1.1" xmlns="http://www.w3.org/2000/svg" width="1024" height="1024" viewBox="0 0 1024 1024">
<path d="M503.881 904.008c-139.050 0-281.058-11.834-390.522-38.46-11.834-2.958-17.751-11.834-17.751-23.668s8.876-20.71 20.71-20.71c5.917 0 562.115-17.751 730.749-106.506 8.876-144.966-5.917-479.277-26.626-550.281-29.585 5.917-56.212 14.792-88.755 29.585-88.755 38.46-218.929 91.714-641.994 85.796-20.71 136.091 8.876 334.31 29.585 443.775 2.958 11.834-5.917 23.668-17.751 26.626s-23.668-5.917-26.626-17.751c-26.626-144.966-50.294-343.186-26.626-479.277 2.958-11.834 11.834-17.751 20.71-17.751 431.941 5.917 559.156-44.378 650.87-82.838 38.46-14.792 71.004-29.585 115.382-32.544 5.917 0 11.834 0 17.751 5.917 8.876 8.876 17.751 41.419 23.668 88.755l76.921-20.71c5.917-2.958 14.792 0 17.751 2.958 5.917 2.958 8.876 11.834 8.876 17.751 0 20.71 11.834 523.654 0 594.658 0 5.917-2.958 11.834-8.876 14.792-71.004 53.253-263.306 79.88-467.443 79.88zM344.123 853.714c242.597 17.751 508.862-5.917 594.658-62.128 5.917-73.962 2.958-396.439-2.958-547.322l-56.212 14.792c14.792 156.8 17.751 408.273 11.834 473.36 0 5.917-5.917 14.792-11.834 17.751-97.63 59.17-349.103 88.755-535.488 103.548z"></path>
<path d="M163.655 362.604c11.834-2.958 32.544-5.917 53.253-8.876 26.626-2.958 44.378 0 56.212 8.876 11.834 5.917 17.751 17.751 17.751 35.502 2.958 23.668-11.834 38.46-26.626 44.378 11.834 2.958 20.71 14.792 26.626 29.585 5.917 17.751 14.792 41.419 17.751 47.336l-41.419 2.958c-2.958-5.917-8.876-17.751-14.792-38.46s-14.792-26.626-29.585-26.626h-11.834l5.917 68.046-38.46 2.958-14.792-165.676zM208.032 433.608h14.792c20.71-2.958 29.585-11.834 29.585-26.626s-11.834-23.668-29.585-20.71c-8.876 0-14.792 2.958-17.751 2.958l2.958 44.378zM355.957 344.852l14.792 174.552-38.46 2.958-14.792-174.552 38.46-2.958zM388.501 344.852c8.876-2.958 29.585-5.917 50.294-8.876 23.668-2.958 38.46 0 53.253 5.917 11.834 5.917 23.668 17.751 23.668 32.544s-5.917 29.585-26.626 38.46c20.71 2.958 35.502 17.751 38.46 41.419 0 14.792-5.917 29.585-14.792 38.46-11.834 11.834-32.544 17.751-68.046 20.71-20.71 2.958-32.544 2.958-41.419 0l-14.792-168.634zM432.877 406.98h11.834c20.71-2.958 29.585-11.834 29.585-23.668s-11.834-20.71-29.585-17.751c-8.876 0-14.792 2.958-17.751 2.958l5.917 38.46zM438.795 483.902h14.792c17.751-2.958 32.544-8.876 32.544-26.626s-17.751-23.668-38.46-20.71h-14.792l5.917 47.336z"></path>
<path d="M187.323 750.166v-29.585c210.054-8.876 417.148-32.544 621.285-71.004l5.917 29.585c-207.095 38.46-414.19 62.128-627.202 71.004zM172.53 750.166l-2.958-88.755h29.585l2.958 88.755h-29.585zM326.371 741.291c-2.958-29.585-5.917-59.17-5.917-88.755 8.876 0 20.71 0 29.585-2.958l8.876 88.755c-11.834 2.958-20.71 2.958-32.544 2.958zM480.213 729.457l-8.876-88.755 29.585-2.958c2.958 29.585 5.917 59.17 11.834 88.755-11.834 0-23.668 0-32.544 2.958zM631.097 708.748c-5.917-29.585-8.876-59.17-11.834-88.755l29.585-2.958 14.792 88.755-32.544 2.958zM781.981 685.080l-17.751-88.755 29.585-5.917c5.917 29.585 11.834 59.17 17.751 85.796-8.876 2.958-17.751 5.917-29.585 8.876z"></path>
</svg>