<svg xmlns="http://www.w3.org/2000/svg" viewBox="-38 0 1024 1024"><path d="M474.221 318.097c-107.026 0-194.095 87.068-194.095 194.087 0 107.027 87.069 194.095 194.095 194.095 107.019 0 194.087-87.068 194.087-194.095 0-107.019-87.068-194.087-194.087-194.087zm115.234 157.536L450.408 614.68a29.813 29.813 0 01-21.14 8.759c-7.647 0-15.294-2.915-21.131-8.76L355 561.544c-11.674-11.665-11.674-30.59 0-42.263 11.665-11.674 30.59-11.674 42.263 0l32.005 32.004L547.19 433.37c11.666-11.673 30.59-11.673 42.264 0 11.673 11.666 11.673 30.59 0 42.264zm0 0"/><path d="M906.944 279.222l-.03-.793c-.444-9.785-.74-20.137-.918-31.655-.832-56.167-45.481-102.628-101.656-105.767-117.123-6.537-207.727-44.728-285.143-120.185l-.66-.63c-25.251-23.152-63.341-23.152-88.6 0l-.66.63C351.86 96.28 261.256 134.47 144.133 141.014c-56.168 3.132-100.825 49.593-101.656 105.768-.171 11.44-.474 21.792-.917 31.647l-.047 1.842c-2.277 119.43-5.106 268.068 44.618 402.98 27.342 74.19 68.75 138.681 123.068 191.693 61.864 60.372 142.894 108.302 240.835 142.451a74.473 74.473 0 009.87 2.69 73.214 73.214 0 0014.332 1.422c4.787 0 9.583-.474 14.331-1.423a74.54 74.54 0 009.91-2.704c97.824-34.212 178.768-82.165 240.578-142.529 54.294-53.027 95.703-117.534 123.068-191.74 49.91-135.316 47.09-284.233 44.82-403.89zm-432.723 486.83c-139.987 0-253.868-113.88-253.868-253.868 0-139.987 113.881-253.869 253.868-253.869 139.98 0 253.869 113.882 253.869 253.869S614.2 766.053 474.22 766.053zm0 0"/></svg>