<?xml version="1.0" encoding="UTF-8" standalone="no"?>
<svg
   xmlns:dc="http://purl.org/dc/elements/1.1/"
   xmlns:cc="http://creativecommons.org/ns#"
   xmlns:rdf="http://www.w3.org/1999/02/22-rdf-syntax-ns#"
   xmlns:svg="http://www.w3.org/2000/svg"
   xmlns="http://www.w3.org/2000/svg"
   xmlns:sodipodi="http://sodipodi.sourceforge.net/DTD/sodipodi-0.dtd"
   xmlns:inkscape="http://www.inkscape.org/namespaces/inkscape"
   id="Icone_L_Adresse_postale"
   data-name="Icone/L/Adresse postale"
   width="28"
   height="28"
   viewBox="0 0 28 28"
   version="1.1"
   sodipodi:docname="adresse-2.svg"
   inkscape:version="0.92.3 (2405546, 2018-03-11)">
  <metadata
     id="metadata13">
    <rdf:RDF>
      <cc:Work
         rdf:about="">
        <dc:format>image/svg+xml</dc:format>
        <dc:type
           rdf:resource="http://purl.org/dc/dcmitype/StillImage" />
        <dc:title></dc:title>
      </cc:Work>
    </rdf:RDF>
  </metadata>
  <defs
     id="defs11" />
  <sodipodi:namedview
     pagecolor="#ffffff"
     bordercolor="#666666"
     borderopacity="1"
     objecttolerance="10"
     gridtolerance="10"
     guidetolerance="10"
     inkscape:pageopacity="0"
     inkscape:pageshadow="2"
     inkscape:window-width="1920"
     inkscape:window-height="1052"
     id="namedview9"
     showgrid="false"
     inkscape:zoom="16.857143"
     inkscape:cx="16.386501"
     inkscape:cy="12.332122"
     inkscape:window-x="0"
     inkscape:window-y="0"
     inkscape:window-maximized="1"
     inkscape:current-layer="Icone_L_Adresse_postale" />
  <path
     style="color:#000000;font-style:normal;font-variant:normal;font-weight:normal;font-stretch:normal;font-size:medium;line-height:normal;font-family:sans-serif;font-variant-ligatures:normal;font-variant-position:normal;font-variant-caps:normal;font-variant-numeric:normal;font-variant-alternates:normal;font-feature-settings:normal;text-indent:0;text-align:start;text-decoration:none;text-decoration-line:none;text-decoration-style:solid;text-decoration-color:#000000;letter-spacing:normal;word-spacing:normal;text-transform:none;writing-mode:lr-tb;direction:ltr;text-orientation:mixed;dominant-baseline:auto;baseline-shift:baseline;text-anchor:start;white-space:normal;shape-padding:0;clip-rule:nonzero;display:inline;overflow:visible;visibility:visible;opacity:1;isolation:auto;mix-blend-mode:normal;color-interpolation:sRGB;color-interpolation-filters:linearRGB;solid-color:#000000;solid-opacity:1;vector-effect:none;fill:#000000;fill-opacity:1;fill-rule:nonzero;stroke:none;stroke-width:0.96296299;stroke-linecap:round;stroke-linejoin:round;stroke-miterlimit:4;stroke-dasharray:none;stroke-dashoffset:0;stroke-opacity:1;color-rendering:auto;image-rendering:auto;shape-rendering:auto;text-rendering:auto;enable-background:accumulate"
     d="M 4.075087,1 A 0.48152963,0.48152963 0 0 0 3.5936055,1.4814815 V 19.693142 a 0.48152963,0.48152963 0 0 0 0.4814815,0.481481 h 7.481771 v 6.343896 A 0.48152963,0.48152963 0 0 0 12.03834,27 h 3.91956 a 0.48152963,0.48152963 0 0 0 0.481482,-0.481481 v -6.343896 h 7.485532 a 0.48152963,0.48152963 0 0 0 0.48148,-0.481481 V 1.4814815 A 0.48152963,0.48152963 0 0 0 23.924914,1 Z M 4.5565685,1.962963 H 23.443432 V 19.211661 H 15.9579 12.03834 4.5565685 Z M 7.8178532,4.5471644 A 0.48152963,0.48152963 0 0 0 7.3363718,5.0286459 V 7.5564237 A 0.48152963,0.48152963 0 0 0 7.8178532,8.0379051 H 20.176504 A 0.48152963,0.48152963 0 0 0 20.657986,7.5564237 V 5.0286459 A 0.48152963,0.48152963 0 0 0 20.176504,4.5471644 Z m 0.4814815,0.962963 H 19.695023 V 7.0749422 H 8.2993347 Z M 19.821035,9.672309 c -0.675038,0 -1.231915,0.556876 -1.231915,1.231915 0,0.675039 0.556877,1.231916 1.231915,1.231916 0.675041,0 1.233798,-0.556877 1.233796,-1.231916 2e-6,-0.675039 -0.558755,-1.231915 -1.233796,-1.231915 z m 0,0.962963 c 0.154616,0 0.270835,0.114337 0.270833,0.268952 2e-6,0.154616 -0.116217,0.268953 -0.270833,0.268953 -0.154614,0 -0.268951,-0.114337 -0.268951,-0.268953 0,-0.154615 0.114337,-0.268952 0.268951,-0.268952 z m -7.301214,9.539351 h 2.956597 v 5.862414 h -2.956597 z"
     id="Ellipse_47"
     inkscape:connector-curvature="0" />
</svg>
