<?xml version="1.0" encoding="UTF-8" standalone="no"?>
<svg
   xmlns:dc="http://purl.org/dc/elements/1.1/"
   xmlns:cc="http://creativecommons.org/ns#"
   xmlns:rdf="http://www.w3.org/1999/02/22-rdf-syntax-ns#"
   xmlns:svg="http://www.w3.org/2000/svg"
   xmlns="http://www.w3.org/2000/svg"
   xmlns:sodipodi="http://sodipodi.sourceforge.net/DTD/sodipodi-0.dtd"
   xmlns:inkscape="http://www.inkscape.org/namespaces/inkscape"
   id="Icone_L_Adresse"
   data-name="Icone/L/Adresse"
   width="28"
   height="28"
   viewBox="0 0 28 28"
   version="1.1"
   sodipodi:docname="adresse.svg"
   inkscape:version="0.92.3 (2405546, 2018-03-11)">
  <metadata
     id="metadata17">
    <rdf:RDF>
      <cc:Work
         rdf:about="">
        <dc:format>image/svg+xml</dc:format>
        <dc:type
           rdf:resource="http://purl.org/dc/dcmitype/StillImage" />
        <dc:title></dc:title>
      </cc:Work>
    </rdf:RDF>
  </metadata>
  <defs
     id="defs15" />
  <sodipodi:namedview
     pagecolor="#ffffff"
     bordercolor="#666666"
     borderopacity="1"
     objecttolerance="10"
     gridtolerance="10"
     guidetolerance="10"
     inkscape:pageopacity="0"
     inkscape:pageshadow="2"
     inkscape:window-width="1920"
     inkscape:window-height="1052"
     id="namedview13"
     showgrid="false"
     inkscape:zoom="16"
     inkscape:cx="-1.8901537"
     inkscape:cy="15.642685"
     inkscape:window-x="0"
     inkscape:window-y="0"
     inkscape:window-maximized="1"
     inkscape:current-layer="Icone_L_Adresse" />
  <path
     style="color:#000000;font-style:normal;font-variant:normal;font-weight:normal;font-stretch:normal;font-size:medium;line-height:normal;font-family:sans-serif;font-variant-ligatures:normal;font-variant-position:normal;font-variant-caps:normal;font-variant-numeric:normal;font-variant-alternates:normal;font-feature-settings:normal;text-indent:0;text-align:start;text-decoration:none;text-decoration-line:none;text-decoration-style:solid;text-decoration-color:#000000;letter-spacing:normal;word-spacing:normal;text-transform:none;writing-mode:lr-tb;direction:ltr;text-orientation:mixed;dominant-baseline:auto;baseline-shift:baseline;text-anchor:start;white-space:normal;shape-padding:0;clip-rule:nonzero;display:inline;overflow:visible;visibility:visible;opacity:1;isolation:auto;mix-blend-mode:normal;color-interpolation:sRGB;color-interpolation-filters:linearRGB;solid-color:#000000;solid-opacity:1;vector-effect:none;fill:#000000;fill-opacity:1;fill-rule:nonzero;stroke:none;stroke-width:0.95615864;stroke-linecap:round;stroke-linejoin:round;stroke-miterlimit:10;stroke-dasharray:none;stroke-dashoffset:0;stroke-opacity:1;color-rendering:auto;image-rendering:auto;shape-rendering:auto;text-rendering:auto;enable-background:accumulate"
     d="M 17.16447,1.0007022 A 0.47812713,0.47812713 0 0 0 16.714403,1.4787815 V 5.310886 a 0.47812713,0.47812713 0 0 0 0,0.1550023 V 7.3445906 H 8.1481934 c -0.0055,-7.77e-5 -0.00596,0.0018 -0.011205,0.00187 -0.043442,3.608e-4 -0.1015989,1.99e-4 -0.1437973,0 C 5.140075,7.4515717 2.8388281,9.774367 2.8445009,12.653886 l -0.026145,8.764165 c -10e-4,0.264754 0.2133235,0.479922 0.4780794,0.479947 h 8.7847077 v 4.623923 A 0.47812713,0.47812713 0 0 0 12.559222,27 h 2.931971 a 0.47812713,0.47812713 0 0 0 0.478079,-0.478079 v -4.623923 h 8.734285 c 0.264025,-2.7e-5 0.478053,-0.214055 0.47808,-0.47808 v -8.728683 c 0.0058,-2.949644 -2.397001,-5.3524514 -5.346645,-5.3466444 h -2.16443 V 5.6769155 l 3.763007,-1.8562923 a 0.47812713,0.47812713 0 0 0 -0.0056,-0.8609163 L 17.397908,1.0473896 A 0.47812713,0.47812713 0 0 0 17.16447,1.0007022 Z m 0.506092,1.2344157 2.453891,1.1634509 -2.453891,1.2120057 z M 8.1892783,8.2633993 c 2.4312297,-0.00431 4.3934077,1.9573927 4.3886187,4.3886187 v 0.0019 8.287953 h -0.01867 -8.7828399 l 0.024278,-8.287953 v -0.0019 C 3.7958651,10.22045 5.7577108,8.258609 8.1892783,8.2633993 Z m 3.0552257,0.03735 c 1.802668,-0.00586 3.535543,-0.00194 5.469899,0 V 12.70244 c -0.633431,0.204741 -1.099954,0.795831 -1.099956,1.493998 0,0.865128 0.711041,1.576168 1.576168,1.576168 0.865128,0 1.578036,-0.71104 1.578036,-1.576168 0,-0.696726 -0.466197,-1.286194 -1.098089,-1.49213 V 8.3007493 c 0.59228,7.264e-4 2.16443,0 2.16443,0 h 0.0019 c 2.431569,-0.00479 4.393409,1.9570507 4.388619,4.3886187 v 0.0019 8.250604 h -8.734285 -1.957138 v -8.287953 c 0.0036,-1.809351 -0.906396,-3.3959583 -2.289551,-4.3531367 z M 5.23303,11.677185 a 0.47812713,0.47812713 0 0 0 -0.4780793,0.478079 v 1.884305 A 0.47812713,0.47812713 0 0 0 5.23303,14.517648 h 5.311162 a 0.47812713,0.47812713 0 0 0 0.47808,-0.478079 v -1.884305 a 0.47812713,0.47812713 0 0 0 -0.47808,-0.478079 z m 0.4780793,0.956158 H 10.066113 V 13.56149 H 5.7111093 Z M 17.190615,13.57643 c 0.348382,0 0.621877,0.271627 0.621877,0.620008 0,0.348381 -0.273495,0.62001 -0.621877,0.62001 -0.348381,0 -0.620009,-0.271629 -0.620009,-0.62001 0,-0.348381 0.271628,-0.620008 0.620009,-0.620008 z m -4.153314,8.321568 h 0.01867 0.02801 1.929124 v 4.145843 h -1.975812 z"
     id="Tracé_100"
     inkscape:connector-curvature="0" />
</svg>
