<?xml version="1.0" encoding="UTF-8" standalone="no"?>
<svg
   xmlns:dc="http://purl.org/dc/elements/1.1/"
   xmlns:cc="http://creativecommons.org/ns#"
   xmlns:rdf="http://www.w3.org/1999/02/22-rdf-syntax-ns#"
   xmlns:svg="http://www.w3.org/2000/svg"
   xmlns="http://www.w3.org/2000/svg"
   xmlns:sodipodi="http://sodipodi.sourceforge.net/DTD/sodipodi-0.dtd"
   xmlns:inkscape="http://www.inkscape.org/namespaces/inkscape"
   id="Icone_L_Agenda"
   data-name="Icone/L/Agenda"
   width="28"
   height="28"
   viewBox="0 0 28 28"
   version="1.1"
   sodipodi:docname="agenda.svg"
   inkscape:version="0.92.3 (2405546, 2018-03-11)">
  <metadata
     id="metadata19">
    <rdf:RDF>
      <cc:Work
         rdf:about="">
        <dc:format>image/svg+xml</dc:format>
        <dc:type
           rdf:resource="http://purl.org/dc/dcmitype/StillImage" />
        <dc:title></dc:title>
      </cc:Work>
    </rdf:RDF>
  </metadata>
  <defs
     id="defs17" />
  <sodipodi:namedview
     pagecolor="#ffffff"
     bordercolor="#666666"
     borderopacity="1"
     objecttolerance="10"
     gridtolerance="10"
     guidetolerance="10"
     inkscape:pageopacity="0"
     inkscape:pageshadow="2"
     inkscape:window-width="1920"
     inkscape:window-height="1052"
     id="namedview15"
     showgrid="false"
     inkscape:zoom="11.9198"
     inkscape:cx="16.154503"
     inkscape:cy="14.139"
     inkscape:window-x="0"
     inkscape:window-y="0"
     inkscape:window-maximized="1"
     inkscape:current-layer="Icone_L_Agenda" />
  <path
     style="color:#000000;font-style:normal;font-variant:normal;font-weight:normal;font-stretch:normal;font-size:medium;line-height:normal;font-family:sans-serif;font-variant-ligatures:normal;font-variant-position:normal;font-variant-caps:normal;font-variant-numeric:normal;font-variant-alternates:normal;font-feature-settings:normal;text-indent:0;text-align:start;text-decoration:none;text-decoration-line:none;text-decoration-style:solid;text-decoration-color:#000000;letter-spacing:normal;word-spacing:normal;text-transform:none;writing-mode:lr-tb;direction:ltr;text-orientation:mixed;dominant-baseline:auto;baseline-shift:baseline;text-anchor:start;white-space:normal;shape-padding:0;clip-rule:nonzero;display:inline;overflow:visible;visibility:visible;opacity:1;isolation:auto;mix-blend-mode:normal;color-interpolation:sRGB;color-interpolation-filters:linearRGB;solid-color:#000000;solid-opacity:1;vector-effect:none;fill:#444444;fill-opacity:1;fill-rule:nonzero;stroke:none;stroke-width:0.95317197;stroke-linecap:round;stroke-linejoin:round;stroke-miterlimit:10;stroke-dasharray:none;stroke-dashoffset:0;stroke-opacity:1;color-rendering:auto;image-rendering:auto;shape-rendering:auto;text-rendering:auto;enable-background:accumulate"
     d="M 9.1745668,1.5650445 A 0.47663365,0.47663365 0 0 0 8.7035657,2.0490771 V 3.8493062 H 3.7534011 C 2.238212,3.8493062 1,5.0875181 1,6.6027074 V 23.681613 c 0,1.51519 1.238212,2.753401 2.7534011,2.753401 H 24.246599 C 25.761788,26.435014 27,25.196803 27,23.681613 V 6.6027074 C 27,5.0875181 25.761788,3.8493062 24.246599,3.8493062 H 19.294572 V 2.0490771 A 0.47663365,0.47663365 0 0 0 18.81054,1.5650445 0.47663365,0.47663365 0 0 0 18.3414,2.0490771 V 3.8493062 H 9.6567377 V 2.0490771 A 0.47663365,0.47663365 0 0 0 9.1745668,1.5650445 Z M 3.7534011,4.8024782 h 4.9501646 v 1.8002292 a 0.47663365,0.47663365 0 1 0 0.953172,0 V 4.8024782 H 18.3414 v 1.8002292 a 0.47663365,0.47663365 0 1 0 0.953172,0 V 4.8024782 h 4.952027 c 1.000056,0 1.800229,0.8001723 1.800229,1.8002292 V 9.5422748 H 1.953172 V 6.6027074 c 0,-1.0000569 0.8001723,-1.8002292 1.8002291,-1.8002292 z M 1.953172,10.495447 h 24.093656 v 13.186166 c 0,1.000057 -0.800173,1.800229 -1.800229,1.800229 H 3.7534011 c -1.0000568,0 -1.8002291,-0.800172 -1.8002291,-1.800229 z m 15.448088,2.462981 a 0.47663365,0.47663365 0 0 0 -0.180581,0.04096 l -2.012459,0.899184 a 0.47709543,0.47709543 0 1 0 0.389087,0.871258 l 1.34226,-0.599455 v 7.234427 a 0.47663365,0.47663365 0 1 0 0.953172,0 V 13.435014 A 0.47663365,0.47663365 0 0 0 17.40126,12.958428 Z m -6.476729,0.0056 c -0.759047,-0.0029 -1.4838705,0.322569 -1.9752256,0.902907 a 0.47685666,0.47685666 0 1 0 0.7279106,0.61621 c 0.3152567,-0.372348 0.780004,-0.582923 1.267793,-0.573393 a 0.47663365,0.47663365 0 0 0 0.07074,-0.0037 c 0.345024,-0.04389 0.514805,0.06114 0.685092,0.292282 0.170288,0.23115 0.282973,0.617484 0.282974,1.009022 -10e-7,0.391536 -0.112686,0.777871 -0.282974,1.009021 -0.106015,0.143908 -0.216852,0.233029 -0.364885,0.273665 -0.134904,-0.01109 -0.270106,-0.02501 -0.41329,-0.0074 a 0.47663365,0.47663365 0 0 0 -0.361163,0.230847 0.47663365,0.47663365 0 0 0 -0.02048,0.03351 0.47671754,0.47671754 0 0 0 -0.0037,0.0074 0.47671754,0.47671754 0 0 0 0.35744,0.699986 c 0.178183,0.02267 0.348324,0.01276 0.511958,-0.01675 0.255036,0.04615 0.439424,0.185035 0.603179,0.407705 0.233506,0.317514 0.377918,0.822234 0.377918,1.332951 0,0.510717 -0.144412,1.017299 -0.377918,1.334813 -0.233506,0.317514 -0.499069,0.474787 -0.969927,0.417013 a 0.47663365,0.47663365 0 0 0 -0.08005,-0.0037 C 10.112346,20.96418 9.3362884,20.470704 9.012602,19.686482 a 0.47663365,0.47663365 0 1 0 -0.8805671,0.363025 c 0.4704913,1.139898 1.6035848,1.858967 2.8334521,1.820707 0.764381,0.07667 1.425176,-0.267894 1.8114,-0.793068 0.394054,-0.535822 0.564084,-1.220501 0.564084,-1.898898 0,-0.678397 -0.17003,-1.361215 -0.564084,-1.897035 -0.111236,-0.151255 -0.249868,-0.283439 -0.40212,-0.400258 0.02964,-0.03402 0.06657,-0.06268 0.09308,-0.09867 0.331517,-0.450005 0.46914,-1.015739 0.46914,-1.574967 -1e-6,-0.55923 -0.137623,-1.123101 -0.46914,-1.573106 -0.326102,-0.442654 -0.897972,-0.740143 -1.543319,-0.670199 z"
     id="Tracé_63"
     inkscape:connector-curvature="0" />
</svg>
