<?xml version="1.0" encoding="UTF-8" standalone="no"?>
<svg
   xmlns:dc="http://purl.org/dc/elements/1.1/"
   xmlns:cc="http://creativecommons.org/ns#"
   xmlns:rdf="http://www.w3.org/1999/02/22-rdf-syntax-ns#"
   xmlns:svg="http://www.w3.org/2000/svg"
   xmlns="http://www.w3.org/2000/svg"
   xmlns:sodipodi="http://sodipodi.sourceforge.net/DTD/sodipodi-0.dtd"
   xmlns:inkscape="http://www.inkscape.org/namespaces/inkscape"
   id="Icone_L_Agence"
   data-name="Icone/L/Agence"
   width="28"
   height="28"
   viewBox="0 0 28 28"
   version="1.1"
   sodipodi:docname="agence.svg"
   inkscape:version="0.92.3 (2405546, 2018-03-11)">
  <metadata
     id="metadata25">
    <rdf:RDF>
      <cc:Work
         rdf:about="">
        <dc:format>image/svg+xml</dc:format>
        <dc:type
           rdf:resource="http://purl.org/dc/dcmitype/StillImage" />
        <dc:title></dc:title>
      </cc:Work>
    </rdf:RDF>
  </metadata>
  <sodipodi:namedview
     pagecolor="#ffffff"
     bordercolor="#666666"
     borderopacity="1"
     objecttolerance="10"
     gridtolerance="10"
     guidetolerance="10"
     inkscape:pageopacity="0"
     inkscape:pageshadow="2"
     inkscape:window-width="1920"
     inkscape:window-height="1052"
     id="namedview23"
     showgrid="false"
     inkscape:zoom="16.857143"
     inkscape:cx="18.221244"
     inkscape:cy="16.594166"
     inkscape:window-x="0"
     inkscape:window-y="0"
     inkscape:window-maximized="1"
     inkscape:current-layer="Icone_L_Agence" />
  <defs
     id="defs6">
    <clipPath
       id="clip-path">
      <path
         id="Tracé_257"
         data-name="Tracé 257"
         d="M47.577,30.4a2.908,2.908,0,0,0-1.149-.231,2.272,2.272,0,0,1-.279-1.338H45.72a2.763,2.763,0,0,0,.34,1.536,2.038,2.038,0,0,1-1.91.781v.421c.095,0,.187.014.279.014a2.487,2.487,0,0,0,1.994-1,2.387,2.387,0,0,1,1.16.279Z"
         transform="translate(-44.15 -28.83)"
         fill="#444" />
    </clipPath>
    <clipPath
       id="clip-path-2">
      <path
         id="Tracé_258"
         data-name="Tracé 258"
         d="M47.647,30.937a2.4,2.4,0,0,0-1.659-.694A2.889,2.889,0,0,1,45.7,28.98H45.28a3.2,3.2,0,0,0,.362,1.494,1.885,1.885,0,0,1-1.352.783v.418a2.359,2.359,0,0,0,1.734-1.018,1.89,1.89,0,0,1,1.623.968Z"
         transform="translate(-44.29 -28.98)"
         fill="none" />
    </clipPath>
  </defs>
  <path
     style="color:#000000;font-style:normal;font-variant:normal;font-weight:normal;font-stretch:normal;font-size:medium;line-height:normal;font-family:sans-serif;font-variant-ligatures:normal;font-variant-position:normal;font-variant-caps:normal;font-variant-numeric:normal;font-variant-alternates:normal;font-feature-settings:normal;text-indent:0;text-align:start;text-decoration:none;text-decoration-line:none;text-decoration-style:solid;text-decoration-color:#000000;letter-spacing:normal;word-spacing:normal;text-transform:none;writing-mode:lr-tb;direction:ltr;text-orientation:mixed;dominant-baseline:auto;baseline-shift:baseline;text-anchor:start;white-space:normal;shape-padding:0;clip-rule:nonzero;display:inline;overflow:visible;visibility:visible;opacity:1;isolation:auto;mix-blend-mode:normal;color-interpolation:sRGB;color-interpolation-filters:linearRGB;solid-color:#000000;solid-opacity:1;vector-effect:none;fill:#000000;fill-opacity:1;fill-rule:nonzero;stroke:none;stroke-width:0.9630326;stroke-linecap:round;stroke-linejoin:round;stroke-miterlimit:4;stroke-dasharray:none;stroke-dashoffset:0;stroke-opacity:1;color-rendering:auto;image-rendering:auto;shape-rendering:auto;text-rendering:auto;enable-background:accumulate"
     d="m 11.341315,2.717284 c -1.5532019,0 -2.8232654,1.2700631 -2.8232654,2.8232656 V 11.760763 H 3.4508428 C 2.1048503,11.760761 1.0019755,12.861853 1,14.207844 v 10.593359 a 0.48156446,0.48156446 0 0 0 0.4815163,0.481516 h 7.5180496 0.067713 9.8334661 0.105332 7.512407 A 0.48156446,0.48156446 0 0 0 27,24.801203 V 14.207844 C 26.998,12.861853 25.895149,11.760761 24.549157,11.760763 H 19.487593 V 5.5405496 c 3e-6,-1.5548106 -1.272447,-2.8254405 -2.827027,-2.8232656 z m 0,0.9630326 h 5.319251 c 1.034271,-0.00213 1.863997,0.8259598 1.863995,1.860233 V 24.319686 H 16.747088 V 17.505102 A 0.48156446,0.48156446 0 0 0 16.265571,17.023586 H 11.73819 a 0.48156446,0.48156446 0 0 0 -0.481516,0.481516 v 6.814584 H 9.4810822 V 5.5405496 c 0,-1.0327409 0.8274918,-1.860233 1.8602328,-1.860233 z m 0.663966,1.9749692 a 0.48156446,0.48156446 0 0 0 -0.481517,0.4815164 v 3.8878688 a 0.48156446,0.48156446 0 0 0 0.481517,0.481516 h 3.887868 a 0.48156446,0.48156446 0 0 0 0.481517,-0.481516 V 6.1368022 A 0.48156446,0.48156446 0 0 0 15.893149,5.6552858 Z m 0.481516,0.9630327 h 2.924836 V 9.5431537 H 12.486797 Z M 3.4508428,12.723795 h 5.0672068 v 11.595891 h -6.555017 v -10.109961 -0.0019 c 0.00222,-0.825144 0.6624101,-1.48405 1.4878102,-1.484049 z m 16.0367502,0 h 5.061564 c 0.826031,-1e-6 1.486598,0.6599 1.48781,1.48593 v 10.109961 h -6.549374 z m -7.267886,5.262823 h 1.297836 v 6.269116 h -1.297836 z m 2.260869,0 h 1.303479 v 6.269116 h -1.303479 z"
     id="Rectangle_174"
     inkscape:connector-curvature="0" />
</svg>
