<?xml version="1.0" encoding="UTF-8" standalone="no"?>
<svg
   xmlns:dc="http://purl.org/dc/elements/1.1/"
   xmlns:cc="http://creativecommons.org/ns#"
   xmlns:rdf="http://www.w3.org/1999/02/22-rdf-syntax-ns#"
   xmlns:svg="http://www.w3.org/2000/svg"
   xmlns="http://www.w3.org/2000/svg"
   xmlns:sodipodi="http://sodipodi.sourceforge.net/DTD/sodipodi-0.dtd"
   xmlns:inkscape="http://www.inkscape.org/namespaces/inkscape"
   id="Icone_L_Aide"
   data-name="Icone/L/Aide"
   width="28"
   height="28"
   viewBox="0 0 28 28"
   version="1.1"
   sodipodi:docname="aide.svg"
   inkscape:version="0.92.3 (2405546, 2018-03-11)">
  <metadata
     id="metadata11">
    <rdf:RDF>
      <cc:Work
         rdf:about="">
        <dc:format>image/svg+xml</dc:format>
        <dc:type
           rdf:resource="http://purl.org/dc/dcmitype/StillImage" />
        <dc:title></dc:title>
      </cc:Work>
    </rdf:RDF>
  </metadata>
  <defs
     id="defs9" />
  <sodipodi:namedview
     pagecolor="#ffffff"
     bordercolor="#666666"
     borderopacity="1"
     objecttolerance="10"
     gridtolerance="10"
     guidetolerance="10"
     inkscape:pageopacity="0"
     inkscape:pageshadow="2"
     inkscape:window-width="1920"
     inkscape:window-height="1052"
     id="namedview7"
     showgrid="false"
     inkscape:zoom="23.8396"
     inkscape:cx="11.987374"
     inkscape:cy="15.650792"
     inkscape:window-x="0"
     inkscape:window-y="0"
     inkscape:window-maximized="1"
     inkscape:current-layer="Icone_L_Aide" />
  <path
     style="color:#000000;font-style:normal;font-variant:normal;font-weight:normal;font-stretch:normal;font-size:medium;line-height:normal;font-family:sans-serif;font-variant-ligatures:normal;font-variant-position:normal;font-variant-caps:normal;font-variant-numeric:normal;font-variant-alternates:normal;font-feature-settings:normal;text-indent:0;text-align:start;text-decoration:none;text-decoration-line:none;text-decoration-style:solid;text-decoration-color:#000000;letter-spacing:normal;word-spacing:normal;text-transform:none;writing-mode:lr-tb;direction:ltr;text-orientation:mixed;dominant-baseline:auto;baseline-shift:baseline;text-anchor:start;white-space:normal;shape-padding:0;clip-rule:nonzero;display:inline;overflow:visible;visibility:visible;opacity:1;isolation:auto;mix-blend-mode:normal;color-interpolation:sRGB;color-interpolation-filters:linearRGB;solid-color:#000000;solid-opacity:1;vector-effect:none;fill:#000000;fill-opacity:1;fill-rule:nonzero;stroke:none;stroke-width:0.96295637;stroke-linecap:round;stroke-linejoin:round;stroke-miterlimit:10;stroke-dasharray:none;stroke-dashoffset:0;stroke-opacity:1;color-rendering:auto;image-rendering:auto;shape-rendering:auto;text-rendering:auto;enable-background:accumulate"
     d="M 6.7759444,1.0000586 C 3.5035442,1.0912561 0.91398861,3.8268706 1.0000872,7.0994091 v 9.3418059 c -0.0834509,3.171899 2.3644611,5.787595 5.4937412,6.031642 v 4.045545 a 0.48152632,0.48152632 0 0 0 0.8313021,0.331017 l 4.0831605,-4.310735 h 9.802595 a 0.48152632,0.48152632 0 0 0 0.01317,0 c 3.2724,-0.0912 5.861955,-2.824932 5.775857,-6.097469 V 7.0975283 C 27.075566,3.8293341 24.491567,1.1008568 21.224052,1.0000586 a 0.48152632,0.48152632 0 0 0 -0.01505,0 H 6.7891099 a 0.48152632,0.48152632 0 0 0 -0.013165,0 z M 6.8041564,1.963015 H 21.193959 c 2.749961,0.084833 4.906665,2.3614117 4.842994,5.1119439 a 0.48152632,0.48152632 0 0 0 0,0.011285 V 16.45438 a 0.48152632,0.48152632 0 0 0 0,0.01128 c 0.07236,2.750132 -2.082855,5.029111 -4.83171,5.110064 H 11.199526 a 0.48152632,0.48152632 0 0 0 -0.347944,0.150462 L 7.4567847,25.309064 V 22.057206 A 0.48152632,0.48152632 0 0 0 6.9753065,21.575728 H 6.796633 C 4.0477786,21.494773 1.8906892,19.215796 1.9630435,16.465664 a 0.48152632,0.48152632 0 0 0 0,-0.01128 V 7.0862436 a 0.48152632,0.48152632 0 0 0 0,-0.013165 C 1.8906182,4.3202497 4.0514436,2.0397294 6.8041564,1.963015 Z M 14.12601,5.7734633 a 3.285607,3.285607 0 0 0 -1.57797,0.3893202 4.0838978,4.0838978 0 0 0 -1.267641,1.0870875 0.59703293,0.59703293 0 0 0 -0.131655,0.3347777 0.45355244,0.45355244 0 0 0 0.236978,0.3893203 0.31199785,0.31199785 0 0 0 0.238859,0.084635 0.53829259,0.53829259 0 0 0 0.394962,-0.1918389 2.7723513,2.7723513 0 0 1 0.949791,-0.8369446 2.5229456,2.5229456 0 0 1 1.188649,-0.3065661 2.1079114,2.1079114 0 0 1 1.162318,0.3347778 2.1733925,2.1733925 0 0 1 0.818137,0.891487 2.5845748,2.5845748 0 0 1 0.317851,1.3108995 2.4016131,2.4016131 0 0 1 -0.712813,1.7848543 2.7607958,2.7607958 0 0 1 -1.79614,0.780522 0.3948121,0.3948121 0 0 0 -0.344182,0.139177 0.60666249,0.60666249 0 0 0 -0.131654,0.362989 v 1.952244 a 0.42755262,0.42755262 0 0 0 0.105324,0.361108 0.53925555,0.53925555 0 0 0 0.344181,0.139177 0.48725591,0.48725591 0 0 0 0.344182,-0.139177 0.60666249,0.60666249 0 0 0 0.131654,-0.361108 v -1.617466 a 3.1575338,3.1575338 0 0 0 1.530951,-0.58492 3.7208633,3.7208633 0 0 0 1.083326,-1.252597 3.3703472,3.3703472 0 0 0 0.394962,-1.5892534 3.7719,3.7719 0 0 0 -0.447625,-1.8393971 3.0410161,3.0410161 0 0 0 -1.188649,-1.2281454 3.0073127,3.0073127 0 0 0 -1.611823,-0.3949626 3.285607,3.285607 0 0 0 -0.03197,0 z M 13.88339,16.232448 a 0.54214442,0.54214442 0 0 0 -0.385559,0.16927 0.82910541,0.82910541 0 0 0 -0.133535,0.473955 v 0.361109 a 0.62977345,0.62977345 0 0 0 0.133535,0.473955 0.54214442,0.54214442 0 0 0 0.421293,0.167388 h 0.107204 a 0.52288529,0.52288529 0 0 0 0.394964,-0.167388 0.82910541,0.82910541 0 0 0 0.131653,-0.473955 v -0.361109 a 0.62881049,0.62881049 0 0 0 -0.131653,-0.473955 v -0.0038 A 0.52288529,0.52288529 0 0 0 14.026328,16.23429 h -0.107204 a 0.54214442,0.54214442 0 0 0 -0.03573,-0.0019 z"
     id="Tracé_36"
     inkscape:connector-curvature="0" />
</svg>
