<?xml version="1.0" encoding="UTF-8" standalone="no"?>
<svg
   xmlns:dc="http://purl.org/dc/elements/1.1/"
   xmlns:cc="http://creativecommons.org/ns#"
   xmlns:rdf="http://www.w3.org/1999/02/22-rdf-syntax-ns#"
   xmlns:svg="http://www.w3.org/2000/svg"
   xmlns="http://www.w3.org/2000/svg"
   xmlns:sodipodi="http://sodipodi.sourceforge.net/DTD/sodipodi-0.dtd"
   xmlns:inkscape="http://www.inkscape.org/namespaces/inkscape"
   width="28"
   height="28"
   viewBox="0 0 28 28.000001"
   version="1.1"
   id="svg6"
   sodipodi:docname="Alerte.svg"
   inkscape:version="0.92.3 (2405546, 2018-03-11)">
  <metadata
     id="metadata12">
    <rdf:RDF>
      <cc:Work
         rdf:about="">
        <dc:format>image/svg+xml</dc:format>
        <dc:type
           rdf:resource="http://purl.org/dc/dcmitype/StillImage" />
        <dc:title></dc:title>
      </cc:Work>
    </rdf:RDF>
  </metadata>
  <defs
     id="defs10" />
  <sodipodi:namedview
     pagecolor="#ffffff"
     bordercolor="#666666"
     borderopacity="1"
     objecttolerance="10"
     gridtolerance="10"
     guidetolerance="10"
     inkscape:pageopacity="0"
     inkscape:pageshadow="2"
     inkscape:window-width="1262"
     inkscape:window-height="1010"
     id="namedview8"
     showgrid="false"
     inkscape:zoom="9.406888"
     inkscape:cx="-8.631652"
     inkscape:cy="12.544"
     inkscape:window-x="7"
     inkscape:window-y="2"
     inkscape:window-maximized="0"
     inkscape:current-layer="svg6" />
  <path
     id="Stroke_3_Copy"
     style="color:#000000;font-style:normal;font-variant:normal;font-weight:normal;font-stretch:normal;font-size:medium;line-height:normal;font-family:sans-serif;font-variant-ligatures:normal;font-variant-position:normal;font-variant-caps:normal;font-variant-numeric:normal;font-variant-alternates:normal;font-feature-settings:normal;text-indent:0;text-align:start;text-decoration:none;text-decoration-line:none;text-decoration-style:solid;text-decoration-color:#000000;letter-spacing:normal;word-spacing:normal;text-transform:none;writing-mode:lr-tb;direction:ltr;text-orientation:mixed;dominant-baseline:auto;baseline-shift:baseline;text-anchor:start;white-space:normal;shape-padding:0;clip-rule:nonzero;display:inline;overflow:visible;visibility:visible;opacity:1;isolation:auto;mix-blend-mode:normal;color-interpolation:sRGB;color-interpolation-filters:linearRGB;solid-color:#000000;solid-opacity:1;vector-effect:none;fill:#000000;fill-opacity:1;fill-rule:nonzero;stroke:none;stroke-width:0.97494054;stroke-linecap:round;stroke-linejoin:round;stroke-miterlimit:10;stroke-dasharray:none;stroke-dashoffset:0;stroke-opacity:1;color-rendering:auto;image-rendering:auto;shape-rendering:auto;text-rendering:auto;enable-background:accumulate"
     d="m 14.087626,19.75808 a 0.48751903,0.48751903 0 0 0 -0.479854,0.495088 v 0.780713 a 0.48751903,0.48751903 0 1 0 0.974941,0 V 20.253168 A 0.48751903,0.48751903 0 0 0 14.087626,19.75808 Z m 0,-10.1759423 a 0.48751903,0.48751903 0 0 0 -0.479854,0.4950873 v 6.262851 a 0.48751903,0.48751903 0 1 0 0.974941,0 V 10.077225 A 0.48751903,0.48751903 0 0 0 14.087626,9.5821377 Z m -0.08759,-6.8607633 c 0.708671,0 1.416225,0.3634274 1.816588,1.0910956 l 9.977903,18.485787 c 0.723026,1.368658 -0.257413,2.969161 -1.805162,2.947673 a 0.48751903,0.48751903 0 0 0 -0.0058,0 H 4.0183188 a 0.48751903,0.48751903 0 0 0 -0.00761,0 C 2.4637224,25.26862 1.4842408,23.6705 2.2036388,22.302066 L 12.181545,3.81247 l 0.0019,-0.00381 c 0.400746,-0.725079 1.109178,-1.0872856 1.816589,-1.0872856 z m 0,-0.9425695 c -1.049366,0 -2.098403,0.5215975 -2.671566,1.5633325 a 0.48751903,0.48751903 0 0 0 -0.0019,0.00381 L 1.344849,21.83935 a 0.48751903,0.48751903 0 0 0 -0.0019,0.0038 c -1.04857001,1.984839 0.4384421,4.410643 2.6829906,4.377713 H 23.976037 c 2.243562,0.03115 3.729158,-2.393755 2.681087,-4.377713 a 0.48751903,0.48751903 0 0 0 -0.002,-0.0038 L 16.673503,3.3459457 a 0.48751903,0.48751903 0 0 0 -0.002,-0.00381 C 16.098435,2.3004024 15.049398,1.7788049 14.000034,1.7788049 Z"
     inkscape:connector-curvature="0" />
</svg>
