<?xml version="1.0" encoding="UTF-8" standalone="no"?>
<svg
   xmlns:dc="http://purl.org/dc/elements/1.1/"
   xmlns:cc="http://creativecommons.org/ns#"
   xmlns:rdf="http://www.w3.org/1999/02/22-rdf-syntax-ns#"
   xmlns:svg="http://www.w3.org/2000/svg"
   xmlns="http://www.w3.org/2000/svg"
   xmlns:sodipodi="http://sodipodi.sourceforge.net/DTD/sodipodi-0.dtd"
   xmlns:inkscape="http://www.inkscape.org/namespaces/inkscape"
   width="28"
   height="28"
   viewBox="0 0 27.999999 28.000001"
   version="1.1"
   id="svg7"
   sodipodi:docname="Alertes.svg"
   inkscape:version="0.92.3 (2405546, 2018-03-11)">
  <metadata
     id="metadata13">
    <rdf:RDF>
      <cc:Work
         rdf:about="">
        <dc:format>image/svg+xml</dc:format>
        <dc:type
           rdf:resource="http://purl.org/dc/dcmitype/StillImage" />
        <dc:title></dc:title>
      </cc:Work>
    </rdf:RDF>
  </metadata>
  <defs
     id="defs11" />
  <sodipodi:namedview
     pagecolor="#ffffff"
     bordercolor="#666666"
     borderopacity="1"
     objecttolerance="10"
     gridtolerance="10"
     guidetolerance="10"
     inkscape:pageopacity="0"
     inkscape:pageshadow="2"
     inkscape:window-width="1869"
     inkscape:window-height="1025"
     id="namedview9"
     showgrid="false"
     inkscape:zoom="6.1756052"
     inkscape:cx="-20.17049"
     inkscape:cy="3.2147736"
     inkscape:window-x="1971"
     inkscape:window-y="27"
     inkscape:window-maximized="1"
     inkscape:current-layer="svg7" />
  <path
     style="color:#000000;font-style:normal;font-variant:normal;font-weight:normal;font-stretch:normal;font-size:medium;line-height:normal;font-family:sans-serif;font-variant-ligatures:normal;font-variant-position:normal;font-variant-caps:normal;font-variant-numeric:normal;font-variant-alternates:normal;font-feature-settings:normal;text-indent:0;text-align:start;text-decoration:none;text-decoration-line:none;text-decoration-style:solid;text-decoration-color:#000000;letter-spacing:normal;word-spacing:normal;text-transform:none;writing-mode:lr-tb;direction:ltr;text-orientation:mixed;dominant-baseline:auto;baseline-shift:baseline;text-anchor:start;white-space:normal;shape-padding:0;clip-rule:nonzero;display:inline;overflow:visible;visibility:visible;opacity:1;isolation:auto;mix-blend-mode:normal;color-interpolation:sRGB;color-interpolation-filters:linearRGB;solid-color:#000000;solid-opacity:1;vector-effect:none;fill:#000000;fill-opacity:1;fill-rule:nonzero;stroke:none;stroke-width:0.96229762;stroke-linecap:round;stroke-linejoin:round;stroke-miterlimit:10;stroke-dasharray:none;stroke-dashoffset:0;stroke-opacity:1;color-rendering:auto;image-rendering:auto;shape-rendering:auto;text-rendering:auto;enable-background:accumulate"
     d="m 20.016807,1.0044336 c -1.027281,0.05998 -1.974449,0.7178267 -2.34748,1.7404055 a 0.48119693,0.48119693 0 0 0 0,0.00188 L 17.231406,3.9646266 C 16.713711,3.9158241 16.197785,3.8921856 15.686467,3.9195189 11.578747,4.1391041 7.7983395,6.7595649 6.3059448,10.864226 L 3.700975,18.030712 1.8628363,17.363494 A 0.48119693,0.48119693 0 0 0 1.6748875,17.333424 0.48119693,0.48119693 0 0 0 1.5358054,18.26941 l 12.3519926,4.480697 c -0.305728,0.933245 -0.216106,1.816554 0.159757,2.512876 0.392173,0.726536 1.058768,1.249559 1.808066,1.522384 0.749299,0.272826 1.595012,0.300523 2.362517,-0.0037 0.73747,-0.29238 1.376836,-0.913474 1.742285,-1.828742 l 5.131001,1.860694 a 0.48188696,0.48188696 0 0 0 0.32891,-0.905913 l -1.866332,-0.676616 2.60685,-7.170245 a 0.48119693,0.48119693 0 0 0 0,-0.0019 c 1.66589,-4.61467 -0.09277,-9.6310142 -3.9582,-12.2899699 l 0.445437,-1.2310957 a 0.48119693,0.48119693 0 0 0 0,-0.00188 C 23.132931,3.1680734 22.419602,1.6521685 21.056164,1.1547927 a 0.48119693,0.48119693 0 0 0 -0.0037,-0.00188 C 20.710426,1.0316808 20.359234,0.98444033 20.016807,1.0044336 Z m 0.04886,0.9604182 c 0.217891,-0.012029 0.441775,0.018219 0.661579,0.095854 h 0.0019 c 0.875064,0.3216929 1.322871,1.2746107 1.011163,2.1538928 l -0.37403,1.0355976 C 20.878837,4.9783563 20.37186,4.7309137 19.830738,4.5341113 19.292574,4.3397785 18.74809,4.2052342 18.203102,4.1018292 l 0.370258,-1.0262003 0.0019,-0.00188 c 0.240722,-0.6565197 0.836772,-1.0728117 1.490443,-1.1088981 z m -3.394352,2.9094469 c 0.942641,0.043396 1.895544,0.228315 2.830508,0.5657257 h 0.0019 c 4.983368,1.8134024 7.553826,7.3054716 5.753085,12.2937286 L 22.651848,24.892721 4.6050086,18.353984 7.2099784,11.193137 C 8.5692845,7.4545195 11.99911,5.0747572 15.733454,4.8780576 c 0.311045,-0.016384 0.623651,-0.018224 0.937865,-0.00376 z m -1.881367,18.2028373 4.266437,1.546818 c -0.276684,0.678707 -0.700155,1.067434 -1.193475,1.263016 -0.520731,0.206451 -1.130022,0.194063 -1.678383,-0.0056 -0.548359,-0.199694 -1.023249,-0.582164 -1.289328,-1.075099 -0.251398,-0.465737 -0.32747,-1.034023 -0.105251,-1.729128 z"
     id="Tracé_53"
     inkscape:connector-curvature="0" />
</svg>
