<?xml version="1.0" encoding="UTF-8" standalone="no"?>
<svg
   xmlns:dc="http://purl.org/dc/elements/1.1/"
   xmlns:cc="http://creativecommons.org/ns#"
   xmlns:rdf="http://www.w3.org/1999/02/22-rdf-syntax-ns#"
   xmlns:svg="http://www.w3.org/2000/svg"
   xmlns="http://www.w3.org/2000/svg"
   xmlns:sodipodi="http://sodipodi.sourceforge.net/DTD/sodipodi-0.dtd"
   xmlns:inkscape="http://www.inkscape.org/namespaces/inkscape"
   id="Icone_L_Alertes_budget"
   data-name="Icone/L/Alertes budget"
   width="28"
   height="28"
   viewBox="0 0 28 28"
   version="1.1"
   sodipodi:docname="alertes-2.svg"
   inkscape:version="0.92.3 (2405546, 2018-03-11)">
  <metadata
     id="metadata17">
    <rdf:RDF>
      <cc:Work
         rdf:about="">
        <dc:format>image/svg+xml</dc:format>
        <dc:type
           rdf:resource="http://purl.org/dc/dcmitype/StillImage" />
        <dc:title></dc:title>
      </cc:Work>
    </rdf:RDF>
  </metadata>
  <defs
     id="defs15" />
  <sodipodi:namedview
     pagecolor="#ffffff"
     bordercolor="#666666"
     borderopacity="1"
     objecttolerance="10"
     gridtolerance="10"
     guidetolerance="10"
     inkscape:pageopacity="0"
     inkscape:pageshadow="2"
     inkscape:window-width="1920"
     inkscape:window-height="1052"
     id="namedview13"
     showgrid="false"
     inkscape:zoom="23.8396"
     inkscape:cx="17.783098"
     inkscape:cy="15.845932"
     inkscape:window-x="0"
     inkscape:window-y="0"
     inkscape:window-maximized="1"
     inkscape:current-layer="Icone_L_Alertes_budget" />
  <path
     style="color:#000000;font-style:normal;font-variant:normal;font-weight:normal;font-stretch:normal;font-size:medium;line-height:normal;font-family:sans-serif;font-variant-ligatures:normal;font-variant-position:normal;font-variant-caps:normal;font-variant-numeric:normal;font-variant-alternates:normal;font-feature-settings:normal;text-indent:0;text-align:start;text-decoration:none;text-decoration-line:none;text-decoration-style:solid;text-decoration-color:#000000;letter-spacing:normal;word-spacing:normal;text-transform:none;writing-mode:lr-tb;direction:ltr;text-orientation:mixed;dominant-baseline:auto;baseline-shift:baseline;text-anchor:start;white-space:normal;shape-padding:0;clip-rule:nonzero;display:inline;overflow:visible;visibility:visible;opacity:1;isolation:auto;mix-blend-mode:normal;color-interpolation:sRGB;color-interpolation-filters:linearRGB;solid-color:#000000;solid-opacity:1;vector-effect:none;fill:#000000;fill-opacity:1;fill-rule:nonzero;stroke:none;stroke-width:0.95947897;stroke-linecap:round;stroke-linejoin:round;stroke-miterlimit:4;stroke-dasharray:none;stroke-dashoffset:0;stroke-opacity:1;color-rendering:auto;image-rendering:auto;shape-rendering:auto;text-rendering:auto;enable-background:accumulate"
     d="M 15.939414,1.007815 C 14.758843,0.90720855 13.709025,1.7911988 13.60818,2.9717485 l -0.0862,0.9388651 C 9.7198976,4.542618 6.6681916,7.6732665 6.3183887,11.687641 L 5.4113811,22.024527 2.3455461,21.756548 a 0.47978746,0.47978746 0 0 0 -0.04685,-0.0019 0.47978746,0.47978746 0 0 0 -0.035606,0.957605 l 3.4949772,0.30546 a 0.47978746,0.47978746 0 0 0 0.048724,0.0075 l 3.8585297,0.335444 5.312739,0.464746 c -0.04101,0.886448 0.235714,1.648572 0.725232,2.181316 0.540491,0.588218 1.291729,0.912684 2.059506,0.980093 0.767777,0.06741 1.565336,-0.122133 2.200056,-0.60717 0.575071,-0.439455 0.980622,-1.141546 1.094406,-2.022027 l 4.583761,0.401032 a 0.47978746,0.47978746 0 1 0 0.08245,-0.955731 L 22.65951,23.534936 23.564643,13.183058 C 23.909708,9.171046 21.446645,5.5645523 17.813396,4.2854101 L 17.895846,3.340923 C 18.000183,2.1620474 17.118426,1.1105492 15.939409,1.007815 Z m -0.08245,0.9557309 c 0.661973,0.057681 1.141742,0.6311534 1.083161,1.2930479 l -0.06559,0.7570889 C 16.489955,3.9258149 16.097876,3.8539863 15.693922,3.8187885 15.288769,3.7833096 14.889709,3.7855896 14.494573,3.8056706 l 0.06934,-0.747719 a 0.47978746,0.47978746 0 0 0 0,-0.00375 C 14.620626,2.390245 15.192989,1.9069635 15.856959,1.9635459 Z M 7.0623596,2.5538504 A 0.47978746,0.47978746 0 0 0 6.8505995,2.6194398 C 5.8113264,3.2056883 5.0002139,4.1251362 4.5493493,5.2298972 A 0.47989317,0.47989317 0 1 0 5.4376169,5.5934498 C 5.8068458,4.6887225 6.4698722,3.9353351 7.3209691,3.455236 a 0.47978746,0.47978746 0 0 0 -0.209886,-0.9013856 0.47978746,0.47978746 0 0 0 -0.048724,0 z M 23.309786,2.9511347 a 0.47978746,0.47978746 0 0 0 -0.23987,0.9013854 c 0.950686,0.5332937 1.693428,1.3719182 2.108231,2.3799577 A 0.47978746,0.47978746 0 1 0 26.064541,5.8670512 C 25.567587,4.6593711 24.67738,3.6556356 23.538412,3.0167241 A 0.47978746,0.47978746 0 0 0 23.309786,2.9511347 Z M 9.3486181,3.340923 A 0.47978746,0.47978746 0 0 0 9.1762117,3.378403 C 7.3177311,4.1446094 5.9170032,5.7288401 5.3870193,7.6679483 A 0.47984658,0.47984658 0 0 0 6.3127667,7.9209359 C 6.7646102,6.267728 7.9571701,4.9180342 9.5416383,4.2647964 A 0.47978746,0.47978746 0 0 0 9.3486181,3.340923 Z M 21.134093,3.8618901 a 0.47978746,0.47978746 0 0 0 -0.178029,0.9276213 c 1.585087,0.6529172 2.7784,2.0026023 3.230746,3.6561395 A 0.47978746,0.47978746 0 1 0 25.110683,8.1907893 C 24.580124,6.2513448 23.18065,4.6670546 21.321491,3.9012437 a 0.47978746,0.47978746 0 0 0 -0.187398,-0.039354 z m -6.313447,0.8826457 c 0.260294,-0.00354 0.523943,0.00678 0.788947,0.029984 4.236621,0.3691498 7.363735,4.0890714 6.999324,8.3261042 L 21.703783,23.441258 6.7925062,22.146336 6.3671121,22.108857 7.2741196,11.77197 a 0.47978746,0.47978746 0 0 0 0,-0.0019 C 7.6205099,7.7949293 10.916245,4.7976267 14.820646,4.7445358 Z m 1.109398,19.1633442 4.175232,0.365426 c -0.08578,0.631001 -0.353334,1.059452 -0.725231,1.343646 -0.418416,0.319742 -0.97992,0.460827 -1.532917,0.412276 -0.552998,-0.04855 -1.081046,-0.284998 -1.437345,-0.672759 -0.316465,-0.344412 -0.504919,-0.81288 -0.479739,-1.448589 z"
     id="Tracé_259"
     inkscape:connector-curvature="0" />
</svg>
