<?xml version="1.0" encoding="UTF-8" standalone="no"?>
<svg
   xmlns:dc="http://purl.org/dc/elements/1.1/"
   xmlns:cc="http://creativecommons.org/ns#"
   xmlns:rdf="http://www.w3.org/1999/02/22-rdf-syntax-ns#"
   xmlns:svg="http://www.w3.org/2000/svg"
   xmlns="http://www.w3.org/2000/svg"
   xmlns:sodipodi="http://sodipodi.sourceforge.net/DTD/sodipodi-0.dtd"
   xmlns:inkscape="http://www.inkscape.org/namespaces/inkscape"
   id="Icone_L_Idée_ampoule"
   data-name="Icone/L/Idée ampoule"
   width="28"
   height="28"
   viewBox="0 0 28 28"
   version="1.1"
   sodipodi:docname="ampoule.svg"
   inkscape:version="0.92.3 (2405546, 2018-03-11)">
  <metadata
     id="metadata16">
    <rdf:RDF>
      <cc:Work
         rdf:about="">
        <dc:format>image/svg+xml</dc:format>
        <dc:type
           rdf:resource="http://purl.org/dc/dcmitype/StillImage" />
        <dc:title></dc:title>
      </cc:Work>
    </rdf:RDF>
  </metadata>
  <defs
     id="defs14" />
  <sodipodi:namedview
     pagecolor="#ffffff"
     bordercolor="#666666"
     borderopacity="1"
     objecttolerance="10"
     gridtolerance="10"
     guidetolerance="10"
     inkscape:pageopacity="0"
     inkscape:pageshadow="2"
     inkscape:window-width="1920"
     inkscape:window-height="1052"
     id="namedview12"
     showgrid="false"
     inkscape:zoom="8.4285714"
     inkscape:cx="14"
     inkscape:cy="14"
     inkscape:window-x="0"
     inkscape:window-y="0"
     inkscape:window-maximized="1"
     inkscape:current-layer="Icone_L_Idée_ampoule" />
  <path
     style="color:#000000;font-style:normal;font-variant:normal;font-weight:normal;font-stretch:normal;font-size:medium;line-height:normal;font-family:sans-serif;font-variant-ligatures:normal;font-variant-position:normal;font-variant-caps:normal;font-variant-numeric:normal;font-variant-alternates:normal;font-feature-settings:normal;text-indent:0;text-align:start;text-decoration:none;text-decoration-line:none;text-decoration-style:solid;text-decoration-color:#000000;letter-spacing:normal;word-spacing:normal;text-transform:none;writing-mode:lr-tb;direction:ltr;text-orientation:mixed;dominant-baseline:auto;baseline-shift:baseline;text-anchor:start;white-space:normal;shape-padding:0;clip-rule:nonzero;display:inline;overflow:visible;visibility:visible;opacity:1;isolation:auto;mix-blend-mode:normal;color-interpolation:sRGB;color-interpolation-filters:linearRGB;solid-color:#000000;solid-opacity:1;vector-effect:none;fill:#000000;fill-opacity:1;fill-rule:nonzero;stroke:none;stroke-width:0.96268207;stroke-linecap:round;stroke-linejoin:round;stroke-miterlimit:4;stroke-dasharray:none;stroke-dashoffset:0;stroke-opacity:1;color-rendering:auto;image-rendering:auto;shape-rendering:auto;text-rendering:auto;enable-background:accumulate"
     d="m 13.714079,1.0000054 a 0.48138918,0.48138918 0 0 0 -0.47382,0.488862 v 2.735747 a 0.48138918,0.48138918 0 1 0 0.962682,0 V 1.4888674 A 0.48138918,0.48138918 0 0 0 13.714079,1.0000054 Z M 6.604898,3.5533692 A 0.48138918,0.48138918 0 0 0 6.2702156,4.3806741 L 8.0564421,6.1669007 A 0.48138918,0.48138918 0 1 0 8.7370884,5.4862545 L 6.9508618,3.7000279 A 0.48138918,0.48138918 0 0 0 6.604898,3.5533692 Z m 14.774914,0 A 0.48138918,0.48138918 0 0 0 21.04889,3.7000279 l -1.786227,1.7862266 a 0.48138918,0.48138918 0 1 0 0.680646,0.6806462 L 21.729536,4.3806741 A 0.48138918,0.48138918 0 0 0 21.379812,3.5533692 Z M 13.589983,6.6839663 C 13.110584,6.695498 12.623028,6.7633197 12.134679,6.894553 8.2278881,7.9444191 6.3695608,12.44222 8.394885,15.944141 a 0.48138918,0.48138918 0 0 0 0.00376,0.0075 c 1.1090089,1.830956 1.868968,3.852012 2.239363,5.960356 0.08723,0.521874 0.113315,0.834247 0.377929,1.131903 0.132702,0.149274 0.3354,0.239144 0.492623,0.266995 0.157221,0.02785 0.285539,0.02256 0.426814,0.02256 h 3.602537 c 0.139828,0 0.268034,0.0053 0.424934,-0.02256 0.156899,-0.02788 0.357835,-0.116556 0.490741,-0.265114 0.265812,-0.297117 0.293682,-0.611977 0.381688,-1.137544 0.364415,-2.107783 1.12394,-4.128337 2.237483,-5.954715 a 0.48138918,0.48138918 0 0 0 0.0056,-0.01316 0.48138918,0.48138918 0 0 0 0.06393,-0.238791 c 0.458629,-0.885256 0.758683,-1.849217 0.765256,-2.848561 a 0.48138918,0.48138918 0 0 0 0,-0.0038 C 19.905394,9.8152117 17.731065,7.3927617 14.996402,6.8137028 14.540624,6.7171929 14.069383,6.6724346 13.589983,6.6839663 Z m 0.03008,0.9589216 c 0.406368,-0.011043 0.805013,0.026729 1.190191,0.1071736 2.31107,0.4826708 4.132822,2.5236045 4.134645,5.1010865 -0.0066,0.916959 -0.249396,1.816673 -0.70321,2.613532 a 0.48138918,0.48138918 0 0 0 -0.03008,0.06581 c -1.15219,1.910912 -1.94609,4.016701 -2.325854,6.216068 a 0.48138918,0.48138918 0 0 0 0,0.0038 c -0.07831,0.467673 -0.160303,0.626291 -0.141018,0.614838 -0.0397,0.0033 -0.09374,0.0056 -0.206826,0.0056 h -3.602537 c -0.113627,0 -0.168333,-0.0023 -0.208707,-0.0056 0.02016,0.01244 -0.06069,-0.146367 -0.139137,-0.614838 a 0.48138918,0.48138918 0 0 0 -0.0019,-0.0038 C 11.195292,19.524327 10.395551,17.393309 9.2278306,15.4628 7.507286,12.487863 9.0658711,8.7171486 12.384751,7.825271 12.799611,7.7137864 13.2137,7.6539304 13.620067,7.6428879 Z m -1.49667,6.5319481 a 0.48138918,0.48138918 0 0 0 -0.336562,0.825425 l 1.682813,1.682814 v 3.433315 a 0.48138918,0.48138918 0 1 0 0.962682,0 v -3.542369 l 1.673416,-1.562478 a 0.48138918,0.48138918 0 0 0 -0.32152,-0.836707 0.48138918,0.48138918 0 0 0 -0.334682,0.133497 l -1.549317,1.444023 -1.432742,-1.432741 a 0.48138918,0.48138918 0 0 0 -0.344084,-0.144779 z m -0.515185,9.997229 a 0.48138918,0.48138918 0 0 0 -0.304598,0.116575 0.48138918,0.48138918 0 0 0 -0.0188,0.01504 0.48138918,0.48138918 0 0 0 -0.01692,0.01692 0.48138918,0.48138918 0 0 0 -0.0019,0.0038 0.48138918,0.48138918 0 0 0 -0.03008,0.03196 0.48138918,0.48138918 0 0 0 -0.0019,0.0038 0.48138918,0.48138918 0 0 0 -0.0282,0.03948 0.48138918,0.48138918 0 0 0 -0.07145,0.340324 v 1.013448 a 0.48138918,0.48138918 0 0 0 0,0.0038 c 0.0042,0.679599 0.56324,1.238603 1.242837,1.242838 a 0.48138918,0.48138918 0 0 0 0.0038,0 h 2.651135 a 0.48138918,0.48138918 0 0 0 0.0038,0 c 0.679598,-0.0042 1.240483,-0.563239 1.244718,-1.242838 a 0.48138918,0.48138918 0 0 0 0,-0.0038 v -1.092486 a 0.48138918,0.48138918 0 0 0 -0.481386,-0.481341 h -4.106441 a 0.48138918,0.48138918 0 0 0 -0.08461,-0.0075 z m 0.488862,0.970202 h 3.220849 v 0.607318 c -0.0011,0.163043 -0.123021,0.28587 -0.285797,0.287676 h -2.647375 c -0.163579,-0.0011 -0.286658,-0.124098 -0.287677,-0.287676 z"
     id="Tracé_370"
     inkscape:connector-curvature="0" />
</svg>
