<?xml version="1.0" encoding="UTF-8" standalone="no"?>
<svg
   xmlns:dc="http://purl.org/dc/elements/1.1/"
   xmlns:cc="http://creativecommons.org/ns#"
   xmlns:rdf="http://www.w3.org/1999/02/22-rdf-syntax-ns#"
   xmlns:svg="http://www.w3.org/2000/svg"
   xmlns="http://www.w3.org/2000/svg"
   xmlns:sodipodi="http://sodipodi.sourceforge.net/DTD/sodipodi-0.dtd"
   xmlns:inkscape="http://www.inkscape.org/namespaces/inkscape"
   id="Icone_L_Assurances"
   data-name="Icone/L/Assurances"
   width="28"
   height="28"
   viewBox="0 0 28 28"
   version="1.1"
   sodipodi:docname="assurances.svg"
   inkscape:version="0.92.3 (2405546, 2018-03-11)">
  <metadata
     id="metadata15">
    <rdf:RDF>
      <cc:Work
         rdf:about="">
        <dc:format>image/svg+xml</dc:format>
        <dc:type
           rdf:resource="http://purl.org/dc/dcmitype/StillImage" />
        <dc:title></dc:title>
      </cc:Work>
    </rdf:RDF>
  </metadata>
  <defs
     id="defs13" />
  <sodipodi:namedview
     pagecolor="#ffffff"
     bordercolor="#666666"
     borderopacity="1"
     objecttolerance="10"
     gridtolerance="10"
     guidetolerance="10"
     inkscape:pageopacity="0"
     inkscape:pageshadow="2"
     inkscape:window-width="1920"
     inkscape:window-height="1052"
     id="namedview11"
     showgrid="false"
     inkscape:zoom="23.8396"
     inkscape:cx="19.240674"
     inkscape:cy="11.335086"
     inkscape:window-x="0"
     inkscape:window-y="0"
     inkscape:window-maximized="1"
     inkscape:current-layer="Icone_L_Assurances" />
  <path
     style="color:#000000;font-style:normal;font-variant:normal;font-weight:normal;font-stretch:normal;font-size:medium;line-height:normal;font-family:sans-serif;font-variant-ligatures:normal;font-variant-position:normal;font-variant-caps:normal;font-variant-numeric:normal;font-variant-alternates:normal;font-feature-settings:normal;text-indent:0;text-align:start;text-decoration:none;text-decoration-line:none;text-decoration-style:solid;text-decoration-color:#000000;letter-spacing:normal;word-spacing:normal;text-transform:none;writing-mode:lr-tb;direction:ltr;text-orientation:mixed;dominant-baseline:auto;baseline-shift:baseline;text-anchor:start;white-space:normal;shape-padding:0;clip-rule:nonzero;display:inline;overflow:visible;visibility:visible;opacity:1;isolation:auto;mix-blend-mode:normal;color-interpolation:sRGB;color-interpolation-filters:linearRGB;solid-color:#000000;solid-opacity:1;vector-effect:none;fill:#000000;fill-opacity:1;fill-rule:nonzero;stroke:none;stroke-width:1.00323808;stroke-linecap:round;stroke-linejoin:round;stroke-miterlimit:10;stroke-dasharray:none;stroke-dashoffset:0;stroke-opacity:1;color-rendering:auto;image-rendering:auto;shape-rendering:auto;text-rendering:auto;enable-background:accumulate"
     d="M 13.992172,1.0000708 A 0.50166922,0.50166922 0 0 0 13.49839,1.5095277 V 2.910534 C 6.7769129,3.1765019 1.3948711,8.7041527 1.3948711,15.4902 a 0.50166922,0.50166922 0 0 0 0.5016191,0.501619 H 13.288729 v 8.654888 c -0.0039,0.749881 -0.600179,1.346194 -1.35006,1.350061 -0.750539,-0.0039 -1.34723,-0.601214 -1.350061,-1.35202 a 0.50166922,0.50166922 0 1 0 -1.0032382,0.0039 c 0.00487,1.290974 1.0603642,2.346471 2.3513392,2.351339 a 0.50166922,0.50166922 0 0 0 0.0039,0 c 1.290976,-0.0049 2.346472,-1.060365 2.351339,-2.351339 a 0.50166922,0.50166922 0 0 0 0,-0.002 V 15.99176 h 5.51781 a 0.50166922,0.50166922 0 0 0 0.317431,0 h 5.976321 a 0.50166922,0.50166922 0 0 0 0.501619,-0.501619 c 0,-6.7860473 -5.382041,-12.3136981 -12.10352,-12.579666 V 1.5095277 A 0.50166922,0.50166922 0 0 0 13.992172,1.0000708 Z m -0.0039,3.0195117 c 3.796271,2.29399 5.94369,6.5537215 5.529566,10.9689985 H 8.4684836 C 8.0712648,10.576253 10.210961,6.32784 13.988253,4.0195825 Z m 1.798774,0.019594 c 5.374899,0.8391778 9.463007,5.3866717 9.712991,10.9494045 h -4.97702 C 20.889084,10.745536 19.083411,6.6362944 15.787027,4.0391769 Z m -3.585792,0.00196 C 8.9164169,6.6456399 7.110324,10.746669 7.4613265,14.988581 H 2.5000007 C 2.7498021,9.4299086 6.8321445,4.8851277 12.201235,4.0411363 Z"
     id="Tracé_15"
     inkscape:connector-curvature="0" />
</svg>
