<?xml version="1.0" encoding="UTF-8" standalone="no"?>
<svg
   xmlns:dc="http://purl.org/dc/elements/1.1/"
   xmlns:cc="http://creativecommons.org/ns#"
   xmlns:rdf="http://www.w3.org/1999/02/22-rdf-syntax-ns#"
   xmlns:svg="http://www.w3.org/2000/svg"
   xmlns="http://www.w3.org/2000/svg"
   xmlns:sodipodi="http://sodipodi.sourceforge.net/DTD/sodipodi-0.dtd"
   xmlns:inkscape="http://www.inkscape.org/namespaces/inkscape"
   id="Icone_L_Avertissement"
   data-name="Icone/L/Avertissement"
   width="28"
   height="28"
   viewBox="0 0 28 28"
   version="1.1"
   sodipodi:docname="avertissement.svg"
   inkscape:version="0.92.3 (2405546, 2018-03-11)">
  <metadata
     id="metadata12">
    <rdf:RDF>
      <cc:Work
         rdf:about="">
        <dc:format>image/svg+xml</dc:format>
        <dc:type
           rdf:resource="http://purl.org/dc/dcmitype/StillImage" />
        <dc:title></dc:title>
      </cc:Work>
    </rdf:RDF>
  </metadata>
  <defs
     id="defs10" />
  <sodipodi:namedview
     pagecolor="#ffffff"
     bordercolor="#666666"
     borderopacity="1"
     objecttolerance="10"
     gridtolerance="10"
     guidetolerance="10"
     inkscape:pageopacity="0"
     inkscape:pageshadow="2"
     inkscape:window-width="1920"
     inkscape:window-height="1052"
     id="namedview8"
     showgrid="false"
     inkscape:zoom="16.857143"
     inkscape:cx="14.671349"
     inkscape:cy="10.451104"
     inkscape:window-x="0"
     inkscape:window-y="0"
     inkscape:window-maximized="1"
     inkscape:current-layer="Icone_L_Avertissement" />
  <path
     style="color:#000000;font-style:normal;font-variant:normal;font-weight:normal;font-stretch:normal;font-size:medium;line-height:normal;font-family:sans-serif;font-variant-ligatures:normal;font-variant-position:normal;font-variant-caps:normal;font-variant-numeric:normal;font-variant-alternates:normal;font-feature-settings:normal;text-indent:0;text-align:start;text-decoration:none;text-decoration-line:none;text-decoration-style:solid;text-decoration-color:#000000;letter-spacing:normal;word-spacing:normal;text-transform:none;writing-mode:lr-tb;direction:ltr;text-orientation:mixed;dominant-baseline:auto;baseline-shift:baseline;text-anchor:start;white-space:normal;shape-padding:0;clip-rule:nonzero;display:inline;overflow:visible;visibility:visible;opacity:1;isolation:auto;mix-blend-mode:normal;color-interpolation:sRGB;color-interpolation-filters:linearRGB;solid-color:#000000;solid-opacity:1;vector-effect:none;fill:#000000;fill-opacity:1;fill-rule:nonzero;stroke:none;stroke-width:0.97494042;stroke-linecap:round;stroke-linejoin:round;stroke-miterlimit:10;stroke-dasharray:none;stroke-dashoffset:0;stroke-opacity:1;color-rendering:auto;image-rendering:auto;shape-rendering:auto;text-rendering:auto;enable-background:accumulate"
     d="m 13.998132,1.778803 c -1.049364,0 -2.098401,0.5215975 -2.671565,1.5633323 a 0.48751897,0.48751897 0 0 0 -0.0019,0.00381 L 1.3448526,21.839345 a 0.48751897,0.48751897 0 0 0 -0.0019,0.0038 c -1.04857015,1.984852 0.4384418,4.41065 2.6829901,4.37772 H 23.976038 c 2.243562,0.03115 3.729158,-2.393755 2.681086,-4.377712 a 0.48751897,0.48751897 0 0 0 -0.0038,-0.0038 L 16.673506,3.3459436 a 0.48751897,0.48751897 0 0 0 -0.0019,-0.00381 C 16.098484,2.3004042 15.047498,1.778803 13.998132,1.778803 Z m 0,0.9425694 c 0.708672,0 1.418128,0.3634274 1.818493,1.0910954 l 9.97981,18.4895922 c 0.719033,1.36778 -0.260817,2.965332 -1.807067,2.943864 a 0.48751897,0.48751897 0 0 0 -0.0057,0 H 4.018322 a 0.48751897,0.48751897 0 0 0 -0.00762,0 C 2.4622202,25.268642 1.4821485,23.667565 2.2055421,22.298252 l -0.00381,0.0038 9.9798099,-18.4895922 0.0019,-0.00381 c 0.400705,-0.725067 1.107275,-1.0872871 1.814684,-1.0872871 z m 0.08759,6.8607619 a 0.48751897,0.48751897 0 0 0 -0.479854,0.4950877 v 6.262849 a 0.48751897,0.48751897 0 1 0 0.97494,0 V 10.077222 A 0.48751897,0.48751897 0 0 0 14.085722,9.5821343 Z m 0,10.1759407 a 0.48751897,0.48751897 0 0 0 -0.479854,0.495087 v 0.780714 a 0.48751897,0.48751897 0 1 0 0.97494,0 v -0.780714 a 0.48751897,0.48751897 0 0 0 -0.495083,-0.495087 z"
     id="Stroke_1"
     inkscape:connector-curvature="0" />
</svg>
