<?xml version="1.0" encoding="UTF-8" standalone="no"?>
<svg
   xmlns:dc="http://purl.org/dc/elements/1.1/"
   xmlns:cc="http://creativecommons.org/ns#"
   xmlns:rdf="http://www.w3.org/1999/02/22-rdf-syntax-ns#"
   xmlns:svg="http://www.w3.org/2000/svg"
   xmlns="http://www.w3.org/2000/svg"
   xmlns:sodipodi="http://sodipodi.sourceforge.net/DTD/sodipodi-0.dtd"
   xmlns:inkscape="http://www.inkscape.org/namespaces/inkscape"
   width="28"
   height="28.5"
   viewBox="0 0 28 28.5"
   version="1.1"
   id="svg16"
   sodipodi:docname="banque.svg"
   inkscape:version="0.92.3 (2405546, 2018-03-11)">
  <metadata
     id="metadata22">
    <rdf:RDF>
      <cc:Work
         rdf:about="">
        <dc:format>image/svg+xml</dc:format>
        <dc:type
           rdf:resource="http://purl.org/dc/dcmitype/StillImage" />
        <dc:title></dc:title>
      </cc:Work>
    </rdf:RDF>
  </metadata>
  <defs
     id="defs20" />
  <sodipodi:namedview
     pagecolor="#ffffff"
     bordercolor="#666666"
     borderopacity="1"
     objecttolerance="10"
     gridtolerance="10"
     guidetolerance="10"
     inkscape:pageopacity="0"
     inkscape:pageshadow="2"
     inkscape:window-width="1920"
     inkscape:window-height="1052"
     id="namedview18"
     showgrid="false"
     inkscape:zoom="8.2807018"
     inkscape:cx="14"
     inkscape:cy="14.25"
     inkscape:window-x="0"
     inkscape:window-y="0"
     inkscape:window-maximized="1"
     inkscape:current-layer="svg16" />
  <path
     style="color:#000000;font-style:normal;font-variant:normal;font-weight:normal;font-stretch:normal;font-size:medium;line-height:normal;font-family:sans-serif;font-variant-ligatures:normal;font-variant-position:normal;font-variant-caps:normal;font-variant-numeric:normal;font-variant-alternates:normal;font-feature-settings:normal;text-indent:0;text-align:start;text-decoration:none;text-decoration-line:none;text-decoration-style:solid;text-decoration-color:#000000;letter-spacing:normal;word-spacing:normal;text-transform:none;writing-mode:lr-tb;direction:ltr;text-orientation:mixed;dominant-baseline:auto;baseline-shift:baseline;text-anchor:start;white-space:normal;shape-padding:0;clip-rule:nonzero;display:inline;overflow:visible;visibility:visible;opacity:1;isolation:auto;mix-blend-mode:normal;color-interpolation:sRGB;color-interpolation-filters:linearRGB;solid-color:#000000;solid-opacity:1;vector-effect:none;fill:#000000;fill-opacity:1;fill-rule:nonzero;stroke:none;stroke-width:0.96393561;stroke-linecap:round;stroke-linejoin:round;stroke-miterlimit:10;stroke-dasharray:none;stroke-dashoffset:0;stroke-opacity:1;color-rendering:auto;image-rendering:auto;shape-rendering:auto;text-rendering:auto;enable-background:accumulate"
     d="m 14.016944,2.6925373 a 0.482016,0.482016 0 0 0 -0.284286,0.088486 L 1.8754975,11.153332 a 0.482016,0.482016 0 0 0 0.2786376,0.875449 h 2.9539356 v 7.767965 H 3.9106818 A 0.482016,0.482016 0 0 0 3.428714,20.278714 v 1.999413 H 1.482016 a 0.482016,0.482016 0 0 0 -0.4819678,0.481968 v 2.558571 a 0.482016,0.482016 0 1 0 0.9639356,0 V 23.242062 H 26.036016 v 2.076604 a 0.482016,0.482016 0 1 0 0.963936,0 v -2.558571 a 0.482016,0.482016 0 0 0 -0.481968,-0.481968 h -1.92034 v -1.999413 a 0.482016,0.482016 0 0 0 -0.481968,-0.481968 h -1.197389 v -7.767965 h 2.953935 A 0.482016,0.482016 0 0 0 26.15086,11.153332 L 14.288051,2.7810236 a 0.482016,0.482016 0 0 0 -0.271107,-0.088486 z m -0.0056,1.0712488 10.343482,7.3010589 h -1.829972 a 0.482016,0.482016 0 0 0 -0.09602,-0.0075 0.482016,0.482016 0 0 0 -0.323823,0.133671 0.482016,0.482016 0 0 0 -0.01694,0.01506 0.482016,0.482016 0 0 0 -0.0019,0.0038 0.482016,0.482016 0 0 0 -0.03012,0.03201 0.482016,0.482016 0 0 0 -0.0019,0.0038 0.482016,0.482016 0 0 0 -0.02636,0.03577 0.482016,0.482016 0 0 0 -0.0019,0.0038 0.482016,0.482016 0 0 0 -0.07154,0.340766 v 8.17086 h -1.80173 v -8.172757 a 0.482016,0.482016 0 0 0 -0.0546,-0.30876 0.482016,0.482016 0 0 0 -0.0019,-0.0057 0.482016,0.482016 0 0 0 -0.05272,-0.07531 0.482016,0.482016 0 0 0 -0.0019,-0.0038 0.482016,0.482016 0 0 0 -0.03012,-0.03201 0.482016,0.482016 0 0 0 -0.0038,-0.0019 0.482016,0.482016 0 0 0 -0.03201,-0.03012 0.482016,0.482016 0 0 0 -0.310644,-0.109196 0.482016,0.482016 0 0 0 -0.07154,0.0075 h -4.096726 a 0.482016,0.482016 0 0 0 -0.09602,-0.0075 0.482016,0.482016 0 0 0 -0.321939,0.13367 0.482016,0.482016 0 0 0 -0.01883,0.01506 0.482016,0.482016 0 0 0 -0.0019,0.0038 0.482016,0.482016 0 0 0 -0.03012,0.03201 0.482016,0.482016 0 0 0 -0.0019,0.0038 0.482016,0.482016 0 0 0 -0.02636,0.03577 0.482016,0.482016 0 0 0 -0.0019,0.0038 0.482016,0.482016 0 0 0 -0.07154,0.340767 v 8.17085 h -1.826077 v -8.172743 a 0.482016,0.482016 0 0 0 -0.0546,-0.30876 0.482016,0.482016 0 0 0 -0.0019,-0.0057 0.482016,0.482016 0 0 0 -0.05272,-0.07531 0.482016,0.482016 0 0 0 -0.0019,-0.0038 0.482016,0.482016 0 0 0 -0.03012,-0.03201 0.482016,0.482016 0 0 0 -0.0038,-0.0019 0.482016,0.482016 0 0 0 -0.032,-0.03012 0.482016,0.482016 0 0 0 -0.312527,-0.109196 0.482016,0.482016 0 0 0 -0.07342,0.0075 H 8.4441915 a 0.482016,0.482016 0 0 0 -0.096017,-0.0075 0.482016,0.482016 0 0 0 -0.3049953,0.116726 0.482016,0.482016 0 0 0 -0.016944,0.01694 0.482016,0.482016 0 0 0 -0.018827,0.01506 0.482016,0.482016 0 0 0 -0.00188,0.0038 0.482016,0.482016 0 0 0 -0.030123,0.03201 0.482016,0.482016 0 0 0 -0.00188,0.0038 0.482016,0.482016 0 0 0 -0.026358,0.03577 0.482016,0.482016 0 0 0 -0.00188,0.0038 0.482016,0.482016 0 0 0 -0.071542,0.340767 v 8.17085 H 6.0720063 v -8.172743 a 0.482016,0.482016 0 0 0 -0.054598,-0.30876 0.482016,0.482016 0 0 0 -0.00188,-0.0057 0.482016,0.482016 0 0 0 -0.052715,-0.07531 0.482016,0.482016 0 0 0 -0.00188,-0.0038 0.482016,0.482016 0 0 0 -0.030123,-0.03201 0.482016,0.482016 0 0 0 -0.00377,-0.0019 0.482016,0.482016 0 0 0 -0.032006,-0.03012 0.482016,0.482016 0 0 0 -0.312526,-0.109196 0.482016,0.482016 0 0 0 -0.071542,0.0075 H 3.6715807 Z M 8.8376731,12.028781 H 12.13614 v 7.767965 H 8.8376731 Z m 7.0525449,0 h 3.298467 v 7.767965 H 15.890218 Z M 4.3926496,20.760682 h 1.1201987 a 0.482016,0.482016 0 0 0 0.156263,0 h 2.6094038 a 0.482016,0.482016 0 0 0 0.156263,0 h 4.1061399 a 0.482016,0.482016 0 0 0 0.156263,0 h 2.633879 a 0.482016,0.482016 0 0 0 0.156263,0 h 4.106139 a 0.482016,0.482016 0 0 0 0.156264,0 h 2.609403 a 0.482016,0.482016 0 0 0 0.156263,0 h 1.118316 v 1.517445 H 4.3926496 Z"
     id="Ligne_18"
     inkscape:connector-curvature="0" />
</svg>
