<?xml version="1.0" encoding="UTF-8" standalone="no"?>
<svg
   xmlns:dc="http://purl.org/dc/elements/1.1/"
   xmlns:cc="http://creativecommons.org/ns#"
   xmlns:rdf="http://www.w3.org/1999/02/22-rdf-syntax-ns#"
   xmlns:svg="http://www.w3.org/2000/svg"
   xmlns="http://www.w3.org/2000/svg"
   xmlns:sodipodi="http://sodipodi.sourceforge.net/DTD/sodipodi-0.dtd"
   xmlns:inkscape="http://www.inkscape.org/namespaces/inkscape"
   id="Icone_L_Blocage_de_la_CB"
   data-name="Icone/L/Blocage de la CB"
   width="28"
   height="28"
   viewBox="0 0 28 28"
   version="1.1"
   sodipodi:docname="blocage-cb.svg"
   inkscape:version="0.92.3 (2405546, 2018-03-11)">
  <metadata
     id="metadata18">
    <rdf:RDF>
      <cc:Work
         rdf:about="">
        <dc:format>image/svg+xml</dc:format>
        <dc:type
           rdf:resource="http://purl.org/dc/dcmitype/StillImage" />
        <dc:title></dc:title>
      </cc:Work>
    </rdf:RDF>
  </metadata>
  <defs
     id="defs16" />
  <sodipodi:namedview
     pagecolor="#ffffff"
     bordercolor="#666666"
     borderopacity="1"
     objecttolerance="10"
     gridtolerance="10"
     guidetolerance="10"
     inkscape:pageopacity="0"
     inkscape:pageshadow="2"
     inkscape:window-width="1920"
     inkscape:window-height="1052"
     id="namedview14"
     showgrid="false"
     inkscape:zoom="8.4285714"
     inkscape:cx="14"
     inkscape:cy="14"
     inkscape:window-x="0"
     inkscape:window-y="0"
     inkscape:window-maximized="1"
     inkscape:current-layer="Icone_L_Blocage_de_la_CB" />
  <path
     style="color:#000000;font-style:normal;font-variant:normal;font-weight:normal;font-stretch:normal;font-size:medium;line-height:normal;font-family:sans-serif;font-variant-ligatures:normal;font-variant-position:normal;font-variant-caps:normal;font-variant-numeric:normal;font-variant-alternates:normal;font-feature-settings:normal;text-indent:0;text-align:start;text-decoration:none;text-decoration-line:none;text-decoration-style:solid;text-decoration-color:#000000;letter-spacing:normal;word-spacing:normal;text-transform:none;writing-mode:lr-tb;direction:ltr;text-orientation:mixed;dominant-baseline:auto;baseline-shift:baseline;text-anchor:start;white-space:normal;shape-padding:0;clip-rule:nonzero;display:inline;overflow:visible;visibility:visible;opacity:1;isolation:auto;mix-blend-mode:normal;color-interpolation:sRGB;color-interpolation-filters:linearRGB;solid-color:#000000;solid-opacity:1;vector-effect:none;fill:#000000;fill-opacity:1;fill-rule:nonzero;stroke:none;stroke-width:0.96289331;stroke-linecap:round;stroke-linejoin:round;stroke-miterlimit:4;stroke-dasharray:none;stroke-dashoffset:0;stroke-opacity:1;color-rendering:auto;image-rendering:auto;shape-rendering:auto;text-rendering:auto;enable-background:accumulate"
     d="M 3.9939783,4.4585181 C 2.3503052,4.4585083 1.0056519,5.7975672 0.99998194,7.4412304 a 0.48149478,0.48149478 0 0 0 0,0.00188 v 7.6504876 c 0,1.647637 1.34635976,2.993997 2.99399636,2.993997 H 14.409023 a 0.48149478,0.48149478 0 0 0 0.0038,0 c 0.428453,3.075061 3.067832,5.453887 6.258806,5.453887 3.488696,0 6.32839,-2.839693 6.32839,-6.32839 0,-3.260891 -2.482183,-5.953083 -5.655117,-6.290777 V 7.4431111 a 0.48149478,0.48149478 0 0 0 0,-0.00188 c -0.0057,-1.6436639 -1.350361,-2.9827228 -2.994035,-2.982713 z m 0,0.9628933 H 18.350867 c 1.01173,-6.1e-6 1.837722,0.7294846 1.997252,1.6944665 H 1.9967269 C 2.1562577,6.150896 2.9822497,5.4214053 3.9939783,5.4214114 Z M 1.9628752,8.0787711 H 20.38197 V 9.5588439 H 1.9628752 Z m 0,2.4429659 H 20.38197 v 0.379891 c -3.324066,0.151791 -5.986472,2.873043 -6.033128,6.223074 H 3.9939783 c -1.1272504,3e-6 -2.0311031,-0.903852 -2.0311031,-2.031103 z m 18.7087158,1.327739 c 2.96831,0 5.365497,2.395305 5.365497,5.363617 0,2.968311 -2.397186,5.365497 -5.365497,5.365497 -2.968313,0 -5.363617,-2.397186 -5.363617,-5.365497 0,-2.968312 2.395304,-5.363617 5.363617,-5.363617 z M 4.6352802,14.226619 a 0.48149478,0.48149478 0 1 0 0,0.962893 h 1.3728752 a 0.48149478,0.48149478 0 1 0 0,-0.962893 z m 3.4547557,0 a 0.48149478,0.48149478 0 1 0 0,0.962893 h 1.3728753 a 0.48149478,0.48149478 0 1 0 0,-0.962893 z m 3.4547561,0 a 0.48149478,0.48149478 0 1 0 0,0.962893 h 1.374755 a 0.48149478,0.48149478 0 1 0 0,-0.962893 z m 7.065605,0.334756 v 0.481446 4.825751 h 1.923906 v -5.307197 z m 2.200362,0 v 0.481446 4.825751 h 1.923906 v -5.307197 z"
     id="Ligne_393"
     inkscape:connector-curvature="0" />
</svg>
