<?xml version="1.0" encoding="UTF-8" standalone="no"?>
<svg
   xmlns:dc="http://purl.org/dc/elements/1.1/"
   xmlns:cc="http://creativecommons.org/ns#"
   xmlns:rdf="http://www.w3.org/1999/02/22-rdf-syntax-ns#"
   xmlns:svg="http://www.w3.org/2000/svg"
   xmlns="http://www.w3.org/2000/svg"
   xmlns:sodipodi="http://sodipodi.sourceforge.net/DTD/sodipodi-0.dtd"
   xmlns:inkscape="http://www.inkscape.org/namespaces/inkscape"
   id="Icone_L_Bretagne"
   data-name="Icone/L/Bretagne"
   width="28"
   height="28"
   viewBox="0 0 28 28"
   version="1.1"
   sodipodi:docname="bretagne.svg"
   inkscape:version="0.92.3 (2405546, 2018-03-11)">
  <metadata
     id="metadata13">
    <rdf:RDF>
      <cc:Work
         rdf:about="">
        <dc:format>image/svg+xml</dc:format>
        <dc:type
           rdf:resource="http://purl.org/dc/dcmitype/StillImage" />
        <dc:title></dc:title>
      </cc:Work>
    </rdf:RDF>
  </metadata>
  <defs
     id="defs11" />
  <sodipodi:namedview
     pagecolor="#ffffff"
     bordercolor="#666666"
     borderopacity="1"
     objecttolerance="10"
     gridtolerance="10"
     guidetolerance="10"
     inkscape:pageopacity="0"
     inkscape:pageshadow="2"
     inkscape:window-width="1920"
     inkscape:window-height="1052"
     id="namedview9"
     showgrid="false"
     inkscape:zoom="16"
     inkscape:cx="10.159305"
     inkscape:cy="20.746095"
     inkscape:window-x="0"
     inkscape:window-y="0"
     inkscape:window-maximized="1"
     inkscape:current-layer="Icone_L_Bretagne" />
  <path
     style="color:#000000;font-style:normal;font-variant:normal;font-weight:normal;font-stretch:normal;font-size:medium;line-height:normal;font-family:sans-serif;font-variant-ligatures:normal;font-variant-position:normal;font-variant-caps:normal;font-variant-numeric:normal;font-variant-alternates:normal;font-feature-settings:normal;text-indent:0;text-align:start;text-decoration:none;text-decoration-line:none;text-decoration-style:solid;text-decoration-color:#000000;letter-spacing:normal;word-spacing:normal;text-transform:none;writing-mode:lr-tb;direction:ltr;text-orientation:mixed;dominant-baseline:auto;baseline-shift:baseline;text-anchor:start;white-space:normal;shape-padding:0;clip-rule:nonzero;display:inline;overflow:visible;visibility:visible;opacity:1;isolation:auto;mix-blend-mode:normal;color-interpolation:sRGB;color-interpolation-filters:linearRGB;solid-color:#000000;solid-opacity:1;vector-effect:none;fill:#000000;fill-opacity:1;fill-rule:nonzero;stroke:none;stroke-width:0.96296912;stroke-linecap:round;stroke-linejoin:round;stroke-miterlimit:4;stroke-dasharray:none;stroke-dashoffset:0;stroke-opacity:1;color-rendering:auto;image-rendering:auto;shape-rendering:auto;text-rendering:auto;enable-background:accumulate"
     d="M 10.608471,6.2200714 A 0.4815327,0.4815327 0 0 0 10.239834,6.3931049 L 9.5928391,7.1623517 A 0.4815327,0.4815327 0 0 0 9.4875144,7.39369 L 9.3709049,8.0820624 8.8104267,7.7228298 A 0.4815327,0.4815327 0 0 0 8.3910085,7.673929 c 0,0 -0.2604745,0.090319 -0.5021732,0.1749143 A 0.4815327,0.4815327 0 0 0 7.3001452,7.3842859 L 1.966199,8.610567 A 0.4815327,0.4815327 0 0 0 1.6144897,8.9359452 L 1.022038,10.83179 a 0.4815327,0.4815327 0 0 0 0.3103318,0.601856 l 1.1642146,0.378041 a 0.4815327,0.4815327 0 0 0 0.2990471,0 l 1.1284794,-0.366756 0.7786507,0.306571 0.097802,0.131655 -0.804982,-0.124132 a 0.4815327,0.4815327 0 0 0 -0.383683,0.109086 l -0.6846109,0.577406 a 0.4815327,0.4815327 0 0 0 0.2595504,0.846359 l 0.2482654,0.02633 -1.5084009,0.214411 a 0.4815327,0.4815327 0 0 0 -0.2463847,0.110967 l -0.513458,0.443869 a 0.4815327,0.4815327 0 0 0 0.1617487,0.820028 l 1.7303351,0.577406 0.4325837,0.70718 -0.1636294,0.575525 a 0.4815327,0.4815327 0 0 0 0.3799214,0.603736 l 1.1773801,0.210649 a 0.4815327,0.4815327 0 0 0 0.2934048,-0.0395 l 1.4707848,-0.703418 0.4890077,0.695896 a 0.4815327,0.4815327 0 0 0 0.2463847,0.180556 l 1.2939898,0.413776 a 0.4815327,0.4815327 0 0 0 0.3234974,-0.01128 0.4815327,0.4815327 0 0 0 0.1899607,0.25955 l 0.5698821,0.385564 a 0.4815327,0.4815327 0 0 0 0.4852465,0.03009 l 0.282119,-0.141061 0.505935,0.344186 v 0.323497 a 0.4815327,0.4815327 0 0 0 0.171152,0.370518 c 0.245718,0.20542 0.503769,0.394554 0.773009,0.568002 a 0.4815327,0.4815327 0 0 0 0.364875,0.06583 c 0.205959,-0.04494 0.399704,-0.128687 0.599975,-0.193722 a 0.4815327,0.4815327 0 0 0 0.135418,0.287763 l 0.68461,0.695895 a 0.4815327,0.4815327 0 0 0 0.379922,0.142941 c 0,0 0.523221,-0.04212 1.06077,-0.08275 0.268776,-0.02032 0.541078,-0.03937 0.75232,-0.05454 0.03925,-0.0028 0.06321,-0.0051 0.0978,-0.0075 0.0013,0.0033 0.0026,0.0042 0.0038,0.0075 0.05426,0.149245 0.09968,0.308452 0.09968,0.308452 a 0.4815327,0.4815327 0 0 0 0.575524,0.338543 l 2.394258,-0.571763 a 0.4815327,0.4815327 0 0 0 0.361079,-0.37993 l 0.171152,-0.914068 0.28212,-0.368637 h 0.605617 a 0.4815327,0.4815327 0 0 0 0.148584,-0.02257 l 2.969781,-0.964849 0.947924,0.630067 a 0.4815327,0.4815327 0 0 0 0.722227,-0.242623 l 0.583047,-1.696481 0.821909,-0.434464 a 0.4815327,0.4815327 0 0 0 0.255789,-0.464558 l -0.223815,-2.689542 0.223815,-2.275767 a 0.4815327,0.4815327 0 0 0 -0.25767,-0.473961 l -0.949803,-0.49465 a 0.4815327,0.4815327 0 0 0 -0.509697,0.0395 L 24.490648,11.027393 24.238621,10.903261 23.81168,9.7127152 A 0.4815327,0.4815327 0 0 0 23.390381,9.3967409 c 0,0 -0.437304,-0.029845 -0.893379,-0.058305 -0.212808,-0.013279 -0.424211,-0.027176 -0.603737,-0.037616 0.01775,-0.1580201 0.04326,-0.3291399 0.04326,-0.3291398 A 0.4815327,0.4815327 0 0 0 21.191727,8.4901958 L 20.125314,9.2124227 A 0.4815327,0.4815327 0 0 0 19.925949,9.5058272 L 19.068305,8.9133756 a 0.4815327,0.4815327 0 0 0 -0.272716,-0.084636 h -1.367341 a 0.4815327,0.4815327 0 0 0 -0.280239,0.090278 l -1.359818,0.9723732 a 0.4815327,0.4815327 0 0 0 -0.08652,-0.088398 L 15.201382,9.4155489 V 9.0694818 A 0.4815327,0.4815327 0 0 0 15.139316,8.8325012 L 14.529937,7.7642074 a 0.4815327,0.4815327 0 0 0 -0.03385,-0.048901 L 14.039049,7.1040469 A 0.4815327,0.4815327 0 0 0 13.692982,6.9140862 l -0.96485,-0.077113 V 6.7015559 A 0.4815327,0.4815327 0 0 0 12.246647,6.2200714 Z m 0.225696,0.9629691 h 0.930996 v 0.097802 a 0.4815327,0.4815327 0 0 0 0.441987,0.4796037 l 1.192426,0.095921 0.308452,0.411895 0.530385,0.9291148 v 0.4532725 a 0.4815327,0.4815327 0 0 0 0.186199,0.3799215 l 0.500293,0.387445 v 0.336663 a 0.4815327,0.4815327 0 0 0 0.759842,0.391206 l 1.897726,-1.3541756 h 1.062652 l 1.568586,1.0852216 0.142941,0.500293 -0.180557,0.876452 -0.244504,0.310332 -1.356056,0.30657 a 0.4815327,0.4815327 0 0 0 -0.325378,0.253908 l -0.411895,0.82379 -0.769247,-0.30469 a 0.4815327,0.4815327 0 0 0 -0.558597,0.152345 l -0.646995,0.836956 -0.505935,-0.79934 A 0.4815327,0.4815327 0 0 0 15.090414,13.63042 l -1.713407,-0.524742 a 0.4815327,0.4815327 0 0 0 -0.28212,0 l -1.299632,0.40061 -1.596799,-0.274597 0.09968,-0.126013 A 0.4815327,0.4815327 0 0 0 10.40158,12.757729 L 10.222904,10.952161 10.580256,10.24122 A 0.4815327,0.4815327 0 0 0 10.422271,9.6261984 L 9.7959654,9.1992571 V 9.0939323 A 0.4815327,0.4815327 0 0 0 10.243595,8.6952029 L 10.414749,7.6814522 Z M 6.9484357,8.4525798 c 0.00348,0.022482 5.477e-4,0.03986 0.00564,0.063947 0.01238,0.058534 0.019032,0.1218978 0.090278,0.2313383 0.035623,0.05472 0.094503,0.1287237 0.2068879,0.1843182 0.112384,0.055595 0.2749849,0.062257 0.383683,0.026331 0.1286469,-0.042519 0.611061,-0.2135657 0.8538828,-0.2990471 l 0.3441889,0.220054 V 9.453165 A 0.4815327,0.4815327 0 0 0 9.041765,9.8518943 l 0.4890078,0.3329017 -0.2313383,0.460796 a 0.4815327,0.4815327 0 0 0 -0.04702,0.263312 l 0.1730336,1.747262 -0.4137758,0.515339 -0.8820948,0.385564 a 0.4815327,0.4815327 0 0 0 -0.2501463,0.628186 l 0.6846109,1.62313 a 0.4815327,0.4815327 0 0 0 0.4438685,0.293405 h 0.927234 v 0.282119 L 9.8016079,16.528731 8.7652876,17.145633 7.8324112,16.848467 7.2023435,15.951326 A 0.4815327,0.4815327 0 0 0 6.6004878,15.795219 L 4.9021264,16.607724 4.399953,16.517446 4.475185,16.250372 A 0.4815327,0.4815327 0 0 0 4.4225226,15.86857 L 3.7886933,14.83225 A 0.4815327,0.4815327 0 0 0 3.5310238,14.627244 L 2.7937506,14.380858 4.8851991,14.083692 a 0.4815327,0.4815327 0 0 0 0.3930871,-0.61314 L 5.110895,12.904431 5.8086715,13.011637 A 0.4815327,0.4815327 0 0 0 6.2694672,12.248032 L 5.3948957,11.068771 A 0.4815327,0.4815327 0 0 0 5.1842462,10.907022 L 4.1178331,10.485724 a 0.4815327,0.4815327 0 0 0 -0.327259,-0.01129 L 2.6451675,10.848718 2.0828086,10.664399 2.4495644,9.4870193 Z M 20.952865,9.8142784 c 0.0082,0.034667 0.0047,0.05798 0.02445,0.1034438 0.02394,0.055022 0.06038,0.1242728 0.14106,0.1956028 0.08068,0.07133 0.217504,0.131656 0.342305,0.131656 -0.0219,0 0.14934,0.0064 0.332902,0.01693 0.183562,0.01057 0.416027,0.02344 0.643233,0.03762 0.293949,0.01834 0.410092,0.02506 0.575524,0.03574 l 0.385565,1.075817 a 0.4815327,0.4815327 0 0 0 0.23886,0.268954 l 0.688373,0.342306 a 0.4815327,0.4815327 0 0 0 0.500293,-0.04514 l 0.786174,-0.581166 0.394968,0.205007 -0.195604,1.995527 a 0.4815327,0.4815327 0 0 0 0,0.08652 l 0.201246,2.416826 -0.709062,0.374279 a 0.4815327,0.4815327 0 0 0 -0.231337,0.268955 l -0.441989,1.286467 -0.624425,-0.415657 a 0.4815327,0.4815327 0 0 0 -0.415657,-0.0583 l -3.118364,1.013751 h -0.767366 a 0.4815327,0.4815327 0 0 0 -0.154225,0.02633 l 0.361113,-0.932877 a 0.4815327,0.4815327 0 0 0 0.03197,-0.173033 v -1.028815 a 0.4815327,0.4815327 0 0 0 -0.344186,-0.460795 l -0.646995,-0.191842 -0.364875,-1.205592 0.421299,-0.842598 1.303394,-0.293404 a 0.4815327,0.4815327 0 0 0 0.270836,-0.173034 l 0.421303,-0.532266 a 0.4815327,0.4815327 0 0 0 0.09216,-0.201246 l 0.227576,-1.104029 a 0.4815327,0.4815327 0 0 0 -0.0075,-0.229457 l -0.227576,-0.79934 a 0.4815327,0.4815327 0 0 0 -0.01129,-0.03197 L 20.9397,9.8236823 Z M 9.3727857,14.064884 11.744473,14.474898 a 0.4815327,0.4815327 0 0 0 0.223815,-0.01317 l 1.267659,-0.391206 1.403076,0.428822 0.778651,1.228162 a 0.4815327,0.4815327 0 0 0 0.788055,0.03761 l 0.844479,-1.092743 0.628186,0.248265 0.426942,1.414361 a 0.4815327,0.4815327 0 0 0 0.323497,0.321617 l 0.551074,0.163628 v 0.579287 l -0.481484,1.248851 a 0.4815327,0.4815327 0 0 0 -0.01129,0.312213 l 0.227576,0.75608 -0.114728,0.615022 -1.662627,0.396848 c -0.02915,-0.07691 -0.05766,-0.153659 -0.09968,-0.233218 -0.0266,-0.05035 -0.05528,-0.100559 -0.110968,-0.165511 -0.05568,-0.06495 -0.152102,-0.197483 -0.410014,-0.197485 -0.07204,2e-6 -0.088,0.003 -0.157987,0.0075 -0.06999,0.0045 -0.162196,0.01114 -0.268954,0.01881 -0.213518,0.01534 -0.486677,0.03606 -0.756082,0.05642 -0.412931,0.03122 -0.647928,0.04919 -0.814386,0.06207 l 0.468319,-0.163629 a 0.4815327,0.4815327 0 0 0 -0.02821,-0.91783 l -0.520981,-0.146703 a 0.4815327,0.4815327 0 0 0 -0.131656,-0.01881 h -0.79934 a 0.4815327,0.4815327 0 0 0 -0.189961,0.0395 c -0.254418,0.109162 -0.520133,0.183075 -0.788054,0.252027 -0.112638,-0.07773 -0.223292,-0.158224 -0.331021,-0.242624 v -0.336631 a 0.4815327,0.4815327 0 0 0 -0.210647,-0.398729 l -0.951684,-0.646994 a 0.4815327,0.4815327 0 0 0 -0.487128,-0.03197 l -0.191841,0.09592 0.351709,-0.577405 0.263313,-0.287763 a 0.4815327,0.4815327 0 0 0 0.126013,-0.325377 V 15.620305 A 0.4815327,0.4815327 0 0 0 10.416629,15.138821 H 9.3276465 L 8.9514867,14.249203 Z"
     id="Tracé_274"
     inkscape:connector-curvature="0" />
</svg>
