<?xml version="1.0" encoding="UTF-8" standalone="no"?>
<svg
   xmlns:dc="http://purl.org/dc/elements/1.1/"
   xmlns:cc="http://creativecommons.org/ns#"
   xmlns:rdf="http://www.w3.org/1999/02/22-rdf-syntax-ns#"
   xmlns:svg="http://www.w3.org/2000/svg"
   xmlns="http://www.w3.org/2000/svg"
   xmlns:sodipodi="http://sodipodi.sourceforge.net/DTD/sodipodi-0.dtd"
   xmlns:inkscape="http://www.inkscape.org/namespaces/inkscape"
   id="Icone_L_Cadenas"
   data-name="Icone/L/Cadenas"
   width="28"
   height="28"
   viewBox="0 0 28 28"
   version="1.1"
   sodipodi:docname="Icadenas-ouvert.svg"
   inkscape:version="0.92.3 (2405546, 2018-03-11)">
  <metadata
     id="metadata12">
    <rdf:RDF>
      <cc:Work
         rdf:about="">
        <dc:format>image/svg+xml</dc:format>
        <dc:type
           rdf:resource="http://purl.org/dc/dcmitype/StillImage" />
        <dc:title></dc:title>
      </cc:Work>
    </rdf:RDF>
  </metadata>
  <defs
     id="defs10" />
  <sodipodi:namedview
     pagecolor="#ffffff"
     bordercolor="#666666"
     borderopacity="1"
     objecttolerance="10"
     gridtolerance="10"
     guidetolerance="10"
     inkscape:pageopacity="0"
     inkscape:pageshadow="2"
     inkscape:window-width="1920"
     inkscape:window-height="1052"
     id="namedview8"
     showgrid="false"
     inkscape:zoom="16.857143"
     inkscape:cx="19.050861"
     inkscape:cy="3.8562541"
     inkscape:window-x="0"
     inkscape:window-y="0"
     inkscape:window-maximized="1"
     inkscape:current-layer="Icone_L_Cadenas" />
  <path
     style="color:#000000;font-style:normal;font-variant:normal;font-weight:normal;font-stretch:normal;font-size:medium;line-height:normal;font-family:sans-serif;font-variant-ligatures:normal;font-variant-position:normal;font-variant-caps:normal;font-variant-numeric:normal;font-variant-alternates:normal;font-feature-settings:normal;text-indent:0;text-align:start;text-decoration:none;text-decoration-line:none;text-decoration-style:solid;text-decoration-color:#000000;letter-spacing:normal;word-spacing:normal;text-transform:none;writing-mode:lr-tb;direction:ltr;text-orientation:mixed;dominant-baseline:auto;baseline-shift:baseline;text-anchor:start;white-space:normal;shape-padding:0;clip-rule:nonzero;display:inline;overflow:visible;visibility:visible;opacity:1;isolation:auto;mix-blend-mode:normal;color-interpolation:sRGB;color-interpolation-filters:linearRGB;solid-color:#000000;solid-opacity:1;vector-effect:none;fill:#000000;fill-opacity:1;fill-rule:nonzero;stroke:none;stroke-width:0.96296299;stroke-linecap:round;stroke-linejoin:round;stroke-miterlimit:4;stroke-dasharray:none;stroke-dashoffset:0;stroke-opacity:1;color-rendering:auto;image-rendering:auto;shape-rendering:auto;text-rendering:auto;enable-background:accumulate"
     d="M 13.992478,1 C 10.251971,1 7.2103593,4.043493 7.2103593,7.7839989 v 1.6099537 c 0,0.4150964 0.2854756,0.7537694 0.5849248,0.9178244 0.299449,0.164054 0.6333161,0.223814 0.9667245,0.223814 0.3334085,0 0.6672754,-0.05976 0.9667245,-0.223814 C 10.028182,10.147722 10.311777,9.809049 10.311777,9.3939526 V 7.9382234 C 10.310332,5.8969873 11.958776,4.2541899 14,4.2612848 a 0.48152963,0.48152963 0 0 0 0.0019,0 c 2.036761,-1e-7 3.67694,1.6401777 3.67694,3.6769386 V 11.846499 H 9.2717019 c -1.8588569,0 -3.3703704,1.511513 -3.3703704,3.37037 V 23.62963 C 5.9013315,25.488486 7.412845,27 9.2717019,27 h 9.4565961 c 1.858858,0 3.370371,-1.511514 3.370371,-3.37037 v -8.412761 c 0,-1.103329 -0.540104,-2.07626 -1.361689,-2.691406 a 0.48152963,0.48152963 0 0 0 0.0395,-0.195602 V 7.7839989 C 20.776476,4.043493 17.732982,1 13.992478,1 Z m 0,0.962963 c 3.220081,0 5.821035,2.6009538 5.821035,5.8210359 V 12.04022 c -0.342276,-0.117346 -0.703582,-0.193721 -1.085215,-0.193721 h -0.08651 V 7.9382234 c 0,-2.5565442 -2.081714,-4.6388586 -4.638022,-4.6399016 h -0.0019 C 11.43969,3.2904626 9.3470175,5.377663 9.3488141,7.9401041 v 1.4538485 c 0,0.024497 0.01899,0.017609 -0.082755,0.073351 -0.1017453,0.055741 -0.3025334,0.1053234 -0.5040509,0.1053234 -0.2015175,0 -0.4023056,-0.04958 -0.504051,-0.1053234 -0.1017458,-0.055742 -0.084635,-0.048854 -0.084635,-0.073351 V 7.7839989 c 0,-3.2200821 2.5990728,-5.8210359 5.8191558,-5.8210359 z M 9.2717019,12.809462 h 8.8114871 a 0.48152963,0.48152963 0 0 0 0.156105,0 h 0.489004 c 1.342032,0 2.40741,1.065375 2.407408,2.407407 v 8.412761 c 0,1.342032 -1.065376,2.407407 -2.407408,2.407407 H 9.2717019 c -1.342032,0 -2.4074074,-1.065375 -2.4074074,-2.407407 v -8.412761 c 0,-1.342032 1.0653754,-2.407407 2.4074074,-2.407407 z m 4.7282991,2.896411 c -0.860865,0 -1.513443,0.588053 -1.72092,1.280816 -0.171898,0.573965 0.03269,1.212354 0.489004,1.698351 l -0.83695,3.870661 a 0.48152963,0.48152963 0 0 0 0.470197,0.583043 h 3.197337 a 0.48152963,0.48152963 0 0 0 0.470197,-0.583043 l -0.83695,-3.870661 c 0.456082,-0.485977 0.660866,-1.124503 0.489005,-1.698351 -0.207478,-0.692763 -0.860054,-1.280816 -1.72092,-1.280816 z m 0,0.962963 c 0.443702,0 0.697355,0.260102 0.797453,0.59433 0.100099,0.334228 0.03055,0.690794 -0.340421,0.934751 a 0.48152963,0.48152963 0 0 0 -0.205007,0.50405 l 0.750435,3.473814 h -2.00492 l 0.750434,-3.473814 a 0.48152963,0.48152963 0 0 0 -0.205005,-0.50405 c -0.370975,-0.243957 -0.440521,-0.600523 -0.340423,-0.934751 0.100099,-0.334228 0.353752,-0.59433 0.797454,-0.59433 z"
     id="Rectangle_176"
     inkscape:connector-curvature="0" />
</svg>
