<?xml version="1.0" encoding="UTF-8" standalone="no"?>
<svg
   xmlns:dc="http://purl.org/dc/elements/1.1/"
   xmlns:cc="http://creativecommons.org/ns#"
   xmlns:rdf="http://www.w3.org/1999/02/22-rdf-syntax-ns#"
   xmlns:svg="http://www.w3.org/2000/svg"
   xmlns="http://www.w3.org/2000/svg"
   xmlns:sodipodi="http://sodipodi.sourceforge.net/DTD/sodipodi-0.dtd"
   xmlns:inkscape="http://www.inkscape.org/namespaces/inkscape"
   id="Icone_L_Camembert"
   data-name="Icone/L/Camembert"
   width="28"
   height="28"
   viewBox="0 0 28 28"
   version="1.1"
   sodipodi:docname="camembert.svg"
   inkscape:version="0.92.3 (2405546, 2018-03-11)">
  <metadata
     id="metadata13">
    <rdf:RDF>
      <cc:Work
         rdf:about="">
        <dc:format>image/svg+xml</dc:format>
        <dc:type
           rdf:resource="http://purl.org/dc/dcmitype/StillImage" />
        <dc:title></dc:title>
      </cc:Work>
    </rdf:RDF>
  </metadata>
  <defs
     id="defs11" />
  <sodipodi:namedview
     pagecolor="#ffffff"
     bordercolor="#666666"
     borderopacity="1"
     objecttolerance="10"
     gridtolerance="10"
     guidetolerance="10"
     inkscape:pageopacity="0"
     inkscape:pageshadow="2"
     inkscape:window-width="1920"
     inkscape:window-height="1052"
     id="namedview9"
     showgrid="false"
     inkscape:zoom="23.8396"
     inkscape:cx="8.1687855"
     inkscape:cy="14.801053"
     inkscape:window-x="0"
     inkscape:window-y="0"
     inkscape:window-maximized="1"
     inkscape:current-layer="Icone_L_Camembert" />
  <path
     style="color:#000000;font-style:normal;font-variant:normal;font-weight:normal;font-stretch:normal;font-size:medium;line-height:normal;font-family:sans-serif;font-variant-ligatures:normal;font-variant-position:normal;font-variant-caps:normal;font-variant-numeric:normal;font-variant-alternates:normal;font-feature-settings:normal;text-indent:0;text-align:start;text-decoration:none;text-decoration-line:none;text-decoration-style:solid;text-decoration-color:#000000;letter-spacing:normal;word-spacing:normal;text-transform:none;writing-mode:lr-tb;direction:ltr;text-orientation:mixed;dominant-baseline:auto;baseline-shift:baseline;text-anchor:start;white-space:normal;shape-padding:0;clip-rule:nonzero;display:inline;overflow:visible;visibility:visible;opacity:1;isolation:auto;mix-blend-mode:normal;color-interpolation:sRGB;color-interpolation-filters:linearRGB;solid-color:#000000;solid-opacity:1;vector-effect:none;fill:#000000;fill-opacity:1;fill-rule:nonzero;stroke:none;stroke-width:0.96296299;stroke-linecap:round;stroke-linejoin:round;stroke-miterlimit:4;stroke-dasharray:none;stroke-dashoffset:0;stroke-opacity:1;color-rendering:auto;image-rendering:auto;shape-rendering:auto;text-rendering:auto;enable-background:accumulate"
     d="m 14,0.99861893 c -7.1739988,0 -13,5.82600127 -13,13.00000007 0,7.147964 5.7847323,12.954163 12.922888,12.996239 a 0.48152963,0.48152963 0 0 0 0.157985,0 C 21.217284,26.950746 27,21.145315 27,13.998619 27,8.5482902 23.633049,3.8846011 18.871239,1.9540587 A 0.48152963,0.48152963 0 0 0 18.534577,1.8299268 C 17.120425,1.3017818 15.597205,0.99861893 14,0.99861893 Z m 0,0.96296297 c 1.372096,0 2.684041,0.2402311 3.912037,0.662037 L 13.729167,13.362913 3.0970776,8.9186132 C 5.0122264,4.8113164 9.164905,1.9615819 14,1.9615819 Z m 4.812934,1.0062211 c 4.252372,1.8559396 7.224103,6.0903346 7.224103,11.030816 0,0.83377 -0.0854,1.647952 -0.246383,2.433739 L 14.648871,13.660078 Z M 2.7265625,9.8063447 12.999422,14.102063 3.8174189,20.40458 C 2.6483487,18.548782 1.962963,16.356478 1.962963,13.998619 c 0,-1.477304 0.2778342,-2.885222 0.7635995,-4.1922743 z m 11.7549185,4.8054113 11.070313,2.753472 c -1.412621,4.86176 -5.801099,8.437611 -11.070313,8.645978 z m -0.962962,0.300926 V 26.011206 C 9.7681553,25.862901 6.4685621,24.009224 4.364728,21.196391 Z"
     id="Ellipse_49"
     inkscape:connector-curvature="0" />
</svg>
