<?xml version="1.0" encoding="UTF-8" standalone="no"?>
<svg
   xmlns:dc="http://purl.org/dc/elements/1.1/"
   xmlns:cc="http://creativecommons.org/ns#"
   xmlns:rdf="http://www.w3.org/1999/02/22-rdf-syntax-ns#"
   xmlns:svg="http://www.w3.org/2000/svg"
   xmlns="http://www.w3.org/2000/svg"
   xmlns:sodipodi="http://sodipodi.sourceforge.net/DTD/sodipodi-0.dtd"
   xmlns:inkscape="http://www.inkscape.org/namespaces/inkscape"
   id="Icone_L_Cartes"
   data-name="Icone/L/Cartes"
   width="28"
   height="28"
   viewBox="0 0 28 28"
   version="1.1"
   sodipodi:docname="cartes.svg"
   inkscape:version="0.92.3 (2405546, 2018-03-11)">
  <metadata
     id="metadata16">
    <rdf:RDF>
      <cc:Work
         rdf:about="">
        <dc:format>image/svg+xml</dc:format>
        <dc:type
           rdf:resource="http://purl.org/dc/dcmitype/StillImage" />
        <dc:title></dc:title>
      </cc:Work>
    </rdf:RDF>
  </metadata>
  <defs
     id="defs14" />
  <sodipodi:namedview
     pagecolor="#ffffff"
     bordercolor="#666666"
     borderopacity="1"
     objecttolerance="10"
     gridtolerance="10"
     guidetolerance="10"
     inkscape:pageopacity="0"
     inkscape:pageshadow="2"
     inkscape:window-width="1920"
     inkscape:window-height="1052"
     id="namedview12"
     showgrid="false"
     inkscape:zoom="23.8396"
     inkscape:cx="19.857516"
     inkscape:cy="16.191386"
     inkscape:window-x="0"
     inkscape:window-y="0"
     inkscape:window-maximized="1"
     inkscape:current-layer="Icone_L_Cartes" />
  <path
     style="color:#000000;font-style:normal;font-variant:normal;font-weight:normal;font-stretch:normal;font-size:medium;line-height:normal;font-family:sans-serif;font-variant-ligatures:normal;font-variant-position:normal;font-variant-caps:normal;font-variant-numeric:normal;font-variant-alternates:normal;font-feature-settings:normal;text-indent:0;text-align:start;text-decoration:none;text-decoration-line:none;text-decoration-style:solid;text-decoration-color:#000000;letter-spacing:normal;word-spacing:normal;text-transform:none;writing-mode:lr-tb;direction:ltr;text-orientation:mixed;dominant-baseline:auto;baseline-shift:baseline;text-anchor:start;white-space:normal;shape-padding:0;clip-rule:nonzero;display:inline;overflow:visible;visibility:visible;opacity:1;isolation:auto;mix-blend-mode:normal;color-interpolation:sRGB;color-interpolation-filters:linearRGB;solid-color:#000000;solid-opacity:1;vector-effect:none;fill:#000000;fill-opacity:1;fill-rule:nonzero;stroke:none;stroke-width:0.96191913;stroke-linecap:round;stroke-linejoin:round;stroke-miterlimit:10;stroke-dasharray:none;stroke-dashoffset:0;stroke-opacity:1;color-rendering:auto;image-rendering:auto;shape-rendering:auto;text-rendering:auto;enable-background:accumulate"
     d="M 4.3084767,4.8890103 C 2.4865215,4.8877692 0.99875986,6.373652 1.000001,8.1956073 v 8.5896377 c -0.001237,1.816159 1.4775384,3.298403 3.291567,3.306598 0.1487615,1.68525 1.5555577,3.020322 3.2784158,3.019147 H 23.693402 c 1.821082,1.98e-4 3.307838,-1.487159 3.306597,-3.308476 V 11.212877 C 27.001246,9.3967173 25.522461,7.9144741 23.708432,7.9062801 23.559677,6.221212 22.152874,4.8878367 20.430017,4.8890103 Z m 0,0.9619191 H 20.430017 a 0.48100766,0.48100766 0 0 0 0.0019,0 c 1.201971,-8.187e-4 2.173832,0.8922016 2.316496,2.053472 H 1.9901013 C 2.1330114,6.743131 3.1065049,5.8501107 4.3084767,5.8509294 Z M 1.9619201,8.8663205 H 22.776573 V 10.649253 H 1.9619201 Z m 21.7765719,0.00376 c 1.280083,0.023506 2.300465,1.0565782 2.299588,2.3427995 v 8.589637 c 8.87e-4,1.301633 -1.043046,2.347444 -2.344678,2.346557 H 7.5699838 C 6.368012,22.14989 5.3945185,21.255237 5.2516084,20.093721 H 20.428138 c 1.828052,0.01257 3.322922,-1.482303 3.310354,-3.310355 z M 1.9619201,11.611172 H 22.776573 v 5.174073 a 0.48100766,0.48100766 0 0 0 0,0.0038 c 0.0089,1.303529 -1.03927,2.351762 -2.342799,2.342799 a 0.48100766,0.48100766 0 0 0 -0.0038,0 H 4.3084767 c -1.3016323,8.99e-4 -2.3474433,-1.04304 -2.3465566,-2.344672 a 0.48100766,0.48100766 0 0 0 0,-0.0019 z M 4.99422,15.870295 a 0.48153259,0.48153259 0 0 0 0.046969,0.961919 h 1.5499674 a 0.48100766,0.48100766 0 1 0 0,-0.961919 H 5.0411886 a 0.48100766,0.48100766 0 0 0 -0.046969,0 z m 3.8871302,0 a 0.48153259,0.48153259 0 0 0 0.046968,0.961919 h 1.5236648 a 0.48100766,0.48100766 0 1 0 0,-0.961919 H 8.9283188 a 0.48100766,0.48100766 0 0 0 -0.046969,0 z m 3.8608278,0 a 0.48157931,0.48157931 0 0 0 0.04885,0.961919 h 1.548089 a 0.48100766,0.48100766 0 1 0 0,-0.961919 h -1.548089 a 0.48100766,0.48100766 0 0 0 -0.04885,0 z"
     id="Ligne_68"
     inkscape:connector-curvature="0" />
</svg>
