<?xml version="1.0" encoding="UTF-8" standalone="no"?>
<svg
   xmlns:dc="http://purl.org/dc/elements/1.1/"
   xmlns:cc="http://creativecommons.org/ns#"
   xmlns:rdf="http://www.w3.org/1999/02/22-rdf-syntax-ns#"
   xmlns:svg="http://www.w3.org/2000/svg"
   xmlns="http://www.w3.org/2000/svg"
   xmlns:sodipodi="http://sodipodi.sourceforge.net/DTD/sodipodi-0.dtd"
   xmlns:inkscape="http://www.inkscape.org/namespaces/inkscape"
   id="Icone_L_Carte_bancaire"
   data-name="Icone/L/Carte bancaire"
   width="28"
   height="28"
   viewBox="0 0 28 28"
   version="1.1"
   sodipodi:docname="carte.svg"
   inkscape:version="0.92.3 (2405546, 2018-03-11)">
  <metadata
     id="metadata15">
    <rdf:RDF>
      <cc:Work
         rdf:about="">
        <dc:format>image/svg+xml</dc:format>
        <dc:type
           rdf:resource="http://purl.org/dc/dcmitype/StillImage" />
        <dc:title></dc:title>
      </cc:Work>
    </rdf:RDF>
  </metadata>
  <defs
     id="defs13" />
  <sodipodi:namedview
     pagecolor="#ffffff"
     bordercolor="#666666"
     borderopacity="1"
     objecttolerance="10"
     gridtolerance="10"
     guidetolerance="10"
     inkscape:pageopacity="0"
     inkscape:pageshadow="2"
     inkscape:window-width="1920"
     inkscape:window-height="1052"
     id="namedview11"
     showgrid="false"
     inkscape:zoom="8.4285714"
     inkscape:cx="14"
     inkscape:cy="14"
     inkscape:window-x="0"
     inkscape:window-y="0"
     inkscape:window-maximized="1"
     inkscape:current-layer="Icone_L_Carte_bancaire" />
  <path
     style="color:#000000;font-style:normal;font-variant:normal;font-weight:normal;font-stretch:normal;font-size:medium;line-height:normal;font-family:sans-serif;font-variant-ligatures:normal;font-variant-position:normal;font-variant-caps:normal;font-variant-numeric:normal;font-variant-alternates:normal;font-feature-settings:normal;text-indent:0;text-align:start;text-decoration:none;text-decoration-line:none;text-decoration-style:solid;text-decoration-color:#000000;letter-spacing:normal;word-spacing:normal;text-transform:none;writing-mode:lr-tb;direction:ltr;text-orientation:mixed;dominant-baseline:auto;baseline-shift:baseline;text-anchor:start;white-space:normal;shape-padding:0;clip-rule:nonzero;display:inline;overflow:visible;visibility:visible;opacity:1;isolation:auto;mix-blend-mode:normal;color-interpolation:sRGB;color-interpolation-filters:linearRGB;solid-color:#000000;solid-opacity:1;vector-effect:none;fill:#000000;fill-opacity:1;fill-rule:nonzero;stroke:none;stroke-width:0.96400899;stroke-linecap:round;stroke-linejoin:round;stroke-miterlimit:10;stroke-dasharray:none;stroke-dashoffset:0;stroke-opacity:1;color-rendering:auto;image-rendering:auto;shape-rendering:auto;text-rendering:auto;enable-background:accumulate"
     d="M 4.7204722,5.3380405 C 2.6719429,5.3386501 1.0006096,7.0081005 1,9.0566298 v 9.8848572 c -9e-8,2.048958 1.6715157,3.719863 3.7204722,3.720473 H 23.279528 C 25.328058,22.66135 26.999391,20.990017 27,18.941487 V 9.0566298 C 26.999391,7.0081005 25.328058,5.3386501 23.279528,5.3380405 Z m 0,0.9640089 H 23.279528 c 1.430343,4.257e-4 2.584754,1.0794241 2.72822,2.4702731 H 1.9922515 C 2.135719,7.3814735 3.2901288,6.3024751 4.7204722,6.3020494 Z M 1.964009,9.7363315 H 26.035991 V 11.926064 H 1.964009 Z m 0,3.1537415 h 24.071982 v 6.051414 c -4.54e-4,1.527744 -1.22872,2.756009 -2.756463,2.756463 H 4.7204722 C 3.1924034,21.697496 1.9640089,20.469556 1.964009,18.941487 Z m 3.6018538,5.062929 a 0.48205269,0.48205269 0 1 0 0,0.964009 h 1.773626 a 0.48205269,0.48205269 0 1 0 0,-0.964009 z m 4.4491272,0 a 0.48205269,0.48205269 0 1 0 0,0.964009 h 1.773626 a 0.48205269,0.48205269 0 1 0 0,-0.964009 z m 4.47737,0 a 0.48205269,0.48205269 0 1 0 0,0.964009 h 1.775509 a 0.48205269,0.48205269 0 1 0 0,-0.964009 z"
     id="Ligne_54"
     inkscape:connector-curvature="0" />
</svg>
