<?xml version="1.0" encoding="UTF-8" standalone="no"?>
<svg
   xmlns:dc="http://purl.org/dc/elements/1.1/"
   xmlns:cc="http://creativecommons.org/ns#"
   xmlns:rdf="http://www.w3.org/1999/02/22-rdf-syntax-ns#"
   xmlns:svg="http://www.w3.org/2000/svg"
   xmlns="http://www.w3.org/2000/svg"
   xmlns:sodipodi="http://sodipodi.sourceforge.net/DTD/sodipodi-0.dtd"
   xmlns:inkscape="http://www.inkscape.org/namespaces/inkscape"
   id="Icone_L_Chat"
   data-name="Icone/L/Chat"
   width="28"
   height="28"
   viewBox="0 0 28 28"
   version="1.1"
   sodipodi:docname="chat.svg"
   inkscape:version="0.92.3 (2405546, 2018-03-11)">
  <metadata
     id="metadata10">
    <rdf:RDF>
      <cc:Work
         rdf:about="">
        <dc:format>image/svg+xml</dc:format>
        <dc:type
           rdf:resource="http://purl.org/dc/dcmitype/StillImage" />
        <dc:title></dc:title>
      </cc:Work>
    </rdf:RDF>
  </metadata>
  <defs
     id="defs8" />
  <sodipodi:namedview
     pagecolor="#ffffff"
     bordercolor="#666666"
     borderopacity="1"
     objecttolerance="10"
     gridtolerance="10"
     guidetolerance="10"
     inkscape:pageopacity="0"
     inkscape:pageshadow="2"
     inkscape:window-width="1920"
     inkscape:window-height="1052"
     id="namedview6"
     showgrid="false"
     inkscape:zoom="16.857143"
     inkscape:cx="7.2576063"
     inkscape:cy="13.234295"
     inkscape:window-x="0"
     inkscape:window-y="0"
     inkscape:window-maximized="1"
     inkscape:current-layer="Icone_L_Chat" />
  <path
     style="color:#000000;font-style:normal;font-variant:normal;font-weight:normal;font-stretch:normal;font-size:medium;line-height:normal;font-family:sans-serif;font-variant-ligatures:normal;font-variant-position:normal;font-variant-caps:normal;font-variant-numeric:normal;font-variant-alternates:normal;font-feature-settings:normal;text-indent:0;text-align:start;text-decoration:none;text-decoration-line:none;text-decoration-style:solid;text-decoration-color:#000000;letter-spacing:normal;word-spacing:normal;text-transform:none;writing-mode:lr-tb;direction:ltr;text-orientation:mixed;dominant-baseline:auto;baseline-shift:baseline;text-anchor:start;white-space:normal;shape-padding:0;clip-rule:nonzero;display:inline;overflow:visible;visibility:visible;opacity:1;isolation:auto;mix-blend-mode:normal;color-interpolation:sRGB;color-interpolation-filters:linearRGB;solid-color:#000000;solid-opacity:1;vector-effect:none;fill:#000000;fill-opacity:1;fill-rule:nonzero;stroke:none;stroke-width:0.95788717;stroke-linecap:round;stroke-linejoin:round;stroke-miterlimit:10;stroke-dasharray:none;stroke-dashoffset:0;stroke-opacity:1;color-rendering:auto;image-rendering:auto;shape-rendering:auto;text-rendering:auto;enable-background:accumulate"
     d="m 15.46226,4.6687792 c -1.145698,-0.034998 -2.090243,0.9261317 -2.03551,2.0710569 v 6.6640519 a 0.47899149,0.47899149 0 0 0 0,0.0075 c 0.01635,1.114221 0.93427,2.017777 2.048607,2.014931 h 1.090719 v 0.847505 a 0.47899149,0.47899149 0 0 0 0,0.02245 c 0.02044,0.414634 0.297317,0.753533 0.636096,0.886794 0.338781,0.133261 0.772691,0.07444 1.07014,-0.21515 a 0.47899149,0.47899149 0 0 0 0.0019,-0.0019 l 1.593985,-1.567792 h 5.075679 c 1.122343,0.01598 2.052731,-0.898092 2.05609,-2.020543 V 6.6911934 a 0.47899149,0.47899149 0 0 0 0,-0.00748 C 26.983547,5.5701076 26.064829,4.6669442 24.95133,4.6687792 Z M 15.4342,5.6266664 a 0.47899149,0.47899149 0 0 0 0.0131,0 h 9.504037 c 0.600765,-0.00153 1.081903,0.471309 1.09072,1.0720105 v 6.6790191 c -0.0028,0.600069 -0.484828,1.071203 -1.085106,1.062656 a 0.47899149,0.47899149 0 0 0 -0.0056,0 h -5.279604 a 0.47899149,0.47899149 0 0 0 -0.336757,0.138444 l -1.730559,1.702495 c -0.02757,0.02684 -0.02928,0.01958 -0.05051,0.01123 -0.02124,-0.0083 -0.02804,-0.0046 -0.02993,-0.04303 v -1.302132 a 0.47899149,0.47899149 0 0 0 -0.478972,-0.478944 h -1.569662 a 0.47899149,0.47899149 0 0 0 -0.0019,0 c -0.600764,0.0015 -1.080032,-0.471309 -1.088849,-1.072011 V 6.7173857 a 0.47899149,0.47899149 0 0 0 -0.0019,-0.02245 C 14.354147,6.0935526 14.832409,5.608283 15.434197,5.6266664 Z M 8.1359201,8.1336368 C 6.473173,8.134486 5.1931261,9.1631333 4.6598372,10.4741 c -0.5334989,1.311483 -0.3341329,2.943304 0.8568601,4.104696 1.1909929,1.161392 2.8276328,1.318422 4.1252759,0.752091 1.2971288,-0.566106 2.2916438,-1.871845 2.2506608,-3.53408 -0.0279,-2.0418524 -1.713159,-3.6856054 -3.754843,-3.6631702 z m 0.00187,0.9578872 a 0.47899149,0.47899149 0 0 0 0.00748,0 c 1.5279462,-0.019121 2.7701409,1.194184 2.7894729,2.722121 a 0.47899149,0.47899149 0 0 0 0.0019,0.0056 c 0.03207,1.275432 -0.701626,2.207994 -1.6781741,2.63419 -0.9766182,0.426169 -2.1605813,0.32934 -3.0738698,-0.56125 C 5.2713105,13.001596 5.1451437,11.822142 5.5466313,10.835178 5.9481188,9.8482146 6.8619556,9.0915543 8.1377901,9.091524 Z m 0.028063,8.029789 c -3.1080757,0 -6.2478665,1.908657 -7.1523492,5.618233 a 0.47940102,0.47940102 0 0 0 0.9316949,0.226375 C 2.7481601,19.672719 5.4411189,18.0792 8.1658531,18.0792 c 2.7247339,0 5.4176929,1.593519 6.2206539,4.886721 a 0.47940147,0.47940147 0 1 0 0.931696,-0.226375 C 14.413721,19.02997 11.273929,17.121313 8.1658531,17.121313 Z"
     id="path822"
     inkscape:connector-curvature="0" />
</svg>
