<?xml version="1.0" encoding="UTF-8" standalone="no"?>
<svg
   xmlns:dc="http://purl.org/dc/elements/1.1/"
   xmlns:cc="http://creativecommons.org/ns#"
   xmlns:rdf="http://www.w3.org/1999/02/22-rdf-syntax-ns#"
   xmlns:svg="http://www.w3.org/2000/svg"
   xmlns="http://www.w3.org/2000/svg"
   xmlns:sodipodi="http://sodipodi.sourceforge.net/DTD/sodipodi-0.dtd"
   xmlns:inkscape="http://www.inkscape.org/namespaces/inkscape"
   id="Icone_L_Check"
   data-name="Icone/L/Check"
   width="28"
   height="28"
   viewBox="0 0 28 28"
   version="1.1"
   sodipodi:docname="check-1.svg"
   inkscape:version="0.92.3 (2405546, 2018-03-11)">
  <metadata
     id="metadata11">
    <rdf:RDF>
      <cc:Work
         rdf:about="">
        <dc:format>image/svg+xml</dc:format>
        <dc:type
           rdf:resource="http://purl.org/dc/dcmitype/StillImage" />
        <dc:title></dc:title>
      </cc:Work>
    </rdf:RDF>
  </metadata>
  <defs
     id="defs9" />
  <sodipodi:namedview
     pagecolor="#ffffff"
     bordercolor="#666666"
     borderopacity="1"
     objecttolerance="10"
     gridtolerance="10"
     guidetolerance="10"
     inkscape:pageopacity="0"
     inkscape:pageshadow="2"
     inkscape:window-width="1920"
     inkscape:window-height="1052"
     id="namedview7"
     showgrid="false"
     inkscape:zoom="8.4285714"
     inkscape:cx="14"
     inkscape:cy="14"
     inkscape:window-x="0"
     inkscape:window-y="0"
     inkscape:window-maximized="1"
     inkscape:current-layer="Icone_L_Check" />
  <path
     id="Tracé_141"
     style="color:#000000;font-style:normal;font-variant:normal;font-weight:normal;font-stretch:normal;font-size:medium;line-height:normal;font-family:sans-serif;font-variant-ligatures:normal;font-variant-position:normal;font-variant-caps:normal;font-variant-numeric:normal;font-variant-alternates:normal;font-feature-settings:normal;text-indent:0;text-align:start;text-decoration:none;text-decoration-line:none;text-decoration-style:solid;text-decoration-color:#000000;letter-spacing:normal;word-spacing:normal;text-transform:none;writing-mode:lr-tb;direction:ltr;text-orientation:mixed;dominant-baseline:auto;baseline-shift:baseline;text-anchor:start;white-space:normal;shape-padding:0;clip-rule:nonzero;display:inline;overflow:visible;visibility:visible;opacity:1;isolation:auto;mix-blend-mode:normal;color-interpolation:sRGB;color-interpolation-filters:linearRGB;solid-color:#000000;solid-opacity:1;vector-effect:none;fill:#000000;fill-opacity:1;fill-rule:nonzero;stroke:none;stroke-width:1;stroke-linecap:round;stroke-linejoin:round;stroke-miterlimit:10;stroke-dasharray:none;stroke-dashoffset:0;stroke-opacity:1;color-rendering:auto;image-rendering:auto;shape-rendering:auto;text-rendering:auto;enable-background:accumulate"
     d="M 20.615234,8.5839844 A 0.50005,0.50005 0 0 0 20.232422,8.7597656 L 12.376953,17.71875 7.6230469,12.263672 a 0.50005,0.50005 0 1 0 -0.7539063,0.65625 l 5.1289064,5.886719 a 0.50005,0.50005 0 0 0 0.751953,0.002 L 20.984375,9.4179688 A 0.50005,0.50005 0 0 0 20.615234,8.5839844 Z m -6.616167,-6.628692 c 6.657555,0 12.045641,5.3862191 12.045641,12.0437746 0,6.657555 -5.388086,12.045641 -12.045641,12.045641 -6.6575555,0 -12.0437746,-5.388086 -12.0437746,-12.045641 0,-6.6575555 5.3862191,-12.0437746 12.0437746,-12.0437746 z M 13.999067,1 C 6.8252332,1 1,6.8252332 1,13.999067 1,21.172901 6.8252332,27 13.999067,27 21.172901,27 27,21.172901 27,13.999067 27,6.8252332 21.172901,1 13.999067,1 Z" />
</svg>
