<?xml version="1.0" encoding="UTF-8" standalone="no"?>
<svg
   xmlns:dc="http://purl.org/dc/elements/1.1/"
   xmlns:cc="http://creativecommons.org/ns#"
   xmlns:rdf="http://www.w3.org/1999/02/22-rdf-syntax-ns#"
   xmlns:svg="http://www.w3.org/2000/svg"
   xmlns="http://www.w3.org/2000/svg"
   xmlns:sodipodi="http://sodipodi.sourceforge.net/DTD/sodipodi-0.dtd"
   xmlns:inkscape="http://www.inkscape.org/namespaces/inkscape"
   id="Icone_L_Coordonees_Client"
   data-name="Icone/L/Coordonees Client"
   width="28"
   height="28"
   viewBox="0 0 28 28"
   version="1.1"
   sodipodi:docname="client.svg"
   inkscape:version="0.92.3 (2405546, 2018-03-11)">
  <metadata
     id="metadata13">
    <rdf:RDF>
      <cc:Work
         rdf:about="">
        <dc:format>image/svg+xml</dc:format>
        <dc:type
           rdf:resource="http://purl.org/dc/dcmitype/StillImage" />
        <dc:title></dc:title>
      </cc:Work>
    </rdf:RDF>
  </metadata>
  <defs
     id="defs11" />
  <sodipodi:namedview
     pagecolor="#ffffff"
     bordercolor="#666666"
     borderopacity="1"
     objecttolerance="10"
     gridtolerance="10"
     guidetolerance="10"
     inkscape:pageopacity="0"
     inkscape:pageshadow="2"
     inkscape:window-width="1920"
     inkscape:window-height="1052"
     id="namedview9"
     showgrid="false"
     inkscape:zoom="8.4285714"
     inkscape:cx="14"
     inkscape:cy="14"
     inkscape:window-x="0"
     inkscape:window-y="0"
     inkscape:window-maximized="1"
     inkscape:current-layer="Icone_L_Coordonees_Client" />
  <path
     style="color:#000000;font-style:normal;font-variant:normal;font-weight:normal;font-stretch:normal;font-size:medium;line-height:normal;font-family:sans-serif;font-variant-ligatures:normal;font-variant-position:normal;font-variant-caps:normal;font-variant-numeric:normal;font-variant-alternates:normal;font-feature-settings:normal;text-indent:0;text-align:start;text-decoration:none;text-decoration-line:none;text-decoration-style:solid;text-decoration-color:#000000;letter-spacing:normal;word-spacing:normal;text-transform:none;writing-mode:lr-tb;direction:ltr;text-orientation:mixed;dominant-baseline:auto;baseline-shift:baseline;text-anchor:start;white-space:normal;shape-padding:0;clip-rule:nonzero;display:inline;overflow:visible;visibility:visible;opacity:1;isolation:auto;mix-blend-mode:normal;color-interpolation:sRGB;color-interpolation-filters:linearRGB;solid-color:#000000;solid-opacity:1;vector-effect:none;fill:#000000;fill-opacity:1;fill-rule:nonzero;stroke:none;stroke-width:0.96281999;stroke-linecap:round;stroke-linejoin:round;stroke-miterlimit:4;stroke-dasharray:none;stroke-dashoffset:0;stroke-opacity:1;color-rendering:auto;image-rendering:auto;shape-rendering:auto;text-rendering:auto;enable-background:accumulate"
     d="m 13.99812,0.9999987 c -3.978706,0 -7.2136282,3.2349214 -7.2136282,7.2136281 0,3.0398502 1.8907913,5.6411542 4.5564702,6.7021302 v 1.350205 c -4.5426563,1.19054 -7.8917694,5.33991 -7.8435979,10.254408 a 0.48145814,0.48145814 0 1 0 0.96282,-0.01128 C 4.4081231,21.197787 8.6884464,16.875248 14,16.875248 c 5.311555,0 9.591878,4.322539 9.539816,9.633842 a 0.48145814,0.48145814 0 1 0 0.96282,0.01128 c 0.04817,-4.914498 -3.300941,-9.063868 -7.843597,-10.254408 v -1.352086 c 2.664151,-1.061958 4.55459,-3.661873 4.55459,-6.7002492 0,-3.9787067 -3.236803,-7.2136281 -7.215509,-7.2136281 z m 0,0.9628201 c 3.45836,0 6.252689,2.7924479 6.252689,6.250808 0,3.4583602 -2.794329,6.2526882 -6.252689,6.2526882 -3.45836,0 -6.2508082,-2.794328 -6.2508082,-6.2526882 0,-3.4583601 2.7924482,-6.250808 6.2508082,-6.250808 z m 1.698099,13.2556992 v 0.844348 C 15.142563,15.972466 14.579124,15.912426 14,15.912426 c -0.579122,0 -1.142562,0.06004 -1.696218,0.15044 v -0.842467 c 0.544462,0.131783 1.109879,0.208736 1.694338,0.208736 0.585888,0 1.152352,-0.07821 1.698099,-0.210617 z"
     id="Ellipse_54"
     inkscape:connector-curvature="0" />
</svg>
