<?xml version="1.0" encoding="UTF-8" standalone="no"?>
<svg
   xmlns:dc="http://purl.org/dc/elements/1.1/"
   xmlns:cc="http://creativecommons.org/ns#"
   xmlns:rdf="http://www.w3.org/1999/02/22-rdf-syntax-ns#"
   xmlns:svg="http://www.w3.org/2000/svg"
   xmlns="http://www.w3.org/2000/svg"
   xmlns:sodipodi="http://sodipodi.sourceforge.net/DTD/sodipodi-0.dtd"
   xmlns:inkscape="http://www.inkscape.org/namespaces/inkscape"
   id="Icone_L_Comptes"
   data-name="Icone/L/Comptes"
   width="28"
   height="28"
   viewBox="0 0 28 28"
   version="1.1"
   sodipodi:docname="comptes.svg"
   inkscape:version="0.92.3 (2405546, 2018-03-11)">
  <metadata
     id="metadata19">
    <rdf:RDF>
      <cc:Work
         rdf:about="">
        <dc:format>image/svg+xml</dc:format>
        <dc:type
           rdf:resource="http://purl.org/dc/dcmitype/StillImage" />
        <dc:title></dc:title>
      </cc:Work>
    </rdf:RDF>
  </metadata>
  <defs
     id="defs17" />
  <sodipodi:namedview
     pagecolor="#ffffff"
     bordercolor="#666666"
     borderopacity="1"
     objecttolerance="10"
     gridtolerance="10"
     guidetolerance="10"
     inkscape:pageopacity="0"
     inkscape:pageshadow="2"
     inkscape:window-width="1920"
     inkscape:window-height="1052"
     id="namedview15"
     showgrid="false"
     inkscape:zoom="8.4285714"
     inkscape:cx="14"
     inkscape:cy="14"
     inkscape:window-x="0"
     inkscape:window-y="0"
     inkscape:window-maximized="1"
     inkscape:current-layer="Icone_L_Comptes" />
  <path
     style="color:#000000;font-style:normal;font-variant:normal;font-weight:normal;font-stretch:normal;font-size:medium;line-height:normal;font-family:sans-serif;font-variant-ligatures:normal;font-variant-position:normal;font-variant-caps:normal;font-variant-numeric:normal;font-variant-alternates:normal;font-feature-settings:normal;text-indent:0;text-align:start;text-decoration:none;text-decoration-line:none;text-decoration-style:solid;text-decoration-color:#000000;letter-spacing:normal;word-spacing:normal;text-transform:none;writing-mode:lr-tb;direction:ltr;text-orientation:mixed;dominant-baseline:auto;baseline-shift:baseline;text-anchor:start;white-space:normal;shape-padding:0;clip-rule:nonzero;display:inline;overflow:visible;visibility:visible;opacity:1;isolation:auto;mix-blend-mode:normal;color-interpolation:sRGB;color-interpolation-filters:linearRGB;solid-color:#000000;solid-opacity:1;vector-effect:none;fill:#000000;fill-opacity:1;fill-rule:nonzero;stroke:none;stroke-width:0.96976757;stroke-linecap:round;stroke-linejoin:round;stroke-miterlimit:10;stroke-dasharray:none;stroke-dashoffset:0;stroke-opacity:1;color-rendering:auto;image-rendering:auto;shape-rendering:auto;text-rendering:auto;enable-background:accumulate"
     d="M 5.3980438,1.9082041 A 0.48493227,0.48493227 0 0 0 4.91316,2.3930879 V 13.09273 H 3.8752057 a 0.48493227,0.48493227 0 0 0 -0.00189,0 c -1.5790399,0.0057 -2.8675813,1.294276 -2.8733152,2.873316 a 0.48493227,0.48493227 0 0 0 0,0.0019 v 7.248633 a 0.48493227,0.48493227 0 0 0 0,0.0019 c 0.00573,1.579041 1.2942753,2.867582 2.8733152,2.873316 a 0.48493227,0.48493227 0 0 0 0.00189,0 H 17.506879 a 0.48493227,0.48493227 0 0 0 0.0019,0 c 1.575602,-0.0077 2.856463,-1.301512 2.846797,-2.877103 v -2.530488 h 6.15954 A 0.48493227,0.48493227 0 0 0 27,20.19932 V 2.3930879 A 0.48493227,0.48493227 0 0 0 26.515111,1.9082041 Z M 5.8829276,2.8779717 H 26.030227 V 19.714425 H 20.355571 V 15.96794 a 0.48493227,0.48493227 0 0 0 0,-0.0019 c -0.0057,-1.57904 -1.294275,-2.867581 -2.873314,-2.873316 a 0.48493227,0.48493227 0 0 0 -0.0019,0 H 5.8829276 Z M 15.982148,4.747426 c -3.528679,0 -6.386774,2.8963212 -6.3413711,6.42471 a 0.48493227,0.48493227 0 1 0 0.9697671,-0.01326 c -0.03861,-2.9999202 2.371436,-5.4416835 5.371604,-5.4416835 3.000167,0 5.410205,2.4417633 5.371602,5.4416835 a 0.48493227,0.48493227 0 1 0 0.969768,0.01326 c 0.0454,-3.5283888 -2.812692,-6.42471 -6.34137,-6.42471 z m 0.284111,2.59678 c -1.052964,-2.901e-4 -1.938731,0.7462455 -2.161142,1.7349747 h -0.303053 a 0.48493227,0.48493227 0 1 0 0,0.9697673 h 0.304947 c 0.223564,0.987278 1.107335,1.73337 2.159248,1.733081 h 0.583376 a 0.48493227,0.48493227 0 1 0 0,-0.969767 h -0.583376 c -0.52321,5.86e-4 -0.9665,-0.312195 -1.153494,-0.763314 h 1.579662 a 0.48493227,0.48493227 0 1 0 0,-0.9697673 h -1.579662 c 0.18672,-0.4519678 0.629857,-0.7657937 1.153494,-0.7652072 h 0.583376 a 0.48493227,0.48493227 0 1 0 0,-0.9697675 H 16.268153 Z M 3.8752057,14.062498 H 17.480363 c 0.944707,0.0043 1.714986,0.68289 1.871348,1.581554 H 2.0038573 C 2.160217,14.745387 2.9304975,14.066832 3.8752057,14.062498 Z M 1.9697639,16.61382 H 19.385804 v 1.342901 H 1.9697639 Z m 0,2.312669 H 19.385804 v 4.290084 a 0.48493227,0.48493227 0 0 0 0,0.0038 c 0.0064,1.050436 -0.828739,1.895516 -1.878925,1.901654 H 3.8770998 3.8752057 C 2.8192941,25.117178 1.9746074,24.272485 1.9697639,23.216573 Z m 2.5361696,3.441538 a 0.48493227,0.48493227 0 1 0 0,0.969767 h 1.2860784 a 0.48493227,0.48493227 0 1 0 0,-0.969767 z m 3.2559187,0 a 0.48493227,0.48493227 0 1 0 0,0.969767 h 1.3125957 a 0.48493227,0.48493227 0 1 0 0,-0.969767 z m 3.2824358,0 a 0.48493227,0.48493227 0 1 0 0,0.969767 h 1.31449 a 0.48493227,0.48493227 0 1 0 0,-0.969767 z"
     id="Tracé_129"
     inkscape:connector-curvature="0" />
</svg>
