<?xml version="1.0" encoding="UTF-8" standalone="no"?>
<svg
   xmlns:dc="http://purl.org/dc/elements/1.1/"
   xmlns:cc="http://creativecommons.org/ns#"
   xmlns:rdf="http://www.w3.org/1999/02/22-rdf-syntax-ns#"
   xmlns:svg="http://www.w3.org/2000/svg"
   xmlns="http://www.w3.org/2000/svg"
   xmlns:sodipodi="http://sodipodi.sourceforge.net/DTD/sodipodi-0.dtd"
   xmlns:inkscape="http://www.inkscape.org/namespaces/inkscape"
   id="Icone_L_Comptes"
   data-name="Icone/L/Comptes"
   width="28"
   height="28"
   viewBox="0 0 28 28"
   version="1.1"
   sodipodi:docname="comptes-1.svg"
   inkscape:version="0.92.3 (2405546, 2018-03-11)">
  <metadata
     id="metadata17">
    <rdf:RDF>
      <cc:Work
         rdf:about="">
        <dc:format>image/svg+xml</dc:format>
        <dc:type
           rdf:resource="http://purl.org/dc/dcmitype/StillImage" />
        <dc:title></dc:title>
      </cc:Work>
    </rdf:RDF>
  </metadata>
  <defs
     id="defs15" />
  <sodipodi:namedview
     pagecolor="#ffffff"
     bordercolor="#666666"
     borderopacity="1"
     objecttolerance="10"
     gridtolerance="10"
     guidetolerance="10"
     inkscape:pageopacity="0"
     inkscape:pageshadow="2"
     inkscape:window-width="1920"
     inkscape:window-height="1052"
     id="namedview13"
     showgrid="false"
     inkscape:zoom="8.4285714"
     inkscape:cx="14"
     inkscape:cy="14"
     inkscape:window-x="0"
     inkscape:window-y="0"
     inkscape:window-maximized="1"
     inkscape:current-layer="Icone_L_Comptes" />
  <path
     style="color:#000000;font-style:normal;font-variant:normal;font-weight:normal;font-stretch:normal;font-size:medium;line-height:normal;font-family:sans-serif;font-variant-ligatures:normal;font-variant-position:normal;font-variant-caps:normal;font-variant-numeric:normal;font-variant-alternates:normal;font-feature-settings:normal;text-indent:0;text-align:start;text-decoration:none;text-decoration-line:none;text-decoration-style:solid;text-decoration-color:#000000;letter-spacing:normal;word-spacing:normal;text-transform:none;writing-mode:lr-tb;direction:ltr;text-orientation:mixed;dominant-baseline:auto;baseline-shift:baseline;text-anchor:start;white-space:normal;shape-padding:0;clip-rule:nonzero;display:inline;overflow:visible;visibility:visible;opacity:1;isolation:auto;mix-blend-mode:normal;color-interpolation:sRGB;color-interpolation-filters:linearRGB;solid-color:#000000;solid-opacity:1;vector-effect:none;fill:#000000;fill-opacity:1;fill-rule:nonzero;stroke:none;stroke-width:0.96296299;stroke-linecap:round;stroke-linejoin:round;stroke-miterlimit:4;stroke-dasharray:none;stroke-dashoffset:0;stroke-opacity:1;color-rendering:auto;image-rendering:auto;shape-rendering:auto;text-rendering:auto;enable-background:accumulate"
     d="M 1.4814815,2.9682438 A 0.48152963,0.48152963 0 0 0 1,3.4497253 V 24.550275 a 0.48152963,0.48152963 0 0 0 0.4814815,0.481481 H 26.518519 A 0.48152963,0.48152963 0 0 0 27,24.550275 V 3.4497253 A 0.48152963,0.48152963 0 0 0 26.518519,2.9682438 Z M 1.962963,3.9312068 H 26.037037 V 24.068793 H 1.962963 Z m 12.035156,2.490162 c -4.0925765,0 -7.4197046,3.3290054 -7.4197046,7.4215862 a 0.48152963,0.48152963 0 1 0 0.962963,0 c -2e-7,-3.572157 2.8845886,-6.4586232 6.4567416,-6.4586232 3.572154,0 6.458623,2.8864662 6.458623,6.4586232 a 0.48152963,0.48152963 0 1 0 0.962963,0 c 0,-4.0925808 -3.329009,-7.4215862 -7.421586,-7.4215862 z m 0.06395,3.2688084 a 0.48152963,0.48152963 0 0 0 -0.38368,0.201244 l -2.48452,2.4863998 a 0.48152963,0.48152963 0 1 0 0.680845,0.680845 l 1.713397,-1.715277 v 4.991608 a 0.48152963,0.48152963 0 1 0 0.962963,0 v -5.001013 l 1.715278,1.715278 a 0.48209526,0.48209526 0 0 0 0.682725,-0.680845 L 14.410014,9.8312362 a 0.48152963,0.48152963 0 0 0 0,-0.0019 0.48152963,0.48152963 0 0 0 -0.116608,-0.08275 0.48152963,0.48152963 0 0 0 -0.0019,-0.0019 0.48152963,0.48152963 0 0 0 -0.04138,-0.01881 0.48152963,0.48152963 0 0 0 -0.0019,0 0.48152963,0.48152963 0 0 0 -0.186197,-0.03573 z m 7.605903,7.0886858 c -1.232774,0 -2.264912,0.890641 -2.492043,2.059462 h -0.441985 a 0.48152963,0.48152963 0 1 0 0,0.962963 h 0.441985 c 0.227131,1.168821 1.259269,2.059462 2.492043,2.059462 h 0.686487 a 0.48152963,0.48152963 0 1 0 0,-0.962963 h -0.686487 c -0.708031,0 -1.294605,-0.459282 -1.497107,-1.096499 H 22.1645 a 0.48152963,0.48152963 0 1 0 0,-0.962963 h -1.993635 c 0.202502,-0.637218 0.789076,-1.096499 1.497107,-1.096499 h 0.686487 a 0.48152963,0.48152963 0 1 0 0,-0.962963 z M 5.7094907,18.838325 a 0.48152963,0.48152963 0 1 0 0,0.962963 h 3.4305556 a 0.48152963,0.48152963 0 1 0 0,-0.962963 z m 6.6467013,0 a 0.48152963,0.48152963 0 1 0 0,0.962963 h 3.430556 a 0.48152963,0.48152963 0 1 0 0,-0.962963 z"
     id="Rectangle_180"
     inkscape:connector-curvature="0" />
</svg>
