<?xml version="1.0" encoding="UTF-8" standalone="no"?>
<svg
   xmlns:dc="http://purl.org/dc/elements/1.1/"
   xmlns:cc="http://creativecommons.org/ns#"
   xmlns:rdf="http://www.w3.org/1999/02/22-rdf-syntax-ns#"
   xmlns:svg="http://www.w3.org/2000/svg"
   xmlns="http://www.w3.org/2000/svg"
   xmlns:sodipodi="http://sodipodi.sourceforge.net/DTD/sodipodi-0.dtd"
   xmlns:inkscape="http://www.inkscape.org/namespaces/inkscape"
   id="Icone_L_Conseil"
   data-name="Icone/L/Conseil"
   width="28"
   height="28"
   viewBox="0 0 28 28"
   version="1.1"
   sodipodi:docname="conseil.svg"
   inkscape:version="0.92.3 (2405546, 2018-03-11)">
  <metadata
     id="metadata17">
    <rdf:RDF>
      <cc:Work
         rdf:about="">
        <dc:format>image/svg+xml</dc:format>
        <dc:type
           rdf:resource="http://purl.org/dc/dcmitype/StillImage" />
        <dc:title></dc:title>
      </cc:Work>
    </rdf:RDF>
  </metadata>
  <defs
     id="defs15" />
  <sodipodi:namedview
     pagecolor="#ffffff"
     bordercolor="#666666"
     borderopacity="1"
     objecttolerance="10"
     gridtolerance="10"
     guidetolerance="10"
     inkscape:pageopacity="0"
     inkscape:pageshadow="2"
     inkscape:window-width="1920"
     inkscape:window-height="1052"
     id="namedview13"
     showgrid="false"
     inkscape:zoom="8.4285714"
     inkscape:cx="14"
     inkscape:cy="14"
     inkscape:window-x="0"
     inkscape:window-y="0"
     inkscape:window-maximized="1"
     inkscape:current-layer="Icone_L_Conseil" />
  <path
     style="color:#000000;font-style:normal;font-variant:normal;font-weight:normal;font-stretch:normal;font-size:medium;line-height:normal;font-family:sans-serif;font-variant-ligatures:normal;font-variant-position:normal;font-variant-caps:normal;font-variant-numeric:normal;font-variant-alternates:normal;font-feature-settings:normal;text-indent:0;text-align:start;text-decoration:none;text-decoration-line:none;text-decoration-style:solid;text-decoration-color:#000000;letter-spacing:normal;word-spacing:normal;text-transform:none;writing-mode:lr-tb;direction:ltr;text-orientation:mixed;dominant-baseline:auto;baseline-shift:baseline;text-anchor:start;white-space:normal;shape-padding:0;clip-rule:nonzero;display:inline;overflow:visible;visibility:visible;opacity:1;isolation:auto;mix-blend-mode:normal;color-interpolation:sRGB;color-interpolation-filters:linearRGB;solid-color:#000000;solid-opacity:1;vector-effect:none;fill:#000000;fill-opacity:1;fill-rule:nonzero;stroke:none;stroke-width:0.96786386;stroke-linecap:round;stroke-linejoin:round;stroke-miterlimit:10;stroke-dasharray:none;stroke-dashoffset:0;stroke-opacity:1;color-rendering:auto;image-rendering:auto;shape-rendering:auto;text-rendering:auto;enable-background:accumulate"
     d="M 11.377122,0.99999553 A 0.48398033,0.48398033 0 0 0 10.89319,1.4839274 V 3.039693 H 9.1257044 A 0.48398033,0.48398033 0 0 0 8.6417725,3.5236249 V 4.1247591 H 5.8421506 a 0.48398033,0.48398033 0 0 0 -0.00189,0 C 4.8628622,4.1262136 4.0609965,4.9280793 4.059542,5.9054774 a 0.48398033,0.48398033 0 0 0 0,0.00189 V 25.217386 a 0.48398033,0.48398033 0 0 0 0,0.0019 c 0.00145,0.977398 0.8033202,1.779263 1.7807183,1.780718 a 0.48398033,0.48398033 0 0 0 0.00189,0 H 22.15784 a 0.48398033,0.48398033 0 0 0 0.0019,0 c 0.977398,-0.0015 1.779263,-0.80332 1.780718,-1.780718 a 0.48398033,0.48398033 0 0 0 0,-0.0019 V 6.1190879 C 23.941152,5.0232338 23.041974,4.1240559 21.94612,4.1247591 H 19.358219 V 3.5236249 A 0.48398033,0.48398033 0 0 0 18.874287,3.039693 H 17.106801 V 1.4839274 A 0.48398033,0.48398033 0 0 0 16.622869,0.99999553 Z m 0.483932,0.96786377 h 4.277883 v 1.5557656 a 0.48398033,0.48398033 0 0 0 0.483932,0.4839319 h 1.767486 V 5.635156 H 9.6096363 V 4.0075568 H 11.377122 A 0.48398033,0.48398033 0 0 0 11.861054,3.5236249 Z M 5.8421506,5.0926229 h 2.7996219 v 1.026465 a 0.48398033,0.48398033 0 0 0 0.4839319,0.483932 h 9.7485826 a 0.48398033,0.48398033 0 0 0 0.483932,-0.483932 v -1.026465 h 2.587901 c 0.572343,-3.672e-4 1.026832,0.4541223 1.026465,1.026465 V 25.217386 c -6.77e-4,0.455345 -0.3594,0.814068 -0.814745,0.814745 H 5.8421506 C 5.3868059,26.031454 5.0280834,25.672731 5.0274058,25.217386 V 5.9073677 C 5.0280834,5.4520231 5.3868059,5.0933005 5.8421506,5.0926229 Z M 10.673908,8.3326985 A 0.48398033,0.48398033 0 0 0 10.271262,8.5368573 L 8.7249483,10.674854 7.8742866,9.5160633 A 0.48414798,0.48414798 0 1 0 7.0935683,10.088843 l 1.2457467,1.693761 a 0.48398033,0.48398033 0 0 0 0.7807183,-0.0019 L 11.055761,9.1058554 A 0.48398033,0.48398033 0 0 0 10.673908,8.3326985 Z m 2.663517,1.593573 a 0.48398033,0.48398033 0 1 0 0,0.9678635 h 7.444234 a 0.48398033,0.48398033 0 1 0 0,-0.9678635 z M 10.673908,14.187141 A 0.48398033,0.48398033 0 0 0 10.271262,14.3913 L 8.7249483,16.529296 7.8742866,15.368615 a 0.48414792,0.48414792 0 1 0 -0.7807183,0.572779 l 1.2457467,1.695652 a 0.48398033,0.48398033 0 0 0 0.7807183,-0.0019 l 1.9357277,-2.674848 a 0.48398033,0.48398033 0 0 0 -0.381853,-0.773157 z m 2.663517,1.593573 a 0.48398033,0.48398033 0 1 0 0,0.967863 h 4.26465 a 0.48398033,0.48398033 0 1 0 0,-0.967863 z m -2.663517,3.729678 a 0.48398033,0.48398033 0 0 0 -0.402646,0.20605 L 8.7249483,21.852548 7.8742866,20.693757 a 0.48414792,0.48414792 0 1 0 -0.7807183,0.572779 l 1.2457467,1.695652 a 0.48398033,0.48398033 0 0 0 0.7807183,-0.0038 L 11.055761,20.28353 a 0.48398033,0.48398033 0 0 0 -0.381853,-0.773157 z m 2.663517,1.621928 a 0.48398033,0.48398033 0 1 0 0,0.967864 h 6.383743 a 0.48398033,0.48398033 0 1 0 0,-0.967864 z"
     id="Tracé_155"
     inkscape:connector-curvature="0" />
</svg>
