<?xml version="1.0" encoding="UTF-8" standalone="no"?>
<svg
   xmlns:dc="http://purl.org/dc/elements/1.1/"
   xmlns:cc="http://creativecommons.org/ns#"
   xmlns:rdf="http://www.w3.org/1999/02/22-rdf-syntax-ns#"
   xmlns:svg="http://www.w3.org/2000/svg"
   xmlns="http://www.w3.org/2000/svg"
   xmlns:sodipodi="http://sodipodi.sourceforge.net/DTD/sodipodi-0.dtd"
   xmlns:inkscape="http://www.inkscape.org/namespaces/inkscape"
   id="Icone_L_Conseiller"
   data-name="Icone/L/Conseiller"
   width="28"
   height="28"
   viewBox="0 0 28 28"
   version="1.1"
   sodipodi:docname="conseiller.svg"
   inkscape:version="0.92.3 (2405546, 2018-03-11)">
  <metadata
     id="metadata15">
    <rdf:RDF>
      <cc:Work
         rdf:about="">
        <dc:format>image/svg+xml</dc:format>
        <dc:type
           rdf:resource="http://purl.org/dc/dcmitype/StillImage" />
        <dc:title></dc:title>
      </cc:Work>
    </rdf:RDF>
  </metadata>
  <defs
     id="defs13" />
  <sodipodi:namedview
     pagecolor="#ffffff"
     bordercolor="#666666"
     borderopacity="1"
     objecttolerance="10"
     gridtolerance="10"
     guidetolerance="10"
     inkscape:pageopacity="0"
     inkscape:pageshadow="2"
     inkscape:window-width="1920"
     inkscape:window-height="1052"
     id="namedview11"
     showgrid="false"
     inkscape:zoom="8.4285714"
     inkscape:cx="14"
     inkscape:cy="14"
     inkscape:window-x="0"
     inkscape:window-y="0"
     inkscape:window-maximized="1"
     inkscape:current-layer="Icone_L_Conseiller" />
  <path
     style="color:#000000;font-style:normal;font-variant:normal;font-weight:normal;font-stretch:normal;font-size:medium;line-height:normal;font-family:sans-serif;font-variant-ligatures:normal;font-variant-position:normal;font-variant-caps:normal;font-variant-numeric:normal;font-variant-alternates:normal;font-feature-settings:normal;text-indent:0;text-align:start;text-decoration:none;text-decoration-line:none;text-decoration-style:solid;text-decoration-color:#000000;letter-spacing:normal;word-spacing:normal;text-transform:none;writing-mode:lr-tb;direction:ltr;text-orientation:mixed;dominant-baseline:auto;baseline-shift:baseline;text-anchor:start;white-space:normal;shape-padding:0;clip-rule:nonzero;display:inline;overflow:visible;visibility:visible;opacity:1;isolation:auto;mix-blend-mode:normal;color-interpolation:sRGB;color-interpolation-filters:linearRGB;solid-color:#000000;solid-opacity:1;vector-effect:none;fill:#000000;fill-opacity:1;fill-rule:nonzero;stroke:none;stroke-width:1.03364122;stroke-linecap:round;stroke-linejoin:round;stroke-miterlimit:10;stroke-dasharray:none;stroke-dashoffset:0;stroke-opacity:1;color-rendering:auto;image-rendering:auto;shape-rendering:auto;text-rendering:auto;enable-background:accumulate"
     d="m 13.973648,0.99999449 c -3.427627,0 -6.2159798,2.79037101 -6.2159798,6.21799821 0,3.4276273 2.7883528,6.2159793 6.2159798,6.2159793 3.427627,0 6.217998,-2.788352 6.217998,-6.2159793 0,-3.4276272 -2.790371,-6.21799821 -6.217998,-6.21799821 z m 0,1.03364121 c 2.869006,0 5.184356,2.315351 5.184356,5.184357 0,2.8690053 -2.31535,5.1823383 -5.184356,5.1823383 -2.869006,0 -5.1823386,-2.313333 -5.1823386,-5.1823383 0,-2.869006 2.3133326,-5.184357 5.1823386,-5.184357 z m 0.02624,13.2213223 c -5.8159587,0 -10.5248964,4.756954 -10.4656184,10.572615 a 0.51687231,0.51687231 0 1 0 1.0336413,-0.01009 c -0.044716,-4.386958 2.903053,-8.080891 6.9346831,-9.18366 l 0.878192,2.218694 a 0.51687231,0.51687231 0 0 0 -0.004,0.0424 l -0.581423,7.548407 a 0.5173113,0.5173113 0 1 0 1.031622,0.07874 l 0.55316,-7.201169 h 1.160828 l 0.553159,7.201169 a 0.5173118,0.5173118 0 1 0 1.031623,-0.07874 l -0.581423,-7.538312 0.904436,-2.283298 c 4.056758,1.086356 7.030046,4.791383 6.985153,9.195773 a 0.51687231,0.51687231 0 1 0 1.031622,0.01009 c 0.05925,-5.815665 -4.649692,-10.572619 -10.46565,-10.572619 z m 0,1.033641 c 0.485103,0 0.958132,0.04678 1.423275,0.117092 l -0.744948,1.88155 H 13.269071 L 12.52816,16.413766 c 0.480504,-0.0752 0.969718,-0.125167 1.471728,-0.125167 z"
     id="Ellipse_5"
     inkscape:connector-curvature="0" />
</svg>
