<?xml version="1.0" encoding="UTF-8" standalone="no"?>
<svg
   xmlns:dc="http://purl.org/dc/elements/1.1/"
   xmlns:cc="http://creativecommons.org/ns#"
   xmlns:rdf="http://www.w3.org/1999/02/22-rdf-syntax-ns#"
   xmlns:svg="http://www.w3.org/2000/svg"
   xmlns="http://www.w3.org/2000/svg"
   xmlns:sodipodi="http://sodipodi.sourceforge.net/DTD/sodipodi-0.dtd"
   xmlns:inkscape="http://www.inkscape.org/namespaces/inkscape"
   id="Icone_M_Etre_conseillé"
   data-name="Icone/M/Etre conseillé"
   width="28"
   height="28"
   viewBox="0 0 28 28"
   version="1.1"
   sodipodi:docname="conseill-2.svg"
   inkscape:version="0.92.3 (2405546, 2018-03-11)">
  <metadata
     id="metadata16">
    <rdf:RDF>
      <cc:Work
         rdf:about="">
        <dc:format>image/svg+xml</dc:format>
        <dc:type
           rdf:resource="http://purl.org/dc/dcmitype/StillImage" />
        <dc:title></dc:title>
      </cc:Work>
    </rdf:RDF>
  </metadata>
  <defs
     id="defs14" />
  <sodipodi:namedview
     pagecolor="#ffffff"
     bordercolor="#666666"
     borderopacity="1"
     objecttolerance="10"
     gridtolerance="10"
     guidetolerance="10"
     inkscape:pageopacity="0"
     inkscape:pageshadow="2"
     inkscape:window-width="1920"
     inkscape:window-height="1052"
     id="namedview12"
     showgrid="false"
     inkscape:zoom="8.4285714"
     inkscape:cx="14"
     inkscape:cy="14"
     inkscape:window-x="0"
     inkscape:window-y="0"
     inkscape:window-maximized="1"
     inkscape:current-layer="Icone_M_Etre_conseillé" />
  <path
     id="Ellipse_60"
     style="fill:#000000;stroke-width:0.96112031;fill-opacity:1"
     d="m 12.036197,8.3776011 a 0.60070019,0.60070019 0 0 1 -0.6007,0.6007002 0.60070019,0.60070019 0 0 1 -0.6007,-0.6007002 0.60070019,0.60070019 0 0 1 0.6007,-0.6007002 0.60070019,0.60070019 0 0 1 0.6007,0.6007002 z m 5.060298,0 a 0.60070019,0.60070019 0 0 1 -0.6007,0.6007002 0.60070019,0.60070019 0 0 1 -0.600701,-0.6007002 0.60070019,0.60070019 0 0 1 0.600701,-0.6007002 0.60070019,0.60070019 0 0 1 0.6007,0.6007002 z m -2.53159,0 a 0.60070019,0.60070019 0 0 1 -0.6007,0.6007002 0.60070019,0.60070019 0 0 1 -0.6007,-0.6007002 0.60070019,0.60070019 0 0 1 0.6007,-0.6007002 0.60070019,0.60070019 0 0 1 0.6007,0.6007002 z m 9.981565,7.0619809 c -0.408581,-0.03414 -0.868974,0.04795 -1.36847,0.24779 -2.395894,0.958551 -4.449725,1.922644 -5.338724,2.352116 -0.245263,0.118877 -0.515864,0.178979 -0.788418,0.178333 h -1.00805 a 0.48060821,0.48060821 0 0 0 -0.07884,-0.0037 0.48060821,0.48060821 0 0 0 -0.04693,0.0037 H 7.306374 c -0.4651499,-3.65e-4 -0.9258954,0.08265 -1.3628386,0.242157 v -0.0019 l -3.692429,1.340312 a 0.48060821,0.48060821 0 1 0 0.3266307,0.902928 l 3.6943062,-1.338435 a 0.48060821,0.48060821 0 0 0 0,-0.0019 C 6.6031434,19.240154 6.9539,19.178576 7.306374,19.178852 h 8.513049 c 0.03947,0.04977 0.09071,0.124356 0.137034,0.217754 0.09903,0.199651 0.171566,0.465485 0.16707,0.677665 -0.0045,0.212179 -0.05186,0.349347 -0.217754,0.476806 -0.165893,0.127459 -0.514071,0.256552 -1.165734,0.230893 -0.833864,-0.03399 -2.100106,-0.03272 -3.174325,-0.0244 -0.53711,0.0041 -1.025716,0.0098 -1.383488,0.01502 -0.178886,0.0026 -0.3243933,0.0039 -0.4279988,0.0057 -0.1036055,0.0017 -0.1976587,0.0037 -0.1651925,0.0037 a 0.48060821,0.48060821 0 1 0 0,0.96112 c 0.048805,0 0.076886,-0.0021 0.1802101,-0.0037 0.1033242,-0.0016 0.2498732,-0.0031 0.4279982,-0.0057 0.356251,-0.0052 0.841801,-0.01087 1.37598,-0.01502 1.068358,-0.0083 2.334082,-0.0079 3.127395,0.0244 a 0.48060821,0.48060821 0 0 0 0.0019,0 c 0.788576,0.03104 1.374381,-0.112787 1.787083,-0.429877 0.412702,-0.317089 0.58611,-0.795533 0.595069,-1.218295 0.0071,-0.338341 -0.07883,-0.642241 -0.189596,-0.916067 h 0.155807 c 0.417875,7.1e-4 0.830984,-0.09368 1.207032,-0.275947 v 0.0019 c 0.873697,-0.42208 2.913156,-1.379447 5.278652,-2.325837 0.524353,-0.209782 0.896438,-0.212846 1.126314,-0.144543 0.229874,0.06831 0.342482,0.189971 0.411104,0.371683 0.137244,0.363426 -0.0088,1.0317 -0.700192,1.492365 -0.803399,0.536446 -2.352442,1.749612 -3.962744,2.973466 -1.610301,1.223853 -3.288067,2.459172 -4.172989,2.949062 v -0.0019 c -0.458495,0.252847 -0.972527,0.385601 -1.496118,0.384823 a 0.48060821,0.48060821 0 0 0 -0.0019,0 H 9.891262 c -2.0814729,-0.14221 -4.1545515,0.385632 -5.9131426,1.509349 a 0.48116106,0.48116106 0 1 0 0.5181039,0.810945 c 1.5943486,-1.018765 3.4740959,-1.496925 5.3612492,-1.360959 a 0.48060821,0.48060821 0 0 0 0.033789,0.0019 h 4.8487775 c 0.686353,0.0011 1.362517,-0.171641 1.963539,-0.503086 1.024826,-0.567342 2.670838,-1.795465 4.287497,-3.02415 1.61666,-1.228685 3.197761,-2.460218 3.915815,-2.939677 0.996336,-0.663845 1.397305,-1.755157 1.066243,-2.631817 -0.165531,-0.438331 -0.538605,-0.805755 -1.036208,-0.953612 -0.124401,-0.03697 -0.254261,-0.06183 -0.390455,-0.07321 z M 13.900936,1.9407232 c 1.272841,-0.014234 2.609129,0.3886817 3.883903,1.3440666 2.913765,2.1837368 3.146733,5.4831746 1.830257,8.0212242 -1.316475,2.538051 -4.146659,4.246727 -7.615752,3.116132 a 0.48084063,0.48084063 0 0 0 -0.0019,0 0.48114343,0.48114343 0 0 0 -0.04505,-0.01314 0.48084063,0.48084063 0 0 0 -0.0019,0 0.48114343,0.48114343 0 0 0 -0.04505,-0.0075 0.48084063,0.48084063 0 0 0 -0.0019,0 0.48114343,0.48114343 0 0 0 -0.191473,0.0169 0.48114343,0.48114343 0 0 0 -0.01877,0.0057 l -0.0244,0.0094 -3.403342,1.165734 0.4542796,-3.09736 a 0.48084052,0.48084052 0 0 0 -0.00187,-0.538753 C 6.659202,8.9507025 7.5037252,5.7544027 9.5702628,3.7784903 10.73269,2.6670396 12.264427,1.9590245 13.900936,1.9407232 Z m 0.01502,-0.9404713 c -0.210639,0.00206 -0.419447,0.012899 -0.626981,0.033789 C 11.628706,1.2011635 10.083478,1.9578394 8.9057381,3.0839307 6.6031402,5.2855514 5.6633838,8.9535333 7.7813025,12.276521 L 7.1993742,16.239265 A 0.48060821,0.48060821 0 0 0 7.8319866,16.763 l 4.0340774,-1.381611 c 3.824565,1.161047 7.123965,-0.780613 8.603153,-3.632359 C 21.969761,8.8561133 21.63379,4.9678514 18.361135,2.5151427 16.929348,1.4420827 15.390428,0.98580814 13.915954,1.0002519 Z"
     inkscape:connector-curvature="0" />
</svg>
