<?xml version="1.0" encoding="UTF-8" standalone="no"?>
<svg
   xmlns:dc="http://purl.org/dc/elements/1.1/"
   xmlns:cc="http://creativecommons.org/ns#"
   xmlns:rdf="http://www.w3.org/1999/02/22-rdf-syntax-ns#"
   xmlns:svg="http://www.w3.org/2000/svg"
   xmlns="http://www.w3.org/2000/svg"
   xmlns:sodipodi="http://sodipodi.sourceforge.net/DTD/sodipodi-0.dtd"
   xmlns:inkscape="http://www.inkscape.org/namespaces/inkscape"
   id="Icone_L_Conseiller_round"
   data-name="Icone/L/Conseiller round"
   width="28"
   height="28"
   viewBox="0 0 28 28"
   version="1.1"
   sodipodi:docname="conseiller-round.svg"
   inkscape:version="0.92.3 (2405546, 2018-03-11)">
  <metadata
     id="metadata27">
    <rdf:RDF>
      <cc:Work
         rdf:about="">
        <dc:format>image/svg+xml</dc:format>
        <dc:type
           rdf:resource="http://purl.org/dc/dcmitype/StillImage" />
        <dc:title></dc:title>
      </cc:Work>
    </rdf:RDF>
  </metadata>
  <sodipodi:namedview
     pagecolor="#ffffff"
     bordercolor="#666666"
     borderopacity="1"
     objecttolerance="10"
     gridtolerance="10"
     guidetolerance="10"
     inkscape:pageopacity="0"
     inkscape:pageshadow="2"
     inkscape:window-width="1920"
     inkscape:window-height="1052"
     id="namedview25"
     showgrid="false"
     inkscape:zoom="23.8396"
     inkscape:cx="18.613186"
     inkscape:cy="11.333477"
     inkscape:window-x="0"
     inkscape:window-y="0"
     inkscape:window-maximized="1"
     inkscape:current-layer="Icone_L_Conseiller_round" />
  <defs
     id="defs6">
    <clipPath
       id="clip-path">
      <path
         id="Tracé_399"
         data-name="Tracé 399"
         d="M58.64,68.983a2.145,2.145,0,0,0-.855-.172,1.7,1.7,0,0,1-.222-1h-.311a2.077,2.077,0,0,0,.257,1.141,1.523,1.523,0,0,1-1.43.583v.315a1.948,1.948,0,0,0,.2,0,1.848,1.848,0,0,0,1.487-.744,1.788,1.788,0,0,1,.865.211Z"
         transform="translate(-56.08 -67.81)"
         fill="#444" />
    </clipPath>
    <clipPath
       id="clip-path-2">
      <path
         id="Tracé_400"
         data-name="Tracé 400"
         d="M58.683,69.372a1.788,1.788,0,0,0-1.241-.518,2.145,2.145,0,0,1-.218-.944h-.311a2.406,2.406,0,0,0,.275,1.1,1.43,1.43,0,0,1-1.008.586v.311a1.788,1.788,0,0,0,1.294-.758,1.409,1.409,0,0,1,1.212.715Z"
         transform="translate(-56.18 -67.91)"
         fill="none" />
    </clipPath>
  </defs>
  <path
     style="color:#000000;font-style:normal;font-variant:normal;font-weight:normal;font-stretch:normal;font-size:medium;line-height:normal;font-family:sans-serif;font-variant-ligatures:normal;font-variant-position:normal;font-variant-caps:normal;font-variant-numeric:normal;font-variant-alternates:normal;font-feature-settings:normal;text-indent:0;text-align:start;text-decoration:none;text-decoration-line:none;text-decoration-style:solid;text-decoration-color:#000000;letter-spacing:normal;word-spacing:normal;text-transform:none;writing-mode:lr-tb;direction:ltr;text-orientation:mixed;dominant-baseline:auto;baseline-shift:baseline;text-anchor:start;white-space:normal;shape-padding:0;clip-rule:nonzero;display:inline;overflow:visible;visibility:visible;opacity:1;isolation:auto;mix-blend-mode:normal;color-interpolation:sRGB;color-interpolation-filters:linearRGB;solid-color:#000000;solid-opacity:1;vector-effect:none;fill:#000000;fill-opacity:1;fill-rule:nonzero;stroke:none;stroke-width:0.96296299;stroke-linecap:round;stroke-linejoin:round;stroke-miterlimit:4;stroke-dasharray:none;stroke-dashoffset:0;stroke-opacity:1;color-rendering:auto;image-rendering:auto;shape-rendering:auto;text-rendering:auto;enable-background:accumulate"
     d="M 14,1 C 6.8260012,1 1,6.8260012 1,14 c 0,3.719409 1.5752137,7.067111 4.0831887,9.437789 a 0.48152963,0.48152963 0 0 0 0.2445022,0.223814 c 0,0 0.00188,0 0.00188,0 C 7.6320969,25.729902 10.664919,27 14,27 21.173999,27 27,21.173999 27,14 27,6.8260012 21.173999,1 14,1 Z m 0,0.962963 c 6.653575,0 12.037037,5.383462 12.037037,12.037037 0,3.188809 -1.244774,6.077796 -3.265046,8.230324 -0.439106,-3.613758 -3.115,-6.518069 -6.573351,-7.340712 v -0.885851 a 0.48152963,0.48152963 0 0 0 -0.02445,-0.156105 c 1.821668,-0.84297 3.092015,-2.683567 3.092015,-4.8185762 0,-2.9278698 -2.383473,-5.3132233 -5.311343,-5.3132233 -2.92787,0 -5.3113425,2.3853535 -5.3113425,5.3132233 0,2.1138062 1.2448655,3.9398822 3.0374715,4.7941262 a 0.48152963,0.48152963 0 0 0 -0.03197,0.180555 v 0.887732 C 8.2374617,15.708265 5.5966027,18.555013 5.115162,22.106192 3.162402,19.966915 1.962963,17.128446 1.962963,14 1.962963,7.346425 7.346425,1.962963 14,1.962963 Z m -0.04514,2.7158564 c 1.834081,0 3.391789,1.131187 4.032408,2.7327836 C 17.250931,7.1395374 16.585971,6.6970185 16.051938,6.1119792 A 0.48152963,0.48152963 0 0 0 15.711516,5.953993 0.48152963,0.48152963 0 0 0 15.260128,6.2323496 c 0,0 -0.299208,0.6579966 -1.177373,1.2281539 C 13.248685,8.0020304 11.901314,8.43912 9.7456597,7.9871239 10.212563,6.0877801 11.908698,4.6788194 13.95486,4.6788194 Z m 1.773582,2.3904804 c 0.720426,0.6661349 1.572416,1.1685989 2.520255,1.4181134 0.02239,0.1793863 0.05454,0.3560809 0.05454,0.5416666 0,2.4074462 -1.940934,4.3483802 -4.34838,4.3483802 -2.407446,0 -4.3483795,-1.940934 -4.3483795,-4.3483802 0,-0.029666 0.00882,-0.056994 0.0094,-0.086516 2.3307825,0.4692715 3.9656355,-0.0072 4.9916085,-0.6733218 0.801877,-0.5206267 0.940073,-0.899641 1.120949,-1.1999421 z m -3.116464,7.0924482 c 0.42985,0.112691 0.878265,0.178675 1.342882,0.178675 0.442256,0 0.869741,-0.05932 1.280816,-0.161748 v 0.539786 c -0.427721,-0.05125 -0.861492,-0.08177 -1.305266,-0.06771 -0.448312,-0.01433 -0.88654,0.01723 -1.318432,0.06959 z m 1.301505,1.448206 a 0.48152963,0.48152963 0 0 0 0.03385,0 c 0.381785,-0.01278 0.754568,0.01136 1.122831,0.05266 l -0.583045,1.461373 H 13.36241 l -0.584925,-1.459491 c 0.372502,-0.04232 0.749594,-0.06767 1.135995,-0.05454 z m 2.12529,0.223813 c 3.285051,0.80593 5.747757,3.724344 5.828558,7.267362 -1.634194,1.413773 -3.650245,2.388674 -5.87746,2.759114 l -0.690249,-8.175781 z m -4.228011,0.0019 0.729746,1.826244 a 0.48152963,0.48152963 0 0 0 -0.0019,0.01505 L 11.85026,25.835793 C 9.6271186,25.435306 7.6227473,24.426835 6.0047743,22.9864 6.1324259,19.499377 8.5675745,16.635959 11.810763,15.835648 Z m 1.658855,2.251303 h 0.899016 l 0.665799,7.897424 c -0.341603,0.02906 -0.685238,0.05266 -1.034433,0.05266 -0.403784,0 -0.80267,-0.02145 -1.196181,-0.06019 z m 4.730179,0.692129 c -1.1776,0 -2.140335,0.962734 -2.140335,2.140336 v 0.0019 c 0,1.177601 0.962735,2.140336 2.140335,2.140336 h 0.0019 c 1.177602,0 2.140336,-0.962735 2.140336,-2.140336 v -0.0019 c 0,-1.177602 -0.962734,-2.140336 -2.140336,-2.140336 z m 0,0.962963 h 0.0019 c 0.660777,0 1.177373,0.516596 1.177373,1.177373 v 0.0019 c 0,0.660777 -0.516596,1.177373 -1.177373,1.177373 h -0.0019 c -0.660776,0 -1.177372,-0.516596 -1.177372,-1.177373 v -0.0019 c 0,-0.660777 0.516596,-1.177373 1.177372,-1.177373 z"
     id="Ellipse_65"
     inkscape:connector-curvature="0" />
</svg>
