<?xml version="1.0" encoding="UTF-8" standalone="no"?>
<svg
   xmlns:dc="http://purl.org/dc/elements/1.1/"
   xmlns:cc="http://creativecommons.org/ns#"
   xmlns:rdf="http://www.w3.org/1999/02/22-rdf-syntax-ns#"
   xmlns:svg="http://www.w3.org/2000/svg"
   xmlns="http://www.w3.org/2000/svg"
   xmlns:sodipodi="http://sodipodi.sourceforge.net/DTD/sodipodi-0.dtd"
   xmlns:inkscape="http://www.inkscape.org/namespaces/inkscape"
   id="Icone_L_Conseiller_messagerie_-_prise_RDV_-contact_agence_3"
   data-name="Icone/L/Conseiller messagerie - prise RDV -contact agence 3"
   width="28"
   height="28"
   viewBox="0 0 28 28"
   version="1.1"
   sodipodi:docname="contact-agence-2.svg"
   inkscape:version="0.92.3 (2405546, 2018-03-11)">
  <metadata
     id="metadata26">
    <rdf:RDF>
      <cc:Work
         rdf:about="">
        <dc:format>image/svg+xml</dc:format>
        <dc:type
           rdf:resource="http://purl.org/dc/dcmitype/StillImage" />
        <dc:title></dc:title>
      </cc:Work>
    </rdf:RDF>
  </metadata>
  <sodipodi:namedview
     pagecolor="#ffffff"
     bordercolor="#666666"
     borderopacity="1"
     objecttolerance="10"
     gridtolerance="10"
     guidetolerance="10"
     inkscape:pageopacity="0"
     inkscape:pageshadow="2"
     inkscape:window-width="1920"
     inkscape:window-height="1052"
     id="namedview24"
     showgrid="false"
     inkscape:zoom="16.857143"
     inkscape:cx="9.4820868"
     inkscape:cy="15.882353"
     inkscape:window-x="0"
     inkscape:window-y="0"
     inkscape:window-maximized="1"
     inkscape:current-layer="Icone_L_Conseiller_messagerie_-_prise_RDV_-contact_agence_3" />
  <defs
     id="defs6">
    <clipPath
       id="clip-path">
      <path
         id="Tracé_305"
         data-name="Tracé 305"
         d="M69.188,79.51a2.908,2.908,0,0,0-1.126-.225,2.239,2.239,0,0,1-.274-1.315h-.425a2.716,2.716,0,0,0,.334,1.51,2,2,0,0,1-1.877.767v.411a2.292,2.292,0,0,0,.274,0,2.444,2.444,0,0,0,1.968-.962,2.346,2.346,0,0,1,1.14.274Z"
         transform="translate(-65.82 -77.97)"
         fill="#444" />
    </clipPath>
    <clipPath
       id="clip-path-2">
      <path
         id="Tracé_306"
         data-name="Tracé 306"
         d="M69.288,79.994a2.357,2.357,0,0,0-1.644-.68,2.844,2.844,0,0,1-.274-1.244h-.408a3.149,3.149,0,0,0,.356,1.472,1.852,1.852,0,0,1-1.318.77v.411a2.313,2.313,0,0,0,1.7-1,1.858,1.858,0,0,1,1.584.951Z"
         transform="translate(-66 -78.07)"
         fill="none" />
    </clipPath>
  </defs>
  <path
     style="color:#000000;font-style:normal;font-variant:normal;font-weight:normal;font-stretch:normal;font-size:medium;line-height:normal;font-family:sans-serif;font-variant-ligatures:normal;font-variant-position:normal;font-variant-caps:normal;font-variant-numeric:normal;font-variant-alternates:normal;font-feature-settings:normal;text-indent:0;text-align:start;text-decoration:none;text-decoration-line:none;text-decoration-style:solid;text-decoration-color:#000000;letter-spacing:normal;word-spacing:normal;text-transform:none;writing-mode:lr-tb;direction:ltr;text-orientation:mixed;dominant-baseline:auto;baseline-shift:baseline;text-anchor:start;white-space:normal;shape-padding:0;clip-rule:nonzero;display:inline;overflow:visible;visibility:visible;opacity:1;isolation:auto;mix-blend-mode:normal;color-interpolation:sRGB;color-interpolation-filters:linearRGB;solid-color:#000000;solid-opacity:1;vector-effect:none;fill:#000000;fill-opacity:1;fill-rule:nonzero;stroke:none;stroke-width:0.96277869;stroke-linecap:round;stroke-linejoin:round;stroke-miterlimit:4;stroke-dasharray:none;stroke-dashoffset:0;stroke-opacity:1;color-rendering:auto;image-rendering:auto;shape-rendering:auto;text-rendering:auto;enable-background:accumulate"
     d="m 14.033837,1.0000005 c -3.771694,0 -6.840994,3.0674196 -6.840994,6.8391134 0,2.7404481 1.6236087,5.1018581 3.95642,6.1922461 v 1.28057 C 6.1445249,16.585329 2.4316016,21.113705 2.4316016,26.511755 a 0.48143747,0.48143747 0 1 0 0.9627787,0 c 0,-4.94032 3.3717609,-9.0735 7.9391637,-10.25585 l 0.989105,2.480284 a 0.48143747,0.48143747 0 0 0 -0.0056,0.04701 l -0.643106,7.634535 a 0.48143747,0.48143747 0 1 0 0.959018,0.08086 l 0.61866,-7.333666 h 1.462972 l 0.620542,7.333666 a 0.48143747,0.48143747 0 1 0 0.959018,-0.08086 l -0.646868,-7.634535 a 0.48143747,0.48143747 0 0 0 -0.0019,-0.01128 l 1.007909,-2.519771 c 4.574149,1.17775 7.952326,5.314507 7.952326,10.25961 a 0.48143747,0.48143747 0 1 0 0.962779,0 c 0,-5.40266 -3.719597,-9.932807 -8.730823,-11.201705 v -1.239201 c 2.375293,-1.073176 4.035397,-3.459961 4.035397,-6.2317351 0,-3.7716938 -3.06742,-6.8391134 -6.839114,-6.8391134 z m 0,0.9627787 c 2.585951,0 4.770573,1.6635339 5.558543,3.9789837 C 18.480853,5.5916448 17.470762,4.971876 16.677718,4.1064661 A 0.48143747,0.48143747 0 0 0 16.288469,3.9503906 0.48143747,0.48143747 0 0 0 15.886058,4.2286938 c 0,0 -0.415025,0.9075229 -1.604004,1.6792214 C 13.130158,6.655545 11.262453,7.2496889 8.2910125,6.584869 8.8644353,3.9387991 11.213311,1.9627792 14.033837,1.9627792 Z m 2.405066,3.1685196 c 0.967496,0.9000181 2.121284,1.5727231 3.407335,1.8823076 0.03791,0.2703228 0.06393,0.5445395 0.06393,0.8255075 0,3.2513691 -2.624965,5.8763341 -5.876335,5.8763341 -3.251369,0 -5.8782153,-2.624965 -5.8782153,-5.8763341 0,-0.1003384 0.010099,-0.198021 0.015043,-0.2971075 3.1331103,0.6773347 5.2911533,0.047374 6.6360283,-0.8255075 0.90439,-0.5869884 1.355462,-1.1651698 1.63221,-1.5852001 z m -4.326862,9.2667452 c 0.610282,0.178983 1.25442,0.280183 1.921796,0.280183 0.638797,0 1.254027,-0.095 1.840939,-0.259499 v 0.690117 c -0.611571,-0.100109 -1.235135,-0.165478 -1.874786,-0.165478 -0.644224,0 -1.272239,0.06584 -1.887949,0.167358 z m 1.887949,1.508102 c 0.578721,0 1.142746,0.05775 1.696145,0.146673 L 14.83678,18.202148 H 13.146275 L 12.290681,16.0547 c 0.557537,-0.0903 1.126021,-0.148554 1.709309,-0.148554 z m 5.618715,4.738676 c -1.316587,0 -2.391903,1.075316 -2.391902,2.391903 0,1.316588 1.075315,2.390023 2.391902,2.390023 1.31659,0 2.391904,-1.073435 2.391905,-2.390023 0,-1.316587 -1.075315,-2.391903 -2.391905,-2.391903 z m 0,0.962779 c 0.799862,0 1.429125,0.629262 1.429126,1.429124 0,0.799862 -0.629263,1.427245 -1.429126,1.427245 -0.799861,0 -1.429124,-0.627383 -1.429123,-1.427245 0,-0.799862 0.629263,-1.429124 1.429123,-1.429124 z"
     id="Tracé_301"
     inkscape:connector-curvature="0" />
</svg>
