<?xml version="1.0" encoding="UTF-8" standalone="no"?>
<svg
   xmlns:dc="http://purl.org/dc/elements/1.1/"
   xmlns:cc="http://creativecommons.org/ns#"
   xmlns:rdf="http://www.w3.org/1999/02/22-rdf-syntax-ns#"
   xmlns:svg="http://www.w3.org/2000/svg"
   xmlns="http://www.w3.org/2000/svg"
   xmlns:sodipodi="http://sodipodi.sourceforge.net/DTD/sodipodi-0.dtd"
   xmlns:inkscape="http://www.inkscape.org/namespaces/inkscape"
   id="Icone_L_Contacts"
   data-name="Icone/L/Contacts"
   width="28"
   height="28"
   viewBox="0 0 28 28"
   version="1.1"
   sodipodi:docname="contacts.svg"
   inkscape:version="0.92.3 (2405546, 2018-03-11)">
  <metadata
     id="metadata14">
    <rdf:RDF>
      <cc:Work
         rdf:about="">
        <dc:format>image/svg+xml</dc:format>
        <dc:type
           rdf:resource="http://purl.org/dc/dcmitype/StillImage" />
        <dc:title></dc:title>
      </cc:Work>
    </rdf:RDF>
  </metadata>
  <defs
     id="defs12" />
  <sodipodi:namedview
     pagecolor="#ffffff"
     bordercolor="#666666"
     borderopacity="1"
     objecttolerance="10"
     gridtolerance="10"
     guidetolerance="10"
     inkscape:pageopacity="0"
     inkscape:pageshadow="2"
     inkscape:window-width="1920"
     inkscape:window-height="1052"
     id="namedview10"
     showgrid="false"
     inkscape:zoom="8.4285714"
     inkscape:cx="14"
     inkscape:cy="14"
     inkscape:window-x="0"
     inkscape:window-y="0"
     inkscape:window-maximized="1"
     inkscape:current-layer="Icone_L_Contacts" />
  <path
     style="color:#000000;font-style:normal;font-variant:normal;font-weight:normal;font-stretch:normal;font-size:medium;line-height:normal;font-family:sans-serif;font-variant-ligatures:normal;font-variant-position:normal;font-variant-caps:normal;font-variant-numeric:normal;font-variant-alternates:normal;font-feature-settings:normal;text-indent:0;text-align:start;text-decoration:none;text-decoration-line:none;text-decoration-style:solid;text-decoration-color:#000000;letter-spacing:normal;word-spacing:normal;text-transform:none;writing-mode:lr-tb;direction:ltr;text-orientation:mixed;dominant-baseline:auto;baseline-shift:baseline;text-anchor:start;white-space:normal;shape-padding:0;clip-rule:nonzero;display:inline;overflow:visible;visibility:visible;opacity:1;isolation:auto;mix-blend-mode:normal;color-interpolation:sRGB;color-interpolation-filters:linearRGB;solid-color:#000000;solid-opacity:1;vector-effect:none;fill:#000000;fill-opacity:1;fill-rule:nonzero;stroke:none;stroke-width:0.96289319;stroke-linecap:round;stroke-linejoin:round;stroke-miterlimit:10;stroke-dasharray:none;stroke-dashoffset:0;stroke-opacity:1;color-rendering:auto;image-rendering:auto;shape-rendering:auto;text-rendering:auto;enable-background:accumulate"
     d="M 8.8476265,1.0000019 C 6.058661,0.99765175 3.7882066,3.269987 3.7905566,6.0589524 V 8.6203987 H 1.9305931 a 0.48149473,0.48149473 0 1 0 0,0.9628935 H 3.7905566 V 13.412297 H 1.9305931 a 0.48149473,0.48149473 0 1 0 0,0.962893 h 1.8599635 v 3.829004 H 1.9305931 a 0.48149473,0.48149473 0 1 0 0,0.962893 h 1.8599635 v 2.773961 c -0.00235,2.788965 2.2681044,5.0613 5.0570699,5.05895 H 21.500645 c 2.788965,0.0023 5.05942,-2.269985 5.05707,-5.05895 V 6.0589524 C 26.560015,3.269987 24.28961,0.99765175 21.500645,1.0000019 Z m 0,0.9628932 H 21.500645 c 2.268005,-0.00191 4.096088,1.8280514 4.094177,4.0960573 V 21.941048 a 0.48149473,0.48149473 0 0 0 0,0.0019 c 0.0019,2.268006 -1.826172,4.096088 -4.094177,4.094177 H 8.8476265 c -2.2680059,0.0019 -4.0960878,-1.826191 -4.0941767,-4.094197 a 0.48149473,0.48149473 0 0 0 0,-0.0019 V 19.167067 H 6.615294 a 0.48149473,0.48149473 0 1 0 0,-0.962893 H 4.7534498 V 14.37517 H 6.615294 a 0.48149473,0.48149473 0 1 0 0,-0.962893 H 4.7534498 V 9.5832722 H 6.615294 a 0.48149473,0.48149473 0 1 0 0,-0.9628935 H 4.7534498 V 6.0589524 C 4.7515387,3.7909465 6.5796206,1.960984 8.8476265,1.9628951 Z m 4.3085705,4.878408 c -0.322295,-0.0061 -0.648357,0.081736 -0.936563,0.2708137 a 0.48149473,0.48149473 0 0 0 -0.0019,0 l -1.265678,0.8350089 a 0.48149473,0.48149473 0 0 0 -0.0019,0.00188 C 9.7940944,8.7228022 9.4676101,10.294035 10.220502,11.463942 a 0.48149473,0.48149473 0 0 0 0.0019,0.0038 l 5.546039,8.451644 a 0.48149473,0.48149473 0 0 0 0.0019,0.0038 c 0.773736,1.155478 2.343382,1.481796 3.513055,0.729692 a 0.48149473,0.48149473 0 0 0 0.0056,-0.0038 l 1.265678,-0.83501 a 0.48149473,0.48149473 0 0 0 0.0038,-0.0019 c 0.765587,-0.515825 0.970184,-1.568415 0.455117,-2.333888 l -0.0019,-0.0019 -0.930922,-1.412369 c 0,0 -0.0019,0 -0.0019,0 -0.299146,-0.485994 -0.866056,-0.745185 -1.429295,-0.652585 l -1.67754,0.227558 -2.322604,-3.543146 0.897071,-1.322097 a 0.48149473,0.48149473 0 0 0 0.0019,-0.0056 c 0.320356,-0.486204 0.320356,-1.1198708 0,-1.6060749 h 0.0019 l -1.019312,-1.5571788 -0.0019,-0.00188 C 14.281164,7.2174018 13.894847,6.9683552 13.475908,6.8789161 13.370959,6.8565105 13.263629,6.8433372 13.156197,6.8413031 Z m -0.148571,0.9704157 c 0.269982,-0.050257 0.551133,0.062687 0.710887,0.3121881 a 0.48149473,0.48149473 0 0 0 0.0038,0.00376 l 1.023074,1.5628213 c 0.110004,0.166954 0.110004,0.3803138 0,0.5472688 l -1.073853,1.583508 a 0.48149473,0.48149473 0 0 0 -0.0038,0.534105 l 2.664882,4.064086 a 0.48149473,0.48149473 0 0 0 0.468282,0.214394 l 1.99161,-0.270813 a 0.48149473,0.48149473 0 0 0 0.01317,-0.0019 c 0.180543,-0.02969 0.357534,0.05093 0.453236,0.206872 a 0.48149473,0.48149473 0 0 0 0.0094,0.01316 l 0.942206,1.427414 a 0.48149473,0.48149473 0 0 0 0.0038,0.0056 c 0.226149,0.33422 0.14096,0.773139 -0.193708,0.998625 l -1.256274,0.829367 c -0.737295,0.474083 -1.70512,0.27323 -2.192839,-0.455117 L 11.031062,10.943002 C 10.556475,10.205548 10.757373,9.2360446 11.48618,8.7482829 l 1.260036,-0.8312476 c 0.08257,-0.054171 0.171416,-0.088564 0.26141,-0.1053165 z"
     id="Tracé_118"
     inkscape:connector-curvature="0" />
</svg>
