<?xml version="1.0" encoding="UTF-8" standalone="no"?>
<svg
   xmlns:dc="http://purl.org/dc/elements/1.1/"
   xmlns:cc="http://creativecommons.org/ns#"
   xmlns:rdf="http://www.w3.org/1999/02/22-rdf-syntax-ns#"
   xmlns:svg="http://www.w3.org/2000/svg"
   xmlns="http://www.w3.org/2000/svg"
   xmlns:sodipodi="http://sodipodi.sourceforge.net/DTD/sodipodi-0.dtd"
   xmlns:inkscape="http://www.inkscape.org/namespaces/inkscape"
   id="svg7"
   version="1.1"
   viewBox="0 0 28.000001 28"
   height="28"
   width="28"
   sodipodi:docname="coordonees-client.svg"
   inkscape:version="0.92.3 (2405546, 2018-03-11)">
  <sodipodi:namedview
     pagecolor="#ffffff"
     bordercolor="#666666"
     borderopacity="1"
     objecttolerance="10"
     gridtolerance="10"
     guidetolerance="10"
     inkscape:pageopacity="0"
     inkscape:pageshadow="2"
     inkscape:window-width="1869"
     inkscape:window-height="1025"
     id="namedview868"
     showgrid="false"
     inkscape:zoom="31.107143"
     inkscape:cx="7.3134328"
     inkscape:cy="14"
     inkscape:window-x="1971"
     inkscape:window-y="27"
     inkscape:window-maximized="1"
     inkscape:current-layer="svg7" />
  <metadata
     id="metadata13">
    <rdf:RDF>
      <cc:Work
         rdf:about="">
        <dc:format>image/svg+xml</dc:format>
        <dc:type
           rdf:resource="http://purl.org/dc/dcmitype/StillImage" />
        <dc:title></dc:title>
      </cc:Work>
    </rdf:RDF>
  </metadata>
  <defs
     id="defs11" />
  <path
     id="Ellipse_54"
     d="m 13.998047,0.99800067 c -4.1323473,0 -7.4921875,3.23541903 -7.4921875,7.21473783 0,3.0403185 1.9638056,5.6420225 4.7324215,6.7031615 v 1.350412 C 6.5202069,17.457036 3.0417653,21.607044 3.091797,26.522298 a 0.50005,0.48153222 0 1 0 1,-0.01129 C 4.0377257,21.198894 8.4833367,16.87569 14,16.87569 c 5.516664,0 9.962275,4.323204 9.908203,9.635324 a 0.50005,0.48153222 0 1 0 1,0.01129 c 0.05003,-4.915254 -3.42841,-9.065262 -8.146484,-10.255986 v -1.352293 c 2.76703,-1.062122 4.730469,-3.662437 4.730469,-6.7012805 0,-3.9793208 -3.361794,-7.21473983 -7.494141,-7.21473983 z m 0,0.96296813 c 3.591907,0 6.494141,2.7928775 6.494141,6.2517697 0,3.4588925 -2.902234,6.2536505 -6.494141,6.2536505 -3.591907,0 -6.4921875,-2.794758 -6.4921875,-6.2536505 0,-3.4588922 2.9002805,-6.2517697 6.4921875,-6.2517697 z m 1.763672,13.2577392 v 0.844478 C 15.186684,15.972774 14.601487,15.912722 14,15.912722 c -0.601486,0 -1.186683,0.06005 -1.761719,0.150464 v -0.842598 c 0.565487,0.131804 1.152738,0.208769 1.759766,0.208769 0.608513,0 1.196851,-0.07822 1.763672,-0.210649 z"
     style="color:#000000;font-style:normal;font-variant:normal;font-weight:normal;font-stretch:normal;font-size:medium;line-height:normal;font-family:sans-serif;font-variant-ligatures:normal;font-variant-position:normal;font-variant-caps:normal;font-variant-numeric:normal;font-variant-alternates:normal;font-feature-settings:normal;text-indent:0;text-align:start;text-decoration:none;text-decoration-line:none;text-decoration-style:solid;text-decoration-color:#000000;letter-spacing:normal;word-spacing:normal;text-transform:none;writing-mode:lr-tb;direction:ltr;text-orientation:mixed;dominant-baseline:auto;baseline-shift:baseline;text-anchor:start;white-space:normal;shape-padding:0;clip-rule:nonzero;display:inline;overflow:visible;visibility:visible;opacity:1;isolation:auto;mix-blend-mode:normal;color-interpolation:sRGB;color-interpolation-filters:linearRGB;solid-color:#000000;solid-opacity:1;vector-effect:none;fill:#000000;fill-opacity:1;fill-rule:nonzero;stroke:none;stroke-width:0.98130941;stroke-linecap:round;stroke-linejoin:round;stroke-miterlimit:4;stroke-dasharray:none;stroke-dashoffset:0;stroke-opacity:1;color-rendering:auto;image-rendering:auto;shape-rendering:auto;text-rendering:auto;enable-background:accumulate"
     inkscape:connector-curvature="0" />
</svg>
