<?xml version="1.0" encoding="UTF-8" standalone="no"?>
<svg
   xmlns:dc="http://purl.org/dc/elements/1.1/"
   xmlns:cc="http://creativecommons.org/ns#"
   xmlns:rdf="http://www.w3.org/1999/02/22-rdf-syntax-ns#"
   xmlns:svg="http://www.w3.org/2000/svg"
   xmlns="http://www.w3.org/2000/svg"
   xmlns:sodipodi="http://sodipodi.sourceforge.net/DTD/sodipodi-0.dtd"
   xmlns:inkscape="http://www.inkscape.org/namespaces/inkscape"
   id="Icone_L_Dossier"
   data-name="Icone/L/Dossier"
   width="28"
   height="28"
   viewBox="0 0 28 28"
   version="1.1"
   sodipodi:docname="dossier.svg"
   inkscape:version="0.92.3 (2405546, 2018-03-11)">
  <metadata
     id="metadata11">
    <rdf:RDF>
      <cc:Work
         rdf:about="">
        <dc:format>image/svg+xml</dc:format>
        <dc:type
           rdf:resource="http://purl.org/dc/dcmitype/StillImage" />
        <dc:title></dc:title>
      </cc:Work>
    </rdf:RDF>
  </metadata>
  <defs
     id="defs9" />
  <sodipodi:namedview
     pagecolor="#ffffff"
     bordercolor="#666666"
     borderopacity="1"
     objecttolerance="10"
     gridtolerance="10"
     guidetolerance="10"
     inkscape:pageopacity="0"
     inkscape:pageshadow="2"
     inkscape:window-width="1920"
     inkscape:window-height="1052"
     id="namedview7"
     showgrid="false"
     inkscape:zoom="8.4285714"
     inkscape:cx="14"
     inkscape:cy="14"
     inkscape:window-x="0"
     inkscape:window-y="0"
     inkscape:window-maximized="1"
     inkscape:current-layer="Icone_L_Dossier" />
  <path
     style="color:#000000;font-style:normal;font-variant:normal;font-weight:normal;font-stretch:normal;font-size:medium;line-height:normal;font-family:sans-serif;font-variant-ligatures:normal;font-variant-position:normal;font-variant-caps:normal;font-variant-numeric:normal;font-variant-alternates:normal;font-feature-settings:normal;text-indent:0;text-align:start;text-decoration:none;text-decoration-line:none;text-decoration-style:solid;text-decoration-color:#000000;letter-spacing:normal;word-spacing:normal;text-transform:none;writing-mode:lr-tb;direction:ltr;text-orientation:mixed;dominant-baseline:auto;baseline-shift:baseline;text-anchor:start;white-space:normal;shape-padding:0;clip-rule:nonzero;display:inline;overflow:visible;visibility:visible;opacity:1;isolation:auto;mix-blend-mode:normal;color-interpolation:sRGB;color-interpolation-filters:linearRGB;solid-color:#000000;solid-opacity:1;vector-effect:none;fill:#000000;fill-opacity:1;fill-rule:nonzero;stroke:none;stroke-width:0.96324736;stroke-linecap:round;stroke-linejoin:round;stroke-miterlimit:4;stroke-dasharray:none;stroke-dashoffset:0;stroke-opacity:1;color-rendering:auto;image-rendering:auto;shape-rendering:auto;text-rendering:auto;enable-background:accumulate"
     d="m 3.3818128,4.8845334 c -1.3093666,0 -2.3817796,1.0724128 -2.3817796,2.3817795 V 8.5343378 22.627475 a 0.48167184,0.48167184 0 0 0 0,0.0038 0.48167184,0.48167184 0 0 0 0,0.01129 0.48167184,0.48167184 0 0 0 0.00376,0.04139 0.48167184,0.48167184 0 0 0 0.5568774,0.425183 H 22.244153 a 0.48167184,0.48167184 0 0 0 0.447759,-0.301014 l 4.140834,-10.287182 v -0.0019 c 0.586347,-1.458113 -0.44079,-3.0254277 -1.96224,-3.1832312 a 0.48167184,0.48167184 0 0 0 -0.02822,-0.015051 0.48167184,0.48167184 0 0 0 -0.0903,-0.030101 0.48167184,0.48167184 0 0 0 -0.04703,-0.00941 0.48167184,0.48167184 0 0 0 -0.04891,-0.00376 0.48167184,0.48167184 0 0 0 -0.0056,0 h -0.0038 -1.920851 v -0.052678 c 0,-1.3093668 -1.072413,-2.3817797 -2.38178,-2.3817797 H 10.762319 C 10.537961,5.7623684 9.701886,4.8845334 8.5573861,4.8845334 Z m 0,0.9632473 h 5.1755733 c 0.7887893,0 1.4185323,0.6297431 1.4185323,1.4185322 v 0.058322 a 0.48167184,0.48167184 0 0 0 0.4816236,0.4816237 h 9.886454 c 0.78879,0 1.418532,0.629743 1.418533,1.4185323 v 0.052678 H 7.9553565 7.9515938 C 6.9816325,9.2730289 6.1048186,9.8669359 5.7485417,10.769373 v -0.0038 L 1.9632806,20.147865 V 8.5343378 7.2663129 c 0,-0.7887892 0.6297431,-1.4185322 1.4185322,-1.4185322 z m 4.5678997,4.3929353 a 0.48167184,0.48167184 0 0 0 0.00188,0 h 16.6875085 0.0075 c 1.004659,0.0021 1.668232,0.986756 1.292482,1.918969 l -4.020429,9.986166 H 2.1946858 L 6.6421794,11.126828 a 0.48167184,0.48167184 0 0 0 0.00188,-0.0038 c 0.2118421,-0.536547 0.7287754,-0.885874 1.3056531,-0.882312 z"
     id="Tracé_316"
     inkscape:connector-curvature="0" />
</svg>
