<?xml version="1.0" encoding="UTF-8" standalone="no"?>
<svg
   xmlns:dc="http://purl.org/dc/elements/1.1/"
   xmlns:cc="http://creativecommons.org/ns#"
   xmlns:rdf="http://www.w3.org/1999/02/22-rdf-syntax-ns#"
   xmlns:svg="http://www.w3.org/2000/svg"
   xmlns="http://www.w3.org/2000/svg"
   xmlns:sodipodi="http://sodipodi.sourceforge.net/DTD/sodipodi-0.dtd"
   xmlns:inkscape="http://www.inkscape.org/namespaces/inkscape"
   id="Icone_Pointage_Flag_Actif"
   data-name="Icone/Pointage Flag Actif"
   width="28"
   height="28"
   viewBox="0 0 28 28"
   version="1.1"
   sodipodi:docname="pointage-drapeau-inactif.svg"
   inkscape:version="0.92.3 (2405546, 2018-03-11)">
  <metadata
     id="metadata16">
    <rdf:RDF>
      <cc:Work
         rdf:about="">
        <dc:format>image/svg+xml</dc:format>
        <dc:type
           rdf:resource="http://purl.org/dc/dcmitype/StillImage" />
        <dc:title></dc:title>
      </cc:Work>
    </rdf:RDF>
  </metadata>
  <defs
     id="defs14" />
  <sodipodi:namedview
     pagecolor="#ffffff"
     bordercolor="#666666"
     borderopacity="1"
     objecttolerance="10"
     gridtolerance="10"
     guidetolerance="10"
     inkscape:pageopacity="0"
     inkscape:pageshadow="2"
     inkscape:window-width="1920"
     inkscape:window-height="1052"
     id="namedview12"
     showgrid="false"
     inkscape:zoom="13.906433"
     inkscape:cx="3.0212637"
     inkscape:cy="17.271465"
     inkscape:window-x="0"
     inkscape:window-y="0"
     inkscape:window-maximized="1"
     inkscape:current-layer="Icone_Pointage_Flag_Actif" />
  <path
     id="circle4"
     style="fill:#000000;fill-opacity:1;stroke:none;stroke-width:1.13043475;stroke-linecap:round;stroke-linejoin:round;stroke-miterlimit:10"
     d="M 13.017489,7.3211617 C 11.998843,7.3797437 11.0292,7.7288608 10.147245,8.2374321 v 6.1820659 c 0.9085,-0.433808 1.834559,-0.855112 2.845958,-0.90744 a 0.56527391,0.56527391 0 0 1 0.07286,0 c 1.158165,0.08677 2.276364,0.451475 3.267663,1.055367 0.505589,0.237121 1.406172,0.542212 2.327107,0.578465 0.85867,0.0338 1.698324,-0.185037 2.399966,-0.8125 V 8.2904213 C 20.263511,8.72941 19.415499,8.9755676 18.61447,8.9439539 17.481039,8.8992211 16.475494,8.5519192 15.852412,8.257303 a 0.56527391,0.56527391 0 0 1 -0.0552,-0.03091 C 14.957114,7.7048151 14.002796,7.4003656 13.017493,7.3211617 Z M 9.2287667,6.6587976 C 9.047057,6.6663775 8.9104703,6.7996501 8.9130435,6.983356 a 0.56527391,0.56527391 0 0 1 0,0.015455 c -0.00255,0.1818757 0.1323057,0.3123737 0.3113111,0.3223506 h 0.00883 C 9.4122484,7.3112016 9.5492507,7.1806986 9.5467037,6.998811 a 0.56527391,0.56527391 0 0 1 0,-0.015455 C 9.5492785,6.7996374 9.4105022,6.6663602 9.2287704,6.6587976 Z m -0.00662,-1.1370585 a 0.56527391,0.56527391 0 0 1 0.013247,0 c 0.695671,0.00787 1.2784393,0.5161107 1.4108363,1.1745924 0.749824,-0.288284 1.53815,-0.4725866 2.346977,-0.5144361 a 0.56527391,0.56527391 0 0 1 0.07286,0 c 1.15858,0.086087 2.277969,0.4495175 3.269871,1.0531589 0.50057,0.2366882 1.400991,0.5442964 2.322691,0.5806726 0.9217,0.036376 1.834994,-0.1711667 2.563349,-0.9162704 a 0.56527391,0.56527391 0 0 1 0.96926,0.3952106 v 7.3323719 a 0.56527391,0.56527391 0 0 1 -0.161175,0.39521 c -0.991994,1.013501 -2.280883,1.296441 -3.413384,1.251868 -1.132501,-0.04458 -2.137212,-0.39139 -2.762058,-0.684443 a 0.56527391,0.56527391 0 0 1 -0.05741,-0.03091 c -0.839911,-0.5223 -1.794241,-0.827619 -2.779718,-0.907439 -1.011984,0.0582 -1.992155,0.355377 -2.870244,0.856657 v 6.43818 A 0.56527391,0.56527391 0 0 1 9.5820313,22.511379 H 8.8777174 A 0.56527391,0.56527391 0 0 1 8.3125,21.946162 V 8.0983356 C 7.9944661,7.8272816 7.7815546,7.437731 7.7848165,6.9921874 7.7777768,6.1960437 8.4251583,5.5307487 9.2221467,5.5217391 Z M 14,1.962963 C 20.653575,1.962963 26.037037,7.346425 26.037037,14 26.037037,20.653575 20.653575,26.037037 14,26.037037 7.346425,26.037037 1.962963,20.653575 1.962963,14 1.962963,7.346425 7.346425,1.962963 14,1.962963 Z M 14,1 C 6.8260012,1 1,6.8260012 1,14 1,21.173999 6.8260012,27 14,27 21.173999,27 27,21.173999 27,14 27,6.8260012 21.173999,1 14,1 Z" />
</svg>
