<?xml version="1.0" encoding="UTF-8" standalone="no"?>
<svg
   xmlns:dc="http://purl.org/dc/elements/1.1/"
   xmlns:cc="http://creativecommons.org/ns#"
   xmlns:rdf="http://www.w3.org/1999/02/22-rdf-syntax-ns#"
   xmlns:svg="http://www.w3.org/2000/svg"
   xmlns="http://www.w3.org/2000/svg"
   xmlns:sodipodi="http://sodipodi.sourceforge.net/DTD/sodipodi-0.dtd"
   xmlns:inkscape="http://www.inkscape.org/namespaces/inkscape"
   id="Icone_L_Email"
   data-name="Icone/L/Email"
   width="28"
   height="28"
   viewBox="0 0 28 28"
   version="1.1"
   sodipodi:docname="email.svg"
   inkscape:version="0.92.3 (2405546, 2018-03-11)">
  <metadata
     id="metadata11">
    <rdf:RDF>
      <cc:Work
         rdf:about="">
        <dc:format>image/svg+xml</dc:format>
        <dc:type
           rdf:resource="http://purl.org/dc/dcmitype/StillImage" />
        <dc:title></dc:title>
      </cc:Work>
    </rdf:RDF>
  </metadata>
  <defs
     id="defs9" />
  <sodipodi:namedview
     pagecolor="#ffffff"
     bordercolor="#666666"
     borderopacity="1"
     objecttolerance="10"
     gridtolerance="10"
     guidetolerance="10"
     inkscape:pageopacity="0"
     inkscape:pageshadow="2"
     inkscape:window-width="1920"
     inkscape:window-height="1052"
     id="namedview7"
     showgrid="false"
     inkscape:zoom="8.4285714"
     inkscape:cx="14"
     inkscape:cy="14"
     inkscape:window-x="0"
     inkscape:window-y="0"
     inkscape:window-maximized="1"
     inkscape:current-layer="Icone_L_Email" />
  <path
     style="fill:#000000;stroke-width:1.5317347;fill-opacity:1"
     inkscape:connector-curvature="0"
     d="m 22.299488,2.4036348 a 8.6206027,8.6206027 0 0 1 3.504609,3.3453085 9.2669947,9.2669947 0 0 1 1.194753,4.6993617 13.182108,13.182108 0 0 1 -0.91904,4.739187 10.003759,10.003759 0 0 1 -2.508982,3.829337 5.0210262,5.0210262 0 0 1 -3.504609,1.473529 3.0466202,3.0466202 0 0 1 -2.03108,-0.677027 2.2393961,2.2393961 0 0 1 -0.796502,-1.79213 1.1074442,1.1074442 0 0 1 0.03983,-0.398251 l 0.07965,-0.716851 a 7.6479511,7.6479511 0 0 1 -2.469156,2.668281 5.6551644,5.6551644 0 0 1 -3.063469,0.955803 3.942685,3.942685 0 0 1 -2.2302062,-0.637202 4.7177427,4.7177427 0 0 1 -1.553179,-1.752304 5.4958639,5.4958639 0 0 1 -0.557551,-2.469157 9.0663374,9.0663374 0 0 1 0.955802,-3.90286 9.8153557,9.8153557 0 0 1 2.5886322,-3.345308 5.5142448,5.5142448 0 0 1 3.544434,-1.3142284 4.0192717,4.0192717 0 0 1 2.508981,0.7965021 4.1862308,4.1862308 0 0 1 1.433704,2.1107303 l 0.278776,-1.8717797 a 0.85164447,0.85164447 0 0 1 0.91904,-0.796502 c 0.517727,0 0.796502,0.2389506 0.796502,0.7168518 a 0.77658947,0.77658947 0 0 1 -0.03983,0.3186008 l -1.393878,8.8411721 c 0,0.07965 -0.03983,0.238951 -0.03983,0.398251 a 1.4183863,1.4183863 0 0 0 0.398251,1.115103 1.3295457,1.3295457 0 0 0 0.91904,0.358426 3.5122676,3.5122676 0 0 0 2.548807,-1.274403 9.3160102,9.3160102 0 0 0 1.911605,-3.265658 12.191076,12.191076 0 0 0 0.716857,-4.101986 A 7.6402925,7.6402925 0 0 0 24.459234,6.3922718 7.4396352,7.4396352 0 0 0 21.395765,3.6045147 9.9961004,9.9961004 0 0 0 16.776053,2.6088872 16.083214,16.083214 0 0 0 9.4880598,4.2417163 12.131338,12.131338 0 0 0 4.3506215,8.9012532 13.496114,13.496114 0 0 0 2.4788417,16.029946 a 10.743587,10.743587 0 0 0 1.0354527,4.619712 7.9803376,7.9803376 0 0 0 3.1461834,3.464784 10.14621,10.14621 0 0 0 5.3763882,1.314228 12.866571,12.866571 0 0 0 2.628457,-0.23895 9.1904079,9.1904079 0 0 0 1.911605,-0.557552 c 0.517726,-0.199125 1.194753,-0.557551 2.070905,-0.955802 a 1.1687135,1.1687135 0 0 1 0.358426,-0.07965 0.53610713,0.53610713 0 0 1 0.517726,0.398252 0.77812121,0.77812121 0 0 1 0.03983,0.278775 A 0.7382961,0.7382961 0 0 1 19.046089,24.95077 26.373407,26.373407 0 0 1 15.70078,26.344648 12.207925,12.207925 0 0 1 12.036871,26.82255 12.013395,12.013395 0 0 1 5.7843298,25.309196 9.3971921,9.3971921 0 0 1 2.1602459,21.326686 12.592391,12.592391 0 0 1 1.005318,15.990122 14.197649,14.197649 0 0 1 3.1160484,8.1445773 14.021499,14.021499 0 0 1 8.8110378,2.9673141 17.647115,17.647115 0 0 1 16.815883,1.1751846 11.425209,11.425209 0 0 1 22.299493,2.4036358 Z M 17.998377,11.961659 A 3.2993565,3.2993565 0 0 0 17.042575,9.4925028 3.2411505,3.2411505 0 0 0 14.613244,8.573462 4.0376526,4.0376526 0 0 0 11.785662,9.6885648 7.7214744,7.7214744 0 0 0 9.8740568,12.436497 a 8.456707,8.456707 0 0 0 -0.677027,3.146183 3.7144565,3.7144565 0 0 0 0.796502,2.508981 2.6345836,2.6345836 0 0 0 2.0310802,0.919041 4.6748542,4.6748542 0 0 0 2.708107,-0.955802 7.8118468,7.8118468 0 0 0 2.270031,-2.429332 6.2801121,6.2801121 0 0 0 0.955802,-3.026707 3.0251759,3.0251759 0 0 0 0.03676,-0.637202 z"
     data-name="Tracé 95"
     id="Tracé_95" />
</svg>
