<?xml version="1.0" encoding="UTF-8" standalone="no"?>
<svg
   xmlns:dc="http://purl.org/dc/elements/1.1/"
   xmlns:cc="http://creativecommons.org/ns#"
   xmlns:rdf="http://www.w3.org/1999/02/22-rdf-syntax-ns#"
   xmlns:svg="http://www.w3.org/2000/svg"
   xmlns="http://www.w3.org/2000/svg"
   xmlns:sodipodi="http://sodipodi.sourceforge.net/DTD/sodipodi-0.dtd"
   xmlns:inkscape="http://www.inkscape.org/namespaces/inkscape"
   id="Icone_L_Engagement"
   data-name="Icone/L/Engagement"
   width="28"
   height="28"
   viewBox="0 0 28 28"
   version="1.1"
   sodipodi:docname="engagement.svg"
   inkscape:version="0.92.3 (2405546, 2018-03-11)">
  <metadata
     id="metadata16">
    <rdf:RDF>
      <cc:Work
         rdf:about="">
        <dc:format>image/svg+xml</dc:format>
        <dc:type
           rdf:resource="http://purl.org/dc/dcmitype/StillImage" />
        <dc:title></dc:title>
      </cc:Work>
    </rdf:RDF>
  </metadata>
  <defs
     id="defs14" />
  <sodipodi:namedview
     pagecolor="#ffffff"
     bordercolor="#666666"
     borderopacity="1"
     objecttolerance="10"
     gridtolerance="10"
     guidetolerance="10"
     inkscape:pageopacity="0"
     inkscape:pageshadow="2"
     inkscape:window-width="1920"
     inkscape:window-height="1052"
     id="namedview12"
     showgrid="false"
     inkscape:zoom="8.4285714"
     inkscape:cx="14"
     inkscape:cy="14"
     inkscape:window-x="0"
     inkscape:window-y="0"
     inkscape:window-maximized="1"
     inkscape:current-layer="Icone_L_Engagement" />
  <path
     style="color:#000000;font-style:normal;font-variant:normal;font-weight:normal;font-stretch:normal;font-size:medium;line-height:normal;font-family:sans-serif;font-variant-ligatures:normal;font-variant-position:normal;font-variant-caps:normal;font-variant-numeric:normal;font-variant-alternates:normal;font-feature-settings:normal;text-indent:0;text-align:start;text-decoration:none;text-decoration-line:none;text-decoration-style:solid;text-decoration-color:#000000;letter-spacing:normal;word-spacing:normal;text-transform:none;writing-mode:lr-tb;direction:ltr;text-orientation:mixed;dominant-baseline:auto;baseline-shift:baseline;text-anchor:start;white-space:normal;shape-padding:0;clip-rule:nonzero;display:inline;overflow:visible;visibility:visible;opacity:1;isolation:auto;mix-blend-mode:normal;color-interpolation:sRGB;color-interpolation-filters:linearRGB;solid-color:#000000;solid-opacity:1;vector-effect:none;fill:#000000;fill-opacity:1;fill-rule:nonzero;stroke:none;stroke-width:0.96293843;stroke-linecap:round;stroke-linejoin:round;stroke-miterlimit:10;stroke-dasharray:none;stroke-dashoffset:0;stroke-opacity:1;color-rendering:auto;image-rendering:auto;shape-rendering:auto;text-rendering:auto;enable-background:accumulate"
     d="m 22.565619,1.0006213 a 0.48151737,0.48151737 0 0 0 -0.12977,0.028211 c 0,0 -2.286389,0.817194 -4.683042,1.6813807 -1.198326,0.4320934 -2.425709,0.8756872 -3.407899,1.2356457 -0.970731,0.3557589 -1.662792,0.6124806 -1.937161,0.7297267 -0.0013,4.913e-4 -0.0024,0.00139 -0.0038,0.00188 -1.23963,0.4584009 -2.29193,1.3153054 -2.9903757,2.437438 a 0.48151737,0.48151737 0 0 0 -0.00376,0.00752 C 8.628103,8.4275945 6.0573481,12.852739 6.0320414,12.896297 c -0.6602153,0.978808 -0.131415,2.335521 1.0043147,2.634915 0.3001119,0.111815 0.6170213,0.137579 0.8895896,0.0583 0.2380557,-0.06924 0.4306475,-0.200251 0.6018366,-0.346056 0.7631769,0.301899 1.6650957,0.07661 2.1835377,-0.598075 0.004,-0.0041 0.0092,-0.0091 0.01316,-0.01317 0.382821,0.05844 0.75202,-0.02033 1.049453,-0.163625 0.385651,-0.185785 0.683475,-0.456849 0.927205,-0.682708 0.277157,-0.256836 0.971006,-0.976887 1.62872,-1.662573 0.617327,-0.643582 1.112132,-1.16497 1.179223,-1.235646 0.845856,-0.332713 1.730726,-0.558686 2.634915,-0.673305 1.385646,-0.123127 2.743138,-0.4656802 4.021021,-1.0155987 a 0.48151737,0.48151737 0 0 0 0.01317,-0.00564 C 23.417606,8.619212 24.191092,7.9745279 24.657001,7.4590795 25.12291,6.9436312 25.298333,6.511187 25.298333,6.511187 A 0.48151737,0.48151737 0 0 0 25.285168,6.1369199 L 23.033924,1.2789707 a 0.48151737,0.48151737 0 0 0 -0.419405,-0.2783494 0.48151737,0.48151737 0 0 0 -0.0489,0 z m -0.220046,1.0833057 1.957849,4.2203787 c -0.03365,0.074557 -0.06256,0.1793948 -0.361102,0.5096803 -0.377615,0.4177667 -1.03874,0.9790405 -2.16285,1.5008298 -1.187768,0.5104478 -2.449106,0.8296785 -3.737028,0.9422504 a 0.48151737,0.48151737 0 0 0 -0.01881,0.00188 C 17.03351,9.3844582 16.06444,9.6354358 15.138579,10.001838 a 0.48151737,0.48151737 0 0 0 -0.17679,0.07899 c -0.243649,0.101024 -0.487204,0.202526 -0.724085,0.319726 a 0.48151737,0.48151737 0 0 0 -0.03573,0.01881 c -0.394869,0.239803 -0.87203,0.280194 -1.312756,0.146698 -0.28705,-0.156515 -0.463964,-0.459842 -0.415643,-0.7861492 a 0.48151737,0.48151737 0 0 0 0.0038,-0.02821 C 12.785436,9.414856 13.13255,9.1081656 13.564402,8.9523864 a 0.48151737,0.48151737 0 0 0 0.0395,-0.015046 L 16.321565,7.6772453 A 0.48175021,0.48175021 0 1 0 15.917206,6.8027015 l -2.717668,1.2600953 0.03761,-0.015046 c -0.688075,0.2482068 -1.28989,0.690627 -1.732156,1.2732605 a 0.48151737,0.48151737 0 0 0 -0.01505,0.020688 c 0,0 -2.2789916,3.3720697 -2.7684477,4.1018927 -0.203492,0.303425 -0.4054573,0.602557 -0.6018365,0.836929 a 0.48151737,0.48151737 0 0 0 -0.1203673,0.148578 c -0.00855,0.0086 -0.01782,0.02385 -0.02633,0.03197 -0.1200433,0.114639 -0.2286403,0.179601 -0.3159642,0.205 -0.087324,0.0254 -0.1614264,0.0291 -0.3009182,-0.02821 a 0.48151737,0.48151737 0 0 0 -0.069587,-0.02257 C 6.7503495,14.484662 6.5227715,13.893563 6.8313555,13.436068 a 0.48151737,0.48151737 0 0 0 0.016927,-0.02821 c 0,0 2.6092862,-4.49043 3.3834495,-5.7832735 0.586206,-0.9418069 1.47003,-1.6622305 2.510787,-2.0462442 a 0.48151737,0.48151737 0 0 0 0.02257,-0.0094 C 12.936929,5.4948973 13.698485,5.209403 14.6778,4.8504979 15.657116,4.4915928 16.880712,4.046635 18.078177,3.6148523 20.2614,2.8276238 21.992725,2.2100272 22.345574,2.0839306 Z m -10.626176,8.638235 c 0.114247,0.210257 0.282638,0.383698 0.473946,0.53413 -0.207594,0.267034 -0.411834,0.531281 -0.846333,1.083306 -0.307027,0.390073 -0.622033,0.787758 -0.874543,1.100232 -0.08429,0.104308 -0.147102,0.180155 -0.214405,0.261423 a 0.48151737,0.48151737 0 0 0 -0.150459,0.17867 c -0.05102,0.05748 -0.1145186,0.128397 -0.09968,0.114726 a 0.48151737,0.48151737 0 0 0 -0.058303,0.06206 c -0.1771649,0.232404 -0.4401358,0.342715 -0.709038,0.347937 0.09813,-0.147417 0.1953484,-0.298482 0.2802301,-0.425047 0.383982,-0.572552 1.5902149,-2.357518 2.1985849,-3.257441 z m 1.773536,0.880186 c -0.605682,0.629633 -1.268168,1.313201 -1.446288,1.478261 -0.06223,0.05767 -0.126492,0.109159 -0.189954,0.163625 0.08599,-0.10878 0.160166,-0.200794 0.246376,-0.310323 0.533787,-0.678169 0.91243,-1.165588 1.040049,-1.329682 0.116761,0.0098 0.233258,0.0041 0.349817,-0.0019 z m 7.013277,0.765461 c -0.15075,-0.0098 -0.298187,0.0052 -0.43445,0.04514 -0.237547,0.06959 -0.429116,0.200423 -0.599956,0.346057 -0.319213,-0.127073 -0.661321,-0.165784 -0.99115,-0.112845 -0.461105,0.07401 -0.894205,0.318445 -1.196151,0.714682 -0.0023,0.0024 -0.0053,0.0052 -0.0075,0.0075 -0.383239,-0.05902 -0.753713,0.0186 -1.051333,0.161744 -0.385894,0.185596 -0.683204,0.456101 -0.927205,0.682708 -0.276384,0.256683 -0.971024,0.978666 -1.62872,1.664454 -0.618763,0.645192 -1.116206,1.171053 -1.181104,1.239407 -0.845148,0.332035 -1.729603,0.557626 -2.6330349,0.671424 -1.3857183,0.122947 -2.7431596,0.465486 -4.0210203,1.015599 a 0.48151737,0.48151737 0 0 0 -0.013165,0.0056 c -1.239424,0.573863 -2.0129052,1.216712 -2.4788142,1.732161 -0.4659091,0.515448 -0.6413321,0.949773 -0.6413321,0.949773 a 0.48151737,0.48151737 0 0 0 0.013165,0.372386 l 2.2455805,4.85613 a 0.48151737,0.48151737 0 0 0 0.5999558,0.252019 c 0,0 2.2857865,-0.815432 4.6830402,-1.6795 1.198627,-0.432033 2.425213,-0.877522 3.4079,-1.237526 0.970416,-0.355508 1.66371,-0.612219 1.939042,-0.729727 0,0 0.0019,0 0.0019,0 1.239366,-0.458503 2.292096,-1.317381 2.990375,-2.439318 a 0.48151737,0.48151737 0 0 0 0.0038,-0.0056 c 0.786884,-1.307274 3.356283,-5.732217 3.38157,-5.77575 0.660767,-0.979627 0.131517,-2.338941 -1.006196,-2.636796 -0.15033,-0.05546 -0.30439,-0.08993 -0.455139,-0.09968 z m -0.03197,0.953535 c 0.04728,0.0027 0.10144,0.01499 0.171148,0.04326 a 0.48151737,0.48151737 0 0 0 0.06771,0.02069 c 0.536153,0.130636 0.763723,0.72173 0.45514,1.179224 a 0.48151737,0.48151737 0 0 0 -0.01693,0.02821 c 0,0 -2.617912,4.506487 -3.390972,5.790796 -0.585694,0.938188 -1.465745,1.655219 -2.503264,2.038722 a 0.48151737,0.48151737 0 0 0 -0.02445,0.0094 c -0.172814,0.07442 -0.932899,0.361373 -1.912711,0.720323 -0.979812,0.358951 -2.206372,0.802043 -3.4041379,1.233765 -2.1837704,0.787088 -3.9145085,1.404862 -4.2673975,1.530922 l -1.9522123,-4.22038 c 0.033767,-0.07474 0.060945,-0.177809 0.3592212,-0.5078 0.3776165,-0.417768 1.0406154,-0.980921 2.1647308,-1.502711 1.1876726,-0.510596 2.4491207,-0.827975 3.7370283,-0.94037 a 0.48151737,0.48151737 0 0 0 0.018808,-0.0019 C 10.954699,18.620211 11.912932,18.374422 12.829032,18.01565 a 0.48151737,0.48151737 0 0 0 0.208763,-0.09028 c 0.244571,-0.101196 0.488129,-0.204118 0.725965,-0.321606 a 0.48151737,0.48151737 0 0 0 0.03573,-0.02069 c 0.395152,-0.239985 0.873678,-0.280795 1.314637,-0.146697 0.289003,0.155542 0.465554,0.460535 0.417524,0.78803 a 0.48151737,0.48151737 0 0 0 -0.0019,0.01881 c -0.308849,0.340232 -0.659991,0.648104 -1.09459,0.804957 a 0.48151737,0.48151737 0 0 0 -0.03761,0.01505 l -2.719549,1.260095 a 0.4817503,0.4817503 0 1 0 0.404359,0.874544 l 2.719548,-1.260095 -0.0395,0.01505 c 0.687843,-0.248252 1.288395,-0.690597 1.73028,-1.27326 a 0.48151737,0.48151737 0 0 0 0.01693,-0.02069 c 0,0 2.2795,-3.371915 2.768448,-4.100012 0.189927,-0.282822 0.378081,-0.559063 0.562341,-0.788029 a 0.48151737,0.48151737 0 0 0 0.193716,-0.233213 c 0.116555,-0.109367 0.222693,-0.174237 0.308442,-0.199358 0.04397,-0.01288 0.08437,-0.01966 0.131651,-0.01693 z m -1.841243,0.270826 c 0.04199,-0.0067 0.08526,0.0045 0.12789,0.0038 -0.09865,0.147844 -0.196838,0.298067 -0.282111,0.425047 -0.384151,0.572044 -1.589546,2.354681 -2.198584,3.25556 -0.114837,-0.208697 -0.283131,-0.380685 -0.473946,-0.530369 0.207571,-0.267094 0.411761,-0.531466 0.846332,-1.083306 0.307078,-0.389941 0.621928,-0.787882 0.874545,-1.100232 0.107626,-0.133077 0.196026,-0.238881 0.274587,-0.332891 a 0.48164929,0.48164929 0 0 0 0.04702,-0.0583 c 0.08482,-0.100571 0.166425,-0.183458 0.144816,-0.163624 a 0.48151737,0.48151737 0 0 0 0.05642,-0.06394 c 0.149376,-0.196021 0.359445,-0.316006 0.58303,-0.351698 z m -2.488218,1.160416 c -0.08685,0.109883 -0.161133,0.203449 -0.248258,0.314084 -0.535576,0.6801 -0.918219,1.171881 -1.04381,1.333444 -0.116665,-0.0095 -0.233403,-0.0045 -0.349818,0.0019 0.607029,-0.631109 1.270766,-1.315519 1.450051,-1.482023 0.06332,-0.0588 0.127375,-0.111966 0.191835,-0.167386 z"
     id="Stroke_1"
     inkscape:connector-curvature="0" />
</svg>
