<?xml version="1.0" encoding="UTF-8" standalone="no"?>
<svg
   xmlns:dc="http://purl.org/dc/elements/1.1/"
   xmlns:cc="http://creativecommons.org/ns#"
   xmlns:rdf="http://www.w3.org/1999/02/22-rdf-syntax-ns#"
   xmlns:svg="http://www.w3.org/2000/svg"
   xmlns="http://www.w3.org/2000/svg"
   xmlns:sodipodi="http://sodipodi.sourceforge.net/DTD/sodipodi-0.dtd"
   xmlns:inkscape="http://www.inkscape.org/namespaces/inkscape"
   id="Icone_L_Messagerie_fermé"
   data-name="Icone/L/Messagerie fermé"
   width="28"
   height="28"
   viewBox="0 0 28 28"
   version="1.1"
   sodipodi:docname="enveloppe-fermee.svg"
   inkscape:version="0.92.3 (2405546, 2018-03-11)">
  <metadata
     id="metadata19">
    <rdf:RDF>
      <cc:Work
         rdf:about="">
        <dc:format>image/svg+xml</dc:format>
        <dc:type
           rdf:resource="http://purl.org/dc/dcmitype/StillImage" />
        <dc:title></dc:title>
      </cc:Work>
    </rdf:RDF>
  </metadata>
  <defs
     id="defs17" />
  <sodipodi:namedview
     pagecolor="#ffffff"
     bordercolor="#666666"
     borderopacity="1"
     objecttolerance="10"
     gridtolerance="10"
     guidetolerance="10"
     inkscape:pageopacity="0"
     inkscape:pageshadow="2"
     inkscape:window-width="1920"
     inkscape:window-height="1052"
     id="namedview15"
     showgrid="false"
     inkscape:zoom="23.8396"
     inkscape:cx="10.117625"
     inkscape:cy="11.36113"
     inkscape:window-x="0"
     inkscape:window-y="0"
     inkscape:window-maximized="1"
     inkscape:current-layer="Icone_L_Messagerie_fermé" />
  <path
     style="color:#000000;font-style:normal;font-variant:normal;font-weight:normal;font-stretch:normal;font-size:medium;line-height:normal;font-family:sans-serif;font-variant-ligatures:normal;font-variant-position:normal;font-variant-caps:normal;font-variant-numeric:normal;font-variant-alternates:normal;font-feature-settings:normal;text-indent:0;text-align:start;text-decoration:none;text-decoration-line:none;text-decoration-style:solid;text-decoration-color:#000000;letter-spacing:normal;word-spacing:normal;text-transform:none;writing-mode:lr-tb;direction:ltr;text-orientation:mixed;dominant-baseline:auto;baseline-shift:baseline;text-anchor:start;white-space:normal;shape-padding:0;clip-rule:nonzero;display:inline;overflow:visible;visibility:visible;opacity:1;isolation:auto;mix-blend-mode:normal;color-interpolation:sRGB;color-interpolation-filters:linearRGB;solid-color:#000000;solid-opacity:1;vector-effect:none;fill:#000000;fill-opacity:1;fill-rule:nonzero;stroke:none;stroke-width:0.96296299;stroke-linecap:round;stroke-linejoin:round;stroke-miterlimit:10;stroke-dasharray:none;stroke-dashoffset:0;stroke-opacity:1;color-rendering:auto;image-rendering:auto;shape-rendering:auto;text-rendering:auto;enable-background:accumulate"
     d="M 3.5033276,5.435836 C 2.1262731,5.435836 1,6.5621092 1,7.9391636 V 20.058955 c 0,1.377055 1.1262731,2.505209 2.5033276,2.505209 H 24.496673 C 25.873727,22.564164 27,21.43601 27,20.058955 V 7.9391636 C 27,6.5621092 25.873727,5.4358361 24.496673,5.435836 h -2.382958 -0.03385 -0.0019 z m 0,0.962963 h 18.5407994 0.03573 2.416812 c 0.102545,0 0.202331,0.011373 0.299045,0.030093 l -8.448496,6.819733 a 0.48152963,0.48152963 0 0 0 -0.01129,0.0094 l -2.3886,1.927807 L 3.1422165,6.4458188 c 0.116193,-0.027603 0.2359414,-0.04702 0.3611111,-0.04702 z M 25.677807,6.9573928 c 0.221271,0.2664693 0.35923,0.6048114 0.35923,0.9817708 V 20.058955 c 0,0.166192 -0.03314,0.322517 -0.08087,0.472077 l -8.536893,-6.90813 z M 2.29022,6.9950086 10.563802,13.686849 2.0287905,20.482132 C 1.9905563,20.346914 1.962963,20.207057 1.962963,20.058955 V 7.9391636 c 0,-0.3590557 0.1246294,-0.6834676 0.327257,-0.944155 z m 14.36357,7.2466724 8.738137,7.071759 c -0.25208,0.180161 -0.558995,0.287761 -0.895254,0.287761 H 3.5033276 c -0.3541628,0 -0.6739144,-0.121716 -0.9328704,-0.319734 l 8.7607068,-6.973958 2.313367,1.871382 a 0.48152963,0.48152963 0 0 0 0.605614,0.0019 z"
     id="Tracé_55"
     inkscape:connector-curvature="0" />
</svg>
