<?xml version="1.0" encoding="UTF-8" standalone="no"?>
<svg
   xmlns:dc="http://purl.org/dc/elements/1.1/"
   xmlns:cc="http://creativecommons.org/ns#"
   xmlns:rdf="http://www.w3.org/1999/02/22-rdf-syntax-ns#"
   xmlns:svg="http://www.w3.org/2000/svg"
   xmlns="http://www.w3.org/2000/svg"
   xmlns:sodipodi="http://sodipodi.sourceforge.net/DTD/sodipodi-0.dtd"
   xmlns:inkscape="http://www.inkscape.org/namespaces/inkscape"
   id="Icone_L_Messagerie"
   data-name="Icone/L/Messagerie"
   width="28"
   height="28"
   viewBox="0 0 28 28"
   version="1.1"
   sodipodi:docname="enveloppe-ouverte.svg"
   inkscape:version="0.92.3 (2405546, 2018-03-11)">
  <metadata
     id="metadata22">
    <rdf:RDF>
      <cc:Work
         rdf:about="">
        <dc:format>image/svg+xml</dc:format>
        <dc:type
           rdf:resource="http://purl.org/dc/dcmitype/StillImage" />
        <dc:title></dc:title>
      </cc:Work>
    </rdf:RDF>
  </metadata>
  <defs
     id="defs20" />
  <sodipodi:namedview
     pagecolor="#ffffff"
     bordercolor="#666666"
     borderopacity="1"
     objecttolerance="10"
     gridtolerance="10"
     guidetolerance="10"
     inkscape:pageopacity="0"
     inkscape:pageshadow="2"
     inkscape:window-width="1920"
     inkscape:window-height="1052"
     id="namedview18"
     showgrid="false"
     inkscape:zoom="23.8396"
     inkscape:cx="12.545014"
     inkscape:cy="12.415892"
     inkscape:window-x="0"
     inkscape:window-y="0"
     inkscape:window-maximized="1"
     inkscape:current-layer="Icone_L_Messagerie" />
  <path
     style="color:#000000;font-style:normal;font-variant:normal;font-weight:normal;font-stretch:normal;font-size:medium;line-height:normal;font-family:sans-serif;font-variant-ligatures:normal;font-variant-position:normal;font-variant-caps:normal;font-variant-numeric:normal;font-variant-alternates:normal;font-feature-settings:normal;text-indent:0;text-align:start;text-decoration:none;text-decoration-line:none;text-decoration-style:solid;text-decoration-color:#000000;letter-spacing:normal;word-spacing:normal;text-transform:none;writing-mode:lr-tb;direction:ltr;text-orientation:mixed;dominant-baseline:auto;baseline-shift:baseline;text-anchor:start;white-space:normal;shape-padding:0;clip-rule:nonzero;display:inline;overflow:visible;visibility:visible;opacity:1;isolation:auto;mix-blend-mode:normal;color-interpolation:sRGB;color-interpolation-filters:linearRGB;solid-color:#000000;solid-opacity:1;vector-effect:none;fill:#000000;fill-opacity:1;fill-rule:nonzero;stroke:none;stroke-width:0.96115524;stroke-linecap:round;stroke-linejoin:round;stroke-miterlimit:10;stroke-dasharray:none;stroke-dashoffset:0;stroke-opacity:1;color-rendering:auto;image-rendering:auto;shape-rendering:auto;text-rendering:auto;enable-background:accumulate"
     d="m 7.9383394,3.7642599 c -1.3744693,0 -2.4986282,1.1241588 -2.4986282,2.4986282 V 7.1132852 H 3.4986282 C 2.1241588,7.1132852 1,8.2393213 1,9.6137906 V 21.735235 c 0,1.374469 1.1241588,2.500505 2.4986282,2.500505 H 24.501372 C 25.875841,24.23574 27,23.109704 27,21.735235 V 9.6137906 C 27,8.2393213 25.875841,7.1132852 24.501372,7.1132852 H 22.560289 V 6.2628881 c 0,-1.3744694 -1.124159,-2.4986282 -2.498628,-2.4986282 z m 0,0.9611552 H 20.061661 c 0.855022,0 1.537473,0.6824505 1.537473,1.537473 v 1.267148 a 0.48062568,0.48062568 0 0 0 0,0.1314079 v 3.033646 l -5.216896,4.210686 a 0.48062568,0.48062568 0 0 0 -0.03754,0.03004 l -2.39538,1.931697 -7.5484475,-6.106715 V 6.2628881 c 0,-0.8550225 0.6824505,-1.537473 1.5374729,-1.537473 z M 9.8005777,7.272852 a 0.48062568,0.48062568 0 1 0 0,0.9611552 H 17.98917 a 0.48062568,0.48062568 0 1 0 0,-0.9611552 z M 3.4986282,8.0744404 h 1.941083 V 9.9836101 L 3.138195,8.1213718 c 0.1159749,-0.027619 0.2354985,-0.046931 0.3604332,-0.046931 z m 19.0616608,0 h 1.941083 c 0.104329,0 0.205852,0.012469 0.304115,0.031913 l -2.245198,1.8115524 z m 3.12,0.5594224 c 0.2203,0.2662185 0.358556,0.6042008 0.358556,0.9799278 V 21.735235 c 0,0.16588 -0.03307,0.321911 -0.08072,0.471191 L 17.422239,15.3 Z M 2.2877979,8.6695307 5.5072924,11.275162 a 0.48062568,0.48062568 0 0 0 0.2609387,0.210253 l 4.7982669,3.882167 -8.5377615,6.795667 C 1.9895213,22.026593 1.9611552,21.885156 1.9611552,21.735235 V 9.6137906 c 0,-0.3583818 0.1243955,-0.6836786 0.3266427,-0.9442599 z m 7.5127798,1.9542233 a 0.48062568,0.48062568 0 1 0 0,0.961156 H 17.98917 a 0.48062568,0.48062568 0 1 0 0,-0.961156 z m 6.8557393,5.293863 8.738629,7.069748 c -0.251607,0.179822 -0.557946,0.28722 -0.893574,0.28722 H 3.4986282 c -0.3506222,0 -0.668065,-0.118767 -0.9254873,-0.313502 l 8.7611551,-6.974007 2.31278,1.871624 a 0.48062568,0.48062568 0 0 0 0.602599,0.0019 z"
     id="Tracé_55"
     inkscape:connector-curvature="0" />
</svg>
