<?xml version="1.0" encoding="UTF-8" standalone="no"?>
<svg
   xmlns:dc="http://purl.org/dc/elements/1.1/"
   xmlns:cc="http://creativecommons.org/ns#"
   xmlns:rdf="http://www.w3.org/1999/02/22-rdf-syntax-ns#"
   xmlns:svg="http://www.w3.org/2000/svg"
   xmlns="http://www.w3.org/2000/svg"
   xmlns:sodipodi="http://sodipodi.sourceforge.net/DTD/sodipodi-0.dtd"
   xmlns:inkscape="http://www.inkscape.org/namespaces/inkscape"
   id="Icone_L_Epargne"
   data-name="Icone/L/Epargne"
   width="28"
   height="28"
   viewBox="0 0 28 28"
   version="1.1"
   sodipodi:docname="epargne.svg"
   inkscape:version="0.92.3 (2405546, 2018-03-11)">
  <metadata
     id="metadata18">
    <rdf:RDF>
      <cc:Work
         rdf:about="">
        <dc:format>image/svg+xml</dc:format>
        <dc:type
           rdf:resource="http://purl.org/dc/dcmitype/StillImage" />
        <dc:title></dc:title>
      </cc:Work>
    </rdf:RDF>
  </metadata>
  <defs
     id="defs16" />
  <sodipodi:namedview
     pagecolor="#ffffff"
     bordercolor="#666666"
     borderopacity="1"
     objecttolerance="10"
     gridtolerance="10"
     guidetolerance="10"
     inkscape:pageopacity="0"
     inkscape:pageshadow="2"
     inkscape:window-width="1920"
     inkscape:window-height="1052"
     id="namedview14"
     showgrid="false"
     inkscape:zoom="8.4285714"
     inkscape:cx="14"
     inkscape:cy="14"
     inkscape:window-x="0"
     inkscape:window-y="0"
     inkscape:window-maximized="1"
     inkscape:current-layer="Icone_L_Epargne" />
  <path
     style="color:#000000;font-style:normal;font-variant:normal;font-weight:normal;font-stretch:normal;font-size:medium;line-height:normal;font-family:sans-serif;font-variant-ligatures:normal;font-variant-position:normal;font-variant-caps:normal;font-variant-numeric:normal;font-variant-alternates:normal;font-feature-settings:normal;text-indent:0;text-align:start;text-decoration:none;text-decoration-line:none;text-decoration-style:solid;text-decoration-color:#000000;letter-spacing:normal;word-spacing:normal;text-transform:none;writing-mode:lr-tb;direction:ltr;text-orientation:mixed;dominant-baseline:auto;baseline-shift:baseline;text-anchor:start;white-space:normal;shape-padding:0;clip-rule:nonzero;display:inline;overflow:visible;visibility:visible;opacity:1;isolation:auto;mix-blend-mode:normal;color-interpolation:sRGB;color-interpolation-filters:linearRGB;solid-color:#000000;solid-opacity:1;vector-effect:none;fill:#000000;fill-opacity:1;fill-rule:nonzero;stroke:none;stroke-width:0.96962452;stroke-linecap:round;stroke-linejoin:round;stroke-miterlimit:10;stroke-dasharray:none;stroke-dashoffset:0;stroke-opacity:1;color-rendering:auto;image-rendering:auto;shape-rendering:auto;text-rendering:auto;enable-background:accumulate"
     d="m 6.5791285,6.5431951 a 0.48486075,0.48486075 0 1 0 0,0.9696246 H 26.030327 v 8.8232033 a 0.48486075,0.48486075 0 1 0 0.969625,0 V 7.0280074 A 0.48486075,0.48486075 0 0 0 26.515139,6.5431951 Z M 3.800927,8.8839294 a 0.48486075,0.48486075 0 1 0 0,0.9696245 h 19.451199 v 8.8023731 a 0.48486075,0.48486075 0 1 0 0.969624,0 V 9.3687416 A 0.48486075,0.48486075 0 0 0 23.736938,8.8839294 Z M 1.4848121,11.200043 a 0.48486075,0.48486075 0 0 0 -0.48481222,0.484813 v 9.287185 A 0.48486075,0.48486075 0 0 0 1.4848121,21.456853 H 21.420823 a 0.48486075,0.48486075 0 0 0 0.484812,-0.484812 v -9.287185 a 0.48486075,0.48486075 0 0 0 -0.484812,-0.484813 z m 0.4848123,0.969625 h 1.8350902 a 0.48486075,0.48486075 0 0 0 0,0.0057 c 0.00429,1.017571 -0.8118383,1.831803 -1.8294087,1.827514 a 0.48486075,0.48486075 0 0 0 -0.00568,0 z m 2.8047147,0 H 18.106676 a 0.48486075,0.48486075 0 0 0 0,0.0019 c -0.0065,1.544478 1.258342,2.807435 2.802821,2.800926 a 0.48486075,0.48486075 0 0 0 0.02651,-0.0019 v 2.711919 a 0.48486075,0.48486075 0 0 0 -0.02651,0 c -1.544479,-0.0065 -2.809329,1.258343 -2.802821,2.802821 a 0.48486075,0.48486075 0 0 0 0,0.0019 H 4.7724454 c -0.00622,-1.533898 -1.2642121,-2.786577 -2.8009272,-2.7801 a 0.48486075,0.48486075 0 0 0 -0.00189,0 v -2.734645 a 0.48486075,0.48486075 0 0 0 0.00189,0 c 1.5444788,0.0065 2.8093296,-1.256449 2.8028209,-2.800926 a 0.48486075,0.48486075 0 0 0 0,-0.0019 z m 14.3019619,0 h 1.85971 v 1.833196 a 0.48486075,0.48486075 0 0 0 -0.0303,0 c -1.01757,0.0043 -1.833697,-0.809943 -1.829409,-1.827514 a 0.48486075,0.48486075 0 0 0 0,-0.0057 z m -6.967283,1.704419 c -1.180749,5.78e-4 -2.1735362,0.843399 -2.4108043,1.956293 H 9.4595952 a 0.48486075,0.48486075 0 1 0 0,0.969624 h 0.2310433 c 0.2182869,1.136935 1.2204755,2.004947 2.4183795,2.005532 h 0.668511 a 0.48486075,0.48486075 0 1 0 0,-0.969625 h -0.668511 c -0.669975,-3.26e-4 -1.223329,-0.433814 -1.41656,-1.035907 h 2.085071 a 0.48486075,0.48486075 0 1 0 0,-0.969624 h -2.069921 c 0.207185,-0.576561 0.749576,-0.98635 1.40141,-0.986669 h 0.668511 a 0.48486075,0.48486075 0 1 0 0,-0.969624 z m 8.826993,4.776158 v 1.836983 h -1.85971 a 0.48486075,0.48486075 0 0 0 0,-0.0076 c -0.0043,-1.017571 0.811839,-1.831803 1.829409,-1.827516 a 0.48486075,0.48486075 0 0 0 0.0303,-0.0019 z m -18.9663866,0.02651 a 0.48486075,0.48486075 0 0 0 0.00568,0 c 1.0110788,-0.0042 1.8214,0.801971 1.8275149,1.81047 H 1.9696244 Z"
     id="Tracé_122"
     inkscape:connector-curvature="0" />
</svg>
