<?xml version="1.0" encoding="UTF-8" standalone="no"?>
<svg
   xmlns:dc="http://purl.org/dc/elements/1.1/"
   xmlns:cc="http://creativecommons.org/ns#"
   xmlns:rdf="http://www.w3.org/1999/02/22-rdf-syntax-ns#"
   xmlns:svg="http://www.w3.org/2000/svg"
   xmlns="http://www.w3.org/2000/svg"
   xmlns:sodipodi="http://sodipodi.sourceforge.net/DTD/sodipodi-0.dtd"
   xmlns:inkscape="http://www.inkscape.org/namespaces/inkscape"
   id="Icone_L_Etudiants"
   data-name="Icone/L/Etudiants"
   width="28"
   height="28"
   viewBox="0 0 28 28"
   version="1.1"
   sodipodi:docname="etudiant.svg"
   inkscape:version="0.92.3 (2405546, 2018-03-11)">
  <metadata
     id="metadata13">
    <rdf:RDF>
      <cc:Work
         rdf:about="">
        <dc:format>image/svg+xml</dc:format>
        <dc:type
           rdf:resource="http://purl.org/dc/dcmitype/StillImage" />
        <dc:title></dc:title>
      </cc:Work>
    </rdf:RDF>
  </metadata>
  <defs
     id="defs11" />
  <sodipodi:namedview
     pagecolor="#ffffff"
     bordercolor="#666666"
     borderopacity="1"
     objecttolerance="10"
     gridtolerance="10"
     guidetolerance="10"
     inkscape:pageopacity="0"
     inkscape:pageshadow="2"
     inkscape:window-width="1920"
     inkscape:window-height="1052"
     id="namedview9"
     showgrid="false"
     inkscape:zoom="8.4285714"
     inkscape:cx="14"
     inkscape:cy="14"
     inkscape:window-x="0"
     inkscape:window-y="0"
     inkscape:window-maximized="1"
     inkscape:current-layer="Icone_L_Etudiants" />
  <path
     style="color:#000000;font-style:normal;font-variant:normal;font-weight:normal;font-stretch:normal;font-size:medium;line-height:normal;font-family:sans-serif;font-variant-ligatures:normal;font-variant-position:normal;font-variant-caps:normal;font-variant-numeric:normal;font-variant-alternates:normal;font-feature-settings:normal;text-indent:0;text-align:start;text-decoration:none;text-decoration-line:none;text-decoration-style:solid;text-decoration-color:#000000;letter-spacing:normal;word-spacing:normal;text-transform:none;writing-mode:lr-tb;direction:ltr;text-orientation:mixed;dominant-baseline:auto;baseline-shift:baseline;text-anchor:start;white-space:normal;shape-padding:0;clip-rule:nonzero;display:inline;overflow:visible;visibility:visible;opacity:1;isolation:auto;mix-blend-mode:normal;color-interpolation:sRGB;color-interpolation-filters:linearRGB;solid-color:#000000;solid-opacity:1;vector-effect:none;fill:#000000;fill-opacity:1;fill-rule:nonzero;stroke:none;stroke-width:0.96226329;stroke-linecap:round;stroke-linejoin:round;stroke-miterlimit:4;stroke-dasharray:none;stroke-dashoffset:0;stroke-opacity:1;color-rendering:auto;image-rendering:auto;shape-rendering:auto;text-rendering:auto;enable-background:accumulate"
     d="M 9.0111841,1.0009437 A 0.48117975,0.48117975 0 0 0 8.9002983,1.9406539 L 10.757166,2.5495862 9.7403992,5.6543888 a 0.48117975,0.48117975 0 0 0 0.3082248,0.6070528 l 0.03571,0.011277 c -2.699562,2.8515159 -1.5764234,7.7655874 2.328602,9.0230994 3.887643,1.251911 7.646801,-2.049555 7.158712,-5.9182968 l 0.03759,0.013156 a 0.48117975,0.48117975 0 0 0 0.607052,-0.308225 l 1.014888,-3.1029232 1.527968,0.4999258 v 5.1026272 a 0.48117975,0.48117975 0 1 0 0.962263,0 V 6.1317615 A 0.48117975,0.48117975 0 0 0 23.390629,5.6750624 L 21.107133,4.927053 A 0.48117975,0.48117975 0 0 0 21.075183,4.915776 L 11.514571,1.784662 a 0.48117975,0.48117975 0 0 0 -0.0075,-0.00188 L 9.2010055,1.0272556 A 0.48117975,0.48117975 0 0 0 9.0111841,1.0009437 Z m 2.6593799,1.8493498 8.647213,2.8304071 -0.866413,2.6443446 -0.293189,-0.09585 a 0.48117975,0.48117975 0 0 0 -0.152233,-0.050744 h -0.0038 L 15.968799,7.184237 a 0.48117975,0.48117975 0 0 0 0,-0.00188 L 10.80603,5.4965175 Z M 11.13117,6.6147726 15.669971,8.0976354 18.52669,9.0354661 C 19.323906,12.464078 16.116506,15.478157 12.708004,14.380539 9.2859589,13.278559 8.4445712,8.9270345 11.13117,6.6147726 Z m 2.413175,10.1545094 c -5.3047675,0 -9.5353863,4.46261 -9.2523857,9.759831 a 0.48117975,0.48117975 0 1 0 0.9603839,-0.05262 C 4.9980539,21.716694 8.7777641,17.73155 13.544345,17.73155 c 4.766583,0 8.546293,3.985144 8.292004,8.744943 a 0.48117975,0.48117975 0 1 0 0.960384,0.05262 c 0.283001,-5.297221 -3.947618,-9.759831 -9.252388,-9.759831 z"
     id="Tracé_348"
     inkscape:connector-curvature="0" />
</svg>
