<?xml version="1.0" encoding="UTF-8" standalone="no"?>
<svg
   xmlns:dc="http://purl.org/dc/elements/1.1/"
   xmlns:cc="http://creativecommons.org/ns#"
   xmlns:rdf="http://www.w3.org/1999/02/22-rdf-syntax-ns#"
   xmlns:svg="http://www.w3.org/2000/svg"
   xmlns="http://www.w3.org/2000/svg"
   xmlns:sodipodi="http://sodipodi.sourceforge.net/DTD/sodipodi-0.dtd"
   xmlns:inkscape="http://www.inkscape.org/namespaces/inkscape"
   id="Icone_L_FAQ"
   data-name="Icone/L/FAQ"
   width="28"
   height="28"
   viewBox="0 0 28 28"
   version="1.1"
   sodipodi:docname="faq.svg"
   inkscape:version="0.92.3 (2405546, 2018-03-11)">
  <metadata
     id="metadata14">
    <rdf:RDF>
      <cc:Work
         rdf:about="">
        <dc:format>image/svg+xml</dc:format>
        <dc:type
           rdf:resource="http://purl.org/dc/dcmitype/StillImage" />
        <dc:title></dc:title>
      </cc:Work>
    </rdf:RDF>
  </metadata>
  <defs
     id="defs12" />
  <sodipodi:namedview
     pagecolor="#ffffff"
     bordercolor="#666666"
     borderopacity="1"
     objecttolerance="10"
     gridtolerance="10"
     guidetolerance="10"
     inkscape:pageopacity="0"
     inkscape:pageshadow="2"
     inkscape:window-width="1920"
     inkscape:window-height="1052"
     id="namedview10"
     showgrid="false"
     inkscape:zoom="8.4285714"
     inkscape:cx="14"
     inkscape:cy="14"
     inkscape:window-x="0"
     inkscape:window-y="0"
     inkscape:window-maximized="1"
     inkscape:current-layer="Icone_L_FAQ" />
  <path
     id="Tracé_355"
     style="fill:#000000;stroke-width:0.96269459;fill-opacity:1"
     d="m 18.704014,12.174361 a 0.73068517,0.73068517 0 0 0 0.364861,0.08183 0.79422301,0.79422301 0 0 0 0.174248,-0.01829 0.86642511,0.86642511 0 0 0 -0.192539,-0.325391 0.33116693,0.33116693 0 0 0 -0.23586,-0.116486 0.64307997,0.64307997 0 0 0 -0.354272,0.09627 0.57761674,0.57761674 0 0 0 0.240674,0.288808 z M 18.505699,9.9794181 A 1.7155217,1.7155217 0 0 0 18.31316,10.932485 v 0.36775 a 0.95017953,0.95017953 0 0 1 0.325391,-0.211793 1.058964,1.058964 0 0 1 0.402406,-0.07894 0.89241786,0.89241786 0 0 1 0.751864,0.349458 3.2981916,3.2981916 0 0 0 0.02407,-0.441877 1.667387,1.667387 0 0 0 -0.182912,-0.9367019 0.72779709,0.72779709 0 0 0 -1.127316,0 z m 2.125629,2.8880829 a 0.69602817,0.69602817 0 0 0 0.192539,-0.02407 0.91070906,0.91070906 0 0 0 0.198315,-0.09627 v 0.673887 a 1.3477724,1.3477724 0 0 1 -0.6219,0.11071 0.97135881,0.97135881 0 0 1 -0.968471,-0.529483 3.243318,3.243318 0 0 1 -0.362936,0.02118 1.9725612,1.9725612 0 0 1 -1.469072,-0.502527 2.1920555,2.1920555 0 0 1 -0.494825,-1.588446 2.1949436,2.1949436 0 0 1 0.481347,-1.5701546 1.9311653,1.9311653 0 0 1 1.479662,-0.529482 1.9619715,1.9619715 0 0 1 1.466184,0.5025266 2.1833913,2.1833913 0 0 1 0.494825,1.588446 1.9966285,1.9966285 0 0 1 -0.71432,1.771358 0.39470477,0.39470477 0 0 0 0.314802,0.174248 z m -5.456552,-1.487363 -0.409146,-1.287122 -0.407219,1.286159 z m 0.264741,0.815402 h -1.322743 l -0.227196,0.696029 H 12.81136 l 1.43249,-3.8863982 h 1.291936 L 16.8412,12.891569 H 15.647459 Z M 9.7326636,8.991693 h 2.7581194 v 0.8731641 h -1.588446 v 0.7460879 h 1.360288 v 0.87894 h -1.362213 v 1.400721 H 9.7326636 Z M 5.949635,2.1861193 V 22.914136 c -0.5988305,0.268199 -1.0207852,0.634657 -1.2973813,1.015343 -0.1484626,0.204332 -0.069699,0.226046 -0.1485408,0.419299 -0.272857,-0.701265 -0.3440881,-1.42712 -0.3440881,-1.42712 V 4.4894413 c 0,-1.3141727 0.6781581,-1.8533812 1.43088,-2.1811049 C 5.7118985,2.2554834 5.8303859,2.2236034 5.949635,2.1861193 Z M 22.610644,1.9680089 c 0.67546,0.066698 1.211633,0.6214044 1.229691,1.3331063 V 20.529964 c 0,1.088485 -0.337266,1.516142 -0.628007,1.737362 -0.290743,0.221221 -0.539636,0.223751 -0.539636,0.223751 H 8.2322741 8.2285135 c -0.491645,-0.0026 -0.9275357,0.04177 -1.3161839,0.120337 V 1.9924523 c 0.063674,-0.00375 0.2068289,-0.018803 0.2068289,-0.018803 H 22.259034 a 0.48139542,0.48139542 0 0 0 0.05453,-0.00376 c 0.101067,-0.011374 0.200587,-0.011409 0.297082,-0.00188 z M 7.1191585,1.0109551 c 0,0 -0.9441326,-0.00596 -1.9122273,0.4155381 -0.9680947,0.4214935 -2.010001,1.3802527 -2.010001,3.0629481 V 22.921658 c 0,0 -0.00652,0.994156 0.4775868,2.00624 0.088702,0.185443 0.3084622,0.337088 0.4381012,0.518952 -2.5e-6,3.32e-4 -0.00752,0.02257 -0.00752,0.02257 a 0.48139542,0.48139542 0 0 0 0.4381012,0.486987 c 0.5997266,0.573682 1.3733612,1.043547 2.5759601,1.043547 H 22.777987 a 0.48139542,0.48139542 0 1 0 0,-0.962695 H 7.1191585 c -1.0011838,0 -1.5557125,-0.343945 -1.974276,-0.772788 0.012308,-0.141098 -0.00252,-0.372199 0.2858,-0.769028 0.365278,-0.502739 1.0854082,-1.05161 2.7959508,-1.041665 a 0.48139542,0.48139542 0 0 0 0.00188,0 H 22.685854 a 0.48139542,0.48139542 0 0 0 0.01316,0 c 0,0 0.568646,-0.01977 1.096194,-0.421179 0.527549,-0.401402 1.007821,-1.194969 1.007821,-2.502629 V 3.2898336 a 0.48139542,0.48139542 0 0 0 0,-0.013162 C 24.768448,1.9137321 23.559332,0.86224045 22.204507,1.0147156 l 0.05453,-0.00376 z"
     inkscape:connector-curvature="0" />
</svg>
