<?xml version="1.0" encoding="UTF-8" standalone="no"?>
<svg
   xmlns:dc="http://purl.org/dc/elements/1.1/"
   xmlns:cc="http://creativecommons.org/ns#"
   xmlns:rdf="http://www.w3.org/1999/02/22-rdf-syntax-ns#"
   xmlns:svg="http://www.w3.org/2000/svg"
   xmlns="http://www.w3.org/2000/svg"
   xmlns:sodipodi="http://sodipodi.sourceforge.net/DTD/sodipodi-0.dtd"
   xmlns:inkscape="http://www.inkscape.org/namespaces/inkscape"
   id="Icone_L_Geolocalisation"
   data-name="Icone/L/Geolocalisation"
   width="28"
   height="28"
   viewBox="0 0 28 28"
   version="1.1"
   sodipodi:docname="geolocalisation.svg"
   inkscape:version="0.92.3 (2405546, 2018-03-11)">
  <metadata
     id="metadata11">
    <rdf:RDF>
      <cc:Work
         rdf:about="">
        <dc:format>image/svg+xml</dc:format>
        <dc:type
           rdf:resource="http://purl.org/dc/dcmitype/StillImage" />
        <dc:title></dc:title>
      </cc:Work>
    </rdf:RDF>
  </metadata>
  <defs
     id="defs9" />
  <sodipodi:namedview
     pagecolor="#ffffff"
     bordercolor="#666666"
     borderopacity="1"
     objecttolerance="10"
     gridtolerance="10"
     guidetolerance="10"
     inkscape:pageopacity="0"
     inkscape:pageshadow="2"
     inkscape:window-width="1920"
     inkscape:window-height="1052"
     id="namedview7"
     showgrid="false"
     inkscape:zoom="8.4285714"
     inkscape:cx="14"
     inkscape:cy="14"
     inkscape:window-x="0"
     inkscape:window-y="0"
     inkscape:window-maximized="1"
     inkscape:current-layer="Icone_L_Geolocalisation" />
  <path
     style="color:#000000;font-style:normal;font-variant:normal;font-weight:normal;font-stretch:normal;font-size:medium;line-height:normal;font-family:sans-serif;font-variant-ligatures:normal;font-variant-position:normal;font-variant-caps:normal;font-variant-numeric:normal;font-variant-alternates:normal;font-feature-settings:normal;text-indent:0;text-align:start;text-decoration:none;text-decoration-line:none;text-decoration-style:solid;text-decoration-color:#000000;letter-spacing:normal;word-spacing:normal;text-transform:none;writing-mode:lr-tb;direction:ltr;text-orientation:mixed;dominant-baseline:auto;baseline-shift:baseline;text-anchor:start;white-space:normal;shape-padding:0;clip-rule:nonzero;display:inline;overflow:visible;visibility:visible;opacity:1;isolation:auto;mix-blend-mode:normal;color-interpolation:sRGB;color-interpolation-filters:linearRGB;solid-color:#000000;solid-opacity:1;vector-effect:none;fill:#000000;fill-opacity:1;fill-rule:nonzero;stroke:none;stroke-width:0.96231782;stroke-linecap:round;stroke-linejoin:round;stroke-miterlimit:10;stroke-dasharray:none;stroke-dashoffset:0;stroke-opacity:1;color-rendering:auto;image-rendering:auto;shape-rendering:auto;text-rendering:auto;enable-background:accumulate"
     d="m 14.001255,0.9999959 c -2.234424,0 -4.4683288,0.8916084 -6.1122232,2.6745669 C 5.0667398,6.7410196 4.5683503,11.293558 6.6617007,14.897218 a 0.48120703,0.48120703 0 0 0 0.00188,0.0019 l 6.9448533,11.863574 a 0.48120703,0.48120703 0 0 0 0.830751,-0.0019 L 21.340807,14.897218 C 23.429647,11.292873 22.933391,6.7426631 20.115355,3.6745628 18.471461,1.8916043 16.235676,0.9999959 14.001255,0.9999959 Z m 0,0.9547998 c 1.973478,-2e-7 3.947232,0.7903138 5.405519,2.371963 2.53594,2.7609722 2.981142,6.8438823 1.101402,10.0874213 h 0.0019 L 14.023808,25.565414 7.4943312,14.41418 v -0.0019 C 5.6118454,11.170129 6.058606,7.0854231 8.5976135,4.3267587 10.055793,2.7458974 12.028265,1.9547957 14.001255,1.9547957 Z m 0.02255,2.9884479 c -2.737767,0 -4.9675899,2.2298229 -4.9675899,4.9675903 0,2.7377671 2.2298229,4.9675891 4.9675899,4.9675891 2.737768,0 4.96759,-2.229822 4.96759,-4.9675891 0,-2.7377674 -2.229822,-4.9675903 -4.96759,-4.9675903 z m 0,0.9623178 c 2.217693,0 4.005272,1.7875802 4.005272,4.0052725 0,2.2176911 -1.787579,4.0052711 -4.005272,4.0052711 -2.217692,0 -4.005272,-1.78758 -4.005272,-4.0052711 0,-2.2176923 1.78758,-4.0052725 4.005272,-4.0052725 z"
     id="Tracé_121"
     inkscape:connector-curvature="0" />
</svg>
