<?xml version="1.0" encoding="UTF-8" standalone="no"?>
<svg
   xmlns:dc="http://purl.org/dc/elements/1.1/"
   xmlns:cc="http://creativecommons.org/ns#"
   xmlns:rdf="http://www.w3.org/1999/02/22-rdf-syntax-ns#"
   xmlns:svg="http://www.w3.org/2000/svg"
   xmlns="http://www.w3.org/2000/svg"
   xmlns:sodipodi="http://sodipodi.sourceforge.net/DTD/sodipodi-0.dtd"
   xmlns:inkscape="http://www.inkscape.org/namespaces/inkscape"
   id="Icone_L_Historique"
   data-name="Icone/L/Historique"
   width="28"
   height="28"
   viewBox="0 0 28 28"
   version="1.1"
   sodipodi:docname="historique.svg"
   inkscape:version="0.92.3 (2405546, 2018-03-11)">
  <metadata
     id="metadata12">
    <rdf:RDF>
      <cc:Work
         rdf:about="">
        <dc:format>image/svg+xml</dc:format>
        <dc:type
           rdf:resource="http://purl.org/dc/dcmitype/StillImage" />
        <dc:title></dc:title>
      </cc:Work>
    </rdf:RDF>
  </metadata>
  <defs
     id="defs10" />
  <sodipodi:namedview
     pagecolor="#ffffff"
     bordercolor="#666666"
     borderopacity="1"
     objecttolerance="10"
     gridtolerance="10"
     guidetolerance="10"
     inkscape:pageopacity="0"
     inkscape:pageshadow="2"
     inkscape:window-width="1920"
     inkscape:window-height="1052"
     id="namedview8"
     showgrid="false"
     inkscape:zoom="8.4285714"
     inkscape:cx="14"
     inkscape:cy="14"
     inkscape:window-x="0"
     inkscape:window-y="0"
     inkscape:window-maximized="1"
     inkscape:current-layer="Icone_L_Historique" />
  <path
     style="color:#000000;font-style:normal;font-variant:normal;font-weight:normal;font-stretch:normal;font-size:medium;line-height:normal;font-family:sans-serif;font-variant-ligatures:normal;font-variant-position:normal;font-variant-caps:normal;font-variant-numeric:normal;font-variant-alternates:normal;font-feature-settings:normal;text-indent:0;text-align:start;text-decoration:none;text-decoration-line:none;text-decoration-style:solid;text-decoration-color:#000000;letter-spacing:normal;word-spacing:normal;text-transform:none;writing-mode:lr-tb;direction:ltr;text-orientation:mixed;dominant-baseline:auto;baseline-shift:baseline;text-anchor:start;white-space:normal;shape-padding:0;clip-rule:nonzero;display:inline;overflow:visible;visibility:visible;opacity:1;isolation:auto;mix-blend-mode:normal;color-interpolation:sRGB;color-interpolation-filters:linearRGB;solid-color:#000000;solid-opacity:1;vector-effect:none;fill:#000000;fill-opacity:1;fill-rule:nonzero;stroke:none;stroke-width:0.96275264;stroke-linecap:round;stroke-linejoin:round;stroke-miterlimit:10;stroke-dasharray:none;stroke-dashoffset:0;stroke-opacity:1;color-rendering:auto;image-rendering:auto;shape-rendering:auto;text-rendering:auto;enable-background:accumulate"
     d="M 13.737984,1.0545978 C 9.5587178,1.1076688 5.3597118,3.144601 2.8148786,7.6321537 L 2.7753907,7.6979669 1.9442644,4.984584 A 0.48142444,0.48142444 0 0 0 1.4760508,4.6385948 0.48142444,0.48142444 0 0 0 1.0228801,5.2666405 L 2.1887133,9.0725219 A 0.48142444,0.48142444 0 0 0 2.7302617,9.4072288 L 6.5361431,8.7547383 A 0.48163058,0.48163058 0 1 0 6.3744307,7.8051483 L 3.5407039,8.2902854 3.6441245,8.1210515 a 0.48142444,0.48142444 0 0 0 0.00752,-0.013163 C 6.829854,2.5034488 12.633624,1.0553082 17.56643,2.5664203 22.499235,4.0775323 26.497945,8.5278868 25.996157,14.944937 25.558631,20.540148 21.30033,25.076132 15.744345,25.864281 10.188299,26.65244 4.8359952,23.481051 2.8600076,18.228073 A 0.48142444,0.48142444 0 1 0 1.9593074,18.56654 C 4.092221,24.236692 9.8823283,27.6684 15.879732,26.817632 21.877077,25.966872 26.482891,21.059517 26.955148,15.020152 27.490923,8.168503 23.153753,3.2702473 17.848486,1.6450359 16.52217,1.2387331 15.131073,1.0369074 13.737984,1.0545978 Z M 13.512339,5.768701 a 0.48142444,0.48142444 0 0 0 -0.473855,0.4888977 v 8.4353673 a 0.48142444,0.48142444 0 0 0 0.280176,0.438127 l 6.240969,2.84501 a 0.48172628,0.48172628 0 0 0 0.40052,-0.876256 L 14.001237,14.382703 V 6.2575987 A 0.48142444,0.48142444 0 0 0 13.512339,5.768701 Z"
     id="Tracé_88"
     inkscape:connector-curvature="0" />
</svg>
