<?xml version="1.0" encoding="UTF-8" standalone="no"?>
<svg
   xmlns:dc="http://purl.org/dc/elements/1.1/"
   xmlns:cc="http://creativecommons.org/ns#"
   xmlns:rdf="http://www.w3.org/1999/02/22-rdf-syntax-ns#"
   xmlns:svg="http://www.w3.org/2000/svg"
   xmlns="http://www.w3.org/2000/svg"
   xmlns:sodipodi="http://sodipodi.sourceforge.net/DTD/sodipodi-0.dtd"
   xmlns:inkscape="http://www.inkscape.org/namespaces/inkscape"
   width="28"
   height="28"
   viewBox="0 0 28 28"
   version="1.1"
   id="svg12"
   sodipodi:docname="Icone-Bourse.svg"
   inkscape:version="0.92.3 (2405546, 2018-03-11)">
  <metadata
     id="metadata18">
    <rdf:RDF>
      <cc:Work
         rdf:about="">
        <dc:format>image/svg+xml</dc:format>
        <dc:type
           rdf:resource="http://purl.org/dc/dcmitype/StillImage" />
        <dc:title></dc:title>
      </cc:Work>
    </rdf:RDF>
  </metadata>
  <defs
     id="defs16" />
  <sodipodi:namedview
     pagecolor="#ffffff"
     bordercolor="#666666"
     borderopacity="1"
     objecttolerance="10"
     gridtolerance="10"
     guidetolerance="10"
     inkscape:pageopacity="0"
     inkscape:pageshadow="2"
     inkscape:window-width="1920"
     inkscape:window-height="1052"
     id="namedview14"
     showgrid="false"
     inkscape:zoom="8.7407407"
     inkscape:cx="13.5"
     inkscape:cy="13.5"
     inkscape:window-x="0"
     inkscape:window-y="0"
     inkscape:window-maximized="1"
     inkscape:current-layer="svg12" />
  <path
     style="color:#000000;font-style:normal;font-variant:normal;font-weight:normal;font-stretch:normal;font-size:medium;line-height:normal;font-family:sans-serif;font-variant-ligatures:normal;font-variant-position:normal;font-variant-caps:normal;font-variant-numeric:normal;font-variant-alternates:normal;font-feature-settings:normal;text-indent:0;text-align:start;text-decoration:none;text-decoration-line:none;text-decoration-style:solid;text-decoration-color:#000000;letter-spacing:normal;word-spacing:normal;text-transform:none;writing-mode:lr-tb;direction:ltr;text-orientation:mixed;dominant-baseline:auto;baseline-shift:baseline;text-anchor:start;white-space:normal;shape-padding:0;clip-rule:nonzero;display:inline;overflow:visible;visibility:visible;opacity:1;isolation:auto;mix-blend-mode:normal;color-interpolation:sRGB;color-interpolation-filters:linearRGB;solid-color:#000000;solid-opacity:1;vector-effect:none;fill:#000000;fill-opacity:1;fill-rule:nonzero;stroke:none;stroke-width:0.96243048;stroke-linecap:round;stroke-linejoin:round;stroke-miterlimit:4;stroke-dasharray:none;stroke-dashoffset:0;stroke-opacity:1;color-rendering:auto;image-rendering:auto;shape-rendering:auto;text-rendering:auto;enable-background:accumulate"
     d="M 1.4806803,1.0000589 A 0.48126336,0.48126336 0 0 0 1.006984,1.4887931 v 4.9399753 a 0.48126336,0.48126336 0 0 0 0,0.07143 v 5.7012736 a 0.48126336,0.48126336 0 0 0 0,0.07331 v 5.703152 a 0.48126336,0.48126336 0 0 0 0,0.07143 v 8.366755 a 0.48126336,0.48126336 0 0 0 0.0094,0.201127 0.48126336,0.48126336 0 0 0 0.6259558,0.357151 h 8.2972035 a 0.48126336,0.48126336 0 0 0 0.07143,0 h 5.705032 a 0.48126336,0.48126336 0 0 0 0.07331,0 h 5.699394 a 0.48126336,0.48126336 0 0 0 0.07143,0 h 4.951253 a 0.48126336,0.48126336 0 1 0 0,-0.96243 h -4.500115 v -2.063962 a 0.48126336,0.48126336 0 0 0 -0.486855,-0.488734 0.48126336,0.48126336 0 0 0 -0.475574,0.488734 v 2.063962 h -4.810274 v -2.063962 a 0.48126336,0.48126336 0 0 0 -0.488734,-0.488734 0.48126336,0.48126336 0 0 0 -0.473696,0.488734 v 2.063962 H 10.462112 V 23.948012 A 0.48126336,0.48126336 0 0 0 9.9733775,23.459278 0.48126336,0.48126336 0 0 0 9.4996813,23.948012 v 2.063962 H 1.9694145 v -7.51147 h 2.0639623 a 0.48126336,0.48126336 0 1 0 0,-0.962431 H 1.9694145 v -4.814031 h 2.0639623 a 0.48126336,0.48126336 0 1 0 0,-0.962431 H 1.9694145 V 6.951338 h 2.0639623 a 0.48126336,0.48126336 0 1 0 0,-0.9624305 H 1.9694145 V 1.4887931 A 0.48126336,0.48126336 0 0 0 1.4806803,1.0000589 Z M 21.624049,10.996554 a 0.48126336,0.48126336 0 0 0 -0.328955,0.142861 l -5.451266,5.479463 -2.654204,-2.244419 a 0.48126336,0.48126336 0 0 0 -0.656032,0.03196 l -7.936291,8.180659 a 0.48188434,0.48188434 0 1 0 0.6917469,0.671071 l 7.6223741,-7.857343 2.650444,2.238778 a 0.48126336,0.48126336 0 0 0 0.650392,-0.0282 l 5.428709,-5.455026 3.067747,3.000076 a 0.48126336,0.48126336 0 1 0 0.67295,-0.687987 l -3.409861,-3.334671 a 0.48126336,0.48126336 0 0 0 -0.347754,-0.137222 z"
     id="Tracé_273"
     inkscape:connector-curvature="0" />
</svg>
