<?xml version="1.0" encoding="UTF-8" standalone="no"?>
<svg
   xmlns:dc="http://purl.org/dc/elements/1.1/"
   xmlns:cc="http://creativecommons.org/ns#"
   xmlns:rdf="http://www.w3.org/1999/02/22-rdf-syntax-ns#"
   xmlns:svg="http://www.w3.org/2000/svg"
   xmlns="http://www.w3.org/2000/svg"
   xmlns:sodipodi="http://sodipodi.sourceforge.net/DTD/sodipodi-0.dtd"
   xmlns:inkscape="http://www.inkscape.org/namespaces/inkscape"
   id="Icone_L_Info"
   data-name="Icone/L/Info"
   width="28"
   height="28"
   viewBox="0 0 28 28"
   version="1.1"
   sodipodi:docname="info.svg"
   inkscape:version="0.92.3 (2405546, 2018-03-11)">
  <metadata
     id="metadata11">
    <rdf:RDF>
      <cc:Work
         rdf:about="">
        <dc:format>image/svg+xml</dc:format>
        <dc:type
           rdf:resource="http://purl.org/dc/dcmitype/StillImage" />
        <dc:title></dc:title>
      </cc:Work>
    </rdf:RDF>
  </metadata>
  <defs
     id="defs9" />
  <sodipodi:namedview
     pagecolor="#ffffff"
     bordercolor="#666666"
     borderopacity="1"
     objecttolerance="10"
     gridtolerance="10"
     guidetolerance="10"
     inkscape:pageopacity="0"
     inkscape:pageshadow="2"
     inkscape:window-width="1920"
     inkscape:window-height="1052"
     id="namedview7"
     showgrid="false"
     inkscape:zoom="8.4285714"
     inkscape:cx="-10.559322"
     inkscape:cy="14"
     inkscape:window-x="0"
     inkscape:window-y="0"
     inkscape:window-maximized="1"
     inkscape:current-layer="Icone_L_Info" />
  <path
     id="Tracé_171"
     style="fill:#000000;stroke-width:0.96554726;fill-opacity:1"
     d="m 13.242174,9.977658 a 0.96554727,0.96554727 0 0 1 1.926267,0 0.96554727,0.96554727 0 0 1 -1.926267,0 z m 0.482773,3.40452 h -3.301206 v -0.99741 h 4.505244 v 7.11898 H 13.724947 Z M 14.000943,1.9655473 c 6.652234,0 12.03351,5.3831621 12.03351,12.0353957 0,6.652234 -5.381276,12.03351 -12.03351,12.03351 -6.6522336,0 -12.0353957,-5.381276 -12.0353957,-12.03351 0,-6.6522336 5.3831621,-12.0353957 12.0353957,-12.0353957 z M 14.000943,1 C 6.8268888,1 1,6.8268888 1,14.000943 1,21.174997 6.8268888,27 14.000943,27 21.174997,27 27,21.174997 27,14.000943 27,6.8268888 21.174997,1 14.000943,1 Z"
     inkscape:connector-curvature="0" />
</svg>
