<?xml version="1.0" encoding="UTF-8" standalone="no"?>
<svg
   xmlns:dc="http://purl.org/dc/elements/1.1/"
   xmlns:cc="http://creativecommons.org/ns#"
   xmlns:rdf="http://www.w3.org/1999/02/22-rdf-syntax-ns#"
   xmlns:svg="http://www.w3.org/2000/svg"
   xmlns="http://www.w3.org/2000/svg"
   xmlns:sodipodi="http://sodipodi.sourceforge.net/DTD/sodipodi-0.dtd"
   xmlns:inkscape="http://www.inkscape.org/namespaces/inkscape"
   id="Icone_L_Jeunes"
   data-name="Icone/L/Jeunes"
   width="28"
   height="28"
   viewBox="0 0 28 28"
   version="1.1"
   sodipodi:docname="l-jeunes.svg"
   inkscape:version="0.92.3 (2405546, 2018-03-11)">
  <metadata
     id="metadata20">
    <rdf:RDF>
      <cc:Work
         rdf:about="">
        <dc:format>image/svg+xml</dc:format>
        <dc:type
           rdf:resource="http://purl.org/dc/dcmitype/StillImage" />
        <dc:title></dc:title>
      </cc:Work>
    </rdf:RDF>
  </metadata>
  <defs
     id="defs18" />
  <sodipodi:namedview
     pagecolor="#ffffff"
     bordercolor="#666666"
     borderopacity="1"
     objecttolerance="10"
     gridtolerance="10"
     guidetolerance="10"
     inkscape:pageopacity="0"
     inkscape:pageshadow="2"
     inkscape:window-width="1920"
     inkscape:window-height="1052"
     id="namedview16"
     showgrid="false"
     inkscape:zoom="8.4285714"
     inkscape:cx="14"
     inkscape:cy="14"
     inkscape:window-x="0"
     inkscape:window-y="0"
     inkscape:window-maximized="1"
     inkscape:current-layer="Icone_L_Jeunes" />
  <path
     style="color:#000000;font-style:normal;font-variant:normal;font-weight:normal;font-stretch:normal;font-size:medium;line-height:normal;font-family:sans-serif;font-variant-ligatures:normal;font-variant-position:normal;font-variant-caps:normal;font-variant-numeric:normal;font-variant-alternates:normal;font-feature-settings:normal;text-indent:0;text-align:start;text-decoration:none;text-decoration-line:none;text-decoration-style:solid;text-decoration-color:#000000;letter-spacing:normal;word-spacing:normal;text-transform:none;writing-mode:lr-tb;direction:ltr;text-orientation:mixed;dominant-baseline:auto;baseline-shift:baseline;text-anchor:start;white-space:normal;shape-padding:0;clip-rule:nonzero;display:inline;overflow:visible;visibility:visible;opacity:1;isolation:auto;mix-blend-mode:normal;color-interpolation:sRGB;color-interpolation-filters:linearRGB;solid-color:#000000;solid-opacity:1;vector-effect:none;fill:#000000;fill-opacity:1;fill-rule:nonzero;stroke:none;stroke-width:0.9653759;stroke-linecap:round;stroke-linejoin:round;stroke-miterlimit:10;stroke-dasharray:none;stroke-dashoffset:0;stroke-opacity:1;color-rendering:auto;image-rendering:auto;shape-rendering:auto;text-rendering:auto;enable-background:accumulate"
     d="m 14.002465,1.0001063 a 0.48273623,0.48273623 0 0 0 -0.07165,0.00754 H 7.4409255 C 3.893171,1.0110944 1.007275,3.8969903 1.0038289,7.4447449 V 20.554626 a 0.48273623,0.48273623 0 0 0 0,0.0019 c 0.00345,3.547755 2.8893421,6.433651 6.4370966,6.437097 h 6.4917755 a 0.48273623,0.48273623 0 0 0 0.156497,0 h 6.461608 c 3.552731,0.0069 6.445915,-2.886251 6.438982,-6.438982 v -6.4107 a 0.48273623,0.48273623 0 0 0 0,-0.156497 V 7.4447449 C 26.986342,3.8969903 24.100446,1.0110944 20.552691,1.0076483 a 0.48273623,0.48273623 0 0 0 -0.0019,0 H 14.09861 a 0.48273623,0.48273623 0 0 0 -0.09616,-0.00754 z M 7.4409255,1.9730242 H 13.527319 V 13.583933 H 1.9692049 V 7.4447449 C 1.9721448,4.4180548 4.4142356,1.9759642 7.4409255,1.9730242 Z m 7.0517695,0 h 6.058111 c 3.02669,0.00294 5.470666,2.4450307 5.473606,5.4717207 V 13.583933 H 14.492695 Z M 7.7275215,4.872923 A 0.48273623,0.48273623 0 0 0 7.2523754,5.363153 V 7.5503328 H 5.1179897 a 0.48273623,0.48273623 0 1 0 0,0.965376 h 2.1343857 v 2.1343862 a 0.48273623,0.48273623 0 1 0 0.965376,0 V 8.5157088 h 2.1871796 a 0.48273623,0.48273623 0 1 0 0,-0.965376 H 8.2177514 V 5.363153 A 0.48273623,0.48273623 0 0 0 7.7275215,4.872923 Z m 9.5934235,2.6774098 a 0.48273623,0.48273623 0 1 0 0,0.965376 h 5.260544 a 0.48273623,0.48273623 0 1 0 0,-0.965376 z M 1.9692049,14.549309 H 13.527319 V 26.028232 H 7.4409255 c -3.02669,-0.003 -5.4687807,-2.446916 -5.4717206,-5.473606 z m 12.5234901,0 h 11.531717 v 6.005317 a 0.48273623,0.48273623 0 0 0 0,0.0019 c 0.0059,3.029673 -2.442047,5.477632 -5.471721,5.471721 a 0.48273623,0.48273623 0 0 0 -0.0019,0 H 14.49268 Z m -6.7576316,2.319165 c -0.629279,0 -1.1501549,0.520875 -1.1501549,1.150155 0,0.629279 0.5208759,1.150154 1.1501549,1.150154 0.6292793,0 1.1482695,-0.520875 1.1482695,-1.150154 0,-0.62928 -0.5189902,-1.150157 -1.1482695,-1.150155 z m 14.0884546,0.637299 a 0.48273623,0.48273623 0 0 0 -0.331848,0.145183 l -1.553652,1.553651 -1.527254,-1.527254 a 0.48273623,0.48273623 0 0 0 -0.346932,-0.147069 0.48273623,0.48273623 0 0 0 -0.335619,0.82962 l 1.527255,1.527255 -1.527255,1.52914 a 0.48273623,0.48273623 0 1 0 0.682551,0.682551 l 1.527254,-1.52914 1.527255,1.527254 a 0.48273623,0.48273623 0 1 0 0.682552,-0.68255 l -1.527256,-1.527255 1.553653,-1.553652 A 0.48273623,0.48273623 0 0 0 21.823518,17.505773 Z M 7.7350634,17.83385 c 0.1075514,0 0.1828936,0.07723 0.1828936,0.184779 0,0.10755 -0.075342,0.184778 -0.1828936,0.184778 -0.1075511,0 -0.1847789,-0.07723 -0.1847789,-0.184778 0,-0.107552 0.077228,-0.184779 0.1847789,-0.184779 z m -2.6434707,1.678095 a 0.48273623,0.48273623 0 1 0 0,0.965375 h 5.2869423 a 0.48273623,0.48273623 0 1 0 0,-0.965375 z m 2.6434707,1.308537 c -0.629279,0 -1.1501549,0.520875 -1.1501549,1.150154 0,0.62928 0.5208759,1.14827 1.1501549,1.14827 0.6292793,0 1.1482695,-0.51899 1.1482695,-1.14827 0,-0.629279 -0.5189902,-1.150154 -1.1482695,-1.150154 z m 0,0.965376 c 0.1075514,0 0.1828936,0.07723 0.1828936,0.184778 0,0.107551 -0.075342,0.182894 -0.1828936,0.182894 -0.1075511,0 -0.1847789,-0.07534 -0.1847789,-0.182894 0,-0.107551 0.077228,-0.184779 0.1847789,-0.184778 z"
     id="Tracé_134"
     inkscape:connector-curvature="0" />
</svg>
