<?xml version="1.0" encoding="UTF-8" standalone="no"?>
<svg
   xmlns:dc="http://purl.org/dc/elements/1.1/"
   xmlns:cc="http://creativecommons.org/ns#"
   xmlns:rdf="http://www.w3.org/1999/02/22-rdf-syntax-ns#"
   xmlns:svg="http://www.w3.org/2000/svg"
   xmlns="http://www.w3.org/2000/svg"
   xmlns:sodipodi="http://sodipodi.sourceforge.net/DTD/sodipodi-0.dtd"
   xmlns:inkscape="http://www.inkscape.org/namespaces/inkscape"
   id="Icone_L_Livret"
   data-name="Icone/L/Livret"
   width="28"
   height="28"
   viewBox="0 0 28 28"
   version="1.1"
   sodipodi:docname="livret.svg"
   inkscape:version="0.92.3 (2405546, 2018-03-11)">
  <metadata
     id="metadata16">
    <rdf:RDF>
      <cc:Work
         rdf:about="">
        <dc:format>image/svg+xml</dc:format>
        <dc:type
           rdf:resource="http://purl.org/dc/dcmitype/StillImage" />
        <dc:title></dc:title>
      </cc:Work>
    </rdf:RDF>
  </metadata>
  <defs
     id="defs14" />
  <sodipodi:namedview
     pagecolor="#ffffff"
     bordercolor="#666666"
     borderopacity="1"
     objecttolerance="10"
     gridtolerance="10"
     guidetolerance="10"
     inkscape:pageopacity="0"
     inkscape:pageshadow="2"
     inkscape:window-width="1920"
     inkscape:window-height="1052"
     id="namedview12"
     showgrid="false"
     inkscape:zoom="8.4285714"
     inkscape:cx="14"
     inkscape:cy="14"
     inkscape:window-x="0"
     inkscape:window-y="0"
     inkscape:window-maximized="1"
     inkscape:current-layer="Icone_L_Livret" />
  <path
     id="Tracé_383"
     style="fill:#000000;stroke-width:0.96296293;fill-opacity:1"
     d="m 19.926879,12.992742 a 0.74437033,0.74437033 0 0 1 -0.209926,-0.571038 v -1.221999 h -0.358222 v -0.552741 h 0.358222 V 9.97289 h 0.754963 v 0.674074 h 0.531556 v 0.552741 h -0.531556 v 1.13437 a 0.26577776,0.26577776 0 0 0 0.05296,0.185852 0.22822221,0.22822221 0 0 0 0.178148,0.06067 0.5556296,0.5556296 0 0 0 0.159852,-0.02696 0.51037034,0.51037034 0 0 0 0.146371,-0.07704 v 0.616297 a 0.93503699,0.93503699 0 0 1 -0.448741,0.0963 0.88977773,0.88977773 0 0 1 -0.63363,-0.196444 z m -2.493111,-1.383778 h 0.906148 a 0.68851848,0.68851848 0 0 0 -0.137703,-0.374593 0.41214813,0.41214813 0 0 0 -0.308148,-0.108815 c -0.26,-0.0077 -0.414074,0.148297 -0.462223,0.483408 z m 1.614889,0.451629 H 17.43762 a 0.60088886,0.60088886 0 0 0 0.682741,0.507482 1.2037036,1.2037036 0 0 0 0.350518,-0.05007 3.8711109,3.8711109 0 0 0 0.364,-0.132889 v 0.622074 a 2.311111,2.311111 0 0 1 -0.889777,0.164667 1.3279259,1.3279259 0 0 1 -0.653852,-0.154074 1.0592592,1.0592592 0 0 1 -0.435259,-0.43526 1.3924444,1.3924444 0 0 1 -0.154075,-0.674074 1.429037,1.429037 0 0 1 0.315852,-0.988 1.1555555,1.1555555 0 0 1 0.90326,-0.350518 q 1.147851,-0.0048 1.127629,1.490666 z m -4.283259,-1.158444 a 1.1613333,1.1613333 0 0 1 0.265778,-0.137704 2.5999999,2.5999999 0 0 1 0.40637,-0.135777 1.947111,1.947111 0 0 1 0.433333,-0.05296 0.95333328,0.95333328 0 0 1 0.557556,0.119407 v 0.531556 a 2.6885924,2.6885924 0 0 0 -0.557556,-0.04526 2.3505925,2.3505925 0 0 0 -0.371703,0.02407 v 1.891259 h -0.733778 z m -0.438148,-0.255185 -1.022667,2.446889 h -0.720296 l -1.020741,-2.446889 h 0.778074 l 0.648074,1.655333 0.577778,-1.655333 z m -3.934667,0.02696 h 0.720297 v 2.412222 h -0.720297 z m -0.01348,-0.924445 h 0.743407 v 0.55563 H 10.379102 Z M 7.7165098,9.86889 h 0.7838518 v 2.611555 h 1.4030369 v 0.614371 H 7.7165098 Z M 6.3433246,24.598235 H 20.424776 v 1.438802 H 6.3433246 c -0.4029797,0 -0.7184605,-0.315481 -0.7184606,-0.718461 0,-0.40298 0.3154809,-0.720341 0.7184606,-0.720341 z M 6.3414469,1.9629643 a 0.4815296,0.4815296 0 0 0 0.00188,0 H 22.378914 V 23.635272 H 6.3433246 c -0.280959,0 -0.4884654,0.177157 -0.7222221,0.300926 V 2.681425 c -1.2e-6,-0.4036997 0.316643,-0.7194319 0.7203414,-0.7184607 z m 0.00188,-0.9629629 c -0.9240985,-0.0012 -1.68519,0.7571039 -1.6851873,1.6814236 v 22.637151 a 0.4815296,0.4815296 0 0 0 0.1523437,0.355469 C 4.9924721,26.405846 5.5582706,27 6.3433246,27 H 20.906258 a 0.4815296,0.4815296 0 0 0 0.481481,-0.481481 v -1.920284 h 1.472657 a 0.4815296,0.4815296 0 0 0 0.481481,-0.481482 V 1.4814829 A 0.4815296,0.4815296 0 0 0 22.860396,1.0000014 H 6.3452054 Z"
     inkscape:connector-curvature="0" />
</svg>
