<?xml version="1.0" encoding="UTF-8" standalone="no"?>
<svg
   xmlns:dc="http://purl.org/dc/elements/1.1/"
   xmlns:cc="http://creativecommons.org/ns#"
   xmlns:rdf="http://www.w3.org/1999/02/22-rdf-syntax-ns#"
   xmlns:svg="http://www.w3.org/2000/svg"
   xmlns="http://www.w3.org/2000/svg"
   xmlns:sodipodi="http://sodipodi.sourceforge.net/DTD/sodipodi-0.dtd"
   xmlns:inkscape="http://www.inkscape.org/namespaces/inkscape"
   id="Icone_L_Micro"
   data-name="Icone/L/Micro"
   width="28"
   height="28"
   viewBox="0 0 28 28"
   version="1.1"
   sodipodi:docname="micro.svg"
   inkscape:version="0.92.3 (2405546, 2018-03-11)">
  <metadata
     id="metadata16">
    <rdf:RDF>
      <cc:Work
         rdf:about="">
        <dc:format>image/svg+xml</dc:format>
        <dc:type
           rdf:resource="http://purl.org/dc/dcmitype/StillImage" />
        <dc:title></dc:title>
      </cc:Work>
    </rdf:RDF>
  </metadata>
  <defs
     id="defs14" />
  <sodipodi:namedview
     pagecolor="#ffffff"
     bordercolor="#666666"
     borderopacity="1"
     objecttolerance="10"
     gridtolerance="10"
     guidetolerance="10"
     inkscape:pageopacity="0"
     inkscape:pageshadow="2"
     inkscape:window-width="1920"
     inkscape:window-height="1052"
     id="namedview12"
     showgrid="false"
     inkscape:zoom="8.4285714"
     inkscape:cx="14"
     inkscape:cy="14"
     inkscape:window-x="0"
     inkscape:window-y="0"
     inkscape:window-maximized="1"
     inkscape:current-layer="Icone_L_Micro" />
  <path
     style="color:#000000;font-style:normal;font-variant:normal;font-weight:normal;font-stretch:normal;font-size:medium;line-height:normal;font-family:sans-serif;font-variant-ligatures:normal;font-variant-position:normal;font-variant-caps:normal;font-variant-numeric:normal;font-variant-alternates:normal;font-feature-settings:normal;text-indent:0;text-align:start;text-decoration:none;text-decoration-line:none;text-decoration-style:solid;text-decoration-color:#000000;letter-spacing:normal;word-spacing:normal;text-transform:none;writing-mode:lr-tb;direction:ltr;text-orientation:mixed;dominant-baseline:auto;baseline-shift:baseline;text-anchor:start;white-space:normal;shape-padding:0;clip-rule:nonzero;display:inline;overflow:visible;visibility:visible;opacity:1;isolation:auto;mix-blend-mode:normal;color-interpolation:sRGB;color-interpolation-filters:linearRGB;solid-color:#000000;solid-opacity:1;vector-effect:none;fill:#000000;fill-opacity:1;fill-rule:nonzero;stroke:none;stroke-width:0.9629612;stroke-linecap:round;stroke-linejoin:round;stroke-miterlimit:4;stroke-dasharray:none;stroke-dashoffset:0;stroke-opacity:1;color-rendering:auto;image-rendering:auto;shape-rendering:auto;text-rendering:auto;enable-background:accumulate"
     d="m 13.998106,0.99999988 c -2.949578,0 -5.339544,2.38974912 -5.339544,5.33954452 v 7.9801646 c 0,2.949796 2.389966,5.339545 5.339544,5.339545 2.949581,0 5.339544,-2.389749 5.339544,-5.339545 V 6.3395444 c 0,-2.9497954 -2.389963,-5.33954452 -5.339544,-5.33954452 z m 0,0.96296122 c 2.432705,0 4.376583,1.9435605 4.376583,4.3765833 V 7.07305 h -3.795421 a 0.48152874,0.48152874 0 1 0 0,0.9629612 h 3.795421 v 1.9071147 h -3.795421 a 0.48152874,0.48152874 0 1 0 0,0.9629611 h 3.795421 v 1.655089 h -3.795421 a 0.48152874,0.48152874 0 0 0 -0.0489,0 0.48210099,0.48210099 0 0 0 0.0489,0.962961 h 3.795421 v 0.795572 c 0,2.433023 -1.943878,4.376583 -4.376583,4.376583 -2.432704,0 -4.3765828,-1.94356 -4.3765828,-4.376583 V 6.3395444 c 0,-2.4330228 1.9438788,-4.3765833 4.3765828,-4.3765833 z m 6.774583,8.8547289 a 0.48152874,0.48152874 0 0 0 -0.473958,0.489004 v 3.082604 c 9.58e-4,3.467434 -2.785269,6.269378 -6.246082,6.296863 a 0.48152874,0.48152874 0 0 0 -0.0583,-0.0038 0.48152874,0.48152874 0 0 0 -0.0489,0.0038 C 10.485727,20.65763 7.7002581,17.856166 7.7012432,14.389298 V 11.306694 A 0.48152874,0.48152874 0 0 0 7.2122395,10.819571 0.48152874,0.48152874 0 0 0 6.738282,11.306694 v 3.082604 c -0.00109,3.843211 3.0010802,6.988445 6.782105,7.237255 v 4.410438 H 8.3049747 a 0.48152874,0.48152874 0 1 0 0,0.962961 H 19.69688 a 0.48152874,0.48152874 0 1 0 0,-0.962961 h -5.213531 v -4.410438 c 3.780096,-0.249787 6.779435,-3.394811 6.778343,-7.237255 V 11.306694 A 0.48152874,0.48152874 0 0 0 20.772689,10.81769 Z"
     id="Rectangle_175"
     inkscape:connector-curvature="0" />
</svg>
