<?xml version="1.0" encoding="UTF-8" standalone="no"?>
<svg
   xmlns:dc="http://purl.org/dc/elements/1.1/"
   xmlns:cc="http://creativecommons.org/ns#"
   xmlns:rdf="http://www.w3.org/1999/02/22-rdf-syntax-ns#"
   xmlns:svg="http://www.w3.org/2000/svg"
   xmlns="http://www.w3.org/2000/svg"
   xmlns:sodipodi="http://sodipodi.sourceforge.net/DTD/sodipodi-0.dtd"
   xmlns:inkscape="http://www.inkscape.org/namespaces/inkscape"
   id="Icone_L_Mobilité"
   data-name="Icone/L/Mobilité"
   width="28"
   height="28"
   viewBox="0 0 28 28"
   version="1.1"
   sodipodi:docname="mobilite.svg"
   inkscape:version="0.92.3 (2405546, 2018-03-11)">
  <metadata
     id="metadata20">
    <rdf:RDF>
      <cc:Work
         rdf:about="">
        <dc:format>image/svg+xml</dc:format>
        <dc:type
           rdf:resource="http://purl.org/dc/dcmitype/StillImage" />
        <dc:title></dc:title>
      </cc:Work>
    </rdf:RDF>
  </metadata>
  <defs
     id="defs18" />
  <sodipodi:namedview
     pagecolor="#ffffff"
     bordercolor="#666666"
     borderopacity="1"
     objecttolerance="10"
     gridtolerance="10"
     guidetolerance="10"
     inkscape:pageopacity="0"
     inkscape:pageshadow="2"
     inkscape:window-width="1920"
     inkscape:window-height="1052"
     id="namedview16"
     showgrid="false"
     inkscape:zoom="23.8396"
     inkscape:cx="10.445369"
     inkscape:cy="15.404396"
     inkscape:window-x="0"
     inkscape:window-y="0"
     inkscape:window-maximized="1"
     inkscape:current-layer="Icone_L_Mobilité" />
  <path
     style="color:#000000;font-style:normal;font-variant:normal;font-weight:normal;font-stretch:normal;font-size:medium;line-height:normal;font-family:sans-serif;font-variant-ligatures:normal;font-variant-position:normal;font-variant-caps:normal;font-variant-numeric:normal;font-variant-alternates:normal;font-feature-settings:normal;text-indent:0;text-align:start;text-decoration:none;text-decoration-line:none;text-decoration-style:solid;text-decoration-color:#000000;letter-spacing:normal;word-spacing:normal;text-transform:none;writing-mode:lr-tb;direction:ltr;text-orientation:mixed;dominant-baseline:auto;baseline-shift:baseline;text-anchor:start;white-space:normal;shape-padding:0;clip-rule:nonzero;display:inline;overflow:visible;visibility:visible;opacity:1;isolation:auto;mix-blend-mode:normal;color-interpolation:sRGB;color-interpolation-filters:linearRGB;solid-color:#000000;solid-opacity:1;vector-effect:none;fill:#000000;fill-opacity:1;fill-rule:nonzero;stroke:none;stroke-width:0.93785495;stroke-linecap:round;stroke-linejoin:round;stroke-miterlimit:4;stroke-dasharray:none;stroke-dashoffset:0;stroke-opacity:1;color-rendering:auto;image-rendering:auto;shape-rendering:auto;text-rendering:auto;enable-background:accumulate"
     d="M 13.651103,1.0061729 C 12.664898,1.0374844 11.68469,1.1822629 10.733129,1.4329702 5.6581344,2.7700756 1.3589521,7.1641195 1.349084,13.590281 a 0.46897437,0.46897437 0 1 0 0.9378549,0.0018 C 2.2961704,7.5804577 6.2552106,3.5822189 10.971256,2.3396854 15.687301,1.097152 21.103585,2.6247833 24.07375,7.8514151 a 0.46897437,0.46897437 0 0 0 0.0092,0.016486 l 0.0806,0.1318858 -2.740295,-0.4725909 a 0.46897437,0.46897437 0 1 0 -0.159362,0.923201 l 3.705626,0.63928 a 0.46897437,0.46897437 0 0 0 0.527499,-0.3242197 l 1.14301,-3.7147849 A 0.46897437,0.46897437 0 0 0 26.185755,4.4388686 0.46897437,0.46897437 0 0 0 25.742471,4.7759102 l -0.820623,2.667025 -0.03297,-0.054952 C 22.507641,3.1976943 18.589476,1.1909618 14.638416,1.0134999 14.30916,0.99871141 13.979838,0.99573571 13.651103,1.0061729 Z m 0.57517,8.9151174 a 0.46897437,0.46897437 0 0 0 -0.278427,0.08609 l -4.4822868,3.168924 a 0.46897437,0.46897437 0 0 0 0.2692669,0.851763 h 0.8407719 v 2.912479 H 9.8777025 a 0.46897437,0.46897437 0 0 0 -0.045794,0 0.46948618,0.46948618 0 0 0 0.045794,0.937855 h 8.7759045 a 0.46897437,0.46897437 0 1 0 0,-0.937855 h -0.807801 v -2.912479 h 0.855426 a 0.46897437,0.46897437 0 0 0 0.269267,-0.851763 L 14.490044,10.00738 a 0.46897437,0.46897437 0 0 0 -0.263771,-0.08609 z m -0.0073,1.0440957 3.026048,2.139481 a 0.46897437,0.46897437 0 0 0 -0.337042,0.454275 v 3.381406 h -0.646635 v -3.381406 a 0.46897437,0.46897437 0 0 0 -0.474423,-0.474423 0.46897437,0.46897437 0 0 0 -0.463432,0.474423 v 3.381406 h -0.644776 v -3.381406 a 0.46897437,0.46897437 0 0 0 -0.476254,-0.474423 0.46897437,0.46897437 0 0 0 -0.461601,0.474423 v 3.381406 h -0.644775 v -3.381406 a 0.46897437,0.46897437 0 0 0 -0.476254,-0.474423 0.46897437,0.46897437 0 0 0 -0.461601,0.474423 v 3.381406 H 11.513453 V 13.559142 A 0.46897437,0.46897437 0 0 0 11.187402,13.1067 Z m 11.964978,2.947283 A 0.46897437,0.46897437 0 0 0 25.72235,14.387092 C 25.72415,20.411411 21.757707,24.417961 17.03437,25.6615 12.311032,26.905039 6.8876589,25.371982 3.9227179,20.12779 a 0.46897437,0.46897437 0 0 0 -0.00366,-0.0055 l -0.08246,-0.14104 2.7366314,0.472591 A 0.46897437,0.46897437 0 1 0 6.7344229,19.53064 L 3.0287968,18.889528 a 0.46897437,0.46897437 0 0 0 -0.093419,-0.0073 0.46897437,0.46897437 0 0 0 -0.4341243,0.331546 l -1.1430107,3.714785 a 0.46933528,0.46933528 0 1 0 0.8975565,0.274763 l 0.8187913,-2.665194 0.03114,0.05129 c 0,0 0.00183,0.0018 0.00183,0.0018 l 0.00183,0.0037 c 3.1700692,5.600612 9.0840554,7.310993 14.1649074,5.973329 5.082717,-1.338152 9.38778,-5.741739 9.385876,-12.181123 A 0.46897437,0.46897437 0 0 0 26.18392,13.912701 Z"
     id="Tracé_389"
     inkscape:connector-curvature="0" />
</svg>
