<?xml version="1.0" encoding="UTF-8" standalone="no"?>
<svg
   xmlns:dc="http://purl.org/dc/elements/1.1/"
   xmlns:cc="http://creativecommons.org/ns#"
   xmlns:rdf="http://www.w3.org/1999/02/22-rdf-syntax-ns#"
   xmlns:svg="http://www.w3.org/2000/svg"
   xmlns="http://www.w3.org/2000/svg"
   xmlns:sodipodi="http://sodipodi.sourceforge.net/DTD/sodipodi-0.dtd"
   xmlns:inkscape="http://www.inkscape.org/namespaces/inkscape"
   id="Icone_L_modifier_les_plafonds_de_sa_CB"
   data-name="Icone/L/modifier les plafonds de sa CB"
   width="28"
   height="28"
   viewBox="0 0 28 28"
   version="1.1"
   sodipodi:docname="modifier-plafonds-cb.svg"
   inkscape:version="0.92.3 (2405546, 2018-03-11)">
  <metadata
     id="metadata20">
    <rdf:RDF>
      <cc:Work
         rdf:about="">
        <dc:format>image/svg+xml</dc:format>
        <dc:type
           rdf:resource="http://purl.org/dc/dcmitype/StillImage" />
        <dc:title></dc:title>
      </cc:Work>
    </rdf:RDF>
  </metadata>
  <defs
     id="defs18" />
  <sodipodi:namedview
     pagecolor="#ffffff"
     bordercolor="#666666"
     borderopacity="1"
     objecttolerance="10"
     gridtolerance="10"
     guidetolerance="10"
     inkscape:pageopacity="0"
     inkscape:pageshadow="2"
     inkscape:window-width="1920"
     inkscape:window-height="1052"
     id="namedview16"
     showgrid="false"
     inkscape:zoom="8.4285714"
     inkscape:cx="-10.559322"
     inkscape:cy="14"
     inkscape:window-x="0"
     inkscape:window-y="0"
     inkscape:window-maximized="1"
     inkscape:current-layer="Icone_L_modifier_les_plafonds_de_sa_CB" />
  <path
     style="color:#000000;font-style:normal;font-variant:normal;font-weight:normal;font-stretch:normal;font-size:medium;line-height:normal;font-family:sans-serif;font-variant-ligatures:normal;font-variant-position:normal;font-variant-caps:normal;font-variant-numeric:normal;font-variant-alternates:normal;font-feature-settings:normal;text-indent:0;text-align:start;text-decoration:none;text-decoration-line:none;text-decoration-style:solid;text-decoration-color:#000000;letter-spacing:normal;word-spacing:normal;text-transform:none;writing-mode:lr-tb;direction:ltr;text-orientation:mixed;dominant-baseline:auto;baseline-shift:baseline;text-anchor:start;white-space:normal;shape-padding:0;clip-rule:nonzero;display:inline;overflow:visible;visibility:visible;opacity:1;isolation:auto;mix-blend-mode:normal;color-interpolation:sRGB;color-interpolation-filters:linearRGB;solid-color:#000000;solid-opacity:1;vector-effect:none;fill:#000000;fill-opacity:1;fill-rule:nonzero;stroke:none;stroke-width:0.9629612;stroke-linecap:round;stroke-linejoin:round;stroke-miterlimit:4;stroke-dasharray:none;stroke-dashoffset:0;stroke-opacity:1;color-rendering:auto;image-rendering:auto;shape-rendering:auto;text-rendering:auto;enable-background:accumulate"
     d="m 1.3451479,1.0000481 a 0.48152874,0.48152874 0 1 0 0,0.9629612 H 26.654852 a 0.48152874,0.48152874 0 1 0 0,-0.9629612 z M 16.03971,3.3980472 A 0.48152874,0.48152874 0 0 0 15.565752,3.8870509 V 9.709957 L 14.377097,8.5250631 a 0.48152874,0.48152874 0 1 0 -0.680843,0.6808437 l 1.956014,1.9522532 a 0.48152874,0.48152874 0 0 0 0.299045,0.186198 0.48152874,0.48152874 0 0 0 0.492766,-0.201244 L 18.394451,9.1927413 A 0.48152874,0.48152874 0 0 0 18.044625,8.3670773 0.48152874,0.48152874 0 0 0 17.713607,8.5118976 L 16.528713,9.696791 V 3.8870509 A 0.48152874,0.48152874 0 0 0 16.03971,3.3980472 Z m -4.094467,0.00752 a 0.48152874,0.48152874 0 0 0 -0.38744,0.208767 L 9.6055493,5.5647099 a 0.48152874,0.48152874 0 1 0 0.6808437,0.6808436 l 1.184893,-1.1848936 v 5.8116211 a 0.48152874,0.48152874 0 1 0 0.962962,0 V 5.0493751 l 1.188655,1.1886552 A 0.48152874,0.48152874 0 1 0 14.303746,5.5571867 L 12.332685,3.5861256 A 0.48152874,0.48152874 0 0 0 12.133322,3.4413052 0.48152874,0.48152874 0 0 0 11.945243,3.4055703 Z M 6.8784132,14.212552 c -1.325373,0 -2.4074032,1.082031 -2.407403,2.407403 v 7.972642 C 4.4710102,25.91797 5.5530401,27 6.8784132,27 H 21.123467 c 1.325375,0 2.407403,-1.08203 2.407403,-2.407403 v -7.972642 c 0,-1.325372 -1.082028,-2.407403 -2.407403,-2.407403 z m 0,0.962962 H 21.123467 c 0.808551,0 1.444444,0.635893 1.444442,1.444441 v 0.07523 H 5.4339714 v -0.07523 c 0,-0.808548 0.6358927,-1.444441 1.4444418,-1.444441 z M 5.4339714,17.658148 H 22.567909 v 1.314667 H 5.4339714 Z m 0,2.277628 H 22.567909 v 4.656821 c 0,0.808549 -0.635891,1.444442 -1.444442,1.444442 H 6.8784132 c -0.8085491,0 -1.4444418,-0.635893 -1.4444418,-1.444442 z m 2.467588,3.392935 a 0.48152874,0.48152874 0 1 0 0,0.962961 H 9.182373 a 0.48152874,0.48152874 0 1 0 0,-0.962961 z m 3.2217826,0 a 0.48152874,0.48152874 0 1 0 0,0.962961 h 1.284574 a 0.48152874,0.48152874 0 1 0 0,-0.962961 z m 3.227424,0 a 0.48152874,0.48152874 0 1 0 0,0.962961 h 1.280814 a 0.48152874,0.48152874 0 1 0 0,-0.962961 z"
     id="Ligne_398"
     inkscape:connector-curvature="0" />
</svg>
