<?xml version="1.0" encoding="UTF-8" standalone="no"?>
<svg
   xmlns:dc="http://purl.org/dc/elements/1.1/"
   xmlns:cc="http://creativecommons.org/ns#"
   xmlns:rdf="http://www.w3.org/1999/02/22-rdf-syntax-ns#"
   xmlns:svg="http://www.w3.org/2000/svg"
   xmlns="http://www.w3.org/2000/svg"
   xmlns:sodipodi="http://sodipodi.sourceforge.net/DTD/sodipodi-0.dtd"
   xmlns:inkscape="http://www.inkscape.org/namespaces/inkscape"
   id="Icone_L_Modifier"
   data-name="Icone/L/Modifier"
   width="28"
   height="28"
   viewBox="0 0 28 28"
   version="1.1"
   sodipodi:docname="modifier-crayon.svg"
   inkscape:version="0.92.3 (2405546, 2018-03-11)">
  <metadata
     id="metadata12">
    <rdf:RDF>
      <cc:Work
         rdf:about="">
        <dc:format>image/svg+xml</dc:format>
        <dc:type
           rdf:resource="http://purl.org/dc/dcmitype/StillImage" />
        <dc:title></dc:title>
      </cc:Work>
    </rdf:RDF>
  </metadata>
  <defs
     id="defs10" />
  <sodipodi:namedview
     pagecolor="#ffffff"
     bordercolor="#666666"
     borderopacity="1"
     objecttolerance="10"
     gridtolerance="10"
     guidetolerance="10"
     inkscape:pageopacity="0"
     inkscape:pageshadow="2"
     inkscape:window-width="1920"
     inkscape:window-height="1052"
     id="namedview8"
     showgrid="false"
     inkscape:zoom="8.4285714"
     inkscape:cx="14"
     inkscape:cy="14"
     inkscape:window-x="0"
     inkscape:window-y="0"
     inkscape:window-maximized="1"
     inkscape:current-layer="Icone_L_Modifier" />
  <path
     style="color:#000000;font-style:normal;font-variant:normal;font-weight:normal;font-stretch:normal;font-size:medium;line-height:normal;font-family:sans-serif;font-variant-ligatures:normal;font-variant-position:normal;font-variant-caps:normal;font-variant-numeric:normal;font-variant-alternates:normal;font-feature-settings:normal;text-indent:0;text-align:start;text-decoration:none;text-decoration-line:none;text-decoration-style:solid;text-decoration-color:#000000;letter-spacing:normal;word-spacing:normal;text-transform:none;writing-mode:lr-tb;direction:ltr;text-orientation:mixed;dominant-baseline:auto;baseline-shift:baseline;text-anchor:start;white-space:normal;shape-padding:0;clip-rule:nonzero;display:inline;overflow:visible;visibility:visible;opacity:1;isolation:auto;mix-blend-mode:normal;color-interpolation:sRGB;color-interpolation-filters:linearRGB;solid-color:#000000;solid-opacity:1;vector-effect:none;fill:#000000;fill-opacity:1;fill-rule:nonzero;stroke:none;stroke-width:0.96162641;stroke-linecap:round;stroke-linejoin:round;stroke-miterlimit:10;stroke-dasharray:none;stroke-dashoffset:0;stroke-opacity:1;color-rendering:auto;image-rendering:auto;shape-rendering:auto;text-rendering:auto;enable-background:accumulate"
     d="m 22.27912,1.0000002 c -1.202717,0 -2.405249,0.4569271 -3.320616,1.3710689 l -1.63777,1.63777 a 0.48086129,0.48086129 0 0 0 -0.137107,0.137107 L 4.8684235,16.457393 a 0.48086129,0.48086129 0 0 0 -0.2967518,0.296753 l -0.2667012,0.266701 c -0.2081014,0.19551 -0.3340493,0.460245 -0.3662443,0.741879 l -2.8867575,8.603928 a 0.48086129,0.48086129 0 0 0 0.6085292,0.608528 l 8.6377341,-2.898026 a 0.48086129,0.48086129 0 0 0 0.0094,-0.0038 c 0.237578,-0.08543 0.45436,-0.221527 0.632946,-0.400008 l 0.266702,-0.266701 a 0.48086129,0.48086129 0 0 0 0.313654,-0.313655 L 25.599736,9.0123016 a 0.48086129,0.48086129 0 0 0 0.0019,0 c 1.828283,-1.8307333 1.828283,-4.810499 0,-6.6412325 a 0.48086129,0.48086129 0 0 0 -0.0019,0 C 24.68437,1.4569273 23.481838,1.0000002 22.27912,1.0000002 Z m 0,0.9559919 c 0.954308,0 1.909204,0.3650623 2.640716,1.094977 1.461368,1.4633251 1.461368,3.8181075 0,5.2814326 L 23.580697,9.6715412 18.27297,4.4164035 19.638404,3.0509691 c 0.731662,-0.7306835 1.685905,-1.094977 2.640716,-1.094977 z M 17.593069,5.0963034 22.900797,10.351442 11.023208,22.230908 5.7398975,16.947598 Z M 5.0599976,17.625619 l 5.2833104,5.28519 -0.08264,0.08264 c -0.07849,0.07845 -0.173549,0.137105 -0.2779694,0.174671 l 0.00939,-0.0019 -7.7193058,2.590005 2.5900055,-7.721184 A 0.48086129,0.48086129 0 0 0 4.8872043,17.8923 c 0.00129,-0.06463 0.028015,-0.126653 0.075127,-0.170915 a 0.48086129,0.48086129 0 0 0 0.011269,-0.0094 z"
     id="Tracé_45"
     inkscape:connector-curvature="0" />
</svg>
