<?xml version="1.0" encoding="UTF-8" standalone="no"?>
<svg
   xmlns:dc="http://purl.org/dc/elements/1.1/"
   xmlns:cc="http://creativecommons.org/ns#"
   xmlns:rdf="http://www.w3.org/1999/02/22-rdf-syntax-ns#"
   xmlns:svg="http://www.w3.org/2000/svg"
   xmlns="http://www.w3.org/2000/svg"
   xmlns:sodipodi="http://sodipodi.sourceforge.net/DTD/sodipodi-0.dtd"
   xmlns:inkscape="http://www.inkscape.org/namespaces/inkscape"
   id="Icone_L_Mon_budget"
   data-name="Icone/L/Mon budget"
   width="28"
   height="28"
   viewBox="0 0 28 28"
   version="1.1"
   sodipodi:docname="mon-budget-2.svg"
   inkscape:version="0.92.3 (2405546, 2018-03-11)">
  <metadata
     id="metadata18">
    <rdf:RDF>
      <cc:Work
         rdf:about="">
        <dc:format>image/svg+xml</dc:format>
        <dc:type
           rdf:resource="http://purl.org/dc/dcmitype/StillImage" />
        <dc:title></dc:title>
      </cc:Work>
    </rdf:RDF>
  </metadata>
  <defs
     id="defs16" />
  <sodipodi:namedview
     pagecolor="#ffffff"
     bordercolor="#666666"
     borderopacity="1"
     objecttolerance="10"
     gridtolerance="10"
     guidetolerance="10"
     inkscape:pageopacity="0"
     inkscape:pageshadow="2"
     inkscape:window-width="1920"
     inkscape:window-height="1052"
     id="namedview14"
     showgrid="false"
     inkscape:zoom="8.4285714"
     inkscape:cx="-8.779661"
     inkscape:cy="14"
     inkscape:window-x="0"
     inkscape:window-y="0"
     inkscape:window-maximized="1"
     inkscape:current-layer="Icone_L_Mon_budget" />
  <path
     style="color:#000000;font-style:normal;font-variant:normal;font-weight:normal;font-stretch:normal;font-size:medium;line-height:normal;font-family:sans-serif;font-variant-ligatures:normal;font-variant-position:normal;font-variant-caps:normal;font-variant-numeric:normal;font-variant-alternates:normal;font-feature-settings:normal;text-indent:0;text-align:start;text-decoration:none;text-decoration-line:none;text-decoration-style:solid;text-decoration-color:#000000;letter-spacing:normal;word-spacing:normal;text-transform:none;writing-mode:lr-tb;direction:ltr;text-orientation:mixed;dominant-baseline:auto;baseline-shift:baseline;text-anchor:start;white-space:normal;shape-padding:0;clip-rule:nonzero;display:inline;overflow:visible;visibility:visible;opacity:1;isolation:auto;mix-blend-mode:normal;color-interpolation:sRGB;color-interpolation-filters:linearRGB;solid-color:#000000;solid-opacity:1;vector-effect:none;fill:#000000;fill-opacity:1;fill-rule:nonzero;stroke:none;stroke-width:0.94472063;stroke-linecap:round;stroke-linejoin:round;stroke-miterlimit:4;stroke-dasharray:none;stroke-dashoffset:0;stroke-opacity:1;color-rendering:auto;image-rendering:auto;shape-rendering:auto;text-rendering:auto;enable-background:accumulate"
     d="m 12.935004,3.6523589 c -1.415142,0 -2.603586,0.9458424 -3.0039167,2.2326405 A 0.9448151,0.9448151 0 0 0 9.7484168,5.868393 h -7.463662 a 0.9448151,0.9448151 0 1 0 0,1.8894412 h 7.463662 a 0.9448151,0.9448151 0 0 0 0.1826705,-0.016606 c 0.4003307,1.2867979 1.5887747,2.2326399 3.0039167,2.2326399 1.578321,0 2.88172,-1.1726479 3.11278,-2.6883938 h 10.473115 a 0.47240755,0.47240755 0 1 0 0,-0.9447206 H 16.047784 C 15.816724,4.8250075 14.513325,3.6523589 12.935004,3.6523589 Z m 0,0.9447206 c 1.213847,0 2.187466,0.9623428 2.212344,2.1699052 a 0.47240755,0.47240755 0 0 0 0,0.090413 c -0.02391,1.2084397 -0.99787,2.1717504 -2.212344,2.1717504 -1.229632,0 -2.216035,-0.9864026 -2.216034,-2.2160342 0,-1.2296316 0.986402,-2.2160341 2.216034,-2.2160344 z m 6.860295,6.2421675 c -1.415332,0 -2.606984,0.945575 -3.007606,2.232641 a 0.9448151,0.9448151 0 0 0 -0.186361,-0.01661 H 1.9581619 a 0.9448151,0.9448151 0 1 0 0,1.889442 H 16.601332 a 0.9448151,0.9448151 0 0 0 0.186361,-0.01661 c 0,0 0.0018,0 0.0018,0 0.400786,1.286798 1.59062,2.232641 3.005761,2.232641 1.578322,0 2.88172,-1.172649 3.112781,-2.688395 h 3.286226 a 0.47240755,0.47240755 0 1 0 0,-0.94472 H 22.90808 c -0.231061,-1.51574 -1.534459,-2.688389 -3.112781,-2.688389 z m 0,0.944721 c 1.213849,0 2.187467,0.962343 2.212344,2.169905 a 0.47240755,0.47240755 0 0 0 0,0.09041 c -0.02391,1.208439 -0.997869,2.17175 -2.212344,2.17175 -1.229631,0 -2.217879,-0.986403 -2.217879,-2.216034 0,-1.229631 0.988248,-2.216034 2.217879,-2.216034 z M 9.0140441,18.026136 c -1.4151419,0 -2.6035862,0.945842 -3.0039164,2.23264 A 0.9448151,0.9448151 0 0 0 5.8274571,20.24217 H 2.2847548 a 0.9448151,0.9448151 0 1 0 0,1.889441 h 3.5427023 a 0.9448151,0.9448151 0 0 0 0.1826706,-0.01661 c 0.4003302,1.286797 1.5887745,2.23264 3.0039164,2.23264 1.5783199,0 2.8817209,-1.172649 3.1127809,-2.688394 h 14.394074 a 0.47240755,0.47240755 0 1 0 0,-0.944721 H 12.126825 c -0.23106,-1.515743 -1.534461,-2.68839 -3.1127809,-2.68839 z m 0,0.94472 c 1.2138479,0 2.1874659,0.962343 2.2123439,2.169906 a 0.47240755,0.47240755 0 0 0 0,0.09041 c -0.02391,1.20844 -0.99787,2.17175 -2.2123439,2.17175 -1.2296317,0 -2.2160341,-0.986402 -2.2160341,-2.216034 0,-1.229631 0.9864024,-2.216034 2.2160341,-2.216034 z"
     id="Ligne_244"
     inkscape:connector-curvature="0" />
</svg>
