<?xml version="1.0" encoding="UTF-8" standalone="no"?>
<svg
   xmlns:dc="http://purl.org/dc/elements/1.1/"
   xmlns:cc="http://creativecommons.org/ns#"
   xmlns:rdf="http://www.w3.org/1999/02/22-rdf-syntax-ns#"
   xmlns:svg="http://www.w3.org/2000/svg"
   xmlns="http://www.w3.org/2000/svg"
   xmlns:sodipodi="http://sodipodi.sourceforge.net/DTD/sodipodi-0.dtd"
   xmlns:inkscape="http://www.inkscape.org/namespaces/inkscape"
   id="Icone_L_Opposition_carte-chèque"
   data-name="Icone/L/Opposition carte-chèque"
   width="28"
   height="28"
   viewBox="0 0 28 28"
   version="1.1"
   sodipodi:docname="opposition-carte-cheque.svg"
   inkscape:version="0.92.3 (2405546, 2018-03-11)">
  <metadata
     id="metadata18">
    <rdf:RDF>
      <cc:Work
         rdf:about="">
        <dc:format>image/svg+xml</dc:format>
        <dc:type
           rdf:resource="http://purl.org/dc/dcmitype/StillImage" />
        <dc:title></dc:title>
      </cc:Work>
    </rdf:RDF>
  </metadata>
  <defs
     id="defs16" />
  <sodipodi:namedview
     pagecolor="#ffffff"
     bordercolor="#666666"
     borderopacity="1"
     objecttolerance="10"
     gridtolerance="10"
     guidetolerance="10"
     inkscape:pageopacity="0"
     inkscape:pageshadow="2"
     inkscape:window-width="1920"
     inkscape:window-height="1052"
     id="namedview14"
     showgrid="false"
     inkscape:zoom="8.4285714"
     inkscape:cx="14"
     inkscape:cy="14"
     inkscape:window-x="0"
     inkscape:window-y="0"
     inkscape:window-maximized="1"
     inkscape:current-layer="Icone_L_Opposition_carte-chèque" />
  <path
     style="color:#000000;font-style:normal;font-variant:normal;font-weight:normal;font-stretch:normal;font-size:medium;line-height:normal;font-family:sans-serif;font-variant-ligatures:normal;font-variant-position:normal;font-variant-caps:normal;font-variant-numeric:normal;font-variant-alternates:normal;font-feature-settings:normal;text-indent:0;text-align:start;text-decoration:none;text-decoration-line:none;text-decoration-style:solid;text-decoration-color:#000000;letter-spacing:normal;word-spacing:normal;text-transform:none;writing-mode:lr-tb;direction:ltr;text-orientation:mixed;dominant-baseline:auto;baseline-shift:baseline;text-anchor:start;white-space:normal;shape-padding:0;clip-rule:nonzero;display:inline;overflow:visible;visibility:visible;opacity:1;isolation:auto;mix-blend-mode:normal;color-interpolation:sRGB;color-interpolation-filters:linearRGB;solid-color:#000000;solid-opacity:1;vector-effect:none;fill:#000000;fill-opacity:1;fill-rule:nonzero;stroke:none;stroke-width:0.96289331;stroke-linecap:round;stroke-linejoin:round;stroke-miterlimit:4;stroke-dasharray:none;stroke-dashoffset:0;stroke-opacity:1;color-rendering:auto;image-rendering:auto;shape-rendering:auto;text-rendering:auto;enable-background:accumulate"
     d="m 4.8496835,3.0198334 a 0.48149478,0.48149478 0 1 0 0,0.9628933 H 23.691925 v 7.2912843 a 0.48149478,0.48149478 0 1 0 0.962893,0 V 3.5012801 A 0.48149478,0.48149478 0 0 0 24.173372,3.0198334 Z M 3.9939873,5.8972293 C 2.3503142,5.8972197 1.005661,7.2381591 0.99999095,8.8818228 a 0.48149478,0.48149478 0 0 0 0,0.0019 v 7.6486082 c 0,1.647636 1.34635975,2.993996 2.99399635,2.993996 H 14.409032 a 0.48149478,0.48149478 0 0 0 0.0019,0 c 0.427531,3.075825 3.068979,5.453888 6.260688,5.453888 3.488696,0 6.32839,-2.837812 6.32839,-6.32651 0,-3.260895 -2.482175,-5.954756 -5.655117,-6.292658 V 8.8837228 a 0.48149478,0.48149478 0 0 0 0,-0.0019 C 21.339203,7.2381561 19.99455,5.8972196 18.350876,5.8972293 Z m 0,0.9628933 H 18.350876 c 1.011605,-6e-6 1.837577,0.7296622 1.997252,1.6944666 H 1.9967359 C 2.156411,7.5897848 2.9823826,6.8601166 3.9939873,6.8601226 Z M 1.9628842,9.5174828 H 20.381979 V 10.997555 H 1.9628842 Z m 0,2.4429652 H 20.381979 v 0.379892 c -3.323439,0.15186 -5.985494,2.873877 -6.033128,6.223074 H 3.9939873 c -1.1272504,2e-6 -2.0311031,-0.903853 -2.0311031,-2.031103 z M 20.6716,13.288187 c 2.96831,0 5.365497,2.397186 5.365497,5.365498 0,2.968312 -2.397186,5.363617 -5.365497,5.363617 -2.968313,0 -5.363617,-2.395305 -5.363617,-5.363617 0,-2.968312 2.395304,-5.365498 5.363617,-5.365498 z M 4.6352892,15.66533 a 0.48149478,0.48149478 0 1 0 0,0.962893 h 1.3728752 a 0.48149478,0.48149478 0 1 0 0,-0.962893 z m 3.4547557,0 a 0.48149478,0.48149478 0 1 0 0,0.962893 h 1.3728753 a 0.48149478,0.48149478 0 1 0 0,-0.962893 z m 3.4547561,0 a 0.48149478,0.48149478 0 1 0 0,0.962893 h 1.374755 a 0.48149478,0.48149478 0 1 0 0,-0.962893 z m 6.328391,1.376637 c -0.884658,0 -1.611719,0.727062 -1.611719,1.611718 0,0.884656 0.727061,1.611717 1.611719,1.611717 h 5.598697 c 0.884656,0 1.611718,-0.727061 1.611718,-1.611717 0,-0.884656 -0.727062,-1.611718 -1.611718,-1.611718 z m 0,0.962893 h 5.598697 c 0.367868,0 0.648825,0.280956 0.648825,0.648825 0,0.367868 -0.280957,0.648824 -0.648825,0.648824 h -5.598697 c -0.36787,0 -0.648826,-0.280956 -0.648826,-0.648824 0,-0.367869 0.280956,-0.648825 0.648826,-0.648825 z"
     id="Ligne_353"
     inkscape:connector-curvature="0" />
</svg>
