<?xml version="1.0" encoding="UTF-8" standalone="no"?>
<svg
   xmlns:dc="http://purl.org/dc/elements/1.1/"
   xmlns:cc="http://creativecommons.org/ns#"
   xmlns:rdf="http://www.w3.org/1999/02/22-rdf-syntax-ns#"
   xmlns:svg="http://www.w3.org/2000/svg"
   xmlns="http://www.w3.org/2000/svg"
   xmlns:sodipodi="http://sodipodi.sourceforge.net/DTD/sodipodi-0.dtd"
   xmlns:inkscape="http://www.inkscape.org/namespaces/inkscape"
   id="Icone_L_Paiements"
   data-name="Icone/L/Paiements"
   width="28"
   height="28"
   viewBox="0 0 28 28"
   version="1.1"
   sodipodi:docname="paiements.svg"
   inkscape:version="0.92.3 (2405546, 2018-03-11)">
  <metadata
     id="metadata19">
    <rdf:RDF>
      <cc:Work
         rdf:about="">
        <dc:format>image/svg+xml</dc:format>
        <dc:type
           rdf:resource="http://purl.org/dc/dcmitype/StillImage" />
        <dc:title></dc:title>
      </cc:Work>
    </rdf:RDF>
  </metadata>
  <defs
     id="defs17" />
  <sodipodi:namedview
     pagecolor="#ffffff"
     bordercolor="#666666"
     borderopacity="1"
     objecttolerance="10"
     gridtolerance="10"
     guidetolerance="10"
     inkscape:pageopacity="0"
     inkscape:pageshadow="2"
     inkscape:window-width="1920"
     inkscape:window-height="1052"
     id="namedview15"
     showgrid="false"
     inkscape:zoom="8.4285714"
     inkscape:cx="-10.559322"
     inkscape:cy="14"
     inkscape:window-x="0"
     inkscape:window-y="0"
     inkscape:window-maximized="1"
     inkscape:current-layer="Icone_L_Paiements" />
  <path
     style="color:#000000;font-style:normal;font-variant:normal;font-weight:normal;font-stretch:normal;font-size:medium;line-height:normal;font-family:sans-serif;font-variant-ligatures:normal;font-variant-position:normal;font-variant-caps:normal;font-variant-numeric:normal;font-variant-alternates:normal;font-feature-settings:normal;text-indent:0;text-align:start;text-decoration:none;text-decoration-line:none;text-decoration-style:solid;text-decoration-color:#000000;letter-spacing:normal;word-spacing:normal;text-transform:none;writing-mode:lr-tb;direction:ltr;text-orientation:mixed;dominant-baseline:auto;baseline-shift:baseline;text-anchor:start;white-space:normal;shape-padding:0;clip-rule:nonzero;display:inline;overflow:visible;visibility:visible;opacity:1;isolation:auto;mix-blend-mode:normal;color-interpolation:sRGB;color-interpolation-filters:linearRGB;solid-color:#000000;solid-opacity:1;vector-effect:none;fill:#000000;fill-opacity:1;fill-rule:nonzero;stroke:none;stroke-width:0.96271288;stroke-linecap:round;stroke-linejoin:miter;stroke-miterlimit:4;stroke-dasharray:none;stroke-dashoffset:0;stroke-opacity:1;color-rendering:auto;image-rendering:auto;shape-rendering:auto;text-rendering:auto;enable-background:accumulate"
     d="m 17.30971,2.1447175 c -1.213819,-1.7e-6 -2.207623,0.9955342 -2.20559,2.2093509 V 10.59102 H 4.3168468 c -1.8259762,-2e-6 -3.3168467,1.490869 -3.3168467,3.316846 v 8.630571 c 0,1.825975 1.4908705,3.316846 3.3168467,3.316846 H 20.536303 c 0.113168,0 0.220613,-0.02267 0.330932,-0.03384 a 0.48140457,0.48140457 0 0 0 0.06393,0.0038 h 3.848971 c 1.21664,0.0062 2.216887,-0.988934 2.216872,-2.205589 v -3.348813 a 0.48140457,0.48140457 0 0 0 0,-0.107176 V 10.115304 a 0.48140457,0.48140457 0 0 0 -0.0038,-0.06393 V 4.3503078 c 0,-1.2124041 -0.993187,-2.2055903 -2.205591,-2.2055903 z m 0,0.9627129 h 7.477947 c 0.692116,0 1.242878,0.550762 1.242878,1.2428774 v 5.7649962 a 0.48140457,0.48140457 0 0 0 0.0038,0.06393 v 9.557558 h -2.100293 a 0.48140457,0.48140457 0 0 0 -0.08085,0.0056 v -5.834567 c 0,-1.825977 -1.490871,-3.316848 -3.316846,-3.316846 h -4.46947 V 4.3540684 a 0.48140457,0.48140457 0 0 0 0,-0.00188 c -0.0012,-0.6929612 0.549918,-1.2447587 1.242877,-1.2447577 z m 2.301485,1.3500544 a 0.48140457,0.48140457 0 1 0 0,0.9627129 h 2.874977 a 0.48140457,0.48140457 0 1 0 0,-0.9627129 z M 4.3168468,11.553733 H 20.536303 c 1.196645,-10e-7 2.166733,0.88415 2.322168,2.036363 H 1.994678 C 2.1501131,12.437883 3.1202006,11.553732 4.3168468,11.553733 Z M 1.962713,14.552809 h 20.927723 v 1.797565 H 1.962713 Z m 0,2.760277 h 20.927723 v 5.225351 c 0,1.305687 -1.048446,2.354133 -2.354133,2.354133 H 4.3168468 c -1.3056875,0 -2.3541338,-1.048446 -2.3541338,-2.354133 z m 21.890436,3.380777 a 0.48140457,0.48140457 0 0 0 0.08085,0.0056 h 2.100293 v 2.920104 c 9e-6,0.694651 -0.553875,1.246367 -1.248518,1.242876 a 0.48140457,0.48140457 0 0 0 -0.0038,0 h -1.88782 c 0.591001,-0.599545 0.958952,-1.419687 0.958952,-2.324048 z M 5.0501632,21.618971 a 0.48140457,0.48140457 0 1 0 0,0.962713 h 1.5493661 a 0.48140457,0.48140457 0 1 0 0,-0.962713 z m 3.8997393,0 a 0.48140457,0.48140457 0 1 0 0,0.962713 h 1.5512465 a 0.48140457,0.48140457 0 1 0 0,-0.962713 z m 3.9016195,0 a 0.48140457,0.48140457 0 1 0 0,0.962713 h 1.553127 a 0.48140457,0.48140457 0 1 0 0,-0.962713 z"
     id="Tracé_468"
     inkscape:connector-curvature="0" />
</svg>
