<?xml version="1.0" encoding="UTF-8" standalone="no"?>
<svg
   xmlns:dc="http://purl.org/dc/elements/1.1/"
   xmlns:cc="http://creativecommons.org/ns#"
   xmlns:rdf="http://www.w3.org/1999/02/22-rdf-syntax-ns#"
   xmlns:svg="http://www.w3.org/2000/svg"
   xmlns="http://www.w3.org/2000/svg"
   xmlns:sodipodi="http://sodipodi.sourceforge.net/DTD/sodipodi-0.dtd"
   xmlns:inkscape="http://www.inkscape.org/namespaces/inkscape"
   id="Icone_L_Parametres"
   data-name="Icone/L/Parametres"
   width="28"
   height="28"
   viewBox="0 0 28 28"
   version="1.1"
   sodipodi:docname="parametres.svg"
   inkscape:version="0.92.3 (2405546, 2018-03-11)">
  <metadata
     id="metadata18">
    <rdf:RDF>
      <cc:Work
         rdf:about="">
        <dc:format>image/svg+xml</dc:format>
        <dc:type
           rdf:resource="http://purl.org/dc/dcmitype/StillImage" />
        <dc:title></dc:title>
      </cc:Work>
    </rdf:RDF>
  </metadata>
  <defs
     id="defs16" />
  <sodipodi:namedview
     pagecolor="#ffffff"
     bordercolor="#666666"
     borderopacity="1"
     objecttolerance="10"
     gridtolerance="10"
     guidetolerance="10"
     inkscape:pageopacity="0"
     inkscape:pageshadow="2"
     inkscape:window-width="1920"
     inkscape:window-height="1052"
     id="namedview14"
     showgrid="false"
     inkscape:zoom="8.4285714"
     inkscape:cx="14"
     inkscape:cy="14"
     inkscape:window-x="0"
     inkscape:window-y="0"
     inkscape:window-maximized="1"
     inkscape:current-layer="Icone_L_Parametres" />
  <path
     style="color:#000000;font-style:normal;font-variant:normal;font-weight:normal;font-stretch:normal;font-size:medium;line-height:normal;font-family:sans-serif;font-variant-ligatures:normal;font-variant-position:normal;font-variant-caps:normal;font-variant-numeric:normal;font-variant-alternates:normal;font-feature-settings:normal;text-indent:0;text-align:start;text-decoration:none;text-decoration-line:none;text-decoration-style:solid;text-decoration-color:#000000;letter-spacing:normal;word-spacing:normal;text-transform:none;writing-mode:lr-tb;direction:ltr;text-orientation:mixed;dominant-baseline:auto;baseline-shift:baseline;text-anchor:start;white-space:normal;shape-padding:0;clip-rule:nonzero;display:inline;overflow:visible;visibility:visible;opacity:1;isolation:auto;mix-blend-mode:normal;color-interpolation:sRGB;color-interpolation-filters:linearRGB;solid-color:#000000;solid-opacity:1;vector-effect:none;fill:#000000;fill-opacity:1;fill-rule:nonzero;stroke:none;stroke-width:0.95938849;stroke-linecap:round;stroke-linejoin:round;stroke-miterlimit:10;stroke-dasharray:none;stroke-dashoffset:0;stroke-opacity:1;color-rendering:auto;image-rendering:auto;shape-rendering:auto;text-rendering:auto;enable-background:accumulate"
     d="m 19.027901,1.0000008 a 0.47974222,0.47974222 0 0 0 -0.47782,0.4497133 L 18.491991,2.386617 C 18.181032,2.485846 17.87958,2.6074148 17.586944,2.7520091 L 16.878647,2.1242842 a 0.47974222,0.47974222 0 0 0 -0.657706,0.018738 l -1.647076,1.6452014 a 0.47974222,0.47974222 0 0 0 -0.01873,0.6577058 l 0.629598,0.7082986 c -0.149656,0.2905877 -0.271109,0.5920894 -0.365398,0.9050482 l -0.938775,0.058088 a 0.47974222,0.47974222 0 0 0 -0.449713,0.4796942 v 2.3385094 a 0.47974222,0.47974222 0 0 0 0.449713,0.4796941 l 0.942524,0.05808 c 0.101061,0.314243 0.230404,0.6166901 0.38413,0.9087961 l -0.627725,0.704551 a 0.47974222,0.47974222 0 0 0 -0.04684,0.06184 0.47974222,0.47974222 0 0 0 -0.207993,-0.164896 l -2.80322,-1.1561341 a 0.47974222,0.47974222 0 0 0 -0.234225,-0.03373 0.47974222,0.47974222 0 0 0 -0.04872,0.0075 0.47974222,0.47974222 0 0 0 -0.329789,0.2548381 0.47974222,0.47974222 0 0 0 -0.0019,0.0038 l -0.590249,1.202972 c -0.4674183,-0.04693 -0.936062,-0.04693 -1.4034804,0 L 8.3228499,10.059851 A 0.47974222,0.47974222 0 0 0 7.8506508,9.7918969 0.47974222,0.47974222 0 0 0 7.7082416,9.8274989 L 4.9050283,10.983637 a 0.47974222,0.47974222 0 0 0 -0.269828,0.597744 l 0.4197325,1.242334 c -0.3722867,0.301482 -0.710373,0.639569 -1.0118551,1.011854 L 2.8007445,13.415836 a 0.47974222,0.47974222 0 0 0 -0.597744,0.269829 l -1.1561381,2.803214 a 0.47974222,0.47974222 0 0 0 0.2323519,0.614607 l 1.1505168,0.56589 c -0.048095,0.484329 -0.048095,0.969745 0,1.454073 l -1.1505168,0.564016 a 0.47974222,0.47974222 0 0 0 -0.2323519,0.614608 l 1.1561381,2.803213 a 0.47974222,0.47974222 0 0 0 0.5996178,0.269828 l 1.2161,-0.417858 C 4.3205834,23.33 4.6577076,23.667388 5.0305732,23.96911 L 4.608967,25.20957 a 0.47974222,0.47974222 0 0 0 0.2717018,0.597744 l 2.8032132,1.156138 a 0.47974222,0.47974222 0 0 0 0.6127345,-0.228604 l 0.5902489,-1.178624 c 0.2340141,0.02356 0.4683468,0.03562 0.7026771,0.0356 0.2343303,-1.6e-5 0.4686585,-0.01211 0.7026765,-0.0356 l 0.59025,1.178624 a 0.47974222,0.47974222 0 0 0 0.425353,0.264207 0.47974222,0.47974222 0 0 0 0.04872,-0.0019 0.47974222,0.47974222 0 0 0 0.04684,-0.0056 0.47974222,0.47974222 0 0 0 0.09182,-0.02811 l 2.803212,-1.156138 a 0.47974222,0.47974222 0 0 0 0.271703,-0.597744 L 14.14851,23.967229 c 0.362961,-0.303438 0.693736,-0.640289 0.991244,-1.008107 l 1.259197,0.442219 a 0.47974222,0.47974222 0 0 0 0.189254,0.02623 0.47974222,0.47974222 0 0 0 0.04684,-0.0056 0.47974222,0.47974222 0 0 0 0.367267,-0.29044 l 1.156138,-2.803213 a 0.47974222,0.47974222 0 0 0 -0.228605,-0.612734 l -1.174876,-0.586502 c 0.04834,-0.478724 0.05552,-0.959317 0.01873,-1.439083 l 1.187993,-0.616483 a 0.47974222,0.47974222 0 0 0 0.222983,-0.608986 l -1.158002,-2.803201 a 0.47974222,0.47974222 0 0 0 -0.174264,-0.213614 0.47974222,0.47974222 0 0 0 0.05059,-0.03935 l 0.706424,-0.627725 c 0.283492,0.143891 0.576017,0.264765 0.878815,0.361644 l 0.05808,0.940651 a 0.47974222,0.47974222 0 0 0 0.479695,0.449714 h 2.340382 a 0.47974222,0.47974222 0 0 0 0.09557,-0.0094 0.47974222,0.47974222 0 0 0 0.04684,-0.01312 0.47974222,0.47974222 0 0 0 0.04497,-0.01499 0.47974222,0.47974222 0 0 0 0.0431,-0.02248 0.47974222,0.47974222 0 0 0 0.03935,-0.02436 0.47974222,0.47974222 0 0 0 0.207993,-0.365391 l 0.05808,-0.948146 c 0.307366,-0.09921 0.6023,-0.226603 0.88631,-0.380382 l 0.730785,0.633347 a 0.47974222,0.47974222 0 0 0 0.652084,-0.02436 l 1.647075,-1.647076 a 0.47974222,0.47974222 0 0 0 0.01873,-0.657705 l -0.625851,-0.702678 c 0.15422,-0.285171 0.282995,-0.5814001 0.382257,-0.8900571 l 0.957514,-0.080574 a 0.47974222,0.47974222 0 0 0 0.43849,-0.4778223 V 6.5670775 A 0.47974222,0.47974222 0 0 0 26.539988,6.0892571 L 25.593717,6.031169 C 25.494923,5.7251606 25.368067,5.4314936 25.215208,5.1486065 l 0.62585,-0.7045508 A 0.47974222,0.47974222 0 0 0 25.82232,3.7863498 L 24.175246,2.1411485 A 0.47974222,0.47974222 0 0 0 23.51754,2.1224104 L 22.784882,2.7763686 C 22.501384,2.6324653 22.208877,2.511598 21.906066,2.414724 L 21.847982,1.4497141 A 0.47974222,0.47974222 0 0 0 21.368289,1.0000008 Z m 0.451587,0.9593885 h 1.437209 l 0.05059,0.8076102 a 0.47974222,0.47974222 0 0 0 0.01499,0.093691 0.47974222,0.47974222 0 0 0 0.03373,0.089943 0.47974222,0.47974222 0 0 0 0.311052,0.2529636 c 0.461102,0.1163243 0.903765,0.2983411 1.313538,0.5396561 a 0.47974222,0.47974222 0 0 0 0.564015,-0.056214 L 23.817347,3.139888 24.82358,4.1461216 24.300789,4.7326228 a 0.47974222,0.47974222 0 0 0 -0.04497,0.5771322 c 0.254859,0.3981953 0.441988,0.8356475 0.554646,1.2947997 a 0.47974222,0.47974222 0 0 0 0.436596,0.365392 l 0.783251,0.048719 v 1.4484512 l -0.798241,0.067456 a 0.47974222,0.47974222 0 0 0 -0.425352,0.3635188 c -0.112677,0.4591574 -0.299795,0.8965872 -0.554648,1.2948003 a 0.47974222,0.47974222 0 0 0 0.04497,0.577132 l 0.522791,0.588374 -1.009981,1.011856 -0.614608,-0.532161 a 0.47974222,0.47974222 0 0 0 -0.571511,-0.04123 c -0.398146,0.254884 -0.835663,0.442043 -1.294799,0.554649 a 0.47974222,0.47974222 0 0 0 -0.361645,0.402867 0.47974222,0.47974222 0 0 0 -0.0038,0.03373 l -0.04872,0.785124 h -1.439033 l -0.04872,-0.785124 A 0.47974222,0.47974222 0 0 0 19.067252,12.35339 c -0.461111,-0.116351 -0.903741,-0.298354 -1.313538,-0.539656 a 0.47974222,0.47974222 0 0 0 -0.562141,0.05434 l -0.588377,0.522791 -1.006232,-1.006233 0.522791,-0.586501 a 0.47974222,0.47974222 0 0 0 0.05059,-0.569637 C 15.916807,9.8157999 15.727902,9.3660255 15.61008,8.8962179 A 0.47974222,0.47974222 0 0 0 15.175357,8.5345735 L 14.390233,8.4858545 V 7.0467717 l 0.785124,-0.048719 a 0.47974222,0.47974222 0 0 0 0.43847,-0.372887 c 0.10483,-0.4666806 0.283547,-0.9142856 0.532161,-1.3229068 A 0.47974222,0.47974222 0 0 0 16.095398,4.7344958 L 15.572607,4.1479946 16.578841,3.141761 17.167215,3.6645527 a 0.47974222,0.47974222 0 0 0 0.35415,0.1199236 0.47974222,0.47974222 0 0 0 0.04684,-0.00749 0.47974222,0.47974222 0 0 0 0.153652,-0.054341 c 0.424067,-0.2399644 0.877353,-0.4234994 1.34914,-0.5452816 a 0.47974222,0.47974222 0 0 0 0.359771,-0.434723 z m 0.757019,3.0486818 c -1.516046,-0.00987 -2.762746,1.2234413 -2.769486,2.739504 0,0 0,0.00188 0,0.00188 -0.01212,1.2147759 0.732435,2.1711678 1.688298,2.5764829 0.956897,0.405754 2.163103,0.274662 3.02807,-0.5808791 C 23.04836,8.8895189 23.19324,7.6838941 22.797999,6.722608 22.403182,5.7623547 21.453223,5.0092649 20.23838,5.0080758 Z m -0.0038,0.9593886 a 0.47974222,0.47974222 0 0 0 0.0038,0 C 21.065747,5.9671652 21.6477,6.4504955 21.909814,7.0879955 22.171928,7.7254954 22.09829,8.4799424 21.50882,9.0629866 20.91935,9.6460299 20.16467,9.7105809 19.530082,9.4414959 18.895491,9.1724098 18.417026,8.5842583 18.42641,7.7550703 a 0.47974222,0.47974222 0 0 0 0,-0.00375 c 0.0037,-0.9978941 0.808473,-1.791034 1.806348,-1.7838629 z M 7.6595226,10.8862 8.1823144,11.948648 a 0.47974222,0.47974222 0 0 0 0.5040537,0.262332 c 0.6160939,-0.09539 1.2427216,-0.09539 1.8588149,0 a 0.47974222,0.47974222 0 0 0 0.504054,-0.262332 l 0.520917,-1.062448 1.973118,0.813232 -0.371013,1.090555 a 0.47974222,0.47974222 0 0 0 0.144282,0.522791 0.47974222,0.47974222 0 0 0 0.02811,0.02061 c 0.508665,0.36949 0.95957,0.81141 1.337897,1.313538 a 0.47974222,0.47974222 0 0 0 0.537782,0.166769 l 1.092429,-0.371014 0.816979,1.980612 -1.047456,0.543404 a 0.47974222,0.47974222 0 0 0 -0.08058,0.05247 0.47974222,0.47974222 0 0 0 -0.0356,0.03186 0.47974222,0.47974222 0 0 0 -0.140536,0.399122 c 0.07642,0.632899 0.06818,1.273042 -0.02436,1.903786 a 0.47974222,0.47974222 0 0 0 0.260458,0.498432 l 1.039963,0.520918 -0.813233,1.971244 -1.114914,-0.389752 a 0.47974222,0.47974222 0 0 0 -0.545278,0.170516 c -0.369418,0.50868 -0.813267,0.95964 -1.315411,1.337897 a 0.47974222,0.47974222 0 0 0 -0.17239,0.513423 0.47974222,0.47974222 0 0 0 0.0075,0.02436 l 0.369139,1.090554 -1.97499,0.815106 -0.520918,-1.039963 a 0.47974222,0.47974222 0 0 0 -0.474073,-0.262332 0.47974222,0.47974222 0 0 0 -0.02811,0.0038 c -0.6161006,0.09538 -1.2427121,0.09538 -1.8588141,0 A 0.47974222,0.47974222 0 0 0 8.157951,24.866718 L 7.637037,25.906626 5.6620458,25.09152 6.0330593,24.000966 A 0.47974222,0.47974222 0 0 0 5.8587954,23.457562 C 5.3467888,23.088102 4.8978528,22.639167 4.5283934,22.12716 A 0.47974222,0.47974222 0 0 0 3.9831159,21.95477 L 2.9187943,22.322036 2.1055626,20.350792 3.1155439,19.854234 a 0.47974222,0.47974222 0 0 0 0.080574,-0.05059 0.47974222,0.47974222 0 0 0 0.037476,-0.03186 0.47974222,0.47974222 0 0 0 0.033728,-0.03372 0.47974222,0.47974222 0 0 0 0.028107,-0.03748 0.47974222,0.47974222 0 0 0 0.082448,-0.348529 c -0.047876,-0.317156 -0.071205,-0.635929 -0.071205,-0.955638 0,-0.319709 0.023329,-0.640356 0.071205,-0.957515 A 0.47974222,0.47974222 0 0 0 3.2860599,17.077254 0.47974222,0.47974222 0 0 0 3.2542049,17.039774 0.47974222,0.47974222 0 0 0 3.1155433,16.936715 L 2.105562,16.440157 2.9187937,14.468913 4.0093486,14.838052 a 0.47974222,0.47974222 0 0 0 0.1892544,0.02436 0.47974222,0.47974222 0 0 0 0.046845,-0.0056 0.47974222,0.47974222 0 0 0 0.3073042,-0.193001 C 4.9222611,14.151797 5.3711595,13.702899 5.8831549,13.33339 a 0.47974222,0.47974222 0 0 0 0.037476,-0.02999 0.47974222,0.47974222 0 0 0 0.033728,-0.03372 0.47974222,0.47974222 0 0 0 0.1124283,-0.445965 0.47974222,0.47974222 0 0 0 -0.00937,-0.03372 L 5.6882753,11.699437 Z m 6.8974784,0.809484 a 0.47974222,0.47974222 0 0 0 0.0431,0.04872 l 1.6452,1.645201 a 0.47974222,0.47974222 0 0 0 0.05434,0.04497 l -1.11304,0.376636 C 14.882585,13.44761 14.5452,13.116036 14.176619,12.818093 Z M 9.8331372,14.89427 c -0.4698095,-0.01246 -0.9680433,0.07513 -1.4765588,0.281071 -1.7623879,0.707324 -2.6133958,2.732087 -1.8850485,4.485891 0.7199489,1.749152 2.7410432,2.583423 4.4858901,1.853194 1.013156,-0.421335 1.666482,-1.15627 1.952506,-1.976865 0.286024,-0.820596 0.219897,-1.708776 -0.09931,-2.486541 -0.31921,-0.777764 -0.897027,-1.457009 -1.677057,-1.840077 -0.390016,-0.191534 -0.830612,-0.304211 -1.3004218,-0.316673 z m -0.026233,0.953767 c 0.3313798,0.0087 0.6314968,0.09144 0.9031738,0.224857 0.543357,0.266837 0.975838,0.760804 1.214226,1.341645 0.238387,0.58084 0.27794,1.236609 0.0787,1.808223 -0.199239,0.571612 -0.622681,1.075972 -1.414723,1.405354 a 0.47974222,0.47974222 0 0 0 0,0.0019 c -1.2653972,0.53033 -2.7069244,-0.06701 -3.2285641,-1.336048 a 0.47974222,0.47974222 0 0 0 -0.00188,-0.0019 c -0.5279342,-1.271173 0.079195,-2.714001 1.3566353,-3.226694 a 0.47974222,0.47974222 0 0 0 0.00188,0 c 0.1987692,-0.0805 0.3881123,-0.137082 0.5696369,-0.172389 0.1815248,-0.0353 0.3552286,-0.04934 0.520918,-0.04497 z"
     id="Tracé_40"
     inkscape:connector-curvature="0" />
</svg>
