<?xml version="1.0" encoding="UTF-8" standalone="no"?>
<svg
   xmlns:dc="http://purl.org/dc/elements/1.1/"
   xmlns:cc="http://creativecommons.org/ns#"
   xmlns:rdf="http://www.w3.org/1999/02/22-rdf-syntax-ns#"
   xmlns:svg="http://www.w3.org/2000/svg"
   xmlns="http://www.w3.org/2000/svg"
   xmlns:sodipodi="http://sodipodi.sourceforge.net/DTD/sodipodi-0.dtd"
   xmlns:inkscape="http://www.inkscape.org/namespaces/inkscape"
   id="Icone_L_Pare-feu"
   data-name="Icone/L/Pare-feu"
   width="28"
   height="28"
   viewBox="0 0 28 28"
   version="1.1"
   sodipodi:docname="pare-feu.svg"
   inkscape:version="0.92.3 (2405546, 2018-03-11)">
  <metadata
     id="metadata11">
    <rdf:RDF>
      <cc:Work
         rdf:about="">
        <dc:format>image/svg+xml</dc:format>
        <dc:type
           rdf:resource="http://purl.org/dc/dcmitype/StillImage" />
        <dc:title></dc:title>
      </cc:Work>
    </rdf:RDF>
  </metadata>
  <defs
     id="defs9" />
  <sodipodi:namedview
     pagecolor="#ffffff"
     bordercolor="#666666"
     borderopacity="1"
     objecttolerance="10"
     gridtolerance="10"
     guidetolerance="10"
     inkscape:pageopacity="0"
     inkscape:pageshadow="2"
     inkscape:window-width="1920"
     inkscape:window-height="1052"
     id="namedview7"
     showgrid="false"
     inkscape:zoom="8.4285714"
     inkscape:cx="-10.559322"
     inkscape:cy="14"
     inkscape:window-x="0"
     inkscape:window-y="0"
     inkscape:window-maximized="1"
     inkscape:current-layer="Icone_L_Pare-feu" />
  <path
     style="color:#000000;font-style:normal;font-variant:normal;font-weight:normal;font-stretch:normal;font-size:medium;line-height:normal;font-family:sans-serif;font-variant-ligatures:normal;font-variant-position:normal;font-variant-caps:normal;font-variant-numeric:normal;font-variant-alternates:normal;font-feature-settings:normal;text-indent:0;text-align:start;text-decoration:none;text-decoration-line:none;text-decoration-style:solid;text-decoration-color:#000000;letter-spacing:normal;word-spacing:normal;text-transform:none;writing-mode:lr-tb;direction:ltr;text-orientation:mixed;dominant-baseline:auto;baseline-shift:baseline;text-anchor:start;white-space:normal;shape-padding:0;clip-rule:nonzero;display:inline;overflow:visible;visibility:visible;opacity:1;isolation:auto;mix-blend-mode:normal;color-interpolation:sRGB;color-interpolation-filters:linearRGB;solid-color:#000000;solid-opacity:1;vector-effect:none;fill:#000000;fill-opacity:1;fill-rule:nonzero;stroke:none;stroke-width:0.9629333;stroke-linecap:round;stroke-linejoin:round;stroke-miterlimit:4;stroke-dasharray:none;stroke-dashoffset:0;stroke-opacity:1;color-rendering:auto;image-rendering:auto;shape-rendering:auto;text-rendering:auto;enable-background:accumulate"
     d="m 13.999255,1.0000005 a 0.4815148,0.4815148 0 0 0 -0.376144,0.1824308 c 0,0 -1.333867,1.6644817 -3.270588,2.721415 C 9.3841622,4.4323129 8.2810905,4.8009387 7.1289531,4.759578 5.9768155,4.7182174 4.7597058,4.2826862 3.4991458,3.1139401 A 0.4815148,0.4815148 0 0 0 2.6979553,3.3791228 C 0.38591746,15.818414 5.8942007,25.160806 13.892054,26.987915 a 0.4815148,0.4815148 0 0 0 0.214404,0 C 22.105266,25.160817 27.613488,15.818356 25.302438,3.3791228 A 0.4815148,0.4815148 0 0 0 24.501247,3.1139401 C 23.240687,4.2826862 22.023578,4.7182174 20.87144,4.759578 19.719303,4.8009387 18.61435,4.4323129 17.64599,3.9038463 15.709268,2.846913 14.377283,1.1824313 14.377283,1.1824313 A 0.4815148,0.4815148 0 0 0 13.999255,1.0000005 Z m 0,1.1848594 c 0.420782,0.4871335 1.454698,1.6205091 3.185956,2.5653144 1.072697,0.5854065 2.342444,1.021793 3.720083,0.972337 1.14635,-0.041153 2.351537,-0.5465857 3.533889,-1.4255927 C 26.316095,15.925853 21.181369,24.296186 13.999255,26.009936 6.8180993,24.296159 1.6835061,15.925763 3.56121,4.2969186 c 1.1823522,0.879007 2.3875387,1.3844398 3.5338899,1.4255927 1.3776387,0.049456 2.6473852,-0.3869304 3.7200821,-0.972337 1.730295,-0.94428 2.762599,-2.07749 3.184073,-2.5653144 z m 3.47935,8.7980511 a 0.4815148,0.4815148 0 0 0 -0.394953,0.214403 l -3.652376,5.298014 -2.540865,-3.035497 a 0.48196794,0.48196794 0 1 0 -0.739126,0.61876 l 2.948983,3.520725 a 0.4815148,0.4815148 0 0 0 0.765457,-0.03573 l 4.011594,-5.820857 a 0.4815148,0.4815148 0 0 0 -0.398714,-0.759814 z"
     id="Tracé_413"
     inkscape:connector-curvature="0" />
</svg>
