<?xml version="1.0" encoding="UTF-8" standalone="no"?>
<svg
   xmlns:dc="http://purl.org/dc/elements/1.1/"
   xmlns:cc="http://creativecommons.org/ns#"
   xmlns:rdf="http://www.w3.org/1999/02/22-rdf-syntax-ns#"
   xmlns:svg="http://www.w3.org/2000/svg"
   xmlns="http://www.w3.org/2000/svg"
   xmlns:sodipodi="http://sodipodi.sourceforge.net/DTD/sodipodi-0.dtd"
   xmlns:inkscape="http://www.inkscape.org/namespaces/inkscape"
   id="Icone_L_Patrimoine"
   data-name="Icone/L/Patrimoine"
   width="28"
   height="28"
   viewBox="0 0 28 28"
   version="1.1"
   sodipodi:docname="patrimoine.svg"
   inkscape:version="0.92.3 (2405546, 2018-03-11)">
  <metadata
     id="metadata12">
    <rdf:RDF>
      <cc:Work
         rdf:about="">
        <dc:format>image/svg+xml</dc:format>
        <dc:type
           rdf:resource="http://purl.org/dc/dcmitype/StillImage" />
        <dc:title></dc:title>
      </cc:Work>
    </rdf:RDF>
  </metadata>
  <defs
     id="defs10" />
  <sodipodi:namedview
     pagecolor="#ffffff"
     bordercolor="#666666"
     borderopacity="1"
     objecttolerance="10"
     gridtolerance="10"
     guidetolerance="10"
     inkscape:pageopacity="0"
     inkscape:pageshadow="2"
     inkscape:window-width="1920"
     inkscape:window-height="1052"
     id="namedview8"
     showgrid="false"
     inkscape:zoom="8.4285714"
     inkscape:cx="14"
     inkscape:cy="14"
     inkscape:window-x="0"
     inkscape:window-y="0"
     inkscape:window-maximized="1"
     inkscape:current-layer="Icone_L_Patrimoine" />
  <path
     style="color:#000000;font-style:normal;font-variant:normal;font-weight:normal;font-stretch:normal;font-size:medium;line-height:normal;font-family:sans-serif;font-variant-ligatures:normal;font-variant-position:normal;font-variant-caps:normal;font-variant-numeric:normal;font-variant-alternates:normal;font-feature-settings:normal;text-indent:0;text-align:start;text-decoration:none;text-decoration-line:none;text-decoration-style:solid;text-decoration-color:#000000;letter-spacing:normal;word-spacing:normal;text-transform:none;writing-mode:lr-tb;direction:ltr;text-orientation:mixed;dominant-baseline:auto;baseline-shift:baseline;text-anchor:start;white-space:normal;shape-padding:0;clip-rule:nonzero;display:inline;overflow:visible;visibility:visible;opacity:1;isolation:auto;mix-blend-mode:normal;color-interpolation:sRGB;color-interpolation-filters:linearRGB;solid-color:#000000;solid-opacity:1;vector-effect:none;fill:#000000;fill-opacity:1;fill-rule:nonzero;stroke:none;stroke-width:0.96292108;stroke-linecap:round;stroke-linejoin:round;stroke-miterlimit:4;stroke-dasharray:none;stroke-dashoffset:0;stroke-opacity:1;color-rendering:auto;image-rendering:auto;shape-rendering:auto;text-rendering:auto;enable-background:accumulate"
     d="M 14.343716,1.0003824 A 0.48150868,0.48150868 0 0 0 14.039041,1.1301511 L 6.5181015,8.1508235 A 0.48150868,0.48150868 0 0 0 6.8453442,8.9858567 H 8.868983 v 5.9580753 a 0.48150868,0.48150868 0 0 0 0.4814605,0.48146 h 3.8309955 a 0.48150868,0.48150868 0 0 0 0.481461,-0.48146 v -2.241801 h 1.406768 v 2.241801 a 0.48150868,0.48150868 0 0 0 0.48146,0.48146 h 3.832877 a 0.48150868,0.48150868 0 0 0 0.48146,-0.48146 V 8.9858567 h 2.021759 A 0.48150868,0.48150868 0 0 0 22.216348,8.1508235 L 19.865465,5.9579213 V 2.9130596 A 0.48150868,0.48150868 0 0 0 19.384005,2.431599 H 17.264451 A 0.48150868,0.48150868 0 0 0 16.78299,2.9130596 V 3.0804423 L 14.695407,1.1301511 A 0.48150868,0.48150868 0 0 0 14.343716,1.0003824 Z m 0.02445,1.1397074 2.567163,2.3997797 A 0.48150868,0.48150868 0 0 0 17.745912,4.1881777 V 3.3945201 h 1.156632 v 2.7702787 a 0.48150868,0.48150868 0 0 0 0.152338,0.3516919 l 1.611765,1.506445 H 19.384005 A 0.48150868,0.48150868 0 0 0 18.902544,8.5043962 V 14.462471 H 16.032589 V 12.22067 a 0.48150868,0.48150868 0 0 0 -0.481461,-0.48146 h -2.369689 a 0.48150868,0.48150868 0 0 0 -0.48146,0.48146 v 2.241801 H 9.831904 V 8.5043962 A 0.48150868,0.48150868 0 0 0 9.3504435,8.0229357 H 8.0678026 Z M 24.644338,15.336999 c -0.411222,-0.03473 -0.874339,0.04681 -1.378558,0.248252 -2.420834,0.967172 -4.496357,1.941149 -5.393862,2.375331 -0.248141,0.1203 -0.521655,0.183022 -0.797419,0.182428 h -0.991131 a 0.48150868,0.48150868 0 0 0 -0.112842,-0.0094 0.48150868,0.48150868 0 0 0 -0.07711,0.0094 H 7.2233659 C 6.7540433,18.142724 6.287522,18.22459 5.8466898,18.385622 l -3.7256771,1.346585 a 0.481879,0.481879 0 1 0 0.3272427,0.906499 l 3.7275577,-1.348465 a 0.48150868,0.48150868 0 0 0 0.00188,0 C 6.512488,19.167946 6.8650552,19.105714 7.2214844,19.105932 a 0.48150868,0.48150868 0 0 0 0.00188,0 H 15.82947 c 0.03966,0.05086 0.08921,0.125018 0.135411,0.218162 0.10029,0.202195 0.175707,0.469435 0.171145,0.684576 -0.0045,0.215142 -0.05518,0.355711 -0.223804,0.485223 -0.168617,0.129511 -0.520279,0.261034 -1.179203,0.235087 -0.841998,-0.03403 -2.121607,-0.03466 -3.206602,-0.02633 -0.542497,0.0041 -1.034084,0.0098 -1.395482,0.01505 -0.1807005,0.0026 -0.3297639,0.0059 -0.4344433,0.0075 -0.1046793,0.0017 -0.1973185,0.0019 -0.165502,0.0019 a 0.48150868,0.48150868 0 1 0 0,0.962921 c 0.048427,0 0.078026,-1.5e-4 0.1824285,-0.0019 0.1044022,-0.0017 0.2507374,-0.0049 0.4306808,-0.0075 0.359888,-0.0052 0.850256,-0.0109 1.389841,-0.01505 1.07917,-0.0083 2.359758,-0.008 3.161465,0.02445 0.79605,0.03134 1.38769,-0.113112 1.803597,-0.432563 0.415906,-0.31945 0.590906,-0.801936 0.599945,-1.2281 0.0072,-0.340931 -0.08015,-0.647275 -0.191832,-0.923426 h 0.165502 c 0.421949,9.07e-4 0.839013,-0.09427 1.218697,-0.278344 0.881973,-0.42667 2.941881,-1.394182 5.331799,-2.349001 0.530399,-0.211905 0.906358,-0.214217 1.139707,-0.144815 0.23335,0.0694 0.349727,0.193452 0.419398,0.378022 0.13934,0.36914 -0.0096,1.046204 -0.709026,1.512087 -0.812353,0.541399 -2.378793,1.765535 -4.005903,3.001605 -1.626282,1.235443 -3.319068,2.480837 -4.21278,2.977157 -0.464475,0.256237 -0.987262,0.390514 -1.517728,0.389306 H 9.8394268 c -2.1021354,-0.145665 -4.196178,0.385959 -5.9731197,1.51961 a 0.48206257,0.48206257 0 1 0 0.5190746,0.812464 c 1.6118,-1.028294 3.5114683,-1.509734 5.4183118,-1.371034 a 0.48150868,0.48150868 0 0 0 0.035733,0.0019 h 4.8954765 c 0.693838,0.0015 1.376618,-0.172637 1.984143,-0.507791 a 0.48150868,0.48150868 0 0 0 0.0019,-0.0019 c 1.03249,-0.573033 2.696043,-1.813462 4.329383,-3.054265 1.633341,-1.240804 3.230609,-2.48176 3.957004,-2.965872 1.004953,-0.669401 1.409216,-1.770295 1.075764,-2.653675 -0.166727,-0.44169 -0.544193,-0.811891 -1.045673,-0.961041 -0.125369,-0.03729 -0.255994,-0.06177 -0.393067,-0.07335 z"
     id="Tracé_415"
     inkscape:connector-curvature="0" />
</svg>
