<?xml version="1.0" encoding="UTF-8" standalone="no"?>
<svg
   xmlns:dc="http://purl.org/dc/elements/1.1/"
   xmlns:cc="http://creativecommons.org/ns#"
   xmlns:rdf="http://www.w3.org/1999/02/22-rdf-syntax-ns#"
   xmlns:svg="http://www.w3.org/2000/svg"
   xmlns="http://www.w3.org/2000/svg"
   xmlns:sodipodi="http://sodipodi.sourceforge.net/DTD/sodipodi-0.dtd"
   xmlns:inkscape="http://www.inkscape.org/namespaces/inkscape"
   id="Icone_L_Patrimoine_Documents"
   data-name="Icone/L/Patrimoine Documents"
   width="28"
   height="28"
   viewBox="0 0 28 28"
   version="1.1"
   sodipodi:docname="porte-feuille.svg"
   inkscape:version="0.92.3 (2405546, 2018-03-11)">
  <metadata
     id="metadata15">
    <rdf:RDF>
      <cc:Work
         rdf:about="">
        <dc:format>image/svg+xml</dc:format>
        <dc:type
           rdf:resource="http://purl.org/dc/dcmitype/StillImage" />
        <dc:title></dc:title>
      </cc:Work>
    </rdf:RDF>
  </metadata>
  <defs
     id="defs13" />
  <sodipodi:namedview
     pagecolor="#ffffff"
     bordercolor="#666666"
     borderopacity="1"
     objecttolerance="10"
     gridtolerance="10"
     guidetolerance="10"
     inkscape:pageopacity="0"
     inkscape:pageshadow="2"
     inkscape:window-width="1920"
     inkscape:window-height="1052"
     id="namedview11"
     showgrid="false"
     inkscape:zoom="8.4285714"
     inkscape:cx="14"
     inkscape:cy="14"
     inkscape:window-x="0"
     inkscape:window-y="0"
     inkscape:window-maximized="1"
     inkscape:current-layer="Icone_L_Patrimoine_Documents" />
  <path
     style="color:#000000;font-style:normal;font-variant:normal;font-weight:normal;font-stretch:normal;font-size:medium;line-height:normal;font-family:sans-serif;font-variant-ligatures:normal;font-variant-position:normal;font-variant-caps:normal;font-variant-numeric:normal;font-variant-alternates:normal;font-feature-settings:normal;text-indent:0;text-align:start;text-decoration:none;text-decoration-line:none;text-decoration-style:solid;text-decoration-color:#000000;letter-spacing:normal;word-spacing:normal;text-transform:none;writing-mode:lr-tb;direction:ltr;text-orientation:mixed;dominant-baseline:auto;baseline-shift:baseline;text-anchor:start;white-space:normal;shape-padding:0;clip-rule:nonzero;display:inline;overflow:visible;visibility:visible;opacity:1;isolation:auto;mix-blend-mode:normal;color-interpolation:sRGB;color-interpolation-filters:linearRGB;solid-color:#000000;solid-opacity:1;vector-effect:none;fill:#000000;fill-opacity:1;fill-rule:nonzero;stroke:none;stroke-width:0.96087772;stroke-linecap:round;stroke-linejoin:round;stroke-miterlimit:10;stroke-dasharray:none;stroke-dashoffset:0;stroke-opacity:1;color-rendering:auto;image-rendering:auto;shape-rendering:auto;text-rendering:auto;enable-background:accumulate"
     d="m 17.205427,2.9809671 a 0.4804869,0.4804869 0 0 0 -0.168904,0.026274 l -2.785044,0.9439872 a 0.4804869,0.4804869 0 0 0 -0.12011,-0.013137 H 3.2614403 c -1.2147153,0 -2.2071712,0.9745366 -2.2520571,2.1788652 a 0.4804869,0.4804869 0 0 0 -0.00563,0.048794 c -1.758e-4,0.011527 -0.00375,0.022215 -0.00375,0.033781 0,0.012201 0.00356,0.023501 0.00375,0.035658 V 22.012727 c -0.00126,1.654969 1.3515268,3.007757 3.0064962,3.006496 H 22.959433 c 1.654118,2.41e-4 3.00588,-1.352151 3.00462,-3.006496 V 18.649655 C 26.571501,18.36477 26.998431,17.752184 27,17.04131 v -1.914248 c -0.0015,-0.71093 -0.42841,-1.324821 -1.035947,-1.610221 V 10.504715 C 25.964728,9.6183099 25.568957,8.8265922 24.95438,8.2751781 a 0.4804869,0.4804869 0 0 0 0,-0.00375 v -1.914252 a 0.4804869,0.4804869 0 0 0 0,-0.00375 C 24.944053,4.9992349 23.838816,3.8939947 22.484625,3.8836667 a 0.4804869,0.4804869 0 0 0 -0.0038,0 H 21.300418 L 21.000144,3.2549674 A 0.4804869,0.4804869 0 0 0 20.57976,2.9809671 0.4804869,0.4804869 0 0 0 20.420239,3.0034877 L 17.888552,3.816105 17.625811,3.2568441 a 0.4804869,0.4804869 0 0 0 -0.420384,-0.275877 z m 3.109716,1.0659737 1.644002,3.4512776 h -2.33651 L 18.301429,4.6925305 Z m -3.376209,0.00751 1.623358,3.4437707 H 6.7859096 Z m 4.819402,0.7900967 h 0.718782 c 0.840092,0.00641 1.509978,0.6762929 1.516385,1.5163851 V 7.6933967 C 23.690095,7.5808917 23.366667,7.5134443 23.026995,7.5057253 Z M 3.2614403,4.8989692 H 11.458928 L 3.7925504,7.4982184 H 3.2614403 c -0.710775,0 -1.27671,-0.5557268 -1.2968096,-1.261152 v -0.037534 a 0.4804869,0.4804869 0 0 0 -0.00188,-0.026274 C 1.9768896,5.4622614 2.5467628,4.8989691 3.2614403,4.8989692 Z M 1.9646307,8.0424655 C 2.3331282,8.3028383 2.7787011,8.4590961 3.2614403,8.4590961 H 3.8694957 19.217265 a 0.4804869,0.4804869 0 0 0 0.219576,0 h 3.271113 0.251479 c 1.135155,-8.649e-4 2.044608,0.9104637 2.043742,2.0456189 v 2.839468 h -3.638949 a 0.4804869,0.4804869 0 0 0 -0.0019,0 c -0.97731,0.0021 -1.778845,0.805569 -1.781003,1.782879 v 1.914248 c 0.0021,0.977311 0.803693,1.778846 1.781003,1.781002 a 0.4804869,0.4804869 0 0 0 0.0019,0 h 3.638949 v 3.190415 c 8.66e-4,1.135155 -0.908587,2.046483 -2.043742,2.045618 H 4.0102492 a 0.4804869,0.4804869 0 0 0 -0.00188,0 C 2.8732146,24.05921 1.9637658,23.147882 1.9646307,22.012727 Z M 21.364226,14.305061 h 3.852895 c 0.45888,0.0011 0.819994,0.363389 0.822001,0.822001 v 1.912371 c -0.0011,0.459514 -0.362488,0.820988 -0.822001,0.822002 h -3.852895 c -0.458881,-0.0011 -0.819997,-0.361511 -0.822001,-0.820125 v -1.912371 -0.0019 c 0.002,-0.458613 0.36312,-0.820988 0.822001,-0.822001 z"
     id="Tracé_82"
     inkscape:connector-curvature="0" />
</svg>
