<?xml version="1.0" encoding="UTF-8" standalone="no"?>
<svg
   xmlns:dc="http://purl.org/dc/elements/1.1/"
   xmlns:cc="http://creativecommons.org/ns#"
   xmlns:rdf="http://www.w3.org/1999/02/22-rdf-syntax-ns#"
   xmlns:svg="http://www.w3.org/2000/svg"
   xmlns="http://www.w3.org/2000/svg"
   xmlns:sodipodi="http://sodipodi.sourceforge.net/DTD/sodipodi-0.dtd"
   xmlns:inkscape="http://www.inkscape.org/namespaces/inkscape"
   id="Icone_L_Préparer_ma_retraite"
   data-name="Icone/L/Préparer ma retraite"
   width="28"
   height="28"
   viewBox="0 0 28 28"
   version="1.1"
   sodipodi:docname="preparer-ma-retraite.svg"
   inkscape:version="0.92.3 (2405546, 2018-03-11)">
  <metadata
     id="metadata16">
    <rdf:RDF>
      <cc:Work
         rdf:about="">
        <dc:format>image/svg+xml</dc:format>
        <dc:type
           rdf:resource="http://purl.org/dc/dcmitype/StillImage" />
        <dc:title></dc:title>
      </cc:Work>
    </rdf:RDF>
  </metadata>
  <defs
     id="defs14" />
  <sodipodi:namedview
     pagecolor="#ffffff"
     bordercolor="#666666"
     borderopacity="1"
     objecttolerance="10"
     gridtolerance="10"
     guidetolerance="10"
     inkscape:pageopacity="0"
     inkscape:pageshadow="2"
     inkscape:window-width="1920"
     inkscape:window-height="1052"
     id="namedview12"
     showgrid="false"
     inkscape:zoom="8.4285714"
     inkscape:cx="14"
     inkscape:cy="14"
     inkscape:window-x="0"
     inkscape:window-y="0"
     inkscape:window-maximized="1"
     inkscape:current-layer="Icone_L_Préparer_ma_retraite" />
  <path
     style="color:#000000;font-style:normal;font-variant:normal;font-weight:normal;font-stretch:normal;font-size:medium;line-height:normal;font-family:sans-serif;font-variant-ligatures:normal;font-variant-position:normal;font-variant-caps:normal;font-variant-numeric:normal;font-variant-alternates:normal;font-feature-settings:normal;text-indent:0;text-align:start;text-decoration:none;text-decoration-line:none;text-decoration-style:solid;text-decoration-color:#000000;letter-spacing:normal;word-spacing:normal;text-transform:none;writing-mode:lr-tb;direction:ltr;text-orientation:mixed;dominant-baseline:auto;baseline-shift:baseline;text-anchor:start;white-space:normal;shape-padding:0;clip-rule:nonzero;display:inline;overflow:visible;visibility:visible;opacity:1;isolation:auto;mix-blend-mode:normal;color-interpolation:sRGB;color-interpolation-filters:linearRGB;solid-color:#000000;solid-opacity:1;vector-effect:none;fill:#000000;fill-opacity:1;fill-rule:nonzero;stroke:none;stroke-width:0.96245527;stroke-linecap:round;stroke-linejoin:round;stroke-miterlimit:4;stroke-dasharray:none;stroke-dashoffset:0;stroke-opacity:1;color-rendering:auto;image-rendering:auto;shape-rendering:auto;text-rendering:auto;enable-background:accumulate"
     d="M 5.7928132,2.5922949 C 4.3317651,2.6953461 2.8877115,3.4147682 1.9223144,4.823612 0.63511817,6.7020705 0.79765051,8.9318397 1.8546418,10.555108 c 0.9706264,1.490635 2.7175323,2.48275 4.7295653,2.314028 -0.4636596,2.006167 -0.3470255,4.166934 0.477468,6.220244 a 0.48127576,0.48127576 0 0 0 0.6259719,0.268811 l 8.789923,-3.528377 2.265153,5.637507 H 1.4880816 a 0.48127576,0.48127576 0 1 0 0,0.962455 H 19.129961 l 1.079003,2.688108 a 0.48206472,0.48206472 0 1 0 0.894782,-0.359041 l -0.936138,-2.329067 h 6.34431 a 0.48127576,0.48127576 0 1 0 0,-0.962455 H 19.78037 l -2.409897,-5.996548 8.744809,-3.511457 a 0.48127576,0.48127576 0 0 0 0.03384,-0.01316 h 0.0019 a 0.48127576,0.48127576 0 0 0 0.26881,-0.625972 C 24.812778,7.3139947 20.990873,4.8516217 16.926842,4.7747373 15.724151,4.7519845 14.502138,4.9516266 13.308235,5.3687527 L 12.902199,4.3555429 A 0.48127576,0.48127576 0 0 0 12.454808,4.0472565 0.48127576,0.48127576 0 0 0 12.009297,4.7145839 l 0.406036,1.0132097 C 11.972672,5.9296101 11.547036,6.1538993 11.14647,6.4082796 10.61348,4.3914779 9.0243709,3.0678642 7.2421355,2.691924 6.7682955,2.5919733 6.2798293,2.5579443 5.7928132,2.5922949 Z m 0.071432,0.9549359 c 0.3950186,-0.025375 0.7924036,0.0046 1.1805115,0.086471 1.5524316,0.327466 2.9103253,1.477369 3.2576853,3.3347572 a 0.48127576,0.48127576 0 0 0 0.0056,0.031956 C 8.6896805,8.269692 7.5079235,9.9739049 6.8661764,11.872845 5.0448468,12.179383 3.5139954,11.338636 2.661074,10.028765 1.7953248,8.6991959 1.6495,6.9254024 2.7174679,5.3668728 3.5184437,4.1979757 4.6791897,3.6233551 5.8642452,3.5472308 Z M 16.913683,5.733433 c 3.528759,0.063941 6.782867,2.1676209 8.344412,5.534118 l -3.652443,1.46624 C 20.587978,9.4809339 18.055028,6.9595339 14.864706,5.9289317 15.548135,5.7894928 16.234567,5.7211276 16.913683,5.733433 Z M 13.2556,6.5229471 c 3.528913,0.6031399 6.411837,3.1448158 7.45339,6.5698849 l -4.037801,1.622264 a 0.48127576,0.48127576 0 0 0 -0.212416,0.08459 l -4.04344,1.622264 C 10.799679,13.226101 11.126745,9.3983119 13.2556,6.5229471 Z m -1.571508,0.6823657 c -1.590367,2.9495012 -1.677385,6.5205692 -0.163543,9.5756782 l -3.6543214,1.46812 C 6.4364852,14.062138 8.0454525,9.5089269 11.684092,7.2053128 Z"
     id="Ligne_364"
     inkscape:connector-curvature="0" />
</svg>
