<?xml version="1.0" encoding="UTF-8" standalone="no"?>
<svg
   xmlns:dc="http://purl.org/dc/elements/1.1/"
   xmlns:cc="http://creativecommons.org/ns#"
   xmlns:rdf="http://www.w3.org/1999/02/22-rdf-syntax-ns#"
   xmlns:svg="http://www.w3.org/2000/svg"
   xmlns="http://www.w3.org/2000/svg"
   xmlns:sodipodi="http://sodipodi.sourceforge.net/DTD/sodipodi-0.dtd"
   xmlns:inkscape="http://www.inkscape.org/namespaces/inkscape"
   id="Icone_L_Prets"
   data-name="Icone/L/Prets"
   width="28"
   height="28"
   viewBox="0 0 28 28"
   version="1.1"
   sodipodi:docname="prets.svg"
   inkscape:version="0.92.3 (2405546, 2018-03-11)">
  <metadata
     id="metadata19">
    <rdf:RDF>
      <cc:Work
         rdf:about="">
        <dc:format>image/svg+xml</dc:format>
        <dc:type
           rdf:resource="http://purl.org/dc/dcmitype/StillImage" />
        <dc:title></dc:title>
      </cc:Work>
    </rdf:RDF>
  </metadata>
  <defs
     id="defs17" />
  <sodipodi:namedview
     pagecolor="#ffffff"
     bordercolor="#666666"
     borderopacity="1"
     objecttolerance="10"
     gridtolerance="10"
     guidetolerance="10"
     inkscape:pageopacity="0"
     inkscape:pageshadow="2"
     inkscape:window-width="1920"
     inkscape:window-height="1052"
     id="namedview15"
     showgrid="false"
     inkscape:zoom="23.8396"
     inkscape:cx="13.110642"
     inkscape:cy="13.835448"
     inkscape:window-x="0"
     inkscape:window-y="0"
     inkscape:window-maximized="1"
     inkscape:current-layer="Icone_L_Prets" />
  <path
     style="color:#000000;font-style:normal;font-variant:normal;font-weight:normal;font-stretch:normal;font-size:medium;line-height:normal;font-family:sans-serif;font-variant-ligatures:normal;font-variant-position:normal;font-variant-caps:normal;font-variant-numeric:normal;font-variant-alternates:normal;font-feature-settings:normal;text-indent:0;text-align:start;text-decoration:none;text-decoration-line:none;text-decoration-style:solid;text-decoration-color:#000000;letter-spacing:normal;word-spacing:normal;text-transform:none;writing-mode:lr-tb;direction:ltr;text-orientation:mixed;dominant-baseline:auto;baseline-shift:baseline;text-anchor:start;white-space:normal;shape-padding:0;clip-rule:nonzero;display:inline;overflow:visible;visibility:visible;opacity:1;isolation:auto;mix-blend-mode:normal;color-interpolation:sRGB;color-interpolation-filters:linearRGB;solid-color:#000000;solid-opacity:1;vector-effect:none;fill:#000000;fill-opacity:1;fill-rule:nonzero;stroke:none;stroke-width:0.96930563;stroke-linecap:round;stroke-linejoin:round;stroke-miterlimit:10;stroke-dasharray:none;stroke-dashoffset:0;stroke-opacity:1;color-rendering:auto;image-rendering:auto;shape-rendering:auto;text-rendering:auto;enable-background:accumulate"
     d="M 10.585895,4.8059921 C 9.731125,4.7853552 9.1303616,4.9935485 8.5696625,5.2452087 a 0.48470129,0.48470129 0 0 0 -0.00757,0.00379 C 8.2178486,5.4102842 7.8467512,5.5080293 7.4678346,5.5386509 a 0.48470129,0.48470129 0 0 0 -0.00379,0 L 4.866612,5.7696183 A 0.48471938,0.48471938 0 0 0 4.953698,6.7351376 L 7.5473479,6.5041702 C 8.0389052,6.4644457 8.5183945,6.3376343 8.9653361,6.1293215 l 0.00757,-0.00379 c 0.5147998,-0.2307118 0.893088,-0.3670659 1.5902699,-0.3502337 0.565213,0.013646 1.36523,0.1540142 2.525496,0.4770802 -0.0339,0.02368 -0.0706,0.041869 -0.104125,0.066261 -0.910179,0.6495868 -1.863691,1.2377809 -2.851122,1.7625461 a 0.48470129,0.48470129 0 0 0 -0.0284,0.017038 C 9.6354517,8.3892171 9.2825441,8.8339167 9.1054311,9.3571852 a 0.48470129,0.48470129 0 0 0 -0.00189,0.00757 C 8.7133747,10.580234 9.6698618,11.843321 10.945597,11.797488 a 0.48470129,0.48470129 0 0 0 0.09277,-0.01325 c 0.814987,-0.191859 1.613463,-0.448948 2.387294,-0.768629 l 2.35511,-0.969306 8.365941,6.891158 a 0.48470129,0.48470129 0 0 0 0.0076,0.0076 c 0.107659,0.08439 0.171402,0.21158 0.174172,0.348344 a 0.48470129,0.48470129 0 0 0 0.0038,0.04733 c 0.04491,0.385361 -0.138454,0.665278 -0.414604,0.823531 -0.276151,0.158254 -0.612194,0.174883 -0.921977,-0.05869 a 0.48470129,0.48470129 0 0 0 -0.03029,-0.02272 l -0.755377,-0.478974 c -0.0085,-0.0083 -0.01402,-0.01839 -0.02272,-0.0265 A 0.48470129,0.48470129 0 0 0 21.96577,17.448615 l -0.675864,-0.42975 -0.0038,-0.0038 c -0.01409,-0.01041 -0.02481,-0.018 -0.03976,-0.0284 -0.02988,-0.02079 -0.06985,-0.04861 -0.121163,-0.0833 -0.102625,-0.06938 -0.248275,-0.16678 -0.424072,-0.283977 -0.351588,-0.234393 -0.821921,-0.545712 -1.293038,-0.857608 -0.942232,-0.623791 -1.887496,-1.247603 -1.887496,-1.247603 a 0.48470129,0.48470129 0 1 0 -0.533875,0.808387 c 0,0 0.944232,0.624381 1.885603,1.247602 0.470685,0.31161 0.941291,0.622479 1.291145,0.855716 0.174927,0.116616 0.319291,0.215078 0.418392,0.282082 0.04955,0.0335 0.08719,0.05809 0.109804,0.07383 a 0.48470129,0.48470129 0 0 0 0.0019,0 c 0.01013,0.0071 0.01827,0.01416 0.01704,0.01325 a 0.48470129,0.48470129 0 0 0 0.03597,0.02651 l 0.82353,0.522516 c 0.254624,0.288018 0.26046,0.712734 -0.01136,0.997703 l -0.0095,0.0076 c -0.345585,0.325465 -0.869591,0.340154 -1.232457,0.03408 a 0.48470129,0.48470129 0 0 0 -0.04165,-0.03218 L 16.085523,16.52287 a 0.48470129,0.48470129 0 0 0 -0.27451,-0.08519 0.48470129,0.48470129 0 0 0 -0.268831,0.889793 l 3.366065,2.27181 a 0.48470129,0.48470129 0 0 0 0.0057,0.0057 c 0.31638,0.321437 0.320119,0.819568 0.01515,1.151051 -0.360637,0.319678 -0.891141,0.329548 -1.258962,0.01704 a 0.48470129,0.48470129 0 0 0 -0.03408,-0.02461 l -2.39108,-1.698177 a 0.48483388,0.48483388 0 0 0 -0.56038,0.791346 l 1.921573,1.363087 a 0.48482491,0.48482491 0 0 0 0.01136,0.01325 c 0.192746,0.204284 0.321068,0.399319 0.361597,0.524409 0.03939,0.12159 0.03825,0.157088 -0.03976,0.266938 -0.09228,0.116442 -0.230415,0.179278 -0.376742,0.198783 -0.815763,-0.126249 -1.597189,-0.416409 -2.28317,-0.87654 l -0.4714,-0.331305 0.0568,-0.0568 a 0.48470129,0.48470129 0 0 0 0.0057,-0.0057 c 0.616389,-0.635468 0.616389,-1.659059 0,-2.294527 a 0.48470129,0.48470129 0 0 0 -0.0057,-0.0057 l -0.102231,-0.102232 a 0.48470129,0.48470129 0 0 0 -0.0057,-0.0057 c -0.166275,-0.1613 -0.36045,-0.277216 -0.566018,-0.354002 l 0.08519,-0.08519 a 0.48470129,0.48470129 0 0 0 0.0076,-0.0076 c 0.561884,-0.586476 0.561884,-1.524415 0,-2.11089 a 0.48470129,0.48470129 0 0 0 -0.0076,-0.0076 L 12.967507,15.65762 a 0.48470129,0.48470129 0 0 0 -0.0076,-0.0076 c -0.293237,-0.280942 -0.675269,-0.422179 -1.05639,-0.422179 -0.111563,0 -0.222067,0.01559 -0.331306,0.03976 -0.06183,-0.250126 -0.182011,-0.488003 -0.371063,-0.685329 a 0.48470129,0.48470129 0 0 0 -0.0076,-0.0076 L 10.88496,14.266085 a 0.48470129,0.48470129 0 0 0 -0.0076,-0.0057 c -0.293249,-0.280956 -0.673378,-0.422177 -1.0544986,-0.422177 -0.2643606,0 -0.5276499,0.07285 -0.7629495,0.208248 -0.070033,-0.168767 -0.169989,-0.326985 -0.3029081,-0.46572 a 0.48470129,0.48470129 0 0 0 -0.00757,-0.0076 L 8.4409266,13.264698 a 0.48470129,0.48470129 0 0 0 -0.00757,-0.0076 c -0.2932428,-0.280927 -0.67338,-0.420257 -1.0545012,-0.420258 -0.3811212,0 -0.7631542,0.139344 -1.0563918,0.420285 a 0.48470129,0.48470129 0 0 0 -0.00379,0.0057 L 4.8571461,14.705405 1.7939887,12.227238 A 0.48470129,0.48470129 0 0 0 1.4816149,12.115541 0.48470129,0.48470129 0 0 0 1.1843864,12.980722 l 3.0044688,2.430836 c -0.3872194,0.582875 -0.3342595,1.379945 0.1647063,1.900749 a 0.48470129,0.48470129 0 0 0 0.00757,0.0076 l 0.3010149,0.299122 c 0.1819722,0.19109 0.4065844,0.315371 0.6436795,0.386208 -0.1397788,0.504115 -0.023671,1.067058 0.3597033,1.467211 a 0.48470129,0.48470129 0 0 0 0.00757,0.0057 l 0.3085876,0.308587 c 0.3365411,0.337674 0.7988345,0.474578 1.2419229,0.422178 0.051505,0.285061 0.182661,0.557653 0.3956736,0.779989 a 0.48470129,0.48470129 0 0 0 0.00757,0.0076 l 0.3010149,0.301015 c 0.48065,0.504732 1.2382361,0.58224 1.8136618,0.248007 0.075338,0.22819 0.1958969,0.444101 0.372955,0.62664 a 0.48470129,0.48470129 0 0 0 0.0057,0.0057 l 0.102232,0.102232 a 0.48470129,0.48470129 0 0 0 0.0057,0.0057 c 0.635468,0.616391 1.659061,0.616391 2.294528,0 a 0.48470129,0.48470129 0 0 0 0.0038,-0.0057 l 0.584991,-0.583097 0.619068,0.433536 a 0.48470129,0.48470129 0 0 0 0.0076,0.0057 c 0.82507,0.553428 1.76539,0.913964 2.74889,1.054499 a 0.48470129,0.48470129 0 0 0 0.09655,0.0038 c 0.446033,-0.02618 0.860047,-0.243831 1.132118,-0.598243 a 0.48470129,0.48470129 0 0 0 0.0076,-0.01136 c 0.141395,-0.195495 0.209663,-0.422529 0.227181,-0.647466 0.570134,0.101708 1.176697,-0.05119 1.631917,-0.460041 a 0.48470129,0.48470129 0 0 0 0.01893,-0.01893 l 0.02651,-0.02461 a 0.48470129,0.48470129 0 0 0 0.01136,-0.01325 c 0.275215,-0.296128 0.424922,-0.663675 0.463829,-1.041246 0.689991,0.326713 1.533378,0.220151 2.110889,-0.323733 a 0.48470129,0.48470129 0 0 0 0.01136,-0.01136 l 0.0265,-0.02461 a 0.48470129,0.48470129 0 0 0 0.0076,-0.0095 c 0.262097,-0.274779 0.409345,-0.616953 0.452469,-0.969306 0.560552,0.275354 1.195373,0.245663 1.686819,-0.03597 0.571094,-0.327277 0.965213,-0.990282 0.891686,-1.745508 -0.0137,-0.420305 -0.206218,-0.817405 -0.537662,-1.077216 l -0.808386,-0.666398 2.913596,-2.983644 a 0.48470129,0.48470129 0 0 0 -0.361596,-0.827317 0.48470129,0.48470129 0 0 0 -0.331306,0.149561 l -2.972411,3.042228 -7.019892,-5.7836495 a 0.48470129,0.48470129 0 0 0 -0.492227,-0.073834 l -2.622047,1.0810023 a 0.48470129,0.48470129 0 0 0 -0.0019,0 c -0.703013,0.29054 -1.428184,0.520465 -2.167685,0.698582 -0.620049,0.0061 -1.0531123,-0.559083 -0.863282,-1.1548365 0.105467,-0.3085193 0.313447,-0.5703306 0.590671,-0.7421247 1.016378,-0.541709 1.997083,-1.1481885 2.934421,-1.8174481 a 0.48470129,0.48470129 0 0 0 0.0038,-0.00189 c 1.497379,-1.0895824 3.444983,-1.3403129 5.168368,-0.6626114 a 0.48470129,0.48470129 0 0 0 0.181745,0.034077 l 4.448962,-0.026504 a 0.48470129,0.48470129 0 1 0 -0.0057,-0.9693056 l -4.37702,0.026505 c -0.984305,-0.3669987 -2.02782,-0.4873102 -3.040433,-0.357814 -0.563695,0.072087 -1.114775,0.226073 -1.643276,0.4467892 a 0.48472774,0.48472774 0 0 0 -0.02651,-0.00947 C 12.543362,5.051083 11.440663,4.8266291 10.585895,4.8059921 Z M 7.3788554,13.800467 c 0.137454,0 0.274908,0.05231 0.3843144,0.157133 l 0.2934422,0.293442 c 0.1677549,0.175097 0.1938819,0.420533 0.092766,0.624748 L 6.0119832,17.013185 C 5.8092805,17.151661 5.5431469,17.13829 5.3645173,16.950715 a 0.48470129,0.48470129 0 0 0 -0.00947,-0.0076 l -0.301011,-0.300992 c -0.2096382,-0.218813 -0.2096382,-0.55171 0,-0.770523 l 1.9442909,-1.919679 -0.00379,0.0057 c 0.1094065,-0.104819 0.2468605,-0.157133 0.3843146,-0.157133 z m 2.4421958,1.001489 c 0.1379274,0 0.2768008,0.05231 0.3862078,0.157134 l 0.293442,0.293442 c 0.189413,0.197702 0.198301,0.484802 0.04544,0.700475 L 7.626865,18.87039 a 0.48470129,0.48470129 0 0 0 -0.00757,0.0076 C 7.583062,18.91581 7.556196,18.9586 7.524636,18.999153 l -0.1022314,0.102232 a 0.48470129,0.48470129 0 0 0 -0.00189,0.0019 c -0.2120557,0.212769 -0.541428,0.212769 -0.7534837,0 a 0.48470129,0.48470129 0 0 0 0,-0.0019 L 6.3660067,18.800342 c -0.2096383,-0.218813 -0.2096383,-0.549817 0,-0.768628 l 0.2764035,-0.276405 c 0.055016,-0.04312 0.1113585,-0.08426 0.1609199,-0.136308 l -0.00947,0.01136 1.9537567,-1.929145 a 0.48470129,0.48470129 0 0 0 0.00947,-0.0095 c 0.071256,-0.07437 0.1323478,-0.154294 0.1855312,-0.238541 L 9.4367367,14.95909 C 9.5461431,14.85427 9.683124,14.801956 9.8210512,14.801956 Z m 2.0843868,1.391484 c 0.137111,0 0.273275,0.05145 0.382421,0.15524 l 0.295335,0.295336 c 0.209638,0.218813 0.209638,0.549816 0,0.768629 l -1.101828,1.101827 c -0.006,0.0056 -0.01303,0.0094 -0.01893,0.01515 a 0.48470129,0.48470129 0 0 0 -0.0057,0.0057 l -1.336582,1.336581 a 0.48470129,0.48470129 0 0 0 -0.0057,0.0057 c -0.0057,0.0059 -0.0095,0.01296 -0.01515,0.01893 l -0.723193,0.723192 a 0.48470129,0.48470129 0 0 0 -0.00947,0.0095 c -0.2055312,0.215829 -0.5328071,0.215829 -0.7383383,0 a 0.48470129,0.48470129 0 0 0 -0.00757,-0.0095 L 8.3197634,20.318668 C 8.1303506,20.120967 8.1214626,19.835461 8.2743272,19.620087 l 2.9192768,-2.919276 a 0.48470129,0.48470129 0 0 0 0.0076,-0.0076 c 0.03623,-0.03782 0.0631,-0.08061 0.09466,-0.121163 l 0.223394,-0.223395 h 0.0019 c 0.109146,-0.103791 0.247204,-0.15524 0.384316,-0.15524 z m 8.72943,1.527792 a 0.48470129,0.48470129 0 0 0 0.0095,0.01325 c -0.0016,-0.0016 -0.0076,-0.0077 -0.0076,-0.0076 3e-6,3e-6 -0.0017,-0.0054 -0.0019,-0.0057 z m -8.02517,1.310078 c 0.169437,0 0.337927,0.06553 0.471401,0.194996 l 0.09277,0.09087 c 0.258933,0.266947 0.258933,0.677747 0,0.944695 l -0.448683,0.450575 a 0.48470129,0.48470129 0 0 0 -0.01136,0.0095 l -0.202569,0.204463 -0.664505,0.662611 c -0.266948,0.258933 -0.677747,0.258933 -0.944694,0 l -0.09277,-0.09087 v -0.0019 c -0.254066,-0.263551 -0.256069,-0.664872 -0.0076,-0.931441 l 1.346048,-1.346048 c 0.131828,-0.122925 0.296833,-0.187424 0.461934,-0.187424 z"
     id="Ligne_16"
     inkscape:connector-curvature="0" />
</svg>
