<?xml version="1.0" encoding="UTF-8" standalone="no"?>
<svg
   xmlns:dc="http://purl.org/dc/elements/1.1/"
   xmlns:cc="http://creativecommons.org/ns#"
   xmlns:rdf="http://www.w3.org/1999/02/22-rdf-syntax-ns#"
   xmlns:svg="http://www.w3.org/2000/svg"
   xmlns="http://www.w3.org/2000/svg"
   xmlns:sodipodi="http://sodipodi.sourceforge.net/DTD/sodipodi-0.dtd"
   xmlns:inkscape="http://www.inkscape.org/namespaces/inkscape"
   id="Icone_L_Prêts_et_crédits"
   data-name="Icone/L/Prêts et crédits"
   width="28"
   height="28"
   viewBox="0 0 28 28"
   version="1.1"
   sodipodi:docname="prets-et-credits.svg"
   inkscape:version="0.92.3 (2405546, 2018-03-11)">
  <metadata
     id="metadata20">
    <rdf:RDF>
      <cc:Work
         rdf:about="">
        <dc:format>image/svg+xml</dc:format>
        <dc:type
           rdf:resource="http://purl.org/dc/dcmitype/StillImage" />
        <dc:title></dc:title>
      </cc:Work>
    </rdf:RDF>
  </metadata>
  <defs
     id="defs18" />
  <sodipodi:namedview
     pagecolor="#ffffff"
     bordercolor="#666666"
     borderopacity="1"
     objecttolerance="10"
     gridtolerance="10"
     guidetolerance="10"
     inkscape:pageopacity="0"
     inkscape:pageshadow="2"
     inkscape:window-width="1920"
     inkscape:window-height="1052"
     id="namedview16"
     showgrid="false"
     inkscape:zoom="16.857143"
     inkscape:cx="0.96162469"
     inkscape:cy="14.469885"
     inkscape:window-x="0"
     inkscape:window-y="0"
     inkscape:window-maximized="1"
     inkscape:current-layer="Icone_L_Prêts_et_crédits" />
  <path
     style="color:#000000;font-style:normal;font-variant:normal;font-weight:normal;font-stretch:normal;font-size:medium;line-height:normal;font-family:sans-serif;font-variant-ligatures:normal;font-variant-position:normal;font-variant-caps:normal;font-variant-numeric:normal;font-variant-alternates:normal;font-feature-settings:normal;text-indent:0;text-align:start;text-decoration:none;text-decoration-line:none;text-decoration-style:solid;text-decoration-color:#000000;letter-spacing:normal;word-spacing:normal;text-transform:none;writing-mode:lr-tb;direction:ltr;text-orientation:mixed;dominant-baseline:auto;baseline-shift:baseline;text-anchor:start;white-space:normal;shape-padding:0;clip-rule:nonzero;display:inline;overflow:visible;visibility:visible;opacity:1;isolation:auto;mix-blend-mode:normal;color-interpolation:sRGB;color-interpolation-filters:linearRGB;solid-color:#000000;solid-opacity:1;vector-effect:none;fill:#000000;fill-opacity:1;fill-rule:nonzero;stroke:none;stroke-width:0.96296108;stroke-linecap:round;stroke-linejoin:round;stroke-miterlimit:4;stroke-dasharray:none;stroke-dashoffset:0;stroke-opacity:1;color-rendering:auto;image-rendering:auto;shape-rendering:auto;text-rendering:auto;enable-background:accumulate"
     d="M 4.0997721,1.0000504 A 0.48152868,0.48152868 0 0 0 3.6182916,1.4815309 V 26.518518 a 0.48152868,0.48152868 0 0 0 0.4814805,0.481481 H 23.898779 a 0.48152868,0.48152868 0 0 0 0.48148,-0.481481 V 8.1000074 a 0.48152868,0.48152868 0 0 0 -0.0019,-0.094039 0.48152868,0.48152868 0 0 0 0,-0.00376 0.48152868,0.48152868 0 0 0 -0.231337,-0.3686335 C 24.060439,7.5486317 22.531343,6.0485029 20.92526,4.4569302 20.099794,3.6389211 19.278163,2.8198052 18.66832,2.201871 18.363399,1.8929039 18.109933,1.6328774 17.940457,1.4533192 17.859842,1.3679111 17.801636,1.3029424 17.765544,1.2614793 a 0.48152868,0.48152868 0 0 0 -0.353587,-0.2557865 0.48152868,0.48152868 0 0 0 -0.08087,-0.00564 h -0.01505 z M 4.5812527,1.9630115 H 16.849602 v 6.1031418 a 0.48152868,0.48152868 0 0 0 0.481481,0.4814805 h 6.086215 V 26.037038 H 4.5812527 Z M 17.812563,2.7021593 c 0.06461,0.065836 0.09886,0.103563 0.169272,0.1749129 0.614863,0.6230215 1.439609,1.4451976 2.266343,2.264463 1.23632,1.2251516 1.93121,1.9055617 2.478872,2.4431376 H 17.812563 Z M 6.7403919,4.8895103 a 0.48152868,0.48152868 0 1 0 0,0.962961 H 13.21781 a 0.48152868,0.48152868 0 1 0 0,-0.962961 z m 0,3.1296234 a 0.48152868,0.48152868 0 1 0 0,0.9629611 H 13.21781 a 0.48152868,0.48152868 0 1 0 0,-0.9629611 z m 0,3.4700453 a 0.48152868,0.48152868 0 1 0 0,0.962961 H 20.424972 a 0.48152868,0.48152868 0 1 0 0,-0.962961 z m 0,3.470045 a 0.48152868,0.48152868 0 1 0 0,0.962962 H 20.424972 a 0.48152868,0.48152868 0 1 0 0,-0.962962 z m 11.7398501,2.450661 c -1.163842,-0.06533 -2.175148,0.791366 -2.315244,1.939088 h -0.201245 a 0.48152868,0.48152868 0 1 0 0,0.962961 h 0.180555 v 0.364872 h -0.180555 a 0.48152868,0.48152868 0 1 0 0,0.962961 h 0.19184 c 0.117863,1.171058 1.145154,2.050438 2.324649,1.984226 0.8366,0.01481 1.622551,-0.410987 2.055696,-1.12847 a 0.48152868,0.48152868 0 1 0 -0.823783,-0.498407 c -0.259198,0.429348 -0.728729,0.686251 -1.230032,0.671439 a 0.48152868,0.48152868 0 0 0 -0.04514,0 c -0.646672,0.04246 -1.196117,-0.405592 -1.307145,-1.028788 h 1.4877 a 0.48152868,0.48152868 0 1 0 0,-0.962961 h -1.51027 v -0.364872 h 1.51027 a 0.48152868,0.48152868 0 1 0 0,-0.962961 h -1.480176 c 0.129127,-0.599558 0.668585,-1.025083 1.299622,-0.98365 a 0.48152868,0.48152868 0 0 0 0.04514,0.0019 c 0.500711,-0.01479 0.968765,0.241127 1.228151,0.66956 0,0 0.0019,0 0.0019,0 l 0.148582,0.268952 a 0.48163184,0.48163184 0 1 0 0.840709,-0.470197 l -0.157985,-0.282116 a 0.48152868,0.48152868 0 0 0 -0.0075,-0.01505 c -0.433246,-0.717542 -1.219139,-1.1433 -2.055739,-1.128487 z M 6.6914915,18.698221 a 0.48210093,0.48210093 0 0 0 0.0489,0.962961 H 13.21781 a 0.48152868,0.48152868 0 1 0 0,-0.962961 H 6.7403919 a 0.48152868,0.48152868 0 0 0 -0.0489,0 z m 0.0489,3.470046 a 0.48152868,0.48152868 0 1 0 0,0.962961 H 13.21781 a 0.48152868,0.48152868 0 1 0 0,-0.962961 z"
     id="Tracé_429"
     inkscape:connector-curvature="0" />
</svg>
