<?xml version="1.0" encoding="UTF-8" standalone="no"?>
<svg
   xmlns:dc="http://purl.org/dc/elements/1.1/"
   xmlns:cc="http://creativecommons.org/ns#"
   xmlns:rdf="http://www.w3.org/1999/02/22-rdf-syntax-ns#"
   xmlns:svg="http://www.w3.org/2000/svg"
   xmlns="http://www.w3.org/2000/svg"
   xmlns:sodipodi="http://sodipodi.sourceforge.net/DTD/sodipodi-0.dtd"
   xmlns:inkscape="http://www.inkscape.org/namespaces/inkscape"
   id="Icone_L_Profil"
   data-name="Icone/L/Profil"
   width="28"
   height="28"
   viewBox="0 0 28 28"
   version="1.1"
   sodipodi:docname="profil-round.svg"
   inkscape:version="0.92.3 (2405546, 2018-03-11)">
  <metadata
     id="metadata14">
    <rdf:RDF>
      <cc:Work
         rdf:about="">
        <dc:format>image/svg+xml</dc:format>
        <dc:type
           rdf:resource="http://purl.org/dc/dcmitype/StillImage" />
        <dc:title></dc:title>
      </cc:Work>
    </rdf:RDF>
  </metadata>
  <defs
     id="defs12" />
  <sodipodi:namedview
     pagecolor="#ffffff"
     bordercolor="#666666"
     borderopacity="1"
     objecttolerance="10"
     gridtolerance="10"
     guidetolerance="10"
     inkscape:pageopacity="0"
     inkscape:pageshadow="2"
     inkscape:window-width="1920"
     inkscape:window-height="1052"
     id="namedview10"
     showgrid="false"
     inkscape:zoom="8.4285714"
     inkscape:cx="14"
     inkscape:cy="14"
     inkscape:window-x="0"
     inkscape:window-y="0"
     inkscape:window-maximized="1"
     inkscape:current-layer="Icone_L_Profil" />
  <path
     style="color:#000000;font-style:normal;font-variant:normal;font-weight:normal;font-stretch:normal;font-size:medium;line-height:normal;font-family:sans-serif;font-variant-ligatures:normal;font-variant-position:normal;font-variant-caps:normal;font-variant-numeric:normal;font-variant-alternates:normal;font-feature-settings:normal;text-indent:0;text-align:start;text-decoration:none;text-decoration-line:none;text-decoration-style:solid;text-decoration-color:#000000;letter-spacing:normal;word-spacing:normal;text-transform:none;writing-mode:lr-tb;direction:ltr;text-orientation:mixed;dominant-baseline:auto;baseline-shift:baseline;text-anchor:start;white-space:normal;shape-padding:0;clip-rule:nonzero;display:inline;overflow:visible;visibility:visible;opacity:1;isolation:auto;mix-blend-mode:normal;color-interpolation:sRGB;color-interpolation-filters:linearRGB;solid-color:#000000;solid-opacity:1;vector-effect:none;fill:#000000;fill-opacity:1;fill-rule:nonzero;stroke:none;stroke-width:0.96296299;stroke-linecap:round;stroke-linejoin:round;stroke-miterlimit:4;stroke-dasharray:none;stroke-dashoffset:0;stroke-opacity:1;color-rendering:auto;image-rendering:auto;shape-rendering:auto;text-rendering:auto;enable-background:accumulate"
     d="M 14,1 C 6.8260012,1 1,6.8260012 1,14 c 0,4.667804 2.4752113,8.752913 6.1746239,11.045862 a 0.4815926,0.4815926 0 0 0 0.3949652,0.23886 C 9.4680071,26.370009 11.658831,27 14,27 c 2.341744,0 4.533555,-0.629496 6.432292,-1.715278 a 0.4815926,0.4815926 0 0 0 0.391204,-0.236979 C 24.524128,22.755055 27,18.668729 27,14 27,6.8260012 21.173999,1 14,1 Z m 0,0.962963 c 6.653575,0 12.037037,5.383462 12.037037,12.037037 0,4.124101 -2.069671,7.758159 -5.226707,9.926794 -0.40154,-2.706359 -2.374467,-4.894435 -4.953994,-5.617911 a 0.48152963,0.48152963 0 0 0 0.01505,-0.126013 v -1.226273 c 1.563468,-0.715492 2.659433,-2.285788 2.659433,-4.113281 0,-2.496556 -2.03426,-4.530816 -4.530816,-4.530816 -2.496556,0 -4.5308159,2.03426 -4.5308159,4.530816 0,1.825997 1.0942569,3.395081 2.6556709,4.1114 v 1.228154 a 0.48152963,0.48152963 0 0 0 0.01505,0.126013 C 9.5613617,19.032195 7.5897485,21.219403 7.1877893,23.924914 4.0319789,21.756102 1.962963,18.123153 1.962963,14 1.962963,7.346425 7.346425,1.962963 14,1.962963 Z m 0,7.3125 c 1.976132,0 3.567853,1.591721 3.567853,3.567853 0,1.976132 -1.591721,3.567853 -3.567853,3.567853 -1.976132,0 -3.567853,-1.591721 -3.567853,-3.567853 0,-1.976132 1.591721,-3.567853 3.567853,-3.567853 z m -0.912182,8.00651 c 0.294553,0.0605 0.600113,0.09216 0.912182,0.09216 0.310795,0 0.614987,-0.03214 0.90842,-0.09216 v 0.83319 c -0.298609,-0.03965 -0.60117,-0.06583 -0.910301,-0.06583 -0.309131,0 -0.611715,0.02618 -0.910301,0.06583 z m 0.910301,1.730324 c 3.12026,0 5.670613,2.401039 5.90379,5.474972 -1.744256,0.98284 -3.754976,1.549768 -5.901909,1.549768 -2.147858,0 -4.159016,-0.568022 -5.9037905,-1.551649 0.2339506,-3.073037 2.7822815,-5.473091 5.9019095,-5.473091 z"
     id="Ellipse_72"
     inkscape:connector-curvature="0" />
</svg>
