<?xml version="1.0" encoding="UTF-8" standalone="no"?>
<svg
   xmlns:dc="http://purl.org/dc/elements/1.1/"
   xmlns:cc="http://creativecommons.org/ns#"
   xmlns:rdf="http://www.w3.org/1999/02/22-rdf-syntax-ns#"
   xmlns:svg="http://www.w3.org/2000/svg"
   xmlns="http://www.w3.org/2000/svg"
   xmlns:sodipodi="http://sodipodi.sourceforge.net/DTD/sodipodi-0.dtd"
   xmlns:inkscape="http://www.inkscape.org/namespaces/inkscape"
   id="Icone_L_Question"
   data-name="Icone/L/Question"
   width="28"
   height="28"
   viewBox="0 0 28 28"
   version="1.1"
   sodipodi:docname="question-round.svg"
   inkscape:version="0.92.3 (2405546, 2018-03-11)">
  <metadata
     id="metadata14">
    <rdf:RDF>
      <cc:Work
         rdf:about="">
        <dc:format>image/svg+xml</dc:format>
        <dc:type
           rdf:resource="http://purl.org/dc/dcmitype/StillImage" />
        <dc:title></dc:title>
      </cc:Work>
    </rdf:RDF>
  </metadata>
  <defs
     id="defs12" />
  <sodipodi:namedview
     pagecolor="#ffffff"
     bordercolor="#666666"
     borderopacity="1"
     objecttolerance="10"
     gridtolerance="10"
     guidetolerance="10"
     inkscape:pageopacity="0"
     inkscape:pageshadow="2"
     inkscape:window-width="1920"
     inkscape:window-height="1052"
     id="namedview10"
     showgrid="false"
     inkscape:zoom="8.4285714"
     inkscape:cx="14"
     inkscape:cy="14"
     inkscape:window-x="0"
     inkscape:window-y="0"
     inkscape:window-maximized="1"
     inkscape:current-layer="Icone_L_Question" />
  <path
     id="Ellipse_24"
     style="color:#000000;font-style:normal;font-variant:normal;font-weight:normal;font-stretch:normal;font-size:medium;line-height:normal;font-family:sans-serif;font-variant-ligatures:normal;font-variant-position:normal;font-variant-caps:normal;font-variant-numeric:normal;font-variant-alternates:normal;font-feature-settings:normal;text-indent:0;text-align:start;text-decoration:none;text-decoration-line:none;text-decoration-style:solid;text-decoration-color:#000000;letter-spacing:normal;word-spacing:normal;text-transform:none;writing-mode:lr-tb;direction:ltr;text-orientation:mixed;dominant-baseline:auto;baseline-shift:baseline;text-anchor:start;white-space:normal;shape-padding:0;clip-rule:nonzero;display:inline;overflow:visible;visibility:visible;opacity:1;isolation:auto;mix-blend-mode:normal;color-interpolation:sRGB;color-interpolation-filters:linearRGB;solid-color:#000000;solid-opacity:1;vector-effect:none;fill:#000000;fill-opacity:1;fill-rule:nonzero;stroke:none;stroke-width:0.96296299;stroke-linecap:round;stroke-linejoin:round;stroke-miterlimit:10;stroke-dasharray:none;stroke-dashoffset:0;stroke-opacity:1;color-rendering:auto;image-rendering:auto;shape-rendering:auto;text-rendering:auto;enable-background:accumulate"
     d="M 14,1.962963 C 20.653575,1.962963 26.037037,7.346425 26.037037,14 26.037037,20.653575 20.653575,26.037037 14,26.037037 7.346425,26.037037 1.962963,20.653575 1.962963,14 1.962963,7.346425 7.346425,1.962963 14,1.962963 Z M 14,1 C 6.8260012,1 1,6.8260012 1,14 1,21.173999 6.8260012,27 14,27 21.173999,27 27,21.173999 27,14 27,6.8260012 21.173999,1 14,1 Z m -0.331259,20.046963 a 0.6577037,0.6577037 0 0 1 -0.514222,-0.204148 0.76459259,0.76459259 0 0 1 -0.183926,-0.533482 v -0.426592 a 0.75688889,0.75688889 0 0 1 0.183926,-0.543111 0.67407407,0.67407407 0 0 1 0.514222,-0.192593 h 0.116518 a 0.63844444,0.63844444 0 0 1 0.514222,0.192593 0.8137037,0.8137037 0 0 1 0.164667,0.543111 v 0.426592 a 0.82140741,0.82140741 0 0 1 -0.164667,0.533482 0.62207407,0.62207407 0 0 1 -0.514222,0.204148 z m -0.577778,-6.519259 a 0.57777778,0.57777778 0 0 1 0.174296,-0.426593 0.55851852,0.55851852 0 0 1 0.407334,-0.174296 3.7334074,3.7334074 0 0 0 1.590814,-0.445852 2.9697778,2.9697778 0 0 0 1.107408,-1.048667 2.8571111,2.8571111 0 0 0 0.407333,-1.533037 A 3.1614074,3.1614074 0 0 0 16.399704,9.3180741 2.7531111,2.7531111 0 0 0 13.922,7.8919259 3.1537037,3.1537037 0 0 0 12.428444,8.2607407 3.5417778,3.5417778 0 0 0 11.267111,9.2304444 0.90807407,0.90807407 0 0 1 10.907926,9.4538519 0.48918519,0.48918519 0 0 1 10.471704,9.3700741 0.57777778,0.57777778 0 0 1 10.200148,8.9723704 a 0.55755556,0.55755556 0 0 1 0.135778,-0.4564445 4.7368148,4.7368148 0 0 1 1.571555,-1.2643703 4.3795556,4.3795556 0 0 1 2.022223,-0.4814815 4.1927407,4.1927407 0 0 1 2.047259,0.5045926 3.7642222,3.7642222 0 0 1 1.464667,1.4357777 4.2736296,4.2736296 0 0 1 0.543111,2.1926666 3.7257037,3.7257037 0 0 1 -0.310074,1.493556 4.2678519,4.2678519 0 0 1 -0.854148,1.28074 4.1282222,4.1282222 0 0 1 -2.813778,1.261482 q -0.05778,0 0.03852,-0.01926 a 0.39,0.39 0 0 0 0.192593,-0.116519 v 2.03763 a 0.5902963,0.5902963 0 0 1 -0.999556,0.416963 0.50651852,0.50651852 0 0 1 -0.145407,-0.416963 z"
     inkscape:connector-curvature="0" />
</svg>
