<?xml version="1.0" encoding="UTF-8" standalone="no"?>
<svg
   xmlns:dc="http://purl.org/dc/elements/1.1/"
   xmlns:cc="http://creativecommons.org/ns#"
   xmlns:rdf="http://www.w3.org/1999/02/22-rdf-syntax-ns#"
   xmlns:svg="http://www.w3.org/2000/svg"
   xmlns="http://www.w3.org/2000/svg"
   xmlns:sodipodi="http://sodipodi.sourceforge.net/DTD/sodipodi-0.dtd"
   xmlns:inkscape="http://www.inkscape.org/namespaces/inkscape"
   id="Icone_L_Reclamation"
   data-name="Icone/L/Reclamation"
   width="28"
   height="28"
   viewBox="0 0 28 28"
   version="1.1"
   sodipodi:docname="reclamation-2.svg"
   inkscape:version="0.92.3 (2405546, 2018-03-11)">
  <metadata
     id="metadata17">
    <rdf:RDF>
      <cc:Work
         rdf:about="">
        <dc:format>image/svg+xml</dc:format>
        <dc:type
           rdf:resource="http://purl.org/dc/dcmitype/StillImage" />
        <dc:title></dc:title>
      </cc:Work>
    </rdf:RDF>
  </metadata>
  <defs
     id="defs15" />
  <sodipodi:namedview
     pagecolor="#ffffff"
     bordercolor="#666666"
     borderopacity="1"
     objecttolerance="10"
     gridtolerance="10"
     guidetolerance="10"
     inkscape:pageopacity="0"
     inkscape:pageshadow="2"
     inkscape:window-width="1920"
     inkscape:window-height="1052"
     id="namedview13"
     showgrid="false"
     inkscape:zoom="23.8396"
     inkscape:cx="9.3504757"
     inkscape:cy="12.590834"
     inkscape:window-x="0"
     inkscape:window-y="0"
     inkscape:window-maximized="1"
     inkscape:current-layer="Icone_L_Reclamation" />
  <path
     style="color:#000000;font-style:normal;font-variant:normal;font-weight:normal;font-stretch:normal;font-size:medium;line-height:normal;font-family:sans-serif;font-variant-ligatures:normal;font-variant-position:normal;font-variant-caps:normal;font-variant-numeric:normal;font-variant-alternates:normal;font-feature-settings:normal;text-indent:0;text-align:start;text-decoration:none;text-decoration-line:none;text-decoration-style:solid;text-decoration-color:#000000;letter-spacing:normal;word-spacing:normal;text-transform:none;writing-mode:lr-tb;direction:ltr;text-orientation:mixed;dominant-baseline:auto;baseline-shift:baseline;text-anchor:start;white-space:normal;shape-padding:0;clip-rule:nonzero;display:inline;overflow:visible;visibility:visible;opacity:1;isolation:auto;mix-blend-mode:normal;color-interpolation:sRGB;color-interpolation-filters:linearRGB;solid-color:#000000;solid-opacity:1;vector-effect:none;fill:#000000;fill-opacity:1;fill-rule:nonzero;stroke:none;stroke-width:0.96498728;stroke-linecap:round;stroke-linejoin:round;stroke-miterlimit:10;stroke-dasharray:none;stroke-dashoffset:0;stroke-opacity:1;color-rendering:auto;image-rendering:auto;shape-rendering:auto;text-rendering:auto;enable-background:accumulate"
     d="M 6.7899238,1.6587878 C 3.5979521,1.6587878 1,4.2567399 1,7.4487115 v 8.8771295 c 0,3.086361 2.4459029,5.565507 5.4921347,5.729613 v 3.803406 a 0.4825419,0.4825419 0 0 0 0.8236318,0.341139 L 11.4,22.115765 h 9.810075 c 3.191973,0 5.789924,-2.597952 5.789924,-5.789924 V 7.4487115 a 0.4825419,0.4825419 0 0 0 0,-0.00188 C 26.989047,4.2602033 24.398581,1.6697394 21.21196,1.6587878 a 0.4825419,0.4825419 0 0 0 -0.0019,0 z m 0,0.9649873 H 21.210075 c 2.66656,0.010196 4.815772,2.1600124 4.824937,4.8268212 v 8.8752447 c 0,2.670454 -2.154483,4.824937 -4.824937,4.824937 H 11.200217 a 0.4825419,0.4825419 0 0 0 -0.341138,0.141355 L 7.457122,24.694091 V 21.633272 A 0.4825419,0.4825419 0 0 0 6.9746283,21.150778 H 6.7899238 c -2.6704539,0 -4.8249365,-2.154483 -4.8249365,-4.824937 V 7.4487115 c 0,-2.6704538 2.1544826,-4.8249364 4.8249365,-4.8249364 z M 10.216382,5.9314952 A 0.4825419,0.4825419 0 0 0 9.7414279,6.4196431 v 7.5012689 a 0.4825419,0.4825419 0 1 0 0.9649871,0 V 6.4196431 A 0.4825419,0.4825419 0 0 0 10.216382,5.9314952 Z m 3.961726,0 a 0.4825419,0.4825419 0 0 0 -0.474955,0.4881479 v 7.5012689 a 0.4825419,0.4825419 0 1 0 0.964987,0 V 6.4196431 A 0.4825419,0.4825419 0 0 0 14.178108,5.9314952 Z m 3.961725,0 a 0.4825419,0.4825419 0 0 0 -0.474955,0.4881479 v 7.5012689 a 0.4825419,0.4825419 0 1 0 0.964987,0 V 6.4196431 A 0.4825419,0.4825419 0 0 0 18.139833,5.9314952 Z M 10.205074,16.11098 a 0.55679767,0.55679767 0 0 0 -0.4033344,0.160204 0.75462006,0.75462006 0 0 0 -0.1319319,0.448568 v 0.343023 a 0.57899238,0.57899238 0 0 0 0.1319319,0.448568 0.55679767,0.55679767 0 0 0 0.4221824,0.158319 h 0.105545 a 0.53846291,0.53846291 0 0 0 0.395796,-0.158319 0.75462006,0.75462006 0 0 0 0.133816,-0.448568 v -0.343023 a 0.57899238,0.57899238 0 0 0 -0.133816,-0.448568 0.53749792,0.53749792 0 0 0 -0.395796,-0.158318 h -0.105545 a 0.55679767,0.55679767 0 0 0 -0.01885,-0.0019 z m 3.961725,0 a 0.55679767,0.55679767 0 0 0 -0.403335,0.160204 0.75462006,0.75462006 0 0 0 -0.131931,0.448568 v 0.343023 a 0.57899238,0.57899238 0 0 0 0.131931,0.448568 0.55679767,0.55679767 0 0 0 0.422182,0.158319 h 0.105547 a 0.53846291,0.53846291 0 0 0 0.395795,-0.158319 0.75462006,0.75462006 0 0 0 0.131931,-0.448568 v -0.343023 a 0.57899238,0.57899238 0 0 0 -0.131931,-0.448568 0.53749792,0.53749792 0 0 0 -0.395795,-0.158318 h -0.105547 a 0.55679767,0.55679767 0 0 0 -0.01885,-0.0019 z m 3.961725,0 a 0.55679767,0.55679767 0 0 0 -0.403334,0.160204 0.75462006,0.75462006 0 0 0 -0.131932,0.448568 v 0.343023 a 0.57899238,0.57899238 0 0 0 0.131932,0.448568 0.55679767,0.55679767 0 0 0 0.422182,0.158319 h 0.105545 a 0.53846291,0.53846291 0 0 0 0.395795,-0.158319 0.75558505,0.75558505 0 0 0 0.133817,-0.448568 v -0.343023 a 0.57899238,0.57899238 0 0 0 -0.133817,-0.448568 0.53749792,0.53749792 0 0 0 -0.395795,-0.158318 h -0.105545 a 0.55679767,0.55679767 0 0 0 -0.01885,-0.0019 z"
     id="Tracé_161"
     inkscape:connector-curvature="0" />
</svg>
