<?xml version="1.0" encoding="UTF-8" standalone="no"?>
<svg
   xmlns:dc="http://purl.org/dc/elements/1.1/"
   xmlns:cc="http://creativecommons.org/ns#"
   xmlns:rdf="http://www.w3.org/1999/02/22-rdf-syntax-ns#"
   xmlns:svg="http://www.w3.org/2000/svg"
   xmlns="http://www.w3.org/2000/svg"
   xmlns:sodipodi="http://sodipodi.sourceforge.net/DTD/sodipodi-0.dtd"
   xmlns:inkscape="http://www.inkscape.org/namespaces/inkscape"
   id="Icone_L_Faire_une_réclamation"
   data-name="Icone/L/Faire une réclamation"
   width="28"
   height="28"
   viewBox="0 0 28 28"
   version="1.1"
   sodipodi:docname="reclamation.svg"
   inkscape:version="0.92.3 (2405546, 2018-03-11)">
  <metadata
     id="metadata19">
    <rdf:RDF>
      <cc:Work
         rdf:about="">
        <dc:format>image/svg+xml</dc:format>
        <dc:type
           rdf:resource="http://purl.org/dc/dcmitype/StillImage" />
        <dc:title></dc:title>
      </cc:Work>
    </rdf:RDF>
  </metadata>
  <defs
     id="defs17" />
  <sodipodi:namedview
     pagecolor="#ffffff"
     bordercolor="#666666"
     borderopacity="1"
     objecttolerance="10"
     gridtolerance="10"
     guidetolerance="10"
     inkscape:pageopacity="0"
     inkscape:pageshadow="2"
     inkscape:window-width="1920"
     inkscape:window-height="1052"
     id="namedview15"
     showgrid="false"
     inkscape:zoom="8.4285714"
     inkscape:cx="14"
     inkscape:cy="14"
     inkscape:window-x="0"
     inkscape:window-y="0"
     inkscape:window-maximized="1"
     inkscape:current-layer="Icone_L_Faire_une_réclamation" />
  <path
     style="color:#000000;font-style:normal;font-variant:normal;font-weight:normal;font-stretch:normal;font-size:medium;line-height:normal;font-family:sans-serif;font-variant-ligatures:normal;font-variant-position:normal;font-variant-caps:normal;font-variant-numeric:normal;font-variant-alternates:normal;font-feature-settings:normal;text-indent:0;text-align:start;text-decoration:none;text-decoration-line:none;text-decoration-style:solid;text-decoration-color:#000000;letter-spacing:normal;word-spacing:normal;text-transform:none;writing-mode:lr-tb;direction:ltr;text-orientation:mixed;dominant-baseline:auto;baseline-shift:baseline;text-anchor:start;white-space:normal;shape-padding:0;clip-rule:nonzero;display:inline;overflow:visible;visibility:visible;opacity:1;isolation:auto;mix-blend-mode:normal;color-interpolation:sRGB;color-interpolation-filters:linearRGB;solid-color:#000000;solid-opacity:1;vector-effect:none;fill:#000000;fill-opacity:1;fill-rule:nonzero;stroke:none;stroke-width:0.96263283;stroke-linecap:round;stroke-linejoin:round;stroke-miterlimit:4;stroke-dasharray:none;stroke-dashoffset:0;stroke-opacity:1;color-rendering:auto;image-rendering:auto;shape-rendering:auto;text-rendering:auto;enable-background:accumulate"
     d="M 2.5619116,3.6248752 C 1.6368502,3.6167258 0.90148179,4.4397501 1.0107943,5.3583663 l -0.00376,-0.058284 v 6.9320837 c 0.00222,0.915165 0.754398,1.667689 1.6695662,1.667686 h 1.9779096 v 1.667686 a 0.48136454,0.48136454 0 0 0 0.8009407,0.360988 l 2.3050543,-2.028674 h 3.9633389 v 6.653823 c 0,0.916708 0.752858,1.671446 1.669567,1.671446 h 1.960988 v 1.667687 a 0.48136454,0.48136454 0 0 0 0.800941,0.360987 l 2.303174,-2.028674 h 6.87004 C 26.245261,22.225121 27,21.470383 27,20.553675 v -6.930204 c 0,-0.916707 -0.754739,-1.669567 -1.671446,-1.669567 H 16.28319 V 5.2963217 c 0,-0.9167075 -0.75286,-1.6714465 -1.669566,-1.6714465 z m -0.00752,0.9626328 a 0.48136454,0.48136454 0 0 0 0.00376,0 H 14.613624 c 0.396461,0 0.706933,0.3123517 0.706933,0.7088137 v 6.9302043 a 0.48136454,0.48136454 0 0 0 0,0.0019 c 6.44e-4,0.397415 -0.309518,0.709457 -0.706933,0.708813 a 0.48136454,0.48136454 0 0 0 -0.0019,0 H 7.578131 a 0.48136454,0.48136454 0 0 0 -0.317744,0.118429 l -1.6432443,1.44771 V 13.418536 A 0.48136454,0.48136454 0 0 0 5.1358263,12.937219 H 2.6766002 C 2.2813779,12.937175 1.9714495,12.627159 1.9696668,12.232166 V 5.3000819 a 0.48136454,0.48136454 0 0 0 -0.00376,-0.056404 C 1.923176,4.8845588 2.1927522,4.5843221 2.5543916,4.587508 Z M 7.7699061,6.636863 A 0.48136454,0.48136454 0 0 0 7.2961096,7.1257 v 0.4813164 c 0,0.1864611 -0.1406836,0.3271447 -0.3271447,0.3271447 H 6.824194 c -0.1864613,0 -0.3271448,-0.1406836 -0.3271448,-0.3271447 V 7.2610703 a 0.48136454,0.48136454 0 1 0 -0.9626328,0 v 0.3459461 c 0,0.7067065 0.583071,1.2897775 1.2897776,1.2897775 h 0.1447709 c 0.7067065,0 1.2897775,-0.583071 1.2897775,-1.2897775 V 7.1257 A 0.48136454,0.48136454 0 0 0 7.7699061,6.636863 Z m 1.8519401,0 A 0.48136454,0.48136454 0 0 0 9.1461702,7.1257 v 0.4813164 c 0,0.7067065 0.5849512,1.2897775 1.2916578,1.2897775 h 0.142891 c 0.706709,0 1.289777,-0.583071 1.289777,-1.2897775 V 7.1257 a 0.48136454,0.48136454 0 1 0 -0.962632,0 v 0.4813164 c 0,0.1864611 -0.140682,0.3271447 -0.327145,0.3271447 h -0.142892 c -0.186461,0 -0.329025,-0.1406836 -0.329025,-0.3271447 V 7.1257 A 0.48136454,0.48136454 0 0 0 9.6218462,6.636863 Z M 8.6441717,8.8535506 c -1.2885324,0.002 -2.3426588,1.0560038 -2.3426573,2.3445374 a 0.48136454,0.48136454 0 1 0 0.9626328,0 c -9e-7,-0.768184 0.6120987,-1.3797106 1.3800245,-1.3819046 0.769545,0.0012 1.3825953,0.6142386 1.3837843,1.3837846 a 0.48136454,0.48136454 0 1 0 0.962633,-0.0019 C 10.988598,9.9093954 9.9347899,8.855542 8.6460518,8.8535506 a 0.48136454,0.48136454 0 0 0 -0.00188,0 z m 7.4848453,4.0629864 h 9.199537 c 0.396462,0 0.708813,0.310472 0.708813,0.706934 v 6.930204 c 0,0.396462 -0.312351,0.708814 -0.708813,0.708814 H 18.27802 a 0.48136454,0.48136454 0 0 0 -0.317744,0.120329 l -1.643244,1.445829 v -1.084842 a 0.48136454,0.48136454 0 0 0 -0.481316,-0.481316 h -2.442305 c -0.396462,0 -0.706932,-0.312352 -0.706934,-0.708814 v -6.653823 h 1.925266 c 0.672409,0.0011 1.252884,-0.406077 1.517274,-0.983315 z m 0.485078,1.545477 a 0.48136454,0.48136454 0 0 0 -0.473796,0.488838 v 0.481316 c 0,0.706707 0.583071,1.289777 1.289777,1.289777 h 0.137251 c 0.706706,0 1.291657,-0.58307 1.291657,-1.289777 v -0.481316 a 0.48136454,0.48136454 0 1 0 -0.962632,0 v 0.481316 c 0,0.186461 -0.142564,0.327144 -0.329025,0.327144 h -0.137251 c -0.186461,0 -0.327145,-0.140683 -0.327145,-0.327144 v -0.481316 a 0.48136454,0.48136454 0 0 0 -0.488836,-0.488838 z m 3.726441,0 a 0.48136454,0.48136454 0 0 0 -0.473795,0.488838 v 0.481316 c 0,0.706707 0.58307,1.289777 1.289777,1.289777 h 0.137251 c 0.706706,0 1.289777,-0.58307 1.289777,-1.289777 v -0.481316 a 0.48136454,0.48136454 0 1 0 -0.962633,0 v 0.481316 c 0,0.186461 -0.140683,0.327144 -0.327144,0.327144 h -0.137251 c -0.186462,0 -0.327145,-0.140683 -0.327145,-0.327144 V 14.950852 A 0.48136454,0.48136454 0 0 0 20.340536,14.462014 Z M 7.5367678,15.99997 A 0.48136454,0.48136454 0 0 0 7.062972,16.486928 c 0,0.356778 -0.088983,0.933937 0.2237369,1.492833 0.15636,0.279448 0.4275193,0.527652 0.7877797,0.680611 0.2651155,0.112562 0.5962226,0.16878 0.9682731,0.197415 l -0.2049354,0.191774 a 0.48136454,0.48136454 0 1 0 0.6599299,0.699414 L 10.552516,18.75438 a 0.48136454,0.48136454 0 0 0 -0.03008,-0.723856 L 9.469554,17.18258 A 0.48136454,0.48136454 0 0 0 9.1593306,17.071652 0.48136454,0.48136454 0 0 0 8.8002234,17.868833 C 8.6591132,17.842901 8.5376143,17.811807 8.450517,17.774825 8.2565715,17.692481 8.183394,17.610276 8.1271325,17.509725 8.0146095,17.308623 8.0256048,16.925285 8.0256048,16.486928 A 0.48136454,0.48136454 0 0 0 7.5367678,15.99997 Z m 13.6686342,1.423268 a 0.48136454,0.48136454 0 0 0 -0.460635,0.496358 c -0.0191,0.707758 -0.625725,1.2358 -1.329261,1.156288 a 0.48136454,0.48136454 0 0 0 -0.09777,0 c -0.702473,0.06355 -1.30499,-0.461149 -1.338659,-1.165689 A 0.48136454,0.48136454 0 0 0 17.467679,17.4458 0.48136454,0.48136454 0 0 0 17.018325,17.957198 c 0.05835,1.220836 1.125878,2.140849 2.338897,2.060637 1.226124,0.105845 2.314906,-0.834203 2.348297,-2.071917 a 0.48136454,0.48136454 0 0 0 -0.500117,-0.52268 z"
     id="Tracé_357"
     inkscape:connector-curvature="0" />
</svg>
