<?xml version="1.0" encoding="UTF-8" standalone="no"?>
<svg
   xmlns:dc="http://purl.org/dc/elements/1.1/"
   xmlns:cc="http://creativecommons.org/ns#"
   xmlns:rdf="http://www.w3.org/1999/02/22-rdf-syntax-ns#"
   xmlns:svg="http://www.w3.org/2000/svg"
   xmlns="http://www.w3.org/2000/svg"
   xmlns:sodipodi="http://sodipodi.sourceforge.net/DTD/sodipodi-0.dtd"
   xmlns:inkscape="http://www.inkscape.org/namespaces/inkscape"
   id="Icone_L_Reconnaissance"
   data-name="Icone/L/Reconnaissance"
   width="28"
   height="28"
   viewBox="0 0 28 28"
   version="1.1"
   sodipodi:docname="reconnaissance.svg"
   inkscape:version="0.92.3 (2405546, 2018-03-11)">
  <metadata
     id="metadata25">
    <rdf:RDF>
      <cc:Work
         rdf:about="">
        <dc:format>image/svg+xml</dc:format>
        <dc:type
           rdf:resource="http://purl.org/dc/dcmitype/StillImage" />
        <dc:title></dc:title>
      </cc:Work>
    </rdf:RDF>
  </metadata>
  <defs
     id="defs23" />
  <sodipodi:namedview
     pagecolor="#ffffff"
     bordercolor="#666666"
     borderopacity="1"
     objecttolerance="10"
     gridtolerance="10"
     guidetolerance="10"
     inkscape:pageopacity="0"
     inkscape:pageshadow="2"
     inkscape:window-width="1920"
     inkscape:window-height="1052"
     id="namedview21"
     showgrid="false"
     inkscape:zoom="8.4285714"
     inkscape:cx="14"
     inkscape:cy="14"
     inkscape:window-x="0"
     inkscape:window-y="0"
     inkscape:window-maximized="1"
     inkscape:current-layer="Icone_L_Reconnaissance" />
  <path
     style="color:#000000;font-style:normal;font-variant:normal;font-weight:normal;font-stretch:normal;font-size:medium;line-height:normal;font-family:sans-serif;font-variant-ligatures:normal;font-variant-position:normal;font-variant-caps:normal;font-variant-numeric:normal;font-variant-alternates:normal;font-feature-settings:normal;text-indent:0;text-align:start;text-decoration:none;text-decoration-line:none;text-decoration-style:solid;text-decoration-color:#000000;letter-spacing:normal;word-spacing:normal;text-transform:none;writing-mode:lr-tb;direction:ltr;text-orientation:mixed;dominant-baseline:auto;baseline-shift:baseline;text-anchor:start;white-space:normal;shape-padding:0;clip-rule:nonzero;display:inline;overflow:visible;visibility:visible;opacity:1;isolation:auto;mix-blend-mode:normal;color-interpolation:sRGB;color-interpolation-filters:linearRGB;solid-color:#000000;solid-opacity:1;vector-effect:none;fill:#000000;fill-opacity:1;fill-rule:nonzero;stroke:none;stroke-width:0.96295857;stroke-linecap:round;stroke-linejoin:round;stroke-miterlimit:4;stroke-dasharray:none;stroke-dashoffset:0;stroke-opacity:1;color-rendering:auto;image-rendering:auto;shape-rendering:auto;text-rendering:auto;enable-background:accumulate"
     d="M 1.4815382,0.9981783 A 0.48152745,0.48152745 0 0 0 1.0000589,1.4796576 v 8.6233694 a 0.48152745,0.48152745 0 1 0 0.9629585,0 V 1.9611369 h 8.2998756 a 0.48152745,0.48152745 0 1 0 0,-0.9629586 z m 16.2555678,0 a 0.48152745,0.48152745 0 1 0 0,0.9629586 h 8.299876 v 8.2716641 a 0.48152745,0.48152745 0 1 0 0.962959,0 V 1.4796576 A 0.48152745,0.48152745 0 0 0 26.518462,0.9981783 Z m 6.161431,2.6218052 a 0.48152745,0.48152745 0 0 0 -0.331017,0.14482 l -4.500703,4.500703 C 18.989883,7.0251393 17.961532,6.0311416 16.702679,6.0311416 h -0.317853 c -1.308441,0 -2.379184,1.0707424 -2.379184,2.3791848 v 1.7698126 a 0.48152745,0.48152745 0 1 0 0.962958,0 V 8.4103264 c 0,-0.788021 0.628206,-1.4162262 1.416226,-1.4162262 h 0.317853 c 0.788021,0 1.416226,0.6282052 1.416226,1.4162262 v 0.8030924 l -1.305261,1.3052602 a 0.48152745,0.48152745 0 0 0 -0.150462,0.152343 l -3.135257,3.135258 a 0.48152745,0.48152745 0 0 0 -0.09216,0.09216 l -2.187344,2.185463 C 9.520213,16.221327 7.8245251,15.569185 6.6348712,14.306567 A 0.48152745,0.48152745 0 0 0 6.2925696,14.150462 0.48152745,0.48152745 0 0 0 5.9333409,14.968601 c 1.1517496,1.222389 2.7134409,1.945064 4.3634061,2.068857 l -6.6617175,6.661717 a 0.48152745,0.48152745 0 1 0 0.6808419,0.680842 l 6.6711216,-6.671121 c 0.0529,1.083419 0.20371,2.160952 0.455148,3.21613 a 0.48152745,0.48152745 0 1 0 0.936627,-0.223811 C 12.139734,19.698086 11.995385,18.67499 11.94619,17.644949 a 0.48152745,0.48152745 0 0 0 0,-0.01316 c -0.02184,-0.293658 -0.01616,-0.588177 0,-0.882085 l 0.7241,-0.725981 c -0.05384,0.418611 -0.0728,0.842826 -0.02069,1.267645 0.04422,1.502676 0.212104,2.998487 0.50781,4.472491 a 0.48152745,0.48152745 0 1 0 0.944151,-0.188078 c -0.287452,-1.432853 -0.451845,-2.88753 -0.492764,-4.348359 a 0.48152745,0.48152745 0 0 0 -0.0038,-0.04702 c -0.116163,-0.935336 0.09577,-1.879104 0.590564,-2.68011 l 3.11645,-3.118331 c 1.15061,-0.137047 2.291596,0.333174 3.003603,1.256361 A 0.48208632,0.48208632 0 0 0 21.07921,12.049637 C 20.38196,11.145528 19.361981,10.578219 18.261844,10.432163 L 24.248362,4.4456453 A 0.48152745,0.48152745 0 0 0 23.898537,3.6199835 Z M 7.8968737,6.0311416 c -1.3084425,0 -2.3791849,1.0707424 -2.3791849,2.3791848 v 1.7679316 a 0.48152745,0.48152745 0 1 0 0.9629586,0 V 8.4103264 c 0,-0.788021 0.6282053,-1.4162262 1.4162263,-1.4162262 h 0.3159707 c 0.788021,0 1.418107,0.6282052 1.418107,1.4162262 v 1.7698126 a 0.48152745,0.48152745 0 1 0 0.9629586,0 V 8.4103264 c 0,-1.3084424 -1.0726231,-2.3791848 -2.3810656,-2.3791848 z m 9.2797613,6.2667544 a 0.48152745,0.48152745 0 0 0 -0.0094,0.961078 c 1.039037,0.116494 1.613562,0.398055 2.012434,1.049474 0.398872,0.651419 0.608989,1.786149 0.57928,3.588525 a 0.48152745,0.48152745 0 0 0 0,0.0075 c 0,0.615376 -0.123405,1.751197 -0.112847,2.497674 a 0.48152745,0.48152745 0 1 0 0.962958,-0.01317 c -0.0087,-0.613288 0.112112,-1.744016 0.112847,-2.476986 v -0.0038 c 0.0306,-1.875694 -0.152361,-3.176267 -0.720338,-4.103859 -0.56842,-0.928314 -1.533063,-1.368867 -2.727128,-1.502742 a 0.48152745,0.48152745 0 0 0 -0.0489,-0.0038 0.48152745,0.48152745 0 0 0 -0.0489,0 z m 4.570292,1.467006 a 0.48152745,0.48152745 0 0 0 -0.0489,0.0019 0.48152745,0.48152745 0 0 0 -0.438223,0.564233 c 0.245651,1.517007 0.28331,3.060147 0.110967,4.587219 a 0.481756,0.481756 0 1 0 0.957317,0.109085 c 0.182183,-1.614275 0.143065,-3.24693 -0.116609,-4.850545 a 0.48152745,0.48152745 0 0 0 -0.464552,-0.411892 z m -5.221042,0.238859 c -0.170932,-0.0042 -0.670946,0.01032 -1.154798,0.378038 -0.484563,0.368253 -0.88493,1.07911 -0.9197,2.22496 a 0.48152745,0.48152745 0 0 0 0,0.01129 c -0.0053,0.811858 0.03682,1.622799 0.124131,2.429966 a 0.48152745,0.48152745 0 1 0 0.957316,-0.103443 c -0.08296,-0.766964 -0.12307,-1.538179 -0.118489,-2.309596 v -0.0019 c 0.0293,-0.946211 0.306482,-1.306632 0.539784,-1.483935 0.233563,-0.1775 0.491177,-0.183903 0.549187,-0.182435 a 0.48152745,0.48152745 0 0 0 0.0094,0 c 0.132646,7.55e-4 0.26402,0.02044 0.393082,0.05078 0.391829,0.139892 0.698033,0.450007 0.825662,0.84635 0,0 0.0019,0.0019 0.0019,0.0019 0.144571,0.481294 0.207273,0.983765 0.184316,1.485816 a 0.48152745,0.48152745 0 0 0 -0.0019,0.01129 c -0.03454,1.558919 0.01248,3.117861 0.141059,4.671853 a 0.48215937,0.48215937 0 1 0 0.961078,-0.07899 c -0.125499,-1.516739 -0.172501,-3.039336 -0.139178,-4.560887 0.02806,-0.613665 -0.04795,-1.226923 -0.225693,-1.814952 a 0.48152745,0.48152745 0 0 0 -0.0019,-0.0075 c -0.22022,-0.688965 -0.753731,-1.235192 -1.436891,-1.472684 a 0.48152745,0.48152745 0 0 0 -0.0395,-0.01128 c -0.212399,-0.05404 -0.429728,-0.08279 -0.648869,-0.08464 z m -0.01505,2.070738 a 0.48152745,0.48152745 0 0 0 -0.470194,0.492764 c 0.01342,2.085658 0.153719,4.168195 0.421294,6.236661 a 0.48173244,0.48173244 0 0 0 0.955435,-0.124131 c -0.262541,-2.029551 -0.4006,-4.073634 -0.413771,-6.120053 a 0.48152745,0.48152745 0 0 0 -0.49276,-0.485241 z m -15.03682,1.199937 a 0.48152745,0.48152745 0 0 0 -0.4739561,0.489002 v 8.753143 a 0.48152745,0.48152745 0 0 0 0.4814793,0.48148 h 8.7813548 a 0.48152745,0.48152745 0 1 0 0,-0.962959 H 1.9630174 V 17.763438 A 0.48152745,0.48152745 0 0 0 1.474015,17.274436 Z m 25.036924,0.129773 a 0.48152745,0.48152745 0 0 0 -0.473957,0.489003 v 8.145651 h -8.299876 a 0.48152745,0.48152745 0 1 0 0,0.962959 h 8.781356 a 0.48152745,0.48152745 0 0 0 0.481479,-0.481479 v -8.627131 a 0.48152745,0.48152745 0 0 0 -0.489002,-0.489003 z m -11.346738,2.644375 a 0.48152745,0.48152745 0 0 0 -0.479597,0.530379 c 0,0 0.106383,1.283903 0.223811,1.965414 A 0.48173405,0.48173405 0 1 0 15.858209,22.38263 C 15.759935,21.812294 15.6438,20.496209 15.6438,20.496209 a 0.48152745,0.48152745 0 0 0 -0.479599,-0.447625 z"
     id="Tracé_318"
     inkscape:connector-curvature="0" />
</svg>
