<?xml version="1.0" encoding="UTF-8" standalone="no"?>
<svg
   xmlns:dc="http://purl.org/dc/elements/1.1/"
   xmlns:cc="http://creativecommons.org/ns#"
   xmlns:rdf="http://www.w3.org/1999/02/22-rdf-syntax-ns#"
   xmlns:svg="http://www.w3.org/2000/svg"
   xmlns="http://www.w3.org/2000/svg"
   xmlns:sodipodi="http://sodipodi.sourceforge.net/DTD/sodipodi-0.dtd"
   xmlns:inkscape="http://www.inkscape.org/namespaces/inkscape"
   id="Icone_L_Retraite"
   data-name="Icone/L/Retraite"
   width="28"
   height="28"
   viewBox="0 0 28 28"
   version="1.1"
   sodipodi:docname="retraite-reserve.svg"
   inkscape:version="0.92.3 (2405546, 2018-03-11)">
  <metadata
     id="metadata18">
    <rdf:RDF>
      <cc:Work
         rdf:about="">
        <dc:format>image/svg+xml</dc:format>
        <dc:type
           rdf:resource="http://purl.org/dc/dcmitype/StillImage" />
        <dc:title></dc:title>
      </cc:Work>
    </rdf:RDF>
  </metadata>
  <defs
     id="defs16" />
  <sodipodi:namedview
     pagecolor="#ffffff"
     bordercolor="#666666"
     borderopacity="1"
     objecttolerance="10"
     gridtolerance="10"
     guidetolerance="10"
     inkscape:pageopacity="0"
     inkscape:pageshadow="2"
     inkscape:window-width="1920"
     inkscape:window-height="1052"
     id="namedview14"
     showgrid="false"
     inkscape:zoom="8.4285714"
     inkscape:cx="14"
     inkscape:cy="14"
     inkscape:window-x="0"
     inkscape:window-y="0"
     inkscape:window-maximized="1"
     inkscape:current-layer="Icone_L_Retraite" />
  <path
     style="color:#000000;font-style:normal;font-variant:normal;font-weight:normal;font-stretch:normal;font-size:medium;line-height:normal;font-family:sans-serif;font-variant-ligatures:normal;font-variant-position:normal;font-variant-caps:normal;font-variant-numeric:normal;font-variant-alternates:normal;font-feature-settings:normal;text-indent:0;text-align:start;text-decoration:none;text-decoration-line:none;text-decoration-style:solid;text-decoration-color:#000000;letter-spacing:normal;word-spacing:normal;text-transform:none;writing-mode:lr-tb;direction:ltr;text-orientation:mixed;dominant-baseline:auto;baseline-shift:baseline;text-anchor:start;white-space:normal;shape-padding:0;clip-rule:nonzero;display:inline;overflow:visible;visibility:visible;opacity:1;isolation:auto;mix-blend-mode:normal;color-interpolation:sRGB;color-interpolation-filters:linearRGB;solid-color:#000000;solid-opacity:1;vector-effect:none;fill:#000000;fill-opacity:1;fill-rule:nonzero;stroke:none;stroke-width:0.95515358;stroke-linecap:round;stroke-linejoin:round;stroke-miterlimit:10;stroke-dasharray:none;stroke-dashoffset:0;stroke-opacity:1;color-rendering:auto;image-rendering:auto;shape-rendering:auto;text-rendering:auto;enable-background:accumulate"
     d="M 6.5835823,1.0000447 C 5.6616425,1.0107288 4.9078232,1.764548 4.8971393,2.6864878 a 0.47762454,0.47762454 0 0 0 0,0.0056 v 2.9065024 a 0.47762454,0.47762454 0 0 0 0,0.0056 C 4.9045958,6.2476099 5.2772048,6.8044114 5.8131165,7.0891488 4.6876654,7.8617034 3.9460841,9.154886 3.9457167,10.618739 v 12.099856 c 5.92e-4,2.358898 1.9225036,4.280809 4.2814013,4.281401 H 19.77291 a 0.47762454,0.47762454 0 0 0 0.0037,0 c 2.3481,-0.02151 4.256156,-1.92957 4.27767,-4.277669 a 0.47762454,0.47762454 0 0 0 0,-0.0037 V 10.618739 C 24.053949,9.154886 23.312362,7.8617034 22.186911,7.0891488 22.722823,6.8044113 23.095432,6.2476099 23.102889,5.6041835 a 0.47762454,0.47762454 0 0 0 0,-0.0056 V 2.6920844 a 0.47762454,0.47762454 0 0 0 0,-0.011193 C 23.079372,1.7677553 22.337044,1.0235231 21.423908,1.0000447 a 0.47762454,0.47762454 0 0 0 -0.01306,0 H 6.5891788 a 0.47762454,0.47762454 0 0 0 -0.0056,0 z m 0.011193,0.9551536 H 21.39779 c 0.414471,0.010657 0.739288,0.3354745 0.749946,0.7499448 v 2.8878472 c -0.0048,0.4135995 -0.328884,0.7395551 -0.742483,0.7443481 H 6.5947754 C 6.1811759,6.3325454 5.8570859,6.0065897 5.8522928,5.5929903 V 2.697681 C 5.8570859,2.2840815 6.1811756,1.9599914 6.5947754,1.9551983 Z m 9.0497076,0.6753234 a 0.47762454,0.47762454 0 0 0 -0.470115,0.485039 v 2.1136504 a 0.47762454,0.47762454 0 1 0 0.955153,0 V 3.1155607 a 0.47762454,0.47762454 0 0 0 -0.485038,-0.485039 z m 3.486684,0 a 0.47762454,0.47762454 0 0 0 -0.470115,0.485039 v 2.1136504 a 0.47762454,0.47762454 0 1 0 0.955153,0 V 3.1155607 a 0.47762454,0.47762454 0 0 0 -0.485038,-0.485039 z m 1.928962,0 a 0.47762454,0.47762454 0 0 0 -0.470115,0.485039 v 2.1136504 a 0.47762454,0.47762454 0 1 0 0.955154,0 V 3.1155607 A 0.47762454,0.47762454 0 0 0 21.060129,2.6305217 Z M 8.227118,7.292492 H 19.77291 c 1.842864,4.625e-4 3.325785,1.4833843 3.326248,3.326247 v 12.096125 c -0.01684,1.838108 -1.493736,3.313137 -3.331845,3.329979 H 8.227118 C 6.384254,26.04438 4.9013328,24.561459 4.9008703,22.718595 V 10.618739 C 4.9013328,8.7758763 6.384254,7.2929545 8.227118,7.292492 Z m 6.271927,4.305653 c -1.614039,-0.0781 -3.009717,1.147413 -3.128501,2.760991 a 0.47762454,0.47762454 0 0 0 -0.0019,0.03544 v 0.02612 h -0.47198 a 0.47762454,0.47762454 0 1 0 0,0.955154 h 0.47198 v 0.947692 h -0.47198 a 0.47762454,0.47762454 0 1 0 0,0.955153 h 0.47198 v 0.07649 a 0.47762454,0.47762454 0 0 0 0.0019,0.03358 c 0.108306,1.621283 1.513496,2.855484 3.134098,2.764722 1.124586,0.01529 2.17844,-0.557616 2.768452,-1.516679 a 0.47762454,0.47762454 0 1 0 -0.813373,-0.499964 c -0.417831,0.679186 -1.163455,1.084802 -1.960676,1.067087 a 0.47762454,0.47762454 0 0 0 -0.03918,0 c -1.113494,0.0678 -2.061679,-0.767383 -2.136037,-1.880459 v -0.04477 h 2.376692 a 0.47762454,0.47762454 0 1 0 0,-0.955153 h -2.376692 v -0.947692 h 2.376692 a 0.47762454,0.47762454 0 1 0 0,-0.955154 h -2.374825 c 0.08655,-1.10617 1.028729,-1.93299 2.137902,-1.872996 a 0.47762454,0.47762454 0 0 0 0.03545,0 c 0.797203,-0.01788 1.542989,0.387829 1.960676,1.067085 l 0.235057,0.391763 a 0.47762454,0.47762454 0 1 0 0.81897,-0.490635 l -0.238788,-0.39736 a 0.47762454,0.47762454 0 0 0 -0.0019,-0.0037 C 16.6822,12.15398 15.625824,11.580656 14.499013,11.59818 Z m -7.7046574,6.805469 a 0.47762454,0.47762454 0 0 0 -0.4719802,0.485039 v 2.87852 c -0.00443,1.603097 1.3071357,2.912795 2.9102335,2.908367 a 0.47762454,0.47762454 0 1 0 -0.00187,-0.955153 c -1.0850314,0.003 -1.9562111,-0.866317 -1.9532144,-1.951349 a 0.47762454,0.47762454 0 0 0 0,-0.0019 V 18.888653 A 0.47762454,0.47762454 0 0 0 6.7943876,18.403614 Z"
     id="Tracé_144"
     inkscape:connector-curvature="0" />
</svg>
