<?xml version="1.0" encoding="UTF-8" standalone="no"?>
<svg
   xmlns:dc="http://purl.org/dc/elements/1.1/"
   xmlns:cc="http://creativecommons.org/ns#"
   xmlns:rdf="http://www.w3.org/1999/02/22-rdf-syntax-ns#"
   xmlns:svg="http://www.w3.org/2000/svg"
   xmlns="http://www.w3.org/2000/svg"
   xmlns:sodipodi="http://sodipodi.sourceforge.net/DTD/sodipodi-0.dtd"
   xmlns:inkscape="http://www.inkscape.org/namespaces/inkscape"
   id="Icone_L_RIB"
   data-name="Icone/L/RIB"
   width="28"
   height="28"
   viewBox="0 0 28 28"
   version="1.1"
   sodipodi:docname="rib.svg"
   inkscape:version="0.92.3 (2405546, 2018-03-11)">
  <metadata
     id="metadata16">
    <rdf:RDF>
      <cc:Work
         rdf:about="">
        <dc:format>image/svg+xml</dc:format>
        <dc:type
           rdf:resource="http://purl.org/dc/dcmitype/StillImage" />
        <dc:title></dc:title>
      </cc:Work>
    </rdf:RDF>
  </metadata>
  <defs
     id="defs14" />
  <sodipodi:namedview
     pagecolor="#ffffff"
     bordercolor="#666666"
     borderopacity="1"
     objecttolerance="10"
     gridtolerance="10"
     guidetolerance="10"
     inkscape:pageopacity="0"
     inkscape:pageshadow="2"
     inkscape:window-width="1920"
     inkscape:window-height="1052"
     id="namedview12"
     showgrid="false"
     inkscape:zoom="8.4285714"
     inkscape:cx="-10.559322"
     inkscape:cy="14"
     inkscape:window-x="0"
     inkscape:window-y="0"
     inkscape:window-maximized="1"
     inkscape:current-layer="Icone_L_RIB" />
  <path
     style="color:#000000;font-style:normal;font-variant:normal;font-weight:normal;font-stretch:normal;font-size:medium;line-height:normal;font-family:sans-serif;font-variant-ligatures:normal;font-variant-position:normal;font-variant-caps:normal;font-variant-numeric:normal;font-variant-alternates:normal;font-feature-settings:normal;text-indent:0;text-align:start;text-decoration:none;text-decoration-line:none;text-decoration-style:solid;text-decoration-color:#000000;letter-spacing:normal;word-spacing:normal;text-transform:none;writing-mode:lr-tb;direction:ltr;text-orientation:mixed;dominant-baseline:auto;baseline-shift:baseline;text-anchor:start;white-space:normal;shape-padding:0;clip-rule:nonzero;display:inline;overflow:visible;visibility:visible;opacity:1;isolation:auto;mix-blend-mode:normal;color-interpolation:sRGB;color-interpolation-filters:linearRGB;solid-color:#000000;solid-opacity:1;vector-effect:none;fill:#000000;fill-opacity:1;fill-rule:nonzero;stroke:none;stroke-width:0.98768365;stroke-linecap:round;stroke-linejoin:round;stroke-miterlimit:10;stroke-dasharray:none;stroke-dashoffset:0;stroke-opacity:1;color-rendering:auto;image-rendering:auto;shape-rendering:auto;text-rendering:auto;enable-background:accumulate"
     d="M 1.4938419,6.8421873 A 0.4938912,0.4938912 0 0 0 1.0000001,7.3360291 V 20.663971 a 0.4938912,0.4938912 0 0 0 0.4938418,0.493842 H 26.506158 A 0.4938912,0.4938912 0 0 0 27,20.663971 V 7.3360291 A 0.4938912,0.4938912 0 0 0 26.506158,6.8421873 Z M 1.9876837,7.8298709 H 26.012317 V 20.170129 H 1.9876837 Z M 4.5764952,9.3596231 A 0.4938912,0.4938912 0 0 0 4.0826534,9.8534649 v 1.8750561 a 0.4938912,0.4938912 0 0 0 0.4938418,0.493842 H 9.5071971 A 0.4938912,0.4938912 0 0 0 10.001039,11.728521 V 9.8534649 A 0.4938912,0.4938912 0 0 0 9.5071971,9.3596231 Z M 5.070337,10.347307 h 3.9430182 v 0.887372 H 5.070337 Z m -0.2623535,4.712717 a 0.4938912,0.4938912 0 1 0 0,0.987684 H 7.452738 a 0.4938912,0.4938912 0 1 0 0,-0.987684 z m 5.2644305,0 a 0.4938912,0.4938912 0 1 0 0,0.987684 h 2.644755 a 0.4938912,0.4938912 0 1 0 0,-0.987684 z m 5.237425,0 a 0.4938912,0.4938912 0 1 0 0,0.987684 h 2.644754 a 0.4938912,0.4938912 0 1 0 0,-0.987684 z m 5.264431,0 a 0.4938912,0.4938912 0 1 0 0,0.987684 h 2.619676 a 0.4938912,0.4938912 0 1 0 0,-0.987684 z"
     id="Rectangle_66"
     inkscape:connector-curvature="0" />
</svg>
