<?xml version="1.0" encoding="UTF-8" standalone="no"?>
<svg
   xmlns:dc="http://purl.org/dc/elements/1.1/"
   xmlns:cc="http://creativecommons.org/ns#"
   xmlns:rdf="http://www.w3.org/1999/02/22-rdf-syntax-ns#"
   xmlns:svg="http://www.w3.org/2000/svg"
   xmlns="http://www.w3.org/2000/svg"
   xmlns:sodipodi="http://sodipodi.sourceforge.net/DTD/sodipodi-0.dtd"
   xmlns:inkscape="http://www.inkscape.org/namespaces/inkscape"
   id="Icone_L_Sign_up"
   data-name="Icone/L/Sign up"
   width="28"
   height="28"
   viewBox="0 0 28 28"
   version="1.1"
   sodipodi:docname="sign-up.svg"
   inkscape:version="0.92.3 (2405546, 2018-03-11)">
  <metadata
     id="metadata17">
    <rdf:RDF>
      <cc:Work
         rdf:about="">
        <dc:format>image/svg+xml</dc:format>
        <dc:type
           rdf:resource="http://purl.org/dc/dcmitype/StillImage" />
        <dc:title></dc:title>
      </cc:Work>
    </rdf:RDF>
  </metadata>
  <defs
     id="defs15" />
  <sodipodi:namedview
     pagecolor="#ffffff"
     bordercolor="#666666"
     borderopacity="1"
     objecttolerance="10"
     gridtolerance="10"
     guidetolerance="10"
     inkscape:pageopacity="0"
     inkscape:pageshadow="2"
     inkscape:window-width="1920"
     inkscape:window-height="1052"
     id="namedview13"
     showgrid="false"
     inkscape:zoom="8.4285714"
     inkscape:cx="-10.559322"
     inkscape:cy="14"
     inkscape:window-x="0"
     inkscape:window-y="0"
     inkscape:window-maximized="1"
     inkscape:current-layer="Icone_L_Sign_up" />
  <path
     style="color:#000000;font-style:normal;font-variant:normal;font-weight:normal;font-stretch:normal;font-size:medium;line-height:normal;font-family:sans-serif;font-variant-ligatures:normal;font-variant-position:normal;font-variant-caps:normal;font-variant-numeric:normal;font-variant-alternates:normal;font-feature-settings:normal;text-indent:0;text-align:start;text-decoration:none;text-decoration-line:none;text-decoration-style:solid;text-decoration-color:#000000;letter-spacing:normal;word-spacing:normal;text-transform:none;writing-mode:lr-tb;direction:ltr;text-orientation:mixed;dominant-baseline:auto;baseline-shift:baseline;text-anchor:start;white-space:normal;shape-padding:0;clip-rule:nonzero;display:inline;overflow:visible;visibility:visible;opacity:1;isolation:auto;mix-blend-mode:normal;color-interpolation:sRGB;color-interpolation-filters:linearRGB;solid-color:#000000;solid-opacity:1;vector-effect:none;fill:#000000;fill-opacity:1;fill-rule:nonzero;stroke:none;stroke-width:0.96296299;stroke-linecap:round;stroke-linejoin:round;stroke-miterlimit:4;stroke-dasharray:none;stroke-dashoffset:0;stroke-opacity:1;color-rendering:auto;image-rendering:auto;shape-rendering:auto;text-rendering:auto;enable-background:accumulate"
     d="M 2.5946715,1 A 0.48152963,0.48152963 0 0 0 2.11319,1.4814815 V 26.518519 A 0.48152963,0.48152963 0 0 0 2.5946715,27 H 21.131709 A 0.48152963,0.48152963 0 0 0 21.61319,26.518519 V 16.446904 a 0.48152963,0.48152963 0 1 0 -0.962963,0 v 9.590133 H 3.076153 V 1.962963 h 17.574074 v 2.6914062 a 0.48152963,0.48152963 0 1 0 0.962963,0 V 1.4814815 A 0.48152963,0.48152963 0 0 0 21.131709,1 Z m 3.7897859,4.5891204 a 0.48152963,0.48152963 0 1 0 0,0.9629629 H 17.768861 a 0.48152963,0.48152963 0 1 0 0,-0.9629629 z M 22.796205,6.0630787 c -0.792585,0 -1.586538,0.3000232 -2.189236,0.900897 L 16.800256,10.776331 H 6.2772525 a 0.48152963,0.48152963 0 1 0 0,0.962963 h 9.5600405 l -3.699508,3.70515 H 6.2772525 a 0.48152963,0.48152963 0 1 0 0,0.962963 h 4.9953705 c -0.02396,0.0466 -0.05145,0.09151 -0.06959,0.141059 a 0.48152963,0.48152963 0 0 0 -0.0056,0.01317 L 9.4952791,21.66985 H 6.2772525 a 0.48152963,0.48152963 0 0 0 -0.04702,0 0.48205514,0.48205514 0 0 0 0.04702,0.962963 H 9.9015291 A 0.48152963,0.48152963 0 0 0 10.28521,22.452257 l 5.096933,-1.700231 0.0038,-0.0019 c 0.184068,-0.06007 0.352067,-0.164006 0.489005,-0.300926 l 0.12037,-0.12037 a 0.48152963,0.48152963 0 0 0 0.276476,-0.276477 l 7.803386,-7.803384 a 0.48152963,0.48152963 0 0 0 0.283998,-0.283999 l 0.624421,-0.624422 a 0.48152963,0.48152963 0 0 0 0.0019,0 c 1.201748,-1.205397 1.201748,-3.171194 0,-4.3765913 a 0.48152963,0.48152963 0 0 0 -0.0019,0 c -0.602737,-0.6008548 -1.39481,-0.900878 -2.187394,-0.900878 z m 0,0.9554398 c 0.544019,0 1.087901,0.2096699 1.506511,0.6263021 0.835039,0.8375757 0.835039,2.1773254 0,3.0149014 l -0.425059,0.425058 -3.01302,-3.0149015 0.423176,-0.4250579 c 0.418788,-0.4175199 0.963794,-0.6263021 1.508392,-0.6263021 z m -2.612413,1.7322049 3.01302,3.0149016 -7.404658,7.404659 -3.009259,-3.009259 4.461227,-4.46687 a 0.48152963,0.48152963 0 0 0 0.235098,-0.235098 z m -8.064815,8.1080726 2.971643,2.971644 c -0.0017,5.69e-4 -0.0021,0.0032 -0.0038,0.0038 a 0.48152963,0.48152963 0 0 0 -0.0038,0.0019 l -4.457465,1.485822 1.480179,-4.442419 0.0019,-0.0038 c 0.0024,-0.0064 0.0084,-0.01071 0.01128,-0.01693 z"
     id="Tracé_445"
     inkscape:connector-curvature="0" />
</svg>
