<?xml version="1.0" encoding="UTF-8" standalone="no"?>
<svg
   xmlns:dc="http://purl.org/dc/elements/1.1/"
   xmlns:cc="http://creativecommons.org/ns#"
   xmlns:rdf="http://www.w3.org/1999/02/22-rdf-syntax-ns#"
   xmlns:svg="http://www.w3.org/2000/svg"
   xmlns="http://www.w3.org/2000/svg"
   xmlns:sodipodi="http://sodipodi.sourceforge.net/DTD/sodipodi-0.dtd"
   xmlns:inkscape="http://www.inkscape.org/namespaces/inkscape"
   id="Icone_L_Sign_in"
   data-name="Icone/L/Sign in"
   width="28"
   height="28"
   viewBox="0 0 28 28"
   version="1.1"
   sodipodi:docname="sing-in.svg"
   inkscape:version="0.92.3 (2405546, 2018-03-11)">
  <metadata
     id="metadata14">
    <rdf:RDF>
      <cc:Work
         rdf:about="">
        <dc:format>image/svg+xml</dc:format>
        <dc:type
           rdf:resource="http://purl.org/dc/dcmitype/StillImage" />
        <dc:title></dc:title>
      </cc:Work>
    </rdf:RDF>
  </metadata>
  <defs
     id="defs12" />
  <sodipodi:namedview
     pagecolor="#ffffff"
     bordercolor="#666666"
     borderopacity="1"
     objecttolerance="10"
     gridtolerance="10"
     guidetolerance="10"
     inkscape:pageopacity="0"
     inkscape:pageshadow="2"
     inkscape:window-width="1920"
     inkscape:window-height="1052"
     id="namedview10"
     showgrid="false"
     inkscape:zoom="8.4285714"
     inkscape:cx="-10.559322"
     inkscape:cy="14"
     inkscape:window-x="0"
     inkscape:window-y="0"
     inkscape:window-maximized="1"
     inkscape:current-layer="Icone_L_Sign_in" />
  <path
     style="color:#000000;font-style:normal;font-variant:normal;font-weight:normal;font-stretch:normal;font-size:medium;line-height:normal;font-family:sans-serif;font-variant-ligatures:normal;font-variant-position:normal;font-variant-caps:normal;font-variant-numeric:normal;font-variant-alternates:normal;font-feature-settings:normal;text-indent:0;text-align:start;text-decoration:none;text-decoration-line:none;text-decoration-style:solid;text-decoration-color:#000000;letter-spacing:normal;word-spacing:normal;text-transform:none;writing-mode:lr-tb;direction:ltr;text-orientation:mixed;dominant-baseline:auto;baseline-shift:baseline;text-anchor:start;white-space:normal;shape-padding:0;clip-rule:nonzero;display:inline;overflow:visible;visibility:visible;opacity:1;isolation:auto;mix-blend-mode:normal;color-interpolation:sRGB;color-interpolation-filters:linearRGB;solid-color:#000000;solid-opacity:1;vector-effect:none;fill:#000000;fill-opacity:1;fill-rule:nonzero;stroke:none;stroke-width:0.96291333;stroke-linecap:round;stroke-linejoin:round;stroke-miterlimit:4;stroke-dasharray:none;stroke-dashoffset:0;stroke-opacity:1;color-rendering:auto;image-rendering:auto;shape-rendering:auto;text-rendering:auto;enable-background:accumulate"
     d="M 14.314665,1.0037822 C 11.344101,0.93178297 8.3483861,1.8890251 5.9023373,3.8906416 1.0102396,7.8938745 -0.22490884,14.879064 3.0004324,20.314708 6.2258303,25.75045 12.949522,28.015215 18.807634,25.638942 a 0.48150482,0.48150482 0 1 0 -0.362973,-0.891446 c -3.441522,1.396011 -7.19654,1.058646 -10.2460011,-0.656362 0.089508,-3.180604 2.2957591,-5.090634 4.8014031,-5.531109 2.55896,-0.44985 5.352035,0.642115 6.477096,3.748216 A 0.48150482,0.48150482 0 1 0 20.381771,21.97912 C 19.423818,19.334376 17.316928,17.907508 15.078225,17.578304 14.33199,17.46857 13.570567,17.482434 12.83268,17.612154 10.093096,18.093759 7.6109035,20.208175 7.269599,23.50812 5.9066141,22.565173 4.7213693,21.329545 3.827936,19.823849 0.84208486,14.791814 1.9824519,8.3416902 6.5116809,4.6353949 11.040911,0.92909957 17.587863,1.0871302 21.929579,5.0096522 c 4.341799,3.9225974 5.162883,10.4224028 1.93335,15.3031758 a 0.48170798,0.48170798 0 1 0 0.803054,0.532235 C 28.154438,15.572984 27.264696,8.534086 22.574656,4.2968707 20.229677,2.1783003 17.285228,1.0757814 14.314665,1.0037822 Z m -0.308434,7.5246413 c -2.254455,0 -4.0923817,1.8379245 -4.0923817,4.0923815 0,2.254458 1.8379257,4.092382 4.0923817,4.092382 2.254458,0 4.092382,-1.837924 4.092382,-4.092382 0,-2.254457 -1.837924,-4.0923815 -4.092382,-4.0923815 z m 0,0.9629134 c 1.734062,0 3.129468,1.3954081 3.129468,3.1294681 0,1.734061 -1.395406,3.129469 -3.129468,3.129469 -1.73406,0 -3.129466,-1.395408 -3.129468,-3.129469 0,-1.73406 1.395409,-3.1294681 3.129468,-3.1294681 z M 22.88497,21.040655 a 0.48150482,0.48150482 0 0 0 -0.334763,0.825623 l 1.670052,1.670053 h -7.490788 a 0.48150482,0.48150482 0 1 0 0,0.962913 h 7.503953 l -1.671933,1.671933 a 0.48150482,0.48150482 0 1 0 0.68081,0.680811 l 2.456182,-2.456182 a 0.48150482,0.48150482 0 0 0 0.09779,-0.112841 0.48150482,0.48150482 0 0 0 0.02257,-0.03573 0.48150482,0.48150482 0 0 0 0.0019,-0.0056 0.48150482,0.48150482 0 0 0 0.01881,-0.03761 0.48150482,0.48150482 0 0 0 0.0019,-0.0056 0.48150482,0.48150482 0 0 0 -0.174904,-0.577372 l -2.435494,-2.435494 a 0.48150482,0.48150482 0 0 0 -0.346047,-0.144813 z"
     id="Tracé_442"
     inkscape:connector-curvature="0" />
</svg>
