<?xml version="1.0" encoding="UTF-8" standalone="no"?>
<svg
   xmlns:dc="http://purl.org/dc/elements/1.1/"
   xmlns:cc="http://creativecommons.org/ns#"
   xmlns:rdf="http://www.w3.org/1999/02/22-rdf-syntax-ns#"
   xmlns:svg="http://www.w3.org/2000/svg"
   xmlns="http://www.w3.org/2000/svg"
   xmlns:sodipodi="http://sodipodi.sourceforge.net/DTD/sodipodi-0.dtd"
   xmlns:inkscape="http://www.inkscape.org/namespaces/inkscape"
   id="Icone_L_Téléphone_smartphone"
   data-name="Icone/L/Téléphone smartphone"
   width="28"
   height="28"
   viewBox="0 0 28 28"
   version="1.1"
   sodipodi:docname="smartphone.svg"
   inkscape:version="0.92.3 (2405546, 2018-03-11)">
  <metadata
     id="metadata13">
    <rdf:RDF>
      <cc:Work
         rdf:about="">
        <dc:format>image/svg+xml</dc:format>
        <dc:type
           rdf:resource="http://purl.org/dc/dcmitype/StillImage" />
        <dc:title></dc:title>
      </cc:Work>
    </rdf:RDF>
  </metadata>
  <defs
     id="defs11" />
  <sodipodi:namedview
     pagecolor="#ffffff"
     bordercolor="#666666"
     borderopacity="1"
     objecttolerance="10"
     gridtolerance="10"
     guidetolerance="10"
     inkscape:pageopacity="0"
     inkscape:pageshadow="2"
     inkscape:window-width="1920"
     inkscape:window-height="1052"
     id="namedview9"
     showgrid="false"
     inkscape:zoom="8.4285714"
     inkscape:cx="-10.559322"
     inkscape:cy="14"
     inkscape:window-x="0"
     inkscape:window-y="0"
     inkscape:window-maximized="1"
     inkscape:current-layer="Icone_L_Téléphone_smartphone" />
  <path
     style="color:#000000;font-style:normal;font-variant:normal;font-weight:normal;font-stretch:normal;font-size:medium;line-height:normal;font-family:sans-serif;font-variant-ligatures:normal;font-variant-position:normal;font-variant-caps:normal;font-variant-numeric:normal;font-variant-alternates:normal;font-feature-settings:normal;text-indent:0;text-align:start;text-decoration:none;text-decoration-line:none;text-decoration-style:solid;text-decoration-color:#000000;letter-spacing:normal;word-spacing:normal;text-transform:none;writing-mode:lr-tb;direction:ltr;text-orientation:mixed;dominant-baseline:auto;baseline-shift:baseline;text-anchor:start;white-space:normal;shape-padding:0;clip-rule:nonzero;display:inline;overflow:visible;visibility:visible;opacity:1;isolation:auto;mix-blend-mode:normal;color-interpolation:sRGB;color-interpolation-filters:linearRGB;solid-color:#000000;solid-opacity:1;vector-effect:none;fill:#000000;fill-opacity:1;fill-rule:nonzero;stroke:none;stroke-width:0.9689877;stroke-linecap:round;stroke-linejoin:round;stroke-miterlimit:10;stroke-dasharray:none;stroke-dashoffset:0;stroke-opacity:1;color-rendering:auto;image-rendering:auto;shape-rendering:auto;text-rendering:auto;enable-background:accumulate"
     d="M 9.8846578,1.0000459 C 8.5707207,0.991914 7.4919077,2.0707271 7.5000396,3.3846641 V 20.739386 a 0.48454231,0.48454231 0 0 0 0,0.132478 v 3.743473 c -0.00813,1.313936 1.0706811,2.392749 2.3846182,2.384617 h 8.2326102 c 1.313082,0.0071 2.388961,-1.07131 2.380833,-2.384617 v -3.73401 a 0.48454231,0.48454231 0 0 0 0,-0.157083 V 9.7266131 a 0.48454231,0.48454231 0 0 0 0,-0.03407 0.48454231,0.48454231 0 0 0 0,-0.043529 v -6.26435 C 20.506229,2.0713564 19.43035,0.9929578 18.117268,1.0000459 Z m -0.00568,0.9689878 a 0.48454231,0.48454231 0 0 0 0.00189,0 h 8.2364002 a 0.48454231,0.48454231 0 0 0 0.0038,0 c 0.786028,-0.00486 1.412925,0.6220325 1.40806,1.4080602 a 0.48454231,0.48454231 0 0 0 0,0.00379 v 6.3116682 a 0.48454231,0.48454231 0 0 0 0,0.0019 0.48454231,0.48454231 0 0 0 0,0.0019 V 20.319239 H 8.4690273 V 3.380879 a 0.48454231,0.48454231 0 0 0 0,-0.00379 C 8.4641626,2.5910698 9.0929524,1.9641689 9.8789801,1.9690337 Z m 2.5511632,1.5537869 a 0.48454231,0.48454231 0 1 0 0,0.9689877 h 3.168136 a 0.48454231,0.48454231 0 1 0 0,-0.9689877 z M 8.4690273,21.288226 H 19.529113 v 3.330896 a 0.48454231,0.48454231 0 0 0 0,0.0038 c 0.0048,0.786028 -0.622032,1.412925 -1.40806,1.408061 a 0.48454231,0.48454231 0 0 0 -0.0038,0 H 9.8808727 a 0.48454231,0.48454231 0 0 0 -0.00189,0 c -0.7860333,0.0049 -1.4148201,-0.622049 -1.4099554,-1.408077 a 0.48454231,0.48454231 0 0 0 0,-0.0038 z m 5.5792487,0.968988 c -0.276081,-0.01147 -0.557629,0.05528 -0.80812,0.210074 -0.667976,0.412775 -0.880237,1.304065 -0.467461,1.972041 0.412776,0.667976 1.304066,0.878345 1.972041,0.465568 0.667977,-0.412776 0.878345,-1.304065 0.465569,-1.972042 -0.257985,-0.417484 -0.701892,-0.656533 -1.162029,-0.675641 z m -0.124908,0.968988 c 0.178273,-0.02955 0.358668,0.04889 0.461784,0.215751 0.137488,0.222491 0.07298,0.500302 -0.149512,0.63779 -0.222492,0.137488 -0.500303,0.07109 -0.637791,-0.151404 -0.137489,-0.22249 -0.07109,-0.49841 0.151404,-0.635898 0.05562,-0.03437 0.114691,-0.05639 0.174115,-0.06624 z"
     id="Ellipse_14"
     inkscape:connector-curvature="0" />
</svg>
