<?xml version="1.0" encoding="UTF-8" standalone="no"?>
<svg
   xmlns:dc="http://purl.org/dc/elements/1.1/"
   xmlns:cc="http://creativecommons.org/ns#"
   xmlns:rdf="http://www.w3.org/1999/02/22-rdf-syntax-ns#"
   xmlns:svg="http://www.w3.org/2000/svg"
   xmlns="http://www.w3.org/2000/svg"
   xmlns:sodipodi="http://sodipodi.sourceforge.net/DTD/sodipodi-0.dtd"
   xmlns:inkscape="http://www.inkscape.org/namespaces/inkscape"
   id="Icone_L_Économie_tirelire_cochon"
   data-name="Icone/L/Économie tirelire cochon"
   width="28"
   height="28"
   viewBox="0 0 28 28"
   version="1.1"
   sodipodi:docname="tirelire-cochon.svg"
   inkscape:version="0.92.3 (2405546, 2018-03-11)">
  <metadata
     id="metadata26">
    <rdf:RDF>
      <cc:Work
         rdf:about="">
        <dc:format>image/svg+xml</dc:format>
        <dc:type
           rdf:resource="http://purl.org/dc/dcmitype/StillImage" />
        <dc:title></dc:title>
      </cc:Work>
    </rdf:RDF>
  </metadata>
  <defs
     id="defs24" />
  <sodipodi:namedview
     pagecolor="#ffffff"
     bordercolor="#666666"
     borderopacity="1"
     objecttolerance="10"
     gridtolerance="10"
     guidetolerance="10"
     inkscape:pageopacity="0"
     inkscape:pageshadow="2"
     inkscape:window-width="1920"
     inkscape:window-height="1052"
     id="namedview22"
     showgrid="false"
     inkscape:zoom="8.4285714"
     inkscape:cx="14"
     inkscape:cy="14"
     inkscape:window-x="0"
     inkscape:window-y="0"
     inkscape:window-maximized="1"
     inkscape:current-layer="Icone_L_Économie_tirelire_cochon" />
  <path
     style="color:#000000;font-style:normal;font-variant:normal;font-weight:normal;font-stretch:normal;font-size:medium;line-height:normal;font-family:sans-serif;font-variant-ligatures:normal;font-variant-position:normal;font-variant-caps:normal;font-variant-numeric:normal;font-variant-alternates:normal;font-feature-settings:normal;text-indent:0;text-align:start;text-decoration:none;text-decoration-line:none;text-decoration-style:solid;text-decoration-color:#000000;letter-spacing:normal;word-spacing:normal;text-transform:none;writing-mode:lr-tb;direction:ltr;text-orientation:mixed;dominant-baseline:auto;baseline-shift:baseline;text-anchor:start;white-space:normal;shape-padding:0;clip-rule:nonzero;display:inline;overflow:visible;visibility:visible;opacity:1;isolation:auto;mix-blend-mode:normal;color-interpolation:sRGB;color-interpolation-filters:linearRGB;solid-color:#000000;solid-opacity:1;vector-effect:none;fill:#000000;fill-opacity:1;fill-rule:nonzero;stroke:none;stroke-width:0.96296078;stroke-linecap:round;stroke-linejoin:round;stroke-miterlimit:4;stroke-dasharray:none;stroke-dashoffset:0;stroke-opacity:1;color-rendering:auto;image-rendering:auto;shape-rendering:auto;text-rendering:auto;enable-background:accumulate"
     d="m 17.706993,2.085241 c -1.809427,0 -3.287608,1.4762996 -3.287608,3.2857275 0,0.5644039 0.157176,1.0883896 0.410011,1.5535266 C 14.1614,6.8836312 13.491913,6.8599405 12.822601,6.86431 L 12.177492,5.7753368 a 0.48152854,0.48152854 0 0 0 -0.01693,-0.026331 L 11.763719,5.1640824 C 11.491837,4.7451541 10.976368,4.6021567 10.567542,4.7220984 10.158716,4.8420402 9.804522,5.2401869 9.8020634,5.739602 a 0.48152854,0.48152854 0 0 0 0,0.00376 V 7.1520699 C 9.315984,7.1871055 8.8357411,7.2634207 8.3632646,7.3834061 L 7.2592451,5.6286358 a 0.48152854,0.48152854 0 0 0 -0.00376,-0.00564 C 7.0010766,5.2324112 6.51886,5.0929274 6.1345369,5.201698 5.750214,5.3104687 5.4130192,5.6817534 5.4010317,6.1477318 a 0.48152854,0.48152854 0 0 0 0,0.011285 V 8.7977547 C 4.3629385,9.5727876 3.53321,10.583927 2.9691796,11.748703 H 1.4814804 A 0.48152854,0.48152854 0 0 0 1,12.230183 v 6.601548 a 0.48152854,0.48152854 0 0 0 0.4814804,0.48148 h 1.60995 c 1.1566689,2.166613 3.2070168,3.705451 5.6103751,4.211073 v 1.908995 a 0.48152854,0.48152854 0 0 0 0.4814804,0.48148 h 3.3007731 a 0.48152854,0.48152854 0 0 0 0.481481,-0.48148 v -1.719036 h 2.337813 v 1.719036 a 0.48152854,0.48152854 0 0 0 0.481481,0.48148 h 3.144669 a 0.48152854,0.48152854 0 0 0 0.48148,-0.48148 v -2.162901 c 3.108129,-1.04482 5.300639,-3.817212 5.617898,-7.052935 h 1.48958 a 0.48152854,0.48152854 0 0 0 0.48148,-0.481481 v -2.572911 a 0.48152854,0.48152854 0 0 0 -0.489003,-0.489003 0.48152854,0.48152854 0 0 0 -0.473958,0.489003 v 2.091431 h -0.976126 c -0.193331,-3.264051 -2.172265,-6.1385817 -5.111968,-7.4949194 0.638475,-0.6005692 1.043835,-1.4469902 1.043835,-2.3885941 0,-1.8094279 -1.4763,-3.2857275 -3.285728,-3.2857275 z m 0,0.9629608 c 1.289006,0 2.322767,1.0337614 2.322767,2.3227667 0,1.2890054 -1.033761,2.3246476 -2.322767,2.3246476 -1.289005,0 -2.324647,-1.0356422 -2.324647,-2.3246476 0,-1.2890053 1.035642,-2.3227667 2.324647,-2.3227667 z m -0.229455,0.5905657 a 0.48152854,0.48152854 0 0 0 -0.257667,0.080874 l -0.347945,0.225694 a 0.48152854,0.48152854 0 0 0 -0.0056,0.00188 c -0.646344,0.4270913 -0.904941,1.2242606 -0.69777,1.9353255 l -0.0094,0.00564 a 0.48175279,0.48175279 0 1 0 0.526618,0.8068558 l 0.0038,-0.00188 c 0.567821,0.4879288 1.413803,0.5736109 2.068861,0.1448203 a 0.48152854,0.48152854 0 0 0 0.0056,-0.00376 L 19.110058,6.6010004 A 0.48152854,0.48152854 0 1 0 18.572154,5.8035485 l -0.342303,0.2294556 c -0.203158,0.1322067 -0.436785,0.1459612 -0.646989,0.077112 l 0.84259,-0.5491885 A 0.48152854,0.48152854 0 0 0 18.1565,4.6713174 0.48152854,0.48152854 0 0 0 17.898833,4.7540718 l -0.831306,0.5416654 c 0.02729,-0.2130158 0.134996,-0.4132698 0.331018,-0.5435463 0,0 0,-0.00188 0,-0.00188 l 0.344183,-0.221933 A 0.48152854,0.48152854 0 0 0 17.477538,3.6387675 Z M 10.89856,5.6361589 c 0.01736,0.00403 0.03408,0.018227 0.05642,0.052662 a 0.48152854,0.48152854 0 0 0 0.0056,0.0094 l 0.394964,0.5792811 0.76924,1.3015017 a 0.48152854,0.48152854 0 0 0 0.423177,0.2350979 c 1.052658,-0.018353 2.105176,0.030953 3.152191,0.1410586 0.418543,0.3262026 0.912275,0.5538919 1.455726,0.6469893 h -4.20355 a 0.48152854,0.48152854 0 1 0 0,0.9629608 h 5.576521 a 0.48152854,0.48152854 0 1 0 0,-0.9629608 h -0.270832 c 0.25023,-0.042875 0.49445,-0.1048444 0.72222,-0.2012437 2.96406,1.0982027 4.983952,3.8584222 5.127014,7.0190812 -1.72e-4,0.0884 -0.008,0.175529 -0.01128,0.26331 a 0.48152854,0.48152854 0 0 0 -0.0038,0.06771 c -0.146072,3.123461 -2.252336,5.827406 -5.279357,6.706872 a 0.48152854,0.48152854 0 0 0 -0.04702,0.01317 0.48152854,0.48152854 0 0 0 -0.0056,0.0019 0.48152854,0.48152854 0 0 0 -0.03385,0.01505 0.48152854,0.48152854 0 0 0 -0.0038,0.0019 0.48152854,0.48152854 0 0 0 -0.02821,0.01505 0.48152854,0.48152854 0 0 0 -0.03385,0.01881 0.48152854,0.48152854 0 0 0 -0.01128,0.0094 0.48152854,0.48152854 0 0 0 -0.0094,0.0056 0.48152854,0.48152854 0 0 0 -0.02445,0.02069 0.48152854,0.48152854 0 0 0 -0.16739,0.443864 v 1.948491 h -2.18165 v -1.641929 a 0.48152854,0.48152854 0 0 0 -0.141059,-0.423177 0.48152854,0.48152854 0 0 0 -0.0038,-0.0038 0.48152854,0.48152854 0 0 0 -0.03197,-0.02821 0.48152854,0.48152854 0 0 0 -0.0038,-0.0038 0.48152854,0.48152854 0 0 0 -0.03573,-0.02445 0.48152854,0.48152854 0 0 0 -0.0038,-0.0019 0.48152854,0.48152854 0 0 0 -0.03762,-0.02257 0.48152854,0.48152854 0 0 0 -0.289641,-0.05078 h -3.157835 a 0.48152854,0.48152854 0 0 0 -0.408129,0.124131 0.48152854,0.48152854 0 0 0 -0.01693,0.01693 0.48152854,0.48152854 0 0 0 -0.0019,0.0038 0.48152854,0.48152854 0 0 0 -0.03009,0.03197 0.48152854,0.48152854 0 0 0 -0.0019,0.0038 0.48152854,0.48152854 0 0 0 -0.09968,0.379918 v 1.640042 H 9.6647663 v -1.65885 A 0.48152854,0.48152854 0 0 0 9.407099,22.706124 0.48152854,0.48152854 0 0 0 9.405219,22.704224 0.48152854,0.48152854 0 0 0 9.2058561,22.653444 C 6.8272241,22.258027 4.7918188,20.721678 3.7628699,18.538329 A 0.48152854,0.48152854 0 0 0 3.2983166,18.258092 0.48152854,0.48152854 0 0 0 3.0425301,18.35025 H 1.9629608 v -5.638587 h 0.9986957 a 0.48152854,0.48152854 0 0 0 0.7128167,-0.231335 c 8.818e-4,-0.0021 0.00288,-0.0036 0.00376,-0.0056 a 0.48152854,0.48152854 0 0 0 0.031973,-0.06583 C 4.2297939,11.222434 5.0614796,10.20016 6.1194907,9.4522671 A 0.48152854,0.48152854 0 0 0 6.3338999,9.202123 0.48152854,0.48152854 0 0 0 6.3489462,9.1551035 0.48152854,0.48152854 0 0 0 6.3639925,8.9670252 V 6.172182 c 0.00134,-0.05187 0.00734,-0.035754 0.033854,-0.043258 0.026515,-0.0075 0.022462,-0.024669 0.050781,0.018808 L 7.7332023,8.1883811 A 0.48152854,0.48152854 0 0 0 8.3726685,8.3670555 C 8.9790524,8.1921844 9.6035549,8.0929174 10.234644,8.0792957 a 0.48152854,0.48152854 0 0 0 0.515334,-0.3611103 0.48152854,0.48152854 0 0 0 0.0094,-0.043258 0.48152854,0.48152854 0 0 0 0,-0.00376 0.48152854,0.48152854 0 0 0 0.0056,-0.043258 0.48152854,0.48152854 0 0 0 0,-0.00376 0.48152854,0.48152854 0 0 0 0,-0.0489 v -1.8300018 -0.00188 c 9.63e-4,-0.079189 0.02435,-0.083424 0.07335,-0.097801 0.02481,-0.00728 0.04282,-0.013429 0.06019,-0.0094 z M 6.4241775,11.19011 a 0.48152854,0.48152854 0 0 0 -0.4739572,0.489004 v 2.200516 a 0.48152854,0.48152854 0 1 0 0.9629607,0 V 11.679114 A 0.48152854,0.48152854 0 0 0 6.4241775,11.19011 Z m 3.3026546,0 a 0.48152854,0.48152854 0 0 0 -0.4739573,0.489004 v 2.200516 a 0.48152854,0.48152854 0 1 0 0.9629602,0 V 11.679114 A 0.48152854,0.48152854 0 0 0 9.7268321,11.19011 Z"
     id="Ligne_307"
     inkscape:connector-curvature="0" />
</svg>
