<?xml version="1.0" encoding="UTF-8" standalone="no"?>
<svg
   xmlns:dc="http://purl.org/dc/elements/1.1/"
   xmlns:cc="http://creativecommons.org/ns#"
   xmlns:rdf="http://www.w3.org/1999/02/22-rdf-syntax-ns#"
   xmlns:svg="http://www.w3.org/2000/svg"
   xmlns="http://www.w3.org/2000/svg"
   xmlns:sodipodi="http://sodipodi.sourceforge.net/DTD/sodipodi-0.dtd"
   xmlns:inkscape="http://www.inkscape.org/namespaces/inkscape"
   id="Icone_L_Video"
   data-name="Icone/L/Video"
   width="28"
   height="28"
   viewBox="0 0 28 28"
   version="1.1"
   sodipodi:docname="video.svg"
   inkscape:version="0.92.3 (2405546, 2018-03-11)">
  <metadata
     id="metadata14">
    <rdf:RDF>
      <cc:Work
         rdf:about="">
        <dc:format>image/svg+xml</dc:format>
        <dc:type
           rdf:resource="http://purl.org/dc/dcmitype/StillImage" />
        <dc:title></dc:title>
      </cc:Work>
    </rdf:RDF>
  </metadata>
  <sodipodi:namedview
     pagecolor="#ffffff"
     bordercolor="#666666"
     borderopacity="1"
     objecttolerance="10"
     gridtolerance="10"
     guidetolerance="10"
     inkscape:pageopacity="0"
     inkscape:pageshadow="2"
     inkscape:window-width="1920"
     inkscape:window-height="1052"
     id="namedview12"
     showgrid="false"
     inkscape:zoom="8.4285714"
     inkscape:cx="-10.559322"
     inkscape:cy="14"
     inkscape:window-x="0"
     inkscape:window-y="0"
     inkscape:window-maximized="1"
     inkscape:current-layer="Icone_L_Video" />
  <defs
     id="defs4">
    <clipPath
       id="clip-path">
      <path
         id="Tracé_166"
         data-name="Tracé 166"
         d="M1470.918,787.051v-9.367l8.21,4.739Zm16.31-10.029a6.244,6.244,0,0,0-1.047-2.59,5.1,5.1,0,0,0-2.59-1.157c-3.637-.276-9.312-.276-9.312-.276s-5.51,0-9.312.276a3.132,3.132,0,0,0-2.59,1.157,6.25,6.25,0,0,0-1.047,2.59,32.4,32.4,0,0,0-.331,4.3v2.039a32.4,32.4,0,0,0,.331,4.3,6.248,6.248,0,0,0,1.047,2.59,5.244,5.244,0,0,0,2.92,1.157c2.149.165,8.982.276,8.982.276s5.62,0,9.312-.276a3.132,3.132,0,0,0,2.59-1.157,6.248,6.248,0,0,0,1.047-2.59,32.4,32.4,0,0,0,.331-4.3V781.32A32.4,32.4,0,0,0,1487.229,777.022Z"
         transform="translate(-1461 -773)"
         fill="#444" />
    </clipPath>
  </defs>
  <path
     id="Tracé_165"
     style="fill:#000000;stroke-width:0.97891569;fill-opacity:1"
     d="M 26.675979,8.7926582 A 6.1123494,6.1123494 0 0 0 25.651054,6.2572666 4.9924699,4.9924699 0 0 0 23.115663,5.1246612 C 19.555346,4.8544804 14,4.8544804 14,4.8544804 c 0,0 -5.3938253,0 -9.1156627,0.2701808 A 3.0659639,3.0659639 0 0 0 2.3489458,6.2572666 6.1182229,6.1182229 0 0 0 1.3240211,8.7926582 31.716867,31.716867 0 0 0 1,13.001996 v 1.996009 a 31.716867,31.716867 0 0 0 0.3240211,4.209337 6.1162651,6.1162651 0 0 0 1.0249247,2.535392 5.1334337,5.1334337 0 0 0 2.8584337,1.132605 C 7.3110693,23.03686 14,23.14552 14,23.14552 c 0,0 5.501506,0 9.115663,-0.270181 A 3.0659639,3.0659639 0 0 0 25.651054,21.742734 6.1162651,6.1162651 0 0 0 26.675979,19.207342 31.716867,31.716867 0 0 0 27,14.998005 V 13.000038 A 31.716867,31.716867 0 0 0 26.676958,8.7926582 Z M 10.709864,18.610204 V 9.4407003 l 8.036898,4.6390817 z"
     inkscape:connector-curvature="0" />
</svg>
