<?xml version="1.0" encoding="UTF-8" standalone="no"?>
<svg
   xmlns:dc="http://purl.org/dc/elements/1.1/"
   xmlns:cc="http://creativecommons.org/ns#"
   xmlns:rdf="http://www.w3.org/1999/02/22-rdf-syntax-ns#"
   xmlns:svg="http://www.w3.org/2000/svg"
   xmlns="http://www.w3.org/2000/svg"
   xmlns:sodipodi="http://sodipodi.sourceforge.net/DTD/sodipodi-0.dtd"
   xmlns:inkscape="http://www.inkscape.org/namespaces/inkscape"
   id="Icone_L_Virements"
   data-name="Icone/L/Virements"
   width="28"
   height="28"
   viewBox="0 0 28 28"
   version="1.1"
   sodipodi:docname="virements.svg"
   inkscape:version="0.92.3 (2405546, 2018-03-11)">
  <metadata
     id="metadata15">
    <rdf:RDF>
      <cc:Work
         rdf:about="">
        <dc:format>image/svg+xml</dc:format>
        <dc:type
           rdf:resource="http://purl.org/dc/dcmitype/StillImage" />
        <dc:title></dc:title>
      </cc:Work>
    </rdf:RDF>
  </metadata>
  <defs
     id="defs13" />
  <sodipodi:namedview
     pagecolor="#ffffff"
     bordercolor="#666666"
     borderopacity="1"
     objecttolerance="10"
     gridtolerance="10"
     guidetolerance="10"
     inkscape:pageopacity="0"
     inkscape:pageshadow="2"
     inkscape:window-width="1920"
     inkscape:window-height="1052"
     id="namedview11"
     showgrid="false"
     inkscape:zoom="8.4285714"
     inkscape:cx="-10.559322"
     inkscape:cy="14"
     inkscape:window-x="0"
     inkscape:window-y="0"
     inkscape:window-maximized="1"
     inkscape:current-layer="Icone_L_Virements" />
  <path
     style="color:#000000;font-style:normal;font-variant:normal;font-weight:normal;font-stretch:normal;font-size:medium;line-height:normal;font-family:sans-serif;font-variant-ligatures:normal;font-variant-position:normal;font-variant-caps:normal;font-variant-numeric:normal;font-variant-alternates:normal;font-feature-settings:normal;text-indent:0;text-align:start;text-decoration:none;text-decoration-line:none;text-decoration-style:solid;text-decoration-color:#000000;letter-spacing:normal;word-spacing:normal;text-transform:none;writing-mode:lr-tb;direction:ltr;text-orientation:mixed;dominant-baseline:auto;baseline-shift:baseline;text-anchor:start;white-space:normal;shape-padding:0;clip-rule:nonzero;display:inline;overflow:visible;visibility:visible;opacity:1;isolation:auto;mix-blend-mode:normal;color-interpolation:sRGB;color-interpolation-filters:linearRGB;solid-color:#000000;solid-opacity:1;vector-effect:none;fill:#000000;fill-opacity:1;fill-rule:nonzero;stroke:none;stroke-width:0.96249622;stroke-linecap:round;stroke-linejoin:round;stroke-miterlimit:4;stroke-dasharray:none;stroke-dashoffset:0;stroke-opacity:1;color-rendering:auto;image-rendering:auto;shape-rendering:auto;text-rendering:auto;enable-background:accumulate"
     d="m 16.292515,1.0000047 a 0.48129622,0.48129622 0 0 0 -0.334617,0.8271452 l 4.21844,4.2203202 h -8.45568 a 0.48129622,0.48129622 0 0 0 -0.0019,0 C 8.6634797,6.0509532 6.178784,8.539681 6.178786,11.594982 v 2.70702 a 0.48129622,0.48129622 0 1 0 0.9624962,0 v -2.70702 C 7.1412806,9.0594648 9.1851431,7.0128569 11.720658,7.0099663 h 8.45944 l -4.2222,4.2203197 a 0.48129622,0.48129622 0 1 0 0.680515,0.680515 l 5.041826,-5.0399455 a 0.48129622,0.48129622 0 0 0 0,-0.6805148 L 16.638413,1.146635 A 0.48129622,0.48129622 0 0 0 16.292515,1.0000047 Z M 14.564911,12.168344 c -1.038422,0 -1.910281,0.734739 -2.131779,1.708807 h -0.315819 a 0.48129622,0.48129622 0 1 0 0,0.962496 h 0.315819 c 0.221498,0.974453 1.093357,1.710687 2.131779,1.710687 h 0.558322 a 0.48129622,0.48129622 0 1 0 0,-0.962496 h -0.558322 c -0.512991,0 -0.946744,-0.306226 -1.131686,-0.748191 h 1.533978 a 0.48129622,0.48129622 0 1 0 0,-0.962496 h -1.533978 c 0.184942,-0.441436 0.618695,-0.746311 1.131686,-0.746311 h 0.571482 a 0.48129622,0.48129622 0 1 0 0,-0.962496 z m 6.767551,1.041451 a 0.48129622,0.48129622 0 0 0 -0.473729,0.486888 v 2.70702 c 0,2.537577 -2.047438,4.585017 -4.585016,4.585017 H 7.8217971 l 4.2203209,-4.224081 a 0.48129622,0.48129622 0 0 0 -0.349657,-0.825265 0.48129622,0.48129622 0 0 0 -0.330858,0.144751 L 6.3197767,21.12971 a 0.48129622,0.48129622 0 0 0 0,0.680515 l 5.0418263,5.041826 a 0.48129622,0.48129622 0 1 0 0.680515,-0.680516 L 7.8217971,21.951216 h 8.4519199 c 3.057749,0 5.547512,-2.489763 5.547512,-5.547513 v -2.70702 a 0.48129622,0.48129622 0 0 0 -0.488767,-0.486888 z"
     id="Tracé_449"
     inkscape:connector-curvature="0" />
</svg>
