<!-- Generated by IcoMoon.io -->
<svg version="1.1" xmlns="http://www.w3.org/2000/svg" width="1024" height="1024" viewBox="0 0 1024 1024">
<title></title>
<g id="icomoon-ignore">
</g>
<path d="M511.989-1.437c-282.384 0-513.426 228.189-513.426 513.426 0 282.384 228.189 513.426 513.426 513.426 282.384 0 513.426-228.189 513.426-513.426-2.852-285.237-231.042-513.426-513.426-513.426zM511.989 976.925c-256.713 0-464.936-208.223-464.936-464.936s208.223-464.936 464.936-464.936 464.936 208.223 464.936 464.936c0 253.861-208.223 464.936-464.936 464.936zM537.66 298.062l-188.256 188.256h436.412v68.457h-430.708l179.699 179.699-45.638 45.638-256.713-256.713 2.852-2.852-8.557-8.557 262.418-262.418 48.49 48.49z"></path>
</svg>
