<svg xmlns="http://www.w3.org/2000/svg" width="1021" height="1024"><path d="M384.993 462.827h262.151c10.621 0 19.24-8.6 19.24-19.24 0-10.621-8.62-19.24-19.24-19.24H384.993c-10.621 0-19.24 8.62-19.24 19.24s8.6 19.24 19.24 19.24zm569.998 466.331c-38.481-51.006-157.483-155.655-255.34-248.971 0 0 92.758-93.143 94.451-93.989l160.869-163.293v506.254zM89.172 956.287v1.635l.673-.232c51.16-57.797 358.468-373.513 385.732-397.814 8.235-7.331 16.528-15.585 24.859-15.739 8.485.481 12.968 5.368 24.859 16.47 90.699 84.465 321.277 299.458 409.763 395.66H89.172zm-19.241-36.826V422.904l242.564 242.314c-.058.058.423.116.385.174l.827 1.597c-91.796 93.7-205.295 203.043-243.776 258.533zm153.924-645.343v249.317L77.686 378.555zm38.481-27.129V186.67h409.686l90.565 65.475v307.423l-90.276 91.45c-50.852-48.467-95.933-91.738-125.852-119.598-19.029-17.72-32.035-25.474-44.118-25.975-21.145-.731-46.947 21.241-51.93 25.705-27.533 24.551-67.399 62.551-110.421 106.034l-77.635-76.077V246.988zM508.055 76.134l105.168 72.036H405.888zm293.012 202.39l145.169 100.223-145.169 143.168zm192.405 158.272V357.95L519.003 31.998s-18.086-5.156-25.494 1.982l-156.04 114.211H223.893v78.905S32.682 363.53 32.778 363.511c-.038.019.443.039.404.077-.924.924-1.597 2.097-2.309 3.175-.693 1.058-1.635 3.983-2.116 5.118-.654 1.655-.808 7.196-1.001 7.196h-.154c-.077 0 .596 599.397.596 599.397l.827 1.193c0 .673-.058 1.558.212 2.174.404.924.924 1.751 1.482 2.597.808 1.251 1.405 2.617 2.52 3.675.962.924 2.136 1.558 3.271 2.27.924.558 1.751 1.328 2.751 1.751 1.039.404 942.454 4.271 942.454 4.271s11.737-1.193 11.737-7.773V436.797zm-960.097 551.7c.924.866 2.059 1.289 3.117 1.962-1.154-.712-2.386-1.308-3.329-2.251.077.097.135.212.212.289zm351.618-673.241h262.151c10.621 0 19.24-8.6 19.24-19.24 0-10.621-8.62-19.24-19.24-19.24H384.993c-10.621 0-19.24 8.62-19.24 19.24s8.6 19.24 19.24 19.24zm0 76.142h186.535c10.621 0 19.24-8.6 19.24-19.24 0-10.621-8.62-19.24-19.24-19.24H384.993c-10.621 0-19.24 8.62-19.24 19.24s8.6 19.24 19.24 19.24z"/></svg>