<svg xmlns="http://www.w3.org/2000/svg" width="320" height="320"><path d="M99.456 103.785h86.497c2.523 0 4.597.799 6.219 2.42s2.42 3.696 2.42 6.219v138.384h25.952c2.523 0 4.597.817 6.219 2.438s2.438 3.696 2.438 6.219v43.248h-.017c.001 2.523-.799 4.597-2.42 6.219s-3.696 2.42-6.219 2.42H99.457c-2.523 0-4.597-.799-6.219-2.42s-2.438-3.696-2.438-6.219v-43.248c-.001-2.522.817-4.597 2.438-6.219s3.696-2.438 6.219-2.438h25.952v-86.479H99.457c-2.523 0-4.597-.817-6.219-2.438s-2.438-3.696-2.438-6.219v-43.248c0-2.522.817-4.597 2.438-6.219s3.696-2.42 6.219-2.42zm34.592-95.136h51.905c2.523 0 4.597.799 6.219 2.42s2.42 3.696 2.42 6.219v43.248c0 2.523-.799 4.597-2.42 6.219s-3.696 2.438-6.219 2.438h-51.905c-2.523 0-4.597-.817-6.219-2.438s-2.42-3.696-2.42-6.219V17.288c0-2.523.799-4.597 2.42-6.219s3.696-2.42 6.219-2.42z"/></svg>