
<svg xmlns="http://www.w3.org/2000/svg" width="24" height="24" viewBox="0 0 24 24"><g><g><g/><g><g><path fill="none" stroke="#d42d2e" stroke-linecap="round" stroke-linejoin="round" stroke-miterlimit="50" d="M1 11.97C1 5.91 5.911 1 11.97 1c6.058 0 10.97 4.911 10.97 10.97 0 6.058-4.912 10.97-10.97 10.97C5.91 22.94 1 18.028 1 11.97z"/></g><g><path fill="#d42d2e" d="M12.15 9.257c.483 0 .844-.301.844-.813 0-.483-.361-.814-.844-.814-.482 0-.843.331-.843.814 0 .512.361.813.843.813zm-.422 7.534h1.055v-6.238H8.835v.874h2.893z"/></g></g></g></g></svg>