<?xml version="1.0" encoding="UTF-8" standalone="no"?>
<!-- Generated by IcoMoon.io -->

<svg
   xmlns:dc="http://purl.org/dc/elements/1.1/"
   xmlns:cc="http://creativecommons.org/ns#"
   xmlns:rdf="http://www.w3.org/1999/02/22-rdf-syntax-ns#"
   xmlns:svg="http://www.w3.org/2000/svg"
   xmlns="http://www.w3.org/2000/svg"
   xmlns:sodipodi="http://sodipodi.sourceforge.net/DTD/sodipodi-0.dtd"
   xmlns:inkscape="http://www.inkscape.org/namespaces/inkscape"
   version="1.1"
   width="824"
   height="1024"
   viewBox="0 0 824 1024"
   id="svg7"
   sodipodi:docname="cadenas (copie).svg"
   inkscape:version="0.92.3 (2405546, 2018-03-11)">
  <metadata
     id="metadata13">
    <rdf:RDF>
      <cc:Work
         rdf:about="">
        <dc:format>image/svg+xml</dc:format>
        <dc:type
           rdf:resource="http://purl.org/dc/dcmitype/StillImage" />
      </cc:Work>
    </rdf:RDF>
  </metadata>
  <defs
     id="defs11" />
  <sodipodi:namedview
     pagecolor="#ffffff"
     bordercolor="#666666"
     borderopacity="1"
     objecttolerance="10"
     gridtolerance="10"
     guidetolerance="10"
     inkscape:pageopacity="0"
     inkscape:pageshadow="2"
     inkscape:window-width="1920"
     inkscape:window-height="1052"
     id="namedview9"
     showgrid="false"
     inkscape:zoom="0.65186406"
     inkscape:cx="542.23046"
     inkscape:cy="684.83656"
     inkscape:window-x="0"
     inkscape:window-y="0"
     inkscape:window-maximized="1"
     inkscape:current-layer="svg7" />
  <title
     id="title2" />
  <g
     id="icomoon-ignore" />
  <path
     d="M 530.441,815.603 C 525.937,740.241 488.815,689.284 419.106,662.672 329.349,627.081 318.663,560.286 387.018,462.345 562.322,324.692 503.887,895.557 566.708,579.803 579.808,502.969 534.915,430.964 465.735,417.246 396.084,405.765 328.642,457.753 313.451,534.233 276.359,753.724 416.22,642.742 472.152,736.267 Z M 284.985,67.698 c 0.677,-0.147 -0.648,0.177 0,0 105.977,-26.494 189.523,16.397 228.381,87.49 25.935,41.272 59.2,105.124 59.2,105.124 7.978,10.303 -7.978,-10.303 0,0 16.927,-2.885 -424.027,100.826 -426.176,97.175 0.146,0.353 -11.569,-51.311 -5.947,-104.859 5.564,-53.136 64.322,-160.35 144.541,-184.931 v 0 z M 70.764,403.528 C 51.129,416.245 35.379,428.815 29.462,451.13 -5.422,583.69 106.296,860.791 162.729,952.992 188.134,993.587 22.574,566.587 61.933,471.413 90.812,344.27 638.45,257.78 647.193,289.897 c 13.659,12.158 5.858,11.952 11.01,11.952 1.03,0.059 1.707,0.089 2.649,0.206 384.933,416.491 -138.654,720.499 -419.052,697.92 135.121,8.184 496.504,-72.418 563.623,-202.417 49.986,-96.969 -15.602,-499.654 -123.787,-542.162 -25.14,-9.921 -65.353,-1.06 -89.816,2.326 6.211,-8.831 42.656,25.817 24.463,-3.385 C 597.2365,177.754 564.23625,110.12725 508.73062,68.045375 453.225,25.9635 375.214,9.4265 266.146,35.023 l -1.649,0.442 V 35.377 C 123.635,72.116 66.908,229.61 112.508,371.384 Z"
     id="path5"
     style="fill:#ffffff;fill-opacity:0.98039216"
     inkscape:connector-curvature="0"
     sodipodi:nodetypes="ccccccccccccccccccccccccccccccsccccc" />
</svg>
