<svg xmlns="http://www.w3.org/2000/svg" fill-rule="evenodd" stroke-linejoin="round" stroke-miterlimit="1.414" clip-rule="evenodd" viewBox="0 0 24 24"><path d="M20 11.453c0 5.433-6.56 10.412-7.998 11.438C10.562 21.865 4 16.886 4 11.453V4.987c3.933-.206 6.976-2.788 8.002-3.775 1.025.987 4.064 3.569 7.998 3.775v6.466zM21 4.5a.5.5 0 0 0-.5-.5C15.928 4 12.406.202 12.371.163a.501.501 0 0 0-.738 0C11.598.202 8.071 4 3.5 4a.5.5 0 0 0-.5.5v6.953c0 6.609 8.369 12.229 8.726 12.464a.493.493 0 0 0 .552 0C12.634 23.68 21 18.062 21 11.453V4.5z"/><path fill="none" d="M0 0h24v24H0z"/></svg>