<svg xmlns="http://www.w3.org/2000/svg" viewBox="0 0 24 24">
<path d="M21,3L19,3L19,2C19,1.451 18.549,1 18,1C17.451,1 17,1.451 17,2L17,3L7,3L7,2C7,1.451 6.549,1 6,1C5.451,1 5,1.451 5,2L5,3L3,3C2.451,3 2,3.451 2,4L2,21C2,21.549 2.451,22 3,22L21,22C21.549,22 22,21.549 22,21L22,4C22,3.451 21.549,3 21,3ZM20.4,20.4L3.6,20.4L3.6,8L20.4,8L20.4,20.4Z"/>
<path d="M9.2,15C9.2,14.448 8.752,14 8.2,14L6.2,14C5.648,14 5.2,14.448 5.2,15L5.2,17C5.2,17.552 5.648,18 6.2,18L8.2,18C8.752,18 9.2,17.552 9.2,17L9.2,15Z"/>
<rect x="0.0" y="0.0" width="24.0" height="24.0" style="fill:none;"/>
</svg>
