<svg xmlns="http://www.w3.org/2000/svg" fill-rule="evenodd" stroke-linejoin="round" stroke-miterlimit="1.414" clip-rule="evenodd" viewBox="0 0 24 24"><path d="M20.327 17H3.306C1.948 17 1 16.046 1 14.68a2.428 2.428 0 0 1 2.426-2.426l.395.016a.51.51 0 0 0 .53-.455l.015-.168C4.577 9.042 6.835 7 9.507 7c1.812 0 3.461.909 4.408 2.428l.074.12a.5.5 0 0 0 .616.2l.133-.055a4.008 4.008 0 0 1 1.526-.297c1.625 0 3.062.955 3.66 2.435l.044.108a.497.497 0 0 0 .454.311l.12.002C21.897 12.266 23 13.355 23 14.68c0 1.388-1.382 2.32-2.673 2.32m.439-5.739c-.793-1.747-2.539-2.865-4.502-2.865-.569 0-1.123.092-1.65.275A6.155 6.155 0 0 0 9.507 6c-3.083 0-5.705 2.285-6.104 5.254A3.43 3.43 0 0 0 0 14.68C0 16.604 1.39 18 3.306 18h17.021C22.352 18 24 16.511 24 14.68c0-1.801-1.434-3.292-3.234-3.419"/><path fill="none" d="M0 0h24v24H0z"/></svg>