<svg xmlns="http://www.w3.org/2000/svg" fill-rule="evenodd" stroke-linejoin="round" stroke-miterlimit="1.414" clip-rule="evenodd" viewBox="0 0 24 24"><path d="M2 8.5C2 7.673 2.673 7 3.5 7h17c.827 0 1.5.673 1.5 1.5v10c0 .827-.673 1.5-1.5 1.5h-17c-.827 0-1.5-.673-1.5-1.5v-10zm7-3c0-.827.673-1.5 1.5-1.5h3c.827 0 1.5.673 1.5 1.5V6H9v-.5zM3.5 21h17c1.378 0 2.5-1.122 2.5-2.5v-10C23 7.122 21.878 6 20.5 6H16v-.5C16 4.122 14.878 3 13.5 3h-3A2.503 2.503 0 0 0 8 5.5V6H3.5A2.503 2.503 0 0 0 1 8.5v10C1 19.878 2.122 21 3.5 21"/><path d="M7.012 14.5a.5.5 0 0 0 .5.5h.764c.621 1.742 2.271 3 4.224 3a4.49 4.49 0 0 0 1.627-.303.5.5 0 0 0-.36-.933A3.48 3.48 0 0 1 12.5 17a3.495 3.495 0 0 1-3.149-2h2.15a.5.5 0 0 0 0-1H9.05c-.024-.165-.05-.329-.05-.5 0-.171.026-.335.05-.5h3.45a.5.5 0 0 0 0-1H9.35a3.495 3.495 0 0 1 3.15-2c.472 0 .93.092 1.361.275a.5.5 0 0 0 .39-.921A4.467 4.467 0 0 0 12.5 9c-1.953 0-3.603 1.258-4.224 3h-.764a.5.5 0 0 0 0 1h.54c-.02.167-.052.329-.052.5 0 .171.032.333.051.5h-.539a.5.5 0 0 0-.5.5"/><path fill="none" d="M0 0h24v24H0z"/></svg>