<svg xmlns="http://www.w3.org/2000/svg" fill-rule="evenodd" stroke-linejoin="round" stroke-miterlimit="1.414" clip-rule="evenodd" viewBox="0 0 24 24"><path d="M9 14v-3h6v3c0 1.654-1.346 3-3 3s-3-1.346-3-3m3-14C5.383 0 0 5.383 0 12c0 4.517 2.497 8.607 6.516 10.677a.497.497 0 0 0 .673-.216.498.498 0 0 0-.215-.673A10.968 10.968 0 0 1 1 12C1 5.935 5.935 1 12 1s11 4.935 11 11a10.95 10.95 0 0 1-2.882 7.427l-.325.29A4.22 4.22 0 0 1 16.75 21c-1.896 0-3.545-1.275-4.067-3.069C14.563 17.604 16 15.972 16 14v-3.5a.5.5 0 0 0-.5-.5H14V7.5a.5.5 0 0 0-1 0V10h-2V7.5a.5.5 0 0 0-1 0V10H8.5a.5.5 0 0 0-.5.5V14c0 2.088 1.612 3.786 3.654 3.965A5.258 5.258 0 0 0 16.75 22a5.182 5.182 0 0 0 3.733-1.561l.334-.299A11.96 11.96 0 0 0 24 12c0-6.617-5.383-12-12-12"/><path fill="none" d="M0 0h24v24H0z"/></svg>