<svg xmlns="http://www.w3.org/2000/svg" viewBox="0 0 24 24">
<path d="m21.105 6.55278-8.21089-4.10559a2.26133 2.26133 0 0 0 -1.78906 0l-8.21094 4.10559a1.77688 1.77688 0 0 0 -.89453 1.44722v13a1.00292 1.00292 0 0 0 1 1h18a1.00292 1.00292 0 0 0 1-1v-13a1.77688 1.77688 0 0 0 -.89458-1.44722zm-17.45186 1.40936 8.14869-4.07537a.69453.69453 0 0 1 .19775-.024 1.09885 1.09885 0 0 1 .17847.01574l.00048-.00018 8.16747 4.08381a.37532.37532 0 0 1 .05347.08661v1.3421l-8.3999 3.73426-8.39989-3.73426v-1.3421a.3769.3769 0 0 1 .05346-.08661zm-.05346 12.43786v-9.2572l8.0747 3.58874a.80767.80767 0 0 0 .65039 0l8.07471-3.58874v9.2572z"/>
<rect x="0.0" y="0.0" width="24.0" height="24.0" style="fill:none;"/>
</svg>