<svg xmlns="http://www.w3.org/2000/svg" fill-rule="evenodd" stroke-linejoin="round" stroke-miterlimit="1.414" clip-rule="evenodd" viewBox="0 0 24 24"><path d="M15.249 12.304c-1.379.945-2.803 1.922-2.885 3.696H9.79c.069-2.564 1.769-3.787 3.414-4.97 1.423-1.022 2.894-2.08 2.894-3.948 0-2.116-1.838-3.538-4.574-3.538-1.637 0-3.192.478-4.453 1.359l-.736-2.234C7.793 1.59 9.739.999 11.859.999c4.219 0 6.945 2.323 6.945 5.914 0 2.953-1.808 4.193-3.555 5.39M11.859 0C9.376 0 7.095.747 5.434 2.105a.497.497 0 0 0-.159.543l1.069 3.24a.498.498 0 0 0 .801.222c1.167-1.01 2.721-1.566 4.379-1.566 2.171 0 3.574.996 3.574 2.538 0 1.355-1.149 2.18-2.478 3.137-1.707 1.228-3.832 2.756-3.832 5.943v.338a.5.5 0 0 0 .5.5h3.572c.277 0 .5-.223.5-.5v-.338c0-1.35 1.083-2.093 2.454-3.033 1.778-1.22 3.99-2.736 3.99-6.216C19.804 2.779 16.611 0 11.859 0M11 23c-1.141 0-2-.859-2-1.999C9 19.842 9.841 19 11 19s2 .842 2 2.001C13 22.159 12.159 23 11 23m0-5c-1.71 0-3 1.29-3 3.001C8 22.711 9.29 24 11 24s3-1.289 3-2.999C14 19.29 12.71 18 11 18"/><path fill="none" d="M0 0h24v24H0z"/></svg>