<svg xmlns="http://www.w3.org/2000/svg" fill-rule="evenodd" stroke-linejoin="round" stroke-miterlimit="1.414" clip-rule="evenodd" viewBox="0 0 24 24"><path d="M21.979 20.778c-.031.055-.128.222-.48.222h-19c-.35 0-.446-.167-.478-.222-.158-.273-.096-.765.15-1.196L11.415 3.47c.35-.613.822-.613 1.173 0l9.242 16.113c.246.431.308.923.15 1.196M13.453 2.972c-.719-1.253-2.19-1.253-2.909 0l-9.24 16.112c-.436.76-.494 1.601-.15 2.195.27.465.747.721 1.344.721h19c.598 0 1.076-.256 1.345-.72.344-.595.286-1.436-.149-2.195l-9.24-16.113z"/><path d="M12 8.997a.5.5 0 0 0-.5.5V15.5a.5.5 0 1 0 1 0V9.497a.5.5 0 0 0-.5-.5"/><circle cy="-.5" r=".5" transform="translate(12 19)"/><path fill="none" d="M0 0h24v24H0z"/></svg>