<svg xmlns="http://www.w3.org/2000/svg" fill-rule="evenodd" stroke-linejoin="round" stroke-miterlimit="1.414" clip-rule="evenodd" viewBox="0 0 24 24"><path d="M20.05 4.443l-.493-.493.493-.493.493.493-.493.493zm-11.4 12.6l-.847-.847-.846-.847L18.25 4.056l.246.247 1.2 1.201.002.001.245.245L8.65 17.043zm-4.113 2.42l1.828-3.291 1.462 1.462-3.29 1.829zM21.603 3.596l-1.2-1.2a.516.516 0 0 0-.707 0l-.846.847-.247-.247a.514.514 0 0 0-.707 0l-12 12c-.02.02-.03.046-.046.069-.01.015-.028.024-.037.041l-3 5.4a.5.5 0 0 0 .679.681l5.4-3c.017-.009.026-.026.041-.037.023-.017.05-.026.07-.047L19.375 7.731l.474.699-4.345 4.159a.5.5 0 1 0 .692.722l4.649-4.45a.5.5 0 0 0 .069-.642l-.819-1.208.908-.908a.5.5 0 0 0 0-.707l-.246-.246.846-.847a.499.499 0 0 0 0-.707"/><path fill="none" d="M0 0h24v24H0z"/></svg>