<!-- Generated by IcoMoon.io -->
<svg version="1.1" xmlns="http://www.w3.org/2000/svg" width="1600" height="1600" viewBox="0 0 1600 1600">
<title></title>
<g id="icomoon-ignore">
    <line stroke-width="1" x1="16" y1="0" x2="16" y2="1600" stroke="#449FDB" opacity="0.3"></line>
    <line stroke-width="1" x1="32" y1="0" x2="32" y2="1600" stroke="#449FDB" opacity="1"></line>
    <line stroke-width="1" x1="48" y1="0" x2="48" y2="1600" stroke="#449FDB" opacity="0.3"></line>
    <line stroke-width="1" x1="64" y1="0" x2="64" y2="1600" stroke="#449FDB" opacity="1"></line>
    <line stroke-width="1" x1="80" y1="0" x2="80" y2="1600" stroke="#449FDB" opacity="0.3"></line>
    <line stroke-width="1" x1="96" y1="0" x2="96" y2="1600" stroke="#449FDB" opacity="1"></line>
    <line stroke-width="1" x1="112" y1="0" x2="112" y2="1600" stroke="#449FDB" opacity="0.3"></line>
    <line stroke-width="1" x1="128" y1="0" x2="128" y2="1600" stroke="#449FDB" opacity="1"></line>
    <line stroke-width="1" x1="144" y1="0" x2="144" y2="1600" stroke="#449FDB" opacity="0.3"></line>
    <line stroke-width="1" x1="160" y1="0" x2="160" y2="1600" stroke="#449FDB" opacity="1"></line>
    <line stroke-width="1" x1="176" y1="0" x2="176" y2="1600" stroke="#449FDB" opacity="0.3"></line>
    <line stroke-width="1" x1="192" y1="0" x2="192" y2="1600" stroke="#449FDB" opacity="1"></line>
    <line stroke-width="1" x1="208" y1="0" x2="208" y2="1600" stroke="#449FDB" opacity="0.3"></line>
    <line stroke-width="1" x1="224" y1="0" x2="224" y2="1600" stroke="#449FDB" opacity="1"></line>
    <line stroke-width="1" x1="240" y1="0" x2="240" y2="1600" stroke="#449FDB" opacity="0.3"></line>
    <line stroke-width="1" x1="256" y1="0" x2="256" y2="1600" stroke="#449FDB" opacity="1"></line>
    <line stroke-width="1" x1="272" y1="0" x2="272" y2="1600" stroke="#449FDB" opacity="0.3"></line>
    <line stroke-width="1" x1="288" y1="0" x2="288" y2="1600" stroke="#449FDB" opacity="1"></line>
    <line stroke-width="1" x1="304" y1="0" x2="304" y2="1600" stroke="#449FDB" opacity="0.3"></line>
    <line stroke-width="1" x1="320" y1="0" x2="320" y2="1600" stroke="#449FDB" opacity="1"></line>
    <line stroke-width="1" x1="336" y1="0" x2="336" y2="1600" stroke="#449FDB" opacity="0.3"></line>
    <line stroke-width="1" x1="352" y1="0" x2="352" y2="1600" stroke="#449FDB" opacity="1"></line>
    <line stroke-width="1" x1="368" y1="0" x2="368" y2="1600" stroke="#449FDB" opacity="0.3"></line>
    <line stroke-width="1" x1="384" y1="0" x2="384" y2="1600" stroke="#449FDB" opacity="1"></line>
    <line stroke-width="1" x1="400" y1="0" x2="400" y2="1600" stroke="#449FDB" opacity="0.3"></line>
    <line stroke-width="1" x1="416" y1="0" x2="416" y2="1600" stroke="#449FDB" opacity="1"></line>
    <line stroke-width="1" x1="432" y1="0" x2="432" y2="1600" stroke="#449FDB" opacity="0.3"></line>
    <line stroke-width="1" x1="448" y1="0" x2="448" y2="1600" stroke="#449FDB" opacity="1"></line>
    <line stroke-width="1" x1="464" y1="0" x2="464" y2="1600" stroke="#449FDB" opacity="0.3"></line>
    <line stroke-width="1" x1="480" y1="0" x2="480" y2="1600" stroke="#449FDB" opacity="1"></line>
    <line stroke-width="1" x1="496" y1="0" x2="496" y2="1600" stroke="#449FDB" opacity="0.3"></line>
    <line stroke-width="1" x1="512" y1="0" x2="512" y2="1600" stroke="#449FDB" opacity="1"></line>
    <line stroke-width="1" x1="528" y1="0" x2="528" y2="1600" stroke="#449FDB" opacity="0.3"></line>
    <line stroke-width="1" x1="544" y1="0" x2="544" y2="1600" stroke="#449FDB" opacity="1"></line>
    <line stroke-width="1" x1="560" y1="0" x2="560" y2="1600" stroke="#449FDB" opacity="0.3"></line>
    <line stroke-width="1" x1="576" y1="0" x2="576" y2="1600" stroke="#449FDB" opacity="1"></line>
    <line stroke-width="1" x1="592" y1="0" x2="592" y2="1600" stroke="#449FDB" opacity="0.3"></line>
    <line stroke-width="1" x1="608" y1="0" x2="608" y2="1600" stroke="#449FDB" opacity="1"></line>
    <line stroke-width="1" x1="624" y1="0" x2="624" y2="1600" stroke="#449FDB" opacity="0.3"></line>
    <line stroke-width="1" x1="640" y1="0" x2="640" y2="1600" stroke="#449FDB" opacity="1"></line>
    <line stroke-width="1" x1="656" y1="0" x2="656" y2="1600" stroke="#449FDB" opacity="0.3"></line>
    <line stroke-width="1" x1="672" y1="0" x2="672" y2="1600" stroke="#449FDB" opacity="1"></line>
    <line stroke-width="1" x1="688" y1="0" x2="688" y2="1600" stroke="#449FDB" opacity="0.3"></line>
    <line stroke-width="1" x1="704" y1="0" x2="704" y2="1600" stroke="#449FDB" opacity="1"></line>
    <line stroke-width="1" x1="720" y1="0" x2="720" y2="1600" stroke="#449FDB" opacity="0.3"></line>
    <line stroke-width="1" x1="736" y1="0" x2="736" y2="1600" stroke="#449FDB" opacity="1"></line>
    <line stroke-width="1" x1="752" y1="0" x2="752" y2="1600" stroke="#449FDB" opacity="0.3"></line>
    <line stroke-width="1" x1="768" y1="0" x2="768" y2="1600" stroke="#449FDB" opacity="1"></line>
    <line stroke-width="1" x1="784" y1="0" x2="784" y2="1600" stroke="#449FDB" opacity="0.3"></line>
    <line stroke-width="1" x1="800" y1="0" x2="800" y2="1600" stroke="#449FDB" opacity="1"></line>
    <line stroke-width="1" x1="816" y1="0" x2="816" y2="1600" stroke="#449FDB" opacity="0.3"></line>
    <line stroke-width="1" x1="832" y1="0" x2="832" y2="1600" stroke="#449FDB" opacity="1"></line>
    <line stroke-width="1" x1="848" y1="0" x2="848" y2="1600" stroke="#449FDB" opacity="0.3"></line>
    <line stroke-width="1" x1="864" y1="0" x2="864" y2="1600" stroke="#449FDB" opacity="1"></line>
    <line stroke-width="1" x1="880" y1="0" x2="880" y2="1600" stroke="#449FDB" opacity="0.3"></line>
    <line stroke-width="1" x1="896" y1="0" x2="896" y2="1600" stroke="#449FDB" opacity="1"></line>
    <line stroke-width="1" x1="912" y1="0" x2="912" y2="1600" stroke="#449FDB" opacity="0.3"></line>
    <line stroke-width="1" x1="928" y1="0" x2="928" y2="1600" stroke="#449FDB" opacity="1"></line>
    <line stroke-width="1" x1="944" y1="0" x2="944" y2="1600" stroke="#449FDB" opacity="0.3"></line>
    <line stroke-width="1" x1="960" y1="0" x2="960" y2="1600" stroke="#449FDB" opacity="1"></line>
    <line stroke-width="1" x1="976" y1="0" x2="976" y2="1600" stroke="#449FDB" opacity="0.3"></line>
    <line stroke-width="1" x1="992" y1="0" x2="992" y2="1600" stroke="#449FDB" opacity="1"></line>
    <line stroke-width="1" x1="1008" y1="0" x2="1008" y2="1600" stroke="#449FDB" opacity="0.3"></line>
    <line stroke-width="1" x1="1024" y1="0" x2="1024" y2="1600" stroke="#449FDB" opacity="1"></line>
    <line stroke-width="1" x1="1040" y1="0" x2="1040" y2="1600" stroke="#449FDB" opacity="0.3"></line>
    <line stroke-width="1" x1="1056" y1="0" x2="1056" y2="1600" stroke="#449FDB" opacity="1"></line>
    <line stroke-width="1" x1="1072" y1="0" x2="1072" y2="1600" stroke="#449FDB" opacity="0.3"></line>
    <line stroke-width="1" x1="1088" y1="0" x2="1088" y2="1600" stroke="#449FDB" opacity="1"></line>
    <line stroke-width="1" x1="1104" y1="0" x2="1104" y2="1600" stroke="#449FDB" opacity="0.3"></line>
    <line stroke-width="1" x1="1120" y1="0" x2="1120" y2="1600" stroke="#449FDB" opacity="1"></line>
    <line stroke-width="1" x1="1136" y1="0" x2="1136" y2="1600" stroke="#449FDB" opacity="0.3"></line>
    <line stroke-width="1" x1="1152" y1="0" x2="1152" y2="1600" stroke="#449FDB" opacity="1"></line>
    <line stroke-width="1" x1="1168" y1="0" x2="1168" y2="1600" stroke="#449FDB" opacity="0.3"></line>
    <line stroke-width="1" x1="1184" y1="0" x2="1184" y2="1600" stroke="#449FDB" opacity="1"></line>
    <line stroke-width="1" x1="1200" y1="0" x2="1200" y2="1600" stroke="#449FDB" opacity="0.3"></line>
    <line stroke-width="1" x1="1216" y1="0" x2="1216" y2="1600" stroke="#449FDB" opacity="1"></line>
    <line stroke-width="1" x1="1232" y1="0" x2="1232" y2="1600" stroke="#449FDB" opacity="0.3"></line>
    <line stroke-width="1" x1="1248" y1="0" x2="1248" y2="1600" stroke="#449FDB" opacity="1"></line>
    <line stroke-width="1" x1="1264" y1="0" x2="1264" y2="1600" stroke="#449FDB" opacity="0.3"></line>
    <line stroke-width="1" x1="1280" y1="0" x2="1280" y2="1600" stroke="#449FDB" opacity="1"></line>
    <line stroke-width="1" x1="1296" y1="0" x2="1296" y2="1600" stroke="#449FDB" opacity="0.3"></line>
    <line stroke-width="1" x1="1312" y1="0" x2="1312" y2="1600" stroke="#449FDB" opacity="1"></line>
    <line stroke-width="1" x1="1328" y1="0" x2="1328" y2="1600" stroke="#449FDB" opacity="0.3"></line>
    <line stroke-width="1" x1="1344" y1="0" x2="1344" y2="1600" stroke="#449FDB" opacity="1"></line>
    <line stroke-width="1" x1="1360" y1="0" x2="1360" y2="1600" stroke="#449FDB" opacity="0.3"></line>
    <line stroke-width="1" x1="1376" y1="0" x2="1376" y2="1600" stroke="#449FDB" opacity="1"></line>
    <line stroke-width="1" x1="1392" y1="0" x2="1392" y2="1600" stroke="#449FDB" opacity="0.3"></line>
    <line stroke-width="1" x1="1408" y1="0" x2="1408" y2="1600" stroke="#449FDB" opacity="1"></line>
    <line stroke-width="1" x1="1424" y1="0" x2="1424" y2="1600" stroke="#449FDB" opacity="0.3"></line>
    <line stroke-width="1" x1="1440" y1="0" x2="1440" y2="1600" stroke="#449FDB" opacity="1"></line>
    <line stroke-width="1" x1="1456" y1="0" x2="1456" y2="1600" stroke="#449FDB" opacity="0.3"></line>
    <line stroke-width="1" x1="1472" y1="0" x2="1472" y2="1600" stroke="#449FDB" opacity="1"></line>
    <line stroke-width="1" x1="1488" y1="0" x2="1488" y2="1600" stroke="#449FDB" opacity="0.3"></line>
    <line stroke-width="1" x1="1504" y1="0" x2="1504" y2="1600" stroke="#449FDB" opacity="1"></line>
    <line stroke-width="1" x1="1520" y1="0" x2="1520" y2="1600" stroke="#449FDB" opacity="0.3"></line>
    <line stroke-width="1" x1="1536" y1="0" x2="1536" y2="1600" stroke="#449FDB" opacity="1"></line>
    <line stroke-width="1" x1="1552" y1="0" x2="1552" y2="1600" stroke="#449FDB" opacity="0.3"></line>
    <line stroke-width="1" x1="1568" y1="0" x2="1568" y2="1600" stroke="#449FDB" opacity="1"></line>
    <line stroke-width="1" x1="1584" y1="0" x2="1584" y2="1600" stroke="#449FDB" opacity="0.3"></line>
    <line stroke-width="1" x1="0" y1="16" x2="1600" y2="16" stroke="#449FDB" opacity="0.3"></line>
    <line stroke-width="1" x1="0" y1="32" x2="1600" y2="32" stroke="#449FDB" opacity="1"></line>
    <line stroke-width="1" x1="0" y1="48" x2="1600" y2="48" stroke="#449FDB" opacity="0.3"></line>
    <line stroke-width="1" x1="0" y1="64" x2="1600" y2="64" stroke="#449FDB" opacity="1"></line>
    <line stroke-width="1" x1="0" y1="80" x2="1600" y2="80" stroke="#449FDB" opacity="0.3"></line>
    <line stroke-width="1" x1="0" y1="96" x2="1600" y2="96" stroke="#449FDB" opacity="1"></line>
    <line stroke-width="1" x1="0" y1="112" x2="1600" y2="112" stroke="#449FDB" opacity="0.3"></line>
    <line stroke-width="1" x1="0" y1="128" x2="1600" y2="128" stroke="#449FDB" opacity="1"></line>
    <line stroke-width="1" x1="0" y1="144" x2="1600" y2="144" stroke="#449FDB" opacity="0.3"></line>
    <line stroke-width="1" x1="0" y1="160" x2="1600" y2="160" stroke="#449FDB" opacity="1"></line>
    <line stroke-width="1" x1="0" y1="176" x2="1600" y2="176" stroke="#449FDB" opacity="0.3"></line>
    <line stroke-width="1" x1="0" y1="192" x2="1600" y2="192" stroke="#449FDB" opacity="1"></line>
    <line stroke-width="1" x1="0" y1="208" x2="1600" y2="208" stroke="#449FDB" opacity="0.3"></line>
    <line stroke-width="1" x1="0" y1="224" x2="1600" y2="224" stroke="#449FDB" opacity="1"></line>
    <line stroke-width="1" x1="0" y1="240" x2="1600" y2="240" stroke="#449FDB" opacity="0.3"></line>
    <line stroke-width="1" x1="0" y1="256" x2="1600" y2="256" stroke="#449FDB" opacity="1"></line>
    <line stroke-width="1" x1="0" y1="272" x2="1600" y2="272" stroke="#449FDB" opacity="0.3"></line>
    <line stroke-width="1" x1="0" y1="288" x2="1600" y2="288" stroke="#449FDB" opacity="1"></line>
    <line stroke-width="1" x1="0" y1="304" x2="1600" y2="304" stroke="#449FDB" opacity="0.3"></line>
    <line stroke-width="1" x1="0" y1="320" x2="1600" y2="320" stroke="#449FDB" opacity="1"></line>
    <line stroke-width="1" x1="0" y1="336" x2="1600" y2="336" stroke="#449FDB" opacity="0.3"></line>
    <line stroke-width="1" x1="0" y1="352" x2="1600" y2="352" stroke="#449FDB" opacity="1"></line>
    <line stroke-width="1" x1="0" y1="368" x2="1600" y2="368" stroke="#449FDB" opacity="0.3"></line>
    <line stroke-width="1" x1="0" y1="384" x2="1600" y2="384" stroke="#449FDB" opacity="1"></line>
    <line stroke-width="1" x1="0" y1="400" x2="1600" y2="400" stroke="#449FDB" opacity="0.3"></line>
    <line stroke-width="1" x1="0" y1="416" x2="1600" y2="416" stroke="#449FDB" opacity="1"></line>
    <line stroke-width="1" x1="0" y1="432" x2="1600" y2="432" stroke="#449FDB" opacity="0.3"></line>
    <line stroke-width="1" x1="0" y1="448" x2="1600" y2="448" stroke="#449FDB" opacity="1"></line>
    <line stroke-width="1" x1="0" y1="464" x2="1600" y2="464" stroke="#449FDB" opacity="0.3"></line>
    <line stroke-width="1" x1="0" y1="480" x2="1600" y2="480" stroke="#449FDB" opacity="1"></line>
    <line stroke-width="1" x1="0" y1="496" x2="1600" y2="496" stroke="#449FDB" opacity="0.3"></line>
    <line stroke-width="1" x1="0" y1="512" x2="1600" y2="512" stroke="#449FDB" opacity="1"></line>
    <line stroke-width="1" x1="0" y1="528" x2="1600" y2="528" stroke="#449FDB" opacity="0.3"></line>
    <line stroke-width="1" x1="0" y1="544" x2="1600" y2="544" stroke="#449FDB" opacity="1"></line>
    <line stroke-width="1" x1="0" y1="560" x2="1600" y2="560" stroke="#449FDB" opacity="0.3"></line>
    <line stroke-width="1" x1="0" y1="576" x2="1600" y2="576" stroke="#449FDB" opacity="1"></line>
    <line stroke-width="1" x1="0" y1="592" x2="1600" y2="592" stroke="#449FDB" opacity="0.3"></line>
    <line stroke-width="1" x1="0" y1="608" x2="1600" y2="608" stroke="#449FDB" opacity="1"></line>
    <line stroke-width="1" x1="0" y1="624" x2="1600" y2="624" stroke="#449FDB" opacity="0.3"></line>
    <line stroke-width="1" x1="0" y1="640" x2="1600" y2="640" stroke="#449FDB" opacity="1"></line>
    <line stroke-width="1" x1="0" y1="656" x2="1600" y2="656" stroke="#449FDB" opacity="0.3"></line>
    <line stroke-width="1" x1="0" y1="672" x2="1600" y2="672" stroke="#449FDB" opacity="1"></line>
    <line stroke-width="1" x1="0" y1="688" x2="1600" y2="688" stroke="#449FDB" opacity="0.3"></line>
    <line stroke-width="1" x1="0" y1="704" x2="1600" y2="704" stroke="#449FDB" opacity="1"></line>
    <line stroke-width="1" x1="0" y1="720" x2="1600" y2="720" stroke="#449FDB" opacity="0.3"></line>
    <line stroke-width="1" x1="0" y1="736" x2="1600" y2="736" stroke="#449FDB" opacity="1"></line>
    <line stroke-width="1" x1="0" y1="752" x2="1600" y2="752" stroke="#449FDB" opacity="0.3"></line>
    <line stroke-width="1" x1="0" y1="768" x2="1600" y2="768" stroke="#449FDB" opacity="1"></line>
    <line stroke-width="1" x1="0" y1="784" x2="1600" y2="784" stroke="#449FDB" opacity="0.3"></line>
    <line stroke-width="1" x1="0" y1="800" x2="1600" y2="800" stroke="#449FDB" opacity="1"></line>
    <line stroke-width="1" x1="0" y1="816" x2="1600" y2="816" stroke="#449FDB" opacity="0.3"></line>
    <line stroke-width="1" x1="0" y1="832" x2="1600" y2="832" stroke="#449FDB" opacity="1"></line>
    <line stroke-width="1" x1="0" y1="848" x2="1600" y2="848" stroke="#449FDB" opacity="0.3"></line>
    <line stroke-width="1" x1="0" y1="864" x2="1600" y2="864" stroke="#449FDB" opacity="1"></line>
    <line stroke-width="1" x1="0" y1="880" x2="1600" y2="880" stroke="#449FDB" opacity="0.3"></line>
    <line stroke-width="1" x1="0" y1="896" x2="1600" y2="896" stroke="#449FDB" opacity="1"></line>
    <line stroke-width="1" x1="0" y1="912" x2="1600" y2="912" stroke="#449FDB" opacity="0.3"></line>
    <line stroke-width="1" x1="0" y1="928" x2="1600" y2="928" stroke="#449FDB" opacity="1"></line>
    <line stroke-width="1" x1="0" y1="944" x2="1600" y2="944" stroke="#449FDB" opacity="0.3"></line>
    <line stroke-width="1" x1="0" y1="960" x2="1600" y2="960" stroke="#449FDB" opacity="1"></line>
    <line stroke-width="1" x1="0" y1="976" x2="1600" y2="976" stroke="#449FDB" opacity="0.3"></line>
    <line stroke-width="1" x1="0" y1="992" x2="1600" y2="992" stroke="#449FDB" opacity="1"></line>
    <line stroke-width="1" x1="0" y1="1008" x2="1600" y2="1008" stroke="#449FDB" opacity="0.3"></line>
    <line stroke-width="1" x1="0" y1="1024" x2="1600" y2="1024" stroke="#449FDB" opacity="1"></line>
    <line stroke-width="1" x1="0" y1="1040" x2="1600" y2="1040" stroke="#449FDB" opacity="0.3"></line>
    <line stroke-width="1" x1="0" y1="1056" x2="1600" y2="1056" stroke="#449FDB" opacity="1"></line>
    <line stroke-width="1" x1="0" y1="1072" x2="1600" y2="1072" stroke="#449FDB" opacity="0.3"></line>
    <line stroke-width="1" x1="0" y1="1088" x2="1600" y2="1088" stroke="#449FDB" opacity="1"></line>
    <line stroke-width="1" x1="0" y1="1104" x2="1600" y2="1104" stroke="#449FDB" opacity="0.3"></line>
    <line stroke-width="1" x1="0" y1="1120" x2="1600" y2="1120" stroke="#449FDB" opacity="1"></line>
    <line stroke-width="1" x1="0" y1="1136" x2="1600" y2="1136" stroke="#449FDB" opacity="0.3"></line>
    <line stroke-width="1" x1="0" y1="1152" x2="1600" y2="1152" stroke="#449FDB" opacity="1"></line>
    <line stroke-width="1" x1="0" y1="1168" x2="1600" y2="1168" stroke="#449FDB" opacity="0.3"></line>
    <line stroke-width="1" x1="0" y1="1184" x2="1600" y2="1184" stroke="#449FDB" opacity="1"></line>
    <line stroke-width="1" x1="0" y1="1200" x2="1600" y2="1200" stroke="#449FDB" opacity="0.3"></line>
    <line stroke-width="1" x1="0" y1="1216" x2="1600" y2="1216" stroke="#449FDB" opacity="1"></line>
    <line stroke-width="1" x1="0" y1="1232" x2="1600" y2="1232" stroke="#449FDB" opacity="0.3"></line>
    <line stroke-width="1" x1="0" y1="1248" x2="1600" y2="1248" stroke="#449FDB" opacity="1"></line>
    <line stroke-width="1" x1="0" y1="1264" x2="1600" y2="1264" stroke="#449FDB" opacity="0.3"></line>
    <line stroke-width="1" x1="0" y1="1280" x2="1600" y2="1280" stroke="#449FDB" opacity="1"></line>
    <line stroke-width="1" x1="0" y1="1296" x2="1600" y2="1296" stroke="#449FDB" opacity="0.3"></line>
    <line stroke-width="1" x1="0" y1="1312" x2="1600" y2="1312" stroke="#449FDB" opacity="1"></line>
    <line stroke-width="1" x1="0" y1="1328" x2="1600" y2="1328" stroke="#449FDB" opacity="0.3"></line>
    <line stroke-width="1" x1="0" y1="1344" x2="1600" y2="1344" stroke="#449FDB" opacity="1"></line>
    <line stroke-width="1" x1="0" y1="1360" x2="1600" y2="1360" stroke="#449FDB" opacity="0.3"></line>
    <line stroke-width="1" x1="0" y1="1376" x2="1600" y2="1376" stroke="#449FDB" opacity="1"></line>
    <line stroke-width="1" x1="0" y1="1392" x2="1600" y2="1392" stroke="#449FDB" opacity="0.3"></line>
    <line stroke-width="1" x1="0" y1="1408" x2="1600" y2="1408" stroke="#449FDB" opacity="1"></line>
    <line stroke-width="1" x1="0" y1="1424" x2="1600" y2="1424" stroke="#449FDB" opacity="0.3"></line>
    <line stroke-width="1" x1="0" y1="1440" x2="1600" y2="1440" stroke="#449FDB" opacity="1"></line>
    <line stroke-width="1" x1="0" y1="1456" x2="1600" y2="1456" stroke="#449FDB" opacity="0.3"></line>
    <line stroke-width="1" x1="0" y1="1472" x2="1600" y2="1472" stroke="#449FDB" opacity="1"></line>
    <line stroke-width="1" x1="0" y1="1488" x2="1600" y2="1488" stroke="#449FDB" opacity="0.3"></line>
    <line stroke-width="1" x1="0" y1="1504" x2="1600" y2="1504" stroke="#449FDB" opacity="1"></line>
    <line stroke-width="1" x1="0" y1="1520" x2="1600" y2="1520" stroke="#449FDB" opacity="0.3"></line>
    <line stroke-width="1" x1="0" y1="1536" x2="1600" y2="1536" stroke="#449FDB" opacity="1"></line>
    <line stroke-width="1" x1="0" y1="1552" x2="1600" y2="1552" stroke="#449FDB" opacity="0.3"></line>
    <line stroke-width="1" x1="0" y1="1568" x2="1600" y2="1568" stroke="#449FDB" opacity="1"></line>
    <line stroke-width="1" x1="0" y1="1584" x2="1600" y2="1584" stroke="#449FDB" opacity="0.3"></line>
</g>
<path fill="#000" d="M944.466 32.002c-271.85 0-486.522 173.252-486.522 376.542 0 96.289 47.461 184.058 126.758 251.652l11.184 9.322v14.913c-2.35 51.677-16.962 112.662-42.872 167.766 68.978-17.736 137.673-54.342 182.678-89.473l13.048-11.186 14.913 5.591c55.65 17.288 117.013 26.098 180.814 26.098 271.848 0 484.656-171.394 484.656-374.677 0-203.289-212.808-376.542-484.656-376.542zM243.575 229.591c-40.372 0-72.7 32.325-72.7 72.698v1193.008c0 40.375 32.327 72.694 72.7 72.703h641.237c40.372 0 72.7-32.325 72.7-72.703v-652.425c-4.306 0-8.72 0-13.048 0-22.336 0-43.831-1.142-65.241-3.728v525.67h-630.053v-1023.378h156.58c7.606-39.492 21.183-76.78 41.009-111.847h-203.184zM664.856 257.553c17.388 0 33.228 1.581 46.603 5.595 13.642 3.728 23.934 8.497 31.688 13.047l-14.912 41.011c-9.094-5.086-18.859-8.509-29.823-11.186-10.7-2.675-22.050-3.728-33.553-3.728-13.644 0-23.934 1.842-31.688 7.456-7.489 5.616-11.184 14.059-11.184 24.236 0 6.158 1.314 10.361 3.725 14.913 2.675 4.302 6.637 9.564 11.184 13.047 4.822 3.467 8.761 6.377 14.913 9.322 6.419 2.939 14.88 4.778 22.37 7.456 13.105 4.82 23.386 9.828 33.553 14.913 10.431 4.82 19.145 11.675 26.097 18.642 7.225 6.694 13.031 14.859 16.775 24.231 3.748 9.108 5.592 20.434 5.592 33.555 0 25.167-8.175 43.863-26.097 57.787-17.656 13.653-44.052 20.503-78.289 20.503-11.503 0-22.059-0.438-31.688-1.886-9.361-1.314-18.606-3.467-26.097-5.591-7.225-2.15-13.294-3.467-18.639-5.595-5.344-2.414-9.841-5.58-13.048-7.456l14.913-41.006c7.225 3.992 17.519 7.164 29.823 11.184 12.305 3.992 27.348 7.456 44.737 7.456 18.189 0 30.855-3.161 39.144-9.319 8.291-6.163 13.047-14.855 13.048-26.098-0.002-6.694-0.788-13.82-3.725-18.642-2.675-4.82-7.698-9.298-13.048-13.047-5.081-3.992-11.152-6.108-18.639-9.322-7.491-3.467-16.466-7.97-26.097-11.184-9.633-3.467-18.864-7.169-27.961-11.186-8.825-4.302-17.28-8.752-24.234-14.913-6.686-6.158-10.631-13.797-14.913-22.369-4.012-8.567-7.456-19.637-7.456-31.689 0-25.167 8.709-43.592 26.097-57.786 17.388-14.458 40.875-22.369 70.836-22.369zM1237.125 257.553c17.388 0 33.228 1.581 46.603 5.595 13.644 3.728 23.933 8.497 31.688 13.047l-14.913 41.011c-9.094-5.086-20.722-8.509-31.688-11.186-10.7-2.675-20.189-3.728-31.687-3.728-13.644 0-25.795 1.842-33.553 7.456-7.489 5.616-11.184 14.059-11.184 24.236 0 6.158 1.314 10.361 3.725 14.913 2.675 4.302 6.638 9.564 11.184 13.047 4.822 3.467 10.622 6.377 16.775 9.322 6.417 2.939 13.013 4.778 20.505 7.456 13.105 4.82 25.252 9.828 35.417 14.913 10.431 4.82 19.142 11.675 26.097 18.642 7.223 6.694 13.030 14.859 16.775 24.231 3.748 9.108 5.592 20.434 5.592 33.555-0.002 25.167-10.037 43.863-27.961 57.787-17.656 13.653-44.053 20.503-78.289 20.503-11.503 0-22.059-0.438-31.688-1.886-9.361-1.314-16.744-3.467-24.234-5.591-7.225-2.15-13.292-3.467-18.639-5.595-5.35-2.414-9.841-5.58-13.048-7.456l14.912-41.006c7.225 3.992 17.519 7.164 29.823 11.184 12.306 3.992 25.486 7.456 42.87 7.456 18.189 0 32.717-3.161 41.009-9.319 8.292-6.163 11.184-14.855 11.184-26.098 0-6.694-0.788-13.82-3.725-18.642-2.675-4.82-5.834-9.298-11.184-13.047-5.087-3.992-13.012-6.108-20.505-9.322-7.489-3.467-14.605-7.97-24.234-11.184-9.633-3.467-18.864-7.169-27.961-11.186-8.827-4.302-17.28-8.752-24.234-14.913-6.686-6.158-12.497-13.797-16.775-22.369-4.013-8.567-5.592-19.637-5.592-31.689 0-25.167 8.709-43.592 26.097-57.786 17.388-14.458 40.875-22.369 70.836-22.369zM813.981 265.006h46.603c5.883 10.177 13.283 22.556 20.505 37.281 7.225 14.73 14.88 30.272 22.37 46.605 7.489 16.069 15.145 31.598 22.37 48.467 7.489 16.603 14.353 32.408 20.505 46.605 6.153-14.192 11.419-30 18.639-46.605 7.225-16.869 14.88-32.4 22.37-48.467 7.489-16.33 15.144-31.875 22.37-46.605 7.223-14.725 14.62-27.105 20.505-37.281h44.737c2.409 20.35 5.317 40.355 7.456 63.38 2.142 22.761 3.989 46.739 5.592 70.836 1.873 23.83 2.388 48.333 3.725 72.698 1.606 24.103 2.655 47.811 3.728 70.836h-48.466c-1.069-32.4-2.127-66.384-3.725-100.661-1.338-34.275-4.516-66.663-7.456-98.795-2.939 6.158-5.309 13.802-9.322 22.369-4.013 8.572-8.502 17.787-13.048 27.964-4.552 9.905-10.097 19.112-14.912 29.822-4.552 10.706-8.502 21.513-13.048 31.689-4.283 9.905-9.303 19.12-13.048 27.959-3.748 8.572-6.645 16.211-9.322 22.369h-37.283c-2.675-6.158-5.573-13.536-9.322-22.369-3.748-8.839-8.502-18.055-13.048-27.959-4.283-10.177-8.231-20.98-13.048-31.689-4.552-10.711-8.502-21.786-13.048-31.689-4.552-9.909-9.038-17.527-13.048-26.098-4.013-8.833-8.241-16.477-11.184-22.369-2.945 32.133-5.855 64.522-7.456 98.795-1.333 34.275-2.655 68.261-3.725 100.661h-48.466c1.069-23.025 2.388-46.198 3.725-70.836 1.606-24.633 2.122-50.462 3.728-74.561 1.873-24.366 3.448-48.072 5.591-70.836 2.142-22.761 5.048-42.236 7.456-61.514zM564.194 1394.638c34.762 0 63.378 28.612 63.378 63.38 0 34.763-28.612 63.38-63.378 63.38s-63.378-28.616-63.378-63.38c0-34.766 28.614-63.38 63.378-63.38z"></path>
</svg>
