<!-- Generated by IcoMoon.io -->
<svg version="1.1" xmlns="http://www.w3.org/2000/svg" width="1600" height="1600" viewBox="0 0 1600 1600">
<title></title>
<g id="icomoon-ignore">
    <line stroke-width="1" x1="16" y1="0" x2="16" y2="1600" stroke="#449FDB" opacity="0.3"></line>
    <line stroke-width="1" x1="32" y1="0" x2="32" y2="1600" stroke="#449FDB" opacity="1"></line>
    <line stroke-width="1" x1="48" y1="0" x2="48" y2="1600" stroke="#449FDB" opacity="0.3"></line>
    <line stroke-width="1" x1="64" y1="0" x2="64" y2="1600" stroke="#449FDB" opacity="1"></line>
    <line stroke-width="1" x1="80" y1="0" x2="80" y2="1600" stroke="#449FDB" opacity="0.3"></line>
    <line stroke-width="1" x1="96" y1="0" x2="96" y2="1600" stroke="#449FDB" opacity="1"></line>
    <line stroke-width="1" x1="112" y1="0" x2="112" y2="1600" stroke="#449FDB" opacity="0.3"></line>
    <line stroke-width="1" x1="128" y1="0" x2="128" y2="1600" stroke="#449FDB" opacity="1"></line>
    <line stroke-width="1" x1="144" y1="0" x2="144" y2="1600" stroke="#449FDB" opacity="0.3"></line>
    <line stroke-width="1" x1="160" y1="0" x2="160" y2="1600" stroke="#449FDB" opacity="1"></line>
    <line stroke-width="1" x1="176" y1="0" x2="176" y2="1600" stroke="#449FDB" opacity="0.3"></line>
    <line stroke-width="1" x1="192" y1="0" x2="192" y2="1600" stroke="#449FDB" opacity="1"></line>
    <line stroke-width="1" x1="208" y1="0" x2="208" y2="1600" stroke="#449FDB" opacity="0.3"></line>
    <line stroke-width="1" x1="224" y1="0" x2="224" y2="1600" stroke="#449FDB" opacity="1"></line>
    <line stroke-width="1" x1="240" y1="0" x2="240" y2="1600" stroke="#449FDB" opacity="0.3"></line>
    <line stroke-width="1" x1="256" y1="0" x2="256" y2="1600" stroke="#449FDB" opacity="1"></line>
    <line stroke-width="1" x1="272" y1="0" x2="272" y2="1600" stroke="#449FDB" opacity="0.3"></line>
    <line stroke-width="1" x1="288" y1="0" x2="288" y2="1600" stroke="#449FDB" opacity="1"></line>
    <line stroke-width="1" x1="304" y1="0" x2="304" y2="1600" stroke="#449FDB" opacity="0.3"></line>
    <line stroke-width="1" x1="320" y1="0" x2="320" y2="1600" stroke="#449FDB" opacity="1"></line>
    <line stroke-width="1" x1="336" y1="0" x2="336" y2="1600" stroke="#449FDB" opacity="0.3"></line>
    <line stroke-width="1" x1="352" y1="0" x2="352" y2="1600" stroke="#449FDB" opacity="1"></line>
    <line stroke-width="1" x1="368" y1="0" x2="368" y2="1600" stroke="#449FDB" opacity="0.3"></line>
    <line stroke-width="1" x1="384" y1="0" x2="384" y2="1600" stroke="#449FDB" opacity="1"></line>
    <line stroke-width="1" x1="400" y1="0" x2="400" y2="1600" stroke="#449FDB" opacity="0.3"></line>
    <line stroke-width="1" x1="416" y1="0" x2="416" y2="1600" stroke="#449FDB" opacity="1"></line>
    <line stroke-width="1" x1="432" y1="0" x2="432" y2="1600" stroke="#449FDB" opacity="0.3"></line>
    <line stroke-width="1" x1="448" y1="0" x2="448" y2="1600" stroke="#449FDB" opacity="1"></line>
    <line stroke-width="1" x1="464" y1="0" x2="464" y2="1600" stroke="#449FDB" opacity="0.3"></line>
    <line stroke-width="1" x1="480" y1="0" x2="480" y2="1600" stroke="#449FDB" opacity="1"></line>
    <line stroke-width="1" x1="496" y1="0" x2="496" y2="1600" stroke="#449FDB" opacity="0.3"></line>
    <line stroke-width="1" x1="512" y1="0" x2="512" y2="1600" stroke="#449FDB" opacity="1"></line>
    <line stroke-width="1" x1="528" y1="0" x2="528" y2="1600" stroke="#449FDB" opacity="0.3"></line>
    <line stroke-width="1" x1="544" y1="0" x2="544" y2="1600" stroke="#449FDB" opacity="1"></line>
    <line stroke-width="1" x1="560" y1="0" x2="560" y2="1600" stroke="#449FDB" opacity="0.3"></line>
    <line stroke-width="1" x1="576" y1="0" x2="576" y2="1600" stroke="#449FDB" opacity="1"></line>
    <line stroke-width="1" x1="592" y1="0" x2="592" y2="1600" stroke="#449FDB" opacity="0.3"></line>
    <line stroke-width="1" x1="608" y1="0" x2="608" y2="1600" stroke="#449FDB" opacity="1"></line>
    <line stroke-width="1" x1="624" y1="0" x2="624" y2="1600" stroke="#449FDB" opacity="0.3"></line>
    <line stroke-width="1" x1="640" y1="0" x2="640" y2="1600" stroke="#449FDB" opacity="1"></line>
    <line stroke-width="1" x1="656" y1="0" x2="656" y2="1600" stroke="#449FDB" opacity="0.3"></line>
    <line stroke-width="1" x1="672" y1="0" x2="672" y2="1600" stroke="#449FDB" opacity="1"></line>
    <line stroke-width="1" x1="688" y1="0" x2="688" y2="1600" stroke="#449FDB" opacity="0.3"></line>
    <line stroke-width="1" x1="704" y1="0" x2="704" y2="1600" stroke="#449FDB" opacity="1"></line>
    <line stroke-width="1" x1="720" y1="0" x2="720" y2="1600" stroke="#449FDB" opacity="0.3"></line>
    <line stroke-width="1" x1="736" y1="0" x2="736" y2="1600" stroke="#449FDB" opacity="1"></line>
    <line stroke-width="1" x1="752" y1="0" x2="752" y2="1600" stroke="#449FDB" opacity="0.3"></line>
    <line stroke-width="1" x1="768" y1="0" x2="768" y2="1600" stroke="#449FDB" opacity="1"></line>
    <line stroke-width="1" x1="784" y1="0" x2="784" y2="1600" stroke="#449FDB" opacity="0.3"></line>
    <line stroke-width="1" x1="800" y1="0" x2="800" y2="1600" stroke="#449FDB" opacity="1"></line>
    <line stroke-width="1" x1="816" y1="0" x2="816" y2="1600" stroke="#449FDB" opacity="0.3"></line>
    <line stroke-width="1" x1="832" y1="0" x2="832" y2="1600" stroke="#449FDB" opacity="1"></line>
    <line stroke-width="1" x1="848" y1="0" x2="848" y2="1600" stroke="#449FDB" opacity="0.3"></line>
    <line stroke-width="1" x1="864" y1="0" x2="864" y2="1600" stroke="#449FDB" opacity="1"></line>
    <line stroke-width="1" x1="880" y1="0" x2="880" y2="1600" stroke="#449FDB" opacity="0.3"></line>
    <line stroke-width="1" x1="896" y1="0" x2="896" y2="1600" stroke="#449FDB" opacity="1"></line>
    <line stroke-width="1" x1="912" y1="0" x2="912" y2="1600" stroke="#449FDB" opacity="0.3"></line>
    <line stroke-width="1" x1="928" y1="0" x2="928" y2="1600" stroke="#449FDB" opacity="1"></line>
    <line stroke-width="1" x1="944" y1="0" x2="944" y2="1600" stroke="#449FDB" opacity="0.3"></line>
    <line stroke-width="1" x1="960" y1="0" x2="960" y2="1600" stroke="#449FDB" opacity="1"></line>
    <line stroke-width="1" x1="976" y1="0" x2="976" y2="1600" stroke="#449FDB" opacity="0.3"></line>
    <line stroke-width="1" x1="992" y1="0" x2="992" y2="1600" stroke="#449FDB" opacity="1"></line>
    <line stroke-width="1" x1="1008" y1="0" x2="1008" y2="1600" stroke="#449FDB" opacity="0.3"></line>
    <line stroke-width="1" x1="1024" y1="0" x2="1024" y2="1600" stroke="#449FDB" opacity="1"></line>
    <line stroke-width="1" x1="1040" y1="0" x2="1040" y2="1600" stroke="#449FDB" opacity="0.3"></line>
    <line stroke-width="1" x1="1056" y1="0" x2="1056" y2="1600" stroke="#449FDB" opacity="1"></line>
    <line stroke-width="1" x1="1072" y1="0" x2="1072" y2="1600" stroke="#449FDB" opacity="0.3"></line>
    <line stroke-width="1" x1="1088" y1="0" x2="1088" y2="1600" stroke="#449FDB" opacity="1"></line>
    <line stroke-width="1" x1="1104" y1="0" x2="1104" y2="1600" stroke="#449FDB" opacity="0.3"></line>
    <line stroke-width="1" x1="1120" y1="0" x2="1120" y2="1600" stroke="#449FDB" opacity="1"></line>
    <line stroke-width="1" x1="1136" y1="0" x2="1136" y2="1600" stroke="#449FDB" opacity="0.3"></line>
    <line stroke-width="1" x1="1152" y1="0" x2="1152" y2="1600" stroke="#449FDB" opacity="1"></line>
    <line stroke-width="1" x1="1168" y1="0" x2="1168" y2="1600" stroke="#449FDB" opacity="0.3"></line>
    <line stroke-width="1" x1="1184" y1="0" x2="1184" y2="1600" stroke="#449FDB" opacity="1"></line>
    <line stroke-width="1" x1="1200" y1="0" x2="1200" y2="1600" stroke="#449FDB" opacity="0.3"></line>
    <line stroke-width="1" x1="1216" y1="0" x2="1216" y2="1600" stroke="#449FDB" opacity="1"></line>
    <line stroke-width="1" x1="1232" y1="0" x2="1232" y2="1600" stroke="#449FDB" opacity="0.3"></line>
    <line stroke-width="1" x1="1248" y1="0" x2="1248" y2="1600" stroke="#449FDB" opacity="1"></line>
    <line stroke-width="1" x1="1264" y1="0" x2="1264" y2="1600" stroke="#449FDB" opacity="0.3"></line>
    <line stroke-width="1" x1="1280" y1="0" x2="1280" y2="1600" stroke="#449FDB" opacity="1"></line>
    <line stroke-width="1" x1="1296" y1="0" x2="1296" y2="1600" stroke="#449FDB" opacity="0.3"></line>
    <line stroke-width="1" x1="1312" y1="0" x2="1312" y2="1600" stroke="#449FDB" opacity="1"></line>
    <line stroke-width="1" x1="1328" y1="0" x2="1328" y2="1600" stroke="#449FDB" opacity="0.3"></line>
    <line stroke-width="1" x1="1344" y1="0" x2="1344" y2="1600" stroke="#449FDB" opacity="1"></line>
    <line stroke-width="1" x1="1360" y1="0" x2="1360" y2="1600" stroke="#449FDB" opacity="0.3"></line>
    <line stroke-width="1" x1="1376" y1="0" x2="1376" y2="1600" stroke="#449FDB" opacity="1"></line>
    <line stroke-width="1" x1="1392" y1="0" x2="1392" y2="1600" stroke="#449FDB" opacity="0.3"></line>
    <line stroke-width="1" x1="1408" y1="0" x2="1408" y2="1600" stroke="#449FDB" opacity="1"></line>
    <line stroke-width="1" x1="1424" y1="0" x2="1424" y2="1600" stroke="#449FDB" opacity="0.3"></line>
    <line stroke-width="1" x1="1440" y1="0" x2="1440" y2="1600" stroke="#449FDB" opacity="1"></line>
    <line stroke-width="1" x1="1456" y1="0" x2="1456" y2="1600" stroke="#449FDB" opacity="0.3"></line>
    <line stroke-width="1" x1="1472" y1="0" x2="1472" y2="1600" stroke="#449FDB" opacity="1"></line>
    <line stroke-width="1" x1="1488" y1="0" x2="1488" y2="1600" stroke="#449FDB" opacity="0.3"></line>
    <line stroke-width="1" x1="1504" y1="0" x2="1504" y2="1600" stroke="#449FDB" opacity="1"></line>
    <line stroke-width="1" x1="1520" y1="0" x2="1520" y2="1600" stroke="#449FDB" opacity="0.3"></line>
    <line stroke-width="1" x1="1536" y1="0" x2="1536" y2="1600" stroke="#449FDB" opacity="1"></line>
    <line stroke-width="1" x1="1552" y1="0" x2="1552" y2="1600" stroke="#449FDB" opacity="0.3"></line>
    <line stroke-width="1" x1="1568" y1="0" x2="1568" y2="1600" stroke="#449FDB" opacity="1"></line>
    <line stroke-width="1" x1="1584" y1="0" x2="1584" y2="1600" stroke="#449FDB" opacity="0.3"></line>
    <line stroke-width="1" x1="0" y1="16" x2="1600" y2="16" stroke="#449FDB" opacity="0.3"></line>
    <line stroke-width="1" x1="0" y1="32" x2="1600" y2="32" stroke="#449FDB" opacity="1"></line>
    <line stroke-width="1" x1="0" y1="48" x2="1600" y2="48" stroke="#449FDB" opacity="0.3"></line>
    <line stroke-width="1" x1="0" y1="64" x2="1600" y2="64" stroke="#449FDB" opacity="1"></line>
    <line stroke-width="1" x1="0" y1="80" x2="1600" y2="80" stroke="#449FDB" opacity="0.3"></line>
    <line stroke-width="1" x1="0" y1="96" x2="1600" y2="96" stroke="#449FDB" opacity="1"></line>
    <line stroke-width="1" x1="0" y1="112" x2="1600" y2="112" stroke="#449FDB" opacity="0.3"></line>
    <line stroke-width="1" x1="0" y1="128" x2="1600" y2="128" stroke="#449FDB" opacity="1"></line>
    <line stroke-width="1" x1="0" y1="144" x2="1600" y2="144" stroke="#449FDB" opacity="0.3"></line>
    <line stroke-width="1" x1="0" y1="160" x2="1600" y2="160" stroke="#449FDB" opacity="1"></line>
    <line stroke-width="1" x1="0" y1="176" x2="1600" y2="176" stroke="#449FDB" opacity="0.3"></line>
    <line stroke-width="1" x1="0" y1="192" x2="1600" y2="192" stroke="#449FDB" opacity="1"></line>
    <line stroke-width="1" x1="0" y1="208" x2="1600" y2="208" stroke="#449FDB" opacity="0.3"></line>
    <line stroke-width="1" x1="0" y1="224" x2="1600" y2="224" stroke="#449FDB" opacity="1"></line>
    <line stroke-width="1" x1="0" y1="240" x2="1600" y2="240" stroke="#449FDB" opacity="0.3"></line>
    <line stroke-width="1" x1="0" y1="256" x2="1600" y2="256" stroke="#449FDB" opacity="1"></line>
    <line stroke-width="1" x1="0" y1="272" x2="1600" y2="272" stroke="#449FDB" opacity="0.3"></line>
    <line stroke-width="1" x1="0" y1="288" x2="1600" y2="288" stroke="#449FDB" opacity="1"></line>
    <line stroke-width="1" x1="0" y1="304" x2="1600" y2="304" stroke="#449FDB" opacity="0.3"></line>
    <line stroke-width="1" x1="0" y1="320" x2="1600" y2="320" stroke="#449FDB" opacity="1"></line>
    <line stroke-width="1" x1="0" y1="336" x2="1600" y2="336" stroke="#449FDB" opacity="0.3"></line>
    <line stroke-width="1" x1="0" y1="352" x2="1600" y2="352" stroke="#449FDB" opacity="1"></line>
    <line stroke-width="1" x1="0" y1="368" x2="1600" y2="368" stroke="#449FDB" opacity="0.3"></line>
    <line stroke-width="1" x1="0" y1="384" x2="1600" y2="384" stroke="#449FDB" opacity="1"></line>
    <line stroke-width="1" x1="0" y1="400" x2="1600" y2="400" stroke="#449FDB" opacity="0.3"></line>
    <line stroke-width="1" x1="0" y1="416" x2="1600" y2="416" stroke="#449FDB" opacity="1"></line>
    <line stroke-width="1" x1="0" y1="432" x2="1600" y2="432" stroke="#449FDB" opacity="0.3"></line>
    <line stroke-width="1" x1="0" y1="448" x2="1600" y2="448" stroke="#449FDB" opacity="1"></line>
    <line stroke-width="1" x1="0" y1="464" x2="1600" y2="464" stroke="#449FDB" opacity="0.3"></line>
    <line stroke-width="1" x1="0" y1="480" x2="1600" y2="480" stroke="#449FDB" opacity="1"></line>
    <line stroke-width="1" x1="0" y1="496" x2="1600" y2="496" stroke="#449FDB" opacity="0.3"></line>
    <line stroke-width="1" x1="0" y1="512" x2="1600" y2="512" stroke="#449FDB" opacity="1"></line>
    <line stroke-width="1" x1="0" y1="528" x2="1600" y2="528" stroke="#449FDB" opacity="0.3"></line>
    <line stroke-width="1" x1="0" y1="544" x2="1600" y2="544" stroke="#449FDB" opacity="1"></line>
    <line stroke-width="1" x1="0" y1="560" x2="1600" y2="560" stroke="#449FDB" opacity="0.3"></line>
    <line stroke-width="1" x1="0" y1="576" x2="1600" y2="576" stroke="#449FDB" opacity="1"></line>
    <line stroke-width="1" x1="0" y1="592" x2="1600" y2="592" stroke="#449FDB" opacity="0.3"></line>
    <line stroke-width="1" x1="0" y1="608" x2="1600" y2="608" stroke="#449FDB" opacity="1"></line>
    <line stroke-width="1" x1="0" y1="624" x2="1600" y2="624" stroke="#449FDB" opacity="0.3"></line>
    <line stroke-width="1" x1="0" y1="640" x2="1600" y2="640" stroke="#449FDB" opacity="1"></line>
    <line stroke-width="1" x1="0" y1="656" x2="1600" y2="656" stroke="#449FDB" opacity="0.3"></line>
    <line stroke-width="1" x1="0" y1="672" x2="1600" y2="672" stroke="#449FDB" opacity="1"></line>
    <line stroke-width="1" x1="0" y1="688" x2="1600" y2="688" stroke="#449FDB" opacity="0.3"></line>
    <line stroke-width="1" x1="0" y1="704" x2="1600" y2="704" stroke="#449FDB" opacity="1"></line>
    <line stroke-width="1" x1="0" y1="720" x2="1600" y2="720" stroke="#449FDB" opacity="0.3"></line>
    <line stroke-width="1" x1="0" y1="736" x2="1600" y2="736" stroke="#449FDB" opacity="1"></line>
    <line stroke-width="1" x1="0" y1="752" x2="1600" y2="752" stroke="#449FDB" opacity="0.3"></line>
    <line stroke-width="1" x1="0" y1="768" x2="1600" y2="768" stroke="#449FDB" opacity="1"></line>
    <line stroke-width="1" x1="0" y1="784" x2="1600" y2="784" stroke="#449FDB" opacity="0.3"></line>
    <line stroke-width="1" x1="0" y1="800" x2="1600" y2="800" stroke="#449FDB" opacity="1"></line>
    <line stroke-width="1" x1="0" y1="816" x2="1600" y2="816" stroke="#449FDB" opacity="0.3"></line>
    <line stroke-width="1" x1="0" y1="832" x2="1600" y2="832" stroke="#449FDB" opacity="1"></line>
    <line stroke-width="1" x1="0" y1="848" x2="1600" y2="848" stroke="#449FDB" opacity="0.3"></line>
    <line stroke-width="1" x1="0" y1="864" x2="1600" y2="864" stroke="#449FDB" opacity="1"></line>
    <line stroke-width="1" x1="0" y1="880" x2="1600" y2="880" stroke="#449FDB" opacity="0.3"></line>
    <line stroke-width="1" x1="0" y1="896" x2="1600" y2="896" stroke="#449FDB" opacity="1"></line>
    <line stroke-width="1" x1="0" y1="912" x2="1600" y2="912" stroke="#449FDB" opacity="0.3"></line>
    <line stroke-width="1" x1="0" y1="928" x2="1600" y2="928" stroke="#449FDB" opacity="1"></line>
    <line stroke-width="1" x1="0" y1="944" x2="1600" y2="944" stroke="#449FDB" opacity="0.3"></line>
    <line stroke-width="1" x1="0" y1="960" x2="1600" y2="960" stroke="#449FDB" opacity="1"></line>
    <line stroke-width="1" x1="0" y1="976" x2="1600" y2="976" stroke="#449FDB" opacity="0.3"></line>
    <line stroke-width="1" x1="0" y1="992" x2="1600" y2="992" stroke="#449FDB" opacity="1"></line>
    <line stroke-width="1" x1="0" y1="1008" x2="1600" y2="1008" stroke="#449FDB" opacity="0.3"></line>
    <line stroke-width="1" x1="0" y1="1024" x2="1600" y2="1024" stroke="#449FDB" opacity="1"></line>
    <line stroke-width="1" x1="0" y1="1040" x2="1600" y2="1040" stroke="#449FDB" opacity="0.3"></line>
    <line stroke-width="1" x1="0" y1="1056" x2="1600" y2="1056" stroke="#449FDB" opacity="1"></line>
    <line stroke-width="1" x1="0" y1="1072" x2="1600" y2="1072" stroke="#449FDB" opacity="0.3"></line>
    <line stroke-width="1" x1="0" y1="1088" x2="1600" y2="1088" stroke="#449FDB" opacity="1"></line>
    <line stroke-width="1" x1="0" y1="1104" x2="1600" y2="1104" stroke="#449FDB" opacity="0.3"></line>
    <line stroke-width="1" x1="0" y1="1120" x2="1600" y2="1120" stroke="#449FDB" opacity="1"></line>
    <line stroke-width="1" x1="0" y1="1136" x2="1600" y2="1136" stroke="#449FDB" opacity="0.3"></line>
    <line stroke-width="1" x1="0" y1="1152" x2="1600" y2="1152" stroke="#449FDB" opacity="1"></line>
    <line stroke-width="1" x1="0" y1="1168" x2="1600" y2="1168" stroke="#449FDB" opacity="0.3"></line>
    <line stroke-width="1" x1="0" y1="1184" x2="1600" y2="1184" stroke="#449FDB" opacity="1"></line>
    <line stroke-width="1" x1="0" y1="1200" x2="1600" y2="1200" stroke="#449FDB" opacity="0.3"></line>
    <line stroke-width="1" x1="0" y1="1216" x2="1600" y2="1216" stroke="#449FDB" opacity="1"></line>
    <line stroke-width="1" x1="0" y1="1232" x2="1600" y2="1232" stroke="#449FDB" opacity="0.3"></line>
    <line stroke-width="1" x1="0" y1="1248" x2="1600" y2="1248" stroke="#449FDB" opacity="1"></line>
    <line stroke-width="1" x1="0" y1="1264" x2="1600" y2="1264" stroke="#449FDB" opacity="0.3"></line>
    <line stroke-width="1" x1="0" y1="1280" x2="1600" y2="1280" stroke="#449FDB" opacity="1"></line>
    <line stroke-width="1" x1="0" y1="1296" x2="1600" y2="1296" stroke="#449FDB" opacity="0.3"></line>
    <line stroke-width="1" x1="0" y1="1312" x2="1600" y2="1312" stroke="#449FDB" opacity="1"></line>
    <line stroke-width="1" x1="0" y1="1328" x2="1600" y2="1328" stroke="#449FDB" opacity="0.3"></line>
    <line stroke-width="1" x1="0" y1="1344" x2="1600" y2="1344" stroke="#449FDB" opacity="1"></line>
    <line stroke-width="1" x1="0" y1="1360" x2="1600" y2="1360" stroke="#449FDB" opacity="0.3"></line>
    <line stroke-width="1" x1="0" y1="1376" x2="1600" y2="1376" stroke="#449FDB" opacity="1"></line>
    <line stroke-width="1" x1="0" y1="1392" x2="1600" y2="1392" stroke="#449FDB" opacity="0.3"></line>
    <line stroke-width="1" x1="0" y1="1408" x2="1600" y2="1408" stroke="#449FDB" opacity="1"></line>
    <line stroke-width="1" x1="0" y1="1424" x2="1600" y2="1424" stroke="#449FDB" opacity="0.3"></line>
    <line stroke-width="1" x1="0" y1="1440" x2="1600" y2="1440" stroke="#449FDB" opacity="1"></line>
    <line stroke-width="1" x1="0" y1="1456" x2="1600" y2="1456" stroke="#449FDB" opacity="0.3"></line>
    <line stroke-width="1" x1="0" y1="1472" x2="1600" y2="1472" stroke="#449FDB" opacity="1"></line>
    <line stroke-width="1" x1="0" y1="1488" x2="1600" y2="1488" stroke="#449FDB" opacity="0.3"></line>
    <line stroke-width="1" x1="0" y1="1504" x2="1600" y2="1504" stroke="#449FDB" opacity="1"></line>
    <line stroke-width="1" x1="0" y1="1520" x2="1600" y2="1520" stroke="#449FDB" opacity="0.3"></line>
    <line stroke-width="1" x1="0" y1="1536" x2="1600" y2="1536" stroke="#449FDB" opacity="1"></line>
    <line stroke-width="1" x1="0" y1="1552" x2="1600" y2="1552" stroke="#449FDB" opacity="0.3"></line>
    <line stroke-width="1" x1="0" y1="1568" x2="1600" y2="1568" stroke="#449FDB" opacity="1"></line>
    <line stroke-width="1" x1="0" y1="1584" x2="1600" y2="1584" stroke="#449FDB" opacity="0.3"></line>
</g>
<path fill="#000" d="M431.919 1568c-46.361 0-83.689-37.325-83.689-83.686v-1368.625c0-46.361 37.328-83.689 83.689-83.689h736.164c46.358 0 83.689 37.328 83.689 83.689v1368.625c0 46.358-37.328 83.686-83.689 83.686h-736.164zM799.975 1513.753c39.92 0 72.314-32.345 72.314-72.263s-32.394-72.263-72.314-72.263c-39.92 0-72.263 32.345-72.263 72.263s32.345 72.263 72.263 72.263zM438.608 1333.094h722.786v-1174.583h-722.786v1174.583zM701.064 1154.48c-12.038-0.009-23.597-0.133-34.525-0.369-21.853-0.472-41.212-1.469-56.945-2.777s-26.842-2.372-36.806-5.558l-0.134-0.025c-9.461-1.984-16.567-10.375-16.567-20.427 0-11.525 9.342-20.872 20.872-20.872 3.014 0 5.878 0.639 8.331 1.737 2.184 0.698 13.303 2.272 27.781 3.473s33.625 2.319 54.863 2.777c42.48 0.917 95.167 0.047 147.919-2.777s105.817-7.352 147.228-14.586c20.706-3.616 37.433-8.002 50.694-12.502 12.863-4.367 21.466-9.698 22.917-11.111 1.758-1.98 7.198-11.658 11.111-25s7.514-30.756 10.416-50.694c5.805-39.878 8.758-89.494 9.722-138.197s0.011-96.306-3.473-132.641c-1.742-18.167-4.455-33.978-6.941-44.447-1.244-5.234-3.881-8.98-4.861-11.111-0.555-0.181-0.764-0.514-1.388-0.694-4.13-1.12-9.861-2.194-17.362-3.473-15.003-2.559-35.647-4.72-59.725-6.941-48.158-4.447-110.722-8.512-172.92-9.031s-123.619 2.142-171.533 8.334c-23.958 3.095-44.8 7.034-59.030 11.805s-20.403 10.891-20.139 10.419l-0.016 0.006c-0.22 0.231-0.447 0.458-0.688 0.688-5.805 10.359-12.261 38.063-15.277 72.225s-3.523 75.409-2.080 117.364c2.886 83.912 14.183 171.808 25.694 209.034l-0.055-0.134c1.152 2.587 1.791 5.453 1.791 8.469 0 11.525-9.342 20.872-20.872 20.872-10.052 0-18.444-7.109-20.448-16.708-14.434-46.666-24.808-133.717-27.781-220.144-1.486-43.212-1.158-86.262 2.080-122.922s8.43-66.748 20.833-88.891c9.327-16.72 25.283-22.98 43.753-29.167 11.887-3.986 25.908-7.038 40.97-9.722-0.778-2.638-1.255-5.406-1.387-8.334 0 0-3.341-54.598 18.056-112.5s75.772-123.141 173.616-127.088h0.7c112.983 0 178.784 56.288 206.255 111.811s22.917 109.723 22.917 109.723l-0.003 0.086c-0.516 9.986-5.242 18.856-12.495 24.914 12.795 1.52 24.839 3.178 34.722 4.861 8.35 1.425 15.377 2.5 21.53 4.167s10.747 3.566 17.362 8.334c14.584 10.536 15.52 21.134 18.75 34.722s5.786 29.962 7.638 49.308c3.711 38.691 4.462 88.156 3.473 138.197s-4.237 100.602-10.416 143.061c-3.091 21.23-6.361 40.055-11.111 56.252s-10.455 30.055-20.139 40.973c-10.417 11.716-23.83 16.639-40.28 22.223s-35.587 10.039-57.639 13.892c-44.106 7.702-98.245 13.087-152.086 15.972-40.383 2.167-80.764 3.175-116.872 3.147zM749.102 1011.573l6.945-110.448c-23.917-13.752-39.364-40.222-39.364-72.416 0-45.834 41.084-81.033 82.169-81.033s81.334 34.087 81.334 79.894c0 33.862-19.498 58.806-45.442 71.75l12.722 108.781-98.364 3.473zM958.211 615.205c-5.617-6.177-9.041-14.381-9.041-23.388 0-0.323 0.005-0.644 0.013-0.919 0 0 2.362-38.634-15.972-75.698-18.203-36.792-51.119-72.395-141.669-72.917-0.658 0.023-1.428-0.023-2.080 0l-0.006-0.003c-69.397 3.456-93.65 40.33-109.030 81.945-15.525 42.011-13.889 84.723-13.889 84.723v-0.083c0.033 0.603 0.045 1.208 0.045 1.82s-0.016 1.219-0.042 1.738c41.883-3.375 88.608-5.25 135.42-4.861 55.686 0.462 109.967 3.862 156.253 7.641zM709.647 122.38h180.709v-54.197h-180.709v54.197z"></path>
</svg>
