<svg xmlns:rdf="http://www.w3.org/1999/02/22-rdf-syntax-ns#" xmlns="http://www.w3.org/2000/svg" height="50" width="50" version="1.1" xmlns:cc="http://creativecommons.org/ns#" xmlns:dc="http://purl.org/dc/elements/1.1/" viewBox="0 0 50 50">
 <g transform="translate(0 -1002.4)">
  <g transform="matrix(1.5494 0 0 1.5624 10.008 1002.4)">
   <path id="path29176" fill="#544431" d="m2.314 0.64h14.723c0.927 0 1.674 0.746 1.674 1.674v27.373c0 0.927-0.746 1.674-1.674 1.674h-14.723c-0.927 0-1.674-0.746-1.674-1.674v-27.373c0-0.927 0.746-1.674 1.674-1.674z"/>
   <path id="path29178" fill="#fff" d="m2.447 3.17h14.456v23.492h-14.456z"/>
   <path id="path29180" fill="#544431" d="m9.668 7.743c-1.591 0.064-2.476 1.114-2.824 2.056s-0.294 1.841-0.294 1.841c0.003 0.046 0.011 0.088 0.024 0.128-0.247 0.04-0.484 0.089-0.679 0.154-0.3 0.101-0.549 0.214-0.7 0.486-0.202 0.36-0.286 0.849-0.339 1.446s-0.058 1.296-0.034 1.999c0.048 1.406 0.206 2.821 0.44 3.58 0.045 0.141 0.174 0.241 0.328 0.241 0.189 0 0.343-0.154 0.343-0.343 0-0.036-0.006-0.071-0.016-0.104-0.187-0.603-0.37-2.032-0.417-3.397-0.023-0.682-0.015-1.353 0.034-1.909s0.154-1.006 0.248-1.175c-0.004 0.008 0.107-0.103 0.339-0.181s0.559-0.142 0.949-0.192c0.779-0.101 1.789-0.133 2.801-0.124 1.012 0.01 2.029 0.052 2.812 0.124 0.392 0.036 0.727 0.083 0.971 0.124 0.122 0.021 0.215 0.038 0.282 0.056 0.014 0 0.022 0.01 0.034 0.011 0.017 0.031 0.048 0.096 0.068 0.181 0.04 0.17 0.073 0.427 0.102 0.723 0.057 0.591 0.083 1.365 0.068 2.157s-0.075 1.599-0.169 2.248c-0.047 0.324-0.106 0.607-0.169 0.824s-0.141 0.363-0.169 0.395c-0.017 0.019-0.146 0.119-0.361 0.192s-0.51 0.133-0.847 0.192c-0.673 0.118-1.536 0.203-2.394 0.248s-1.715 0.06-2.406 0.045c-0.345-0.007-0.646-0.026-0.881-0.045s-0.416-0.045-0.452-0.056c-0.032-0.011-0.069-0.017-0.107-0.017-0.187 0-0.339 0.152-0.339 0.339 0 0.149 0.096 0.276 0.23 0.321 0.164 0.052 0.356 0.07 0.612 0.091s0.571 0.038 0.926 0.045c0.711 0.015 1.586 0 2.462-0.045 0.876-0.047 1.745-0.123 2.462-0.248 0.359-0.063 0.681-0.135 0.949-0.226s0.486-0.193 0.655-0.384c0.158-0.178 0.239-0.392 0.316-0.655s0.142-0.57 0.192-0.915c0.1-0.691 0.153-1.524 0.169-2.338s-0.01-1.607-0.068-2.236c-0.03-0.315-0.072-0.592-0.124-0.813s-0.056-0.393-0.294-0.565c-0.108-0.078-0.182-0.097-0.282-0.124s-0.214-0.045-0.35-0.068c-0.158-0.027-0.347-0.056-0.553-0.079 0.114-0.1 0.187-0.244 0.192-0.406 0 0 0.063-0.882-0.384-1.785s-1.494-1.818-3.332-1.818h-0.023z"/>
   <path id="path29182" fill="#544431" d="m10.418 16.308 0.207 1.769-1.6 0.056 0.113-1.796c-0.389-0.224-0.64-0.654-0.64-1.178 0-0.745 0.668-1.318 1.336-1.318s1.323 0.554 1.323 1.299c0 0.551-0.317 0.956-0.739 1.167z"/>
   <g fill="#fff">
    <path id="path29184" d="m9.69 8.873h0.023c1.477 0.007 1.996 0.587 2.293 1.186 0.298 0.603 0.271 1.22 0.271 1.22-0.001 0.011-0.001 0.024-0.001 0.038 0 0.141 0.052 0.27 0.137 0.37-0.752-0.061-1.625-0.106-2.53-0.114-0.757-0.01-1.51 0.01-2.191 0.056-0.004-0.019-0.008-0.034-0.012-0.049 0.001 0.004-0.037-0.702 0.216-1.385 0.251-0.678 0.662-1.267 1.796-1.321z"/>
    <path id="path29186" d="m7.868 1.363h3.614v1.084h-3.614z"/>
    <path id="path29188" d="m11.121 28.83c0 0.798-0.647 1.446-1.446 1.446s-1.446-0.647-1.446-1.446c0-0.798 0.647-1.446 1.446-1.446s1.446 0.647 1.446 1.446z"/>
   </g>
  </g>
 </g>
</svg>
