<svg xmlns="http://www.w3.org/2000/svg" fill-rule="evenodd" stroke-linejoin="round" stroke-miterlimit="1.414" clip-rule="evenodd" viewBox="0 0 24 24"><path d="M3.63 3.896l1.616-1.75A.434.434 0 0 1 5.565 2c.12 0 .234.052.322.148L9.54 6.104a.596.596 0 0 1-.004.794l-1.399 1.47a1.044 1.044 0 0 0-.011 1.425l5.853 6.337a.989.989 0 0 0 .714.314.966.966 0 0 0 .71-.325l1.356-1.515a.425.425 0 0 1 .312-.15.426.426 0 0 1 .315.146l3.652 3.955a.617.617 0 0 1 .002.812l-1.616 1.75c-.793.859-2.308 1.141-3.313.616l-.046-.021c-.034-.013-3.477-1.429-7.667-6.014-3.755-4.113-5.285-8.059-5.316-8.137-.525-1.096-.274-2.774.548-3.665m4.03 12.477c4.221 4.618 7.66 6.114 8.01 6.258a3.541 3.541 0 0 0 1.615.372c1.063 0 2.152-.426 2.873-1.208l1.616-1.749a1.607 1.607 0 0 0-.001-2.17l-3.653-3.955a1.52 1.52 0 0 0-1.056-.467 1.412 1.412 0 0 0-1.05.483l-1.301 1.515-5.852-6.395 1.399-1.469a1.585 1.585 0 0 0 .015-2.163L6.622 1.469A1.43 1.43 0 0 0 5.566 1h-.001c-.401 0-.775.166-1.054.467l-1.615 1.75c-1.091 1.181-1.412 3.324-.732 4.738.063.168 1.604 4.155 5.496 8.418"/><path fill="none" d="M0 0h24v24H0z"/></svg>