<?xml version="1.0" encoding="UTF-8" standalone="no"?>
<!-- Created with Inkscape (http://www.inkscape.org/) -->
<svg id="svg29224" xmlns:rdf="http://www.w3.org/1999/02/22-rdf-syntax-ns#" xmlns="http://www.w3.org/2000/svg" height="50" width="50" version="1.1" xmlns:cc="http://creativecommons.org/ns#" xmlns:dc="http://purl.org/dc/elements/1.1/" viewBox="0 0 50 50">
 <metadata id="metadata29229">
  <rdf:RDF>
   <cc:Work rdf:about="">
    <dc:format>image/svg+xml</dc:format>
    <dc:type rdf:resource="http://purl.org/dc/dcmitype/StillImage"/>
    <dc:title/>
   </cc:Work>
  </rdf:RDF>
 </metadata>
 <g id="layer1" transform="translate(0 -1002.4)">
  <path id="path30254" d="m25 1051.4c-13.263 0-24-10.74-24-24s10.737-24 24-24 24 10.74 24 24c0 13.2-10.737 24-24 24zm0-46.1c-12.189 0-22.106 9.92-22.106 22.1 0 12.2 9.9165 22.11 22.106 22.11 12.189 0 22.106-9.91 22.106-22.11 0-12.18-9.9165-22.1-22.106-22.1zm-10.737 16.41v-3.84h22.232v3.84h-22.232zm0 7.71v-3.85h22.232v3.85h-22.232zm0 7.78v-3.86h22.232v3.86h-22.232z"/>
 </g>
</svg>
