<svg xmlns="http://www.w3.org/2000/svg" height="50" width="50"><path d="M23.381 1c-8.094 0-15.697.15-15.697.15h-.016c-.52 0-.943.43-.943.94 0 .52.423.95.943.95h.016s12.854-.22 22.815 0c.248 13.63 5.468 25.47 5.468 25.47.13.32.436.54.799.57h.106c.52 0 .943-.42.943-.95 0-.15-.038-.3-.106-.42 0 0-5.372-12.07-5.372-25.62a.95.95 0 00-.943-.95c-2.544 0-5.315-.16-8.014-.16zM4.1 2.93c-.414.16-.715.47-.715.92 0 0 0 .15.016.15.089 1.11.191 2.5.329 3.86-.06-.15-.247-.22-.465-.28-.119-.84-.253-1.66-.385-2.31a.945.945 0 00-.938-.84c-.52 0-.943.41-.943.94 0 .15.016.2.045.28.427 2.15.792 6 1.13 10.29-.056 3.88-.192 8.48-.237 13.02-.04 4.03-.017 7.92.284 11.17.3 3.27.691 5.8 1.933 7.32.038 0 .212.2.418.28 1.62.62 4.02.92 6.89 1.09 2.87.16 6.189.16 9.286.16 6.197-.16 11.692-.47 11.692-.47.484 0 .863-.46.863-.95a.81.81 0 00-.063-.34l-1.13-3c1.867-.16 3.253-.18 3.253-.18.463 0 .816-.45.816-.93 0-.16-.024-.24-.065-.35l-1.082-2.98c2.773-.16 5.044-.43 6.836-.94 4.072-1.17 5.98-3.6 7.072-6.88.038-.16.06-.22.06-.33a.95.95 0 00-.943-.95H25.652c-.28 0-.535.16-.706.33-1.961 2.16-3.686 3.45-5.186 4.15-1.5.71-2.713.88-3.819.57-2.208-.6-4.16-3.12-5.703-6.74-3.088-7.26-4.435-18.55-4.95-25a.944.944 0 00-.945-.91h-.236zm-.046 7.92c.755 6.09 2.076 13.26 4.384 18.69 1.642 3.85 3.838 6.96 6.977 7.82 1.57.44 3.275.25 5.09-.6 1.705-.81 3.594-2.3 5.516-4.34h20.412c-.937 2.09-2.12 3.58-5.091 4.43-3.598 1.03-9.695 1.24-19.8.46h-.267a.95.95 0 00-.943.95c0 .51.422.93.943.93h.13c4.676.37 8.47.56 11.64.52l.895 2.37c-.988 0-4.872.4-10.37.57-3.077.16-6.322.16-9.146 0-2.667 0-4.831-.31-6.129-.62-.688-.76-1.54-2.85-2.121-5.8-.598-3.03-1.011-6.83-1.367-10.76-.294-3.25-.513-6.46-.755-9.53.028-1.85.04-3.62 0-5.1zm16.121 0c-4.572 0-10.089.38-10.089.38-.522 1.82.562 9.68 2.357 12.07 1.796 2.4 15.9 2.7 16.923 1 1.029-1.71-1.552-11.95-3.347-12.97-.674-.4-3.103-.49-5.846-.48zm-3.772 1.94c.43 0 .788.3.894.7 0 0 .492 1.82.945 3.88.452 2.05.957 4.24.802 5.74a.952.952 0 01-.943.92h-.147c-.458 0-.809-.46-.809-.94 0 0 0-.16.016-.16.082-.79-.267-3.22-.707-5.22-.23-1.06-.296-1.25-.471-1.94l-1.084 1.18a.966.966 0 01-1.674-.66c0-.25.098-.49.26-.66l2.262-2.49a.903.903 0 01.656-.33zm5.47 0h1.13c1.486.16 3.007 1.19 3.3 3.12.302 1.95-.616 3.72-1.65 5.03-.263.35-.447.38-.706.67.479 0 .98.3 1.32.15.545-.26.847-.66.847-.66a.966.966 0 011.639.7.99.99 0 01-.133.49s-.546.71-1.506 1.17c-.48.23-1.106.42-1.79.42-.67 0-1.426-.23-2.17-.66-.079 0-.212.25-.283.28-.527.32-1.296.18-1.65-.19-.354-.34-.513-.75-.377-1.31.068-.28.295-.62.567-.81.272-.17.512-.28.802-.28.161 0 .357.16.519.19.455-.38.83-.63 1.367-1.31.87-1.13 1.544-2.44 1.367-3.59-.18-1.16-.837-1.54-1.65-1.6-.814 0-1.712.38-2.027.9a.961.961 0 01-.826.47.947.947 0 01-.823-1.42c.594-.98 1.631-1.57 2.733-1.74zM3.818 33.4c.16 1.11.324 2.19.519 3.17.621 3.14 1.305 5.64 2.686 7.03.02 0 .182.16.37.22 1.623.45 4.102.65 6.983.71 2.881 0 6.14 0 9.24-.15 2.53-.16 4.717-.19 6.693-.29-.038.16-.06.22-.06.33 0 .16.022.24.062.35l.706 1.82c-.995 0-4.795.29-10.277.38-3.07 0-6.35 0-9.146-.16-2.639-.16-4.816-.49-6.034-.88-.598-.86-1.182-3.07-1.462-6.1-.177-1.92-.253-4.17-.283-6.51z"/></svg>