<svg xmlns="http://www.w3.org/2000/svg" width="50" height="50" viewBox="0 0 1024 1024"><path d="M512 27.676C244.515 27.676 27.676 244.516 27.676 512S244.516 996.324 512 996.324c267.485 0 484.324-216.84 484.324-484.324S779.484 27.676 512 27.676zm0 42.115c244.225 0 442.209 197.984 442.209 442.209S756.225 954.209 512 954.209 69.791 756.225 69.791 512 267.775 69.791 512 69.791zM333.011 304.056l-30.27 28.954L481.73 511.999 302.741 690.988l30.27 28.954L512 542.269l178.989 177.673 28.954-28.954-178.989-178.989L719.943 333.01l-28.954-28.954L512 481.729 333.011 304.056z"/></svg>