<svg xmlns="http://www.w3.org/2000/svg" width="1024" height="1024"><path d="M835.334 838.762l24.078 109.383q2.065 8.255-2.065 15.479-4.128 7.226-11.695 9.977l-3.44.692q-2.751 1.384-7.223 2.408t-11.007 3.097q-6.535 2.076-14.791 3.783-8.255 1.716-17.543 3.44-9.287 1.716-20.638 3.44-11.351 1.716-23.046 3.097-11.695 1.384-25.11 2.076t-26.486.692q-160.979 0-281.37-89.778-120.39-89.775-163.731-241.811h-65.355q-8.943 0-15.479-6.537-6.535-6.556-6.535-15.501v-77.737q0-8.945 6.535-15.479 6.535-6.537 15.479-6.537h45.405q-1.375-39.213.689-72.235h-46.093q-9.631 0-15.823-6.191t-6.193-15.822v-78.426q0-9.631 6.191-15.825 6.191-6.191 15.823-6.191h67.419q46.093-144.469 167.515-232.526t275.522-88.057q70.17 0 133.461 15.822 7.567 2.076 13.759 10.32 4.128 7.566 2.065 16.511L816.07 179.709q-2.065 8.945-9.631 13.414-7.567 4.472-16.511 1.716l-2.751-.692q-2.751-.692-7.911-1.716l-12.039-2.408-15.479-2.408-17.886-2.076-19.951-1.716-20.294-.692q-86.681 0-155.476 44.028T434.949 348.237h321.959q11.007 0 17.199 8.255 6.879 8.255 4.815 17.886l-16.511 78.426q-3.44 17.886-22.014 17.886H404.679q-2.065 25.456 0 72.235h315.767q10.319 0 17.198 8.255 6.192 8.255 4.128 18.576l-16.511 77.05q-1.375 7.566-7.567 12.725-6.191 5.161-13.759 5.161H437.7q33.021 80.487 102.848 127.613t157.196 47.125q12.383 0 24.766-1.024t23.046-2.408 20.294-3.097q9.631-1.716 16.855-3.44 7.223-1.716 12.727-3.094l8.255-2.076 3.44-1.384q8.943-3.44 17.886 1.384 8.255 4.815 10.319 14.446z"/></svg>