<svg xmlns="http://www.w3.org/2000/svg" width="1024" height="1024"><path d="M96.678 599.984L281.59 434.166c3.67-3.444 8.622-5.559 14.07-5.559s10.399 2.116 14.08 5.57l-.012-.011 166.823 161.798 372.839-356.76c3.67-3.444 8.622-5.559 14.07-5.559s10.399 2.116 14.08 5.57l-.012-.011 36.179 35.174 49.243-152.753h-1.006c.077-.871.026-1.52 0-3.013-.051-2.987-.391-6.606-1.006-8.04-.612-1.433-.001-1.006 0-1.004.001 0-3.031-.347-12.059 3.013-1.151.43-2.506.781-3.907.989l-.113.013c-17.53 2.695-64.405 16.694-103.511 30.149-23.263 8.005-29.737 10.14-43.211 15.074l26.129 27.133a20.493 20.493 0 015.56 14.071 20.53 20.53 0 01-6.554 15.062l-.013.012-327.616 304.503c-3.67 3.444-8.622 5.559-14.07 5.559s-10.399-2.116-14.08-5.57l.012.011-163.808-154.763L71.552 573.855l25.124 26.129zm-5.025 49.243c-4.385-.856-8.17-3.002-11.047-6.021l-.008-.009L26.33 586.92a20.496 20.496 0 01-5.561-14.071 20.53 20.53 0 016.552-15.061l.013-.012 263.298-236.165a20.462 20.462 0 0112.995-4.621c5.48 0 10.46 2.142 14.148 5.633l163.799 153.75 298.472-277.368-33.164-34.168a20.49 20.49 0 01-5.374-13.869c0-8.793 5.514-16.298 13.272-19.246l.141-.047s33.638-13.466 73.362-27.133c38.295-13.176 79.77-26.511 106.526-31.154.232-.026.774.026 1.006 0 .759-.128 2.282-.89 3.015-1.004v1.004c12.915-4.162 25.198-5.796 36.179-2.009 12.197 4.205 20.34 14.28 24.119 23.114s3.903 16.698 4.02 23.114c.051 3.209.206 5.721 0 8.04s.232 2.724-1.006 7.035a19.406 19.406 0 01-.001 1.03l.001-.026-59.292 183.907c-2.549 8.677-10.44 14.904-19.785 14.904-5.6 0-10.677-2.236-14.388-5.864l.004.004-45.222-44.215-371.834 357.765c-3.726 3.735-8.879 6.046-14.571 6.046s-10.845-2.31-14.571-6.046L295.66 477.384 109.743 644.207a20.497 20.497 0 01-13.947 5.446c-1.466 0-2.896-.153-4.275-.445l.134.024zM408.214 913.53h176.874V671.335l-86.426 85.421c-3.726 3.735-8.879 6.046-14.572 6.046s-10.845-2.31-14.571-6.046l-61.303-60.297V913.53zm-23.113 41.203c-10.249-1.282-18.1-9.941-18.1-20.434 0-.236.004-.471.012-.705l-.001.034V647.215c.734-10.77 9.647-19.228 20.539-19.228a20.503 20.503 0 0113.651 5.178l-.021-.018 82.406 80.397 107.53-106.526a20.528 20.528 0 0114.597-6.072c11.368 0 20.583 9.216 20.583 20.583 0 .198-.003.395-.009.592l.001-.029v311.536c.004.156.007.341.007.526 0 11.2-8.945 20.311-20.081 20.577H387.11a20.656 20.656 0 01-2.059-.002l.049.002zm305.506-41.203h177.877V411.052L690.607 560.79v352.74zm-22.109 41.203c-10.713-.796-19.103-9.683-19.103-20.53 0-.202.003-.402.009-.603l-.001.029V550.74a20.554 20.554 0 017.992-16.044l.047-.035 218.076-184.912a20.487 20.487 0 0113.595-5.128c11.368 0 20.583 9.216 20.583 20.583 0 .219-.004.438-.011.655l.001-.032v567.801c.004.157.007.342.007.527 0 11.368-9.216 20.583-20.583 20.583-.185 0-.371-.003-.554-.008l.027.001H670.507a20.656 20.656 0 01-2.059-.002l.049.002zM115.772 913.53h177.877V598.979L115.772 750.727V913.53zm-22.109 41.203c-10.713-.796-19.103-9.683-19.103-20.53 0-.202.003-.402.009-.603l-.001.029V740.677a20.554 20.554 0 017.992-16.044l.047-.035L300.683 538.68a20.49 20.49 0 0113.589-5.123c11.232 0 20.363 8.997 20.579 20.177v379.894c.004.156.007.341.007.526 0 11.2-8.945 20.311-20.081 20.577H95.672a20.656 20.656 0 01-2.059-.002l.049.002z"/></svg>