<svg xmlns="http://www.w3.org/2000/svg" width="1024" height="1024"><path d="M512.01 90.283c236.48 0 424.875 190.214 424.875 421.717S748.489 933.717 512.01 933.717C275.53 933.717 87.135 743.503 87.135 512S275.531 90.283 512.01 90.283zm0-62.767C247.898 27.516 30.485 242.912 30.485 512S247.899 996.484 512.01 996.484c264.112 0 481.525-215.396 481.525-484.484S776.121 27.516 512.01 27.516zm4.77 113.156c15.99 0 31.979 10.66 31.979 31.979v346.442c0 10.659-5.33 15.99-10.659 21.32L351.554 726.959c-5.33 5.33-15.99 10.66-21.32 10.66s-15.99-5.33-21.32-10.66c-10.659-10.659-10.659-31.979 0-42.639l181.215-181.215V172.652c0-21.319 10.659-31.979 26.649-31.979z"/></svg>