<svg xmlns="http://www.w3.org/2000/svg" width="1104" height="1024"><path d="M222.709 753.076c-20.549 2.064-36.458 19.269-36.458 40.189 0 22.301 18.079 40.38 40.38 40.38 1.449 0 2.88-.076 4.29-.225l642.694.015c.171.003.374.004.576.004 22.193 0 40.183-17.991 40.183-40.183s-17.991-40.183-40.183-40.183c-.203 0-.405.002-.607.004H230.745a40.557 40.557 0 00-8.208.015zm48.215-642.87h562.511v482.152H270.924V110.206zm-80.359-80.358v401.794H29.847v562.511h1044.664V431.642H913.793V29.848H190.565zM110.206 512h80.359v160.718h723.228V512h80.359v401.794H110.206V512z"/></svg>