<svg xmlns="http://www.w3.org/2000/svg" width="1024" height="1024"><path d="M967.78 839.089C860.222 747.664 790.309 683.13 752.664 645.485c-5.379-5.379-10.756-5.379-10.756-10.756-10.756-10.756-16.133-26.889-16.133-37.645v-5.379c0-5.379 0-10.756 5.379-16.133l5.379-10.756c21.512-48.401 37.645-102.179 37.645-161.336 0-204.36-161.336-371.075-371.075-371.075-204.36-5.379-371.075 161.336-371.075 365.698s161.336 371.075 371.075 371.075c59.157 0 112.936-16.133 166.715-37.645h5.379c5.379-5.379 16.133-5.379 21.512-5.379h5.379c16.133 0 26.889 5.379 37.645 16.133l10.756 10.756c32.268 32.268 107.558 107.558 198.983 215.116 32.268 32.268 86.046 32.268 118.314-5.379s32.268-96.803 0-123.693zM596.706 591.707c-32.268 32.268-64.536 53.778-102.179 64.536-32.268 10.756-59.157 16.133-91.425 16.133-155.959 0-279.65-123.693-274.273-274.273 0-150.582 123.693-274.273 274.273-274.273 75.29 0 145.203 32.268 193.604 80.669 53.778 53.778 80.669 123.693 80.669 193.604 0 32.268-5.379 64.536-16.133 96.803-10.756 37.645-32.268 69.912-64.536 96.803z"/></svg>