<svg xmlns="http://www.w3.org/2000/svg" width="986" height="1024"><path d="M140.406 34.056c-3.341.114-6.306.48-9.237.709-11.722.923-21.316 3.553-21.316 3.553l-4.974 1.421-3.553 2.842S72.719 66.894 55.142 84.502c-26.362 26.362-20.605 63.237-20.605 63.237l.709 7.816 4.974 5.684s268.871 295.818 292.027 320.448c10.805 11.473 24.187 18.146 36.947 19.895s23.888-1.469 32.684-5.684c14.559-6.975 19.885-15.07 22.737-18.474l.709.709s3.898-3.991 4.263-4.263c.159-.114 1.201-.55 1.421-.709-.439 1.619-.691 3.477-.691 5.395a21.319 21.319 0 005.678 14.515L192.271 810.663l-2.13 2.13-.709 2.13s-5.867 13.383-10.658 30.553-9.028 38.934-4.974 61.816l42.632-7.816c-2.085-11.764.373-29.398 4.263-43.342s7.816-23.447 7.816-23.447l236.606-306.948 81 92.369c-97.27 130.7-202.969 273.08-229.5 306.237-20.263 25.359-35.885 25.062-50.447 22.026s-26.29-11.368-26.29-11.368l-26.29 31.974s17.106 15.846 43.342 21.316 63.691-1.06 92.369-36.947c28.835-36.036 130.829-174.083 225.237-301.264l171.237 193.974c.855-2.147-.071-.151-.673 1.98-5.011 21.738 2.83 40.225 9.911 53.44s15.632 22.026 15.632 22.026l7.105 4.974 91.658 42.632 29.132-14.211s.88-4.388.709-8.526c-.159-4.138-.398-9.734-2.13-16.342-3.467-13.216-11.019-32.691-27-60.395-18.119-31.422-44.547-44.199-65.369-47.605-11.4-1.864-13.685-.496-20.605.709L600.829 615.264c53.829-72.597 117.207-157.875 120.79-162.711 21.226 3.286 98.679 12.82 177.632-66.079 93.263-93.327 34.816-216 34.816-216l-15.632-31.263-19.895 27-108 138.553h-81.711l-29.132-73.184 99.474-137.842 18.474-26.29-30.553-7.105s-106.442-23.585-183.316 53.29c-41.208 41.225-44.253 99.342-38.368 144.948 4.983 38.624 14.34 60.07 17.763 68.921L461.566 459.66c-2.795-1.434-6.099-2.275-9.599-2.275-.874 0-1.736.052-2.582.154 5.387-4.629 10.225-8.721 17.865-16.352 8.938-8.948 13.85-20.49 14.921-31.263s-1.41-19.87-4.974-27c-6.155-12.314-13.309-18.006-15.632-19.895 0 0-2.791-2.785-2.842-2.842-2.577-2.883-66.464-75.059-135-151.342-34.946-38.896-70.659-78.54-98.053-108.711-13.697-15.085-25.377-27.514-34.105-36.947-4.364-4.717-7.851-8.427-10.658-11.368s-3.786-4.334-7.105-7.105c-11.571-9.638-23.372-11.002-33.395-10.658zm-5.684 43.343c5.751-.452 11.637.941 12.789.709-.205.023.159.764 2.13 2.842a1087.52 1087.52 0 0110.658 11.368c8.56 9.251 20.457 21.915 34.105 36.947 27.297 30.065 62.422 69.133 97.342 108C361.586 315 429.588 391.45 429.588 391.45l1.421 1.421 1.421.709s4.342 4.42 6.395 8.526c1.025 2.053 1.492 3.561 1.421 4.263-.068.703-.268 1.687-3.553 4.974-23.668 23.64-36.237 31.974-36.237 31.974l-4.261 4.261s-5.898 6.646-12.789 9.947c-3.446 1.651-5.987 2.481-8.526 2.13-2.539-.348-5.859-1.255-11.368-7.105C345.133 433 90.11 151.883 78.59 139.207c.63-6.176 2.021-19.075 7.105-24.158 13.766-13.79 35.608-32.623 39.79-36.237 2.591-.53 4.25-1.028 9.237-1.421zm586.895 23.447l-82.421 115.105-7.105 9.237 4.263 10.658 38.368 98.053 4.974 13.5h131.448l6.395-8.526 88.105-111.553c8.361 33.324 11.728 79.897-36.947 128.606-76.933 76.88-152.763 56.132-152.763 56.132l-14.211-3.553-7.816 11.368-121.5 163.421-81-92.369L603.67 345.267l7.105-9.947-4.974-11.368s-12.691-31.744-17.763-71.053-.828-82.294 26.29-109.421c38.047-38.047 77.623-43.075 107.29-42.632zm-445.5 735.396c-20.577 0-37.658 17.053-37.658 37.658s17.081 36.947 37.658 36.947c20.605 0 36.947-16.342 36.947-36.947s-16.342-37.658-36.947-37.658zm516.553 27.711c1.178-.282 2.974-.443 5.684 0 10.272 1.68 22.354 5.389 34.816 27 5.511 9.553 5.242 12.243 8.526 19.184l-40.5-19.184c-1.362-1.669-4.693-4.924-8.526-12.079-2.758-5.147-2.637-9.473-3.553-14.211 1.464-.205 2.376-.43 3.553-.709z"/></svg>