<svg xmlns="http://www.w3.org/2000/svg" width="37" height="36.665"><path d="M21.732 1c-.384 0-.757.098-1.101.24-.69.282-1.272.795-1.58 1.532l-4.98 11.922h-1.197L15.555 4.16c.196-.766.908-1.22 1.58-1.005l.814.24a.78.78 0 00.48-1.485l-.815-.24c-1.587-.505-3.152.624-3.543 2.155L11.294 14.74H9.618l.862-7.086c.096-.796.74-1.361 1.437-1.245l.574.095c.401.063.8-.269.862-.67a.764.764 0 00-.622-.862l-.575-.095c-1.642-.276-3.02 1.076-3.208 2.634l-.24 1.82H4.496C2.59 9.331 1 10.92 1 12.825V32.17c0 1.906 1.59 3.495 3.495 3.495h28.058A3.457 3.457 0 0036 32.218V18.093c0-1.744-1.331-3.177-3.016-3.4l2.154-5.17a2.882 2.882 0 00-1.532-3.783l-10.725-4.5a2.942 2.942 0 00-1.15-.24zm0 1.532c.176-.001.348.022.527.095L25.37 3.92c-.974 2.038-3.35 2.942-5.459 2.059a8.099 8.099 0 01-.43-.192l1.005-2.394a1.37 1.37 0 011.245-.862zm5.027 2.011l1.915.766c-1.157 2.915.256 6.252 3.16 7.47.096.04.192.06.288.094l-.766 1.772H28.77c-.464-1.638-1.617-3.076-3.304-3.782-.734-.308-1.498-.483-2.25-.48-2.254.016-4.391 1.388-5.314 3.592-.099.234-.17.48-.24.718H15.7l3.208-7.517c.141.075.286.178.43.24 2.85 1.193 6.104-.114 7.422-2.874zm3.352 1.389l2.873 1.197a1.392 1.392 0 01.766 1.82l-1.054 2.489c-.096-.03-.19-.055-.287-.095-2.126-.891-3.107-3.273-2.298-5.41zM4.495 10.863h4.07l-.479 3.878h-3.59c-1.079 0-1.964-.837-1.964-1.915a1.97 1.97 0 011.963-1.963zm18.721 1.054a4.37 4.37 0 011.676.335c1.111.466 1.894 1.35 2.298 2.394l-7.9.047c.019-.047.028-.095.048-.144.683-1.63 2.224-2.625 3.878-2.633zM2.532 15.46c.576.426 1.196.814 1.963.814l28.058-.095c1.074 0 1.915.84 1.915 1.915v3.016h-7.852c-1.616 0-2.921 1.353-2.921 2.969v2.537a2.917 2.917 0 002.92 2.921h7.853v2.681a1.895 1.895 0 01-1.915 1.916H4.495a1.972 1.972 0 01-1.963-1.964V15.46zm24.084 7.182h7.852v5.362h-7.852a1.356 1.356 0 01-1.389-1.388v-2.538c0-.794.595-1.436 1.389-1.436z"/></svg>