<svg xmlns="http://www.w3.org/2000/svg" fill-rule="evenodd" stroke-linejoin="round" stroke-miterlimit="1.414" clip-rule="evenodd" viewBox="0 0 24 24"><path d="M4 18h1.5a.5.5 0 000-1H4v-3h1.5a.5.5 0 000-1H4v-3h1.5a.5.5 0 000-1H4V6h1.5a.5.5 0 000-1H4V2.5a.5.5 0 01.5-.5h15a.5.5 0 01.5.5v19a.5.5 0 01-.5.5h-15a.5.5 0 01-.5-.5V18zm-1.5-1a.5.5 0 000 1H3v3.5c0 .827.673 1.5 1.5 1.5h15c.827 0 1.5-.673 1.5-1.5v-19c0-.827-.673-1.5-1.5-1.5h-15C3.673 1 3 1.673 3 2.5V5h-.5a.5.5 0 000 1H3v3h-.5a.5.5 0 000 1H3v3h-.5a.5.5 0 000 1H3v3h-.5z"/><path d="M9.5 6h7a.5.5 0 000-1h-7a.5.5 0 000 1m0 2h6a.5.5 0 000-1h-6a.5.5 0 000 1m0 2h7a.5.5 0 000-1h-7a.5.5 0 000 1"/><path fill="none" d="M0 0h24v24H0z"/></svg>