<svg xmlns="http://www.w3.org/2000/svg" viewPort="0 0 1024 1024"><path d="M921.6 101.44H102.4C45.92 101.6.16 147.456 0 204.096v615.84C.16 876.544 45.92 922.4 102.4 922.56h819.2c56.48-.16 102.24-46.016 102.4-102.624v-615.84c-.16-56.608-45.92-102.464-102.4-102.656zm-819.2 82.112h819.2c11.264.128 20.352 9.248 20.48 20.512V512H81.92V204.064c.128-11.296 9.216-20.384 20.48-20.512zm819.2 656.896H102.4c-11.264-.128-20.352-9.248-20.48-20.544V511.968h860.16v307.936c-.128 11.264-9.216 20.384-20.48 20.544z"/><path d="M689.568 299.168c-26.368-11.456-57.088-18.112-89.344-18.112h-.384.032c-100 0-184.416 64.576-216.224 153.952h-39.104-.032c-14.144 0-25.6 11.488-25.6 25.664 0 14.176 11.456 25.664 25.6 25.664h27.584c-1.024 8.576-2.56 16.928-2.56 25.664 0 8.768 1.536 17.12 2.56 25.664h-27.584-.032c-14.144 0-25.6 11.488-25.6 25.664 0 14.176 11.456 25.664 25.6 25.664H383.616c31.808 89.44 116.224 153.952 216.256 153.952 28.672 0 56.672-5.152 83.296-15.552 9.664-3.84 16.352-13.12 16.352-23.968 0-3.328-.64-6.496-1.76-9.408l.064.16c-3.744-9.664-12.992-16.416-23.776-16.416-3.36 0-6.592.64-9.536 1.856l.16-.064c-19.072 7.584-41.184 12-64.32 12-70.976 0-132.32-41.44-161.248-101.504l-.48-1.088h110.112c14.144 0 25.6-11.488 25.6-25.664 0-14.176-11.456-25.664-25.6-25.664H423.2c-1.28-8.48-2.56-16.896-2.56-25.664 0-8.736 1.28-17.152 2.56-25.664h176.672c14.144 0 25.6-11.488 25.6-25.664 0-14.176-11.456-25.664-25.6-25.664H438.56c29.312-61.024 90.464-102.432 161.248-102.624h.032c24.128 0 47.616 4.768 69.696 14.144 2.944 1.28 6.368 2.016 9.984 2.016 14.144 0 25.632-11.488 25.632-25.696 0-10.56-6.368-19.648-15.488-23.584l-.16-.064z"/></svg>
