<svg xmlns="http://www.w3.org/2000/svg" viewBox="0 0 24 24"><path d="M14.981 11.731A4.804 4.804 0 0016.8 7.969c0-2.633-2.167-4.8-4.8-4.8-2.634 0-4.8 2.167-4.8 4.8 0 1.465.67 2.852 1.818 3.762A8.823 8.823 0 003.2 20c0 .439.361.8.8.8.439 0 .8-.361.8-.8a7.23 7.23 0 016.059-7.1l-.019.029.661 2.13L10 20.822h4l-1.5-5.764.663-2.131-.023-.027A7.23 7.23 0 0119.2 20c0 .439.361.8.8.8.439 0 .8-.361.8-.8a8.825 8.825 0 00-5.819-8.269zM8.8 8c0-1.755 1.445-3.2 3.2-3.2 1.755 0 3.2 1.445 3.2 3.2 0 1.755-1.445 3.2-3.2 3.2A3.216 3.216 0 018.8 8z"/><path fill="none" d="M0 0h24v24H0z"/></svg>