<svg xmlns="http://www.w3.org/2000/svg" viewBox="0 0 24 24">
<path class="cls-2" d="M18.96,4h-4a1,1,0,0,0-1-1h-4a1,1,0,0,0-1,1h-4a1,1,0,0,0,0,2h14a1,1,0,0,0,0-2Z"/><path class="cls-2" d="M4.96,12v7a3.009,3.009,0,0,0,3,3h8a3.009,3.009,0,0,0,3-3V7h-14Zm1.6,0V8.6h10.8V19a1.4,1.4,0,0,1-1.4,1.4h-8A1.4,1.4,0,0,1,6.56,19Z"/><path class="cls-2" d="M8.96,18.651A.65.65,0,0,0,9.61,18V11a.651.651,0,0,0-1.3,0v7A.65.65,0,0,0,8.96,18.651Z"/><path class="cls-2" d="M11.96,18.651A.65.65,0,0,0,12.61,18V11a.651.651,0,0,0-1.3,0v7A.65.65,0,0,0,11.96,18.651Z"/><path class="cls-2" d="M14.96,18.651A.65.65,0,0,0,15.61,18V11a.651.651,0,0,0-1.3,0v7A.65.65,0,0,0,14.96,18.651Z"/><rect x="0.0" y="0.0" width="24.0" height="24.0" style="fill:none;"/>
</svg>