<svg xmlns="http://www.w3.org/2000/svg" fill-rule="evenodd" stroke-linejoin="round" stroke-miterlimit="1.414" clip-rule="evenodd" viewBox="0 0 24 24"><path d="M6 14H1v-4h5v4zm1 .5v-5a.5.5 0 00-.5-.5h-6a.5.5 0 00-.5.5v5a.5.5 0 00.5.5h6a.5.5 0 00.5-.5m7.5-.5h-5v-4h5v4zM9 9a.5.5 0 00-.5.5v5a.5.5 0 00.5.5h6a.5.5 0 00.5-.5v-5A.5.5 0 0015 9H9zm14 5h-5v-4h5v4zm.5-5h-6a.5.5 0 00-.5.5v5a.5.5 0 00.5.5h6a.5.5 0 00.5-.5v-5a.5.5 0 00-.5-.5M3.146 6.853A.507.507 0 003.498 7a.51.51 0 00.355-.147l2-2a.5.5 0 00-.708-.706L4 5.293V2h16v4.5a.5.5 0 101 0v-5a.5.5 0 00-.5-.5h-17a.5.5 0 00-.5.5v3.793L1.855 4.147a.5.5 0 00-.707.707l1.999 1.999zm17.708 10.293a.5.5 0 00-.707 0l-2 2a.5.5 0 00.707.707L20 18.707V22H4v-4.5a.499.499 0 10-1 0v5a.5.5 0 00.5.5h17a.5.5 0 00.5-.5v-3.793l1.147 1.146a.498.498 0 00.707 0 .5.5 0 000-.707l-2-2z"/><path fill="none" d="M0 0h24v24H0z"/></svg>