<svg xmlns="http://www.w3.org/2000/svg" fill-rule="evenodd" stroke-linejoin="round" stroke-miterlimit="1.414" clip-rule="evenodd" viewBox="0 0 24 24"><path d="M11.954 12.012h.78a.487.487 0 100-.975h-.78v-7.17L18 1.2v20.65l-6.046-2.148v-7.69zM3.5 23h2a.5.5 0 00.5-.5V1h10.1l-4.813 2.123a.474.474 0 00-.284.435v16.48c0 .2.127.38.316.448l6.933 2.462c.015.005.03.004.046.008.062.028.13.044.202.044h2.066a.499.499 0 100-1H19V.5a.5.5 0 00-.5-.5h-13a.5.5 0 00-.5.5V22H3.5a.5.5 0 000 1"/><path fill="none" d="M0 0h24v24H0z"/></svg>