<svg xmlns="http://www.w3.org/2000/svg" viewBox="0 0 24 24"><path d="M20 16.228c-.439 0-.8.361-.8.8v2.2H4.8v-2.2c0-.439-.361-.8-.8-.8-.439 0-.8.361-.8.8v3c0 .439.361.8.8.8h16c.439 0 .8-.361.8-.8v-3c0-.439-.361-.8-.8-.8z"/><path d="M11.292 16.733a1 1 0 001.416 0l4-4a1 1 0 00.281-.695c0-.548-.452-1-1-1a1 1 0 00-.695.281L13 13.613V4.027c0-.549-.451-1-1-1-.549 0-1 .451-1 1v9.586L8.707 11.32a1 1 0 00-.695-.281c-.548 0-1 .452-1 1a1 1 0 00.281.695l3.999 3.999z"/><path fill="none" d="M0 0h24v24H0z"/></svg>