<svg xmlns="http://www.w3.org/2000/svg" viewBox="0 0 24 24"><path d="M17.924 17.927l.004-.002-1.158-1.158-.003.003-1.377-1.376.003-.004-1.13-1.13-.003.003L9.737 9.74l.003-.003-1.13-1.13-.004.002-1.378-1.377.005-.003-1.157-1.156-.004.002-2.707-2.707A.8.8 0 102.235 4.5l2.53 2.532a15.477 15.477 0 00-3.649 4.477 1.1 1.1 0 000 .984C1.263 12.786 4.803 19.7 12 19.7a10.65 10.65 0 004.46-.976l3.04 3.042a.8.8 0 001.132-1.131zm-9.006-6.744l3.899 3.898a3.163 3.163 0 01-.817.12A3.204 3.204 0 018.8 12a3.167 3.167 0 01.118-.817zM12 18.1c-5.628 0-8.701-4.959-9.334-6.1a13.847 13.847 0 013.228-3.84L7.68 9.944A4.743 4.743 0 007.2 12a4.805 4.805 0 004.8 4.8 4.743 4.743 0 002.054-.48l1.183 1.182A9.093 9.093 0 0112 18.1zm10.884-6.592C22.737 11.214 19.197 4.3 12 4.3a10.604 10.604 0 00-4.458.977l1.23 1.23A9.002 9.002 0 0112 5.9c5.623 0 8.7 4.959 9.334 6.1a13.943 13.943 0 01-3.24 3.83l1.135 1.134a15.515 15.515 0 003.655-4.472 1.1 1.1 0 000-.984z"/><path d="M16.32 14.055A4.742 4.742 0 0016.8 12 4.805 4.805 0 0012 7.2a4.743 4.743 0 00-2.055.48l1.238 1.239a3.157 3.157 0 01.817-.12A3.204 3.204 0 0115.2 12a3.166 3.166 0 01-.119.817z"/><path fill="none" d="M0 0h24v24H0z"/></svg>