<svg xmlns="http://www.w3.org/2000/svg" viewBox="0 0 24 24"><path d="M22.884 11.508C22.737 11.214 19.197 4.3 12 4.3S1.263 11.214 1.116 11.508a1.102 1.102 0 000 .984C1.263 12.786 4.803 19.7 12 19.7s10.737-6.914 10.884-7.208a1.102 1.102 0 000-.984zM12 18.1c-5.624 0-8.701-4.96-9.334-6.1C3.3 10.86 6.377 5.9 12 5.9c5.624 0 8.701 4.96 9.334 6.1-.634 1.141-3.711 6.1-9.334 6.1z"/><path d="M12 7.2a4.8 4.8 0 104.8 4.8A4.805 4.805 0 0012 7.2zm0 8a3.2 3.2 0 113.2-3.2 3.204 3.204 0 01-3.2 3.2z"/><path fill="none" d="M0 0h24v24H0z"/></svg>