<svg viewBox="0 0 50 50"><path d="M1.58 9.486a.647.647 0 00-.58.666v29.696c.006.35.287.631.634.637h8.906a.646.646 0 00.634-.636v-2.27c0-.576.446-1.024 1.02-1.024s1.02.448 1.02 1.024v2.27c.006.349.286.63.633.636h20.844a.646.646 0 00.634-.636v-2.27c0-.576.447-1.024 1.02-1.024s1.02.448 1.02 1.024v2.27c.006.349.287.63.634.636h10.356A.646.646 0 0049 39.85V13.5a.646.646 0 00-.662-.636h-22.69v-2.731a.646.646 0 00-.634-.647H1.634a.608.608 0 00-.056 0zm.689 1.301h22.11l-.027 2.713c.006.349.287.63.634.636h22.718v25.076h-9.043V37.58c0-1.27-1.05-2.325-2.316-2.325s-2.288 1.054-2.288 2.325v1.633H14.51V37.58c0-1.27-1.05-2.325-2.316-2.325s-2.288 1.054-2.288 2.325v1.633H2.269V10.787zm11.575 3.676h.014c.903.004 1.488.27 1.654.563l.112.183.21.043c.625.087.982.325 1.234.675s.393.839.435 1.38c.084 1.08-.225 2.352-.42 2.94l-.113.339.309.183c-.02-.012.17.118.126.492-.053.443-.158.671-.239.774s-.122.099-.126.099l-.378.028-.042.38c-.042.39-.198.851-.379 1.225-.09.186-.184.35-.266.464s-.17.178-.126.155l-.239.127v.267c0 .652-.026 1.187.042 1.942v.057l.028.056c.257.691.85 1.122 1.5 1.45s1.401.582 2.104.886c.702.305 1.346.655 1.822 1.14.378.386.617.896.743 1.534H5.922c.127-.637.364-1.148.744-1.534.478-.485 1.13-.835 1.836-1.14s1.45-.559 2.103-.886 1.258-.758 1.514-1.45l.028-.113c.068-.755.042-1.29.042-1.942v-.267l-.238-.127c.04.021-.056-.04-.14-.155a3.247 3.247 0 01-.28-.464 3.87 3.87 0 01-.38-1.225l-.041-.38-.379-.028c-.003 0-.045.005-.126-.099-.08-.103-.185-.331-.238-.774-.045-.374.145-.504.126-.492l.294-.17-.084-.323c-.422-1.632-.495-3.13-.056-4.138.438-1.005 1.331-1.637 3.197-1.675zm10.674 4.197h19.41v2.657h-19.41zm0 5.314h19.41v2.657h-19.41zm0 5.314h19.41v2.657h-19.41z"/></svg>