<svg xmlns="http://www.w3.org/2000/svg" viewBox="0 0 24 24">
<circle class="cls-2" cx="17.96" cy="13" r="1"/><path class="cls-2" d="M20,9H18V4a1,1,0,0,0-1-1H7A1,1,0,0,0,6,4V9H4a2.006,2.006,0,0,0-2,2v4.993H2V18a1,1,0,0,0,1,1H6v2a1,1,0,0,0,1,1H17a1,1,0,0,0,1-1V19h3a1,1,0,0,0,1-1V15.993h0V11A2.006,2.006,0,0,0,20,9ZM7.6,6.986V4.6h8.8V9H7.6ZM6,16v1.4H3.6V15.993h0V11a.405.405,0,0,1,.4-.4H20a.405.405,0,0,1,.4.4v4.993h0V17.4H18V16a1,1,0,0,0-1-1H7A1,1,0,0,0,6,16Zm10.4,4.4H7.6V16.6h8.8Z"/><rect x="0.0" y="0.0" width="24.0" height="24.0" style="fill:none;"/>
</svg>