<svg data-name="Calque 1" xmlns="http://www.w3.org/2000/svg" viewBox="0 0 449 455"><path d="M248.62 61l-14.35 54.29a107.26 107.26 0 00-33.17 0L186.53 61a161.69 161.69 0 0162.31 0z" fill="#3c3c3c"/><path d="M179.25 121.15A104.48 104.48 0 00150.56 138L111 98a160.82 160.82 0 0153.9-31.2z" opacity=".45" fill="#3c3c3c"/><path d="M134.7 153.59a104.38 104.38 0 00-16.81 28.69l-54.36-14.56A161 161 0 0194.91 114z" opacity=".5" fill="#3c3c3c"/><path d="M111 220.5a107.48 107.48 0 001.28 16.81L58 251.88a161.69 161.69 0 010-62.31l54.29 14.12A107.48 107.48 0 00111 220.5z" opacity=".55" fill="#3c3c3c"/><path d="M134.7 287.41L94.91 327a160.86 160.86 0 01-31.15-53.91l54.35-14.57a104.72 104.72 0 0016.59 28.89z" opacity=".6" fill="#3c3c3c"/><path d="M179.25 319.85l-14.57 54.35A160.79 160.79 0 01111 343.05l39.78-39.79a104.45 104.45 0 0028.47 16.59z" opacity=".65" fill="#3c3c3c"/><path d="M248.62 380a161.69 161.69 0 01-62.31 0l14.34-54.29a107.26 107.26 0 0033.17 0z" opacity=".7" fill="#3c3c3c"/><path d="M323.93 343.05A160.86 160.86 0 01270 374.2l-14.57-54.35A104.63 104.63 0 00284.14 303z" opacity=".75" fill="#3c3c3c"/><path d="M371.16 273.28A160.93 160.93 0 01340 327l-39.79-39.79A104.38 104.38 0 00317 258.49z" opacity=".8" fill="#3c3c3c"/><path d="M380 220.5a158.24 158.24 0 01-3 31.16l-54.29-14.35a107.26 107.26 0 000-33.17L377 189.57a158.29 158.29 0 013 30.93z" opacity=".85" fill="#3c3c3c"/><path d="M371.16 167.72l-54.35 14.56A104.38 104.38 0 00300 153.59l39.78-39.78a160.73 160.73 0 0131.38 53.91z" opacity=".9" fill="#3c3c3c"/><path d="M323.93 98l-39.79 39.79a104.38 104.38 0 00-28.69-16.81L270 66.57A161.26 161.26 0 01323.93 98z" opacity=".95" fill="#3c3c3c"/></svg>