<svg xmlns="http://www.w3.org/2000/svg" viewPort="0 0 1024 1024">
<path d="M19.093 21.418c-0.043 0.001-0.086 0.003-0.129 0.003-2.336 0-4.391-1.213-5.566-3.043l-12.533 12.759 8.684-0.003 9.544-9.716zM39.286 0.864l-8.684 0.003-5.412 5.51c1.702 1.259 3.012 3.020 3.706 5.066l10.39-10.578zM19.011 8.24c-2.599 0-4.837 1.543-5.851 3.762l1.081 0.65c0.834-1.93 2.688-3.273 4.842-3.273 3.291 0 5.206 2.695 5.206 5.423 0 1.289-0.537 2.301-1.212 3.168l1.047 0.63c0.737-0.899 1.319-2.053 1.319-3.927 0-3.771-2.88-6.432-6.432-6.432zM18.964 5.346c-4.537 0-8.308 3.281-9.071 7.599l1.652 0.781c0.561-3.821 3.715-6.749 7.521-6.749 4.713 0 7.457 3.858 7.457 7.765s-3.451 6.043-4.912 8.173c-1.46 2.13-1.162 2.012-1.63 3.027-0.607 1.316-1.708 2.105-2.775 2.105-0.905 0-1.608-0.407-2.094-1.047l-1.047 0.915c0.751 0.982 1.932 1.616 3.264 1.616 1.291 0 2.996-0.861 3.731-2.382 0.567-1.173 0.206-1.036 1.974-3.498s5.141-3.694 5.141-9.095c0-5.401-4.124-9.211-9.211-9.211z"></path>
</svg>
