<!DOCTYPE svg PUBLIC "-//W3C//DTD SVG 20010904//EN" "http://www.w3.org/TR/2001/REC-SVG-20010904/DTD/svg10.dtd">
<svg version="1.0" xmlns="http://www.w3.org/2000/svg" width="164px" height="164px" viewBox="0 0 1640 1640" preserveAspectRatio="xMidYMid meet">
<g id="layer101" fill="#a8d81f" stroke="none">
 <path d="M661 1620 c-298 -63 -531 -275 -623 -570 -20 -65 -23 -95 -23 -230 0 -135 3 -165 23 -230 85 -271 281 -467 552 -552 65 -20 95 -23 230 -23 135 0 165 3 230 23 271 85 467 281 552 552 20 65 23 95 23 230 0 135 -3 165 -23 230 -68 217 -210 390 -402 489 -128 66 -196 83 -355 87 -77 2 -160 -1 -184 -6z m345 -40 c43 -11 122 -41 174 -67 80 -40 110 -62 190 -143 81 -80 103 -110 143 -190 63 -127 87 -225 87 -360 0 -135 -24 -233 -87 -360 -40 -80 -62 -110 -143 -190 -80 -81 -110 -103 -190 -143 -127 -63 -225 -87 -360 -87 -135 0 -233 24 -360 87 -80 40 -110 62 -190 143 -81 80 -103 110 -143 190 -63 127 -87 225 -87 360 0 135 24 233 87 360 40 80 62 110 143 190 80 81 110 103 190 143 52 26 129 56 170 67 104 26 270 27 376 0z"/>
 <path d="M392 1268 c-9 -11 77 -102 427 -452 351 -350 440 -435 449 -424 9 11 -77 102 -427 452 -351 350 -440 435 -449 424z"/>
 <path d="M900 1081 c0 -11 26 -22 34 -14 12 12 5 23 -14 23 -11 0 -20 -4 -20 -9z"/>
 <path d="M1155 1073 c-16 -8 -40 -25 -53 -36 -15 -14 -40 -22 -75 -25 -29 -2 -65 -11 -82 -21 -25 -14 -31 -24 -33 -59 -2 -23 -7 -42 -12 -42 -5 0 -14 -9 -20 -20 -8 -16 -5 -26 21 -55 17 -19 38 -35 46 -35 30 0 140 109 166 164 23 48 31 56 81 77 45 18 56 27 56 46 0 19 -5 23 -32 23 -18 -1 -46 -8 -63 -17z"/>
 <path d="M570 1018 c0 -10 12 -53 26 -95 23 -69 26 -89 21 -168 -3 -56 -14 -112 -27 -147 -28 -76 -24 -122 11 -126 31 -4 37 4 74 88 25 57 29 80 33 191 l4 127 -71 73 c-46 48 -70 68 -71 57z"/>
 <path d="M467 1003 c-11 -11 -8 -48 9 -94 25 -72 32 -126 22 -177 -6 -26 -11 -57 -13 -68 -2 -12 -8 -31 -14 -42 -20 -38 -14 -71 16 -78 21 -6 31 -2 50 20 92 107 61 446 -42 446 -12 0 -25 -3 -28 -7z"/>
 <path d="M1313 970 c-13 -15 -23 -33 -23 -39 0 -6 -4 -11 -9 -11 -5 0 -12 -11 -15 -24 -3 -14 -12 -31 -19 -38 -7 -7 -32 -40 -54 -73 -51 -76 -63 -86 -113 -92 -56 -8 -51 10 13 44 35 19 53 35 55 51 3 18 -1 22 -23 22 -25 0 -56 -12 -79 -31 -6 -5 -22 -18 -36 -29 l-25 -19 47 -46 c86 -81 134 -61 228 95 29 47 60 94 71 106 10 11 19 25 19 31 0 6 7 16 15 23 8 7 15 23 15 36 0 34 -39 31 -67 -6z"/>
 <path d="M362 948 c-16 -16 -15 -48 3 -91 19 -45 19 -120 0 -172 -8 -22 -15 -47 -15 -56 0 -24 26 -42 53 -35 36 9 60 69 65 168 4 77 2 92 -21 142 -21 45 -31 56 -49 56 -13 0 -29 -5 -36 -12z"/>
 <path d="M262 769 l0 -130 25 3 c42 5 67 49 71 126 4 84 -20 132 -67 132 l-29 0 0 -131z"/>
 <path d="M737 793 c-11 -10 -6 -72 12 -153 l16 -75 50 1 c95 1 185 15 185 29 0 31 -26 37 -105 24 -41 -6 -78 -9 -81 -6 -4 3 -12 33 -19 66 -10 51 -10 61 2 65 22 9 23 8 17 -22 -4 -19 1 -36 16 -55 18 -22 29 -27 66 -27 38 0 45 3 42 18 -2 9 -17 24 -33 33 -17 8 -31 21 -33 28 -1 7 -17 28 -36 47 -31 32 -81 46 -99 27z"/>
 <path d="M960 533 c-30 -25 -56 -46 -58 -47 -1 -2 19 -3 45 -4 40 0 51 4 75 30 39 42 26 48 -21 10 -55 -45 -63 -40 -10 6 61 55 34 59 -31 5z"/>
 </g>

</svg>