<svg xmlns="http://www.w3.org/2000/svg" fill-rule="evenodd" stroke-linejoin="round" stroke-miterlimit="1.414" clip-rule="evenodd" viewBox="0 0 24 24"><path d="M20 21.5a.5.5 0 01-.5.5h-15a.5.5 0 01-.5-.5v-19a.5.5 0 01.5-.5h15a.5.5 0 01.5.5v19zm1-19c0-.827-.673-1.5-1.5-1.5h-15C3.673 1 3 1.673 3 2.5v19c0 .827.673 1.5 1.5 1.5h15c.827 0 1.5-.673 1.5-1.5v-19z"/><path d="M17.5 4h-11a.5.5 0 000 1h11a.5.5 0 000-1m0 3h-11a.5.5 0 000 1h11a.5.5 0 000-1m-.354 4.146L10.5 17.793l-3.647-3.646a.5.5 0 00-.707.707l4 4a.5.5 0 00.707 0l7-7a.5.5 0 00-.707-.707"/><path fill="none" d="M0 0h24v24H0z"/></svg>