<svg xmlns="http://www.w3.org/2000/svg" viewBox="0 0 24 24"><path d="M14.982 11.731a4.804 4.804 0 001.819-3.762c0-2.633-2.167-4.8-4.801-4.8-2.633 0-4.8 2.167-4.8 4.8 0 1.465.671 2.852 1.819 3.762A8.825 8.825 0 003.2 20c0 .439.361.8.8.8.439 0 .8-.361.8-.8 0-3.95 3.25-7.2 7.2-7.2s7.2 3.25 7.2 7.2c0 .439.361.8.8.8.439 0 .8-.361.8-.8a8.823 8.823 0 00-5.818-8.269zM8.8 8c0-1.755 1.445-3.2 3.2-3.2 1.755 0 3.2 1.445 3.2 3.2 0 1.755-1.445 3.2-3.2 3.2A3.216 3.216 0 018.8 8z"/><path fill="none" d="M0 0h24v24H0z"/></svg>