<svg xmlns="http://www.w3.org/2000/svg" width="1024" height="1024"><path d="M519.585 37.926c242.726 0 443.733 83.437 443.733 345.126S766.103 974.696 519.585 974.696 75.852 648.533 75.852 383.052c0-261.689 197.215-345.126 443.733-345.126zm0-37.926C121.363 0 37.926 208.593 37.926 383.052c0 284.444 212.385 629.57 481.659 629.57 265.481 0 481.659-345.126 481.659-629.57C997.451 208.593 914.014 0 519.585 0z"/><path d="M724.385 250.311l-102.4 447.526c-7.585 26.548-15.17 49.304-30.341 56.889-18.963 15.17-45.511 22.756-79.644 22.756-60.681 0-91.022-26.548-106.193-91.022l-94.815-436.148h106.193l64.474 333.748c3.793 18.963 18.963 30.341 37.926 30.341s34.133-15.17 37.926-30.341L614.4 250.312h109.985zm49.304-37.926h-189.63l-64.474 364.089-72.059-364.089H265.482l106.193 485.452c18.963 79.644 64.474 117.57 144.119 117.57 45.511 0 79.644-11.378 102.4-30.341 18.963-15.17 34.133-41.719 41.719-79.644l113.778-493.037z"/></svg>