<svg xmlns="http://www.w3.org/2000/svg" viewBox="0 0 24 24">
<path d="M22.98,20.9L12.7,1.9C12.547,1.66 12.281,1.514 11.996,1.514C11.711,1.514 11.445,1.66 11.292,1.9L1.02,20.9C0.957,21.017 0.923,21.148 0.923,21.281C0.923,21.719 1.282,22.079 1.72,22.081L22.276,22.081C22.714,22.079 23.073,21.719 23.073,21.281C23.073,21.148 23.039,21.017 22.976,20.9L22.98,20.9ZM11,10.7C11,10.316 11.316,10 11.7,10L12.3,10C12.684,10 13,10.316 13,10.7L13,14.3C13,14.684 12.684,15 12.3,15L11.7,15C11.316,15 11,14.684 11,14.3L11,10.7ZM13.1,18C13.1,18.549 12.649,19 12.1,19L11.9,19C11.351,19 10.9,18.549 10.9,18L10.9,17.8C10.9,17.251 11.351,16.8 11.9,16.8L12.1,16.8C12.649,16.8 13.1,17.251 13.1,17.8L13.1,18Z"/>
<rect x="0.0" y="0.0" width="24.0" height="24.0" style="fill:none;"/>
</svg>
