<?xml version="1.0" encoding="UTF-8" standalone="no"?>
<!-- Created with Inkscape (http://www.inkscape.org/) -->
<svg id="svg15400" xmlns:rdf="http://www.w3.org/1999/02/22-rdf-syntax-ns#" xmlns="http://www.w3.org/2000/svg" height="50" width="50" version="1.1" xmlns:cc="http://creativecommons.org/ns#" xmlns:dc="http://purl.org/dc/elements/1.1/" viewBox="0 0 50 50">
 <metadata id="metadata15405">
  <rdf:RDF>
   <cc:Work rdf:about="">
    <dc:format>image/svg+xml</dc:format>
    <dc:type rdf:resource="http://purl.org/dc/dcmitype/StillImage"/>
    <dc:title/>
   </cc:Work>
  </rdf:RDF>
 </metadata>
 <g id="layer1" transform="translate(0 -1002.4)">
  <g id="g16032" transform="matrix(1.4844 0 0 1.5 15.5 1003.5)">
   <path id="path16016" fill="#b62738" d="m0-0.074h12.8v32h-12.8z"/>
   <g fill="#fff">
    <path id="path16018" d="m7.212 24.176h1.548v-0.739c0-0.165-0.019-0.303-0.057-0.414-0.038-0.114-0.092-0.204-0.162-0.272-0.07-0.07-0.156-0.12-0.256-0.15s-0.211-0.045-0.333-0.045c-0.111 0-0.211 0.015-0.301 0.045-0.092 0.03-0.171 0.081-0.236 0.154-0.065 0.07-0.115 0.164-0.15 0.28s-0.053 0.261-0.053 0.435v0.707zm-1 0v-0.654c0-0.157-0.014-0.288-0.041-0.394-0.03-0.106-0.073-0.191-0.13-0.256s-0.127-0.111-0.211-0.138c-0.087-0.03-0.187-0.045-0.301-0.045-0.228 0-0.39 0.072-0.487 0.215-0.1 0.141-0.15 0.366-0.15 0.674v0.597h1.32zm-2.352 1.26v-1.739c0-0.374 0.027-0.701 0.081-0.983 0.051-0.282 0.137-0.517 0.256-0.707 0.116-0.19 0.271-0.332 0.463-0.427 0.19-0.097 0.424-0.146 0.703-0.146 0.168 0 0.325 0.02 0.471 0.061s0.275 0.1 0.386 0.179 0.204 0.175 0.28 0.288c0.073 0.111 0.122 0.24 0.146 0.386h0.041c0.032-0.149 0.08-0.287 0.142-0.414 0.06-0.13 0.144-0.242 0.252-0.337 0.106-0.097 0.24-0.173 0.402-0.228 0.162-0.057 0.36-0.085 0.593-0.085 0.271 0 0.513 0.047 0.727 0.142 0.211 0.095 0.391 0.232 0.54 0.41 0.146 0.176 0.259 0.391 0.337 0.646 0.079 0.252 0.118 0.538 0.118 0.857v2.096h-5.939z"/>
    <path id="path16020" d="m9.8 16.349v3.421h-5.939v-3.421h1.032v2.161h1.304v-2.011h1.032v2.011h1.532v-2.161h1.04z"/>
    <path id="path16022" d="m9.8 12.621v1.255h-4.891v1.491h-1.048v-4.233h1.048v1.487h4.891z"/>
    <path id="path16024" d="m7.33 7.714-1.3 0.382c-0.049 0.016-0.129 0.04-0.24 0.073s-0.233 0.068-0.366 0.106c-0.135 0.035-0.271 0.069-0.406 0.102s-0.251 0.056-0.345 0.069c0.06 0.011 0.13 0.026 0.211 0.045 0.081 0.016 0.168 0.036 0.26 0.061 0.089 0.022 0.18 0.045 0.272 0.069s0.179 0.047 0.26 0.069 0.153 0.042 0.215 0.061c0.062 0.016 0.108 0.028 0.138 0.036l1.3 0.378v-1.45zm2.47-0.699-1.414 0.406v2.047l1.414 0.41v1.272l-5.964-1.93v-1.54l5.964-1.938v1.272z"/>
   </g>
  </g>
 </g>
</svg>
