<svg xmlns="http://www.w3.org/2000/svg" fill-rule="evenodd" stroke-linejoin="round" stroke-miterlimit="1.414" clip-rule="evenodd" viewBox="0 0 24 24"><path d="M1 10h4v10H1V10zM.5 21h5a.5.5 0 0 0 .5-.5v-11a.5.5 0 0 0-.5-.5h-5a.5.5 0 0 0-.5.5v11a.5.5 0 0 0 .5.5M10 3h4v17h-4V3zm4.5 18a.5.5 0 0 0 .5-.5v-18a.5.5 0 0 0-.5-.5h-5a.5.5 0 0 0-.5.5v18a.5.5 0 0 0 .5.5h5zM23 20h-4v-8h4v8zm.5-9h-5a.5.5 0 0 0-.5.5v9a.5.5 0 0 0 .5.5h5a.5.5 0 0 0 .5-.5v-9a.5.5 0 0 0-.5-.5"/><path fill="none" d="M0 0h24v24H0z"/></svg>