<svg xmlns="http://www.w3.org/2000/svg" viewBox="0 0 24 24">
<path class="cls-2" d="M17,10h-.2V8A4.8,4.8,0,0,0,7.2,8v2H7a2.006,2.006,0,0,0-2,2v8a2.006,2.006,0,0,0,2,2H17a2.006,2.006,0,0,0,2-2V12A2.006,2.006,0,0,0,17,10ZM8.8,8a3.2,3.2,0,1,1,6.4,0v2H8.8Zm8.6,12a.405.405,0,0,1-.4.4H7a.405.405,0,0,1-.4-.4V12a.405.405,0,0,1,.4-.4H17a.405.405,0,0,1,.4.4Z"/><rect class="cls-3" x="10.5" y="14.5" width="3" height="3" rx="1" ry="1"/><rect x="0.0" y="0.0" width="24.0" height="24.0" style="fill:none;"/>
</svg>