<svg xmlns="http://www.w3.org/2000/svg" fill-rule="evenodd" stroke-linejoin="round" stroke-miterlimit="1.414" clip-rule="evenodd" viewBox="0 0 24 24"><path d="M22 4v1.923H2V4h3v.5a.5.5 0 0 0 .5.5h2a.5.5 0 0 0 .5-.5V4h8v.5a.5.5 0 0 0 .5.5h2a.5.5 0 0 0 .5-.5V4h3zm0 16H2V6.923h20V20zM6 3h1v1H6V3zm11 0h1v1h-1V3zm1.5-1h-2a.5.5 0 0 0-.5.5V3H8v-.5a.5.5 0 0 0-.5-.5h-2a.5.5 0 0 0-.5.5V3H1.5a.5.5 0 0 0-.5.5v17a.5.5 0 0 0 .5.5h21a.5.5 0 0 0 .5-.5v-17a.5.5 0 0 0-.5-.5H19v-.5a.5.5 0 0 0-.5-.5"/><path d="M5 10h2v2H5v-2zm-.5 3h3a.5.5 0 0 0 .5-.5v-3a.5.5 0 0 0-.5-.5h-3a.5.5 0 0 0-.5.5v3a.5.5 0 0 0 .5.5M5 15h2v2H5v-2zm-.5 3h3a.5.5 0 0 0 .5-.5v-3a.5.5 0 0 0-.5-.5h-3a.5.5 0 0 0-.5.5v3a.5.5 0 0 0 .5.5M11 10h2v2h-2v-2zm-.5 3h3a.5.5 0 0 0 .5-.5v-3a.5.5 0 0 0-.5-.5h-3a.5.5 0 0 0-.5.5v3a.5.5 0 0 0 .5.5M11 15h2v2h-2v-2zm-.5 3h3a.5.5 0 0 0 .5-.5v-3a.5.5 0 0 0-.5-.5h-3a.5.5 0 0 0-.5.5v3a.5.5 0 0 0 .5.5M17 10h2v2h-2v-2zm-.5 3h3a.5.5 0 0 0 .5-.5v-3a.5.5 0 0 0-.5-.5h-3a.5.5 0 0 0-.5.5v3a.5.5 0 0 0 .5.5M17 15h2v2h-2v-2zm-.5 3h3a.5.5 0 0 0 .5-.5v-3a.5.5 0 0 0-.5-.5h-3a.5.5 0 0 0-.5.5v3a.5.5 0 0 0 .5.5"/><path fill="none" d="M0 0h24v24H0z"/></svg>