<svg xmlns="http://www.w3.org/2000/svg" viewBox="0 0 24 24"><path d="M11.99991,2.4a9.53609,9.53609,0,0,0-6.6001,2.64991L5.4003,3A.79981.79981,0,0,0,3.80069,3l-.001,4a.80021.80021,0,0,0,.79981.7998h4a.7998.7998,0,1,0,0-1.5996H6.52481A7.91925,7.91925,0,0,1,11.99991,4a8,8,0,1,1-8,8.00024V12a.79993.79993,0,1,0-1.59985,0H2.39981a9.6001,9.6001,0,1,0,9.6001-9.6Z"/><path d="M11.62686,6.53369a.80021.80021,0,0,0-.7998.79981v5.30664a.80077.80077,0,0,0,.52539.75195l3.41406,1.24609a.82036.82036,0,0,0,.27441.04786.80005.80005,0,0,0,.27442-1.55176l-2.88867-1.05371V7.3335A.80021.80021,0,0,0,11.62686,6.53369Z"/><rect x="0.0" y="0.0" width="24.0" height="24.0" style="fill:none;"/>
</svg>