<svg xmlns="http://www.w3.org/2000/svg" viewBox="0 0 24 24"><path d="M20.21191,10.0354,18.27246,9.719q-.10254-.28271-.22754-.55078l1.14649-1.582a1.0725,1.0725,0,0,0-.06348-1.39844L17.81152,4.87231A1.07025,1.07025,0,0,0,16.417,4.804L14.82324,5.95142c-.17871-.083-.3623-.15918-.55176-.22657l-.30664-1.93164a1.07412,1.07412,0,0,0-1.0332-.94336H11.06738a1.07427,1.07427,0,0,0-1.03222.93848L9.71875,5.72778c-.18555.06739-.36719.1416-.543.22364L7.58105,4.804a1.07108,1.07108,0,0,0-1.3916.0664L4.87012,6.18774a1.07355,1.07355,0,0,0-.06348,1.39747l1.14844,1.584q-.12451.2666-.22754.5498l-1.93945.31641a1.07427,1.07427,0,0,0-.93848,1.03223v1.86523a1.07427,1.07427,0,0,0,.93848,1.03223l1.93945.31543c.06738.18554.1416.36719.22363.543L4.80566,16.41626a1.07031,1.07031,0,0,0,.06446,1.39453l1.31933,1.31934a1.075,1.075,0,0,0,1.39356.06543l1.59375-1.14649q.26367.123.542.22364l.31641,1.93847a1.07506,1.07506,0,0,0,1.03222.93945h1.86524a1.07506,1.07506,0,0,0,1.03222-.93945l.31641-1.93847q.27832-.10109.542-.22364l1.5918,1.14551a1.07183,1.07183,0,0,0,1.39453-.06445l1.31934-1.31934a1.074,1.074,0,0,0,.06543-1.39355l-1.14649-1.59278q.12451-.26952.22754-.55273L20.21,13.96411a1.07608,1.07608,0,0,0,.94043-1.0332V11.06763A1.07416,1.07416,0,0,0,20.21191,10.0354Zm-.3623,2.66992-2.16992.34473a.65108.65108,0,0,0-.52246.458,5.38863,5.38863,0,0,1-.4375,1.06445.649.649,0,0,0,.043.69141L18.04883,17.051l-.999.999-1.7871-1.28613a.65074.65074,0,0,0-.69239-.043,5.349,5.349,0,0,1-1.05176.43457.64926.64926,0,0,0-.457.51855l-.35547,2.17578H11.294l-.35547-2.17578a.64926.64926,0,0,0-.457-.51855,5.349,5.349,0,0,1-1.05176-.43457.64873.64873,0,0,0-.69239.043L6.94922,18.05005l-.999-.999,1.28613-1.78809a.65064.65064,0,0,0,.043-.69238,5.3427,5.3427,0,0,1-.43457-1.05274.64925.64925,0,0,0-.51856-.457l-2.17578-.35351V11.29321l2.17578-.35449a.64925.64925,0,0,0,.51856-.457A5.32214,5.32214,0,0,1,7.2832,9.42212a.65163.65163,0,0,0-.043-.69531l-1.29-1.7793.998-.99805L8.73633,7.23657a.65084.65084,0,0,0,.69238.043A5.34366,5.34366,0,0,1,10.48145,6.845a.64926.64926,0,0,0,.457-.51855L11.293,4.15063h1.41211l.3457,2.1709a.64811.64811,0,0,0,.459.52149,5.2922,5.2922,0,0,1,1.06054.43652.65709.65709,0,0,0,.69239-.043l1.78808-1.28711.998.99805-1.29,1.77832a.65168.65168,0,0,0-.043.69531,5.36316,5.36316,0,0,1,.43945,1.05957.64754.64754,0,0,0,.51856.458l2.17578.35449Z"/><path d="M12,8.69446A3.30554,3.30554,0,1,0,15.30566,12,3.3093,3.3093,0,0,0,12,8.69446Zm0,5.31109A2.00555,2.00555,0,1,1,14.00562,12,2.00784,2.00784,0,0,1,12,14.00555Z"/><rect x="0.0" y="0.0" width="24.0" height="24.0" style="fill:none;"/>
</svg>