<svg xmlns="http://www.w3.org/2000/svg" width="210mm" height="30mm" viewBox="0 0 210 30"><path d="M175.063 25.87c0-3.5-.15-4.545-.513-3.579-.067.179-.537.54-1.043.804-1.297.674-3.719.56-4.848-.23-1.814-1.266-2.452-3.241-2.313-7.157.073-2.048.192-2.787.599-3.724.604-1.392 1.856-2.615 3.012-2.942 1.374-.389 3.266-.294 4.24.212.727.378.866.396.866.111 0-.275.33-.34 1.752-.34h1.751v20.75h-3.503zm-.973-5.788c.74-.494.97-1.645.972-4.86 0-2.771-.012-2.848-.538-3.199-1.276-.852-3.183-.545-3.933.633-.903 1.418-.87 5.583.056 6.854.832 1.143 2.238 1.377 3.443.572zm-73.908 9.037c-4.247-.625-8.041-3.1-10.045-6.552-1.427-2.458-1.836-3.971-1.946-7.193-.114-3.33.152-4.787 1.341-7.352 2.772-5.979 9.685-9.083 16.562-7.436.542.13 1.823.639 2.846 1.131 2.383 1.148 4.982 3.714 6.082 6.006a15.968 15.968 0 0 1 .044 13.774c-1.637 3.48-5.04 6.284-8.811 7.26-1.611.417-4.523.59-6.073.362zm5.255-2.507c4.002-.977 7.356-4.386 8.423-8.562.426-1.667.43-4.986.008-6.636-1.389-5.434-5.914-8.956-11.497-8.948-5.595.008-9.941 3.284-11.519 8.68-.53 1.812-.53 5.327 0 7.14 1.884 6.444 7.997 9.934 14.584 8.326zM94.316 16.173c.075-7.882-.074-7.427 2.476-7.558l1.639-.084v14.328h-4.179zm6.082-.733c-.002-4.08-.062-7.645-.136-7.923-.073-.28-.363-.563-.653-.637-.44-.113-.522-.272-.522-1.027v-.894l2.271.086c1.476.055 2.396.191 2.628.387.318.27.356 1.224.356 8.864v8.563h-3.94zm5.915.25V8.52l1.634.107c.899.059 1.786.235 1.97.391.29.245.337 1.239.337 7.062v6.778h-3.941zm33.17 7.525c-1.345-.605-2.08-2.07-2.08-4.149 0-3.113 1.442-4.35 5.373-4.614l2.072-.139v-.834c0-.462-.17-1.049-.383-1.316-.815-1.025-3.333-1.03-5.036-.008l-.712.426V9.733l1.04-.409c1.562-.614 5.532-.583 6.72.053 1.764.942 1.757.912 1.83 7.81l.064 6.119h-.968c-.532 0-1.275.063-1.652.14-.67.136-.684.122-.684-.709v-.848l-.493.46c-1.24 1.156-3.567 1.552-5.09.867zm4.726-2.985c.604-.55.696-.795.803-2.153l.12-1.532-1.413.116c-2.015.165-2.812.822-2.812 2.319 0 1.746 1.947 2.484 3.302 1.25zm39.88 2.94c-.943-.49-1.73-1.465-2.01-2.493-.126-.466-.226-3.207-.227-6.24l-.002-5.411h3.722l.003 4.964c.002 3.55.082 5.123.28 5.522.58 1.17 2.822 1.287 3.79.2.378-.427.421-.927.482-5.577l.066-5.11h3.699v14.28h-1.177c-.647 0-1.485.063-1.86.14-.666.135-.685.117-.685-.665v-.804l-1.002.72c-.887.636-1.194.726-2.682.782-1.234.047-1.871-.036-2.398-.309zm15.546-.321c-2.383-1.214-3.245-3.249-3.074-7.26.195-4.605 2.192-6.78 6.23-6.784 2.387-.002 3.787.695 4.695 2.34.619 1.123 1.072 3.212 1.075 4.96l.002.943-4.215.06-4.215.062.072.78c.18 1.959 1.553 2.969 4.01 2.953 1.168-.007 1.786-.139 2.61-.555l1.081-.544-.003 1.025c-.005 1.746-.148 1.992-1.375 2.364-.67.202-1.991.335-3.334.335-2.04 0-2.334-.056-3.559-.68zm5.155-9.368c-.172-1.828-1.279-2.653-2.935-2.187-.407.114-.902.458-1.098.764-.377.586-.753 2.228-.557 2.428.064.065 1.146.118 2.406.118h2.29zM3.642 15.332c1.436-4.385 2.61-8.18 2.61-8.433 0-.636-.412-.997-1.138-.997-.555 0-.613-.074-.613-.78V4.34h4.016c3.72 0 4.046.032 4.408.44.31.348 5.37 17.645 5.37 18.354 0 .094-1.077.17-2.393.17h-2.393l-.36-1.283-.64-2.287-.281-1.004H6.816l-.642 2.287-.641 2.287H1.032zm7.865.234c0-.315-1.58-6.218-1.746-6.52-.117-.215-.283.07-.518.892-.19.664-.634 2.161-.987 3.327s-.598 2.195-.544 2.287c.124.21 3.795.223 3.795.014zm8.32-.39c0-4.742-.089-8.368-.213-8.701-.132-.355-.383-.573-.657-.573-.36 0-.443-.145-.443-.78V4.34h2.474c1.632 0 2.563.09 2.737.267.195.2.262 2.613.262 9.483v9.214h-4.16zm7.445-.14c0-5.275-.082-8.427-.227-8.702-.125-.237-.42-.432-.657-.432-.346 0-.43-.153-.43-.78V4.34h2.474c1.632 0 2.564.09 2.737.267.196.2.263 2.613.263 9.483v9.214h-4.16zm7.663 2.594c0-5.868-.114-6.775-.879-6.978-.326-.087-.435-.305-.435-.871v-.755h2.375c2.022 0 2.428.06 2.737.408.32.36.362 1.189.362 7.14v6.731h-4.16zm7.705 5.238c-.944-.606-1.356-1.658-1.356-3.467 0-3.122 1.141-4.188 5.359-5.005 1.953-.378 1.977-.39 2.043-1.07.14-1.441-1.43-1.768-4.198-.872l-1.63.528-.456-1.253c-.43-1.184-.435-1.269-.075-1.542 1.587-1.205 7.267-1.74 8.787-.826 1.613.967 1.653 1.121 1.775 6.829.113 5.294.159 5.539 1.04 5.55.166.002.274.31.274.784v.781h-2.141c-2.295 0-3.114-.294-3.114-1.119 0-.38-.113-.353-1.101.273-.929.588-1.366.711-2.792.786-1.43.074-1.802.016-2.415-.377zm5.235-2.973c.71-.486.747-.58.81-2.027.058-1.37.027-1.505-.329-1.4l-1.32.387c-1.262.37-1.701.92-1.701 2.131 0 1.503 1.099 1.897 2.54.909zm8.517-2.453c0-4.945-.053-5.94-.34-6.358-.188-.273-.484-.496-.658-.496-.215 0-.316-.25-.316-.781v-.781h2.204c2.549 0 3.051.185 3.051 1.123 0 .364.049.662.108.662s.547-.342 1.085-.76c1.684-1.31 4.434-1.557 5.733-.516 1.09.874 1.175 1.445 1.175 7.85v5.92h-4.13l-.07-5.098c-.079-5.792-.123-5.96-1.528-5.769-.45.062-1.12.33-1.487.597l-.667.484v9.786h-4.16zm14.013 4.423v-1.44l2.22-3.19a768.26 768.26 0 0 1 2.981-4.258l.76-1.069-1.94.065c-1.772.06-1.96.109-2.157.567-.16.373-.4.502-.93.502h-.715v-1.657c0-2.461-.243-2.359 5.599-2.359h4.91v2.956l-2.846 4.072c-1.565 2.24-2.846 4.135-2.846 4.211 0 .077 1.33.14 2.956.14h2.955v2.9H70.405zm52.548-8.15v-9.63l4.434.072c4.259.07 4.472.094 5.403.63 1.306.75 1.986 2.064 1.986 3.835 0 2.132-.694 3.417-2.299 4.256-.481.252-.777.483-.656.514.12.032.488.118.817.191.802.18 2.134 1.402 2.5 2.293.162.397.295 1.366.295 2.153 0 2.075-.785 3.533-2.408 4.47l-1.204.695-4.434.075-4.434.076zm7.366 6.548c.926-.448 1.393-1.316 1.389-2.58-.006-2.005-1.065-2.855-3.555-2.856h-1.478v5.8h1.445c.884 0 1.738-.141 2.2-.364zm-.671-8.536c1.093-.506 1.51-1.385 1.349-2.841-.172-1.556-.69-1.953-2.682-2.056l-1.64-.084v2.553c0 1.404.066 2.62.146 2.702.287.292 1.95.131 2.827-.274zm22.207 4.439v-7.14h3.503v.67c0 .74.235.852.67.318.582-.716 1.912-1.211 3.248-1.211 2.124 0 3.218.642 3.988 2.342.359.792.405 1.527.409 6.527l.005 5.633h-3.503l-.013-4.63c-.014-5.38-.14-5.995-1.36-6.601-.735-.366-.924-.379-1.75-.112-1.563.504-1.693 1.011-1.694 6.602v4.741h-3.503zM34.815 7.363c-.66-.674-.743-2.094-.153-2.638 1.022-.943 3.044-1.017 3.963-.144.717.681.659 2.253-.107 2.867-.88.705-2.974.657-3.703-.085z" fill="#003781"/></svg>