<svg xmlns="http://www.w3.org/2000/svg" fill-rule="evenodd" stroke-linejoin="round" stroke-miterlimit="1.414" clip-rule="evenodd" viewBox="0 0 24 24"><path fill-rule="nonzero" d="M23.849 15.82l-1.943-1.88-2.463-4.673A.499.499 0 0 0 19.001 9h-4.5a.5.5 0 0 0-.5.5L14 14.999 2.903.204c-.009-.012-.02-.017-.03-.028A.505.505 0 0 0 2.81.117a.492.492 0 0 0-.096-.065C2.697.044 2.68.039 2.662.033a.429.429 0 0 0-.126-.026C2.523.006 2.513 0 2.5 0c-.014 0-.025.007-.039.008a.523.523 0 0 0-.086.017.504.504 0 0 0-.103.037c-.013.007-.023.016-.035.023-.037.024-.074.048-.104.081-.024.025-.04.057-.059.087-.011.019-.027.035-.035.055a.45.45 0 0 0-.037.185L2 .5V10a.5.5 0 0 0 .5.5c.797 0 1.5.764 1.5 1.625s-.703 1.625-1.5 1.625c-.904 0-1.5-.493-1.5-1.25a.5.5 0 0 0-1 0c0 1.356 1.081 2.25 2.5 2.25 1.369 0 2.5-1.229 2.5-2.625 0-1.221-.866-2.315-2-2.569V3.252L7.781 16H.5a.5.5 0 0 0-.5.5v4.958c0 .298.224.54.5.54h2.21a2.498 2.498 0 0 0 4.595-.031.425.425 0 0 0 .15.033h9.09a.425.425 0 0 0 .15-.033A2.5 2.5 0 0 0 19 23.5a2.5 2.5 0 0 0 2.289-1.5h2.212a.5.5 0 0 0 .5-.5v-5.321a.5.5 0 0 0-.152-.359zM4.196 3.594L13.501 16H8.849L4.196 3.594zM5 22.5a1.5 1.5 0 1 1 .001-3.001A1.5 1.5 0 0 1 5 22.5zm14 0a1.5 1.5 0 1 1 .001-3.001A1.5 1.5 0 0 1 19 22.5zm4.001-1.5H21.5a2.5 2.5 0 0 0-5 0h-9a2.5 2.5 0 0 0-5 0l.001.007H1V17h7.492c.004 0 .007.004.011.004h6c.019 0 .031-.013.049-.014a.487.487 0 0 0 .263-.11c.012-.01.027-.015.039-.026.014-.015.022-.036.035-.052a.226.226 0 0 1 .013-.02c.019-.027.04-.05.054-.08A.505.505 0 0 0 15 16.5v-.017-.023l.001-6.46h3.698l2.36 4.477.094.126 1.848 1.788V21z"/><path fill="none" d="M0-.002h24v24H0z"/></svg>