<!-- Generated by IcoMoon.io -->
<svg version="1.1" xmlns="http://www.w3.org/2000/svg" width="1024" height="1024" viewBox="0 0 1024 1024">
<title></title>
<g id="icomoon-ignore">
</g>
<path d="M766.509 894.314h64.843c-0.131 6.073-1.020 12.349-2.463 18.879-2.099 9.495-5.295 17.45-9.85 22.16s-10.065 7.388-22.983 7.388c-12.814 0-16.816-3.135-20.52-7.388s-6.885-11.713-8.207-21.341c-0.91-6.614-1.155-13.476-0.822-19.698zM471.848 894.314h64.022c-0.131 6.073-0.197 12.349-1.64 18.879-2.099 9.495-6.115 17.45-10.67 22.16s-9.245 7.388-22.16 7.388c-12.814 0-16.82-3.136-20.52-7.388s-6.887-11.713-8.207-21.341c-0.908-6.614-1.155-13.476-0.822-19.698zM434.093 721.951h448.968c4.904 0 8.336 1.845 13.953 13.132s9.257 30.074 9.028 48.427c-0.228 18.352-4.479 35.642-10.67 46.785s-10.522 14.775-18.879 14.775h-15.595c-1.846-0.491-3.97-0.77-6.156-0.77s-4.307 0.283-6.33 0.81l-2.289-0.040h-89.466c-3.227-1.65-7.040-2.618-11.082-2.618s-7.852 0.968-11.221 2.684l-168.12-0.066c-1.846-0.491-3.97-0.77-6.156-0.77s-4.307 0.283-6.33 0.81l-92.574-0.040c-3.121-1.525-6.793-2.416-10.67-2.416s-7.548 0.891-10.816 2.481l-7.241-0.065c-0.526-0.58-1.065-1.114-1.623-1.625 2.137 1.562-3.372-5.205-4.944-18.895s-1.005-32.914 0.822-53.352c1.457-16.313 4.698-32.862 7.388-49.246zM544.897 552.87h159.231c-1.594 0 0.233 0.266 5.745 9.028s12.006 22.857 16.416 37.755c8.82 29.797 12.313 60.737 12.313 60.737 0.531 4.695 2.299 8.895 4.967 12.371l-301.272-0.058c0.944-4.806 2.497-11.535 3.285-15.595 8.253-42.553 14.337-69.883 24.623-82.9s26.582-21.341 74.69-21.341zM544.897 503.621c-54.422 0-92.078 12.361-114.089 40.217s-26.31 62.151-34.473 104.238c-1.216 6.274-3.398 16.476-4.925 24.623h-60.737c-0.104-0.002-0.225-0.002-0.347-0.002-13.601 0-24.625 11.025-24.625 24.625s11.025 24.625 24.625 24.625c0.123 0 0.245-0.001 0.367-0.003h52.513c-2.202 14.872-4.391 29.981-5.745 45.142-1.995 22.326-2.229 44.634 0 64.022s5.625 37.573 23.804 50.889c3.92 6.753 10.773 11.431 18.766 12.302 0.477 0.030 0.91 0.042 1.34 0.042s0.862-0.012 1.291-0.034c-0.432 8.474-0.581 17.316 0.762 27.088 2.122 15.48 7.828 32.204 20.52 46.785s33.448 23.804 57.455 23.804c23.921 0 44.102-8.355 57.455-22.16s20.445-31.59 23.804-46.785c2.335-10.565 2.205-19.802 2.463-28.726h132.146c-0.37 8.458-0.521 17.329 0.822 27.086 2.128 15.48 7.825 32.205 20.52 46.785s33.448 23.804 57.455 23.804c23.921 0 44.102-8.355 57.455-22.16s20.445-31.59 23.804-46.785c2.337-10.572 3.025-19.798 3.285-28.726 25.858-1.8 46.258-20.067 57.455-40.217 11.806-21.251 16.928-45.752 17.235-70.587s-3.449-49.482-13.953-70.587c-10.505-21.105-31.201-40.217-58.275-40.217h-100.135c3.186-4.13 5.105-9.378 5.105-15.075 0-1.051-0.066-2.085-0.194-3.104 0.013 0.121-3.695-34.208-13.94-68.825-5.123-17.308-12.477-34.673-22.16-50.067s-24.555-32.011-47.605-32.011h-159.231zM172.273 848c-11.222-2.449-19.5-12.302-19.5-24.086 0-0.19 0.002-0.376 0.007-0.564l-0.001-287.246c0-24.548-18.935-46.459-34.882-48.222-10.841-1.208-20.885-4.011-29.752-10.259s-16.211-15.761-18.466-26.675c-4.515-21.83 6.783-41.192 22.572-57.455l324.209-334.469c34.501-35.673 92.199-36.004 127.221-1.026l336.522 335.496c15.655 15.675 27.602 32.838 22.572 55.402-2.515 11.282-11.083 21.647-20.52 26.675s-19.209 6.156-29.752 6.156c-11.172 0-21.165 3.555-26.675 7.183s-6.156 6.112-6.156 6.156v36.936c0.002 0.104 0.002 0.225 0.002 0.347 0 13.601-11.025 24.625-24.625 24.625s-24.625-11.025-24.625-24.625c0-0.123 0.001-0.245 0.003-0.367v-36.915c0-20.476 13.668-37.286 28.726-47.195 14.178-9.33 31.595-13.803 50.272-14.363-1.035-2.076 0.579-0.441-4.103-5.13l-336.522-335.496c-16.064-16.041-40.634-16.334-56.429 0l-325.236 334.469c-7.713 7.944-6.825 11.033-7.183 11.287 1.142 0.384 0.683 0.76 3.077 1.026 46.497 5.134 79.001 48.696 79.001 96.441v287.274c0.004 0.162 0.007 0.348 0.007 0.538 0 13.601-11.025 24.625-24.625 24.625-1.817 0-3.59-0.196-5.295-0.571z"></path>
</svg>
