<svg xmlns="http://www.w3.org/2000/svg" fill-rule="evenodd" stroke-linejoin="round" stroke-miterlimit="1.414" clip-rule="evenodd" viewBox="0 0 24 24"><path d="M11.995 1.253L21.398 12H20.5a.5.5 0 0 0-.5.5V22h-5v-6.5c0-.277-.223-.5-.5-.5h-5a.5.5 0 0 0-.5.5V22H4v-9.5c0-.277-.223-.5-.5-.5h-1l2.4-3.201A.496.496 0 0 0 5 8.5V4h2v1.5a.5.5 0 0 0 .872.334l4.123-4.581zM7.5 3h-3a.5.5 0 0 0-.5.5v4.833L1.1 12.2a.502.502 0 0 0 .4.8H3v9.5a.5.5 0 0 0 .5.5h6a.5.5 0 0 0 .5-.5V16h4v6.5a.5.5 0 0 0 .5.5h6a.5.5 0 0 0 .5-.5V13h1.5a.499.499 0 0 0 .455-.294.499.499 0 0 0-.078-.536l-10.5-12a.502.502 0 0 0-.748-.005L8 4.196V3.5c0-.277-.223-.5-.5-.5"/><path fill="none" d="M0 0h24v24H0z"/></svg>