<svg xmlns="http://www.w3.org/2000/svg" fill-rule="evenodd" stroke-linejoin="round" stroke-miterlimit="1.414" clip-rule="evenodd" viewBox="0 0 24 24"><path d="M2 14.998h20v1.975H2v-1.975zm8.109 5.003a2.29 2.29 0 0 0 .257-1.055v-.973h3.268v.973c0 .294.127.69.353 1.055h-3.878zM2 3.999h20v9.999H2V3.999zm20.17 13.974c.457 0 .83-.361.83-.804V3.803a.818.818 0 0 0-.83-.804H1.83c-.457 0-.83.36-.83.804v13.366c0 .443.373.804.83.804h7.536v.973c0 .011-.024 1.055-.894 1.055a.5.5 0 0 0 0 1H15.5a.5.5 0 0 0 0-1c-.436 0-.866-.775-.866-1.055v-.973h7.536z"/><path fill="none" d="M0 0h24v24H0z"/></svg>