<svg xmlns="http://www.w3.org/2000/svg" fill-rule="evenodd" stroke-linejoin="round" stroke-miterlimit="1.414" clip-rule="evenodd" viewBox="0 0 24 24"><path fill-rule="nonzero" d="M.429 16.143a.429.429 0 0 0-.429.428c0 1.046 1.559 1.715 3.429 1.715 1.869 0 3.428-.669 3.428-1.715a.428.428 0 0 0-.857 0c0 .374-1.128.858-2.572.858-1.444 0-2.571-.484-2.571-.858a.428.428 0 0 0-.428-.428zm17.142 0a.428.428 0 0 0-.428.428c0 1.046 1.559 1.715 3.428 1.715 1.87 0 3.429-.669 3.429-1.715a.429.429 0 0 0-.857 0c0 .374-1.128.858-2.572.858-1.444 0-2.571-.484-2.571-.858a.429.429 0 0 0-.429-.428zm-8.571 0a.429.429 0 0 0-.429.428c0 1.046 1.56 1.715 3.429 1.715 1.869 0 3.429-.669 3.429-1.715a.429.429 0 0 0-.858 0c0 .374-1.127.858-2.571.858-1.444 0-2.571-.484-2.571-.858A.429.429 0 0 0 9 16.143zm8.571-1.714a.428.428 0 0 0-.428.428c0 1.046 1.559 1.714 3.428 1.714 1.87 0 3.429-.668 3.429-1.714a.428.428 0 1 0-.857 0c0 .374-1.128.857-2.572.857-1.444 0-2.571-.483-2.571-.857a.428.428 0 0 0-.429-.428zM3.429 13.143c1.869 0 3.428.668 3.428 1.714 0 1.046-1.559 1.714-3.428 1.714-1.87 0-3.429-.668-3.429-1.714 0-1.046 1.559-1.714 3.429-1.714zM9 14.429a.428.428 0 0 0-.429.428c0 1.046 1.56 1.714 3.429 1.714 1.869 0 3.429-.668 3.429-1.714a.428.428 0 0 0-.858 0c0 .374-1.127.857-2.571.857-1.444 0-2.571-.483-2.571-.857A.428.428 0 0 0 9 14.429zm-5.571 1.285c1.444 0 2.571-.483 2.571-.857S4.873 14 3.429 14c-1.445 0-2.572.483-2.572.857s1.127.857 2.572.857zM12 11.429c1.87 0 3.429.667 3.429 1.714 0 1.046-1.559 1.714-3.429 1.714-1.87 0-3.429-.668-3.429-1.714 0-1.047 1.559-1.714 3.429-1.714zm5.571 1.285a.429.429 0 0 0-.428.429c0 1.046 1.559 1.714 3.428 1.714 1.87 0 3.429-.668 3.429-1.714a.429.429 0 1 0-.857 0c0 .374-1.127.857-2.572.857-1.444 0-2.571-.483-2.571-.857a.429.429 0 0 0-.429-.429zM12 14c1.445 0 2.571-.483 2.571-.857s-1.126-.857-2.571-.857c-1.445 0-2.571.482-2.571.857 0 .374 1.126.857 2.571.857zm5.571-3a.429.429 0 0 0-.428.429c0 1.046 1.559 1.714 3.428 1.714 1.87 0 3.429-.668 3.429-1.714a.429.429 0 1 0-.857 0c0 .374-1.127.857-2.572.857-1.444 0-2.571-.483-2.571-.857a.429.429 0 0 0-.429-.429zm3-3C22.441 8 24 8.668 24 9.714c0 1.047-1.559 1.715-3.428 1.715-1.87 0-3.429-.668-3.429-1.715C17.143 8.668 18.702 8 20.571 8zm0 2.571c1.445 0 2.572-.482 2.572-.857 0-.374-1.127-.857-2.572-.857-1.444 0-2.571.483-2.571.857 0 .375 1.127.857 2.571.857z"/><path fill="none" d="M0-.002h24v24H0z"/></svg>