<svg xmlns="http://www.w3.org/2000/svg" fill-rule="evenodd" stroke-linejoin="round" stroke-miterlimit="1.414" clip-rule="evenodd" viewBox="0 0 24 24"><path d="M10 8c0 .353-1.139 1-3 1s-3-.647-3-1 1.139-1 3-1 3 .647 3 1M3 8c0 1.313 2.012 2 4 2s4-.687 4-2c0-2.627-8-2.627-8 0"/><path d="M7 12c1.988 0 4-.687 4-2a.5.5 0 0 0-1 0c0 .353-1.139 1-3 1s-3-.647-3-1a.5.5 0 0 0-1 0c0 1.313 2.012 2 4 2"/><path d="M7 14c1.988 0 4-.687 4-2a.5.5 0 0 0-1 0c0 .353-1.139 1-3 1s-3-.647-3-1a.5.5 0 0 0-1 0c0 1.313 2.012 2 4 2"/><path d="M7 16c1.988 0 4-.687 4-2a.5.5 0 0 0-1 0c0 .353-1.139 1-3 1s-3-.647-3-1a.5.5 0 0 0-1 0c0 1.313 2.012 2 4 2"/><path d="M11 16a.5.5 0 0 0-1 0c0 .353-1.139 1-3 1s-3-.647-3-1a.5.5 0 0 0-1 0c0 1.313 2.012 2 4 2s4-.687 4-2M17 13c-1.861 0-3-.647-3-1s1.139-1 3-1 3 .647 3 1-1.139 1-3 1m-4-1c0 1.313 2.012 2 4 2s4-.687 4-2c0-2.627-8-2.627-8 0"/><path d="M20.5 13.5a.5.5 0 0 0-.5.5c0 .353-1.139 1-3 1s-3-.647-3-1a.5.5 0 0 0-1 0c0 1.313 2.012 2 4 2s4-.687 4-2a.5.5 0 0 0-.5-.5"/><path d="M20.5 15.5a.5.5 0 0 0-.5.5c0 .353-1.139 1-3 1s-3-.647-3-1a.5.5 0 0 0-1 0c0 1.313 2.012 2 4 2s4-.687 4-2a.5.5 0 0 0-.5-.5M9 2.5a.5.5 0 0 0 .5.5h3.793l-1.147 1.146a.502.502 0 0 0 .708.708l2-2a.502.502 0 0 0 0-.708l-2-2a.502.502 0 0 0-.708.708L13.293 2H9.5a.5.5 0 0 0-.5.5M14.5 21h-3.793l1.147-1.146a.502.502 0 0 0-.708-.708l-2 2a.502.502 0 0 0 0 .708l2 2a.502.502 0 0 0 .708 0 .502.502 0 0 0 0-.708L10.707 22H14.5a.5.5 0 0 0 0-1"/><path fill="none" d="M0 0h24v24H0z"/></svg>