<svg xmlns="http://www.w3.org/2000/svg" viewBox="0 0 1024 1024"><path d="M1024 601.516c0-91.349-51.029-172.928-130.859-227.413 5.589 25.429 8.875 51.413 8.875 78.165 0 206.507-175.317 378.752-406.272 415.744 48.853 19.669 103.509 31.232 161.835 31.232 54.827 0 106.88-10.069 153.643-27.733 59.392 20.011 124.075 25.258 177.664 25.258-27.947-33.237-47.147-66.176-61.056-94.934 59.563-52.821 96.171-123.094 96.171-200.32zM806.016 452.267c0-180.779-180.352-327.51-402.986-327.51S0 271.445 0 452.267c0 94.251 49.323 179.072 127.915 238.763-14.763 38.187-39.765 88.021-82.176 139.008 80.512 0 184.107-10.496 264.021-59.563 30.038 5.846 61.142 9.13 93.312 9.13 222.549-.042 402.944-146.603 402.944-327.339z"/></svg>
