<svg xmlns="http://www.w3.org/2000/svg" width="1024" height="1024"><path d="M453.644 364.176c-2.601-.263-5.516-.059-8.167.74-1.515.536-22.897 7.335-45.289 25.985-22.362 18.323-45.437 50.247-45.289 97.26 0 8.272.746 16.926 2.227 25.985l-10.394 4.455c-10.364 4.009-15.948 15.62-11.879 25.985 4.009 10.335 15.592 15.888 25.985 11.879l6.682-2.97c2.384 6.471 5.343 12.076 8.167 17.818l-7.425 2.97c-10.394 4.01-15.205 15.62-11.137 25.985 4.009 10.335 15.591 15.887 25.985 11.879l15.592-5.939c8.687 9.737 18.319 18.433 28.213 24.5 24.798 15.324 50.902 19.304 72.758 19.304 32.133-.059 55.773-9.147 57.168-9.651 10.394-3.92 15.829-14.818 11.879-25.243-3.92-10.424-15.591-15.739-25.985-11.879-1.068.445-20.165 6.712-43.062 6.682-16.72-.023-35.37-3.059-51.971-13.363-2.85-1.787-5.374-4.442-8.167-6.682l39.35-14.849c10.364-4.009 15.948-15.651 11.879-25.985-4.01-10.394-15.592-15.887-25.985-11.879l-51.971 20.046c-2.718-5.243-5.041-11.403-7.425-17.818l51.228-20.046c10.335-4.01 15.888-15.62 11.879-25.985s-15.62-15.888-25.985-11.879l-46.031 17.818c-.339-3.668-1.486-7.784-1.486-11.137.176-33.558 15.116-53.07 31.183-66.82 7.959-6.682 16.215-11.166 22.273-14.105 2.999-1.483 5.791-2.317 7.424-2.97l1.486-.74h.74c10.238-3.521 15.828-14.807 12.621-25.243-2.496-7.951-9.273-13.338-17.076-14.105zM795.91 155.549c-2.777-.205-5.494-.205-8.167.74-51.495 18.205-137.441 59.989-265.052 107.654-127.402 47.635-295.343 101.18-506.345 142.548-9.652 1.84-16.66 10.187-16.333 20.046 1.753 53.01 15.798 114.574 33.41 173.732 17.641 59.039 38.696 115.435 56.426 158.882 4.187 10.275 16.422 15.294 26.728 11.137 10.275-4.217 15.353-15.681 11.137-25.985-17.373-42.646-38.577-98.686-55.683-155.912-15.222-50.901-26.972-102.292-30.44-146.261 28.013-5.64 55.15-11.069 81.667-17.076 1.913 3.434 4.256 7.071 7.425 14.849 15.235 37.182 37.656 112.018 56.426 186.352 15.547 61.255 28.758 122.029 35.637 163.337-.591.146-1.638.597-2.227.74-50.604 12.621-82.322 20.017-82.411 20.046-10.81 2.554-17.373 12.918-14.849 23.758 2.554 10.78 12.948 18.115 23.758 15.592h.74c.023.74-.117 1.478 0 2.227 1.723 10.988 12.027 18.115 23.016 16.333.146-.024 182.106-29.193 377.903-69.047 97.942-19.928 199.301-42.318 283.612-65.335 42.171-11.523 80.064-23.313 111.367-34.895 31.331-11.731 55.742-22.749 72.758-35.637 5.673-4.336 8.286-11.493 7.425-18.561-6.296-50.336-28.094-148.845-51.971-237.582-11.909-44.309-24.59-86.064-35.637-118.048-5.554-16.007-10.632-29.431-15.592-40.092-2.496-5.316-4.722-9.919-7.424-14.105-2.94-4.157-5.494-7.632-12.621-11.879-2.244-1.232-4.165-2.665-6.682-2.97s-4.945.059-7.424.74c-11.418 3.012-29.288 8.511-44.546 13.364-1.05-3.203-1.946-7.367-2.97-10.394-5.405-15.888-10.127-28.837-14.849-39.35-2.405-5.251-4.841-10.003-7.424-14.102-2.882-4.068-5.197-8.137-12.621-12.621-2.496-1.352-5.39-2.007-8.167-2.227zM787 200.097c1.249 2.653 2.338 5.43 3.712 8.909 14.7 35.993 35.964 110.713 54.941 185.61 17.625 69.485 33.061 138.693 39.35 179.67-10.908 7.819-27.838 16.432-48.259 25.985-94.26 44.456-270.1 97.646-420.964 138.837-59.396 16.192-108.087 28.444-153.685 40.092-9.353-53.99-28.251-133.408-48.259-207.883-11.879-44.309-23.817-86.064-34.895-118.048-5.251-15.134-10.147-27.5-14.849-37.864 149.094-35.721 273.48-76.497 372.705-113.593C655.058 257.6 737.345 219.077 787 200.097zm96.518 63.85c1.595 3.246 3.341 7.245 5.197 11.879 15.295 37.182 36.885 112.019 55.684 186.352 17.276 67.962 31.841 135.456 37.864 175.959-12.144 7.048-30.595 14.886-52.713 23.016-103.822 38.607-296.026 80.807-461.056 112.851-34.004 6.612-65.764 12.874-96.517 18.561 38.427-10.267 79.306-21.592 121.017-33.41 89.538-25.362 182.106-53.07 259.112-80.926 38.518-13.869 73.146-28.153 101.714-41.576 28.629-13.572 50.604-26.045 66.077-40.092 4.841-4.484 7.573-10.513 6.682-17.076-6.771-50.426-29.015-148.962-52.713-237.582-6.488-24.228-12.878-47.477-19.304-69.047 11.566-3.72 17.101-5.404 28.955-8.909z"/></svg>