<svg xmlns="http://www.w3.org/2000/svg" width="1024" height="1024"><path d="M520.646 944.432q0-8.649-8.649-8.649-31.892 0-54.865-22.974t-22.973-54.864q0-8.649-8.649-8.649t-8.649 8.649q0 39.46 27.838 67.296 27.838 27.839 67.297 27.839 8.649 0 8.649-8.649zm-360-155.675h702.703q-143.784-162.163-143.784-449.73 0-27.568-12.973-56.757t-37.297-55.675-65.676-43.514q-41.351-17.026-91.622-17.026t-91.622 17.026q-41.351 17.029-65.676 43.514t-37.297 55.675-12.973 56.757q0 287.567-143.784 449.73zm801.081 0q0 28.107-20.541 48.648t-48.649 20.541H650.375q0 57.297-40.541 97.839-40.541 40.539-97.838 40.539t-97.838-40.539q-40.541-40.542-40.541-97.839H131.455q-28.108 0-48.649-20.541t-20.541-48.648q27.027-22.702 49.189-47.566 22.162-24.867 45.946-64.595 23.784-39.731 40.27-85.676 16.486-45.947 27.027-111.353t10.541-140.54q0-82.161 63.243-152.703 63.243-70.54 165.946-85.676-4.324-10.27-4.324-21.081 0-21.62 15.135-36.756t36.757-15.136 36.757 15.136 15.135 36.756q0 10.81-4.324 21.081 102.703 15.136 165.946 85.676 63.243 70.543 63.243 152.703 0 75.134 10.541 140.54T826.32 590.92q16.486 45.944 40.27 85.676 23.784 39.728 45.946 64.595 22.162 24.864 49.189 47.566z"/></svg>