<svg xmlns="http://www.w3.org/2000/svg" width="1600" height="1600"><path d="M797.37 122.272c-7.959 0-15.941 2.677-23.897 7.981L57.292 559.944c-15.113 11.334-22.148 28.078-19.203 46.341-1.303 3.897-2.019 7.944-2.019 12.017v811.68c0 15.917 5.308 26.528 15.917 31.831 5.305 10.611 21.222 15.917 31.831 15.917h1432.364c26.525 0 47.75-21.222 47.75-42.444v-811.68c0-5.416-1.273-10.803-3.522-16.009 3.098-17.358-6.889-35.567-23.005-47.655L821.224 130.251c-7.959-5.305-15.894-7.981-23.852-7.981zm2.628 108.783l636.598 381.942-176.812 106.109h-919.57L163.401 612.997l636.598-381.942zM131.567 703.191l647.211 387.292c15.917 10.611 31.833 10.611 47.75 0l641.906-387.292v679.044H131.567V703.191z"/></svg>