<svg xmlns="http://www.w3.org/2000/svg" width="1024" height="1024"><path d="M974.96 476.022L789.533 296.13V149.449c0-11.07-8.303-19.373-19.373-19.373H656.69c-11.07 0-19.373 8.303-19.373 19.373L576.431 91.33c-16.605-16.605-35.978-24.908-58.119-24.908s-44.281 8.303-58.119 24.908L47.825 481.557c-16.605 11.07-24.908 33.211-16.605 52.584s30.443 27.676 49.816 24.908h33.211c24.908 0 44.281 19.373 44.281 44.281v332.108c2.768 11.07 11.07 19.373 22.141 16.605 8.303 0 16.605-8.303 16.605-16.605V597.795c0-47.049-38.746-83.027-83.027-83.027H81.036c-5.535 0-11.07 0-13.838-2.768 2.768-2.768 5.535-8.303 8.303-11.07l412.368-390.227c8.303-8.303 19.373-13.838 30.443-13.838s22.141 5.535 30.443 13.838l88.562 85.795v141.146c2.768 11.07 11.07 19.373 22.141 16.605 8.303 0 16.605-8.303 16.605-16.605V163.287h77.492v174.357c0 11.07 8.303 19.373 16.605 19.373s16.605-5.535 19.373-13.838l160.519 154.984c5.535 0 11.07 5.535 8.303 11.07 0 5.535-5.535 11.07-11.07 8.303-2.768 0-2.768 0-5.535-2.768l-33.211 2.768c-44.281 5.535-80.259 41.514-80.259 88.562v312.735h-91.33V603.33c0-11.07-8.303-19.373-19.373-19.373l-207.568-2.768c-11.07 0-19.373 8.303-19.373 19.373l-2.768 318.27H258.16c-11.07-2.768-19.373 5.535-22.141 16.605s5.535 19.373 16.605 22.141h249.081c11.07 0 19.373-8.303 19.373-19.373l2.768-318.27 171.589 2.768v315.503c0 11.07 8.303 19.373 19.373 19.373h130.076c11.07 0 19.373-8.303 19.373-19.373V608.865c0-24.908 19.373-47.049 47.049-49.816l33.211-2.768c22.141 0 38.746-11.07 49.816-30.443 5.535-16.605-2.768-38.746-19.373-49.816zM413.144 866.249c11.07 0 19.373-8.303 19.373-19.373V608.865c0-11.07-8.303-19.373-19.373-19.373H269.23c-11.07 0-19.373 8.303-19.373 19.373v238.011c0 11.07 8.303 19.373 19.373 19.373h143.914zM288.603 628.238h105.168v199.265H288.603V628.238zm368.087-523.07h113.47c11.07 2.768 19.373-5.535 22.141-16.605s-5.535-19.373-16.605-22.141H656.691c-11.07 0-19.373 8.303-19.373 19.373s8.303 19.373 19.373 19.373z"/></svg>