<svg xmlns="http://www.w3.org/2000/svg" width="50" height="50" viewBox="0 0 1024 1024"><path d="M511.986 27.676c-266.381 0-484.31 215.267-484.31 484.339 0 266.38 215.239 484.31 484.31 484.31 266.378 0 484.338-215.238 484.338-484.31-2.685-269.071-217.96-484.339-484.338-484.339zm0 45.751c242.162 0 438.588 196.424 438.588 438.588 0 126.122-54.488 241.045-141.439 321.586-6.695-3.173-13.414-6.162-20.106-9.05-35.691-15.403-70.772-27.33-97.9-40.917-26.026-13.035-42.474-26.951-49.584-43.57-2.352-28.278-2.186-50.385-2.048-77.088 2.79-3.035 6.803-5.14 9.404-8.726 5.881-8.098 11.505-18.061 16.744-28.831 9.028-18.549 15.006-40.912 18.778-62.996 6.988-3.477 14.375-4.099 20.106-11.408 10.348-13.197 17.621-31.941 20.782-58.31 2.828-23.472-4.993-39.629-14.74-51.618 10.475-34.019 23.868-89.032 19.456-145.479-2.408-30.809-10.331-61.592-28.83-87.169-16.949-23.437-44.444-40.55-79.122-47.579-22.517-29.217-63.142-40.239-109.955-40.239h-.637c-100.222 1.846-164.211 43.023-191.732 105.918-26.212 59.897-20.358 134.928-1.356 213.192-10.24 11.956-18.316 28.749-15.418 52.973 3.172 26.364 10.439 45.114 20.782 58.31 5.729 7.307 13.118 7.93 20.106 11.408 3.844 22.243 10.146 45.087 19.456 63.675 5.394 10.773 11.436 20.086 17.422 28.153 2.657 3.571 6.595 5.718 9.404 8.726.277 26.464.277 48.521-2.02 76.439-6.977 16.815-23.201 30.402-49.584 43.57-27.23 13.59-62.724 26.165-98.548 41.565-8.015 3.445-16.091 7.071-24.114 10.937-87.555-80.193-142.472-195.431-142.472-323.472 0-242.164 196.423-438.588 438.588-438.588zm.277 90.088h.664c43.191.166 71.157 12.837 79.122 26.826l5.364 8.726 10.055 2.004c29.837 4.147 46.924 15.512 58.985 32.191s18.772 39.941 20.784 65.679c4.021 51.475-10.774 112.048-20.106 140.113l-5.364 16.095 14.737 8.726c.526.523 8.018 7.095 6.044 23.465-2.518 21.063-7.55 31.928-11.408 36.849-3.861 4.92-5.878 4.703-6.044 4.717l-18.069 1.326-2.02 18.1c-1.993 18.563-9.451 40.564-18.1 58.339-4.326 8.887-8.801 16.69-12.736 22.109-3.933 5.419-8.07 8.449-6.014 7.37l-11.408 6.043v12.735c0 31.056-1.245 56.54 2.02 92.505v2.682l1.356 2.682c12.246 32.924 40.567 53.466 71.722 69.069 31.152 15.604 66.959 27.717 100.551 42.214 0 .021 0 .028.277.055-72.837 54.19-162.921 86.462-260.417 86.462-96.948 0-186.562-31.489-259.18-84.781 1.301-.57 2.602-1.176 3.922-1.738 33.734-14.501 69.297-26.614 100.551-42.214 31.257-15.6 60.142-36.114 72.4-69.069l1.356-5.365c3.257-35.957 1.993-61.439 1.993-92.505V642.19l-11.408-6.043c1.965 1.024-2.657-1.918-6.692-7.37-4.049-5.452-8.964-13.224-13.414-22.109-8.9-17.772-16.14-39.968-18.1-58.339l-1.993-18.1-18.1-1.326c-.277-.013-2.186.221-6.044-4.717-3.858-4.921-8.842-15.78-11.377-36.849-1.993-16.708 5.842-23.211 6.072-23.495l14.032-8.018-4.038-15.417c-20.198-77.728-23.693-149.085-2.685-197.096 20.95-47.876 63.643-77.99 152.847-79.799z"/></svg>