<?xml version="1.0" encoding="UTF-8" standalone="no"?>
<!-- Generated by IcoMoon.io -->

<svg
   xmlns:dc="http://purl.org/dc/elements/1.1/"
   xmlns:cc="http://creativecommons.org/ns#"
   xmlns:rdf="http://www.w3.org/1999/02/22-rdf-syntax-ns#"
   xmlns:svg="http://www.w3.org/2000/svg"
   xmlns="http://www.w3.org/2000/svg"
   xmlns:sodipodi="http://sodipodi.sourceforge.net/DTD/sodipodi-0.dtd"
   xmlns:inkscape="http://www.inkscape.org/namespaces/inkscape"
   version="1.1"
   width="886"
   height="1024"
   viewBox="0 0 886 1024"
   id="svg7"
   sodipodi:docname="cadenas (copie).svg"
   inkscape:version="0.92.3 (2405546, 2018-03-11)">
  <metadata
     id="metadata13">
    <rdf:RDF>
      <cc:Work
         rdf:about="">
        <dc:format>image/svg+xml</dc:format>
        <dc:type
           rdf:resource="http://purl.org/dc/dcmitype/StillImage" />
      </cc:Work>
    </rdf:RDF>
  </metadata>
  <defs
     id="defs11" />
  <sodipodi:namedview
     pagecolor="#ffffff"
     bordercolor="#666666"
     borderopacity="1"
     objecttolerance="10"
     gridtolerance="10"
     guidetolerance="10"
     inkscape:pageopacity="0"
     inkscape:pageshadow="2"
     inkscape:window-width="1920"
     inkscape:window-height="1052"
     id="namedview9"
     showgrid="false"
     inkscape:zoom="0.76072693"
     inkscape:cx="443"
     inkscape:cy="512"
     inkscape:window-x="0"
     inkscape:window-y="0"
     inkscape:window-maximized="1"
     inkscape:current-layer="svg7" />
  <title
     id="title2" />
  <g
     id="icomoon-ignore" />
  <path
     d="M442.14 27.676c-89.298 0-170.595 38.702-227.459 98.595-57.081 60.108-91.676 160.216-91.676 249.946v66.595h-46.703c-26.811 0-48.432 21.405-48.432 47.568v458.378c0 26.378 21.622 47.568 48.432 47.568h733.405c26.595 0 48.432-21.189 48.432-47.568v-458.378c0-26.378-21.621-47.568-48.432-47.568h-46.703v-66.595c0-89.73-35.459-188.973-92.541-249.081-56.865-60.108-138.162-99.459-227.459-99.459h-0.863zM442.14 138.378h0.863c53.838 0 106.379 23.783 144.432 64 39.568 41.514 60.541 114.811 60.541 173.838v66.595h-410.811v-66.595c0-59.028 21.189-132.324 60.541-173.838 38.054-40.217 90.595-64 144.432-64zM443.003 558.703c44.796 0 81.297 35.637 81.297 80.432 0 34.52-22.364 63.533-52.757 75.243v137.514h-57.946v-137.514c-30.093-11.857-51.892-40.939-51.892-75.243 0-44.796 36.501-80.432 81.297-80.432z"
     id="path5"
     style="fill:#ffffff" />
</svg>
