<!-- Generated by IcoMoon.io -->
<svg version="1.1" xmlns="http://www.w3.org/2000/svg" width="1024" height="1024" viewBox="0 0 1024 1024">
<title></title>
<g id="icomoon-ignore">
</g>
<path d="M727.584 353.898h-421.738v-52.717h421.738v52.717zM701.226 775.636h-52.717v-369.021h52.717v369.021zM569.433 775.636v-369.021h52.717v369.021h-52.717zM490.357 775.636v-369.021h52.717v369.021h-52.717zM411.281 775.636v-369.021h52.717v369.021h-52.717zM332.205 775.636v-369.021h52.717v369.021h-52.717zM463.998 222.105h105.434v26.359h-105.434v-26.359zM753.943 248.463h-158.152v-26.359c0-15.815-10.543-26.359-26.359-26.359h-105.434c-15.815 0-26.359 10.543-26.359 26.359v26.359h-158.152c-15.815 0-26.359 10.543-26.359 26.359v105.435c0 15.815 10.543 26.359 26.359 26.359 0 26.359 0 395.379 0 395.379 0 15.815 13.179 26.358 26.359 26.358h421.738c15.815 0 23.723-10.543 23.723-26.358v-395.379c26.359 0 26.359-10.544 26.359-26.359v-105.435c2.635-15.815-7.908-26.359-23.723-26.359zM512 88.216c233.081 0 423.784 190.703 423.784 423.784s-190.703 423.784-423.784 423.784c-233.081 0-423.784-190.702-423.784-423.784s190.703-423.784 423.784-423.784zM512 27.676c-266.378 0-484.324 217.946-484.324 484.324s217.946 484.324 484.324 484.324c266.378 0 484.324-217.946 484.324-484.324s-217.946-484.324-484.324-484.324z"></path>
</svg>
