<!-- Generated by IcoMoon.io -->
<svg version="1.1" xmlns="http://www.w3.org/2000/svg" width="1029" height="1024" viewBox="0 0 1029 1024">
<title></title>
<g id="icomoon-ignore">
</g>
<path d="M337.685 470.932h354.305v43.452h-354.305zM337.685 370.657h354.305v43.452h-354.305zM512.163 661.744c-5.675 0-11.691 3.025-16.378 7.016l-383.719 327.565h802.534l-386.059-327.565c-4.687-3.991-10.703-7.016-16.378-7.016zM30.175 409.051c-1.766 5.743-2.336 12.258-2.336 18.718v507.725c0 17.226 7.233 31.214 18.718 42.116l325.221-276.091-341.603-292.469zM996.491 406.715l-341.603 294.808 325.225 278.43c12.798-11.003 21.058-26.124 21.058-44.455v-507.725c0-7.778-1.885-14.404-4.679-21.058zM514.502 27.676c-24.495 0-49.083 7.708-67.853 23.398l-376.7 318.206 163.782 140.385v-203.558h561.54v201.218l163.782-142.725-376.699-313.526c-18.77-15.689-43.358-23.398-67.853-23.398z"></path>
</svg>
