<!-- Generated by IcoMoon.io -->
<svg version="1.1" xmlns="http://www.w3.org/2000/svg" width="1024" height="1024" viewBox="0 0 1024 1024">
<g id="icomoon-ignore">
</g>
<path d="M997.881 803.001l-394.741-682.963-18.799-28.196c-40.725-37.593-103.386-37.593-144.111 3.132-6.265 6.265-12.529 15.665-18.799 25.063l-391.608 679.831c-6.265 9.397-12.529 18.799-15.665 31.328-15.665 53.259 18.799 109.651 72.058 125.312 9.397 3.132 18.799 3.132 28.196 3.132h789.482c37.593 3.132 75.19-15.665 97.118-50.127 18.799-34.461 15.665-75.19-3.132-106.518zM534.217 762.276h-43.861v-43.861h43.861v43.861zM537.351 517.911l-12.529 166.042h-25.063l-12.529-166.042v-68.922h46.994v68.922z"></path>
</svg>
