<svg xmlns="http://www.w3.org/2000/svg" fill-rule="evenodd" stroke-linejoin="round" stroke-miterlimit="1.414" clip-rule="evenodd" viewBox="0 0 24 24"><path d="M11.5 17C9.019 17 7 14.757 7 12s2.019-5 4.5-5S16 9.243 16 12s-2.019 5-4.5 5m.643-17C8.712 0 5.611 1.184 3.411 3.332 1.211 5.48 0 8.511 0 11.863c0 3.419 1.206 6.513 3.396 8.709C5.598 22.783 8.705 24 12.143 24c2.278 0 4.768-.497 6.661-1.33a.5.5 0 10-.403-.916C16.629 22.534 14.29 23 12.143 23c-3.17 0-6.025-1.112-8.039-3.133C2.103 17.858 1 15.017 1 11.863c0-3.081 1.104-5.857 3.109-7.816C6.122 2.082 8.975 1 12.143 1c3.064 0 5.835.991 7.804 2.791C21.916 5.592 23 8.125 23 10.925 23 14.615 21.626 17 19.5 17c-.904 0-2.382-.785-2.5-2.863V6.411a.5.5 0 00-1 0v2.143C15.004 7.011 13.358 6 11.5 6 8.467 6 6 8.691 6 12s2.467 6 5.5 6c1.962 0 3.687-1.126 4.661-2.817C16.654 17.02 18.141 18 19.5 18c2.076 0 4.5-1.853 4.5-7.075 0-3.084-1.2-5.88-3.378-7.872C18.468 1.084 15.457 0 12.143 0"/><path fill="none" d="M0 0h24v24H0z"/></svg>