<svg xmlns="http://www.w3.org/2000/svg" viewBox="0 0 24 24" fill-rule="evenodd" clip-rule="evenodd" stroke-linejoin="round" stroke-miterlimit="1.414"><path d="M16.995 9H5.414l2.293-2.293C7.894 6.519 8 6.265 8 6c0-.549-.452-1-1-1a.997.997 0 00-.707.293L2.314 9.271a.983.983 0 000 1.457l3.979 3.979a1 1 0 001.414-1.414L5.414 11H16.99l.002-.001.003.001c1.645 0 3 1.354 3 3 0 1.645-1.355 3-3 3H15c-.549 0-1 .451-1 1 0 .548.451 1 1 1h1.995c2.743 0 5-2.257 5-5s-2.257-5-5-5z" fill-rule="nonzero"/><path fill="none" d="M0 0h24v24H0z"/></svg>