<svg xmlns="http://www.w3.org/2000/svg" fill-rule="evenodd" stroke-linejoin="round" stroke-miterlimit="1.414" clip-rule="evenodd" viewBox="0 0 24 24"><path d="M9.5 12c1.103 0 2 .897 2 2s-.897 2-2 2-2-.897-2-2 .897-2 2-2m0 5c1.654 0 3-1.346 3-3s-1.346-3-3-3-3 1.346-3 3 1.346 3 3 3"/><path d="M22 14h-1V7.5a.5.5 0 00-.5-.5H5V6h17v8zm-2 1.991l-1-.018V9.5a.5.5 0 00-.5-.5H3V8h17v7.991zM18 18H1v-8h17v8zm4.5-13h-18a.5.5 0 00-.5.5V7H2.5a.5.5 0 00-.5.5V9H.5a.5.5 0 00-.5.5v9a.5.5 0 00.5.5h18a.5.5 0 00.5-.5v-1.527l1.491.027h.009a.502.502 0 00.5-.5V15h1.5a.5.5 0 00.5-.5v-9a.5.5 0 00-.5-.5"/><path fill="none" d="M0 0h24v24H0z"/></svg>