<svg xmlns="http://www.w3.org/2000/svg" fill-rule="evenodd" stroke-linejoin="round" stroke-miterlimit="1.414" clip-rule="evenodd" viewBox="0 0 24 24"><path d="M12.057 6.079c.064-.015 6.256-.637 10.847 5.958-.759 1.157-4.237 5.831-10.894 5.904-.07-.001-6.928-.208-10.923-6.092.679-.951 4.358-5.575 10.97-5.77m-.051 12.862c8.172-.09 11.781-6.405 11.931-6.674a.497.497 0 00-.022-.521c-4.941-7.378-11.688-6.694-11.929-6.664C4.859 5.291.63 10.519.093 11.541c-.044.084-.179.34-.011.6 4.265 6.587 11.599 6.794 11.924 6.8"/><path d="M12 8c2.206 0 4 1.794 4 4s-1.794 4-4 4-4-1.794-4-4 1.794-4 4-4m0 9c2.757 0 5-2.243 5-5s-2.243-5-5-5-5 2.243-5 5 2.243 5 5 5"/><path fill="none" d="M0 0h24v24H0z"/></svg>