<svg xmlns="http://www.w3.org/2000/svg" fill-rule="evenodd" stroke-linejoin="round" stroke-miterlimit="1.414" clip-rule="evenodd" viewBox="0 0 24 24"><path d="M8 21.5a.5.5 0 001 0c0-.336 0-.476 1.195-.5h3.723C15 21 15 21.106 15 21.5a.5.5 0 001 0c0-1.5-1.253-1.5-2.082-1.5h-3.732C9.315 20.018 8 20.044 8 21.5m.5-16.001c0 1.379-1.121 2.5-2.5 2.5a2.502 2.502 0 01-2.5-2.5c0-1.378 1.121-2.5 2.5-2.5s2.5 1.122 2.5 2.5m-6 0c0 1.93 1.57 3.5 3.5 3.5s3.5-1.57 3.5-3.5-1.57-3.5-3.5-3.5-3.5 1.57-3.5 3.5M18 8a2.503 2.503 0 01-2.5-2.5C15.5 4.121 16.621 3 18 3s2.5 1.121 2.5 2.5C20.5 6.878 19.379 8 18 8m0-6c-1.93 0-3.5 1.57-3.5 3.5S16.07 9 18 9s3.5-1.57 3.5-3.5S19.93 2 18 2m-6 13a1.501 1.501 0 11-1.5 1.501c0-.828.673-1.501 1.5-1.501m0 4c1.379 0 2.5-1.121 2.5-2.499A2.503 2.503 0 0012 14a2.503 2.503 0 00-2.5 2.501A2.502 2.502 0 0012 19"/><path d="M.497 17.989H.5a.5.5 0 00.5-.497l.027-4.807c0-.929.756-1.685 1.686-1.685h7.101c.838 0 1.686.514 1.686 1.497v.005a.5.5 0 001 0c0-.986.851-1.502 1.69-1.502h7.119c.932 0 1.691.758 1.691 1.687l-.027 4.816a.498.498 0 00.497.503h.003a.5.5 0 00.5-.497L24 12.69A2.694 2.694 0 0021.309 10H14.19c-.926 0-1.71.396-2.189 1.021C11.522 10.396 10.74 10 9.814 10H2.713a2.688 2.688 0 00-2.686 2.682L0 17.486a.5.5 0 00.497.503"/><path fill="none" d="M0 0h24v24H0z"/></svg>