<svg xmlns="http://www.w3.org/2000/svg" fill-rule="evenodd" stroke-linejoin="round" stroke-miterlimit="1.414" clip-rule="evenodd" viewBox="0 0 24 24"><path d="M18 2.5V4H6V2.5C6 1.673 6.673 1 7.5 1h9c.827 0 1.5.673 1.5 1.5M18 19H6V5h12v14zm0 2.5c0 .827-.673 1.5-1.5 1.5h-9c-.827 0-1.5-.673-1.5-1.5V20h12v1.5zM7.5 0A2.503 2.503 0 005 2.5v19C5 22.878 6.122 24 7.5 24h9c1.378 0 2.5-1.122 2.5-2.5v-19C19 1.122 17.878 0 16.5 0h-9z"/><path d="M13.5 2h-3a.5.5 0 000 1h3a.5.5 0 000-1M12 22a.5.5 0 100-1 .5.5 0 000 1"/><path fill="none" d="M0 0h24v24H0z"/></svg>