<svg xmlns="http://www.w3.org/2000/svg" fill-rule="evenodd" stroke-linejoin="round" stroke-miterlimit="1.414" clip-rule="evenodd" viewBox="0 0 24 24"><path d="M14.252 10.353A4.49 4.49 0 0012.5 10c-1.953 0-3.602 1.258-4.223 3h-.764a.5.5 0 100 1h.538c-.02.167-.05.33-.05.5 0 .171.03.334.05.5h-.539a.5.5 0 100 1h.764c.621 1.743 2.27 3 4.224 3 .56 0 1.107-.1 1.627-.303a.501.501 0 00.286-.647.497.497 0 00-.647-.285A3.495 3.495 0 019.351 16h2.15a.5.5 0 100-1H9.05c-.025-.165-.05-.329-.05-.5 0-.17.025-.334.05-.5h3.45a.5.5 0 100-1H9.35a3.497 3.497 0 013.15-2c.471 0 .93.093 1.361.276a.5.5 0 00.39-.922"/><path d="M19.974 13.984C19.704 9.538 16.013 6 11.5 6c-.342 0-.678.026-1.01.065A6.495 6.495 0 0116.5 2C20.084 2 23 4.916 23 8.5a6.532 6.532 0 01-3.026 5.484M11.5 22C7.365 22 4 18.635 4 14.5 4 10.364 7.365 7 11.5 7c4.136 0 7.5 3.364 7.5 7.5 0 4.135-3.364 7.5-7.5 7.5M1 7.5C1 4.467 3.468 2 6.5 2c1.592 0 3.079.684 4.126 1.875a7.414 7.414 0 00-1.274 2.411 8.524 8.524 0 00-5.98 5.73A5.487 5.487 0 011 7.5M16.5 1c-1.997 0-3.838.807-5.204 2.127A6.464 6.464 0 006.5 1 6.508 6.508 0 000 7.5a6.479 6.479 0 003.134 5.544A8.523 8.523 0 003 14.5c0 4.686 3.813 8.5 8.5 8.5 4.473 0 8.14-3.475 8.468-7.866C22.422 13.847 24 11.284 24 8.5 24 4.364 20.636 1 16.5 1"/><path fill="none" d="M0 0h24v24H0z"/></svg>