<!-- Generated by IcoMoon.io -->
<svg version="1.1" xmlns="http://www.w3.org/2000/svg" width="886" height="1024" viewBox="0 0 886 1024">
<title></title>
<g id="icomoon-ignore">
</g>
<path d="M442.454 754.734c41.959 0 75.972 34.014 75.972 75.972s-34.014 75.972-75.972 75.972c-41.958 0-75.972-34.014-75.972-75.972s34.014-75.972 75.972-75.972zM214.538 754.734c41.958 0 75.972 34.014 75.972 75.972s-34.014 75.972-75.972 75.972c-41.959 0-75.972-34.014-75.972-75.972s34.014-75.972 75.972-75.972zM670.371 550.558c41.958 0 75.972 34.014 75.972 75.972s-34.014 75.972-75.972 75.972c-41.958 0-75.972-34.014-75.972-75.972s34.014-75.972 75.972-75.972zM442.454 550.558c41.959 0 75.972 34.014 75.972 75.972s-34.014 75.972-75.972 75.972c-41.958 0-75.972-34.014-75.972-75.972s34.014-75.972 75.972-75.972zM214.538 550.558c41.958 0 75.972 34.014 75.972 75.972s-34.014 75.972-75.972 75.972c-41.959 0-75.972-34.014-75.972-75.972s34.014-75.972 75.972-75.972zM670.371 347.57c41.958 0 75.972 34.014 75.972 75.972s-34.014 75.972-75.972 75.972c-41.958 0-75.972-34.014-75.972-75.972s34.014-75.972 75.972-75.972zM442.454 347.57c41.959 0 75.972 34.014 75.972 75.972s-34.014 75.972-75.972 75.972c-41.958 0-75.972-34.014-75.972-75.972s34.014-75.972 75.972-75.972zM214.538 347.57c41.958 0 75.972 34.014 75.972 75.972s-34.014 75.972-75.972 75.972c-41.959 0-75.972-34.014-75.972-75.972s34.014-75.972 75.972-75.972zM166.241 138.378h553.514c15.332 0 27.676 12.343 27.676 27.676v83.027c0 15.332-12.343 27.676-27.676 27.676h-553.514c-15.332 0-27.676-12.343-27.676-27.676v-83.027c0-15.332 12.343-27.676 27.676-27.676zM110.89 27.676c-45.997 0-83.027 37.030-83.027 83.027v802.595c0 45.997 37.030 83.027 83.027 83.027h664.216c45.997 0 83.027-37.030 83.027-83.027v-802.595c0-45.997-37.030-83.027-83.027-83.027h-664.216z"></path>
</svg>
