<svg xmlns="http://www.w3.org/2000/svg" viewBox="0 0 1024 1024"><path d="M169.637 719.14h102.608c21.329 0 38.474 17.176 38.474 38.475 0 21.299-17.175 38.474-38.474 38.474H169.637c-21.329 0-38.475-17.175-38.475-38.474 0-21.299 17.176-38.474 38.475-38.474zM92.658 590.874h153.928c21.328 0 38.474 17.175 38.474 38.474 0 21.3-17.176 38.475-38.474 38.475H92.658c-21.328 0-38.474-17.176-38.474-38.475 0-21.299 17.176-38.474 38.474-38.474zM41.34 462.575h230.906c21.329 0 38.474 17.176 38.474 38.475 0 21.299-17.175 38.474-38.474 38.474H41.34c-21.328 0-38.474-17.175-38.474-38.474 0-21.3 17.176-38.475 38.474-38.475zm648.22 137.108c13.764 0 24.83 11.094 24.83 24.829 0 13.734-11.066 25.303-24.83 25.303-13.764 0-24.829-11.539-24.829-25.303a24.763 24.763 0 0124.83-24.829zm165.586-137.998l-166.06 120.97s-21.566 3.353-29.902 11.51c-16.434 16.049-16.968 42.45-.92 58.884 16.049 16.434 42.45 16.968 58.884.92 8.336-8.129 12.43-29.902 12.43-29.902zM689.56 358.632c146.956 0 266.355 118.953 266.355 265.88 0 146.926-119.369 266.354-266.355 266.354-146.956 0-265.88-119.428-265.88-266.354 0-146.927 118.924-265.88 265.88-265.88zm0-282.907c55.027 0 99.82 44.793 99.82 99.82 0 43.31-28.062 80.093-66.715 93.828v-43.695h17.028V142.41h-99.82v83.268h16.552v43.695c-38.622-13.764-66.714-50.548-66.714-93.828 0-55.027 44.793-99.82 99.82-99.82zm0-16.552c-64.312 0-116.372 52.06-116.372 116.372 0 52.684 35.24 96.972 83.267 111.33v6.911c-70.304 6.971-133.934 36.19-184.452 80.034l-40.016-40.017 8.276-8.276-50.133-50.132-49.687 50.132 49.687 49.687 8.277-8.276 40.017 40.017c-50.696 58.38-81.428 134.2-81.428 217.587 0 183.68 148.884 332.594 332.594 332.594s332.594-148.914 332.594-332.594c0-172.438-131.412-314.025-299.46-330.756v-6.437c48.086-14.298 83.268-59.031 83.268-111.774 0-64.312-52.06-116.373-116.372-116.373z"/></svg>