<svg xmlns="http://www.w3.org/2000/svg" width="1024" height="1024"><path d="M511.992 778.875c-156.648 0-281.387-127.64-281.387-281.387 0-92.829 46.414-179.855 121.838-232.071 11.603-8.702 26.108-5.802 34.811 5.802s5.802 26.108-5.802 34.811c-63.82 43.513-98.63 113.136-98.63 191.458 0 127.64 104.432 232.071 232.071 232.071s232.071-104.432 232.071-232.071c0-75.423-37.712-147.945-101.531-191.458-11.603-8.702-14.504-23.206-5.802-34.811s23.206-14.504 34.811-5.802C749.865 317.634 796.28 404.66 796.28 497.488c-2.902 153.748-130.54 281.387-284.287 281.387zm-26.107-609.188h52.217v298.792h-52.217z"/><path d="M511.992 82.66c237.873 0 429.333 191.458 429.333 429.333S749.867 941.326 511.992 941.326c-237.873 0-429.333-191.458-429.333-429.333S274.117 82.66 511.992 82.66zm0-52.215c-266.881 0-481.548 214.667-481.548 481.548 0 263.982 214.667 481.548 481.548 481.548 263.982 0 481.548-214.667 481.548-481.548-2.902-266.881-217.567-481.548-481.548-481.548z"/></svg>