<svg xmlns="http://www.w3.org/2000/svg" height="50" width="50"><path d="M25.002 17c-4.412 0-8 3.58-8 7.99s3.588 8.01 8 8.01 8-3.6 8-8.01-3.589-7.99-8-7.99zm0 18c-5.514 0-10-4.49-10-10.01s4.486-9.99 10-9.99 10 4.47 10 9.99S30.517 35 25.002 35zm-8.844 3.49c.18 0 .36 0 .522.16a16.35 16.35 0 004.558 1.88c.448.16.764.51.764.97v4.49c0 .55.449 1.01 1 1.01h4.001c.55 0 1-.46 1-1.01V41.5a1 1 0 01.765-.97c1.606-.39 3.14-1.03 4.556-1.88a.947.947 0 011.229.15l3.178 3.18a1.02 1.02 0 001.414 0l2.827-2.83a.996.996 0 000-1.41l-3.179-3.19a.984.984 0 01-.146-1.22c.866-1.41 1.5-2.95 1.889-4.56.108-.45.51-.77.972-.77H46c.267 0 .519-.15.709-.28a.997.997 0 00.292-.71v-4c0-.56-.449-1-1-1h-4.493a1 1 0 01-.972-.78 15.845 15.845 0 00-1.889-4.55.987.987 0 01.146-1.22l3.18-3.19c.185-.19.293-.44.293-.69 0-.27-.106-.53-.294-.72l-2.829-2.82a1.02 1.02 0 00-1.414 0l-3.18 3.17a.986.986 0 01-1.228.16 16.295 16.295 0 00-4.555-1.89c-.448-.15-.764-.5-.764-.96V4.03c0-.56-.449-1-1-1H23c-.55 0-1 .44-1 1v4.49c0 .46-.316.85-.765.96-1.606.4-3.14 1.03-4.556 1.89a.959.959 0 01-1.227-.16l-3.18-3.17a1.02 1.02 0 00-1.414 0l-2.827 2.82a.996.996 0 000 1.41l3.179 3.19c.327.32.387.83.146 1.22a15.918 15.918 0 00-1.889 4.57c-.108.44-.51.76-.972.76H4.002c-.266 0-.518.16-.707.29a.997.997 0 00-.292.71v4c0 .55.449.99 1 .99h4.493a1 1 0 01.972.78 15.89 15.89 0 001.889 4.55c.24.4.18.91-.146 1.22l-3.18 3.19c-.185.19-.293.45-.293.7 0 .27.106.52.294.71l2.829 2.83a1.02 1.02 0 001.414 0l3.178-3.18c.192-.19.447-.3.705-.3zM27.001 49h-4c-1.654 0-3-1.35-3-3.01v-3.71a18.23 18.23 0 01-3.681-1.54l-2.634 2.65c-1.134 1.12-3.11 1.12-4.243 0l-2.83-2.84a2.97 2.97 0 01-.878-2.13c0-.79.313-1.55.879-2.11l2.635-2.64a17.641 17.641 0 01-1.525-3.68H4c-1.654 0-3-1.33-3-3v-4A2.987 2.987 0 014 20h3.724c.37-1.29.88-2.52 1.525-3.68l-2.634-2.63a3.011 3.011 0 010-4.25l2.828-2.83c1.133-1.14 3.11-1.14 4.243 0l2.635 2.64a17.71 17.71 0 013.678-1.53V4c0-1.65 1.346-3 3-3h4A3.006 3.006 0 0130 4v3.72c1.28.37 2.512.88 3.677 1.53l2.636-2.64c1.134-1.14 3.11-1.14 4.243 0l2.83 2.83c.567.57.878 1.31.878 2.12 0 .79-.313 1.55-.879 2.13l-2.634 2.63A17.337 17.337 0 0142.277 20H46c1.654 0 3 1.34 3 2.99v4c0 .81-.312 1.55-.878 2.12-.566.58-1.32.89-2.122.89h-3.723a18.19 18.19 0 01-1.526 3.68l2.634 2.63c1.17 1.18 1.17 3.08 0 4.24l-2.827 2.84c-1.134 1.12-3.11 1.12-4.244 0l-2.632-2.64c-1.169.64-2.4 1.15-3.679 1.53V46c0 1.65-1.346 3-3.002 3z"/></svg>