<svg xmlns="http://www.w3.org/2000/svg" viewBox="0 0 1024 1024"><path d="M989.888 327.88c32.524-162.603 32.898-291.302 32.898-296.702a29.937 29.937 0 00-8.779-21.185 29.956 29.956 0 00-21.185-8.779c-5.4 0-134.1.375-296.703 32.898-57.931 11.58-112.82 25.845-164.196 42.575-.35.101-.686.218-1.03.335-33.257 10.863-65.047 22.762-95.176 35.669-36.847 15.794-71.29 33.125-103.221 51.907a30.252 30.252 0 00-2.817 1.693c-51.228 30.41-95.949 64.58-133.576 102.207-74.716 74.716-115.862 174.044-115.862 279.7 0 95.605 33.694 186.029 95.457 257.725L8.778 972.85c-11.704 11.705-11.704 30.674 0 42.371A29.861 29.861 0 0029.964 1024c7.671 0 15.342-2.926 21.186-8.779l166.927-166.919c71.688 61.755 162.112 95.45 257.718 95.45 105.663 0 204.99-41.14 279.707-115.847 37.635-37.635 71.797-82.364 102.207-133.592a30.25 30.25 0 001.693-2.817c18.782-31.938 36.113-66.374 51.9-103.213 12.93-30.168 24.837-61.99 35.715-95.286.093-.28.187-.57.273-.85 16.738-51.4 31.01-106.311 42.598-164.266zM706.716 93.106c111.336-22.35 208.01-29.076 255.274-31.097-2.021 47.272-8.747 143.946-31.096 255.275-8.396 41.826-19.594 88.302-34.397 136.323l-283.74.008 174.308-174.301c11.697-11.705 11.697-30.683 0-42.38-11.705-11.705-30.675-11.705-42.38 0L570.393 411.235V127.502c48.021-14.803 94.497-26 136.323-34.397zm108.676 554.389H418.878l133.95-133.95 323.468-.009c-16.644 45.236-36.707 90.713-60.904 133.959zm-304.928-499.79v323.452l-133.958 133.95-.008-396.498c43.254-24.197 88.723-44.26 133.966-60.904zM140.17 548.198c0-89.644 34.911-173.927 98.305-237.32 23.885-23.886 50.19-45.439 78.095-64.884l.015 419.041-98.352 98.36C167.7 703.131 140.17 627.783 140.17 548.198zm572.96 237.335c-63.393 63.386-147.684 98.29-237.335 98.29-79.578 0-154.926-27.53-215.19-78.056l98.344-98.344h419.065c-19.446 27.912-40.998 54.217-64.884 78.11zm0 0"/></svg>