<svg
   xmlns="http://www.w3.org/2000/svg"
   height="28"
   width="28">
  <path d="m 22.195687,8.20652 -2.119623,1.41305 c 0.847817,1.27172 1.413047,2.68477 1.413047,4.38043 0,4.09782 -3.391321,7.48914 -7.489164,7.48914 V 18.80437 L 7.9239085,22.90218 13.999947,27 v -2.68477 c 5.652209,0 10.173962,-4.52175 10.173962,-10.17394 0,-2.26083 -0.706496,-4.23913 -1.978248,-5.93477 z M 6.5108895,14 v 0 c 2.7e-5,-4.09782 3.39132,-7.48914 7.4891365,-7.48914 V 9.19563 L 20.076091,5.09782 14.000026,1 v 2.68477 c -5.6521825,0 -10.1739345,4.52175 -10.1739345,10.17394 0,2.26083 0.706523,4.38043 1.978248,6.07606 l 2.260889,-1.55439 c -0.989083,-1.13041 -1.554312,-2.68475 -1.554312,-4.38041 z" />
</svg>