<svg width="170" height="40" xmlns="http://www.w3.org/2000/svg"><path d="M34.88 31.561a3.434 3.434 0 01-3.43 3.44H3.72a3.432 3.432 0 01-3.427-3.44V3.74A3.435 3.435 0 013.72.294h27.73a3.438 3.438 0 013.43 3.445V31.56z" fill="#FEFEFE"/><path d="M34.894 16.258c-3.372-1.485-7.262-2.279-11.619-2.33C20.974 10.88 20.05 5.043 20.303.322H16.08c-.18 4.219.42 11.113 3.459 15.611-2.96 3.782-9.044 9.082-19.35 7.933v4.256c.953.09 1.88.139 2.773.139 10.85 0 17.315-6.355 20.177-10.096 4.592.043 8.52 1.017 11.756 2.852v-4.76z" fill="#CDCBCB"/><path d="M34.586 20.503c-5.534-5.699-12.567-6.908-16.81-7.042C16.138 10.765 14.75 4.79 14.82.618H10.6c-.056 4.757 1.397 11.547 3.693 15.209-2.606 3.438-7.003 7.347-13.707 7.958v4.245c9.16-.692 14.811-6.492 17.563-10.323 4.999.24 12.064 2.124 16.437 9.845v-7.049z" fill="#E63135"/><path d="M3.758.682A3.09 3.09 0 00.679 3.776v27.748a3.087 3.087 0 003.079 3.088h27.655a3.087 3.087 0 003.08-3.088V3.776a3.09 3.09 0 00-3.08-3.094H3.758zm27.655 34.612H3.758A3.768 3.768 0 010 31.524V3.776C0 1.694 1.685 0 3.758 0h27.655c2.073 0 3.76 1.694 3.76 3.776v27.748a3.77 3.77 0 01-3.76 3.77z" fill="#CDCBCB"/><path d="M52.275 4.79c-1.207-.41-2.1-.587-3.136-.587-2.843 0-4.676 1.818-4.676 4.653 0 2.758 1.949 4.672 4.812 4.672.838 0 1.793-.177 3-.508l.78 2.502c-.602.215-.858.314-1.286.41-.836.216-1.792.314-2.707.314-4.89 0-8.028-2.856-8.028-7.33 0-4.459 3.039-7.37 7.716-7.37 1.404 0 2.55.215 4.15.742l-.625 2.502zm2.242.527h2.923v1.545c.778-1.272 1.615-1.76 2.941-1.76.448 0 .72.077 1.345.275l-.703 2.755a4.798 4.798 0 00-.856-.079c-.955 0-1.519.256-1.929.824-.39.506-.468.975-.468 2.363v4.713h-3.253V5.317zM67.357 0l2.63 1.312-2.552 3.126-1.987-.996L67.357 0zm-2.513 9.54h4.306c-.157-1.37-.954-2.172-2.124-2.172-1.188 0-2.01.823-2.182 2.172zm.059 2.19c.136 1.328 1.225 2.131 2.92 2.131.84 0 1.6-.176 2.787-.608l.857 2.014c-.35.155-.604.253-.758.333a9.094 9.094 0 01-3.119.547c-3.565 0-5.903-2.21-5.903-5.513 0-3.285 2.143-5.553 5.3-5.553 3.254 0 5.104 2.21 5.104 6.06 0 .14 0 .334-.019.588h-7.17zm11.735-1.056c0 1.778.877 2.951 2.24 2.951 1.405 0 2.261-1.134 2.261-2.97 0-1.837-.875-2.992-2.28-2.992-1.364 0-2.22 1.155-2.22 3.011zM81.12.528h3.231v15.425h-2.959v-1.486c-.972 1.172-2.066 1.701-3.467 1.701-2.765 0-4.578-2.15-4.578-5.473 0-3.344 1.871-5.653 4.578-5.653 1.248 0 2.26.47 3.195 1.449V.528zm5.39 15.427V5.318h3.253v10.637H86.51zm-.036-12.063V.802h3.31v3.09h-3.31zm4.64 1.425h1.599v-2.62l3.232.021v2.599h2.397v2.482h-2.397v4.047c0 .566.021.724.021.822.059.723.565 1.096 1.482 1.096.388 0 .603-.059 1.07-.196l.408 2.131c-1.07.332-1.577.43-2.415.43-1.248 0-2.163-.274-2.824-.88-.74-.646-.974-1.367-.974-2.99V7.8h-1.598V5.317zm12.79-3.46h4.948l3.04 8.601c.174.49.31 1.761.408 3.187.058-1.33.255-2.716.41-3.187l3.022-8.6h4.967v14.096h-3.176l.04-9.404c0-.216.116-1.33.272-2.386-.156.645-.213.898-.33 1.33-.1.292-.198.585-.353.997l-3.272 9.463h-3.135l-3.311-9.463c-.16-.412-.237-.723-.316-.997a13.768 13.768 0 01-.37-1.33l.098.546.078.784c.076.644.117.92.117 1.056l.057 9.404h-3.195V1.857zm28.85 9.697c0 2.873-1.947 4.653-5.146 4.653-3.328 0-5.316-1.76-5.316-4.673l.019-6.236h3.235v5.728c0 .742.078 1.25.273 1.584.312.548.994.938 1.715.938 1.324 0 2.005-.88 2.005-2.522l-.019-5.71h3.234v6.238zm1.37-6.237h1.595v-2.62l3.238.021v2.599h2.396v2.482h-2.396v4.047c0 .566.017.724.017.822.061.723.568 1.096 1.482 1.096.39 0 .602-.059 1.073-.196l.408 2.131c-1.073.332-1.577.43-2.415.43-1.248 0-2.164-.274-2.826-.88-.74-.646-.977-1.367-.977-2.99V7.8h-1.595V5.317zm19.372 6.237c0 2.873-1.948 4.653-5.143 4.653-3.332 0-5.318-1.76-5.318-4.673l.019-6.236h3.232v5.728c0 .742.079 1.25.272 1.584.314.548.997.938 1.719.938 1.323 0 2.005-.88 2.005-2.522l-.02-5.71h3.234v6.238zm4.42-2.013h4.303c-.157-1.37-.954-2.172-2.123-2.172-1.189 0-2.007.823-2.18 2.172zm.056 2.19c.136 1.329 1.225 2.131 2.922 2.131.837 0 1.6-.176 2.786-.607l.857 2.013c-.35.156-.604.253-.758.333-.935.353-2.048.547-3.118.547-3.566 0-5.903-2.208-5.903-5.513 0-3.285 2.142-5.553 5.3-5.553 3.252 0 5.106 2.21 5.106 6.061 0 .138 0 .333-.02.589h-7.172zm8.797 4.222V.53H170v15.424h-3.232zM44.327 29.77c0 1.78.877 2.951 2.24 2.951 1.405 0 2.26-1.134 2.26-2.97 0-1.838-.876-2.993-2.278-2.993-1.364 0-2.222 1.155-2.222 3.012zm4.48-10.148h3.233V35.05h-2.96v-1.488c-.973 1.175-2.064 1.702-3.467 1.702-2.768 0-4.578-2.152-4.578-5.476 0-3.34 1.871-5.648 4.578-5.648 1.245 0 2.26.468 3.195 1.448v-5.966zm7.835 9.015h4.306c-.156-1.37-.955-2.171-2.124-2.171-1.187 0-2.006.82-2.182 2.171zm.06 2.19c.135 1.328 1.227 2.13 2.92 2.13.839 0 1.6-.176 2.788-.606l.855 2.011c-.349.156-.603.254-.757.334-.934.354-2.047.548-3.119.548-3.565 0-5.903-2.21-5.903-5.513 0-3.284 2.144-5.554 5.3-5.554 3.253 0 5.106 2.21 5.106 6.063 0 .136 0 .331-.022.587h-7.169zm15.861 1.679h1.753c.917 0 1.306-.058 1.695-.273a1.68 1.68 0 00.779-1.426c0-1.155-.779-1.703-2.415-1.703h-1.812v3.402zm-.04-5.905h1.306c1.54 0 2.32-.526 2.32-1.621 0-1.037-.74-1.564-2.221-1.564h-1.405v3.185zm-3.328-5.647h5.18c1.56 0 2.359.115 3.176.506 1.189.547 1.908 1.78 1.908 3.227 0 1.486-.798 2.697-2.102 3.088 1.81.257 2.846 1.465 2.846 3.305 0 1.446-.722 2.679-1.99 3.36-.954.53-1.48.61-3.68.61h-5.338V20.953zm12.294 3.46h2.922v1.545c.779-1.272 1.615-1.76 2.942-1.76.447 0 .72.077 1.345.271l-.704 2.76a4.81 4.81 0 00-.856-.078c-.955 0-1.52.254-1.928.82-.39.508-.467.977-.467 2.364v4.714H81.49V24.414zm10.508 4.223h4.305c-.155-1.37-.954-2.171-2.123-2.171-1.19 0-2.007.82-2.182 2.171zm.057 2.19c.137 1.328 1.228 2.13 2.924 2.13.837 0 1.596-.176 2.786-.606l.857 2.011c-.35.156-.604.254-.76.334-.934.354-2.046.548-3.118.548-3.564 0-5.902-2.21-5.902-5.513 0-3.284 2.143-5.554 5.299-5.554 3.253 0 5.104 2.21 5.104 6.063 0 .136 0 .331-.02.587h-7.17zm7.647-6.413h1.597v-2.62l3.235.02v2.6h2.395v2.482h-2.395v4.047c0 .566.017.724.017.822.059.722.565 1.094 1.481 1.094.388 0 .605-.058 1.073-.196l.409 2.132c-1.072.332-1.577.43-2.418.43-1.245 0-2.162-.273-2.825-.88-.739-.645-.972-1.367-.972-2.992v-4.457h-1.597v-2.482zm15.48 5.844c-.352-.018-.507-.018-.742-.018-1.966 0-2.978.529-2.978 1.563 0 .724.623 1.232 1.5 1.232 1.267 0 2.22-.841 2.22-1.974v-.803zm.038-2.034c0-1.192-.857-1.836-2.357-1.836-.645 0-1.46.137-2.687.546l-.702-2.032c.369-.137.526-.197.797-.274a10.6 10.6 0 013.001-.45c3.235 0 4.969 1.525 4.969 4.38v6.49h-2.825l.018-1.33c-.953 1.057-1.967 1.526-3.37 1.526-2.142 0-3.722-1.427-3.722-3.364 0-2.306 1.951-3.576 5.517-3.576.466 0 .816 0 1.36.04v-.12zm7.66 1.585c.057 1.76.895 2.776 2.258 2.776 1.461 0 2.3-1.076 2.3-2.933 0-1.818-.856-2.874-2.318-2.874-1.364 0-2.24 1.115-2.24 2.855v.176zm4.812-5.396h2.941v9.404c0 3.361-2.104 5.356-5.668 5.356-1.112 0-2.36-.195-3.372-.51a9.593 9.593 0 01-1.13-.429l.915-2.187c1.17.486 2.124.682 3.058.682 1.891 0 3.061-.918 3.061-2.385v-.645c-.898 1.017-1.91 1.467-3.216 1.467-2.824 0-4.618-2.11-4.618-5.475 0-3.225 1.873-5.513 4.52-5.513 1.365 0 2.513.547 3.509 1.662v-1.427zm4.937.001h2.941v1.584c1.13-1.292 2.106-1.82 3.488-1.82 2.417 0 4.013 1.682 4.013 4.243v6.63h-3.253V29.34c0-.372 0-.664-.039-.879-.12-.92-.78-1.527-1.696-1.527-.661 0-1.362.353-1.81.92-.352.49-.412.822-.412 1.799v5.397h-3.232V24.414zm15.041 4.223h4.305c-.155-1.37-.954-2.171-2.122-2.171-1.188 0-2.008.82-2.183 2.171zm.058 2.19c.138 1.328 1.229 2.13 2.924 2.13.837 0 1.598-.176 2.787-.606l.857 2.011c-.352.156-.603.254-.76.334-.937.354-2.047.548-3.12.548-3.564 0-5.902-2.21-5.902-5.513 0-3.284 2.145-5.554 5.3-5.554 3.255 0 5.105 2.21 5.105 6.063 0 .136 0 .331-.017.587h-7.174z"/></svg>