<!-- Generated by IcoMoon.io -->
<svg version="1.1" xmlns="http://www.w3.org/2000/svg" width="1028" height="1024" viewBox="0 0 1028 1024">
<title></title>
<g id="icomoon-ignore">
</g>
<path d="M277.997 511.992c0 53.426 17.809 102.4 48.974 138.017l-71.235 48.974c-40.070-53.426-62.33-120.209-62.33-191.443 0-178.087 142.47-320.557 320.557-320.557v-84.591l191.443 129.113-191.443 129.113v-84.591c-129.113 0-235.965 106.852-235.965 235.965zM513.962-0.008c-280.487 0-512 231.513-512 512 0 284.939 231.513 512 512 512 284.939 0 512-231.513 512-512 4.452-280.487-227.061-512-512-512zM513.962 979.47c-258.226 0-463.026-209.252-463.026-467.478s209.252-467.478 467.478-467.478 463.026 209.252 463.026 467.478-209.252 467.478-467.478 467.478zM705.405 373.975l66.783-44.522c40.070 53.426 62.33 115.757 62.33 186.991 0 178.087-142.47 320.557-320.557 320.557v84.591l-191.443-129.113 191.443-129.113v84.591c129.113 0 235.965-106.852 235.965-235.965 0-53.426-17.809-97.948-44.522-138.017z"></path>
</svg>
