<!-- Generated by IcoMoon.io -->
<svg version="1.1" xmlns="http://www.w3.org/2000/svg" width="1002" height="1024" viewBox="0 0 1002 1024">
<title></title>
<g id="icomoon-ignore">
</g>
<path d="M320.655 587.862h358.099c12.985 0 23.648-10.452 23.648-23.331v-223.706c0-12.88-10.557-23.226-23.648-23.226h-22.804v-32.622c0-43.812-17.102-92.481-44.973-121.83-27.765-29.349-67.566-48.246-111.167-48.246-0.11 0-0.11 0-0.11 0s-0.11 0-0.11 0c-43.601 0-83.402 18.897-111.167 48.141-27.871 29.349-44.973 78.017-44.973 121.83v32.727h-22.802c-13.091 0-23.648 10.452-23.648 23.226v223.706c0 12.88 10.557 23.331 23.648 23.331zM399.468 284.977c0-28.821 10.452-64.504 29.666-84.774v0-0.318c18.581-19.636 44.235-31.144 70.521-31.144h0.22c26.288 0 51.941 11.507 70.522 31.144v0.212l-0.11 0.105c19.32 20.27 29.666 55.953 29.666 84.774v32.622h-200.481v-32.623zM465.164 375.037h69.086v138.172h-69.086zM503.787 27.601c-149.124-1.15-299.331 8.546-450.486 33.529l-25.791 4.299 2.578 26.651c44.865 378.185 211.602 633.057 451.345 883.777l19.773 20.633 19.773-20.633c239.802-250.72 406.471-505.591 451.347-883.777l2.578-27.511-26.651-3.439c-147.426-20.268-295.343-32.378-444.468-33.529zM502.929 82.623c136.537 1.056 272.56 12.409 408.36 30.090-46.674 338.079-192.418 570.862-410.079 802.965-217.798-232.304-363.549-465.266-410.079-803.825 137.904-21.045 275.104-30.287 411.799-29.23z"></path>
</svg>
