<svg xmlns="http://www.w3.org/2000/svg" height="50" width="50"><path d="M25 1C11.746 1 1 11.76 1 25c0 13.26 10.746 24 24 24s24-10.74 24-24S38.254 1 25 1zm11.94 18.61l.018.77c0 7.82-5.943 16.82-16.812 16.82-3.336 0-6.441-.98-9.057-2.66h1.41c2.769 0 5.316-.95 7.338-2.52-2.586 0-4.767-1.76-5.52-4.11.363.15.729.15 1.113.15.54 0 1.062-.15 1.557-.21a5.908 5.908 0 01-4.74-5.79v-.15c.798.45 1.707.7 2.676.75a5.94 5.94 0 01-2.628-4.92c0-1.08.291-2.1.798-2.97 2.913 3.57 7.269 5.93 12.18 6.16a5.906 5.906 0 015.757-7.24c1.698 0 3.234.72 4.314 1.86a11.91 11.91 0 003.753-1.43 5.918 5.918 0 01-2.598 3.27c1.191-.15 2.334-.46 3.393-.93a12.17 12.17 0 01-2.952 3.05z"/></svg>