<svg xmlns="http://www.w3.org/2000/svg" height="50" width="50"><path d="M7.352 31.192c0-.188-.187-.377-.56-.566-.187-.188-.56-.188-.747 0-.186 0-.373.189-.56.566-.186.189-.186.566 0 .755l1.495 4.342c1.495 4.342 5.416 7.174 10.085 7.174 1.494 0 2.8-.189 4.295-.755l14.94-5.285v.188l1.682 5.097c.187.377.373.566.747.566s.746-.189.933-.377l9.151-13.782c.187-.188.187-.565.187-.754s-.373-.566-.56-.566l-15.687-5.097c-.373-.189-.746 0-.933.189s-.373.566-.187.943l1.495 4.53h-.187l-12.139 4.343c-2.241.755-4.856 1.322-7.283 1.322-2.055 0-5.416-.377-6.164-2.831zm14.005 3.4l13.26-4.72c.186 0 .373-.189.56-.566.186-.189.186-.566 0-.755l-1.309-3.586 12.7 4.154-.187.188-7.284 11.139-1.494-4.531c0-.189-.187-.377-.56-.566-.187-.189-.56-.189-.747 0L20.61 40.823c-1.12.377-2.427.566-3.547.566-3.923 0-7.097-2.265-8.404-5.851l-.186-.566.373.188c1.308.378 2.801.755 4.482.755 2.615 0 5.603-.566 8.03-1.322z"/><path d="M42.835 18.733c.186.378.56.566.933.566.56 0 .933-.377.933-.943 0-.189 0-.377-.187-.566l-1.494-4.154c-1.495-4.342-5.416-7.173-10.085-7.173-1.494 0-2.8.188-4.296.754L13.7 12.503v-.189L12.018 7.03c-.187-.189-.373-.566-.747-.566h-.186c-.374 0-.56.188-.747.377l-9.151 13.78C1 21 1 21.187 1 21.565c.187.188.373.566.56.566l15.687 5.096c.373.189.746 0 .933-.188s.373-.566.187-.944l-1.495-4.53h.187l12.139-4.343c2.428-.943 5.042-1.322 7.283-1.322 2.055 0 5.416.378 6.35 2.832zM28.64 15.336l-13.26 4.72c-.186 0-.372.188-.559.565-.187.189-.187.566 0 .755l1.308 3.586-.56-.377L3.43 20.62l7.472-11.14v.189l1.495 4.342c0 .189.186.377.56.566.186.189.56.189.746 0L29.39 9.104c1.12-.566 2.241-.755 3.548-.755 3.922 0 7.097 2.266 8.403 5.852l.187.566-.374-.189c-1.308-.377-2.987-.566-4.669-.566-2.427 0-5.229.377-7.843 1.322z"/></svg>