<!-- Generated by IcoMoon.io -->
<svg version="1.1" xmlns="http://www.w3.org/2000/svg" width="1024" height="1024" viewBox="0 0 1024 1024">
<title></title>
<g id="icomoon-ignore">
</g>
<path d="M451.582 132.139c33.389-54.020 87.602-53.892 120.914 0l413.882 669.611c44.573 72.116 12.104 130.578-72.479 130.578h-803.715c-84.605 0-117.198-58.23-72.479-130.578zM512.052 663.701c21.193 0 38.374-17.384 38.374-38.263v-230.48c0-21.132-17.035-38.263-38.374-38.263-21.193 0-38.374 17.384-38.374 38.263v230.48c0 21.132 17.035 38.263 38.374 38.263zM512.052 817.202c21.193 0 38.374-17.181 38.374-38.374s-17.181-38.374-38.374-38.374c-21.193 0-38.374 17.181-38.374 38.374s17.181 38.374 38.374 38.374z"></path>
</svg>
